<?xml version="1.0" encoding="UTF-8"?>
<svg id="Layer_2" data-name="Layer 2" xmlns="http://www.w3.org/2000/svg" xmlns:xlink="http://www.w3.org/1999/xlink" viewBox="0 0 151.39 145.23">
  <defs>
    <style>
      .cls-1 {
        fill: url(#linear-gradient-2);
      }

      .cls-2 {
        fill: url(#linear-gradient-4);
      }

      .cls-3 {
        fill: url(#linear-gradient-3);
      }

      .cls-4 {
        fill: url(#linear-gradient-5);
      }

      .cls-5 {
        fill: url(#linear-gradient);
      }
    </style>
    <linearGradient id="linear-gradient" x1="0" y1="72.62" x2="151.39" y2="72.62" gradientUnits="userSpaceOnUse">
      <stop offset="0" stop-color="#389ed8"/>
      <stop offset="1" stop-color="#20419a"/>
    </linearGradient>
    <linearGradient id="linear-gradient-2" x1="30.24" y1="97.3" x2="47.58" y2="97.3" xlink:href="#linear-gradient"/>
    <linearGradient id="linear-gradient-3" x1="30.16" y1="105.62" x2="47.49" y2="105.62" xlink:href="#linear-gradient"/>
    <linearGradient id="linear-gradient-4" x1="16.15" y1="27.71" x2="39.51" y2="27.71" xlink:href="#linear-gradient"/>
    <linearGradient id="linear-gradient-5" x1="112.57" y1="117.51" x2="134.88" y2="117.51" xlink:href="#linear-gradient"/>
  </defs>
  <g id="Layer_1-2" data-name="Layer 1">
    <g>
      <path class="cls-5" d="M55.57,25.96l20.9-12.03,2.18-.84,53.93,30.89c.79.58,1.62,1.18,1.49,2.29l.02,45.37c2.41,1.34,4.9,2.54,7.04,4.31,13.43,11.13,13.79,31.6.32,42.85-13.98,11.67-34.69,6.79-42.85-9.1l-18.75,10.85-1.72.46-54.86-31.85-.49-1.71.03-52.29c-7.89-1.87-14.9-6.46-18.98-13.55C-8.78,19.72,11.79-5.92,36.03,1.22c10.88,3.21,18.73,13.47,19.55,24.74ZM26.82,3.99c-30.81,1.21-29.35,48.09,1.49,47.52,31.16-.58,30.23-48.77-1.49-47.52ZM40.13,52.75c1.72.26,3.61,2.75,5.25,2.29l48.95-28.29-16.07-9.17-22.96,13.17c-.6,7.08-4.24,13.45-9.5,18.08l-5.68,3.93ZM107.9,34.78c.34-.5-8.18-4.87-8.85-5.51l-.93-.03-49.17,28.56,9.77,5.24,49.17-28.25ZM127.75,46.44l-.52-.89-15.32-8.51-49.4,28.63,16.09,9.01,49.15-28.24ZM129.96,90.58v-40.98l-49.49,28.84v56.9l16.57-9.46c-6.03-20.41,12.01-40.31,32.92-35.3ZM59.98,68.83v20.02c0,.86-2.02,1.9-2.83,1.26l-7.14-7.34c-2.92.59-7.28,3.76-7.69-1.15-.61-7.36.52-15.52-.04-22.97l-6.85-4.15c-.73-.17-2.89.79-3.66.79h-4.89l.15,51.7,49.33,28.36v-57.37l-16.39-9.14ZM55.89,83.01v-16.55l-9.46-5.52v18.6l4.73-1.14,4.72,4.6ZM122.33,93.83c-17.8,1.08-27.97,20.41-19.01,35.84,8.1,13.94,28.09,15.47,38.46,3.15,13.34-15.83,1.16-40.25-19.45-38.99Z"/>
      <path class="cls-1" d="M30.76,94.9c-1.39-1.69.16-4.27,2.44-3.23,3.67,2.71,9.85,4.82,13.21,7.6,2.44,2.02.65,4.5-1.57,3.78l-14.08-8.14Z"/>
      <path class="cls-3" d="M46.97,108c1.39,1.69-.16,4.27-2.44,3.23-3.87-2.79-9.52-4.79-13.21-7.59-2.32-1.76-.83-4.43,1.57-3.78l14.08,8.14Z"/>
      <path class="cls-2" d="M37.21,19.08c1.86-.34,2.9,1.72,1.93,3.22-3.6,3.68-6.68,8.16-10.2,11.86-1.11,1.17-2.32,3-4.06,1.84-1.36-1.64-7.88-5.43-8.55-6.89-.67-1.48.58-3.26,2.05-3.02,1.51.25,6.93,5.56,7.39,5.54,2.01-1.82,9.53-12.21,11.42-12.55Z"/>
      <path class="cls-4" d="M113.79,106.4c.38-.11.79-.13,1.18-.07,1.38.24,6.84,7.08,8.57,8.18.75.13,6.66-6.82,8.01-7.68,2.2-1.4,4.23.73,2.82,2.82-.89,1.33-7.87,7.32-7.87,7.88l8,8.07c1.03,1.34-.2,3.29-1.83,3.13-1.81-.18-6.99-6.91-8.9-8.17-.83-.15-6.73,7.05-8.19,7.82-2.18,1.15-3.54-.71-2.79-2.79l8.02-8.04-8.02-8.04c-.48-1.04-.18-2.73,1.01-3.08Z"/>
    </g>
  </g>
</svg>