<?xml version="1.0" encoding="UTF-8"?>
<svg id="Layer_2" data-name="Layer 2" xmlns="http://www.w3.org/2000/svg" viewBox="0 0 493.49 213.78">
  <defs>
    <style>
      .cls-1 {
        fill: #fff;
      }
    </style>
  </defs>
  <g id="Layer_1-2" data-name="Layer 1">
    <g>
      <g>
        <path class="cls-1" d="M89.11,41.17c5.43-2.15,10.74-7.73,10.74-17.73,0-15.58-12.16-23.43-31.04-23.43H16.52L0,22.04h69.87c3.42,0,6.85,1.27,6.85,5.45s-3.31,5.7-6.85,5.7H0v51.56h69.4c24.9,0,32.1-10.64,32.1-24.7,0-10.13-5.55-16.72-12.39-18.87ZM69.52,62.96H24.55v-11.65h44.97c5.31,0,7.55,2.03,7.55,5.7,0,3.93-2.24,5.95-7.55,5.95Z"/>
        <path class="cls-1" d="M216.33,47.76c0,25.59-16.41,38.38-49.22,38.38-38,0-54.41-12.79-54.41-38.38V0h24.31v47.76c0,12.54,4.96,16.59,30.1,16.59,18.76,0,24.67-4.69,24.67-16.59V0h24.55v47.76Z"/>
        <path class="cls-1" d="M343.21,0l-46.85,56.75v27.99h-24.55v-28.12L223.65,0h31.39l18.88,23.56c2.48,3.04,9.09,10.77,10.74,13.3,1.53-2.41,4.25-6.08,9.91-13.43L312.52,0h30.68Z"/>
        <g>
          <path class="cls-1" d="M102.82,151.06c25.43,0,39.16,9.52,39.16,28.55,0,21.37-12.95,34.17-44.78,34.17H0l20.75-26.83h78.94c7.64,0,11.08-2.18,11.08-7.64s-3.43-7.49-11.08-7.49h-56.79c-26.83,0-39.16-12.01-39.16-29.96,0-19.66,13.11-32.45,44.78-32.45h90.65l-20.75,27.15H46.02c-7.49,0-11.08,1.87-11.08,7.18s3.59,7.33,11.08,7.33h56.79Z"/>
          <path class="cls-1" d="M283.02,213.78h-32.14v-40.25h-62.1v40.25h-32.45v-104.38h32.45v36.98h62.1v-36.98h32.14v104.38Z"/>
          <path class="cls-1" d="M335.6,213.78h-32.3v-104.38h32.3v104.38Z"/>
          <path class="cls-1" d="M442.16,187.1h-54.61v26.68h-32.14v-53.36h89.87c9.99,0,15.76-4.84,15.76-12.01s-5.77-11.86-15.76-11.86h-89.87l21.37-27.15h65.53c32.3,0,51.17,15.91,51.17,39.16s-18.88,38.54-51.33,38.54Z"/>
        </g>
      </g>
      <path class="cls-1" d="M467.74,68.73c10.39-6.13,17.74-15.11,22.05-26.95l-34.67-2.68c-2.31,7.03-5.69,11.98-10.17,14.83l-13.66-9.56c6.67-1.32,12.55-3.84,17.65-7.56,5.1-3.72,7.65-8.35,7.65-13.88,0-6.68-3.87-11.92-11.61-15.7-7.74-3.79-18.01-5.68-30.8-5.68-13.58,0-24.26,1.98-32.03,5.94-5.68,2.89-9.27,6.53-10.8,10.91h37.8c1.61-.78,3.56-1.2,5.92-1.2,3.13,0,5.62.62,7.44,1.85,1.83,1.23,2.74,2.78,2.74,4.65,0,3.74-3.25,6.44-9.75,8.1-2.07-1.07-3.81-2.11-5.22-3.12h-38.7c1.57,3.79,4.83,7.73,9.78,11.83-20.63,4.68-30.95,12.67-30.95,23.95,0,8.48,5.04,15.09,15.13,19.83,10.09,4.75,22.93,7.12,38.54,7.12,16.65,0,29.45-2.49,38.4-7.47,8.82,4.68,19.3,7.03,31.44,7.03,5.16,0,10.45-.47,15.87-1.41v-18.78c-3.79.26-6.93.38-9.41.38-5.49,0-9.7-.81-12.64-2.44ZM406.58,72.57c-5.27,0-9.41-.9-12.4-2.7-3-1.8-4.49-4.17-4.49-7.1,0-4.54,3.19-7.72,9.57-9.54l22.36,15.89c-3.78,2.3-8.79,3.46-15.04,3.46Z"/>
    </g>
  </g>
</svg>