<?xml version="1.0" encoding="UTF-8"?>
<svg id="Layer_2" data-name="Layer 2" xmlns="http://www.w3.org/2000/svg" viewBox="0 0 736.8 72.98">
  <defs>
    <style>
      .cls-1 {
        fill: #f2f2f3;
      }
    </style>
  </defs>
  <g id="Layer_1-2" data-name="Layer 1">
    <g>
      <path class="cls-1" d="M55.02,50.45H19.43v-9.22h35.59c4.2,0,5.98,1.6,5.98,4.51,0,3.11-1.78,4.71-5.98,4.71M70.52,33.21c4.3-1.7,8.5-6.12,8.5-14.04,0-12.33-9.62-18.55-24.57-18.55H13.08L0,18.07h55.3c2.71,0,5.42,1,5.42,4.31s-2.62,4.51-5.42,4.51H0v40.8h54.92c19.71,0,25.41-8.42,25.41-19.55,0-8.02-4.39-13.23-9.81-14.94"/>
      <path class="cls-1" d="M171.22,38.42c0,20.25-12.98,30.38-38.95,30.38-30.08,0-43.06-10.13-43.06-30.38V.63h19.24v37.8c0,9.92,3.92,13.13,23.82,13.13,14.85,0,19.52-3.71,19.52-13.13V.63h19.43v37.8Z"/>
      <path class="cls-1" d="M271.63.63l-37.08,44.91v22.16h-19.43v-22.26L177,.63h24.85l14.95,18.65c1.96,2.41,7.19,8.52,8.5,10.53,1.21-1.9,3.36-4.81,7.85-10.63L247.34.63h24.29Z"/>
      <path class="cls-1" d="M482.76,27.09c16.54,0,25.46,6.19,25.46,18.57,0,13.9-8.42,22.22-29.12,22.22h-63.2l13.49-17.45h51.33c4.97,0,7.2-1.42,7.2-4.97s-2.23-4.87-7.2-4.87h-36.93c-17.45,0-25.46-7.81-25.46-19.48,0-12.78,8.52-21.1,29.12-21.1h58.94l-13.49,17.65h-47.07c-4.87,0-7.2,1.22-7.2,4.67s2.33,4.77,7.2,4.77h36.93Z"/>
      <polygon class="cls-1" points="599.94 67.87 579.04 67.87 579.04 41.7 538.66 41.7 538.66 67.87 517.56 67.87 517.56 0 538.66 0 538.66 24.04 579.04 24.04 579.04 0 599.94 0 599.94 67.87"/>
      <rect class="cls-1" x="613.13" width="21" height="67.87"/>
      <path class="cls-1" d="M703.42,50.52h-35.51v17.35h-20.9v-34.7h58.44c6.49,0,10.25-3.14,10.25-7.81s-3.75-7.71-10.25-7.71h-58.44l13.9-17.65h42.61c21,0,33.28,10.35,33.28,25.46s-12.28,25.06-33.38,25.06"/>
      <path class="cls-1" d="M321.79,58.07c-4.17,0-7.45-.71-9.82-2.14-2.37-1.43-3.56-3.3-3.56-5.62,0-3.59,2.53-6.11,7.58-7.55l17.7,12.58c-2.99,1.82-6.96,2.73-11.9,2.73M370.19,55.03c8.22-4.85,14.04-11.96,17.45-21.33l-27.44-2.12c-1.82,5.57-4.51,9.48-8.05,11.74l-10.81-7.57c5.28-1.04,9.93-3.04,13.97-5.99,4.04-2.95,6.05-6.61,6.05-10.99,0-5.29-3.06-9.43-9.19-12.43-6.12-3-14.25-4.5-24.38-4.5-10.75,0-19.2,1.57-25.35,4.7-4.5,2.29-7.34,5.17-8.55,8.63h29.91c1.27-.62,2.82-.95,4.68-.95,2.48,0,4.44.49,5.89,1.46,1.45.98,2.17,2.2,2.17,3.68,0,2.96-2.57,5.1-7.72,6.41-1.64-.85-3.01-1.67-4.13-2.47h-30.63c1.24,3,3.82,6.12,7.74,9.37-16.33,3.71-24.5,10.03-24.5,18.96,0,6.71,3.99,11.94,11.98,15.7,7.98,3.76,18.15,5.64,30.5,5.64,13.18,0,23.31-1.97,30.39-5.92,6.98,3.71,15.27,5.56,24.88,5.56,4.08,0,8.27-.37,12.56-1.11v-14.86c-3,.2-5.48.3-7.45.3-4.34,0-7.68-.64-10.01-1.93"/>
    </g>
  </g>
</svg>