<?xml version="1.0" encoding="UTF-8"?>
<svg id="Layer_2" data-name="Layer 2" xmlns="http://www.w3.org/2000/svg" viewBox="0 0 1205.14 427.32">
  <defs>
    <style>
      .cls-1 {
        fill: #036bb1;
      }
    </style>
  </defs>
  <g id="Layer_1-2" data-name="Layer 1">
    <path class="cls-1" d="M16.44,161h1051.49v-.1h120.77c9.06,0,16.44-7.37,16.44-16.44V16.44c0-9.06-7.37-16.44-16.44-16.44H131.15v5h1057.55c6.31,0,11.44,5.13,11.44,11.44v128.03c0,6.31-5.13,11.44-11.44,11.44h-175.74v.1H16.44c-9.06,0-16.44,7.37-16.44,16.44v50.32c0,9.06,7.37,16.44,16.44,16.44h995.48v.05c.35-.03.69-.05,1.04-.05h175.74c6.31,0,11.44,5.13,11.44,11.44v89.03c0,6.31-5.13,11.44-11.44,11.44H16.44c-9.06,0-16.44,7.37-16.44,16.44v43.23c0,9.06,7.37,16.44,16.44,16.44h114.72v.13h936.77v-5H192.18v-.13H16.44c-6.31,0-11.44-5.13-11.44-11.44v-43.23c0-6.31,5.13-11.44,11.44-11.44h1172.27c9.06,0,16.44-7.37,16.44-16.44v-89.03c0-9.06-7.37-16.44-16.44-16.44H16.44c-6.31,0-11.44-5.13-11.44-11.44v-50.32c0-6.31,5.13-11.44,11.44-11.44Z"/>
  </g>
</svg>