<?xml version="1.0" encoding="UTF-8"?>
<svg id="Layer_2" data-name="Layer 2" xmlns="http://www.w3.org/2000/svg" xmlns:xlink="http://www.w3.org/1999/xlink" viewBox="0 0 190.97 146.08">
  <defs>
    <style>
      .cls-1 {
        fill: url(#linear-gradient-2);
      }

      .cls-2 {
        fill: url(#linear-gradient-10);
      }

      .cls-3 {
        fill: url(#linear-gradient-4);
      }

      .cls-4 {
        fill: url(#linear-gradient-3);
      }

      .cls-5 {
        fill: url(#linear-gradient-5);
      }

      .cls-6 {
        fill: url(#linear-gradient-8);
      }

      .cls-7 {
        fill: url(#linear-gradient-7);
      }

      .cls-8 {
        fill: url(#linear-gradient-9);
      }

      .cls-9 {
        fill: url(#linear-gradient-6);
      }

      .cls-10 {
        fill: url(#linear-gradient);
      }
    </style>
    <linearGradient id="linear-gradient" x1=".13" y1="92.11" x2="190.97" y2="92.11" gradientUnits="userSpaceOnUse">
      <stop offset="0" stop-color="#389ed8"/>
      <stop offset="1" stop-color="#20419a"/>
    </linearGradient>
    <linearGradient id="linear-gradient-2" x1="0" y1="41.27" x2="82.61" y2="41.27" xlink:href="#linear-gradient"/>
    <linearGradient id="linear-gradient-3" y1="114.33" x2="16" y2="114.33" xlink:href="#linear-gradient"/>
    <linearGradient id="linear-gradient-4" x1="120.77" y1="101.64" x2="133.47" y2="101.64" xlink:href="#linear-gradient"/>
    <linearGradient id="linear-gradient-5" x1="6.48" y1="101.64" x2="16" y2="101.64" xlink:href="#linear-gradient"/>
    <linearGradient id="linear-gradient-6" x1="9.65" y1="88.94" x2="16" y2="88.94" xlink:href="#linear-gradient"/>
    <linearGradient id="linear-gradient-7" x1="60.45" y1="123.86" x2="66.8" y2="123.86" xlink:href="#linear-gradient"/>
    <linearGradient id="linear-gradient-8" x1="149.35" y1="123.86" x2="155.7" y2="123.86" xlink:href="#linear-gradient"/>
    <linearGradient id="linear-gradient-9" x1="19.14" y1="41.34" x2="63.66" y2="41.34" xlink:href="#linear-gradient"/>
    <linearGradient id="linear-gradient-10" x1="32.03" y1="34.97" x2="50.77" y2="34.97" xlink:href="#linear-gradient"/>
  </defs>
  <g id="Layer_1-2" data-name="Layer 1">
    <g>
      <path class="cls-10" d="M145.18,38.14c1.69.24,3.87,1.66,5.17,2.77l39.29,39.29.96,1.82c-.75,11.62,1.08,24.66.04,36.11-.79,8.72-9.2,9.59-16.27,8.93-.79,7.24-5.99,14.1-12.58,16.99-1.38.61-5.37,2.04-6.69,2.04H.13v-6.35h47.62c-2.89-3.76-5.68-7.78-5.95-12.7-5.42-.09-10.55,1.09-14.27-3.78-.53-.69-1.99-3.3-1.99-3.96v-30.36h6.35v29.57c0,3.11,7.96,2.03,9.92,2.18,3.67-25.19,39.99-25.2,43.66,0h45.24c3.67-25.18,39.98-25.21,43.66,0,1.96-.15,9.92.93,9.92-2.18v-26.39h-49.01c-.16,0-1.85-.81-2.17-1.01-2.03-1.32-2.64-3.23-2.81-5.52-.7-9.45.53-19.8.05-29.35-.05-2,3.12-5.39,4.93-5.39h15.68l-6.55-6.35h-33.14v47.62h-6.35v-47.62h-15.87v-6.35h56.16ZM184.27,85.76l-.38-2.2-26.41-26.37h-20.83v28.57h47.62ZM61.55,108.1c-19.83,2.3-17.39,33.19,3.46,31.63,20.69-1.55,18.29-34.15-3.46-31.63ZM150.45,108.1c-19.83,2.3-17.39,33.19,3.46,31.63,20.69-1.55,18.29-34.15-3.46-31.63ZM79.5,139.73h57.15c-3.06-3.82-5.39-7.77-6.18-12.71l-45.01.02c-.27,4.92-3.07,8.93-5.95,12.7Z"/>
      <path class="cls-1" d="M71.03,70.14c-20.99,21.49-57.33,13.9-68.13-13.94C-10.6,21.42,25.54-11.86,59.35,4.12c25.2,11.92,31.22,46.02,11.68,66.02ZM38.15,6.51C11.09,8.9-2.81,40.43,13.46,62.31c15.17,20.4,46.95,17.85,58.82-4.61,13-24.59-6.55-53.63-34.13-51.19Z"/>
      <rect class="cls-4" x=".13" y="111.16" width="15.87" height="6.35"/>
      <rect class="cls-3" x="120.77" y="98.46" width="12.7" height="6.35"/>
      <rect class="cls-5" x="6.48" y="98.46" width="9.52" height="6.35"/>
      <rect class="cls-9" x="9.65" y="85.76" width="6.35" height="6.35"/>
      <rect class="cls-7" x="60.45" y="120.68" width="6.35" height="6.35"/>
      <rect class="cls-6" x="149.35" y="120.68" width="6.35" height="6.35"/>
      <path class="cls-8" d="M38.94,12.86c12.45-1.24,24.05,8.01,24.7,20.7.53,10.31-8.72,22.92-15.29,30.38-1.09,1.24-3.65,4.38-4.77,5.15-2.93,2.03-4.41.01-6.36-1.98-6.69-6.87-17.58-21.43-18.07-31.14-.58-11.5,8.32-21.98,19.77-23.12ZM39.33,19.2c-11.62,1.35-16.2,12.96-11.89,23.17,2.16,5.11,9.14,15.16,13.17,18.98.28.27.46.69.95.58,5.78-6.93,16.19-18.47,15.73-27.98-.44-9.16-9-15.8-17.96-14.76Z"/>
      <path class="cls-2" d="M39.71,25.54c12.94-2.05,15.26,17.38,3.05,18.92-12.54,1.58-14.78-17.05-3.05-18.92ZM40.5,31.87c-3.65.8-2.85,7.21,1.8,6.19,3.65-.8,2.85-7.21-1.8-6.19Z"/>
    </g>
  </g>
</svg>