<?xml version="1.0" encoding="UTF-8"?>
<svg id="Layer_2" data-name="Layer 2" xmlns="http://www.w3.org/2000/svg" xmlns:xlink="http://www.w3.org/1999/xlink" viewBox="0 0 73.68 65.64">
  <defs>
    <style>
      .cls-1 {
        fill: url(#linear-gradient);
      }
    </style>
    <linearGradient id="linear-gradient" x1="0" y1="32.82" x2="73.68" y2="32.82" gradientUnits="userSpaceOnUse">
      <stop offset="0" stop-color="#389ed8"/>
      <stop offset="1" stop-color="#20419a"/>
    </linearGradient>
  </defs>
  <g id="Layer_1-2" data-name="Layer 1">
    <path class="cls-1" d="M.87.04L59.68,0c.49-.02.98.2,1.14.68l.17,25.36,12.67,28.08c.13,1.1-.45,1.58-1.53,1.52-2.77-.14-6.33-1.6-9.15-1.81-.23-.02-.45-.06-.66.06l-8.98,11.54c-.62.36-1.05.23-1.57-.23l-8.52-11.09-.47-.3-9.71,1.83H1.29c-.71.02-1.01-.3-1.18-.95L0,1.6C0,.94.3.36.87.04ZM12.32,2.44H2.44v41.5h33.82l15.62-34.31c.63-.34,1.54-.37,1.91.36l4.74,10.39V2.44h-28.88v19.08c0,.45-1.08,1.08-1.56.8l-7.06-3.28-7,3.27c-.72.29-1.71-.37-1.71-1.11V2.44ZM27.22,2.44h-12.47v16.72c2.16-.67,4.12-2.09,6.31-2.74l6.15,2.74V2.44ZM51.54,49.57v-25.54h2.43v25.54l16.42,3.12L52.6,13.69l-17.48,38.84.36.21,16.05-3.18ZM35.27,46.37H2.67l-.23.23v6.61h29.79l3.04-6.84ZM59.75,53.22l-6.92-1.37-7.21,1.37,7.07,9.12,7.07-9.12Z"/>
  </g>
</svg>