<?xml version="1.0" encoding="UTF-8"?>
<svg id="Layer_2" data-name="Layer 2" xmlns="http://www.w3.org/2000/svg" xmlns:xlink="http://www.w3.org/1999/xlink" viewBox="0 0 77.79 77.8">
  <defs>
    <style>
      .cls-1 {
        fill: url(#linear-gradient-2);
      }

      .cls-2 {
        fill: url(#linear-gradient-4);
      }

      .cls-3 {
        fill: url(#linear-gradient-3);
      }

      .cls-4 {
        fill: url(#linear-gradient-5);
      }

      .cls-5 {
        fill: url(#linear-gradient-7);
      }

      .cls-6 {
        fill: url(#linear-gradient-6);
      }

      .cls-7 {
        fill: url(#linear-gradient);
      }
    </style>
    <linearGradient id="linear-gradient" x1="0" y1="38.9" x2="77.79" y2="38.9" gradientUnits="userSpaceOnUse">
      <stop offset="0" stop-color="#389ed8"/>
      <stop offset="1" stop-color="#20419a"/>
    </linearGradient>
    <linearGradient id="linear-gradient-2" x1="46.35" y1="1.52" x2="49.37" y2="1.52" xlink:href="#linear-gradient"/>
    <linearGradient id="linear-gradient-3" x1="57.28" y1="55.23" x2="67.62" y2="55.23" xlink:href="#linear-gradient"/>
    <linearGradient id="linear-gradient-4" x1="42.69" y1="57.05" x2="53.03" y2="57.05" xlink:href="#linear-gradient"/>
    <linearGradient id="linear-gradient-5" x1="28.1" y1="30.3" x2="67.67" y2="30.3" xlink:href="#linear-gradient"/>
    <linearGradient id="linear-gradient-6" x1="27.97" y1="61.23" x2="38.58" y2="61.23" xlink:href="#linear-gradient"/>
    <linearGradient id="linear-gradient-7" x1="11.21" y1="22.33" x2="21.29" y2="22.33" xlink:href="#linear-gradient"/>
  </defs>
  <g id="Layer_1-2" data-name="Layer 1">
    <g>
      <path class="cls-7" d="M41.48,0c.99.44,1.48,1.72.68,2.57-.08.09-.71.46-.75.46h-20.43v3.8c9.34,2.68,14.08,13.15,10.16,22.08-1.86,4.23-5.67,7.7-10.16,8.91v36.92h53.78V3.04h-20.43s-.67-.37-.75-.46c-.8-.86-.31-2.14.68-2.57h23.55v76.73c-.37.64-.78,1.07-1.59,1.07l-57.21-.08c-.37-.03-1.06-.78-1.06-1.07v-38.21c-5.88.84-12.04-2.23-15.26-7.15-3.56-5.45-3.57-12.44,0-17.9,3.22-4.92,9.37-7.99,15.26-7.15V1.14c0-.38.74-.95,1.06-1.14h22.49ZM15.01,9.16C5.52,10,.1,20.53,4.79,28.87c4.95,8.82,17.87,8.89,22.89.1,5.35-9.37-2-20.75-12.67-19.81Z"/>
      <path class="cls-1" d="M48.32,0c1.35.53,1.45,2.58,0,2.97-1.99.53-2.77-2.16-.92-2.97h.91Z"/>
      <path class="cls-3" d="M58.45,40.9c1.03-.21,6.76-.19,7.86-.03.65.1,1.1.54,1.27,1.16l.04,26.1c-.07.68-.49,1.27-1.18,1.4-1.03.21-6.76.19-7.86.03-.65-.1-1.1-.54-1.27-1.16l-.04-26.1c.07-.68.49-1.27,1.18-1.4ZM64.57,43.91h-4.25v22.64h4.25v-22.64Z"/>
      <path class="cls-2" d="M43.72,44.55l8.16-.02c.59.08.87.54,1.08,1.05l.08,22.57c-.08.67-.41,1.16-1.06,1.37l-7.97.06c-.61-.13-1.04-.44-1.23-1.05l-.08-22.57c.07-.56.42-1.27,1.02-1.41ZM49.99,47.55h-4.25v18.99h4.25v-18.99Z"/>
      <path class="cls-4" d="M64.57,25.37c-4.68,5.14-10.29,9.35-16.72,12.07-3.58,1.52-7.63,2.7-11.49,3.25-1.81.26-5.08.69-6.82.48-1.73-.21-1.98-2.37-.38-2.97,12.99-.02,25.43-5.72,33.73-15.65-1.07-.11-2.6-.04-2.86-1.41-.11-.57.3-1.46.88-1.64.58-.18,4.65-.16,5.4-.07.94.11,1.21.73,1.29,1.59s.1,4.54-.19,5.14c-.65,1.34-2.97.79-2.85-.8Z"/>
      <path class="cls-6" d="M29.28,52.91c1.13-.23,6.46-.19,7.72-.04.96.11,1.36.66,1.45,1.59.41,4.32-.33,9.29,0,13.69-.13.96-.66,1.36-1.59,1.45-1.65.16-5.69.19-7.3,0-.96-.11-1.36-.66-1.45-1.59-.41-4.32.33-9.29,0-13.69.07-.68.49-1.27,1.18-1.4ZM35.4,55.91h-4.25v10.64h4.25v-10.64Z"/>
      <path class="cls-5" d="M17.8,14.72c.06.08,1.34.51,1.79.87,1.38,1.1,2.84,4.78.38,5.07-1.83.22-1.48-1.82-2.12-2.57-1.1-1.28-3.9-.54-3.53,1.39.3,1.56,2.5,1.22,3.7,1.63,3.81,1.29,4.5,6.22,1.03,8.33-.31.19-1.2.45-1.24.51-.06.08,0,.51-.09.74-.53,1.43-2.36,1.43-2.9,0-.09-.23-.03-.66-.09-.74-.05-.06-1.01-.36-1.33-.56-1.82-1.12-3.48-5.26-.69-5.39,1.69-.08,1.35,1.85,1.98,2.58,1.13,1.31,4.03.49,3.49-1.51-.4-1.48-2.44-1.1-3.66-1.51-3.73-1.26-4.52-6.18-1.12-8.27.33-.2,1.29-.51,1.33-.56.06-.08,0-.51.09-.74.53-1.43,2.36-1.43,2.9,0,.09.23.03.66.09.74Z"/>
    </g>
  </g>
</svg>