<?xml version="1.0" encoding="UTF-8"?>
<svg id="Layer_2" data-name="Layer 2" xmlns="http://www.w3.org/2000/svg" xmlns:xlink="http://www.w3.org/1999/xlink" viewBox="0 0 62.5 77.28">
  <defs>
    <style>
      .cls-1 {
        fill: url(#linear-gradient-2);
      }

      .cls-2 {
        fill: url(#linear-gradient-4);
      }

      .cls-3 {
        fill: url(#linear-gradient-3);
      }

      .cls-4 {
        fill: url(#linear-gradient-5);
      }

      .cls-5 {
        fill: url(#linear-gradient);
      }
    </style>
    <linearGradient id="linear-gradient" x1="0" y1="38.64" x2="62.5" y2="38.64" gradientUnits="userSpaceOnUse">
      <stop offset="0" stop-color="#389ed8"/>
      <stop offset="1" stop-color="#20419a"/>
    </linearGradient>
    <linearGradient id="linear-gradient-2" x1="12.03" y1="15.19" x2="20.66" y2="15.19" xlink:href="#linear-gradient"/>
    <linearGradient id="linear-gradient-3" x1="39.25" y1="55.26" x2="55.13" y2="55.26" xlink:href="#linear-gradient"/>
    <linearGradient id="linear-gradient-4" x1="49.32" y1="59.85" x2="54.36" y2="59.85" xlink:href="#linear-gradient"/>
    <linearGradient id="linear-gradient-5" x1="40" y1="50.65" x2="45.18" y2="50.65" xlink:href="#linear-gradient"/>
  </defs>
  <g id="Layer_1-2" data-name="Layer 1">
    <g>
      <path class="cls-5" d="M25.02,27.52l3.87,1.03c4.34,2.31,5.07,7.95,1.75,11.5,2.39,1.48,4.23,3.74,4,6.71,6.32-9.09,20.1-8.88,25.75.82,5.91,10.13-1.35,22.68-12.92,22.84-.03,3.74-3.3,6.44-6.91,6.63-10.29-.55-21.3.71-31.5,0-2.88-.2-5.57-1.57-6.66-4.37-1.12-2.9-.48-5.69,1.56-7.97-5.35-2.97-5.27-10.28.2-13.04-2.97-2.67-2.93-7.55,0-10.23-7.2-3.76-4.46-13.93,3.61-13.74-.34-.44-.97-.72-1.41-1.1C-5.27,16.39,4.1-2.62,19.45.3c12.9,2.46,16.5,20.03,5.58,27.22ZM15.36,3.11C-1.74,4.6,2.6,31.22,19.45,26.86c14.18-3.67,10.41-25.01-4.09-23.75ZM6.12,30.97c-4.11,1.2-3.97,6.92.2,7.93,6.23-.44,13.7.76,19.78.03,4.51-.54,4.79-6.95.38-7.95H6.12ZM8.33,42.6c-4.41,1.02-4.4,6.94,0,7.93l19.99.03c4.3-.91,4.44-6.84.17-7.96H8.33ZM46.04,43.22c-16.38,1.62-12.81,27.23,3.66,23.92,14.8-2.97,11.53-25.42-3.66-23.92ZM16.4,54.19H6.47c-.11,0-1.13.39-1.32.49-1.89,1-2.64,3.76-1.56,5.6.33.56,1.86,1.94,2.48,1.94h9.53c-1.22-2.84-1.01-5.5.8-8.02ZM21.31,62.81h12.73c-1.13-2.52-2.14-5.19-1.8-8.02-3.43.19-7.14-.26-10.54-.01-5.1.38-4.73,7.41-.39,8.03ZM16,65.82h-7.52c-.09,0-.99.34-1.18.42-2.28,1-3.07,3.78-1.69,5.86.36.55,1.64,1.74,2.27,1.74h8.12c-1.16-1.96-1.48-3.76-.86-5.97.22-.77.57-1.34.86-2.05ZM21.36,65.87c-4.31.68-4.63,6.88-.4,7.92l20.39.03c1.35-.12,2.95-1.83,3.09-3.14.09-.84-1.37-.79-2.08-1.05-2.44-.87-4.19-2.28-6.21-3.81-4.54.46-10.41-.65-14.79.04Z"/>
      <path class="cls-1" d="M18.06,8.41c.41.56,1.5.71,2.12,1.99.47.97.92,3.11-.52,3.44-2.93.67-1.18-3.72-4.22-2.32-1.12,2.62,1.61,1.85,3.1,2.72,2.2,1.28,2.79,4.32,1.26,6.36-.47.63-1.54,1.08-1.75,1.36-.54.74-.06,2.18-1.95,1.94-1.52-.19-1.06-1.5-1.36-1.97-.07-.11-1.48-.83-2.02-1.69-.95-1.52-1.15-4.25,1.31-3.72,1.68.36.46,2.72,2.45,2.59,1.29-.09,1.48-1.81.45-2.28-1.12-.5-2.3-.04-3.57-1.24-2.12-2.02-1.6-4.93.51-6.73.25-.21.83-.37.87-.43.33-.52-.16-1.91,1.54-1.98,1.72-.07,1.25,1.27,1.76,1.96Z"/>
      <path class="cls-3" d="M53.59,47.27c1.35-.04,1.88,1.32,1.32,2.42-3.6,3.61-7.26,7.18-10.84,10.81-1,1.01-2.62,3.82-4.31,2.32-.64-.57-.67-1.49-.1-2.11,3.51-3.57,7.12-7.05,10.63-10.62.83-.84,1.97-2.78,3.3-2.82Z"/>
      <path class="cls-2" d="M51.79,57.3c4.06-.08,2.97,6.37-.96,4.86-2.53-.97-1.67-4.81.96-4.86Z"/>
      <path class="cls-4" d="M40.73,48.84c1.98-2.07,5.68.49,4.03,3.13-2.01,3.23-6.54-.51-4.03-3.13Z"/>
    </g>
  </g>
</svg>