<?xml version="1.0" encoding="UTF-8"?>
<svg id="Layer_2" data-name="Layer 2" xmlns="http://www.w3.org/2000/svg" xmlns:xlink="http://www.w3.org/1999/xlink" viewBox="0 0 50.57 46.11">
  <defs>
    <style>
      .cls-1 {
        fill: url(#linear-gradient-2);
      }

      .cls-2 {
        fill: url(#linear-gradient-4);
      }

      .cls-3 {
        fill: url(#linear-gradient-3);
      }

      .cls-4 {
        fill: url(#linear-gradient);
      }
    </style>
    <linearGradient id="linear-gradient" x1="0" y1="14.07" x2="35.53" y2="14.07" gradientUnits="userSpaceOnUse">
      <stop offset="0" stop-color="#42b8ea"/>
      <stop offset="1" stop-color="#4365af"/>
    </linearGradient>
    <linearGradient id="linear-gradient-2" x1="6.04" y1="33.48" x2="13.25" y2="33.48" xlink:href="#linear-gradient"/>
    <linearGradient id="linear-gradient-3" x1="19.36" y1="33.48" x2="26.6" y2="33.48" xlink:href="#linear-gradient"/>
    <linearGradient id="linear-gradient-4" x1="28.52" y1="35.06" x2="50.57" y2="35.06" xlink:href="#linear-gradient"/>
  </defs>
  <g id="Layer_1-2" data-name="Layer 1">
    <g>
      <path class="cls-4" d="M14.93,7.77c4.42,0,8.84-.02,13.25.02.78,0,1.09-.22,1.24-1,.37-1.85.87-3.68,1.27-5.53C30.89.37,31.41,0,32.28,0c.67,0,1.34-.03,2.01.02.77.05,1.4.48,1.2,1.26-.12.46-.82,1.13-1.21,1.09-1.33-.12-1.51.61-1.74,1.63-1.23,5.45-2.5,10.88-3.79,16.31-.15.64-.04.97.48,1.37,1.36,1.05,1.79,2.45,1.3,3.86-.53,1.56-1.89,2.58-3.59,2.58-7.1.02-14.2,0-21.3.02-.87,0-1.54-.28-1.53-1.22,0-.94.7-1.19,1.56-1.19,6.75.01,13.49,0,20.24,0,.32,0,.63.01.95,0,.82-.04,1.44-.46,1.41-1.28-.03-.75-.62-1.09-1.42-1.09-5.44,0-10.88-.01-16.32-.03-1.85,0-3.71-.04-5.56-.02-1,0-1.47-.46-1.71-1.42C2.23,17.85,1.16,13.82.12,9.78c-.37-1.43.07-2,1.55-2,4.42-.01,8.84,0,13.26,0ZM4.04,15.22h3.97c-.18-1.5-.33-2.91-.55-4.31-.04-.26-.38-.67-.6-.68-1.32-.06-2.65-.03-4.12-.03.46,1.79.89,3.41,1.3,5.02ZM14.37,15.16v-4.9h-4.59c.27,1.71.53,3.31.79,4.92,1.21.03,2.41.06,3.62.09.03,0,.07-.04.18-.11ZM21.57,10.27h-4.54v4.95h3.93c.21-1.68.41-3.26.62-4.95ZM28.6,10.19c-1.39,0-2.65-.03-3.9.03-.25.01-.67.33-.7.55-.24,1.46-.4,2.94-.59,4.47h3.96c.41-1.65.8-3.25,1.24-5.05ZM4.7,17.77c.23.87.39,1.68.66,2.45.09.26.41.59.65.61.88.07,1.77.03,2.74.03-.16-1.13-.29-2.09-.42-3.09h-3.63ZM25.93,20.79c.26-1.01.52-1.98.79-3.02h-3.65c-.13,1.02-.25,2-.37,3.02h3.23ZM10.82,17.77c.11.92.17,1.77.32,2.61.03.18.36.43.56.44.89.05,1.78.02,2.69.02v-3.08h-3.57ZM20.58,17.81h-3.54v3.05c.92,0,1.75.04,2.57-.02.24-.02.62-.27.66-.46.16-.84.22-1.69.32-2.57Z"/>
      <path class="cls-1" d="M13.25,33.43c.02,2.01-1.53,3.64-3.52,3.69-2.02.05-3.69-1.59-3.69-3.63,0-1.99,1.6-3.62,3.58-3.64,1.96-.02,3.61,1.61,3.63,3.58ZM9.36,34.86h.51c.33-.44.93-.92.9-1.34-.03-.43-.64-1.04-1.1-1.15-.67-.17-1.27.35-1.15,1.09.08.5.55.94.85,1.41Z"/>
      <path class="cls-3" d="M19.37,33.38c.05-1.97,1.74-3.59,3.69-3.53,1.98.06,3.58,1.72,3.55,3.69-.03,2.03-1.75,3.66-3.76,3.58-1.98-.08-3.53-1.74-3.48-3.73ZM24.35,33.68c0-.18-.02-.37-.02-.55-.47-.27-1-.82-1.4-.75-.44.08-.77.75-1.15,1.16.42.38.82,1.03,1.27,1.07.41.03.87-.59,1.31-.93Z"/>
      <path class="cls-2" d="M43.55,31.06c1.81,0,3.49,0,5.18,0,1.51,0,1.83.31,1.84,1.77,0,1.66-.01,3.31,0,4.97.01,1.05-.51,1.52-1.52,1.52-1.77,0-3.54,0-5.5,0,0,1.51,0,2.95,0,4.4,0,2.26-.13,2.38-2.44,2.39-1.38,0-2.76.02-4.14,0-1.28-.02-1.62-.36-1.63-1.62-.02-1.65,0-3.3,0-5.15-1.63,0-3.19,0-4.75,0-1.77,0-2.06-.28-2.06-2.05,0-1.5,0-3,0-4.5,0-1.32.38-1.7,1.67-1.71,1.65-.01,3.31,0,5.13,0,0-1.75,0-3.44,0-5.12,0-1.61.32-1.93,1.94-1.93,1.46,0,2.92,0,4.38,0,1.56,0,1.89.33,1.9,1.86.01,1.69,0,3.38,0,5.19ZM48.1,36.89v-3.43c-1.71,0-3.36,0-5.01,0-1.7,0-1.98-.28-1.98-2,0-1.64,0-3.28,0-4.89h-3.36c0,1.75,0,3.41,0,5.06,0,1.5-.32,1.82-1.79,1.83-1.64,0-3.28,0-4.95,0v3.43c1.68,0,3.29,0,4.89,0,1.55,0,1.84.31,1.85,1.9,0,1.6,0,3.2,0,4.76h3.36c0-1.71-.01-3.33,0-4.94.01-1.33.37-1.69,1.68-1.71,1.73-.02,3.46,0,5.3,0Z"/>
    </g>
  </g>
</svg>