<?xml version="1.0" encoding="UTF-8"?>
<svg id="Layer_2" data-name="Layer 2" xmlns="http://www.w3.org/2000/svg" xmlns:xlink="http://www.w3.org/1999/xlink" viewBox="0 0 67.18 45.33">
  <defs>
    <style>
      .cls-1 {
        fill: url(#linear-gradient-2);
      }

      .cls-2 {
        fill: url(#linear-gradient-4);
      }

      .cls-3 {
        fill: url(#linear-gradient-3);
      }

      .cls-4 {
        fill: url(#linear-gradient);
      }
    </style>
    <linearGradient id="linear-gradient" x1="0" y1="11.74" x2="44.78" y2="11.74" gradientUnits="userSpaceOnUse">
      <stop offset="0" stop-color="#42b8ea"/>
      <stop offset="1" stop-color="#4365af"/>
    </linearGradient>
    <linearGradient id="linear-gradient-2" y1="35.25" x2="44.78" y2="35.25" xlink:href="#linear-gradient"/>
    <linearGradient id="linear-gradient-3" x1="47.02" y1="35.25" x2="67.18" y2="35.25" xlink:href="#linear-gradient"/>
    <linearGradient id="linear-gradient-4" x1="47.02" y1="10.08" x2="67.18" y2="10.08" xlink:href="#linear-gradient"/>
  </defs>
  <g id="Layer_1-2" data-name="Layer 1">
    <g>
      <path class="cls-4" d="M0,6.65c.44-1.38,1.25-2.39,2.75-2.68.3-.06.61-.07.91-.07,12.49,0,24.97,0,37.46,0,2.27,0,3.65,1.36,3.65,3.62,0,2.82,0,5.64,0,8.46,0,2.2-1.36,3.59-3.54,3.59-12.55.01-25.1,0-37.66,0-1.87,0-2.99-1-3.57-2.7V6.65ZM22.38,17.33c6.23,0,12.46,0,18.69,0,1.12,0,1.47-.35,1.47-1.43,0-2.78,0-5.55,0-8.33,0-1.05-.38-1.43-1.41-1.43-12.48,0-24.96,0-37.44,0-1.07,0-1.45.39-1.45,1.47,0,2.69,0,5.38,0,8.06,0,1.35.3,1.66,1.65,1.66,6.16,0,12.33,0,18.49,0Z"/>
      <path class="cls-1" d="M0,30.13c.04-.08.09-.15.12-.23.52-1.6,1.69-2.5,3.36-2.5,12.61,0,25.22-.01,37.83,0,2.05,0,3.45,1.43,3.46,3.48.02,2.86.01,5.72,0,8.59,0,2.25-1.39,3.62-3.66,3.62-10.58,0-21.16,0-31.73,0-1.73,0-3.45,0-5.18,0-2.47,0-3.27-.52-4.2-2.73,0-3.41,0-6.82,0-10.23ZM22.37,29.64c-6.21,0-12.41,0-18.62,0-1.13,0-1.51.37-1.51,1.49,0,2.75,0,5.51,0,8.26,0,1.08.38,1.47,1.46,1.47,12.46,0,24.92,0,37.37,0,1.09,0,1.46-.37,1.46-1.45,0-2.71,0-5.42,0-8.13,0-1.32-.31-1.63-1.61-1.63-6.19,0-12.37,0-18.56,0Z"/>
      <path class="cls-3" d="M56.8,25.17c-5.51.17-9.95,4.84-9.78,10.28.19,5.66,4.81,10.06,10.38,9.88,5.63-.19,9.97-4.87,9.77-10.54-.19-5.41-4.9-9.78-10.37-9.61ZM62.37,32.68c-.17.2-.36.38-.54.57-1.85,1.95-3.7,3.9-5.56,5.84-.83.87-1.35.86-2.19-.02-.72-.76-1.45-1.51-2.17-2.28-.54-.58-.55-1.22-.07-1.68.48-.46,1.13-.41,1.68.14.55.56,1.09,1.13,1.66,1.74,1.74-1.83,3.46-3.63,5.18-5.43.12-.13.24-.26.36-.38.52-.5,1.18-.55,1.64-.12.47.44.48,1.09,0,1.64Z"/>
      <path class="cls-2" d="M56.8,0c-5.51.17-9.95,4.84-9.78,10.28.19,5.66,4.81,10.06,10.38,9.88,5.63-.19,9.97-4.87,9.77-10.54C66.98,4.21,62.27-.16,56.8,0ZM62.37,7.51c-.17.2-.36.38-.54.57-1.85,1.95-3.7,3.9-5.56,5.84-.83.87-1.35.86-2.19-.02-.72-.76-1.45-1.51-2.17-2.28-.54-.58-.55-1.22-.07-1.68.48-.46,1.13-.41,1.68.14.55.56,1.09,1.13,1.66,1.74,1.74-1.83,3.46-3.63,5.18-5.43.12-.13.24-.26.36-.38.52-.5,1.18-.55,1.64-.12.47.44.48,1.09,0,1.64Z"/>
    </g>
  </g>
</svg>