<?xml version="1.0" encoding="UTF-8"?>
<svg id="Layer_2" data-name="Layer 2" xmlns="http://www.w3.org/2000/svg" xmlns:xlink="http://www.w3.org/1999/xlink" viewBox="0 0 55.66 50.38">
  <defs>
    <style>
      .cls-1 {
        fill: url(#linear-gradient);
      }
    </style>
    <linearGradient id="linear-gradient" x1="0" y1="25.19" x2="55.66" y2="25.19" gradientUnits="userSpaceOnUse">
      <stop offset="0" stop-color="#42b8ea"/>
      <stop offset="1" stop-color="#4365af"/>
    </linearGradient>
  </defs>
  <g id="Layer_1-2" data-name="Layer 1">
    <path class="cls-1" d="M28.27,0c2.13,1.14,4.26,2.3,6.4,3.43,6.4,3.38,12.81,6.74,19.21,10.11,1.81.95,2.24,2.38,1.29,4.2-.26.5-.53,1.01-.8,1.51-.73,1.37-1.1,1.66-2.66,2,0,.28,0,.58,0,.88,0,7.89-.05,15.79.03,23.68.02,2.68-1.79,4.58-4.58,4.56-12.89-.07-25.78-.03-38.67-.03-2.96,0-4.5-1.53-4.5-4.49,0-7.92,0-15.84,0-23.76,0-.56-.01-.94-.75-1.03-.77-.1-1.33-.65-1.7-1.36C1.04,18.73.52,17.76,0,16.78c0-.41,0-.83,0-1.24.35-1.05,1.12-1.66,2.08-2.15,2.92-1.49,5.81-3.03,8.71-4.56C16.37,5.88,21.93,2.94,27.5,0c.26,0,.52,0,.78,0ZM13.24,47.69c0-6.25,0-12.39-.01-18.52,0-.2-.12-.46-.27-.58-.78-.65-1.06-1.49-1.02-2.48.03-.67,0-1.35,0-2.02.01-1.8,1.03-2.89,2.82-2.9,8.72-.02,17.44-.03,26.17.03.68,0,1.5.34,2.02.79,1.29,1.12,1.2,5.27-.07,6.42-.34.31-.47.6-.46,1.05.01,5.82,0,11.65,0,17.47,0,.23,0,.45,0,.76,1.62,0,3.17,0,4.71,0,1.55,0,1.93-.38,1.93-1.92,0-8.28,0-16.56.02-24.85,0-.6-.18-.91-.71-1.19-6.67-3.48-13.32-6.99-19.97-10.5-.42-.22-.73-.19-1.13.02-6.63,3.5-13.26,6.99-19.9,10.46-.52.27-.73.56-.73,1.18.03,8.31.02,16.62.02,24.92,0,.23,0,.47.02.7.08.68.49,1.13,1.16,1.15,1.78.05,3.56.02,5.42.02ZM33.13,39.76c.47,0,.86,0,1.24,0,1.63.03,2.72,1.11,2.75,2.73.01.57,0,1.14,0,1.71,0,1.15,0,2.31,0,3.44h2.59v-18.44H15.96v18.46h2.55c.02-.27.04-.49.04-.72,0-1.48-.02-2.95.01-4.43.04-1.7,1.11-2.73,2.8-2.75.38,0,.75,0,1.16,0,0-1.83-.02-3.54,0-5.24.02-1.56,1.08-2.67,2.61-2.69,1.81-.03,3.62-.04,5.43,0,1.44.03,2.46,1.09,2.53,2.52.02.44,0,.88.01,1.32,0,1.34,0,2.68,0,4.09ZM41.05,23.9H14.63v2.55h26.42v-2.55Z"/>
  </g>
</svg>