<?xml version="1.0" encoding="UTF-8"?>
<svg id="Layer_2" data-name="Layer 2" xmlns="http://www.w3.org/2000/svg" xmlns:xlink="http://www.w3.org/1999/xlink" viewBox="0 0 61.94 41.29">
  <defs>
    <style>
      .cls-1 {
        fill: url(#linear-gradient);
      }
    </style>
    <linearGradient id="linear-gradient" x1="0" y1="20.64" x2="61.94" y2="20.64" gradientUnits="userSpaceOnUse">
      <stop offset="0" stop-color="#42b8ea"/>
      <stop offset="1" stop-color="#4365af"/>
    </linearGradient>
  </defs>
  <g id="Layer_1-2" data-name="Layer 1">
    <path class="cls-1" d="M46.82,8.33c.21-1.31.52-1.57,1.83-1.57,1,0,2,0,3.09,0,0-.41-.02-.74,0-1.07.05-.84.51-1.31,1.35-1.31,2.48-.01,4.96-.01,7.44,0,.91,0,1.39.51,1.4,1.46,0,2.1,0,4.19,0,6.29,0,3.12,0,6.25,0,9.37,0,1.17-.45,1.62-1.64,1.62-3.66,0-7.32,0-10.97,0-.41,0-.64.13-.89.45-1.63,2.14-3.65,3.72-6.36,4.23-.56.11-1.15.13-1.72.1-.47-.02-.79.1-1.12.44-4.04,4.07-8.1,8.12-12.15,12.17-1.06,1.06-1.62,1.06-2.69-.01-7.87-7.87-15.73-15.73-23.6-23.6-1.04-1.04-1.05-1.55-.02-2.57C5.29,9.79,9.81,5.27,14.34.75c.99-.99,1.54-1,2.53,0,1.21,1.21,2.43,2.41,3.62,3.64.28.29.51.33.89.19,1.76-.67,3.52-1.3,5.29-1.94,2.72-.98,5.45-.92,8.05.3,2.86,1.35,5.63,2.87,8.43,4.34,1.39.73,2.56,1.11,3.67,1.05ZM22.79,6.66c1.13,1.14,2.19,2.08,3.11,3.14,1.14,1.33,2.53,2.11,4.22,2.56,2.23.59,4.41,1.36,6.6,2.07.8.26,1.15.92.94,1.64-.2.7-.91,1.03-1.71.8-.27-.08-.53-.16-.79-.25-3.48-1.1-6.96-2.21-10.45-3.3-1.01-.32-1.92-.13-2.64.65-.67.71-.87,1.57-.54,2.5.4,1.1,1.28,1.66,2.34,2.02,3.14,1.06,6.26,2.14,9.4,3.19.57.19.99.5,1.38.96,1.96,2.27,4.48,3.12,7.38,2.5,2.09-.44,3.54-1.91,4.7-3.64.1-.15.13-.36.13-.54,0-3.17,0-6.33.01-9.5,0-.39-.13-.52-.51-.54-1.58-.11-3.03-.62-4.43-1.37-2.69-1.44-5.4-2.86-8.13-4.22-1.34-.67-2.84-1.04-4.3-.69-2.23.54-4.39,1.31-6.73,2.03ZM8.02,20.24c4.37,4.37,8.72,8.72,13.07,13.07,3.11-1.95,6.28-1.93,9.4.05.98-.98,1.93-1.93,2.91-2.91-1.31-1.93-1.78-4.09-1.33-6.47-1.45-.49-2.85-.97-4.29-1.45-.1.29-.18.5-.26.72-1.16,3.05-4.36,5.06-7.49,4.69-3.51-.41-6.22-3.01-6.6-6.32-.4-3.45,1.47-6.63,4.67-7.78.81-.29,1.42-.66,1.93-1.39.71-1.02,1.82-1.51,2.96-1.78-.89-.89-1.77-1.78-2.69-2.71.06,0,.04-.01.02,0-3.06,1.9-6.14,2-9.24.1-.1-.06-.35-.04-.43.04-.92.89-1.82,1.8-2.71,2.69,2.03,3.22,2.02,6.39.1,9.45ZM54.35,6.97v13.55h4.96V6.93c-1.59,0-3.13,0-4.66,0-.08,0-.17.02-.3.03ZM51.7,20.53v-11.16h-2.2v11.16h2.2Z"/>
  </g>
</svg>