<?xml version="1.0" encoding="UTF-8"?>
<svg id="Layer_2" data-name="Layer 2" xmlns="http://www.w3.org/2000/svg" xmlns:xlink="http://www.w3.org/1999/xlink" viewBox="0 0 49.66 58.67">
  <defs>
    <style>
      .cls-1 {
        fill: url(#linear-gradient-2);
      }

      .cls-2 {
        fill: url(#linear-gradient);
      }
    </style>
    <linearGradient id="linear-gradient" x1="0" y1="29.34" x2="49.66" y2="29.34" gradientUnits="userSpaceOnUse">
      <stop offset="0" stop-color="#42b8ea"/>
      <stop offset="1" stop-color="#4365af"/>
    </linearGradient>
    <linearGradient id="linear-gradient-2" x1="14.51" y1="24.18" x2="35.13" y2="24.18" xlink:href="#linear-gradient"/>
  </defs>
  <g id="Layer_1-2" data-name="Layer 1">
    <g>
      <path class="cls-2" d="M49.37,49.08c-2.05-3.66-4.11-7.32-6.16-10.97-.11-.19-.2-.38-.33-.62.52-.14.96-.26,1.4-.38,1.36-.37,1.84-1.17,1.48-2.52-.35-1.33-.7-2.65-1.08-3.97-.23-.82-.05-1.48.56-2.08,1-.97,1.98-1.96,2.96-2.95.92-.93.93-1.87.01-2.8-.98-.99-1.96-1.99-2.96-2.95-.63-.61-.81-1.29-.56-2.13.39-1.34.74-2.68,1.09-4.03.32-1.23-.15-2.05-1.38-2.38-1.34-.37-2.68-.74-4.03-1.08-.85-.21-1.36-.69-1.57-1.54-.33-1.33-.7-2.65-1.06-3.98-.36-1.33-1.17-1.79-2.49-1.44-1.34.36-2.69.71-4.03,1.09-.8.22-1.45.05-2.02-.56-.98-1.04-1.98-2.07-2.98-3.09-.91-.93-1.88-.92-2.79,0-.99,1.01-1.98,2.02-2.94,3.05-.6.64-1.28.82-2.12.58-1.3-.37-2.61-.71-3.92-1.06-1.39-.37-2.18.09-2.56,1.49-.35,1.31-.71,2.61-1.04,3.92-.21.82-.7,1.32-1.52,1.53-1.31.33-2.62.7-3.92,1.04-1.39.36-1.87,1.17-1.5,2.55.36,1.33.7,2.65,1.08,3.97.22.8.05,1.45-.55,2.03-1.01.99-2,1.99-3,2.99-.9.9-.9,1.86-.02,2.75.98.99,1.96,1.99,2.96,2.95.65.62.83,1.31.58,2.18-.39,1.34-.74,2.68-1.09,4.03-.31,1.2.16,2,1.35,2.34.5.14,1.01.29,1.55.44-.13.25-.23.43-.33.61-2.02,3.59-3.98,7.21-6.08,10.76-.92,1.56.08,2.97,1.64,2.97,1.98,0,3.96.19,5.94.34.25.02.57.22.71.44,1.08,1.58,2.09,3.19,3.18,4.76.34.49.86.87,1.3,1.3h.92c.62-.3,1.01-.81,1.34-1.4,1.98-3.56,3.99-7.11,5.99-10.67.12-.21.25-.42.41-.71.58.59,1.11,1.16,1.67,1.71.87.87,1.83.86,2.71,0,.53-.52,1.06-1.05,1.58-1.57.03-.03.07-.04.13-.07.1.18.21.36.31.54,2.02,3.59,4.04,7.17,6.05,10.77.33.6.72,1.11,1.34,1.41h.92c.61-.28,1-.77,1.35-1.33,1.01-1.62,2.06-3.21,3.05-4.84.24-.4.52-.53.96-.54,1.95-.04,3.89-.1,5.84-.16.21,0,.42,0,.63-.05,1.2-.28,1.68-1.51,1.03-2.67ZM13.49,53.61c-.14-.17-.24-.29-.33-.42-.75-1.13-1.5-2.25-2.23-3.39-.42-.65-.97-.96-1.75-.99-1.39-.05-2.78-.15-4.17-.24-.13,0-.25-.04-.46-.07,1.88-3.34,3.72-6.62,5.56-9.9.07-.01.14-.02.21-.03.17.37.4.72.51,1.11.38,1.32.71,2.65,1.07,3.97.36,1.36,1.17,1.83,2.53,1.46,1.29-.34,2.58-.69,3.87-1.04.17-.05.35-.07.64-.13-1.84,3.27-3.62,6.44-5.44,9.67ZM24.79,37.93c-7.57-.01-13.73-6.19-13.72-13.76,0-7.59,6.21-13.76,13.81-13.73,7.57.03,13.71,6.22,13.69,13.79-.02,7.57-6.21,13.72-13.78,13.7ZM44.43,48.46c-1.35.04-2.71.09-4.06.11-.71.01-1.23.31-1.61.91-.75,1.19-1.51,2.38-2.27,3.57-.1.16-.21.3-.37.52-1.81-3.22-3.59-6.38-5.44-9.68,1.17.31,2.2.58,3.22.85.53.14,1.06.29,1.6.42,1.03.25,1.86-.23,2.15-1.27.4-1.39.74-2.8,1.14-4.19.12-.4.34-.77.52-1.16.06,0,.13,0,.19,0,1.83,3.26,3.66,6.51,5.54,9.85-.26.02-.44.04-.62.05Z"/>
      <path class="cls-1" d="M24.85,13.87c-5.69-.01-10.33,4.6-10.34,10.28-.01,5.69,4.6,10.33,10.28,10.34,5.69.01,10.33-4.6,10.34-10.28.01-5.69-4.6-10.33-10.28-10.34Z"/>
    </g>
  </g>
</svg>