<?xml version="1.0" encoding="UTF-8"?>
<svg id="Layer_2" data-name="Layer 2" xmlns="http://www.w3.org/2000/svg" xmlns:xlink="http://www.w3.org/1999/xlink" viewBox="0 0 44.04 38.82">
  <defs>
    <style>
      .cls-1 {
        fill: url(#linear-gradient-2);
      }

      .cls-2 {
        fill: url(#linear-gradient);
      }
    </style>
    <linearGradient id="linear-gradient" x1="7.36" y1="23.02" x2="35.1" y2="23.02" gradientUnits="userSpaceOnUse">
      <stop offset="0" stop-color="#42b8ea"/>
      <stop offset="1" stop-color="#4365af"/>
    </linearGradient>
    <linearGradient id="linear-gradient-2" x1="0" y1="15.24" x2="44.04" y2="15.24" xlink:href="#linear-gradient"/>
  </defs>
  <g id="Layer_1-2" data-name="Layer 1">
    <g>
      <path class="cls-2" d="M7.37,23.01c0-2.35.01-4.7,0-7.05,0-.64.22-1.06.78-1.38,4.1-2.35,8.18-4.71,12.26-7.09.58-.34,1.07-.35,1.65,0,4.06,2.36,8.12,4.72,12.2,7.04.62.35.85.8.84,1.49-.02,4.68-.02,9.36,0,14.03,0,.7-.26,1.14-.87,1.48-4.08,2.33-8.15,4.68-12.21,7.04-.56.32-1.03.33-1.59,0-4.1-2.39-8.21-4.76-12.32-7.12-.54-.31-.76-.71-.75-1.33.02-2.37,0-4.75,0-7.12ZM20.24,36.24c.02-.26.05-.4.05-.53,0-3.87.01-7.74-.02-11.62,0-.27-.26-.65-.51-.8-3.29-1.93-6.61-3.84-9.92-5.74-.15-.09-.32-.14-.48-.21-.04.11-.06.15-.06.19,0,3.99-.02,7.98.01,11.97,0,.23.25.55.47.68,1.28.77,2.58,1.5,3.88,2.25,2.16,1.24,4.31,2.49,6.58,3.8ZM22.19,36.23c.29-.16.51-.27.73-.39,3.2-1.85,6.4-3.71,9.61-5.54.46-.26.66-.53.65-1.09-.03-3.73-.02-7.45-.02-11.18v-.78c-.8.46-1.48.88-2.2,1.24-.48.24-.66.54-.66,1.1.04,2.42,0,4.84.02,7.26,0,.52-.15.92-.62,1.18-1.05.6-2.09,1.22-3.15,1.8-.84.46-1.54.05-1.54-.9-.02-1.95,0-3.89,0-5.84,0-.34,0-.69,0-1.15-.95.54-1.8,1.01-2.62,1.51-.12.07-.21.31-.21.47-.01,4.06,0,8.12,0,12.29ZM23.94,20.35c-.05-.1-.06-.16-.09-.18-3.48-2.02-6.96-4.04-10.45-6.04-.14-.08-.39-.12-.52-.05-.84.46-1.67.95-2.53,1.45.09.1.13.17.18.2,3.46,2,6.93,4.01,10.4,6,.14.08.39.13.51.06.84-.46,1.67-.95,2.5-1.43ZM18.52,10.81c.05.09.07.15.1.17,3.49,2.02,6.97,4.04,10.47,6.04.14.08.38.12.51.06.85-.46,1.68-.95,2.51-1.43-.05-.1-.07-.16-.1-.18-3.49-2.02-6.98-4.04-10.47-6.04-.15-.09-.43-.1-.58-.02-.83.44-1.63.93-2.44,1.4ZM26.92,27.33c1.49-.54,1.53-.59,1.53-1.95,0-1.95-.01-3.9.01-5.84,0-.48-.14-.75-.57-1-3.38-1.92-6.77-3.83-10.1-5.85-1.02-.62-1.82-.76-2.69.2.17.1.37.22.57.34,3.47,2.01,6.93,4.03,10.42,6.01.61.35.86.78.85,1.49-.03,2.18-.01,4.37-.01,6.62Z"/>
      <path class="cls-1" d="M3.95,7.3c.97.16,1.82.3,2.68.45.74.12,1.1.51,1.03,1.11-.07.59-.54.89-1.28.78-1.83-.28-3.66-.58-5.48-.89-.74-.12-1.07-.63-.82-1.34.62-1.79,1.26-3.58,1.92-5.36.22-.59.73-.84,1.24-.66.54.19.76.7.54,1.35-.32.94-.67,1.86-1.08,3,.33-.22.49-.31.64-.43,14.78-11.53,36.73-3.28,40.24,15.12.57,3,.59,5.99.12,9-.12.77-.55,1.14-1.17,1.03-.59-.11-.82-.55-.72-1.32,1.31-10.18-2.26-18.22-10.87-23.78C22.83.12,11.81.9,4.35,6.95c-.11.09-.21.18-.4.35Z"/>
    </g>
  </g>
</svg>