<?xml version="1.0" encoding="UTF-8"?>
<svg id="Layer_2" data-name="Layer 2" xmlns="http://www.w3.org/2000/svg" xmlns:xlink="http://www.w3.org/1999/xlink" viewBox="0 0 77.16 44.3">
  <defs>
    <style>
      .cls-1 {
        fill: url(#linear-gradient-2);
      }

      .cls-2 {
        fill: url(#linear-gradient-4);
      }

      .cls-3 {
        fill: url(#linear-gradient-3);
      }

      .cls-4 {
        fill: url(#linear-gradient-5);
      }

      .cls-5 {
        fill: url(#linear-gradient);
      }
    </style>
    <linearGradient id="linear-gradient" x1="12.41" y1="5.29" x2="22.89" y2="5.29" gradientUnits="userSpaceOnUse">
      <stop offset="0" stop-color="#42b8ea"/>
      <stop offset="1" stop-color="#4365af"/>
    </linearGradient>
    <linearGradient id="linear-gradient-2" x1="54.2" y1="5.27" x2="64.74" y2="5.27" xlink:href="#linear-gradient"/>
    <linearGradient id="linear-gradient-3" x1="0" y1="19.48" x2="10.47" y2="19.48" xlink:href="#linear-gradient"/>
    <linearGradient id="linear-gradient-4" x1="66.62" y1="19.46" x2="77.16" y2="19.46" xlink:href="#linear-gradient"/>
    <linearGradient id="linear-gradient-5" x1="22.59" y1="28.33" x2="54.53" y2="28.33" xlink:href="#linear-gradient"/>
  </defs>
  <g id="Layer_1-2" data-name="Layer 1">
    <g>
      <path class="cls-5" d="M19.45,10.55h-3.56v-3.48h-3.48v-3.56h3.44V.03h3.56v3.44h3.48v3.56h-3.44v3.52Z"/>
      <path class="cls-1" d="M61.21,3.53h3.53v3.48h-3.49v3.53h-3.52v-3.49h-3.53v-3.52h3.49V0h3.52v3.53Z"/>
      <path class="cls-3" d="M7.05,24.74h-3.56v-3.46H0v-3.56h3.42v-3.49h3.56v3.42h3.49v3.56h-3.42v3.53Z"/>
      <path class="cls-2" d="M70.1,14.19h3.52v3.48h3.53v3.52h-3.48v3.53h-3.52v-3.48h-3.53v-3.52h3.48v-3.53Z"/>
      <path class="cls-4" d="M38.58,44.3c-3.44,0-6.87,0-10.31,0-3.45,0-5.67-2.24-5.67-5.7,0-6.87,0-13.74,0-20.62,0-3.38,2.25-5.61,5.64-5.62,6.87,0,13.74,0,20.62,0,3.46,0,5.67,2.22,5.67,5.69,0,6.84,0,13.67,0,20.51,0,3.53-2.21,5.72-5.75,5.73-3.4,0-6.8,0-10.2,0ZM43.88,15.92c0,.53,0,.93,0,1.33,0,3.51-.01,7.02,0,10.53,0,.95-.15,1.78-1.13,2.19-1,.41-1.68-.12-2.33-.79-.6-.62-1.24-1.22-1.91-1.88-.72.74-1.34,1.37-1.95,2.01-.6.62-1.28,1.03-2.17.67-.93-.37-1.16-1.13-1.16-2.06.02-3.51,0-7.02,0-10.53v-1.48c-1.76,0-3.37-.01-4.99,0-1.45.01-2.1.65-2.1,2.1,0,6.87,0,13.74,0,20.61,0,1.45.65,2.11,2.09,2.11,6.87,0,13.74,0,20.61,0,1.49,0,2.12-.66,2.13-2.19.01-1.92,0-3.84,0-5.76,0-4.91,0-9.83,0-14.74,0-1.37-.61-2.1-1.85-2.13-1.69-.04-3.39,0-5.25,0ZM40.29,16h-3.43v7.93c1.17-1.23,2.27-1.16,3.43,0v-7.92Z"/>
    </g>
  </g>
</svg>