<?xml version="1.0" encoding="UTF-8"?><svg id="uuid-1ddc2873-b050-4002-aa38-42a1ffea07b3" xmlns="http://www.w3.org/2000/svg" viewBox="0 0 580 580"><defs><style>.uuid-b094ae36-1ca1-49a5-bf5e-cd6b353fdaa3{fill:#fff;}</style></defs><path class="uuid-b094ae36-1ca1-49a5-bf5e-cd6b353fdaa3" d="M482.98,177.61h-144.65v147.17c0,2.1-4.34,5.11-6.59,5.47-8.15,1.27-32.45.89-41.17.11-4.23-.38-6.92-1.44-8.28-5.79V111.02c.91-4.08,7.54-6.88,11.16-8.93,33.54-18.98,71.59-39.77,106.13-56.61,13.12-6.4,11.46-5.26,24.15,1,34.17,16.86,73.28,37.44,106.13,56.61,3.26,1.9,8.29,4.06,9.16,7.92v213.54c-1.36,4.35-4.04,5.41-8.28,5.79-8.73.79-33.02,1.17-41.17-.11-2.25-.35-6.59-3.37-6.59-5.47v-147.17ZM523.16,314.22V118.84l-112.17-60.61-112.85,60.61v195.38h24.11v-147.17c0-1.91,5.05-6.14,7.51-5.55l160.8-.03c2.74-.91,8.49,3.27,8.49,5.57v147.17h24.11Z"/><path class="uuid-b094ae36-1ca1-49a5-bf5e-cd6b353fdaa3" d="M199.41,378.73l150.02.24,4.52,4.52v150.79l-4.52,4.52h-150.79l-4.52-4.52-.5-147.27c-.18-3.95,1.99-7.19,5.79-8.28ZM245.91,394.59h-36.16v128.58h128.58v-128.58h-36.16v58.77c0,.79-2.63,3.83-3.62,4.41-7.82,4.5-18.49-6.32-24.93-5.9-6.89.45-17.05,10.84-24.67,5.5-.76-.53-3.03-3.44-3.03-4v-58.77ZM286.09,394.59h-24.11v44.2c8.91-4.91,15.21-4.9,24.11,0v-44.2Z"/><path class="uuid-b094ae36-1ca1-49a5-bf5e-cd6b353fdaa3" d="M402.62,257.97v-42.69c0-2.66,4.89-5.24,7.51-5.55,10.33-1.2,38.94-1.21,49.27,0,5.4.63,7.09,3.37,7.56,8.51,2.76,30.32-2.2,64.76,0,95.53.23,5.07-3.47,8.77-8.54,8.54-30.77-2.2-65.21,2.76-95.53,0-5.14-.47-7.88-2.16-8.51-7.56-1.21-10.32-1.2-38.94,0-49.27.3-2.62,2.89-7.51,5.55-7.51h42.69ZM450.83,225.82h-32.15v32.15h32.15v-32.15ZM402.62,274.04h-32.15v32.15h32.15v-32.15ZM450.83,274.04h-32.15v32.15h32.15v-32.15Z"/><rect class="uuid-b094ae36-1ca1-49a5-bf5e-cd6b353fdaa3" x="40.98" y="418.7" width="128.58" height="16.07"/><rect class="uuid-b094ae36-1ca1-49a5-bf5e-cd6b353fdaa3" x="73.13" y="458.88" width="96.44" height="16.07"/><rect class="uuid-b094ae36-1ca1-49a5-bf5e-cd6b353fdaa3" x="105.27" y="499.06" width="64.29" height="16.07"/><rect class="uuid-b094ae36-1ca1-49a5-bf5e-cd6b353fdaa3" x="338.33" y="129.39" width="152.69" height="16.07"/><rect class="uuid-b094ae36-1ca1-49a5-bf5e-cd6b353fdaa3" x="370.47" y="97.24" width="80.36" height="16.07"/></svg>