<?xml version="1.0" encoding="UTF-8"?><svg id="uuid-a8bfcd5d-d4cb-4407-af89-0b2482b0ffe3" xmlns="http://www.w3.org/2000/svg" viewBox="0 0 580 580"><defs><style>.uuid-4a4a3c83-5615-4bbe-92e7-58bca420f02e{fill:#fff;}</style></defs><path class="uuid-4a4a3c83-5615-4bbe-92e7-58bca420f02e" d="M142.18,520.71c-14.19-4.56-21.41-14.39-22.52-29.18l.15-373.88c1.67-18.37,13.04-27.23,30.88-28.47,19.96-1.39,41.52,1.11,61.65.04v-16.63c0-5.85,9.27-11.68,14.8-12.17,40.36-3.57,85.95,2.75,126.86.03,4.29-.96,13.94,8.08,13.94,11.24v17.53c20.14,1.05,41.67-1.4,61.65-.04,13.65.93,30.99,9.95,30.99,25.66v84.05c1.86-1.43,3.44-3.59,5.46-4.89,28.44-18.15,59.84,16.44,38.17,43.55l-70.43,70.74-.15,169.75c-.05,7.15-4.52,12.45-10.8,15.28l-264.71.22c-6.7-2.44-11.13-8.24-11.49-15.49V130.09c-.88-6.46,6.74-11.47,11.71-7.13.65.57,2.72,4.86,2.72,5.37v351.93h258.14c-.29-.88.9-1.95.9-2.25v-155.97l-75.08,74.64c-5.65,4.81-11.64,8.48-18.66,11.02-7.24,2.62-27.51,8.81-34.53,9.58-12.15,1.33-8.16-9.84-6.4-17.22,2.85-11.98,7.58-31.11,15.06-40.69l119.61-120.48V103.6h-26.98v16.63c0,15.37-18.53,26.56-32.72,25.5-23.2-1.73-51.86-13.1-74.81-11.61-21.33,1.39-49.96,12.34-70.14,11.78-13.79-.38-28.31-13.37-28.31-27.47v-14.83c-12.84,1.44-30.23-2.03-42.52.21-5.21.95-9.73,5.89-10.47,11.11l-.12,379.32c.46,7.1,6.93,12.87,13.95,13.03l288.82-.88c5.26-1.72,9.39-6.45,9.42-12.16l-.04-178.93c.22-10.58,13.07-12.2,14.42-.92l-.04,178.9c-1.32,14.34-9.09,22.94-22.47,27.43H142.18ZM354.45,89.22v-13.93h-128.62v13.93h128.62ZM378.74,103.6h-177.19v17.53c0,4.75,9.29,11.4,14.07,11.18l74.53-12.62,74.62,12.71c4.73.24,13.97-6.72,13.97-11.28v-17.53ZM433.61,225.86c3.85-3.96,12.1-9.3,12.65-14.78l-.11-97.08c-.86-5.57-7.04-10.22-12.53-10.4v122.26ZM478.34,203.6c-8.23,1.41-19.7,18.33-26.73,23.61l21.24,21.06c.81.23,1.16-.42,1.7-.78,2.35-1.58,18.49-17.81,20.22-20.27,8.48-12.09-1.74-26.12-16.43-23.61ZM442.15,236.66l-119.68,119.55v1.78l20.74,20.67,119.68-119.55v-1.78l-20.74-20.67ZM299.6,401.15c11.11-3.83,23.45-5.24,33.27-12.15l-21.14-22c-7.07,10.09-8.72,22.56-12.13,34.15Z"/><path class="uuid-4a4a3c83-5615-4bbe-92e7-58bca420f02e" d="M199.53,178.45c8.36-1.2,40.52-1.18,47.86,1.14,1.55.49,5.06,2.95,5.89,2.88,1.74-.14,7.31-9.46,13.03-1.11,5.26,7.68-6.29,11.56-7.18,16.2-2.28,11.92,1.88,30.58-.07,43.07-1.18,7.57-9.32,13.21-16.58,13.99-9.77,1.05-30.57.88-40.51.03-9.1-.78-17.37-6.13-18.41-15.76s-1.2-36.48.08-45.77c1.08-7.83,8.34-13.59,15.89-14.68ZM242.92,192.6h-43.62c-1.14,0-2.13,2.81-2.29,4-.95,7.06-.95,32.58,0,39.64.52,3.88,3.18,4.5,6.79,4.9,8.25.92,26.74.81,35.12.04,1.66-.15,6.7-1.37,6.7-3.19v-27.42c-6.68,3.6-17.44,22.82-25.69,18.02-.65-.38-10.09-9.32-10.88-10.25-5.32-6.28.33-14.73,7.55-11.59,2.49,1.08,5.15,6.39,7.42,5.22,4.62-2.38,14.1-15.53,18.9-19.38Z"/><path class="uuid-4a4a3c83-5615-4bbe-92e7-58bca420f02e" d="M199.53,275.53c8.27-1.19,40.65-1.17,47.86,1.14,1.84.59,4.7,2.86,6.04,2.98,1.82.16,2.57-2.37,3.89-2.99,5.46-2.54,12.13,2.04,9.98,8.09-1.11,3.13-5.16,5.05-6.8,7.66-3.8,6.05.06,35.69-1.44,45.3-1.18,7.57-9.32,13.21-16.58,13.99-9.86,1.06-31.41.93-41.42.03-8.8-.79-16.52-6.69-17.51-15.77-1.04-9.58-1.2-36.44.08-45.77,1.04-7.63,8.5-13.61,15.9-14.68ZM243.82,289.68h-44.52c-1.14,0-2.13,2.81-2.29,4-.96,7.1-.95,32.53,0,39.64.46,3.45,2.51,4.53,5.87,4.92,8.25.96,27.61.8,36.04.02,1.66-.15,6.7-1.37,6.7-3.19v-27.42c-4.9,2.75-17.48,19.6-22.01,19.68-4.2.08-16.58-12.42-16.74-16.56-.19-5.17,5.3-8.23,9.95-6.24,1.75.75,4.75,6.08,6.64,5.76l20.36-20.61Z"/><path class="uuid-4a4a3c83-5615-4bbe-92e7-58bca420f02e" d="M188.38,378.1c4.15-4.18,9.67-5.36,15.38-5.76,8.81-.6,37.27-1.1,44.29,1.66,6.49,2.55,10.48,8.03,11.1,14.98.71,7.94,1.09,41.68-.74,47.88-2.14,7.27-9.71,11.36-16.81,11.97-10.13.88-31.46,1.05-41.41-.03-9.08-.98-15.85-7.43-16.67-16.6-.95-10.67-1.1-33.57.03-44.09.38-3.56,2.33-7.5,4.82-10.01ZM199.45,386.92c-1.79.6-2.22,3.11-2.41,4.78-.89,7.73-1.03,31.16-.03,38.71.46,3.45,2.51,4.53,5.87,4.92,8.28.96,27.57.79,36.04.02,2.34-.21,4.16-.39,5.87-2.22l.02-45.1c-.86-1.09-1.94-1.14-3.19-1.3-12.74-1.61-29.03,1.16-42.17.19Z"/><path class="uuid-4a4a3c83-5615-4bbe-92e7-58bca420f02e" d="M287.64,209.87l87.07-.21c8.55.89,8.55,12.62,0,13.52-26.98-2.34-59.13,3.07-85.48,0-8.23-.96-7.79-11.88-1.59-13.31Z"/><path class="uuid-4a4a3c83-5615-4bbe-92e7-58bca420f02e" d="M284.57,308.82c.87-1.03,3.24-1.92,4.64-2.09,5.92-.74,26.64-.8,32.36.09,7.85,1.23,7.81,12.16,0,13.38-5.43.85-27.75.85-33.17,0-5.17-.81-7.07-7.57-3.83-11.37Z"/></svg>