<?xml version="1.0" encoding="UTF-8"?><svg id="uuid-4f1b3a72-5f6f-4b35-8cb8-203567a14435" xmlns="http://www.w3.org/2000/svg" viewBox="0 0 580 580"><defs><style>.uuid-8039ff17-b3f2-45c8-8162-11f81ade5606{fill:#fff;}</style></defs><path class="uuid-8039ff17-b3f2-45c8-8162-11f81ade5606" d="M59.21,507.71c-4.26-1.18-3.57-9.67-3.44-13.16,1.05-28.33,2.36-63.51,5.89-91.3,2.33-18.38,10.93-36.74,23.9-49.97,29.9-30.51,80.03-28.02,117.98-42.38-21.53-12.43-38.73-35.85-40.8-61.24-1.19-14.53,2.72-40.56-.47-52.98-1.52-5.91-17.59-37.78-21.47-43.64-7.8-11.78-22.73-22.27-31.01-34.13-1.25-2.7-.38-5.89,2.04-7.59l132.03-55.6,132.39,56.72c.88,1.09,1.36,2.65,1.24,4.03-.52,5.87-27.79,29.99-32.85,38.14-3.96,6.38-18.46,35.63-20.13,42.07-3.15,12.15.7,37.77-.47,52.01-2.03,24.72-18.72,50.46-40.8,61.75-.26,2.56-.05,1.57,1.44,1.91,21.54,4.9,42.95,10.37,64.64,14.59v-24.78c0-2.01,2.72-3.07,4.43-3.31,4.65-.66,23.82.89,25.77-.51,1.5-18.41,16.02-14.95,29.93-15.26,7.69-28.99,46.21-28.87,54.52-.31,13.92.96,28.29-2.88,30.1,15.58,2.27,1.63,21.03-.44,25.8.45,2.85.53,4.79,3.4,4.46,6.23v212.96c.27,2.59-.94,4.39-3,5.75l-166.71.56c-8.07-1.05-4.64-10.7-5.29-16.57H59.21ZM360.98,118l-118.01-49.57-117.2,50.06c0,1.97,19.51,20.83,22.34,24.32,3.71,4.56,5.53,8.99,8.42,13.93l174.17-.03c1.82-3.83,3.47-8.59,5.99-11.99,5.73-7.73,18.08-16.66,23.34-24.28.56-.82,1.35-.97.95-2.43ZM324.05,168.52h-162.31c4.68,6.7,6.94,17.74,11.45,24.03,3.63,5.07,26.17,12.72,33.05,14.57,30.3,8.18,59.66,6.35,88.91-4.81,3.49-1.33,14.12-5.59,16.55-7.5,1.03-.81,11.21-21.11,11.9-23.34.31-1,.63-1.87.45-2.95ZM312.38,207.4c-42.76,22.13-95.28,22.17-138.01,0v42.28c0,29.32,34.9,57.53,62.7,59.76,34.15,2.74,75.31-25.55,75.31-61.7v-40.33ZM392.08,296.33v14.58l3.35,1.51c26.07-2.37,57.27,2.99,82.71,0,1.41-.17,2.5-.12,3.35-1.51v-14.58c-5.46-4.48-26.65,2.61-28.94-5.07-1.25-4.19.23-6.72-3.12-11.46-6.91-9.74-23.34-8.1-27.29,2.85-1.23,3.42-.28,10.05-3.81,11.73-4.29,2.04-25.17-1.54-26.24,1.94ZM380.42,310.42h-19.44v202.15h151.62v-202.15h-19.44c.7,6.67-4.78,12.6-11.26,13.52-28.45-1.46-59.26,2.22-87.43.13-8.72-.65-14.19-4.27-14.05-13.65ZM276.42,322.09c-4.6.32-9.77-2.89-14.08-2.91-3.32-.02-7.62,1.78-11.63,1.98-9.5.47-18.5-2.03-26.29-1.98-4.4.03-10.27,3.26-15.06,2.92l34.47,35.95,32.58-35.96ZM203.54,398.86l31.02-32.42-37.87-40.02c-8.15.07-16.12,3.76-24.29,4.87l31.14,67.57ZM315.3,331.81c-8.36-1.68-16.77-5.17-25.23-5.39l-37.87,40.02,29.57,32.41,33.53-67.03ZM68.44,496.05h60.26v-67.55c0-6.01,12.63-7.09,12.63.97v66.57h97.19l-79.32-161.41c-11.47,3.15-23.86,4.85-35.13,8.57-28.5,9.4-47.15,33.27-50.76,62.95-2.84,23.36-4.08,52.97-4.91,76.73-.15,4.37.19,8.8.04,13.16ZM349.32,339.58c-6.4-.47-14.07-4.13-20.2-4.69-1.1-.1-1.92-.29-2.64.78l-78.24,160.39h101.08v-156.47ZM244.34,477.58l32.07-66.6-33.51-35.43-32.54,35.43,33.98,66.6Z"/><path class="uuid-8039ff17-b3f2-45c8-8162-11f81ade5606" d="M435.53,355.33c16.15,1.17,36.55-2.32,52.18-.11,8.83,1.25,9.06,11.53.12,12.56-15.89,1.83-35.2-1.36-51.48-.08-8.02-2.01-8.81-9.53-.82-12.38Z"/><path class="uuid-8039ff17-b3f2-45c8-8162-11f81ade5606" d="M435.53,469.04c16.2,1.14,36.47-2.28,52.19-.12,9.32,1.28,9.37,11.4-.88,12.55-9.56,1.07-41.45,1.38-50.48-.05-7.93-1.26-8.72-10.05-.82-12.38Z"/><path class="uuid-8039ff17-b3f2-45c8-8162-11f81ade5606" d="M434.57,412.68l55.16-.18c6.48,1.21,5.77,11.43-.9,11.69-16.34-1.86-37.75,2.35-53.44-.11-6.95-1.09-7.1-9.95-.82-11.39Z"/><path class="uuid-8039ff17-b3f2-45c8-8162-11f81ade5606" d="M416.09,396.15c5.04-1.51,9.63,1.22,8.64,6.61l-23.16,28.43c-2.58,1.23-4.49.89-6.94-.39-1.71-.89-14.73-13.06-15.44-14.73-1.64-3.86,1.5-8.04,5.6-8.04,3.65,0,9.57,6.95,12.63,9.27,2.08,0,15.51-20.22,18.67-21.16Z"/><path class="uuid-8039ff17-b3f2-45c8-8162-11f81ade5606" d="M417.07,338.77c4.37-1.31,8.64,3.41,7.67,7.63l-24.19,28.42c-2.87,1.71-5.57-.77-7.82-2.37-1.5-1.07-12.11-10.6-12.75-11.55-2.73-4.05.23-9.69,4.78-9.74,4.94-.05,9.06,6.97,12.66,9.78,1.56,0,15.73-21,19.65-22.17Z"/><path class="uuid-8039ff17-b3f2-45c8-8162-11f81ade5606" d="M380.67,466.18c5.57-5.29,13.08,5.07,16.76,8.47,1.52,0,15.22-20.1,18.97-21.84,4.87-2.26,9.98,3.44,8.02,7.98-.58,1.35-3.88,4.93-5.14,6.57-2.81,3.63-17.1,21.26-20.12,21.74-1.6.25-2.25-.32-3.52-.96-2.12-1.07-13.01-10.6-14.65-12.57-2.27-2.72-3.14-6.71-.31-9.39Z"/></svg>