<?xml version="1.0" encoding="UTF-8"?><svg id="uuid-834414be-5a47-4a13-a230-534f611e892d" xmlns="http://www.w3.org/2000/svg" viewBox="0 0 580 580"><defs><style>.uuid-60bc1b4a-23a7-46a3-af2e-e09030ffb82a{fill:#fff;}</style></defs><path class="uuid-60bc1b4a-23a7-46a3-af2e-e09030ffb82a" d="M96.93,166.72c.2-1.01,3.7-6.67,4.61-7.86,4.75-6.25,11.4-8.35,17.51-12.76l.14-55.07c1.39-9.95,7.09-12.81,15.84-15.33,24.89-7.17,58.67-7.26,84.05-2.64,9.64,1.75,26.02,4.17,27.46,16.17l-.06,56.85c6.58,3.5,14.74,7.75,19.12,14.01.75,1.07,4.06,7.69,4.06,8.4v101.06h13.36v-141.13c0-2.01,4.46-4.67,6.64-4.05h161.24c2.18-.62,6.64,2.04,6.64,4.05v141.13h21.81c.89,0,4.01,3.11,4.01,4.01v191.88h20.92c2.51,0,5.34,3.27,5.73,5.84.56,3.64.48,32.95-.41,35.1-.71,1.72-4.07,4.14-6.16,3.64l-428.28-.11c-2.9-.46-4.44-1.97-4.9-4.9-1.01-6.43-.71-25.16-.1-32.04.29-3.24,2.09-7.53,5.83-7.53h20.92V166.72ZM234.06,141.35v-50.31c-.85-1.25-1.79-1.68-3.14-2.2-21.88-8.41-64-7.3-86.82-2.28-2.6.57-12.44,2.33-12.44,5.37v49.42c33.88-8.04,68.51-8.19,102.4,0ZM445.08,136.89h-149.59v132.67h149.59v-132.67ZM162.82,203.67l39.55-.1,1.41-1.24v-52.53c-.56-.88-1.23-1.15-2.23-1.34-5.27-.97-12.93.72-18.7-.95-6.49,1.66-14.43-.46-20.03,2.28v53.87ZM150.36,151.14c-10.9,1.29-27.97,5.84-36.44,12.98-.85.71-4.52,4.89-4.52,5.27v49.42c8.99-5.47,18.86-8.81,29-11.51l11.96-3.18v-52.98ZM257.21,218.81v-47.64c0-9.53-32.51-20.3-40.96-20.03v54.31l20.94,4.44,20.02,8.92ZM203.78,216.14h-40.96v54.31h40.96v-54.31ZM150.36,217.92c-7.5-.23-40.96,11.11-40.96,19.14v48.53c6.07-2.92,11.79-5.87,18.24-8.03,7.36-2.46,15.05-4.17,22.72-5.32v-54.31ZM257.21,285.59v-46.75c0-4.65-7.87-9.6-11.56-11.59-9.03-4.88-19.46-7.18-29.4-9.33v54.31c9.57,1.81,19.43,3.94,28.48,7.58,1.99.8,11.72,6.56,12.48,5.77ZM162.82,338.12c.65.24,1.06-.89,1.34-.89h37.4c.22,0,.53.72.89.7l1.34-1.14v-52.53l-2.23-1.33c-12.99-.99-25.75-.65-38.73,0v55.2ZM470.9,282.03h-201.23v183.42h39.18v-113.97c-5.07-.12-13.45,1.59-14.95-5.09-.78-3.48-.72-20.9-.14-24.69.48-3.08,2.27-4.75,5.23-5.45l138.55-.42c3.36-.08,7.76.75,8.91,4.45.91,2.92.9,21.85.35,25.37-1.17,7.48-9.45,5.77-15.08,5.84v113.97h39.18v-183.42ZM150.36,285.59c-7.32-1.2-40.96,11.01-40.96,18.25v49.42c7.57-4.82,16.14-7.95,24.74-10.43,5.37-1.55,11.47-1.92,16.22-4.26v-52.98ZM257.21,353.26v-47.64c0-9.37-32.53-20.57-40.96-20.03v54.31c9.05.64,19.18,3.23,27.59,6.69,4.59,1.89,8.78,4.82,13.37,6.66ZM434.4,329.22h-128.22v8.9h128.22v-8.9ZM203.78,350.59h-40.96v54.31h40.96v-54.31ZM364.05,351.48h-41.85v113.97h41.85v-113.97ZM418.37,351.48h-41.85v113.97h41.85v-113.97ZM150.36,352.37c-9.22,1.69-19.5,3.97-27.94,8.12-2.78,1.37-13.02,8.02-13.02,11.02v48.53c3.23-1.13,6.04-3.22,9.19-4.61,9.92-4.38,21.03-7.19,31.76-8.75v-54.31ZM257.21,420.04v-46.75c0-10.72-32.06-20.21-40.96-20.92v54.31c14.55,1.74,27.93,7.08,40.96,13.36ZM203.78,465.45v-46.75l-2.22-1.34c-12.95-1.33-25.78-.7-38.73,0v48.08h40.96ZM257.21,465.45v-25.38c0-10.03-32.64-19.7-40.96-20.92v46.3h40.96ZM150.36,420.04c-7.28-1.38-40.96,10.93-40.96,18.25v27.16h40.96v-45.41ZM497.61,478.81H82.69v18.7h414.93v-18.7Z"/><path class="uuid-60bc1b4a-23a7-46a3-af2e-e09030ffb82a" d="M350.7,228.6l2.18,3.61,66.44,1.23c8.58,2.04,5.29,12.97-.5,12.97h-15.58c.47,1.71,3.1,1.61,3.99,3.57,1.04,2.27.61,5.84-1.35,7.53-5.59,4.8-13.74-2.64-9.31-8.43,1.1-1.44,2.95-1.22,3.11-2.67h-36.51c.76,1.76,2.74,1.42,3.79,3.79,4.24,9.57-13.71,12.8-11.81,1.15.5-3.09,3.26-2.84,4.45-4.94-14.13-.1-20.12-6.81-22.14-20.16-2.62-17.35-3.17-35.67-5.65-53.12-1.77-7.6-14.88-4.28-15.82-11.85-1.75-14.09,19.92-4.72,25.3,2.36,1.6,2.1,1.71,5.65,4.5,6.18l71.73.39c6.62,3.89,7.73,7.46,6.85,14.96-.92,7.73-5.19,26.78-7.74,34.1-1.01,2.9-5.47,9.31-8.5,9.31h-57.43ZM357.82,182.3h-12.47l1.72,10.3,11.63.38-.89-10.68ZM384.53,182.3h-13.36v10.68h13.36v-10.68ZM412.14,182.3h-14.25l-.89,10.68h12.47l2.67-10.68ZM358.72,205.45h-10.69s.89,10.69.89,10.69h10.69s-.88-10.69-.88-10.69ZM383.64,205.45h-12.47l.89,10.69h11.07s.51-10.69.51-10.69ZM406.79,205.46h-9.8s-.89,10.67-.89,10.67l8.07-.39,2.62-10.28Z"/></svg>