<?xml version="1.0" encoding="UTF-8"?>
<svg id="Layer_2" xmlns="http://www.w3.org/2000/svg" viewBox="0 0 26.32 24">
  <defs>
    <style>
      .cls-1 {
        fill: #fff;
      }
    </style>
  </defs>
  <g id="Layer_1-2" data-name="Layer_1">
    <g>
      <path class="cls-1" d="M7.77,4.04c2.3,0,4.6-.01,6.9,0,.41,0,.57-.11.65-.52.19-.96.45-1.92.66-2.88C16.08.19,16.35,0,16.8,0c.35,0,.7-.01,1.05,0,.4.03.73.25.62.66-.06.24-.43.59-.63.57-.69-.06-.79.32-.91.85-.64,2.84-1.3,5.66-1.97,8.49-.08.34-.02.51.25.71.71.55.93,1.28.68,2.01-.28.81-.98,1.34-1.87,1.35-3.7.01-7.39,0-11.09,0-.45,0-.8-.15-.8-.64,0-.49.36-.62.81-.62,3.51,0,7.02,0,10.53,0,.16,0,.33,0,.49,0,.43-.02.75-.24.73-.66-.02-.39-.32-.57-.74-.57-2.83,0-5.66,0-8.5-.01-.96,0-1.93-.02-2.89-.01-.52,0-.77-.24-.89-.74C1.16,9.29.61,7.19.06,5.09c-.19-.74.04-1.04.81-1.04,2.3,0,4.6,0,6.9,0ZM2.1,7.92h2.07c-.1-.78-.17-1.52-.29-2.24-.02-.14-.2-.35-.31-.35-.69-.03-1.38-.02-2.14-.02.24.93.46,1.78.68,2.61ZM7.48,7.89v-2.55h-2.39c.14.89.28,1.73.41,2.56.63.02,1.26.03,1.88.05.02,0,.03-.02.1-.06ZM11.23,5.34h-2.37v2.57h2.04c.11-.87.21-1.7.32-2.57ZM14.89,5.3c-.73,0-1.38-.02-2.03.01-.13,0-.35.17-.37.29-.13.76-.21,1.53-.31,2.33h2.06c.21-.86.42-1.69.65-2.63ZM2.45,9.25c.12.45.2.87.34,1.27.05.13.21.31.34.32.46.04.92.02,1.43.02-.08-.59-.15-1.09-.22-1.61h-1.89ZM13.49,10.82c.14-.53.27-1.03.41-1.57h-1.9c-.07.53-.13,1.04-.2,1.57h1.68ZM5.63,9.25c.05.48.09.92.17,1.36.02.1.19.23.29.23.46.03.93.01,1.4.01v-1.6h-1.86ZM10.71,9.27h-1.84v1.59c.48,0,.91.02,1.34-.01.12,0,.32-.14.34-.24.08-.43.11-.88.17-1.34Z"/>
      <path class="cls-1" d="M6.9,17.4c.01,1.05-.8,1.89-1.83,1.92-1.05.03-1.92-.83-1.92-1.89,0-1.04.83-1.88,1.86-1.89,1.02-.01,1.88.84,1.89,1.87ZM4.87,18.14h.26c.17-.23.48-.48.47-.7-.02-.22-.33-.54-.57-.6-.35-.09-.66.18-.6.57.04.26.29.49.44.73Z"/>
      <path class="cls-1" d="M10.08,17.37c.03-1.02.91-1.87,1.92-1.84,1.03.03,1.86.9,1.85,1.92-.02,1.06-.91,1.91-1.96,1.86-1.03-.04-1.83-.9-1.81-1.94ZM12.67,17.53c0-.1,0-.19-.01-.29-.25-.14-.52-.43-.73-.39-.23.04-.4.39-.6.61.22.2.43.53.66.55.21.02.45-.31.68-.48Z"/>
      <path class="cls-1" d="M22.67,16.17c.94,0,1.82,0,2.7,0,.79,0,.95.16.96.92,0,.86,0,1.72,0,2.59,0,.54-.27.79-.79.79-.92,0-1.84,0-2.86,0,0,.79,0,1.54,0,2.29,0,1.17-.07,1.24-1.27,1.24-.72,0-1.44,0-2.16,0-.67-.01-.84-.19-.85-.85,0-.86,0-1.72,0-2.68-.85,0-1.66,0-2.47,0-.92,0-1.07-.15-1.07-1.07,0-.78,0-1.56,0-2.34,0-.69.2-.88.87-.89.86,0,1.72,0,2.67,0,0-.91,0-1.79,0-2.66,0-.84.16-1,1.01-1.01.76,0,1.52,0,2.28,0,.81,0,.98.17.99.97,0,.88,0,1.76,0,2.7ZM25.03,19.2v-1.79c-.89,0-1.75,0-2.61,0-.88,0-1.03-.15-1.03-1.04,0-.85,0-1.71,0-2.54h-1.75c0,.91,0,1.77,0,2.63,0,.78-.17.95-.93.95-.85,0-1.71,0-2.58,0v1.79c.87,0,1.71,0,2.55,0,.81,0,.96.16.96.99,0,.83,0,1.67,0,2.48h1.75c0-.89,0-1.73,0-2.57,0-.69.19-.88.88-.89.9,0,1.8,0,2.76,0Z"/>
    </g>
  </g>
</svg>