<?xml version="1.0" encoding="UTF-8"?>
<svg id="Layer_2" xmlns="http://www.w3.org/2000/svg" viewBox="0 0 24 32.55">
  <defs>
    <style>
      .cls-1 {
        fill: #fff;
      }
    </style>
  </defs>
  <g id="Layer_1-2" data-name="Layer_1">
    <g>
      <path class="cls-1" d="M12.19,0c.92.49,1.83.99,2.76,1.48,2.76,1.46,5.52,2.91,8.28,4.36.78.41.97,1.03.56,1.81-.11.22-.23.43-.34.65-.31.59-.47.71-1.15.86,0,.12,0,.25,0,.38,0,3.4-.02,6.81.01,10.21.01,1.15-.77,1.97-1.98,1.97-5.56-.03-11.11-.01-16.67-.01-1.27,0-1.94-.66-1.94-1.94,0-3.41,0-6.83,0-10.24,0-.24,0-.4-.32-.44-.33-.04-.57-.28-.73-.58C.45,8.08.22,7.66,0,7.23c0-.18,0-.36,0-.54.15-.45.48-.72.9-.93,1.26-.64,2.51-1.31,3.76-1.97C7.06,2.54,9.46,1.27,11.86,0c.11,0,.22,0,.33,0ZM5.71,20.56c0-2.7,0-5.34,0-7.98,0-.09-.05-.2-.12-.25-.34-.28-.46-.64-.44-1.07.01-.29,0-.58,0-.87,0-.78.44-1.25,1.21-1.25,3.76,0,7.52-.01,11.28.01.29,0,.65.15.87.34.56.48.52,2.27-.03,2.77-.15.13-.2.26-.2.45,0,2.51,0,5.02,0,7.53,0,.1,0,.19,0,.33.7,0,1.37,0,2.03,0,.67,0,.83-.16.83-.83,0-3.57,0-7.14,0-10.71,0-.26-.08-.39-.31-.51-2.87-1.5-5.74-3.01-8.61-4.53-.18-.1-.31-.08-.49.01-2.86,1.51-5.72,3.01-8.58,4.51-.22.12-.32.24-.31.51.01,3.58,0,7.16,0,10.75,0,.1,0,.2,0,.3.04.29.21.49.5.5.77.02,1.53,0,2.34,0ZM14.28,17.14c.2,0,.37,0,.53,0,.7.01,1.17.48,1.19,1.18,0,.25,0,.49,0,.74,0,.5,0,.99,0,1.48h1.12v-7.95H6.88v7.96h1.1c0-.12.02-.21.02-.31,0-.64,0-1.27,0-1.91.02-.73.48-1.18,1.21-1.19.16,0,.32,0,.5,0,0-.79,0-1.52,0-2.26,0-.67.46-1.15,1.13-1.16.78-.01,1.56-.02,2.34,0,.62.01,1.06.47,1.09,1.09,0,.19,0,.38,0,.57,0,.58,0,1.15,0,1.77ZM17.7,10.3H6.31v1.1h11.39v-1.1Z"/>
      <path class="cls-1" d="M3.32,32.55c-.39-.17-.83-.28-1.17-.53-.77-.56-1.06-1.37-.91-2.3.16-.94.72-1.59,1.64-1.89.21-.07.29-.15.27-.37-.02-.23,0-.47,0-.71.01-.85.62-1.46,1.47-1.47,2.29,0,4.58,0,6.86,0,.11,0,.22,0,.37,0,0-.48,0-.93,0-1.38,0-.19,0-.38,0-.57.02-.28.21-.47.46-.48.26,0,.48.19.49.48.02.53,0,1.06,0,1.59,0,.1,0,.21,0,.36.13,0,.24,0,.35,0,2.25,0,4.5,0,6.75,0,1.04,0,1.64.57,1.61,1.61-.02.55.05.88.66,1.12.93.36,1.4,1.43,1.27,2.44-.13.99-.89,1.81-1.88,2.03-.07.02-.14.04-.21.06h-.62c-.07-.02-.14-.05-.21-.06-1.01-.23-1.76-1.07-1.88-2.1-.11-.98.39-2.04,1.31-2.39.58-.22.68-.54.61-1.05,0,0,0-.02,0-.03,0-.51-.15-.66-.65-.66-2.27,0-4.53,0-6.8,0-.09,0-.18,0-.29,0,0,.42.01.79,0,1.17,0,.22.04.34.29.42.97.31,1.61,1.18,1.65,2.21.04.97-.55,1.9-1.47,2.29-.21.09-.45.14-.67.21h-.57c-.26-.08-.53-.14-.77-.26-.87-.41-1.42-1.34-1.36-2.27.06-1.04.7-1.87,1.68-2.21.09-.03.24-.11.24-.17.02-.46.01-.92.01-1.35-.05-.03-.05-.04-.06-.04-2.4,0-4.8,0-7.2,0-.29,0-.47.2-.48.49,0,.23,0,.45,0,.68-.02.22.04.34.28.42.95.3,1.61,1.19,1.65,2.15.04,1.04-.52,1.95-1.46,2.35-.21.09-.42.14-.64.21h-.62Z"/>
    </g>
  </g>
</svg>