<?xml version="1.0" encoding="UTF-8"?>
<svg id="Layer_2" xmlns="http://www.w3.org/2000/svg" viewBox="0 0 41.8 24">
  <defs>
    <style>
      .cls-1 {
        fill: #fff;
      }
    </style>
  </defs>
  <g id="Layer_1-2" data-name="Layer_1">
    <g>
      <path class="cls-1" d="M10.54,5.72h-1.93v-1.88h-1.89v-1.93h1.86V.02h1.93v1.86h1.89v1.93h-1.86v1.91Z"/>
      <path class="cls-1" d="M33.16,1.91h1.91v1.89h-1.89v1.91h-1.91v-1.89h-1.91v-1.91h1.89V0h1.91v1.91Z"/>
      <path class="cls-1" d="M3.82,13.4h-1.93v-1.87H0v-1.93h1.85v-1.89h1.93v1.85h1.89v1.93h-1.85v1.91Z"/>
      <path class="cls-1" d="M37.98,7.69h1.91v1.89h1.91v1.91h-1.89v1.91h-1.91v-1.89h-1.91v-1.91h1.89v-1.91Z"/>
      <path class="cls-1" d="M20.9,24c-1.86,0-3.72,0-5.58,0-1.87,0-3.07-1.21-3.07-3.09,0-3.72,0-7.45,0-11.17,0-1.83,1.22-3.04,3.05-3.04,3.72,0,7.45,0,11.17,0,1.87,0,3.07,1.2,3.07,3.08,0,3.7,0,7.41,0,11.11,0,1.91-1.2,3.1-3.12,3.1-1.84,0-3.68,0-5.52,0ZM23.77,8.62c0,.29,0,.5,0,.72,0,1.9,0,3.8,0,5.7,0,.52-.08.96-.61,1.18-.54.22-.91-.07-1.26-.43-.33-.34-.67-.66-1.04-1.02-.39.4-.72.74-1.06,1.09-.33.34-.69.56-1.18.36-.5-.2-.63-.61-.63-1.11,0-1.9,0-3.8,0-5.7v-.8c-.95,0-1.83,0-2.7,0-.79,0-1.14.35-1.14,1.14,0,3.72,0,7.44,0,11.17,0,.79.35,1.14,1.13,1.14,3.72,0,7.44,0,11.17,0,.81,0,1.15-.36,1.15-1.19,0-1.04,0-2.08,0-3.12,0-2.66,0-5.32,0-7.98,0-.74-.33-1.14-1-1.15-.92-.02-1.84,0-2.84,0ZM21.82,8.67h-1.86v4.3c.63-.67,1.23-.63,1.86,0v-4.29Z"/>
    </g>
  </g>
</svg>