<?xml version="1.0" encoding="UTF-8"?>
<svg id="Layer_2" xmlns="http://www.w3.org/2000/svg" viewBox="0 0 36 24">
  <defs>
    <style>
      .cls-1 {
        fill: #fff;
      }
    </style>
  </defs>
  <g id="Layer_1-2" data-name="Layer_1">
    <path class="cls-1" d="M27.22,4.84c.12-.76.3-.91,1.06-.91.58,0,1.16,0,1.8,0,0-.24,0-.43,0-.62.03-.49.3-.76.78-.76,1.44,0,2.88,0,4.33,0,.53,0,.81.3.81.85,0,1.22,0,2.44,0,3.66,0,1.82,0,3.63,0,5.45,0,.68-.26.94-.95.94-2.13,0-4.25,0-6.38,0-.24,0-.37.07-.52.26-.95,1.24-2.12,2.16-3.7,2.46-.33.06-.67.08-1,.06-.27-.01-.46.06-.65.25-2.35,2.36-4.71,4.72-7.06,7.07-.62.62-.94.61-1.56,0C9.6,18.96,5.03,14.39.46,9.82c-.61-.61-.61-.9-.01-1.5C3.07,5.69,5.7,3.06,8.33.43c.58-.58.9-.58,1.47,0,.7.7,1.41,1.4,2.11,2.12.16.17.3.19.52.11,1.02-.39,2.05-.76,3.08-1.13,1.58-.57,3.17-.54,4.68.18,1.66.78,3.27,1.67,4.9,2.53.81.43,1.49.64,2.14.61ZM13.25,3.87c.66.66,1.27,1.21,1.81,1.83.67.78,1.47,1.23,2.46,1.49,1.29.34,2.56.79,3.84,1.2.46.15.67.53.55.95-.12.41-.53.6-.99.47-.16-.04-.31-.1-.46-.14-2.02-.64-4.05-1.28-6.07-1.92-.58-.18-1.11-.07-1.54.38-.39.41-.51.91-.31,1.45.23.64.75.97,1.36,1.17,1.82.62,3.64,1.24,5.47,1.85.33.11.57.29.8.56,1.14,1.32,2.6,1.81,4.29,1.46,1.21-.26,2.06-1.11,2.73-2.12.06-.09.08-.21.08-.32,0-1.84,0-3.68,0-5.52,0-.22-.07-.3-.3-.32-.92-.07-1.76-.36-2.58-.8-1.56-.84-3.14-1.66-4.72-2.46-.78-.39-1.65-.6-2.5-.4-1.29.31-2.55.76-3.91,1.18ZM4.66,11.77c2.54,2.54,5.07,5.07,7.6,7.6,1.81-1.13,3.65-1.12,5.46.03.57-.57,1.12-1.12,1.69-1.69-.76-1.12-1.03-2.38-.78-3.76-.84-.28-1.66-.56-2.49-.84-.06.17-.1.29-.15.42-.67,1.77-2.54,2.94-4.36,2.73-2.04-.24-3.62-1.75-3.84-3.67-.23-2.01.85-3.86,2.72-4.52.47-.17.83-.38,1.12-.81.41-.59,1.06-.88,1.72-1.04-.52-.52-1.03-1.03-1.57-1.57.04,0,.02,0,.01,0-1.78,1.11-3.57,1.16-5.37.06-.06-.04-.2-.02-.25.02-.53.52-1.06,1.05-1.58,1.57,1.18,1.87,1.18,3.72.06,5.49ZM31.59,4.05v7.88h2.88v-7.9c-.92,0-1.82,0-2.71,0-.05,0-.1,0-.17.02ZM30.05,11.93v-6.49h-1.28v6.49h1.28Z"/>
  </g>
</svg>