<?xml version="1.0" encoding="UTF-8"?>
<svg id="Layer_2" xmlns="http://www.w3.org/2000/svg" viewBox="0 0 35.57 24">
  <defs>
    <style>
      .cls-1 {
        fill: #fff;
      }
    </style>
  </defs>
  <g id="Layer_1-2" data-name="Layer_1">
    <g>
      <path class="cls-1" d="M0,3.52c.23-.73.66-1.27,1.46-1.42.16-.03.32-.04.48-.04,6.61,0,13.22,0,19.83,0,1.2,0,1.93.72,1.93,1.92,0,1.49,0,2.99,0,4.48,0,1.16-.72,1.9-1.88,1.9-6.65,0-13.29,0-19.94,0-.99,0-1.58-.53-1.89-1.43V3.52ZM11.85,9.18c3.3,0,6.6,0,9.89,0,.59,0,.78-.18.78-.76,0-1.47,0-2.94,0-4.41,0-.55-.2-.76-.75-.76-6.61,0-13.21,0-19.82,0-.57,0-.77.21-.77.78,0,1.42,0,2.85,0,4.27,0,.72.16.88.88.88,3.26,0,6.53,0,9.79,0Z"/>
      <path class="cls-1" d="M0,15.95s.05-.08.06-.12c.27-.85.9-1.32,1.78-1.32,6.68,0,13.35,0,20.03,0,1.08,0,1.82.76,1.83,1.84,0,1.52,0,3.03,0,4.55,0,1.19-.74,1.92-1.94,1.92-5.6,0-11.2,0-16.8,0-.91,0-1.83,0-2.74,0-1.31,0-1.73-.28-2.23-1.45,0-1.81,0-3.61,0-5.42ZM11.84,15.69c-3.29,0-6.57,0-9.86,0-.6,0-.8.2-.8.79,0,1.46,0,2.92,0,4.37,0,.57.2.78.77.78,6.6,0,13.19,0,19.79,0,.58,0,.77-.2.78-.77,0-1.43,0-2.87,0-4.3,0-.7-.17-.86-.85-.86-3.27,0-6.55,0-9.82,0Z"/>
      <path class="cls-1" d="M30.07,13.33c-2.92.09-5.27,2.56-5.18,5.44.1,3,2.54,5.33,5.49,5.23,2.98-.1,5.28-2.58,5.17-5.58-.1-2.87-2.6-5.18-5.49-5.09ZM33.02,17.3c-.09.11-.19.2-.28.3-.98,1.03-1.96,2.06-2.94,3.09-.44.46-.71.46-1.16-.01-.38-.4-.77-.8-1.15-1.21-.28-.31-.29-.65-.04-.89.25-.24.6-.22.89.07.29.3.58.6.88.92.92-.97,1.83-1.92,2.74-2.88.06-.07.13-.14.19-.2.27-.27.62-.29.87-.07.25.23.25.57,0,.87Z"/>
      <path class="cls-1" d="M30.07,0c-2.92.09-5.27,2.56-5.18,5.44.1,3,2.54,5.33,5.49,5.23,2.98-.1,5.28-2.58,5.17-5.58C35.46,2.23,32.97-.09,30.07,0ZM33.02,3.98c-.09.11-.19.2-.28.3-.98,1.03-1.96,2.06-2.94,3.09-.44.46-.71.46-1.16-.01-.38-.4-.77-.8-1.15-1.21-.28-.31-.29-.65-.04-.89.25-.24.6-.22.89.07.29.3.58.6.88.92.92-.97,1.83-1.92,2.74-2.88.06-.07.13-.14.19-.2.27-.27.62-.29.87-.07.25.23.25.57,0,.87Z"/>
    </g>
  </g>
</svg>