<?xml version="1.0" encoding="UTF-8"?>
<svg id="Layer_2" xmlns="http://www.w3.org/2000/svg" viewBox="0 0 26.52 24">
  <defs>
    <style>
      .cls-1 {
        fill: #fff;
      }
    </style>
  </defs>
  <g id="Layer_1-2" data-name="Layer_1">
    <path class="cls-1" d="M13.47,0c1.02.55,2.03,1.1,3.05,1.64,3.05,1.61,6.1,3.21,9.15,4.82.86.45,1.07,1.13.61,2-.13.24-.25.48-.38.72-.35.65-.52.79-1.27.95,0,.13,0,.28,0,.42,0,3.76-.02,7.52.01,11.28.01,1.28-.85,2.18-2.18,2.17-6.14-.03-12.28-.02-18.42-.02-1.41,0-2.14-.73-2.14-2.14,0-3.77,0-7.55,0-11.32,0-.27,0-.45-.36-.49-.37-.05-.63-.31-.81-.65C.49,8.92.25,8.46,0,7.99c0-.2,0-.39,0-.59.17-.5.53-.79.99-1.03,1.39-.71,2.77-1.44,4.15-2.17C7.8,2.8,10.45,1.4,13.1,0c.12,0,.25,0,.37,0ZM6.31,22.72c0-2.98,0-5.9,0-8.82,0-.09-.06-.22-.13-.28-.37-.31-.51-.71-.49-1.18.01-.32,0-.64,0-.96,0-.86.49-1.38,1.34-1.38,4.16,0,8.31-.01,12.47.01.33,0,.71.16.96.38.61.53.57,2.51-.03,3.06-.16.15-.22.29-.22.5,0,2.77,0,5.55,0,8.32,0,.11,0,.22,0,.36.77,0,1.51,0,2.25,0,.74,0,.92-.18.92-.91,0-3.95,0-7.89,0-11.84,0-.29-.09-.44-.34-.57-3.18-1.66-6.35-3.33-9.51-5-.2-.11-.35-.09-.54.01-3.16,1.67-6.32,3.33-9.48,4.98-.25.13-.35.27-.35.56.01,3.96,0,7.92,0,11.87,0,.11,0,.22,0,.33.04.33.23.54.55.55.85.02,1.7,0,2.58,0ZM15.78,18.94c.23,0,.41,0,.59,0,.78.01,1.3.53,1.31,1.3,0,.27,0,.54,0,.81,0,.55,0,1.1,0,1.64h1.24v-8.79H7.6v8.8h1.22c0-.13.02-.24.02-.34,0-.7-.01-1.41,0-2.11.02-.81.53-1.3,1.34-1.31.18,0,.36,0,.55,0,0-.87,0-1.68,0-2.5,0-.74.51-1.27,1.24-1.28.86-.02,1.73-.02,2.59,0,.68.01,1.17.52,1.21,1.2.01.21,0,.42,0,.63,0,.64,0,1.28,0,1.95ZM19.56,11.38H6.97v1.22h12.59v-1.22Z"/>
  </g>
</svg>