<?xml version="1.0" encoding="UTF-8"?>
<svg id="Layer_2" xmlns="http://www.w3.org/2000/svg" viewBox="0 0 20.31 24">
  <defs>
    <style>
      .cls-1 {
        fill: #fff;
      }
    </style>
  </defs>
  <g id="Layer_1-2" data-name="Layer_1">
    <g>
      <path class="cls-1" d="M20.19,20.08c-.84-1.5-1.68-2.99-2.52-4.49-.04-.08-.08-.16-.13-.25.21-.06.39-.11.57-.15.56-.15.75-.48.6-1.03-.15-.54-.29-1.09-.44-1.63-.1-.33-.02-.61.23-.85.41-.4.81-.8,1.21-1.21.38-.38.38-.77,0-1.14-.4-.41-.8-.81-1.21-1.21-.26-.25-.33-.53-.23-.87.16-.55.3-1.1.45-1.65.13-.5-.06-.84-.56-.98-.55-.15-1.1-.3-1.65-.44-.35-.09-.56-.28-.64-.63-.14-.54-.28-1.09-.43-1.63-.15-.54-.48-.73-1.02-.59-.55.15-1.1.29-1.65.44-.33.09-.59.02-.83-.23-.4-.43-.81-.85-1.22-1.26-.37-.38-.77-.38-1.14,0-.4.41-.81.83-1.2,1.25-.25.26-.52.34-.87.24-.53-.15-1.07-.29-1.6-.43-.57-.15-.89.04-1.05.61-.14.53-.29,1.07-.43,1.61-.08.34-.28.54-.62.62-.54.14-1.07.29-1.61.42-.57.15-.77.48-.61,1.04.15.54.29,1.09.44,1.63.09.33.02.59-.22.83-.41.4-.82.81-1.23,1.22-.37.37-.37.76,0,1.13.4.4.8.81,1.21,1.21.27.26.34.54.24.89-.16.55-.3,1.1-.45,1.65-.13.49.07.82.55.96.21.06.41.12.63.18-.05.1-.09.18-.13.25-.83,1.47-1.63,2.95-2.49,4.4-.38.64.03,1.22.67,1.21.81,0,1.62.08,2.43.14.1,0,.23.09.29.18.44.64.86,1.31,1.3,1.95.14.2.35.35.53.53h.37c.26-.12.41-.33.55-.57.81-1.46,1.63-2.91,2.45-4.36.05-.09.1-.17.17-.29.24.24.46.47.68.7.36.35.75.35,1.11,0,.22-.21.43-.43.65-.64.01-.01.03-.02.05-.03.04.07.09.15.13.22.83,1.47,1.65,2.93,2.47,4.4.14.24.29.45.55.57h.38c.25-.11.41-.32.55-.55.41-.66.84-1.31,1.25-1.98.1-.16.21-.22.39-.22.8-.01,1.59-.04,2.39-.06.09,0,.17,0,.26-.02.49-.12.69-.62.42-1.09ZM5.52,21.93c-.06-.07-.1-.12-.14-.17-.31-.46-.61-.92-.91-1.39-.17-.27-.4-.39-.72-.41-.57-.02-1.14-.06-1.71-.1-.05,0-.1-.02-.19-.03.77-1.37,1.52-2.71,2.28-4.05.03,0,.06,0,.09-.01.07.15.16.3.21.45.15.54.29,1.08.44,1.63.15.56.48.75,1.03.6.53-.14,1.05-.28,1.58-.42.07-.02.15-.03.26-.05-.75,1.34-1.48,2.64-2.22,3.96ZM10.14,15.52c-3.1,0-5.62-2.53-5.61-5.63,0-3.11,2.54-5.63,5.65-5.62,3.1.01,5.61,2.54,5.6,5.64,0,3.1-2.54,5.61-5.64,5.61ZM18.18,19.82c-.55.02-1.11.04-1.66.05-.29,0-.5.13-.66.37-.31.49-.62.97-.93,1.46-.04.06-.09.12-.15.21-.74-1.32-1.47-2.61-2.23-3.96.48.13.9.24,1.32.35.22.06.44.12.66.17.42.1.76-.09.88-.52.16-.57.3-1.14.47-1.71.05-.17.14-.32.21-.47.03,0,.05,0,.08,0,.75,1.33,1.5,2.66,2.27,4.03-.11,0-.18.02-.25.02Z"/>
      <path class="cls-1" d="M10.16,5.68c-2.33,0-4.23,1.88-4.23,4.2,0,2.33,1.88,4.23,4.21,4.23,2.33,0,4.23-1.88,4.23-4.21,0-2.33-1.88-4.23-4.21-4.23Z"/>
    </g>
  </g>
</svg>