<?xml version="1.0" encoding="UTF-8"?><svg id="uuid-0e1e8d99-cb42-428a-abc6-a3f9222f52dc" xmlns="http://www.w3.org/2000/svg" viewBox="0 0 580 580"><defs><style>.uuid-900f80ff-93cf-4dbe-b032-6cea7da10873{fill:#fff;}</style></defs><path class="uuid-900f80ff-93cf-4dbe-b032-6cea7da10873" d="M395.15,134.95h21.83c10.46,0,28.07,17.64,28.07,28.07v21.83h21.83c11.53,0,28.17,18,28.06,29.86l.04,249.53c-1.36,15.78-15.01,29.39-30.74,30.74l-249.53-.04c-11.86.11-29.86-16.53-29.86-28.06v-21.83h-21.83c-10.43,0-28.07-17.61-28.07-28.07v-21.83h-21.83c-11.53,0-28.17-18-28.06-29.86l-.04-249.53c1.36-15.78,15.01-29.39,30.74-30.74l249.53.04c11.86-.11,29.86,16.53,29.86,28.06v21.83ZM199.11,95.74h-83.32c-9.21,0-20.21,12.58-20.04,21.84l-.04,244.18c1.12,13.05,9.64,21.6,22.72,22.72h242.45c13.39-.56,22.47-9.42,23.61-22.72l-.04-244.18c.17-9.26-10.84-21.84-20.04-21.84h-83.32v90.45c0,2.57-7.03,9.4-10.31,9.3-19.12-1.3-40.9,1.92-59.69.1-2.94-.29-4.73-.87-7.08-2.72-1.23-.97-4.91-5.56-4.91-6.68v-90.45ZM270.4,95.74h-60.59v87.77l1.34,1.34h57.92l1.34-1.34v-87.77ZM145.64,395.15v19.16c0,9.5,13.12,20.63,22.69,20.08h243.33c13.07-1.12,21.6-9.66,22.72-22.72v-243.33c.55-9.57-10.58-22.69-20.08-22.69h-19.16v221.44c0,10.43-17.61,28.07-28.07,28.07h-221.44ZM195.54,445.05v19.16c0,9.5,13.12,20.63,22.69,20.08h243.33c13.07-1.12,21.6-9.66,22.72-22.72v-243.33c.55-9.57-10.58-22.69-20.08-22.69h-19.16v221.44c0,10.43-17.61,28.07-28.07,28.07h-221.44Z"/><path class="uuid-900f80ff-93cf-4dbe-b032-6cea7da10873" d="M259.45,299.1l90.24.28c4.6,2.96,3.43,9.63-2.16,10.27l-89.21-.88c-3.58-2.82-2.92-7.75,1.13-9.67Z"/><path class="uuid-900f80ff-93cf-4dbe-b032-6cea7da10873" d="M280.83,341.87l68.85.28c4.57,2.99,3.52,9.54-2.16,10.27-19.74,2.53-44.82-2.02-65.14,0-5.88-.7-6.82-8-1.55-10.55Z"/></svg>