<?xml version="1.0" encoding="UTF-8"?><svg id="uuid-133db4f2-5c55-4b4b-8a00-6d44f8abf182" xmlns="http://www.w3.org/2000/svg" viewBox="0 0 580 580"><defs><style>.uuid-1fe38a30-75d9-4268-bd8d-e30f6e49e5cc{fill:#fff;}</style></defs><path class="uuid-1fe38a30-75d9-4268-bd8d-e30f6e49e5cc" d="M481.62,184.23v11.98c-6.48,52.51-7.46,106.37-13.48,159.06-1.2,10.52-3.22,18.69-12.04,25.39s-18.46,6.26-29.13,4.93v30.32c0,12.16-14.47,25.55-26.59,25.81l-275.48.04c-14.02-1.22-24.77-12.04-26.54-25.86l.33-177.06c5.19-25.18,28.7-24.93,49.71-24.02,3.03-15.86,2.95-32.89,5.44-48.83,4.96-31.65,26.46-28.53,51.92-26.66,83.35,6.12,166.54,15.2,249.93,21.04,13.74,2.15,22.47,10.52,25.91,23.87ZM426.98,370.62c11.01,1.01,22.38,2.55,25.38-10.92l14.11-172.67c-1.56-6.77-6.72-11.18-13.67-11.77l-270.18-22.49c-6.03.63-10.77,3.92-12.78,9.75l-5.6,52.41h236.91c11.06,0,25.82,14.76,25.82,25.82v129.87ZM412.01,259.08v-16.09c0-.39-1.58-4.82-1.94-5.54-2.71-5.38-8.37-7.33-14.12-7.59H128.66c-5.34.42-9.91,1.83-12.95,6.51-.43.66-2.37,4.79-2.37,5.12v17.59h298.67ZM113.34,305.49h297.54l1.12-1.12v-29.19l-1.12-1.12H113.34v31.44ZM412.01,320.46H113.34v94.69c0,4.54,8.14,11.87,13.1,11.6l270.26.03c5.12-.02,10.7-2.36,13.22-6.99.59-1.08,2.09-5.23,2.09-6.14v-93.19Z"/><path class="uuid-1fe38a30-75d9-4268-bd8d-e30f6e49e5cc" d="M302.98,344.68c1.98-1.97,5.64-2.34,8.32-2.54,21.79-1.58,45.44,1.27,67.43,0,5.99.53,8.79,2.54,9.36,8.61,1.05,11.21,1.04,34.5,0,45.72-.3,3.23-.92,5.66-3.97,7.26l-79.14.18c-3.61-2.51-4.21-5.49-4.53-9.69-.86-11.06-.89-30.19,0-41.22.2-2.5.75-6.55,2.53-8.32ZM373.08,357.89h-56.89v31.44h56.89v-31.44Z"/></svg>