<?xml version="1.0" encoding="UTF-8"?><svg id="uuid-038f5ac1-bf5c-4fbd-890f-12f39af86243" xmlns="http://www.w3.org/2000/svg" viewBox="0 0 580 580"><defs><style>.uuid-2441a173-e6ee-4af7-b170-23d92c90b4f6{fill:#fff;}</style></defs><path class="uuid-2441a173-e6ee-4af7-b170-23d92c90b4f6" d="M325.01,290.38l128.72.42c2.29,1.2,3.47,3.39,3.35,6.01l-.44,164.99c-4.65,6.14-13.58,2.19-18.23-2.02-1.84-1.66-5.05-7.09-7.52-7.35-4.11-.43-7.98,7.52-11.95,9.89-7.34,4.38-15.84,3.33-21.98-2.43-2.33-2.19-4.71-7.26-8.24-7.45-3.13-.17-6.75,6.34-9.42,8.46-7.18,5.7-16.44,5.35-23.28-.63-3.07-2.68-4.48-6.91-8.63-7.83-3.5-.17-6.94,6.03-9.67,8.21-6.17,4.92-17,7.7-17.98-3.09v-159.18c.01-3.64,1.65-6.86,5.27-8ZM444.57,302.7h-111.54v143.52c7.28-6.58,16.45-8.75,24.91-2.68,3.24,2.33,6.3,9.31,10.53,8.92,3.41-.32,5.61-5.75,7.85-7.79,5.75-5.23,15.03-6.48,21.71-2.22,3.78,2.41,7.83,10.26,11.77,10.01,3.54-.23,7.52-7.82,11.73-10.16,8.48-4.72,16.81-2.09,23.04,4.71v-144.3Z"/><path class="uuid-2441a173-e6ee-4af7-b170-23d92c90b4f6" d="M382.17,219.24h-40.17c-16.52,0-40.17-25.23-40.17-41.73v-47.97c-2.25-.1-4.32-.69-6.59-.82-39.54-2.26-81.2,1.79-120.97,0-20.93,2.12-34.92,16.81-38.48,37.18-.63,3.59.99,10.16-4.4,11.2-12.06,2.32-8.32-14.14-6.38-21.21,6.22-22.78,28.1-39.45,51.61-40.42,4.25-.18,7.92.95,11.75.87,31.19-.65,63.12-2.12,94.4-.87,27.27,1.09,35.95,3.85,54.58,23.42,13.98,14.7,31.59,33.79,44.03,49.56,20.76,26.32,11.29,53.84,13.27,84.98-1.2,4.22-6.79,5.92-10.1,3.11-.43-.36-2.36-3.65-2.36-3.88v-53.43ZM314.32,135v40.17c0,12.7,17.26,31.59,30.03,31.59h33.93c-2.51-5.61-6.6-10.19-10.52-14.83-13.14-15.57-31.46-37.54-45.91-51.19-2.12-2-5.08-4.08-7.53-5.73Z"/><path class="uuid-2441a173-e6ee-4af7-b170-23d92c90b4f6" d="M128.5,189.74c3.08-.4,5.08,1.51,6.61,3.96l.56,219.39c1.78,20.38,17.85,36.63,38.07,39.14l128.44.26c7.9,1.25,6.67,12.83-1.48,12.47l-128.64-.13c-25.54-3.24-46.13-23.69-48.87-49.41v-219.24c-.18-3.44,1.92-6.02,5.31-6.45Z"/><path class="uuid-2441a173-e6ee-4af7-b170-23d92c90b4f6" d="M158.1,246.7l200.31-.18c7.99.94,9.26,11.53.78,12.51h-200.49c-7.87-.91-7.44-10.03-.6-12.33Z"/><path class="uuid-2441a173-e6ee-4af7-b170-23d92c90b4f6" d="M205.63,388.77c2.3,2.15,3.73,5.91,3.4,9.08,7.04-8.91,19.76-13.65,24.18,0,1.04.95,6.8-5.95,8.31-6.89,7.57-4.69,17.05.47,17.42,9.23,1.14,1.02,14.58-11.27,18.44-11.47,4.74-.24,7.84,5.15,5.62,9.42-1.03,1.99-19.26,15.41-21.51,15.92-7.21,1.64-14.17-2.47-15.06-9.97-7.41,8.47-18.87,12.38-24.57,0-1.58,0-6.03,5.95-9.31,7.07-8.89,3.01-16.12-2.7-16.41-11.73-7.14,2.31-31.76,20.64-37.4,20.25s-8.11-7.93-2.73-12.02c4.32-3.29,34.13-20.32,38.53-21.54,3.84-1.06,8.12-.1,11.07,2.66Z"/><path class="uuid-2441a173-e6ee-4af7-b170-23d92c90b4f6" d="M158.1,296.62l145.88.42c5.23,2.82,4.38,11.13-1.71,11.93l-143.57-.02c-7.62-.88-7.46-10.13-.6-12.33Z"/><path class="uuid-2441a173-e6ee-4af7-b170-23d92c90b4f6" d="M158.1,346.54l143.37-.18c6.75.63,8.16,8.41,2.69,12.09l-145.46.42c-7.3-.86-7.59-10.18-.6-12.33Z"/><path class="uuid-2441a173-e6ee-4af7-b170-23d92c90b4f6" d="M158.1,196.78l100.47-.18c7.55.89,9.33,10.58,1.58,12.54l-101.45-.02c-7.62-.88-7.46-10.13-.6-12.33Z"/><path class="uuid-2441a173-e6ee-4af7-b170-23d92c90b4f6" d="M415.51,343.37c5.07-.98,9.36,5.17,6.48,9.68l-58.1,58.1c-5.92,3.42-13.03-3.37-8.23-9.01l56.92-56.95c.82-.74,1.83-1.6,2.93-1.82Z"/><path class="uuid-2441a173-e6ee-4af7-b170-23d92c90b4f6" d="M361.72,334.07c18.95-1.98,28.59,24.01,11.81,34.47-26.43,16.46-41.85-31.33-11.81-34.47ZM361.67,347.32c-6.02,1.35-5.13,11.32,1.41,11.58,9.33.37,8.53-13.82-1.41-11.58Z"/><path class="uuid-2441a173-e6ee-4af7-b170-23d92c90b4f6" d="M413.11,384.12c24.1-.34,25.6,36.04,1.45,37.17-25.37,1.19-26.36-36.82-1.45-37.17ZM408.94,406.97c6.19,6.75,15.51-4.74,7.99-9.17-6.53-3.85-12.72,4.01-7.99,9.17Z"/></svg>