<?xml version="1.0" encoding="UTF-8"?><svg id="uuid-582f8bd7-abb3-4983-8ec0-e6c6f759bf53" xmlns="http://www.w3.org/2000/svg" viewBox="0 0 580 580"><defs><style>.uuid-e41b3256-40cf-4236-8162-5d7db316e0c0{fill:#fff;}</style></defs><path class="uuid-e41b3256-40cf-4236-8162-5d7db316e0c0" d="M71.84,119.65c3.51-16.79,16.44-29.91,33.65-32.35l340.66-.04c19.88,1.92,33.86,17.32,35.34,37.04l-.04,276.81c8.04,10.75,36.32,21.73,23.35,38.67-6.12,7.99-17.02,5.27-25.05,9.04,4.07,11.59,12.54,19.96,6.42,32.8-5.53,11.59-20.66,14.62-30.67,6.76-7.34-5.77-8.48-15.61-13.65-22.96-8.21,6.89-18.01,19.6-29.82,11.92-1.41-.92-6.38-6.77-6.38-8.1v-30.23H106.33c-1.58,0-9.28-2.46-11.22-3.25-12.71-5.21-19.84-16.28-23.27-29.11V119.65ZM466.98,137.53v-16.61c0-7.15-12.94-19.87-20.83-19.2l-339.83.03c-7.43-.11-20.01,11.4-20.01,18.31v17.46h380.67ZM466.98,152.01H86.32v254.2c0,6.54,13.39,18.31,20.01,18.31h299.34v-60.04c0-.42,2.37-3.97,2.96-4.7,5.59-6.87,14.54-6.68,21.31-1.68l37.04,31.51v-237.6ZM493.38,431.33l-73.23-62.16-.85,95.38c6.49-2.56,20.39-18.74,26.6-17.74,1.44.23,3.85,1.74,4.79,2.95,4.77,6.09,7.89,19.76,12.51,26.67,5.24,3.91,11.59,1.81,10.56-5.43-1.33-9.34-20.75-30.6-6.1-35.16,7.73-2.41,17.69-2.78,25.73-4.52Z"/><path class="uuid-e41b3256-40cf-4236-8162-5d7db316e0c0" d="M235.35,325.74c1,5.28,1.63,13.4,8.14,14.43l113.23.03c10.05.95,9.71,13.6,0,14.52-36.61-2.41-77.17,3.13-113.31,0-9.13-.79-16.19-6.1-19.37-14.69l-34-126.95c-3.8-7.27-17.92,1.41-20.73-7.37-3.68-11.51,13.55-10.27,20.41-9.34,14.63,1.99,14.59,18.27,18.94,28.92l165.12.77c6.71,3.1,11.44,9.83,10.52,17.4-6.64,19.98-9.49,43.67-16.93,63.13-3.21,8.4-13.02,19.14-22.59,19.14h-109.43ZM240.46,239.72h-28.1l6.81,28.1h24.7l-3.41-28.1ZM283.89,239.72h-28.95l3.41,28.1h25.55v-28.1ZM328.17,239.72h-29.81v28.1h25.55l4.26-28.1ZM369.9,239.72h-26.83l-1.14,1.42-3.55,26.69h24.7l6.81-28.1ZM246.42,282.3h-22.99l7.66,28.95h18.74l-3.41-28.95ZM283.89,282.3h-22.99l3.41,28.95h19.59v-28.95ZM322.21,282.3h-23.84v28.95h19.16l1.14-1.42,3.55-27.54ZM358.83,282.3h-22.14l-4.26,28.95c21.73,3.75,23.02-12.58,26.4-28.95Z"/><path class="uuid-e41b3256-40cf-4236-8162-5d7db316e0c0" d="M189.09,124.49c-1.48,1.36-4.09,1.84-6.08,2.02-22.44,2.05-47.97-1.64-70.75-.03-8.64-1.02-9.62-12.16-.87-13.68,23.14,2.05,50.69-2.61,73.29.02,5.85.68,8.93,7.51,4.4,11.67Z"/><path class="uuid-e41b3256-40cf-4236-8162-5d7db316e0c0" d="M408.82,113.02c10.14-3.02,13.31,10.54,5.41,13.07-10.27,3.28-12.59-10.93-5.41-13.07Z"/><path class="uuid-e41b3256-40cf-4236-8162-5d7db316e0c0" d="M379.87,113.02c13.04-3.88,12.53,17,.21,13.07-6.12-1.95-5.47-11.5-.21-13.07Z"/><path class="uuid-e41b3256-40cf-4236-8162-5d7db316e0c0" d="M437.78,113.02c10.14-3.02,13.31,10.54,5.41,13.07-10.07,3.22-12.55-10.94-5.41-13.07Z"/><path class="uuid-e41b3256-40cf-4236-8162-5d7db316e0c0" d="M264.12,358.27c-25.57,2.02-16.13,43.72,8.89,31.96,16.54-7.77,8.61-33.34-8.89-31.96ZM265.47,381.7c-3.32,0-6.02-2.69-6.02-6.02s2.69-6.02,6.02-6.02,6.02,2.69,6.02,6.02-2.69,6.02-6.02,6.02Z"/><path class="uuid-e41b3256-40cf-4236-8162-5d7db316e0c0" d="M327.14,358.27c-22.83,1.82-19.14,35.49,2.29,33.91,21.82-1.61,19.47-35.65-2.29-33.91ZM327.42,381.7c-3.32,0-6.02-2.69-6.02-6.02s2.69-6.02,6.02-6.02,6.02,2.69,6.02,6.02-2.69,6.02-6.02,6.02Z"/></svg>