<?xml version="1.0" encoding="UTF-8"?><svg id="uuid-cd0bca91-2512-4732-8f57-441219dc8de0" xmlns="http://www.w3.org/2000/svg" viewBox="0 0 580 580"><defs><style>.uuid-031f197d-4b66-4f6f-99cc-ee3251c80f6e{fill:#fff;}</style></defs><path class="uuid-031f197d-4b66-4f6f-99cc-ee3251c80f6e" d="M76.35,192.6c2.39-5.79,5.25-9.69,10.07-13.68l144.95-100.84c2.86-1.95,7.06-1.94,9.9,0l144.95,100.84c5.11,4.23,9.07,8.99,9.98,15.85l.04,88.18c-2.58,9.47-15.26,9.68-17.49.08-1.78-26.53,2.5-56.42.07-82.55-.19-2.08-.38-4.08-1.68-5.82l-140.04-97.5h-1.57s-140.68,98.53-140.68,98.53l-1.04,4.79v171.7c-.21,2.86,1.41,7.05,4.61,7.05h48.74v-152.89c0-2.38,4.97-7.51,7.9-7.1l164.62.39c3.63,1.8,5.89,5.02,5.82,9.18l-.67,161.86c-1.57,3.97-4.54,6.13-8.91,6.09H96.73c-10.41-.9-17.27-7.93-20.38-17.53v-186.63ZM307.14,236.76h-141.64v35.83h141.64v-35.83ZM307.14,290.08h-141.64v35.83h141.64v-35.83ZM307.14,343.4h-141.64v34.99l141.64.83v-35.83Z"/><path class="uuid-031f197d-4b66-4f6f-99cc-ee3251c80f6e" d="M481.27,503.37h-116.65c-11.85-3.45-20.59-11.75-21.69-24.55-2.14-24.86,1.5-52.96.23-78.15.34-7.67,12.98-21.45,20.21-21.45h14.16c1.19-.73,1.15-1.66,1.29-2.87,1.93-16.43-3.75-29.62,5.11-45.71,16.58-30.1,60.67-30.54,77.68-.51,9.27,16.36,3.48,29.48,5.44,46.22.14,1.21.1,2.14,1.29,2.87h14.16c7.23,0,19.88,13.78,20.21,21.45-1.26,25.2,2.36,53.28.23,78.15-1.07,12.43-9.94,21.46-21.69,24.55ZM449.61,378.4v-29.58c0-13.77-16.8-24.07-29.61-22.95-10.48.92-23.71,12.08-23.71,22.95v29.58h53.32ZM367.73,396.92c-5.71,1.56-6.84,5.64-7.3,11.03-1.41,16.53-1.6,50.33.04,66.67.81,8.09,4.12,10.61,12.04,11.29,32.21,2.75,68.25-2.14,100.87,0,8.5-.73,11.35-3.54,12.08-12.08,1.45-16.92,1.45-48.96,0-65.88-.43-5.01-1.42-9.18-6.67-10.83l-111.06-.2Z"/></svg>