<?xml version="1.0" encoding="UTF-8"?><svg id="uuid-795ccb43-ee55-4df1-a785-11ec73f0a92b" xmlns="http://www.w3.org/2000/svg" viewBox="0 0 580 580"><defs><style>.uuid-09f1d24a-f70f-4f86-a33d-6062b6f72fe8{fill:#fff;}</style></defs><path class="uuid-09f1d24a-f70f-4f86-a33d-6062b6f72fe8" d="M225.04,379h127.36c3.03,0,4.86,5.14,5.1,7.77,3.39,37.39-2.64,79.84-.02,117.77-.07,2.69-1.56,4.96-3.93,6.18l-271.1.28-4.14-4.14-.46-237.81c-.14-3.08,1.24-5.66,3.95-7.08l135.45-.74c2.51-.83,7.77,3,7.77,5.1v112.65ZM122.05,276h-29.43v102.99h117.71v-102.99h-29.43v39.08c0,1.46-4.07,5.24-6.03,5-14.5-.91-30.77,1.39-45.05.1-2.63-.24-7.77-2.07-7.77-5.1v-39.08ZM166.19,276h-29.43v29.43h29.43v-29.43ZM122.05,393.71h-29.43v102.99h117.71v-102.99h-29.43v39.08c0,1.46-4.07,5.24-6.03,5-14.5-.91-30.77,1.39-45.05.1-2.63-.24-7.77-2.07-7.77-5.1v-39.08ZM166.19,393.71h-29.43v29.43h29.43v-29.43ZM254.47,393.71h-29.43v102.99h117.71v-102.99h-29.43v39.08c0,1.46-4.07,5.24-6.03,5-14.5-.91-30.77,1.39-45.05.1-2.63-.24-7.77-2.07-7.77-5.1v-39.08ZM298.61,393.71h-29.43v29.43h29.43v-29.43Z"/><path class="uuid-09f1d24a-f70f-4f86-a33d-6062b6f72fe8" d="M345.51,99.44h75.87c9.3,0,24.37,15.17,24.37,24.37v130.12h-14.71v-127.36c0-4.45-7.97-12.41-12.41-12.41h-46.44v14.71h39.08c1.08,0,5.06,3.98,5.06,5.06v127.36h-14.71v-117.71h-176.56v102.99h-14.71v-112.65c0-1.08,3.98-5.06,5.06-5.06h39.08v-14.71h-46.44c-4.44,0-12.41,7.96-12.41,12.41v120.01h-14.71v-122.77c0-9.32,15.04-24.37,24.37-24.37h75.87c.27-8.95-12.16-28.1,3.17-29.47,14.47-1.3,43.57-1.32,58.02,0,15.32,1.39,2.94,20.41,3.17,29.47ZM332.64,84.73h-38.62c-.23,7.11,7.13,19.91,3.57,26.11-.52.91-3.32,3.32-4.03,3.32h-24.37v14.71h88.28v-14.71h-24.37c-.72,0-3.51-2.41-4.03-3.32-3.55-6.2,3.8-19,3.57-26.11Z"/><path class="uuid-09f1d24a-f70f-4f86-a33d-6062b6f72fe8" d="M449.43,314.63l-160.57,47.72c-4.67.46-32.81-4.04-37.14-5.88-9.96-4.22-2.42-12.46,2.27-17.03,7.09-6.91,14.66-13.85,22.55-19.75l198.29-59.19c28.2-4.81,38.94,32.29,10.96,43.15-2.98,1.15-20.91,5.58-21.52,6.53-2.04,7.46,3.56,24.79-1.55,30.18l-59.67,18.47-4.12-13.29,50.5-16.63v-14.25ZM463.22,294.39c7.13-2.46,30.18-4.58,22.48-16.51-4.41-6.83-16.93,1.04-23.28,1.92l.8,14.59ZM447.58,284.28l-117.71,34.95,3.69,13.79,114.04-33.55c2.37-1.77-1.22-11.88-.02-15.19ZM316.08,323.82l-33.76,9.92-11.29,11.23,15.88,2.57,32.86-9.92-3.69-13.79Z"/><path class="uuid-09f1d24a-f70f-4f86-a33d-6062b6f72fe8" d="M445.75,364.29v71.27c0,9.2-15.07,24.37-24.37,24.37h-49.2v-14.71h46.44c4.44,0,12.41-7.96,12.41-12.41v-68.51h14.71Z"/><path class="uuid-09f1d24a-f70f-4f86-a33d-6062b6f72fe8" d="M245.01,158.49c4.59-1.02,26.74-.83,32.01-.22,4.26.49,6.41,2.67,6.9,6.9.54,4.66.66,29.21-.43,32.71-.9,2.88-3.6,4.24-6.47,4.57-4.65.54-29.22.66-32.71-.43-2.88-.9-4.24-3.6-4.57-6.47-.76-6.56-.76-23.82,0-30.39.37-3.17,1.97-5.94,5.27-6.68ZM269.18,173.01h-14.71v14.71h14.71v-14.71Z"/><path class="uuid-09f1d24a-f70f-4f86-a33d-6062b6f72fe8" d="M245.01,224.7c4.59-1.02,26.74-.83,32.01-.22,4.26.49,6.41,2.67,6.9,6.9.54,4.66.66,29.21-.43,32.71-.9,2.88-3.6,4.24-6.47,4.57-4.65.54-29.22.66-32.71-.43-2.88-.9-4.24-3.6-4.57-6.47-.76-6.56-.76-23.82,0-30.39.37-3.17,1.97-5.94,5.27-6.68ZM269.18,239.22h-14.71v14.71h14.71v-14.71Z"/><rect class="uuid-09f1d24a-f70f-4f86-a33d-6062b6f72fe8" x="298.61" y="187.72" width="88.28" height="14.71"/><rect class="uuid-09f1d24a-f70f-4f86-a33d-6062b6f72fe8" x="298.61" y="253.93" width="88.28" height="14.71"/><path class="uuid-09f1d24a-f70f-4f86-a33d-6062b6f72fe8" d="M416.32,371.64v53.8c0,1.08-3.98,5.06-5.06,5.06h-39.08v-14.71h29.43v-44.14h14.71Z"/><rect class="uuid-09f1d24a-f70f-4f86-a33d-6062b6f72fe8" x="328.04" y="158.3" width="58.85" height="14.71"/><rect class="uuid-09f1d24a-f70f-4f86-a33d-6062b6f72fe8" x="328.04" y="224.51" width="58.85" height="14.71"/><rect class="uuid-09f1d24a-f70f-4f86-a33d-6062b6f72fe8" x="298.61" y="158.3" width="14.71" height="14.71"/><rect class="uuid-09f1d24a-f70f-4f86-a33d-6062b6f72fe8" x="298.61" y="224.51" width="14.71" height="14.71"/><rect class="uuid-09f1d24a-f70f-4f86-a33d-6062b6f72fe8" x="180.9" y="349.57" width="14.71" height="14.71"/><rect class="uuid-09f1d24a-f70f-4f86-a33d-6062b6f72fe8" x="180.9" y="467.28" width="14.71" height="14.71"/><rect class="uuid-09f1d24a-f70f-4f86-a33d-6062b6f72fe8" x="313.33" y="467.28" width="14.71" height="14.71"/></svg>