<?xml version="1.0" encoding="UTF-8"?><svg id="uuid-db9e7c23-2c46-4110-862b-3480e946bdb2" xmlns="http://www.w3.org/2000/svg" viewBox="0 0 580 580"><defs><style>.uuid-8a1f0967-ec5e-4aea-a625-e09d9dd14bcf{fill:#fff;}</style></defs><path class="uuid-8a1f0967-ec5e-4aea-a625-e09d9dd14bcf" d="M112.69,528.19c-7.25-3.58-8.12-8.11-10.46-15.07-10.11-30.07-22.12-69.15-29.19-99.86-1.7-7.37-1.27-14.22,6.49-18.04,3.22-1.58,30.66-9.6,33.86-9.79,8.33-.48,13.13,6.39,14.67,13.73,25.1-6.34,47.29-21.14,73.74-11.62,20.93,7.53,41.84,20.22,62.85,28.13,7.4,4.45,14.07,11.67,15.16,20.6l88.13-31.16c29-4.16,41.98,30.23,15.53,46.17-31.96,19.26-73.39,38.27-107.37,55.1-7.05,3.49-16.04,8.93-23.43,10.92-25.46,6.83-58.77-16.56-83.54-21.88-5.47-1.18-7.64.04-12.81,1.21,12.29,26.19-20.81,24.09-36.21,31.56h-7.43ZM152.7,483.54l15.15-2.67c20.55,4.52,61.74,28.86,81.35,23.67,8.44-2.23,23.87-11.5,32.47-15.8,32.45-16.23,64.4-33.59,96.85-49.84,11.47-6.09,5.17-23.29-7.05-20.99l-90.59,32.89c-11.43,42.72-53.95,12.37-80.23,4.74-6.35-3.95-3.6-11.72,3.33-12.54,14.27,3.87,28.57,11.86,42.61,15.81,15.59,4.38,23.98-3.81,20.74-19.81-1.41-6.97-6.19-10.09-11.96-13.11-14.54-7.59-45.44-22.3-60.46-26.81-19.96-6-41.94,7.7-61.16,12.28l-1.48,1.35,20.44,70.82ZM114.54,399.14c-9.08,2.37-18.47,4.52-27.4,7.4-.95.31-1.69-.6-1.42,1.41l30.69,107.25,28.84-8.94-30.72-107.11Z"/><path class="uuid-8a1f0967-ec5e-4aea-a625-e09d9dd14bcf" d="M227.57,201.6l162.56.4c4.04.96,4.5,4.53,4.83,8.16l-.26,127.01c-.34,1.87-1.01,2.94-2.06,4.44-8.39,11.89-26.89,24.11-36.24,36.18l-6.47,1.89c-50.42-2.99-105.21,3.85-155.12,0-7.1-.55-9.05-1.31-9.75-8.82l.26-127.01c.34-1.87,1.01-2.94,2.06-4.44,3.28-4.64,31.1-32.47,35.74-35.74,1.49-1.06,2.57-1.73,4.44-2.06ZM274.23,214.38h-43.17l-22.75,23.21h44.1c5.76-6.99,15.07-13.42,20.43-20.42.72-.94,1.79-1.17,1.39-2.79ZM308.58,214.38h-14.39l-22.75,23.21h15.32c1.44,0,18.76-18.24,20.43-20.42.72-.94,1.79-1.17,1.39-2.79ZM371.71,214.38h-43.17l-22.75,23.21h43.17l22.75-23.21ZM358.72,356.43l22.28-21.82v-109.09l-22.28,21.82v109.09ZM248.24,250.59h-49.21v116.05h145.3l1.39-1.39v-113.27l-1.39-1.39h-48.74v37.6c0,.87-3.52,5.24-5.13,5.08-11.31-.82-24.22,1.17-35.31.08-2.59-.25-6.91-2.55-6.91-5.16v-37.6ZM282.59,280.3v-28.32l-1.39-1.39h-18.57l-1.39,1.39v28.32h21.35Z"/><path class="uuid-8a1f0967-ec5e-4aea-a625-e09d9dd14bcf" d="M456.52,191.78c-2.61-2.61-3.18-6.71-4.54-9.93-23.11,5.7-45.93,20.18-70.25,12.77-22.57-6.88-46.32-22.34-68.81-30.53-5.99-4.97-11.87-11.23-12.7-19.34l-87.42,30.94c-20.23,5.99-37.04-16.35-28.21-34.7,2.65-5.5,8.68-9.19,13.82-12.18,33.02-19.19,72.8-38.02,107.37-55.1,18.22-9,24.98-14.51,46.45-9.27,18.1,4.41,37.15,14.48,55.22,19.98,6.49,1.98,9.6,2.51,16.27-.03-3.01-7.1-4.52-14.94,2.45-20.28,3.69-2.82,24.39-8.58,30.04-9.88,8.75-2.01,14.76-2.47,19.29,6.7,9.08,35.26,22.93,70.85,31.3,106.11,1.89,7.95,1.8,15.16-6.95,19.03-4.17,1.84-29.33,9.3-33.19,9.52-2.92.17-8.08-1.75-10.13-3.81ZM465.49,181.89c1.04.95,25.86-6.77,27.22-7.59.95-.57,1.64-.84,1.6-2.16l-30.69-106.31-28.84,8.94,30.72,107.11ZM427.33,97.49l-15.15,2.66c-20.46-4.65-61.77-28.85-81.36-23.68l-129.32,65.64c-12.11,6.77-4.33,24.59,8.5,20.56l87.19-30.71c3.03-1.31,2.37-5.11,3.51-7.63,7.11-15.61,20.13-19.55,36.22-14.91,10.54,3.04,29.22,10.04,39.13,14.72,9.26,4.37,9.86,11.58-.65,13.71-14.07-3.85-28.09-11.77-41.96-15.67-26.19-7.36-28.13,24.61-8.78,32.92,19.8,6.49,40.96,20.95,60.46,26.81,21.12,6.35,42.36-8.75,62.72-12.12l-20.52-72.33Z"/></svg>