<?xml version="1.0" encoding="UTF-8"?><svg id="uuid-53050312-3642-494b-83bb-d51897f2acc7" xmlns="http://www.w3.org/2000/svg" viewBox="0 0 580 580"><defs><style>.uuid-e06fee5f-bf12-443f-96b4-af4956f7b2ab{fill:#fff;}</style></defs><path class="uuid-e06fee5f-bf12-443f-96b4-af4956f7b2ab" d="M384.05,515.02c-10.34-10.64,4.42-11.43,12.76-10.54,6.69.71,6.4,7.52,1.3,10.54h-14.06Z"/><path class="uuid-e06fee5f-bf12-443f-96b4-af4956f7b2ab" d="M158.04,65.38c62.46-6.05,107.97,56.84,81.78,114.29-4.43,9.72-9.5,13.84-15.18,21.73-16.21,22.5-31.31,45.82-47.95,68.03,0,.93,5.9,1.61,6.15,6.23.14,2.63-3.33,5.45-5.77,5.6-.92.06-11.46-.85-12.08-1.03-1.14-.33-2.01-1.61-2.83-2.44-17.89-24.95-34.9-50.56-52.79-75.51-2.21-3.08-5.77-6.15-8.13-9.45-35.71-50.06-4.38-121.53,56.79-127.45ZM166.15,265.47c16.49-21.18,30.99-44.28,46.72-66.18,16.61-23.11,28.15-34.97,22.56-66.82-13.94-79.47-134.55-72.79-138.75,9.5-1.41,27.6,10.21,38.2,24.48,58.19,15.33,21.48,30.42,43.4,44.99,65.3Z"/><path class="uuid-e06fee5f-bf12-443f-96b4-af4956f7b2ab" d="M402.33,300c57.58-5.88,103.04,43.41,88.87,100.29-4.18,16.79-11.25,22.87-20.51,35.73-16.89,23.46-33.88,52.88-52,74.54-2.41,2.89-4.12,4.81-8.26,3.14-17.75-23.66-33.92-48.65-51.14-72.76-9.11-12.76-17.52-20.21-22.71-36.16-15.03-46.14,16.67-99.77,65.75-104.78ZM412.19,499.2c1.34.94,4.24-3.87,5.09-4.99,15.76-20.82,30.27-43.83,45.49-65.23,14.56-20.47,23.64-32.57,19.46-60.03-12.36-81.15-132.82-75.44-138.63,5-2.08,28.74,8.74,38.95,23.6,59.95,15.24,21.55,30.49,43.36,44.99,65.3Z"/><path class="uuid-e06fee5f-bf12-443f-96b4-af4956f7b2ab" d="M265.2,397.43c16.2-3.32-1.69,30.4-7.91,17.21-1.83-3.87,4.06-16.42,7.91-17.21Z"/><path class="uuid-e06fee5f-bf12-443f-96b4-af4956f7b2ab" d="M277.5,317.45c5.65-1.08,9.54,8.55,10.42,13.01,1.24,6.27-5.46,10.28-9.37,5.79-.42-.48-4.92-11-5.06-11.69-.6-3.07.67-6.48,4-7.11Z"/><path class="uuid-e06fee5f-bf12-443f-96b4-af4956f7b2ab" d="M207.19,275.28c2.88-.82,16.29,2.61,16.95,6.49,1.87,11.17-18.55,5.3-20.44,1.05-1.33-3,.53-6.69,3.49-7.54Z"/><path class="uuid-e06fee5f-bf12-443f-96b4-af4956f7b2ab" d="M261.66,296.47c3.01,3.62-.38,9.41-4.42,9.2-1.04-.05-11.66-5.95-12.49-6.77-4.05-4-.61-10.04,4.37-9.7,1.09.08,11.83,6.42,12.54,7.27Z"/><path class="uuid-e06fee5f-bf12-443f-96b4-af4956f7b2ab" d="M301.23,495.84c4.74-.95,21.82,3.35,15.59,11.26-2.93,3.71-18.11-.05-19.39-4.36-.91-3.07.56-6.26,3.8-6.9Z"/><path class="uuid-e06fee5f-bf12-443f-96b4-af4956f7b2ab" d="M280.99,358.79c14.61-4.34,3.34,29.69-5.1,18.79-2.17-3.57,1.46-17.71,5.1-18.79Z"/><path class="uuid-e06fee5f-bf12-443f-96b4-af4956f7b2ab" d="M277.45,483.67c1.14,1.33,2.35,4.19,1.69,5.89-3.37,10.53-19.53-4.47-18.84-9.04.4-2.61,3.47-4.92,6.13-4.59,1.11.14,10.12,6.7,11.02,7.74Z"/><path class="uuid-e06fee5f-bf12-443f-96b4-af4956f7b2ab" d="M252.89,436.96c2.92-.44,6.2,2.83,6.36,5.61-1.94,7.21,3.07,18.29-9.26,14.52-3.67-2.61-3.46-19.16,2.9-20.13Z"/><path class="uuid-e06fee5f-bf12-443f-96b4-af4956f7b2ab" d="M340.32,512.19c-1.85-1.8-1.69-8.2,1.48-9.08,3.56-.99,16.26-.35,17.46,3.75,3.2,10.85-16.36,7.84-18.94,5.33Z"/><path class="uuid-e06fee5f-bf12-443f-96b4-af4956f7b2ab" d="M159.79,98.76c69-8.32,71.26,95.02,6.88,94.57-58.79-.41-63.28-87.77-6.88-94.57ZM161.55,109.3c-40.89,4.87-41.36,66.18-1.61,72.29,56.39,8.67,57.25-78.92,1.61-72.29Z"/><path class="uuid-e06fee5f-bf12-443f-96b4-af4956f7b2ab" d="M407.58,332.49c63.61-7.17,71.4,88.27,11.95,94.55-64.61,6.82-72.59-87.71-11.95-94.55ZM387,405.75c34.07,34.75,87.08-18.1,52.02-52.46-34.02-33.34-85.76,18.03-52.02,52.46Z"/></svg>