<?xml version="1.0" encoding="UTF-8"?><svg id="uuid-892c873a-0442-4dd1-a0d1-3bc13cf48b23" xmlns="http://www.w3.org/2000/svg" viewBox="0 0 580 580"><defs><style>.uuid-802e46cd-05e5-469c-ba96-6f26bce3a183{fill:#fff;}</style></defs><path class="uuid-802e46cd-05e5-469c-ba96-6f26bce3a183" d="M331.61,186.01c10.64.24,21.08-1.05,31.44,1.87,15.08,4.25,26.17,17.71,28.23,33.15l10.01,80.19c25.43,6.15,47.57,28.15,54.95,53.21,14.55,49.42-18.91,98.08-69.62,103.29l-229.82.04c-22.23-2.21-38.53-22.35-36.27-44.56,10.66-62.73,12.84-129.15,24.06-191.52,2.27-12.59,7.45-22.48,18.5-29.41,12.84-8.05,26.81-6.13,41.27-6.26-.83-22.41,12.29-43.95,31.42-55.04,42.72-24.75,96.27,6.1,95.82,55.04ZM315.9,186.01c-3.19-62.92-92.79-62.82-95.81,0h95.81ZM204.37,202.48h-24.33c-8.83,0-19.98,13.35-19.63,22.29l-24.01,192.91c.1,12.85,11.17,24.33,24.17,24.33h170.29c.47-1.77-.45-1.26-.96-1.71-34.85-30.81-41.54-80.33-9.5-116.16,9.82-10.98,34.11-25.84,49.01-25.84h15.35l-10.68-80.26c-1.44-6.29-11.88-15.55-18.13-15.55h-24.33v50.53c0,4.36-9.51,6.78-13.41,2.93-.47-.47-2.3-3.43-2.3-3.68v-49.78h-95.81v49.78c0,.26-1.83,3.22-2.3,3.68-3.9,3.84-13.41,1.42-13.41-2.93v-50.53ZM374.88,314.23c-49.56,3.76-76.06,61.05-46.57,101.51,26.58,36.47,83.39,33.67,106.24-5.16,26.2-44.52-8.14-100.26-59.67-96.35Z"/><path class="uuid-802e46cd-05e5-469c-ba96-6f26bce3a183" d="M387.76,370.15h19.09c2.48,0,5.1,5.95,4.91,8.6-.16,2.28-3.72,7.12-5.66,7.12h-18.34v18.34c0,1.94-4.85,5.5-7.12,5.66-2.65.18-8.6-2.43-8.6-4.91v-19.09h-18.34c-1.42,0-5-3.41-5.42-5.05-3.81-14.81,14.82-9.63,23.06-11,3.39-2.36-5.59-27.8,11.37-23.44,1.64.42,5.05,4.01,5.05,5.42v18.34Z"/></svg>