<?xml version="1.0" encoding="UTF-8"?><svg id="uuid-338a69d8-e858-4d39-94ca-c1980ca86a79" xmlns="http://www.w3.org/2000/svg" viewBox="0 0 580 580"><defs><style>.uuid-ff7f4241-4ae4-4f9a-9e9f-b8772f26cf95{fill:#fff;}</style></defs><path class="uuid-ff7f4241-4ae4-4f9a-9e9f-b8772f26cf95" d="M285.52,481.62c-11.49-3.17-18.54-11.54-19.49-23.55v-167.73c1.18-14.86,10.38-23.3,25.07-24.33,30.54-2.14,63.56,1.69,94.37.01,8.97,1,7.89,11.49-.77,12l-97.24.07c-5.36.95-9.28,5.31-9.45,10.76v171.46c.69,5.65,6.23,9.72,11.64,10.08,57.54-.57,115.4,1.2,172.74-.9,4.81-1.83,7.76-6.29,8.05-11.41-.59-57.35,1.03-114.93-.82-172.15-1.4-3.62-4.28-6.53-7.99-7.73-16.03-1.86-35.83,1.93-51.41-.24-7.96-1.11-7.61-10.96,0-11.84,15.8.98,33.7-1.6,49.24.02,11.27,1.17,19.27,8.68,22.17,19.37v177.4c-3.12,9.56-9.14,15.59-18.71,18.71h-177.4Z"/><path class="uuid-ff7f4241-4ae4-4f9a-9e9f-b8772f26cf95" d="M117.66,98.55l174.97-.17c12.5,1.63,20.4,11.22,21.37,23.54,3.15,39.94-2.43,83.94,0,124.31.18,9.32-11.39,10.04-12,.72l.02-127.27c-.71-5.88-6.65-10.04-12.34-10.11l-168.45.02c-5.57.67-9.82,4.22-11.27,9.69l-.36,170.36c.07,5.66,4.22,11.63,10.11,12.34l127.95.05c8.98,1.27,7.24,12.37-1.4,11.94l-125.02-.04c-12.13-1.19-21.8-9.57-22.87-22.04l.02-172.94c1.68-10.34,9.09-18.07,19.27-20.4Z"/><path class="uuid-ff7f4241-4ae4-4f9a-9e9f-b8772f26cf95" d="M211.42,158.25h49.78c1.79,0,4.67,3.93,4.48,6.08-.79,8.95-14.15,3.16-19.47,5.87-6.11,22.3-18.13,42.32-32.36,60.29.1,1.26,16.22,14.58,18.6,16.39,2.67,2.04,13.1,7.89,14.21,9.74,2.44,4.08.08,9.19-4.93,9.05-6.76-.19-29.67-20.94-35.27-26.53-10.24,7.77-21.2,19.89-32.93,25.3-7.32,3.38-12.03-3.94-7.51-8.63,11.57-7.19,22.76-15.22,31.88-25.44-7.4-10.56-15.6-20.79-21.3-32.44-1.34-2.75-4.52-8.73-3.97-11.44.71-3.52,4.67-5.12,7.91-3.73s10.01,16.83,12.61,21.08c1.52,2.48,11.55,17.73,13.38,17.28,12.41-15.31,21.95-32.89,28.1-51.65h-84.96c-1.35,0-3.55-4.46-3.36-6.29.17-1.66,2.65-4.94,4.11-4.94h49.78c-2.75-16.12,14.15-16.11,11.23,0Z"/><path class="uuid-ff7f4241-4ae4-4f9a-9e9f-b8772f26cf95" d="M402.94,407.62h-57.06c-2.35.8-7.26,21-10.18,24.25-2.13,2.37-4.91,2.36-7.47.69-4.08-2.66-1.95-6.76-.79-10.45,9.46-30.05,24.13-65.35,36.13-94.87,3.65-8.99,7.48-19.3,17.92-8.57l40.89,108.13c.57,6.13-5.64,9.45-10.01,4.71-2.93-3.18-8.25-23.13-9.42-23.89ZM397.8,395.54l-23.58-63.63-24.33,63.63h47.91Z"/><path class="uuid-ff7f4241-4ae4-4f9a-9e9f-b8772f26cf95" d="M230.13,404.52c-2.51-4.25-11.01-6.71-11.85-11.8-.68-4.13,3.61-7.4,7.58-6.01l27.15,20.75c.49,1.72.66,3.59-.06,5.28-.61,1.42-21.65,17.43-24.38,19.03-4.02,2.35-8.91,3.26-10.11-2.52-1.37-6.58,8.58-8.83,11.68-13.5h-23.58c-5.71,0-17.2-5.33-22.01-8.68-26.49-18.38-19.62-48.13-20.12-76.13,1.16-5.19,8.46-6.09,10.74-1.32,2.49,23.98-6.91,51.52,15.81,68.03,4.08,2.96,13.66,6.87,18.58,6.87h20.58Z"/><path class="uuid-ff7f4241-4ae4-4f9a-9e9f-b8772f26cf95" d="M349.9,164.24h23.58c7.06,0,20,6.67,25.43,11.25,22.84,19.26,16.02,47.05,16.71,73.55-1.16,5.19-8.46,6.09-10.74,1.32-2.53-23.69,6.73-49.93-14.54-67.05-4.41-3.55-14.24-7.85-19.84-7.85h-20.58c2.51,4.25,11.01,6.71,11.85,11.8.68,4.13-3.61,7.4-7.58,6.01l-27.15-20.75c-.49-1.72-.66-3.59.06-5.28.61-1.42,21.65-17.43,24.38-19.03,4.02-2.35,8.91-3.26,10.11,2.52,1.37,6.58-8.58,8.83-11.68,13.5Z"/></svg>