<?xml version="1.0" encoding="UTF-8"?>
<svg id="Layer_2" data-name="Layer 2" xmlns="http://www.w3.org/2000/svg" viewBox="0 0 1164.07 711.9">
  <defs>
    <style>
      .cls-1 {
        fill: #fff;
      }

      .cls-2 {
        fill: #f3f3f3;
      }

      .cls-3 {
        fill: #e2e2e2;
      }

      .cls-4 {
        opacity: .25;
      }

      .cls-5 {
        fill: #17283f;
      }

      .cls-6 {
        fill: #3ac6f4;
      }

      .cls-7 {
        font-family: Montserrat-Regular, Montserrat;
        font-size: 50.28px;
      }

      .cls-7, .cls-8 {
        fill: #334ba0;
      }
    </style>
  </defs>
  <g id="Layer_1-2" data-name="Layer 1">
    <g>
      <path class="cls-8" d="M897.25,703.75l-4.03-7.17.1-1.95.1-2.19-1.24-5.41.46-2.01.4-.79,3.94-2.16.16-.21,4.3-2.24,4.32-9.07.5-.82,1.41.36,2.14-3.69,1.03-1.51.5-9.32-.96-1.97-.08-5.54,1.05-2.09-.53-2.06,4.76-31.58-31.75-84.57-40.69-16.2,3.84-9.19-7.33-5.79-4.1-.37-3.34,1.56-3.14-.51-2.04,3.26-.44-.88-.84-.42-.27-1.55-3.07-1.56-.28-.62-.52-.71.41-1.24-1.31-.9-.12-.49.83-.93-1.15-1.45-1.96-3.2,1.35-6.23-7-1.67-2.05,3.12-3.46-.37-3.22,3.44h-.9s-7.46-6.46-7.46-6.46l-5.46-12.37-127.31-54.77-10.82,4.35-19.97,15.06-4.82-1.48-2.85.93-1.15-.35-2.41.39-1.55-.59-3.62.75-1.38,1.12-1.07-.63-.96-.27-.17-.92-1.75-2.14-4.9-1.29-5.81.98-1.79.51-3.05-.26-1.71.38-.35-1.61-6.71,2.17-.07-.13.35-1.94-2.2-1.21-.46-4.55-6.88,2.44-1.75,1.51-3.05,1.59-3.96,4.04-4.15,1.64-2.41-.39-1.27.4-.03-1.48-4.52-.49-1.15-3.8-8.47-1.87-3.46-6.78-3.5,1.19-6.64.62-1.32,3.2.28.62-1.64-3.11.7-2.63-3.44-2.96-2.84.06-.1-4.69-5.01.32-7.39-3.98-8.38-.39-10.44,3.14v1.92l-4.22,1.17-2.85.13.16-.73-1.95-4.74-13.49-.93-.73-2.1-6.87-.83-.88.76-2.99-.84-2.55-2.09-.2-1.19.77-2.48-2.46-11.7-1.01-2.07-1.28-6.79.07-2.68-6.06-3.38-3.28.85-1.37-.7.39-167.17,42.7-43.44L604.2,2.73l.89-.1,1.72,2.23,3.08,1.37.31.42.29,1.4,2.38,1.7,2.36.94h.61l1.62,1.66,3.31,2.32,4.51,1.79,2.72.54,2.48.8.42.67.35,1.41,1.91,2.14,2.45,1.94.96,2.5,1.45,1.58.5,1.38.74,1.32,2.43,3.64.25.14-.21.27-.37,1.31.31.86-1.32.52.57,4.59,3.36-1.52,1.01-.43,1.13-1.32.03-.09.27-.04.92-.18,1.08.56,2.24.95,3.72,1.18,8.61.31,5.02,2.03,9.56,3.04,3.08,2.05,10.73,1.38,3.44,2.28,2.33.22,2.9,2,4.03,3.86,4.34,2.64,3.43-.13,2.09,1.23.04.11-1.97,1.97,4.4,2.1,2.27-1.44.46-.07,7.04.58,5.99-.88,2.43-.37,1.36-1.45,2.09-.52.51-.36.81.26,2.02-1.01,1.89.45.83.83,1.43-1.01,3.15-2.39.77-.17,6.07,2.54,2.11-1.86,1.49-.08,2.55,1.26,8.95-.75,4.24-2.29.52.06,1.06,1.81,2.91,1.94,5.23-1.64.03-.83,2.7.99,1.73-.43,3.13,1.93,1.79.47,1.03,3.54.39,2.99,2.04.92.37.76.32,1.53-1.09,6.95.45,7.49-.92,12.7,3.2,6.31,5.41,5.05,4.64,8-.79,12.01,4.58,9.76,1.41,3.57-2.42,3.57-.41,6.57,1.25,5.14-1.14,2.94h2.4l.83,1.13,3.35.69,6.01,4.3,2.5,4.19,3.69,2.01,6.83,6.17,1.92,1.18-.12.41.63,3.23.47.38-1.67.69-.33,1.3-2.61,1.23,1.31,2.89,2.38,1.31,2.89.09.72-.83.73-.12.9-.22.96.4,2.58,3.92,6.69,1.57,3.73.63.64-.68,1.88.75,1.32,1.39,1.72,2.5,5.93,2.37,3.07,1.95,2.53,2.57.28,1.88,4.45,6.67,2,1.92,1,3.21-1.11,1.77.04.5-1.03.68-3.7,4.09,6.49,1.62,1.6-2.18,1.8-1.4,1.13-1.64,3.32,1.02,3.35-.05.38-.13.94.35,1.94.57.54-.05,2.32,1.77,2.35,1.17,2.52.04.13.14,2.23,1.41,4.67-.94-3.44-4.91.57-2.46,3.01,3.14,42.62,171.69-1.11,6.96,7.52,7.89,1.66,7.62,4.56,4.13,2.46,3.58,5.03,4.25,1,.04,3.75,5.16,3.28,2.29,2.4,4.13,5.78,3.95,4.56,1.61.6,2,3,1.3,10.46-1.29,3.58,1.38,2.32-2.15,2.95-.78,3.73.65,1.69-.78,4.99.61,7.14-.18.1-.56,1.9.4,10.92,3.82.69,2.74,4.73,3.92,9.5,2.13,4.18-3.24-1.55-3.35.9-.06.86.49.18,2.88,2.36,3.91,1.61-.24-.57,1.18,6.87,6.87,5.53-.58,4.82,1.83,6.29-3.25-.41-1.86,2.12-.87,3.82.67,6.19,3.96,3.26-1.25,4.11-6.09,9.58-7.12,2.33-2.77,3.76-.86,3.8-2.42,1.43-2.75,6.79-1.19,1.97-1.29,3.59.71,2.14-.35,2.13.03,1.09,12.75,5.8,3.13-2,2.62-.69,3.3-.68.95-.57.45-1.1.45-2.18,2.24-.21.48-1.6.81-3.26-.15-3.11,2.77-5.6,5.87-3.51,3.99-2.45,2.39.23,1.17-4.77,7.6-5.01,9.79-1.06,1.92-.86,3.05.08,1.81-2.59,4.34-1.23.08-1.96,2.08-4.19,4.25.93,2.46-.19.47-3.56,1.91-3.45,7-5.64,25.13-65.72,18.11-18.21,15.44,8.72,9.87.04.02,1.4,3.96-.88,1.7.87.8-.45,2.84,2.99.13-.1.8,1.09,2.72,4.35,1.26.29.65-.05.64-.06,1.92-35.44,31.07-40.74,18.99-37.1,35.25-9.4,1.9-15.19-6.08ZM910.64,217.66l.47-.34.51-.88,2.14,8.62-3.12-7.41Z"/>
      <path class="cls-3" d="M604.69,5.38l.23.3.62.8.92.41,1.93.86.31,1.47,1.27.91,1.55,1.11.39.28.45.18,1.77.71.71.29h.15l.91.93.26.27.3.21,2.97,2.08.38.27.43.17,4.12,1.64.34.13.36.07,2.43.49,1.59.52.11.44.24.96.66.74,1.46,1.64.23.26.27.22,1.89,1.49.63,1.63.27.71.51.56.92,1.01.3.84.11.31.16.29.62,1.11.08.13.09.13,1.98,2.97v.04s-.24.8-.24.8l-1.21.48.38,3.06.04.36.67,5.39,4.95-2.24.85-.38.58-.25.86-.37.61-.71.36-.42.27.14.13.07.13.06,2.08.89.18.08.18.06,3.37,1.06.52.16.54.02,7.99.28,4.62,1.87.14.06.14.05,9.22,2.93,2.46,1.64.78.52.93.12,9.8,1.26,2.64,1.75.83.55,1,.09,1.31.12,2.34,1.62,3.76,3.6.31.3.37.23,3.64,2.22,1.03.63,1.21-.05,1.32-.05-1.84,1.84,5.12,2.44.84.4,1.99.95,1.86-1.18.93-.59,6.45.53.45.04.45-.07,5.79-.85,1.73-.26,1.37-.21.95-1.01.48-.51,1.16-.29.71-.18h0s.65.2.65.2l1.45-.73.65-.32.64.15,1.72,1.71,2.77-2.11,2.65-2.01,4.2,1.76,2.31.97,1.88-1.66.65-.57.27-.02,1.59.78.99.49,1.1-.09,7.98-.67.83-.07.74-.4,2.54-1.37h0s.47.8.47.8l.76.51,1.73,1.15,1.59,1.06,1.82-.57,2.97-.93,1.94-.61.28.1,1.16.43,1.2-.3.31-.08,2.15,1.33.51.32.58.15.4.1.67,2.3.23,1.73.29,2.22,2.04.91.32.15.17.83-1,6.37-.07.43.03.43.43,7.14-.87,12.02-.08,1.11.5.99,2.79,5.5.32.63.52.48,4.93,4.61,4.19,7.21-.72,10.89-.07,1.03.44.93,4.34,9.24,1,2.53-1.52,2.24-.61.91-.07,1.09-.35,5.72-.04.61.14.59,1.03,4.23-1.97,5.07h4.31l.69.94,1.51.31,2.18.45,5.33,3.81,2.01,3.36.56.94.96.52,3,1.64,6.52,5.89.28.25.32.19.79.48.03.15.33,1.68-.73.3-.34,1.37-3.53,1.67,1.63,3.59.22.49.55,1.21,1.17.64,1.37.75.84.46.96.03,1.46.04,1.9.06.87-1h.09s.15-.05.15-.05l.06-.02,1.73,2.63.88,1.33,1.55.36,5.85,1.37.12.03.12.02,2.62.44,2.1.36.44-.47.22.09.91.96,1.28,1.87.69,1,1.12.45,5.19,2.08,2.72,1.73,1.91,1.94.12.79.13.88.5.74,4.08,6.12.24.36.32.3,1.47,1.41.57,1.84-.26.42-.69,1.1-.27.18-.34.38-1.29,1.42-4.48,4.95,6.48,1.61,1.95.49,2.6.65,1.59-2.16.64-.88,1.33-1.03.49-.38.35-.51.12-.18,1.62.5.6.18h.63s2.7-.05,2.7-.05h.65s0-.01,0-.01l.19.07.13.05.13.04,1.51.45.75.22h.14s1.55,1.16,1.55,1.16l.3.23.34.17,1.77.89.82.41h.91s1.41.03,1.41.03l1.3.82,1.36.86,1.57-.32.89-.18,2.26-.45,41.06,165.44-.89,5.58-.31,1.96,1.37,1.43,6.45,6.77,1.4,6.44.27,1.25.95.86,3.91,3.54,2.17,3.16.3.44.41.35,4.3,3.64,1.06.9.72.02,2.98,4.09.4.54.55.38,2.64,1.84,1.95,3.36.45.78.75.51,5.19,3.55.43.3.49.17,3.35,1.18.04.13.53,1.79,1.71.74,1.64.71,1,.43,1.08-.13,9.43-1.16,1.95.75,2.32.89,1.83-1.69,1.04-.96,2.05-.54,2.68.47,1.23.21,1.13-.52.61-.28,4.28.53.29.04h.29s5.36-.14,5.36-.14l3.25-.08.02-.11,9.55,3.34.27,1.06.32,1.27,1.01.83,3.86,3.19.74.61.94.21,8.11,1.82,1.84.41,1.49-1.15,1.93-1.5.62,1.02,1.37,2.28.41-.06,1.25,1.25,5.19,5.19,1.35,1.35,1.9-.2,4.11-.43,3.54,1.35,1.67.63,1.59-.82,4.12-2.13,2.74-1.41-.38-1.72h.02s2.86.49,2.86.49l5,3.2,1.7,1.09,1.89-.73,1.73-.66,1.18-.45.71-1.05,3.56-5.28,9.12-6.77.37-.28.3-.36,1.75-2.08,2.77-.63.68-.15.58-.37,3.06-1.95.9-.58.49-.95.73-1.4,5.41-.95.81-.14.69-.45.94-.61.38.07-.03.1h.59s1.5.3,1.5.3l.71.14.71-.12,1.6-.26h.15s.84,9.87.84,9.87l.18,2.16,1.9,1.03,2.79,1.5-.3.4-.55.72-.19.89-.51,2.44-.27.37-.13.1-.46.19-.77.32-.58.6-1.64,1.69-.5.51-.07.15-.5.25-1.92-.09-1.62-.07-1.21,1.08-2.44,2.17-.12.11-.11.12-5.54,5.81-.06.06-.05.06-3.4,3.87-1.62,1.58-1.56,1.52.29,1.46-4.3,6.85-.09.15-.08.16-4.94,9.66-.95,1.72-.22.4-.12.44-.71,2.53-.17.61.03.64.04.89-1.75,2.93-.97.07-1.07,1.14-1.39,1.47-3.29,3.34-1.8,1.83.88,2.32-1.76.94-1.13.61-.57,1.15-3.06,6.21-.21.43-.1.46-5.33,23.73-64.14,17.67-.85.23-.67.57-16.31,13.83-3.11,2.64,2.7,3.06,7.05,7.98.12.14.96,2.72-1.19,2.28,1.21,1.11-.63,3.99,3.51.16.04.1.53,1.33.73,1.82,1.88.54,2.2.64-.02.71-34.57,30.31-40.18,18.73-.59.28-.47.45-36.45,34.63-8.25,1.67-13.98-5.59-3.4-6.05.07-1.39.09-1.91.03-.55-.12-.54-1.08-4.69.3-1.32v-.02s3.06-1.67,3.06-1.67l.7-.39.15-.19,3.33-1.74,1.19-.62.58-1.21,3.73-7.82,1.38.35,1.52-2.62,1.35-2.32.67-.99.63-.92.06-1.11.44-8.24.06-1.04-.46-.93-.54-1.1-.06-4.6.5-.99.67-1.33-.37-1.45-.24-.94,4.62-30.68.16-1.03-.37-.97-31.25-83.26-.62-1.66-1.64-.65-37.98-15.12,2.47-5.91,1.17-2.8-2.38-1.88-5.67-4.48-.93-.74-1.19-.11-2.97-.27-1.07-.1-.98.46-2.3,1.07-1.22-.2-2.62-.43-.8,1.28h0s-1.79-.92-1.79-.92l-1.55-.78-.08-.18-.03-.04.56-1.68-1.02-.7.67-.74-2.11-2.65-.02-.03-1.47-2.41.77-3.53.83-3.83-3.82-.91-3.72-.89-2.73-.65-1.54,2.34-.61.93-1.25-.13-1.98-.21-1.36,1.46-1.63,1.74-6.16-5.34-4.96-11.24-.63-1.44-1.44-.62-125.82-54.13-1.53-.66-1.54.62-9.8,3.94-.49.2-.42.32-18.94,14.29-3.23-1-1.21-.37-1.21.4-1.65.54-.1-.03-.89-.27-.92.15-1.42.23-.5-.19-1.09-.42-1.15.24-2.57.53-.95.2-.68.55-.1-.06h-.01s-.04-.21-.04-.21l-.65-.79-1.02-1.24-.82-1-1.25-.33-3.86-1.02-.83-.22-.85.14-5.28.89-.21.04-.21.06-1.34.38-2.38-.2-.61-.05h-.05s-.39-1.79-.39-1.79l-4.2,1.36-1.55.5.04-.24-2.52-1.38h-.02s-.1-.97-.1-.97l-.51-5.07-4.8,1.7-4.12,1.46-.71.25-.57.49-1.29,1.11-2.56,1.34-.56.29-.44.45-3.44,3.51-3.24,1.28-1.4-.23-.1-.02-.02-.96-3.5-.38-1.45-.16-.43-1.42-.68-2.24-2.29-.5-6.4-1.41-2.24-4.39-1.58-3.08-3.28,1.12-1.64.56-5.2.49-.91.08.16-.6-1.9-1.64-1.91-1.64-1.16-1-1.53.03h-.07s-.01-.61-.01-.61l-.09-4.17-4.16.26-2.36.15-6.49-3.49-.8-.43-.91-.04-7.58-.35-.68-.03-.66.2-8.69,2.62-2.85.86v1.88l-2.53.71-.77.04-1.23-2.99-.95-2.3-2.48-.17-10.93-.75-.71-2.03-2.48-.3-4.74-.58-1.77-.21-.73.64-1.55-.43-1.64-1.35.47-1.52.31-.99-.21-1.01-2.31-10.95-.1-.49-.22-.45-.78-1.6-1.19-6.32.03-1.26.06-2.42-2.12-1.18-4.3-2.4-1.4-.78-1.55.4-1.37.36.39-164.82,42.04-42.77.18-.18.15-.2L604.69,5.38M605.65,0l-.58.62-1.95.22-119.97,157.6-43.18,43.93-.4,169.22,3.15,1.59,3.24-.84,4.3,2.4-.04,1.69,1.37,7.27,1.02,2.08,2.31,10.95-.75,2.44.4,2.39,3.46,2.84,4.43,1.24,1.02-.89,4.74.58.75,2.17,13.57.93,1.24,3.01-.58,2.66,5.67-.27,5.9-1.64v-1.95l8.69-2.62,7.58.35,7.49,4.03,3.5-.22.04,2.08-2.35.18v2.4l6.47-.13,1.91,1.64-.58,2.17,3.81,7.23,3.37-1.64-1.51-3.37.53-1.29,5.67-.53,2.08-.71,3.1,6.07,8.25,1.82,1.2,3.94,4.08.44.04,2.39,3.37-1.06,2.48.4,5.05-2,4.03-4.12,2.97-1.55,1.64-1.42,4.12-1.46.31,3.06,1.86,1.02-.22,1.24,1.24,2.17,6.16-1.99.31,1.42,3.37-.75,3.1.27,2.04-.58,5.28-.89,3.86,1.02,1.02,1.24.31,1.64,1.91.53,2.04,1.2,2.08-1.69,2.57-.53,1.51.58,2.48-.4,1.6.49.13-.22,2.44-.8,5.19,1.6,20.57-15.52,9.8-3.94,125.82,54.13,5.32,12.06,8.38,7.27,2.84-.05.18-.53,2.62-2.79,3.68.4,1.95-2.97,3.72.89-1.11,5.1,2.44,3.99.18.22-.4.44.53,2.26.71.49-.27.8,1.02,1.37.49,1.06,2.79,1.42.27,1.55,1.15.58,1.06,2.13,1.82-.49,2.08-3.32,2.44.4,3.41-1.59,2.97.27,5.67,4.48-4.03,9.66,41.76,16.62,31.25,83.26-4.66,30.9-.13.4.49,1.91-.93,1.86.09,6.47.93,1.91-.44,8.24-.75,1.11-1.42,2.44-1.37-.35-1.33,2.17-4.08,8.56-4.08,2.13-.18.22-4.12,2.26-.8,1.55-.62,2.7,1.29,5.58-.09,1.91-.13,2.53,4.66,8.29,16.4,6.56,10.55-2.13,37.28-35.42,40.7-18.97,36.31-31.83.09-2.79.09-1.02-.04-.13-.84-1.86-4.3-1.24-.53-1.33.31-2.44-2.93-.13.27-1.69-.53-.49.58-1.11-1.99-5.63-.44-.18-7.05-7.98,16.31-13.83,66.46-18.31,5.85-26.07,3.06-6.21,3.64-1.95.75-1.86-.75-1.99,3.33-3.37,1.42-1.51,1.29-.09.49-.49,3.15-5.28-.09-2.08.71-2.53.98-1.77,4.97-9.71,5.14-8.2-.18-.89,1.73-1.68,3.5-3.99,5.54-5.81,2.44-2.17,2.97.13,2.7-1.37.35-.8,1.64-1.69.98-.4,1.02-.8.89-1.24.13.04.75-3.59,3.15-4.12-6.92-3.73-1.15-13.48-3.41-.04.04-.13-2.7.44-4.03-.8-2.31,1.51-7.36,1.29-1.64,3.15-3.06,1.95-4.08.93-2.62,3.1-9.66,7.18-3.95,5.85-1.73.66-5.67-3.64-4.79-.84-4.21,1.73.44,2-4.12,2.13-4.43-1.68-5.05.53-5.19-5.19.71-1.46-1.02-1.55-2.13.31-1.42-2.35-.22-3.46-2.31-1.33-2.88.18-1.15.93,1.73,3.72-2.17,1.69-8.11-1.82-3.86-3.19-.8-3.15-12.06-4.21-4.03-.84-.18.98-5.36.13-5.41-.66-1.64.75-3.55-.62-3.86,1.02-1.77,1.64-2.88-1.11-10.42,1.29-1.64-.71-.62-2.08-5.28-1.86-5.19-3.55-2.39-4.12-3.37-2.35-4.12-5.67-1.29-.04-4.3-3.64-2.44-3.55-4.26-3.86-1.64-7.54-7.23-7.58,1.02-6.38-46.33-186.64-.62.4h-1.02l-.18,1.37-1.2,2.04-1.42,1.02.71,1.68-1.02-1.06-.53.71.35,2.44,1.82,2.04-1.06,4.61.75.44,1.55,2.22-.89.18-1.33-.84-.53-.58-2.93-.04-1.77-.89-2.79-2.13-.93.09-1.51-.45-1.55-.58-.75.27-2.7.04-3.77-1.15-.98.27-1.46,2.13-1.77,1.38-.98,1.33-1.95-.49,1.29-1.42,1.82-1.2-.09-1.02.75-1.2.4-.44.67-.31-.84-.89-1.15-3.72-2.22-2.13-4.08-6.12-.31-2.08-3.15-3.19-3.41-2.17-5.54-2.22-1.46-2.13-1.73-1.82-3.55-1.42-.84.89-2.62-.44-5.85-1.37-2.48-3.77-2.13-.89-1.46.35-1.37.22-.58.67-1.46-.04-1.37-.75-.22-.49,1.68-.8.31-1.24,1.51-.62.89-.44.13-.31.4-.84-.49-.53-1.11-.89-.4-2.04.18-.62.04-.89-.35-.53-.93-.27-1.6-.97-6.87-6.21-3.41-1.86-2.44-4.08-6.69-4.79-3.01-.62-.98-1.33h-.49l.31-.8-1.33-5.45.35-5.72,2.7-3.99-1.82-4.61-4.39-9.35.8-12.1-5.1-8.78-5.36-5.01-2.79-5.5.89-12.28-.44-7.41,1.11-7.09-.44-2.13-.8-1.64-1.68-.75-.27-2.04-1.37-4.7.67-.93-.62-2.35-.89-.13-.62.75-.62.27,1.33,2.13-1.86-.49-3.59-2.22-1.95.49-3.5-1.29-1.24.58-.04,1.15-2.97.93-1.73-1.15-1.33-2.26-2.13-.27-4.43,2.4-7.98.67-2.53-1.24-2.39.13-1.55-.71-.67.27.04.58.93.71-.75.67-5.5-2.3-1.82.4-3.5,2.66-.04-.04-3.15-.75-1.95.98-.98-.31-1.02.71-2.31.58-1.29,1.38-1.73.26-5.76.84-7.05-.58-1.11.18-1.68,1.06-.84-.4.84-.84-.66-2-3.24-1.91-3.41.13-3.64-2.22-3.99-3.81-3.46-2.39-2.35-.22-3.41-2.26-10.73-1.38-2.93-1.95-9.75-3.1-5.28-2.13-8.69-.31-3.37-1.06-2.08-.89-1.64-.84-1.55.31-.93.13-.67.35-.18.66-.53.62-.62.26-.89.4-.04-.36.66-.26.8-.8.22-.53-.22-.35-.35-.31-.18-.49.09-.31.66-.84.31-.22.27-.27.22-.4-1.91-1.11-2.13-3.19-.62-1.11-.58-1.6-1.46-1.6-1.02-2.66-2.75-2.17-1.46-1.64-.31-1.24-.98-1.55-3.28-1.06-2.66-.53-4.12-1.64-2.97-2.08-2.08-2.13h-1.06l-1.77-.71-1.55-1.11-.22-1.06-.89-1.2-3.1-1.38-.75-.97.67-.53-.35-.93-.71-.04-.4-.58-.89-.18h0Z"/>
    </g>
    <g>
      <rect class="cls-2" x="0" y="563.18" width="756.84" height="115.18" rx="57.59" ry="57.59"/>
      <text class="cls-7" transform="translate(90.33 637.02)"><tspan x="0" y="0">St. Catharines, Canada</tspan></text>
    </g>
    <g>
      <g class="cls-4">
        <path class="cls-5" d="M995.73,621.7c0,4.61-13.24,8.36-29.61,8.36s-29.61-3.75-29.61-8.36,13.24-8.36,29.61-8.36,29.61,3.75,29.61,8.36Z"/>
      </g>
      <path class="cls-6" d="M966.12,620.3s-56.14-95.47,0-95.47,0,95.47,0,95.47Z"/>
      <circle class="cls-1" cx="966.17" cy="551.1" r="12.12"/>
    </g>
    <g>
      <path class="cls-6" d="M941.73,630.72c-.68,0-1.36-.06-2.04-.21-.65-.12-1.3-.33-1.93-.59-.62-.27-1.24-.56-1.81-.95s-1.1-.8-1.57-1.3c-.47-.47-.92-1.01-1.27-1.57-.38-.56-.71-1.15-.98-1.78-.24-.62-.44-1.27-.56-1.95-.15-.65-.21-1.33-.21-2.02,0-2.72,1.1-5.39,3.02-7.31,3.85-3.88,10.78-3.88,14.66,0,.47.47.92,1.01,1.3,1.57.36.56.68,1.15.95,1.78.24.62.44,1.27.59,1.95.12.65.21,1.33.21,2.01s-.09,1.36-.21,2.02c-.15.68-.35,1.33-.59,1.95-.27.62-.59,1.21-.95,1.78-.38.56-.83,1.1-1.3,1.57-.47.5-1.01.92-1.57,1.3s-1.16.68-1.81.95c-.62.27-1.27.47-1.93.59-.68.15-1.36.21-2.01.21Z"/>
      <path class="cls-6" d="M895.72,620.36c0-5.71,4.65-10.36,10.36-10.36h0c5.71,0,10.36,4.65,10.36,10.36h0c0,5.72-4.65,10.36-10.36,10.36h0c-5.72,0-10.36-4.65-10.36-10.36ZM862.82,620.36c0-5.71,4.62-10.36,10.36-10.36h0c5.71,0,10.36,4.65,10.36,10.36h0c0,5.72-4.65,10.36-10.36,10.36h0c-5.75,0-10.36-4.65-10.36-10.36Z"/>
      <path class="cls-6" d="M829.92,620.36c0-5.71,4.62-10.36,10.36-10.36h0c5.72,0,10.36,4.65,10.36,10.36h0c0,5.72-4.65,10.36-10.36,10.36h0c-5.74,0-10.36-4.65-10.36-10.36ZM794.28,620.36c0-5.71,4.65-10.36,10.36-10.36h0c5.72,0,10.36,4.65,10.36,10.36h0c0,5.72-4.65,10.36-10.36,10.36h0c-5.71,0-10.36-4.65-10.36-10.36ZM761.38,620.36c0-5.71,4.65-10.36,10.36-10.36h0c5.72,0,10.36,4.65,10.36,10.36h0c0,5.72-4.65,10.36-10.36,10.36h0c-5.72,0-10.36-4.65-10.36-10.36Z"/>
    </g>
  </g>
</svg>