<?xml version="1.0" encoding="UTF-8"?>
<svg id="Layer_2" data-name="Layer 2" xmlns="http://www.w3.org/2000/svg" viewBox="0 0 893.79 385.65">
  <defs>
    <style>
      .cls-1 {
        fill: #fff;
      }

      .cls-2 {
        fill: #f3f3f3;
      }

      .cls-3 {
        fill: #e2e2e2;
      }

      .cls-4 {
        opacity: .25;
      }

      .cls-5 {
        fill: #17283f;
      }

      .cls-6 {
        fill: #3ac6f4;
      }

      .cls-7 {
        fill: #334ba0;
      }
    </style>
  </defs>
  <g id="Layer_1-2" data-name="Layer 1">
    <g>
      <g>
        <rect class="cls-2" x="0" y="138.63" width="447.73" height="116.9" rx="58.45" ry="58.45"/>
        <g>
          <path class="cls-7" d="M61.96,213.89c-2.69,0-5.17-.45-7.45-1.35-2.28-.9-4.25-2.17-5.92-3.8s-2.97-3.55-3.9-5.77c-.94-2.21-1.4-4.63-1.4-7.24s.47-5.04,1.4-7.24c.94-2.21,2.25-4.14,3.93-5.77,1.68-1.63,3.66-2.9,5.94-3.8,2.28-.9,4.76-1.35,7.45-1.35s5.02.43,7.3,1.3c2.28.87,4.2,2.17,5.77,3.9l-2.4,2.4c-1.46-1.5-3.08-2.58-4.85-3.24-1.77-.66-3.67-.99-5.72-.99-2.14,0-4.13.37-5.97,1.1s-3.44,1.77-4.8,3.11c-1.36,1.35-2.42,2.91-3.19,4.7s-1.15,3.75-1.15,5.89.38,4.11,1.15,5.89c.77,1.79,1.83,3.35,3.19,4.7,1.36,1.34,2.96,2.38,4.8,3.11s3.83,1.1,5.97,1.1,3.95-.34,5.72-1.02,3.38-1.77,4.85-3.27l2.4,2.4c-1.57,1.74-3.49,3.05-5.77,3.93-2.28.89-4.73,1.33-7.35,1.33Z"/>
          <path class="cls-7" d="M83.13,213.59v-35.72h14.54c3.81,0,7.15.76,10.03,2.27,2.88,1.51,5.11,3.62,6.71,6.3,1.6,2.69,2.4,5.78,2.4,9.29s-.8,6.6-2.4,9.29c-1.6,2.69-3.84,4.79-6.71,6.3-2.88,1.51-6.22,2.27-10.03,2.27h-14.54ZM86.91,210.32h10.56c3.16,0,5.91-.62,8.24-1.86,2.33-1.24,4.14-2.96,5.43-5.15s1.94-4.72,1.94-7.58-.65-5.43-1.94-7.6c-1.29-2.18-3.1-3.88-5.43-5.13-2.33-1.24-5.08-1.86-8.24-1.86h-10.56v29.19Z"/>
          <path class="cls-7" d="M125.28,213.59v-35.72h3.11l16.33,27.86h-1.63l16.18-27.86h3.11v35.72h-3.62v-30.05h.87l-14.9,25.51h-1.79l-15-25.51h.97v30.05h-3.62Z"/>
          <path class="cls-7" d="M169.06,213.59l14.65-19.8v2.91l-13.78-18.83h4.34l11.58,15.72-1.68.05,11.58-15.77h4.08l-13.62,18.57v-2.65l14.59,19.8h-4.39l-12.35-16.79h1.58l-12.25,16.79h-4.34Z"/>
          <path class="cls-7" d="M204.53,221.04l2.25-9.44.41,2.2c-.78,0-1.44-.25-1.96-.77-.53-.51-.79-1.17-.79-1.99s.26-1.48.79-1.99c.53-.51,1.16-.77,1.91-.77s1.42.27,1.91.82c.49.55.74,1.19.74,1.94,0,.27-.02.55-.05.82-.03.27-.1.58-.2.92s-.24.75-.41,1.23l-2.14,7.04h-2.45Z"/>
          <path class="cls-7" d="M231.67,213.59v-35.72h3.11l16.33,27.86h-1.63l16.18-27.86h3.11v35.72h-3.62v-30.05h.87l-14.9,25.51h-1.79l-15-25.51h.97v30.05h-3.62Z"/>
          <path class="cls-7" d="M291.02,213.84c-2.79,0-5.24-.59-7.35-1.76s-3.76-2.79-4.95-4.85c-1.19-2.06-1.79-4.41-1.79-7.07s.57-5,1.71-7.04,2.7-3.65,4.7-4.82c1.99-1.17,4.23-1.76,6.71-1.76s4.75.57,6.71,1.71c1.96,1.14,3.5,2.74,4.62,4.8,1.12,2.06,1.68,4.43,1.68,7.12,0,.17,0,.35-.02.54s-.02.38-.02.59h-23.32v-2.7h21.38l-1.43,1.07c0-1.94-.42-3.67-1.25-5.18-.83-1.51-1.97-2.69-3.39-3.55-1.43-.85-3.08-1.27-4.95-1.27s-3.49.42-4.95,1.27c-1.46.85-2.6,2.04-3.42,3.57-.82,1.53-1.22,3.28-1.22,5.26v.56c0,2.04.45,3.83,1.35,5.38.9,1.55,2.16,2.76,3.78,3.62,1.62.87,3.46,1.3,5.54,1.3,1.63,0,3.16-.29,4.57-.87,1.41-.58,2.63-1.46,3.65-2.65l2.04,2.35c-1.19,1.43-2.68,2.52-4.47,3.27-1.79.75-3.75,1.12-5.89,1.12ZM286.68,182.61l6.99-6.33h4.85l-8.27,6.33h-3.57Z"/>
          <path class="cls-7" d="M306.37,213.59l11.33-14.69-.05,1.79-10.77-13.88h4.08l8.83,11.48-1.53-.05,8.83-11.43h3.98l-10.87,14.03.05-1.94,11.43,14.69h-4.13l-9.34-12.25,1.43.2-9.19,12.04h-4.08Z"/>
          <path class="cls-7" d="M339.54,180.88c-.75,0-1.38-.25-1.89-.77-.51-.51-.77-1.12-.77-1.84s.25-1.32.77-1.81c.51-.49,1.14-.74,1.89-.74s1.38.24,1.89.71c.51.48.76,1.07.76,1.78,0,.75-.25,1.38-.74,1.89-.49.51-1.13.77-1.91.77ZM337.71,213.59v-26.79h3.62v26.79h-3.62Z"/>
          <path class="cls-7" d="M362.56,213.84c-2.65,0-5.03-.59-7.12-1.76s-3.73-2.79-4.92-4.85c-1.19-2.06-1.79-4.41-1.79-7.07s.6-5.05,1.79-7.09c1.19-2.04,2.83-3.64,4.92-4.79,2.09-1.16,4.46-1.74,7.12-1.74,2.28,0,4.34.44,6.17,1.33,1.84.89,3.28,2.21,4.34,3.98l-2.7,1.84c-.92-1.36-2.06-2.36-3.42-3.01-1.36-.65-2.84-.97-4.44-.97-1.9,0-3.62.43-5.15,1.3-1.53.87-2.74,2.08-3.62,3.65-.89,1.56-1.33,3.4-1.33,5.51s.44,3.95,1.33,5.51c.88,1.56,2.09,2.78,3.62,3.65,1.53.87,3.25,1.3,5.15,1.3,1.6,0,3.08-.32,4.44-.97,1.36-.65,2.5-1.63,3.42-2.96l2.7,1.84c-1.05,1.74-2.5,3.05-4.34,3.96-1.84.9-3.9,1.35-6.17,1.35Z"/>
          <path class="cls-7" d="M391.08,213.84c-2.59,0-4.91-.59-6.97-1.76s-3.68-2.79-4.87-4.85c-1.19-2.06-1.79-4.41-1.79-7.07s.6-5.05,1.79-7.09c1.19-2.04,2.81-3.64,4.85-4.79,2.04-1.16,4.37-1.74,6.99-1.74s5.01.58,7.07,1.74c2.06,1.16,3.67,2.75,4.85,4.79,1.17,2.04,1.76,4.41,1.76,7.09s-.59,5.01-1.76,7.07c-1.17,2.06-2.8,3.67-4.87,4.85s-4.42,1.76-7.04,1.76ZM391.08,210.63c1.94,0,3.66-.43,5.15-1.3,1.5-.87,2.68-2.09,3.55-3.67.87-1.58,1.3-3.41,1.3-5.49s-.43-3.95-1.3-5.51-2.05-2.78-3.55-3.65c-1.5-.87-3.2-1.3-5.1-1.3s-3.61.43-5.1,1.3c-1.5.87-2.69,2.08-3.57,3.65-.89,1.56-1.33,3.4-1.33,5.51s.44,3.9,1.33,5.49c.88,1.58,2.07,2.81,3.57,3.67,1.5.87,3.18,1.3,5.05,1.3Z"/>
        </g>
      </g>
      <g id="path7369">
        <path class="cls-7" d="M819.33,375.15c-23.78,0-55.38-3.17-99.45-9.94-76.35-11.75-92.9-25.77-110.65-93.69-18.07-69.15-14.3-89,73.31-183.39,27.35-29.46,73.14-78.78,85.33-78.78.65.5,3.91,3.83,10.05,20.72,11.31,31.32,38.5,77.59,60.56,103.14,19.28,22.27,41.37,85.92,48.26,138.99,6.16,47.37,3.63,73.37-8.44,86.89-9.79,10.97-28.54,16.08-58.96,16.08Z"/>
        <path class="cls-3" d="M759.96,11.8c.72,1.82,1.53,3.96,2.43,6.47,12.68,35.53,41.96,86.03,66.66,114.98,16.34,19.14,39.8,81.6,47.35,140.61,5.64,44.03,3.92,70.5-5.25,80.91-7.02,7.98-24.1,12.04-50.75,12.04-24.27,0-56.86-3.32-102.56-10.45-74.49-11.61-87.16-22.42-104.32-88.92-17.85-69.16-14.59-85.46,73.8-181.95,18.51-20.21,53.65-58.58,72.63-73.69M762.04,0C746.67,0,721.65,24.55,669.42,81.57c-84.28,92.01-93.59,116.21-73.96,192.26,18.47,71.56,39.43,89.65,118.13,101.92,40.54,6.32,72.79,9.89,98.15,9.89,75.39,0,89.7-31.6,78.84-116.41-7.03-54.93-29.43-119.37-49.77-143.22-20.34-23.84-45.53-67.28-55.98-96.53C778.07,10.57,772.13,0,762.04,0h0Z"/>
      </g>
      <g>
        <g class="cls-4">
          <path class="cls-5" d="M775.95,202.36c0,5.55-15.95,10.07-35.67,10.07s-35.67-4.52-35.67-10.07,15.95-10.07,35.67-10.07,35.67,4.52,35.67,10.07Z"/>
        </g>
        <path class="cls-6" d="M740.28,200.67s-67.63-115,0-115,0,115,0,115Z"/>
        <circle class="cls-1" cx="740.34" cy="117.31" r="14.59"/>
      </g>
      <g>
        <path class="cls-6" d="M681.08,209.57c-.79,0-1.61-.07-2.43-.25-.78-.14-1.57-.39-2.35-.71-.75-.29-1.46-.68-2.14-1.14s-1.32-.96-1.89-1.53c-.57-.57-1.11-1.21-1.57-1.93-.43-.68-.82-1.39-1.14-2.14-.32-.75-.53-1.54-.71-2.32-.14-.82-.25-1.64-.25-2.46s.11-1.64.25-2.42c.18-.82.39-1.57.71-2.35.32-.75.71-1.46,1.14-2.14.46-.68,1-1.32,1.57-1.89.57-.57,1.21-1.1,1.89-1.57.68-.43,1.39-.82,2.14-1.14.78-.32,1.57-.54,2.35-.71,1.61-.32,3.28-.32,4.89,0,.79.18,1.57.39,2.32.71s1.5.71,2.18,1.14c.68.46,1.32,1,1.89,1.57s1.11,1.21,1.53,1.89c.46.68.86,1.39,1.18,2.14.29.79.54,1.54.68,2.35.18.78.25,1.61.25,2.42s-.07,1.64-.25,2.46c-.14.78-.39,1.57-.68,2.32-.32.75-.71,1.5-1.18,2.14-.43.71-.96,1.35-1.53,1.93-2.32,2.32-5.56,3.64-8.84,3.64Z"/>
        <path class="cls-6" d="M624.3,197.09c0-6.88,5.6-12.48,12.48-12.48h0c6.88,0,12.48,5.6,12.48,12.48h0c0,6.92-5.6,12.48-12.48,12.48h0c-6.88,0-12.48-5.56-12.48-12.48ZM583.43,197.09c0-6.88,5.56-12.48,12.45-12.48h0c6.92,0,12.52,5.6,12.52,12.48h0c0,6.92-5.6,12.48-12.52,12.48h0c-6.88,0-12.45-5.56-12.45-12.48Z"/>
      </g>
      <g>
        <path class="cls-6" d="M560.3,209.57c-.79,0-1.61-.07-2.43-.25-.78-.14-1.57-.39-2.35-.71-.75-.29-1.46-.68-2.14-1.14s-1.32-.96-1.89-1.53c-.57-.57-1.11-1.21-1.57-1.93-.43-.68-.82-1.39-1.14-2.14-.32-.75-.53-1.54-.71-2.32-.14-.82-.25-1.64-.25-2.46s.11-1.64.25-2.42c.18-.82.39-1.57.71-2.35.32-.75.71-1.46,1.14-2.14.46-.68,1-1.32,1.57-1.89.57-.57,1.21-1.1,1.89-1.57.68-.43,1.39-.82,2.14-1.14.78-.32,1.57-.54,2.35-.71,1.61-.32,3.28-.32,4.89,0,.79.18,1.57.39,2.32.71s1.5.71,2.18,1.14c.68.46,1.32,1,1.89,1.57s1.11,1.21,1.53,1.89c.46.68.86,1.39,1.18,2.14.29.79.54,1.54.68,2.35.18.78.25,1.61.25,2.42s-.07,1.64-.25,2.46c-.14.78-.39,1.57-.68,2.32-.32.75-.71,1.5-1.18,2.14-.43.71-.96,1.35-1.53,1.93-2.32,2.32-5.56,3.64-8.84,3.64Z"/>
        <path class="cls-6" d="M503.53,197.09c0-6.88,5.6-12.48,12.48-12.48h0c6.88,0,12.48,5.6,12.48,12.48h0c0,6.92-5.6,12.48-12.48,12.48h0c-6.88,0-12.48-5.56-12.48-12.48ZM462.65,197.09c0-6.88,5.56-12.48,12.45-12.48h0c6.92,0,12.52,5.6,12.52,12.48h0c0,6.92-5.6,12.48-12.52,12.48h0c-6.88,0-12.45-5.56-12.45-12.48Z"/>
      </g>
    </g>
  </g>
</svg>