<?xml version="1.0" encoding="UTF-8"?>
<svg id="Layer_2" data-name="Layer 2" xmlns="http://www.w3.org/2000/svg" viewBox="0 0 1176.72 705.86">
  <defs>
    <style>
      .cls-1 {
        fill: #fff;
      }

      .cls-2 {
        fill: #f3f3f3;
      }

      .cls-3 {
        fill: #e2e2e2;
      }

      .cls-4 {
        opacity: .25;
      }

      .cls-5 {
        fill: #17283f;
      }

      .cls-6 {
        fill: #3ac6f4;
      }

      .cls-7 {
        fill: #334ba0;
      }
    </style>
  </defs>
  <g id="Layer_1-2" data-name="Layer 1">
    <g>
      <g>
        <rect class="cls-2" x="417.16" y="404.37" width="759.55" height="115.59" rx="57.8" ry="57.8"/>
        <g>
          <path class="cls-7" d="M462.29,478.48v-35.32h3.08l24.37,30.68h-1.62v-30.68h3.68v35.32h-3.08l-24.32-30.68h1.62v30.68h-3.73Z"/>
          <path class="cls-7" d="M513.5,478.73c-2.25,0-4.22-.42-5.9-1.26-1.68-.84-2.99-2.1-3.91-3.78-.93-1.68-1.39-3.78-1.39-6.31v-15.39h3.58v14.98c0,2.83.7,4.95,2.09,6.38s3.36,2.15,5.88,2.15c1.85,0,3.46-.38,4.82-1.14,1.36-.76,2.4-1.86,3.13-3.3.72-1.45,1.09-3.18,1.09-5.2v-13.88h3.58v26.49h-3.43v-7.27l.56,1.31c-.84,1.95-2.14,3.47-3.91,4.57-1.77,1.09-3.83,1.64-6.18,1.64Z"/>
          <path class="cls-7" d="M547.71,478.73c-2.76,0-5.18-.58-7.27-1.74s-3.72-2.76-4.89-4.79c-1.18-2.03-1.77-4.36-1.77-6.99s.56-4.95,1.69-6.96c1.13-2.02,2.67-3.61,4.64-4.77,1.97-1.16,4.18-1.74,6.64-1.74s4.7.56,6.64,1.69c1.93,1.13,3.46,2.71,4.57,4.74,1.11,2.04,1.66,4.38,1.66,7.04,0,.17,0,.34-.02.53-.02.18-.02.38-.02.58h-23.06v-2.67h21.14l-1.41,1.06c0-1.92-.41-3.62-1.24-5.12-.82-1.49-1.94-2.67-3.35-3.51s-3.05-1.26-4.89-1.26-3.45.42-4.89,1.26c-1.45.84-2.57,2.02-3.38,3.53-.81,1.51-1.21,3.25-1.21,5.2v.56c0,2.02.44,3.79,1.34,5.32.89,1.53,2.14,2.72,3.73,3.58,1.6.86,3.42,1.29,5.47,1.29,1.62,0,3.12-.28,4.52-.86,1.39-.57,2.6-1.45,3.61-2.62l2.02,2.32c-1.18,1.41-2.65,2.49-4.42,3.23s-3.71,1.11-5.83,1.11Z"/>
          <path class="cls-7" d="M573.74,478.48l-11.76-26.49h3.73l10.8,24.57h-1.77l10.95-24.57h3.53l-11.81,26.49h-3.68Z"/>
          <path class="cls-7" d="M605.08,478.73c-2.56,0-4.85-.58-6.89-1.74s-3.64-2.76-4.82-4.79c-1.18-2.03-1.77-4.36-1.77-6.99s.59-5,1.77-7.02c1.18-2.02,2.77-3.6,4.79-4.74,2.02-1.14,4.32-1.72,6.91-1.72s4.95.57,6.99,1.72c2.03,1.14,3.63,2.72,4.79,4.74s1.74,4.36,1.74,7.02-.58,4.95-1.74,6.99c-1.16,2.04-2.77,3.63-4.82,4.79-2.05,1.16-4.37,1.74-6.96,1.74ZM605.08,475.55c1.92,0,3.62-.43,5.1-1.29,1.48-.86,2.65-2.07,3.51-3.63.86-1.56,1.29-3.37,1.29-5.42s-.43-3.9-1.29-5.45c-.86-1.55-2.03-2.75-3.51-3.61-1.48-.86-3.16-1.29-5.05-1.29s-3.57.43-5.05,1.29c-1.48.86-2.66,2.06-3.53,3.61s-1.31,3.36-1.31,5.45.44,3.86,1.31,5.42,2.05,2.77,3.53,3.63c1.48.86,3.14,1.29,4.99,1.29Z"/>
          <path class="cls-7" d="M639.89,478.48v-35.32h3.73v32.09h19.78v3.23h-23.51Z"/>
          <path class="cls-7" d="M676.32,478.73c-1.99,0-3.71-.33-5.17-.98-1.46-.66-2.58-1.57-3.35-2.73-.77-1.16-1.16-2.5-1.16-4.01,0-1.38.33-2.63.98-3.76.66-1.13,1.73-2.04,3.23-2.73,1.5-.69,3.51-1.03,6.03-1.03h9.13v2.67h-9.03c-2.56,0-4.33.45-5.32,1.36-.99.91-1.49,2.04-1.49,3.38,0,1.51.59,2.73,1.77,3.63,1.18.91,2.83,1.36,4.95,1.36s3.76-.46,5.22-1.39c1.46-.93,2.53-2.26,3.2-4.01l.81,2.47c-.67,1.75-1.84,3.15-3.51,4.19s-3.76,1.56-6.28,1.56ZM685.45,478.48v-5.85l-.15-.96v-9.79c0-2.25-.63-3.99-1.89-5.2-1.26-1.21-3.14-1.81-5.63-1.81-1.71,0-3.35.28-4.89.86-1.55.57-2.86,1.33-3.94,2.27l-1.61-2.67c1.34-1.14,2.96-2.03,4.84-2.65s3.87-.93,5.95-.93c3.43,0,6.08.85,7.95,2.55s2.8,4.28,2.8,7.74v16.45h-3.43Z"/>
          <path class="cls-7" d="M698.62,478.48v-26.49h3.43v7.22l-.35-1.26c.74-2.02,1.98-3.56,3.73-4.62,1.75-1.06,3.92-1.59,6.51-1.59v3.48c-.13,0-.27,0-.4-.02-.13-.02-.27-.02-.4-.02-2.79,0-4.98.85-6.56,2.55-1.58,1.7-2.37,4.11-2.37,7.24v13.52h-3.58Z"/>
          <path class="cls-7" d="M730.1,478.73c-2.76,0-5.18-.58-7.27-1.74s-3.72-2.76-4.89-4.79c-1.18-2.03-1.77-4.36-1.77-6.99s.56-4.95,1.69-6.96c1.13-2.02,2.67-3.61,4.64-4.77,1.97-1.16,4.18-1.74,6.63-1.74s4.7.56,6.64,1.69c1.93,1.13,3.46,2.71,4.57,4.74,1.11,2.04,1.67,4.38,1.67,7.04,0,.17,0,.34-.03.53-.02.18-.02.38-.02.58h-23.06v-2.67h21.14l-1.41,1.06c0-1.92-.41-3.62-1.24-5.12-.82-1.49-1.94-2.67-3.35-3.51s-3.05-1.26-4.89-1.26-3.45.42-4.89,1.26c-1.45.84-2.57,2.02-3.38,3.53-.81,1.51-1.21,3.25-1.21,5.2v.56c0,2.02.44,3.79,1.34,5.32.89,1.53,2.14,2.72,3.73,3.58,1.6.86,3.42,1.29,5.47,1.29,1.61,0,3.12-.28,4.52-.86,1.39-.57,2.6-1.45,3.61-2.62l2.02,2.32c-1.18,1.41-2.65,2.49-4.41,3.23-1.77.74-3.71,1.11-5.83,1.11Z"/>
          <path class="cls-7" d="M759.87,478.73c-2.52,0-4.78-.57-6.79-1.72-2-1.14-3.58-2.73-4.72-4.77-1.14-2.04-1.71-4.38-1.71-7.04s.57-5.05,1.71-7.07c1.14-2.02,2.72-3.59,4.72-4.72,2-1.13,4.26-1.69,6.79-1.69,2.32,0,4.4.52,6.23,1.57,1.83,1.04,3.3,2.56,4.39,4.57,1.09,2,1.64,4.45,1.64,7.34s-.54,5.3-1.61,7.31c-1.08,2.02-2.53,3.56-4.36,4.62-1.83,1.06-3.93,1.59-6.28,1.59ZM760.13,475.55c1.88,0,3.57-.43,5.07-1.29,1.5-.86,2.67-2.07,3.53-3.63s1.29-3.37,1.29-5.42-.43-3.9-1.29-5.45-2.04-2.75-3.53-3.61-3.19-1.29-5.07-1.29-3.52.43-5,1.29c-1.48.86-2.66,2.06-3.53,3.61-.88,1.55-1.31,3.36-1.31,5.45s.44,3.86,1.31,5.42c.87,1.56,2.05,2.77,3.53,3.63,1.48.86,3.15,1.29,5,1.29ZM770.11,478.48v-7.97l.35-5.35-.5-5.35v-18.77h3.58v37.44h-3.43Z"/>
          <path class="cls-7" d="M794.33,478.73c-2.56,0-4.85-.58-6.89-1.74s-3.64-2.76-4.82-4.79c-1.18-2.03-1.77-4.36-1.77-6.99s.59-5,1.77-7.02,2.78-3.6,4.79-4.74c2.02-1.14,4.32-1.72,6.91-1.72s4.95.57,6.99,1.72c2.04,1.14,3.63,2.72,4.79,4.74,1.16,2.02,1.74,4.36,1.74,7.02s-.58,4.95-1.74,6.99c-1.16,2.04-2.77,3.63-4.82,4.79s-4.37,1.74-6.96,1.74ZM794.33,475.55c1.92,0,3.61-.43,5.1-1.29,1.48-.86,2.65-2.07,3.51-3.63.86-1.56,1.29-3.37,1.29-5.42s-.43-3.9-1.29-5.45c-.86-1.55-2.03-2.75-3.51-3.61-1.48-.86-3.16-1.29-5.05-1.29s-3.57.43-5.05,1.29c-1.48.86-2.66,2.06-3.53,3.61s-1.31,3.36-1.31,5.45.44,3.86,1.31,5.42,2.05,2.77,3.53,3.63c1.48.86,3.14,1.29,4.99,1.29Z"/>
          <path class="cls-7" d="M813,485.84l2.22-9.33.4,2.17c-.77,0-1.42-.25-1.94-.76s-.78-1.16-.78-1.97.26-1.46.78-1.97c.52-.5,1.15-.76,1.89-.76s1.4.27,1.89.81c.49.54.73,1.18.73,1.92,0,.27-.02.54-.05.8-.03.27-.1.57-.2.91-.1.34-.24.74-.4,1.21l-2.12,6.96h-2.42Z"/>
          <path class="cls-7" d="M846.71,478.48v-32.09h-12.41v-3.23h28.56v3.23h-12.41v32.09h-3.73Z"/>
          <path class="cls-7" d="M875.52,478.73c-1.98,0-3.71-.33-5.17-.98-1.46-.66-2.58-1.57-3.36-2.73-.77-1.16-1.16-2.5-1.16-4.01,0-1.38.33-2.63.98-3.76s1.73-2.04,3.23-2.73c1.5-.69,3.51-1.03,6.03-1.03h9.13v2.67h-9.03c-2.56,0-4.33.45-5.32,1.36-.99.91-1.49,2.04-1.49,3.38,0,1.51.59,2.73,1.77,3.63,1.18.91,2.83,1.36,4.95,1.36s3.76-.46,5.22-1.39,2.53-2.26,3.2-4.01l.81,2.47c-.67,1.75-1.84,3.15-3.51,4.19-1.67,1.04-3.76,1.56-6.28,1.56ZM884.65,478.48v-5.85l-.15-.96v-9.79c0-2.25-.63-3.99-1.89-5.2-1.26-1.21-3.14-1.81-5.63-1.81-1.71,0-3.35.28-4.89.86-1.55.57-2.86,1.33-3.94,2.27l-1.62-2.67c1.35-1.14,2.96-2.03,4.84-2.65s3.87-.93,5.95-.93c3.43,0,6.08.85,7.95,2.55s2.8,4.28,2.8,7.74v16.45h-3.43Z"/>
          <path class="cls-7" d="M930.92,451.73c2.15,0,4.03.41,5.63,1.24s2.84,2.07,3.73,3.76,1.34,3.8,1.34,6.36v15.39h-3.58v-15.04c0-2.79-.67-4.9-1.99-6.33-1.33-1.43-3.2-2.14-5.63-2.14-1.82,0-3.39.38-4.72,1.13-1.33.76-2.36,1.85-3.08,3.28-.72,1.43-1.09,3.15-1.09,5.17v13.93h-3.58v-15.04c0-2.79-.67-4.9-2.02-6.33-1.35-1.43-3.23-2.14-5.65-2.14-1.78,0-3.35.38-4.69,1.13-1.35.76-2.38,1.85-3.1,3.28-.72,1.43-1.08,3.15-1.08,5.17v13.93h-3.58v-26.49h3.43v7.17l-.56-1.26c.81-1.92,2.11-3.42,3.91-4.52s3.93-1.64,6.38-1.64c2.59,0,4.79.65,6.61,1.94s2.99,3.24,3.53,5.83l-1.41-.55c.77-2.15,2.14-3.89,4.11-5.22,1.97-1.33,4.33-1.99,7.09-1.99Z"/>
          <path class="cls-7" d="M958.82,478.73c-1.98,0-3.71-.33-5.17-.98-1.46-.66-2.58-1.57-3.36-2.73-.77-1.16-1.16-2.5-1.16-4.01,0-1.38.33-2.63.98-3.76s1.73-2.04,3.23-2.73c1.5-.69,3.51-1.03,6.03-1.03h9.13v2.67h-9.03c-2.56,0-4.33.45-5.32,1.36-.99.91-1.49,2.04-1.49,3.38,0,1.51.59,2.73,1.77,3.63,1.18.91,2.83,1.36,4.95,1.36s3.76-.46,5.22-1.39,2.53-2.26,3.2-4.01l.81,2.47c-.67,1.75-1.84,3.15-3.51,4.19-1.67,1.04-3.76,1.56-6.28,1.56ZM967.95,478.48v-5.85l-.15-.96v-9.79c0-2.25-.63-3.99-1.89-5.2-1.26-1.21-3.14-1.81-5.63-1.81-1.71,0-3.35.28-4.89.86-1.55.57-2.86,1.33-3.94,2.27l-1.62-2.67c1.35-1.14,2.96-2.03,4.84-2.65s3.87-.93,5.95-.93c3.43,0,6.08.85,7.95,2.55s2.8,4.28,2.8,7.74v16.45h-3.43Z"/>
          <path class="cls-7" d="M992.07,478.73c-2.25,0-4.22-.42-5.9-1.26-1.68-.84-2.99-2.1-3.91-3.78s-1.39-3.78-1.39-6.31v-15.39h3.58v14.98c0,2.83.7,4.95,2.09,6.38,1.39,1.43,3.35,2.15,5.88,2.15,1.85,0,3.46-.38,4.82-1.14,1.36-.76,2.4-1.86,3.13-3.3.72-1.45,1.08-3.18,1.08-5.2v-13.88h3.58v26.49h-3.43v-7.27l.56,1.31c-.84,1.95-2.14,3.47-3.91,4.57-1.77,1.09-3.83,1.64-6.18,1.64Z"/>
          <path class="cls-7" d="M1015.02,478.48v-37.44h3.58v37.44h-3.58Z"/>
          <path class="cls-7" d="M1030.41,446.13c-.74,0-1.36-.25-1.87-.76-.51-.51-.76-1.11-.76-1.82s.25-1.3.76-1.79c.5-.49,1.13-.73,1.87-.73s1.36.24,1.87.71c.5.47.76,1.06.76,1.77s-.24,1.36-.73,1.87c-.49.5-1.12.76-1.89.76ZM1028.6,478.48v-26.49h3.58v26.49h-3.58Z"/>
          <path class="cls-7" d="M1042.17,488.27v-36.28h3.43v7.97l-.35,5.3.5,5.35v17.66h-3.58ZM1055.84,478.73c-2.29,0-4.36-.53-6.21-1.59-1.85-1.06-3.32-2.59-4.42-4.59s-1.64-4.45-1.64-7.34.54-5.34,1.62-7.34c1.08-2,2.54-3.53,4.39-4.57,1.85-1.04,3.94-1.57,6.26-1.57,2.52,0,4.78.56,6.79,1.69,2,1.13,3.57,2.71,4.72,4.74,1.14,2.04,1.72,4.38,1.72,7.04s-.57,5.04-1.72,7.06c-1.14,2.02-2.72,3.6-4.72,4.74-2,1.14-4.26,1.72-6.79,1.72ZM1055.59,475.55c1.88,0,3.57-.43,5.05-1.29,1.48-.86,2.66-2.07,3.53-3.63.87-1.56,1.31-3.37,1.31-5.42s-.44-3.85-1.31-5.4c-.88-1.55-2.05-2.76-3.53-3.63-1.48-.87-3.16-1.31-5.05-1.31s-3.58.44-5.07,1.31c-1.5.88-2.67,2.09-3.53,3.63-.86,1.55-1.29,3.35-1.29,5.4s.43,3.86,1.29,5.42c.86,1.56,2.03,2.77,3.53,3.63,1.5.86,3.19,1.29,5.07,1.29Z"/>
          <path class="cls-7" d="M1083.85,478.73c-1.98,0-3.71-.33-5.17-.98-1.46-.66-2.58-1.57-3.36-2.73-.77-1.16-1.16-2.5-1.16-4.01,0-1.38.33-2.63.98-3.76s1.73-2.04,3.23-2.73c1.5-.69,3.51-1.03,6.03-1.03h9.13v2.67h-9.03c-2.56,0-4.33.45-5.32,1.36-.99.91-1.49,2.04-1.49,3.38,0,1.51.59,2.73,1.77,3.63,1.18.91,2.83,1.36,4.95,1.36s3.76-.46,5.22-1.39,2.53-2.26,3.2-4.01l.81,2.47c-.67,1.75-1.84,3.15-3.51,4.19s-3.76,1.56-6.28,1.56ZM1092.98,478.48v-5.85l-.15-.96v-9.79c0-2.25-.63-3.99-1.89-5.2-1.26-1.21-3.14-1.81-5.63-1.81-1.72,0-3.35.28-4.89.86-1.55.57-2.86,1.33-3.94,2.27l-1.62-2.67c1.35-1.14,2.96-2.03,4.85-2.65,1.88-.62,3.87-.93,5.95-.93,3.43,0,6.08.85,7.95,2.55s2.8,4.28,2.8,7.74v16.45h-3.43Z"/>
          <path class="cls-7" d="M1113.26,478.73c-2.19,0-4.26-.31-6.21-.93-1.95-.62-3.48-1.4-4.59-2.35l1.61-2.83c1.08.81,2.46,1.51,4.14,2.09,1.68.59,3.45.88,5.3.88,2.52,0,4.34-.39,5.45-1.19,1.11-.79,1.66-1.84,1.66-3.15,0-.97-.31-1.74-.93-2.3-.62-.55-1.44-.97-2.45-1.26-1.01-.28-2.14-.53-3.38-.73-1.24-.2-2.48-.44-3.71-.71-1.23-.27-2.35-.66-3.36-1.19-1.01-.52-1.82-1.23-2.45-2.14s-.93-2.12-.93-3.63.4-2.74,1.21-3.88,1.99-2.04,3.56-2.7c1.56-.66,3.47-.99,5.73-.99,1.71,0,3.43.23,5.15.68s3.13,1.05,4.24,1.79l-1.56,2.88c-1.18-.81-2.44-1.39-3.78-1.74s-2.69-.53-4.04-.53c-2.39,0-4.15.41-5.27,1.24-1.13.82-1.69,1.88-1.69,3.15,0,1.01.31,1.8.93,2.37.62.57,1.45,1.02,2.47,1.34s2.15.58,3.38.78c1.23.2,2.46.45,3.68.73s2.35.67,3.38,1.16c1.03.49,1.85,1.18,2.47,2.07.62.89.93,2.06.93,3.51,0,1.55-.43,2.89-1.29,4.01-.86,1.13-2.1,2-3.73,2.62-1.63.62-3.61.93-5.93.93Z"/>
        </g>
      </g>
      <g id="path7329">
        <path class="cls-7" d="M270.35,702.83c-2.71-1.92-7.81-5.93-14.76-11.94-11.85-10.25-20.45-15.03-27.05-15.03-3.09,0-5.74,1.07-7.86,3.19-.75.75-5.99,2.27-12.92,2.39-6.31.11-24.48,1.39-40.5,2.85-7.15.65-15.49,1.01-23.49,1.01-8.94,0-16.56-.46-20.92-1.24-13.24-2.4-15.33-3.93-18.61-13.69-4.72-14.01-19.15-26.89-30.29-27.02h-.02c-2.13,0-4.8.23-6.16,2.21-1,1.45-1,3.41,0,5.99.36.94.5,1.55.56,1.92-.15-.04-.33-.1-.55-.18-6.64-2.54-43.78-14.54-49.07-15.86-1.79-.44-3.64-6.87-2.97-12.27.34-2.74,1.14-3.59,1.39-3.59,3.08,0,6.03-4.21,7.35-8.37,1.74-5.48-2.34-14.58-7.16-21.16-1.98-2.7-7.1-9-11.85-9-.63,0-1.23.11-1.79.32,0,0-.02,0-.02,0-.33,0-1.83-1.08-1.83-9.36,0-9.14.68-9.55,2.09-9.55,1.11,0,2.74.37,4.34.78,2.09.52,4.1.8,5.81.8,4.43,0,5.23-1.9,5.31-3.03.11-1.53.61-9.52,1.12-17.75.48-7.85,3.72-18.79,7.06-23.89,3.96-6.05,5.75-7.68,10.75-7.68,2.48,0,5.77.44,8.97.92,4.2.63,6.99.9,9.34.9,6.78,0,10.2-2.52,14.48-7.47,9.26-10.71,8.15-20.26-4.24-36.51-6.66-8.73-8.05-13.29-6.22-20.35,4.54-17.46,3.19-30.85-3.92-38.7-1.42-1.56-3.79-4.18-3.8-4.93.36-.65,3.98-2.03,6.38-2.93,5.53-2.1,15.33-8.79,21.86-14.91,6.52-6.11,13.96-10.38,16.55-10.39,8.4-.02,15.49-11.23,15.49-24.48,0-7.01,9.36-15.01,17.57-15.01.85,0,1.68.09,2.45.26l.2.05.53.03c8.19,0,60.57-38.78,65.94-48.81,2.14-4,2.49-7.1,1.07-9.47-1.54-2.57-4.96-3.83-10.45-3.83-5.9,0-8.22-10.9-9.52-44.84l-.95-24.68-14.26-1.12c-1.3-.1-2.62-.15-3.92-.15-4.87,0-11.48.76-14.07,2.89-.62.51-1.24.76-1.9.76-1.24,0-2.71-.95-4.14-2.67-2.85-3.43-9.85-6.12-15.95-6.12-7.56,0-12.6-2.82-12.6-16.57,0-5.31-3.33-8.74-8.48-8.74-10.23,0-16.83-11.1-16.83-28.27s-.58-18.49-15.62-20.89c-5.54-.88-9.91-1.59-10.75-2.9-.72-1.14.24-4.5,1.36-8.39,2.95-10.29,3.89-14.42,1.98-16.95-1.5-1.99-4.28-2.15-7.75-2.15-2.15,0-3.3-.22-3.71-.7-1.04-1.22-.34-6.26.47-11.33,3.06-19.13-7.38-51.5-19.94-61.85l-7.09-5.84,12.71-8.41c7.5-4.96,11.72-7.32,15.47-7.32,1.83,0,3.77.54,6.69,1.87,7.28,3.32,10.07,7.61,8.53,25.61-.42,4.86,1.26,12.4,3.82,17.18,2.21,4.13,3.88,12.86,3.65,19.06-.26,6.86,2.84,18.34,6.91,25.58,3.74,6.66,7.02,16.59,7.15,21.68.16,6.23.23,8.81,2.68,8.81,1.7,0,2.5-1.7,4.15-5.54.2-.48.39-.89.55-1.26.43,2.98.81,7.69,1.04,10.63.28,3.46,3.88,7.91,7.12,10.35,2.98,2.24,6.53,8.79,7.74,14.31,2.01,9.17,5.22,12.26,12.73,12.26,10.87,0,26.52,6.89,32.85,14.46,3.52,4.21,13.43,7.97,24.67,9.36,12.18,1.51,19.43,4.56,24.23,10.2,6.56,7.7,12.5,9.49,37.41,11.25l2.85.2q36.08,2.54,44.3,11.65l.68.75c7.46,8.25,15.17,12.98,21.15,12.98,4.19,0,7.23-2.3,8.56-6.48,1.41-4.44,9.75-9.2,14.56-9.2,1,0,1.76.22,2.15.6,3.46,4.03-7.95,53.14-21.09,79.01-7.64,15.04-15.75,33.84-18.09,41.9-12.39,42.75-15.25,54.96-15.3,65.33-.03,6.32-1.72,13.15-3.27,15.55-.03.05-.07.11-.11.17.43-22.37,8.88-60.38,19.42-87.09,5.2-13.2,12.95-33.91,12.95-36.86s-4.26-7.33-8.46-9.96c-4.05-2.53-5.48-2.53-5.95-2.53-1.32,0-1.91.8-2.1,1.15-.72,1.29.12,2.64.39,3.08.86,1.4,1.17,7.45-.3,14.14l-1.72,7.83-4.09-5.05c-4.57-5.65-8.17-8.27-11.34-8.27-5.05,0-6.71,6.35-7.25,8.43-1.43,5.48.25,10.03,4.3,11.58,2.39.92,3.98,2.85,3.98,3.73.05.05.04.08-.01.08-.09,0-.3-.07-.59-.25-.86-.54-1.86-.82-2.89-.82-2.09,0-4.09,1.15-5.24,3-.97,1.57-1.12,3.21-.4,4.49.69,1.24,2.07,1.95,3.79,1.95.49.36,1.44,1.97-.06,8.8-1.61,7.31-.73,14.12,2.3,17.77,2.05,2.48,2,3.13,1.98,3.2,0,.02-.2.46-2.18,1.22-5.53,2.13-6.01,9.3-4.96,22.67.35,4.5.77,9.84.72,12.59-.71-.78-1.5-1.76-1.95-2.3-2.47-3.02-3.81-4.45-5.4-4.45-.68,0-1.3.28-1.77.78-1.48,1.6-1.36,5.33-.19,20.59.52,6.73,2.54,28.69,6.94,28.69,2.51,0,2.7-3.3,2.7-7.96,0-.73.01-1.35.03-1.83.81.76,1.95,1.9,2.49,2.44,3.83,3.83,4.43,6.44,1.36,17.48-1.82,6.55-3.54,16.91-4.18,24.82-.53-3.07-1.09-4.66-2.8-4.66-2.37,0-3.16,0-3.59,36.02-.35,29.16,1.56,56.97,5.22,76.27,4.76,25.11,4.96,33.14,1.27,50.55-1.76,8.31-3.52,13.12-4.58,15.03-.62-.8-1.46-1.56-2.61-1.56-2.9,0-3.97,3.09-9.34,22.36-.78,2.81-.52,5.44.69,7.04.77,1.02,1.89,1.58,3.14,1.58,1.63,0,3.15-.97,4.29-2.54.38,2.44.82,5.74,1.3,9.98,1.04,9.17,1.6,16.06,1.76,19.58Z"/>
        <path class="cls-3" d="M55,3.62c1.56,0,3.28.5,5.94,1.71,6.23,2.84,9,6.11,7.48,23.8-.44,5.15,1.32,13.14,4.02,18.18,2.08,3.9,3.66,12.2,3.43,18.14-.27,7.26,2.86,18.92,7.14,26.53,3.62,6.45,6.79,16,6.92,20.84.17,6.36.27,10.57,4.49,10.57,1.61,0,2.67-.78,3.59-2.12.14,1.61.27,3.15.36,4.29.32,4.04,4.19,8.92,7.84,11.65,2.35,1.76,5.83,7.63,7.06,13.25,1.86,8.45,4.93,13.68,14.5,13.68,10.42,0,25.42,6.59,31.46,13.82,4.68,5.6,16.84,8.89,25.83,10,11.85,1.47,18.54,4.24,23.08,9.57,7.32,8.59,14.4,10.17,38.66,11.88l2.85.2q35.35,2.49,43.09,11.06l.68.75c7.8,8.63,16,13.57,22.49,13.57,4.97,0,8.72-2.82,10.28-7.74,1.08-3.41,8.4-7.94,12.84-7.94.34,0,.58.03.72.06,2.13,7.25-8.8,52.36-21.27,76.93-.6,1.17-1.2,2.37-1.79,3.58.51-1.77.81-3.1.81-3.76,0-4.48-5.85-9.34-9.31-11.5-3.98-2.48-5.78-2.8-6.9-2.8-1.58,0-2.95.78-3.68,2.07-.56,1.01-.95,2.68.41,4.87.56,1.13.88,6.53-.5,12.84l-.91,4.16-1.73-2.13c-5.01-6.18-8.94-8.94-12.75-8.94-4.28,0-7.31,3.29-9,9.78-1.56,5.98.16,11.05,4.39,13.27-1.88.55-3.56,1.81-4.64,3.55-1.33,2.15-1.49,4.45-.44,6.32.86,1.54,2.39,2.53,4.28,2.8.1.88.1,2.83-.75,6.68-1.72,7.85-.7,15.25,2.68,19.31.48.58.82,1.03,1.06,1.37-.15.06-.32.13-.51.21-6.6,2.53-7.24,10.23-6.12,24.49.18,2.28.39,4.92.53,7.29-1.86-2.14-3.36-3.39-5.36-3.39-1.18,0-2.28.48-3.1,1.36-2.01,2.17-1.95,5.31-.67,21.95,2.33,30.36,6.82,30.36,8.74,30.36,3.69,0,4.36-3.63,4.48-7.34,2.66,2.83,3.16,5.11.37,15.17-1.41,5.08-2.76,12.4-3.61,19.16-.46-.21-1-.33-1.63-.33h-.07c-4.23,0-4.88.22-5.33,37.81-.35,29.28,1.57,57.21,5.25,76.63,4.71,24.81,4.91,32.73,1.28,49.84-1.33,6.26-2.58,10.21-3.48,12.5-.56-.28-1.21-.45-1.94-.45-4.48,0-5.62,4.08-11.09,23.68-.95,3.4-.58,6.54,1,8.62,1.11,1.46,2.78,2.3,4.58,2.3,1.05,0,2.05-.27,2.98-.77.25,1.87.53,4.07.81,6.6.73,6.44,1.23,11.8,1.51,15.59-2.83-2.19-6.76-5.39-11.52-9.52-12.2-10.56-21.17-15.47-28.24-15.47-3.54,0-6.58,1.22-9.04,3.63-1.05.66-5.76,1.85-11.77,1.95-6.38.11-24.61,1.4-40.63,2.86-7.09.65-15.37,1-23.31,1-8.84,0-16.35-.44-20.61-1.21-13.01-2.36-14.29-3.77-17.22-12.49-5.02-14.91-19.96-28.11-31.99-28.26h-.26s-.02,0-.02,0c-1.35,0-5.36.02-7.41,3-1.41,2.05-1.17,4.4-.75,6.03-10.89-3.81-40.62-13.38-46.19-14.83-.44-.45-1.37-2.27-1.77-5.51-.42-3.38.01-5.92.42-6.92,3.75-.62,6.78-5.1,8.2-9.55,2.06-6.5-2.71-16.33-7.42-22.77-2.66-3.64-7.93-9.74-13.31-9.74-.39,0-.77.03-1.14.09-.3-1-.7-3.12-.7-7.32,0-1.76,0-6.16.44-7.73.94.04,2.48.4,3.75.72,2.23.56,4.4.86,6.26.86,6.28,0,7.03-3.61,7.11-4.71.11-1.53.61-9.53,1.12-17.77.47-7.59,3.57-18.13,6.77-23.01,3.87-5.9,5.16-6.87,9.24-6.87,2.36,0,5.58.43,8.7.9,4.29.64,7.16.92,9.61.92,7.44,0,11.31-2.84,15.84-8.09,11.24-13.01,6.74-24.48-4.17-38.78-6.93-9.09-7.42-12.99-5.91-18.8,4.7-18.08,3.21-32.04-4.33-40.37-.75-.82-1.93-2.14-2.7-3.11,1.26-.6,3.23-1.35,4.57-1.86,5.81-2.21,15.67-8.92,22.46-15.28,6.81-6.38,13.69-9.89,15.32-9.9,9.54-.03,17.29-11.82,17.29-26.29,0-6.05,8.54-13.2,15.76-13.2.72,0,1.41.07,2.05.22.36.08.74.12,1.13.12,9.79,0,62.5-40.36,67.53-49.77,2.43-4.55,2.78-8.33,1.03-11.25-1.9-3.17-5.82-4.71-12-4.71-5.32,0-6.85-20.72-7.71-43.1l-.89-23.08-.12-3.21-3.21-.25-12.66-1c-1.32-.1-2.69-.16-4.07-.16-2.63,0-11.49.24-15.21,3.3-.43.35-.67.35-.75.35-.5,0-1.52-.53-2.75-2.01-3.21-3.86-10.66-6.78-17.34-6.78s-10.79-2.35-10.79-14.76c0-6.31-4.13-10.55-10.29-10.55-9.13,0-15.02-10.39-15.02-26.46,0-17.67-.63-20.03-17.14-22.67-3.76-.6-8.42-1.35-9.48-2.1-.14-1.06.86-4.57,1.54-6.92,2.99-10.44,4.21-15.19,1.69-18.54-2.16-2.87-6.06-2.87-9.19-2.87-1.38,0-2.03-.09-2.33-.16-.42-1.65.52-7.5.88-9.76,3.14-19.62-7.63-52.87-20.58-63.53l-5.2-4.28,10.67-7.06c8.03-5.32,11.55-7.02,14.47-7.02M55,0c-4.08,0-8.36,2.26-16.47,7.62l-14.75,9.76,8.98,7.39c11.98,9.86,22.24,41.84,19.31,60.17-2,12.48-1.41,14.12,5.02,14.12,8.26,0,8.52,1.12,4.03,16.8-3.19,11.11-2.98,11.37,10.85,13.58,14.04,2.25,14.1,2.31,14.1,19.1,0,18.27,7.32,30.07,18.64,30.07,4.17,0,6.67,2.61,6.67,6.94,0,12.97,4.23,18.38,14.41,18.38,5.51,0,12.06,2.46,14.56,5.47,1.82,2.2,3.73,3.32,5.53,3.32,1.06,0,2.09-.39,3.05-1.18,1.82-1.5,7.2-2.48,12.91-2.47,1.26,0,2.53.05,3.78.15l12.66,1,.89,23.08c1.39,36.09,3.94,46.58,11.33,46.58,9.01,0,11.59,3.52,7.78,10.64-4.99,9.33-56.97,47.86-64.34,47.86-.12,0-.24-.01-.33-.03-.92-.21-1.88-.31-2.85-.31-9.01,0-19.37,8.51-19.37,16.82,0,12.14-6.35,22.65-13.69,22.67-3.41,0-11.41,4.9-17.78,10.87-6.37,5.97-15.94,12.51-21.27,14.54-9.36,3.56-9.47,3.92-3.27,10.77,6.7,7.4,7.91,20.14,3.51,37.03-1.99,7.66-.49,12.7,6.53,21.91,11.92,15.63,13,24.17,4.31,34.22-4.28,4.95-7.21,6.84-13.11,6.84-2.42,0-5.35-.32-9.07-.88-3.91-.59-6.87-.94-9.24-.94-5.87,0-8.13,2.19-12.26,8.5-3.54,5.4-6.85,16.55-7.36,24.77-.51,8.22-1.01,16.2-1.12,17.73-.06.89-1.43,1.35-3.5,1.35-1.5,0-3.37-.24-5.38-.75-2.02-.51-3.58-.83-4.78-.83-3.49,0-3.9,2.71-3.9,11.35,0,7.41,1.17,11.23,3.41,11.23.28,0,.58-.06.9-.18.36-.14.74-.2,1.14-.2,6.97,0,19.81,19.86,17.29,27.8-1.24,3.91-3.77,7.1-5.63,7.1-5.11,0-4.04,18.14,1.15,19.43,5.3,1.32,42.22,13.25,48.86,15.79.67.26,1.23.38,1.67.38,1.55,0,1.78-1.52.65-4.46-1.54-4.02-.27-5.75,4.26-5.75.07,0,.15,0,.22,0,10.38.12,24.13,12.53,28.6,25.79,3.5,10.39,6.18,12.39,20.01,14.89,4.66.84,12.52,1.27,21.26,1.27,7.74,0,16.16-.34,23.64-1.02,15.91-1.45,34.08-2.73,40.37-2.84,6.29-.11,12.67-1.43,14.16-2.92,1.78-1.77,3.96-2.66,6.58-2.66,6.09,0,14.57,4.81,25.87,14.59,8.88,7.69,16.54,13.6,17.57,13.6.05,0,.08-.01.1-.04.42-.6-.35-10.84-1.7-22.78-1.12-9.84-2.23-16.27-2.75-16.27-.11,0-.19.29-.25.9-.29,3.48-2.27,6.33-4.39,6.33s-3.07-2.85-2.09-6.33c4.43-15.89,6.05-21.04,7.6-21.04.57,0,1.13.7,1.82,1.81.2.33.44.49.69.49,1.65,0,4.23-6.75,6.45-17.21,3.74-17.64,3.54-25.95-1.26-51.26-3.62-19.06-5.53-47.08-5.19-75.91.28-23.24.83-34.24,1.78-34.24.37,0,.79,1.62,1.29,4.8l2.53,16.27.56-14.46c.31-7.96,2.27-20.6,4.35-28.09,3.08-11.09,2.74-14.67-1.83-19.24-2.45-2.45-3.84-3.7-4.63-3.7-.84,0-.99,1.44-.99,4.37,0,4.29-.35,6.15-.89,6.15-1.38,0-3.99-12.12-5.14-27.02-1.09-14.18-1.36-19.42.16-19.42.8,0,2.08,1.44,4,3.78,2.08,2.54,3.42,4.06,4.21,4.06,1.35,0,1.11-4.4.23-15.64-1.11-14.16-.17-19.31,3.81-20.83,4.18-1.6,4.38-3.12.94-7.26-2.64-3.18-3.4-9.54-1.93-16.23,1.59-7.23,1-11-1.7-11-2.26,0-3.1-1.65-1.85-3.68.85-1.37,2.28-2.14,3.7-2.14.67,0,1.34.18,1.94.54.63.39,1.22.58,1.73.58.98,0,1.63-.69,1.63-1.94,0-1.89-2.31-4.33-5.14-5.42-3.15-1.21-4.39-4.87-3.19-9.43,1.23-4.72,3.04-7.08,5.51-7.08,2.56,0,5.83,2.53,9.94,7.6l6.46,7.97,2.53-11.5c1.39-6.33,1.42-13.29.07-15.47-.61-.99-.51-1.47.17-1.47.85,0,2.61.77,4.99,2.25,4.19,2.61,7.61,6.41,7.61,8.43s-5.77,18.31-12.82,36.19c-10.77,27.32-19.32,66.05-19.56,88.57-.02,2.41.06,3.62.54,3.62s1.35-1.21,2.91-3.62c1.93-2.98,3.53-10.42,3.56-16.52.05-10.1,2.99-22.59,15.23-64.84,2.31-7.96,10.39-26.67,17.96-41.58,12.52-24.66,25.7-76.16,20.76-81.1-.79-.79-1.99-1.13-3.43-1.13-5.57,0-14.61,5.2-16.28,10.46-1.12,3.53-3.57,5.22-6.83,5.22-5.21,0-12.51-4.31-19.81-12.38-9.64-10.66-8.41-10.32-49.05-13.19-24.49-1.73-29.96-3.33-36.16-10.62-5.15-6.05-12.65-9.24-25.39-10.82-10.75-1.33-20.28-4.87-23.5-8.73-6.69-8.01-22.79-15.11-34.23-15.11-6.6,0-9.13-2.51-10.96-10.84-1.31-5.96-5.1-12.88-8.42-15.37s-6.2-6.56-6.4-9.04c-.81-10.13-1.33-14.4-2.37-14.4-.64,0-1.47,1.61-2.7,4.45-1.25,2.91-2.01,4.44-2.49,4.44-.58,0-.75-2.25-.87-7.05-.14-5.41-3.46-15.54-7.38-22.52-3.92-6.98-6.92-18.06-6.68-24.62.25-6.57-1.49-15.56-3.86-19.98-2.37-4.43-3.99-11.7-3.61-16.17,1.47-17.15-.7-23.36-9.58-27.4-2.86-1.3-5.12-2.03-7.44-2.03h0Z"/>
      </g>
      <g>
        <g class="cls-4">
          <path class="cls-5" d="M222.27,460.02c0,5.63-16.18,10.21-36.16,10.21s-36.16-4.58-36.16-10.21,16.18-10.21,36.16-10.21,36.16,4.58,36.16,10.21Z"/>
        </g>
        <path class="cls-6" d="M186.11,458.31s-68.57-116.6,0-116.6,0,116.6,0,116.6Z"/>
        <circle class="cls-1" cx="186.17" cy="373.79" r="14.8"/>
      </g>
      <g>
        <path class="cls-6" d="M377.7,461.19c0-7.01,5.68-12.66,12.66-12.66h0c6.98,0,12.66,5.64,12.66,12.66h0c0,6.98-5.68,12.66-12.66,12.66h0c-6.98,0-12.66-5.67-12.66-12.66ZM337.53,461.19c0-7.01,5.64-12.66,12.66-12.66h0c6.98,0,12.66,5.64,12.66,12.66h0c0,6.98-5.68,12.66-12.66,12.66h0c-7.01,0-12.66-5.67-12.66-12.66ZM293.99,461.19c0-7.01,5.68-12.66,12.66-12.66h0c6.98,0,12.66,5.64,12.66,12.66h0c0,6.98-5.68,12.66-12.66,12.66h0c-6.98,0-12.66-5.67-12.66-12.66ZM253.82,461.19c0-7.01,5.68-12.66,12.66-12.66h0c6.98,0,12.66,5.64,12.66,12.66h0c0,6.98-5.68,12.66-12.66,12.66h0c-6.98,0-12.66-5.67-12.66-12.66Z"/>
        <path class="cls-6" d="M226.3,473.84c-.83,0-1.66-.07-2.49-.25-.79-.18-1.59-.4-2.35-.72s-1.48-.72-2.17-1.16c-.72-.47-1.34-1.01-1.95-1.59-.58-.58-1.08-1.23-1.55-1.91-.47-.69-.87-1.41-1.16-2.17-.32-.79-.58-1.59-.72-2.38-.18-.8-.25-1.63-.25-2.46s.07-1.66.25-2.49c.14-.8.4-1.59.72-2.35.29-.76.69-1.52,1.16-2.21.47-.69.98-1.33,1.55-1.91.58-.58,1.23-1.12,1.92-1.56.69-.47,1.45-.87,2.21-1.15.76-.32,1.56-.58,2.35-.76,4.12-.8,8.5.54,11.43,3.47.58.58,1.12,1.23,1.59,1.91.43.69.83,1.45,1.16,2.21.33.76.54,1.55.72,2.35.14.83.25,1.66.25,2.49s-.11,1.66-.25,2.46c-.18.79-.4,1.59-.72,2.38-.32.76-.72,1.48-1.16,2.17-.47.69-1.01,1.34-1.59,1.91-.58.58-1.23,1.12-1.92,1.59-.69.43-1.41.83-2.17,1.16-.76.32-1.56.54-2.39.72-.8.18-1.63.25-2.46.25Z"/>
      </g>
    </g>
  </g>
</svg>