<?xml version="1.0" encoding="UTF-8"?>
<svg id="Layer_2" data-name="Layer 2" xmlns="http://www.w3.org/2000/svg" viewBox="0 0 1188 717.27">
  <defs>
    <style>
      .cls-1 {
        fill: #fff;
      }

      .cls-2 {
        fill: #f3f3f3;
      }

      .cls-3 {
        fill: #e2e2e2;
      }

      .cls-4 {
        opacity: .25;
      }

      .cls-5 {
        fill: #17283f;
      }

      .cls-6 {
        fill: #3ac6f4;
      }

      .cls-7 {
        fill: #334ba0;
      }
    </style>
  </defs>
  <g id="Layer_1-2" data-name="Layer 1">
    <g>
      <g>
        <rect class="cls-2" x="540.99" y="248.33" width="647.02" height="115.65" rx="57.82" ry="57.82"/>
        <g>
          <path class="cls-7" d="M580.62,322.48v-35.34h3.08l16.15,27.56h-1.62l16-27.56h3.08v35.34h-3.58v-29.73h.86l-14.74,25.24h-1.77l-14.84-25.24h.96v29.73h-3.58Z"/>
          <path class="cls-7" d="M638.87,322.73c-2.56,0-4.86-.58-6.89-1.74-2.04-1.16-3.64-2.76-4.82-4.8-1.18-2.03-1.77-4.37-1.77-6.99s.59-5,1.77-7.02c1.18-2.02,2.78-3.6,4.8-4.74s4.32-1.72,6.92-1.72,4.95.57,6.99,1.72,3.63,2.73,4.8,4.74c1.16,2.02,1.74,4.36,1.74,7.02s-.58,4.96-1.74,6.99c-1.16,2.04-2.77,3.63-4.82,4.8-2.05,1.16-4.38,1.74-6.97,1.74ZM638.87,319.55c1.92,0,3.62-.43,5.1-1.29,1.48-.86,2.65-2.07,3.51-3.63.86-1.57,1.29-3.37,1.29-5.43s-.43-3.9-1.29-5.45-2.03-2.75-3.51-3.61c-1.48-.86-3.16-1.29-5.05-1.29s-3.57.43-5.05,1.29c-1.48.86-2.66,2.06-3.53,3.61-.88,1.55-1.31,3.36-1.31,5.45s.44,3.86,1.31,5.43c.87,1.56,2.05,2.78,3.53,3.63,1.48.86,3.15,1.29,5,1.29Z"/>
          <path class="cls-7" d="M673.25,295.72c2.15,0,4.05.41,5.68,1.24,1.63.83,2.91,2.08,3.84,3.76.92,1.68,1.39,3.8,1.39,6.36v15.4h-3.58v-15.04c0-2.79-.7-4.91-2.1-6.33s-3.36-2.14-5.88-2.14c-1.88,0-3.52.38-4.92,1.14-1.4.76-2.47,1.85-3.23,3.28-.76,1.43-1.14,3.16-1.14,5.17v13.93h-3.58v-26.5h3.43v7.27l-.55-1.36c.84-1.92,2.19-3.42,4.04-4.52,1.85-1.09,4.05-1.64,6.61-1.64Z"/>
          <path class="cls-7" d="M689.71,298.96v-2.98h16.4v2.98h-16.4ZM702.22,322.73c-2.49,0-4.41-.67-5.76-2.02s-2.02-3.25-2.02-5.7v-24.89h3.58v24.68c0,1.55.39,2.74,1.19,3.58s1.93,1.26,3.41,1.26c1.58,0,2.89-.45,3.94-1.36l1.26,2.57c-.71.64-1.56,1.11-2.55,1.41-.99.3-2.01.45-3.05.45Z"/>
          <path class="cls-7" d="M725.6,322.73c-2.76,0-5.18-.58-7.27-1.74-2.09-1.16-3.72-2.76-4.9-4.8-1.18-2.03-1.77-4.37-1.77-6.99s.56-4.95,1.69-6.96c1.13-2.02,2.68-3.61,4.64-4.77,1.97-1.16,4.18-1.74,6.64-1.74s4.7.56,6.64,1.69c1.93,1.13,3.46,2.71,4.57,4.75,1.11,2.04,1.67,4.38,1.67,7.04,0,.17,0,.35-.02.53-.02.19-.03.38-.03.58h-23.07v-2.68h21.15l-1.41,1.06c0-1.92-.41-3.63-1.24-5.12s-1.94-2.66-3.36-3.51c-1.41-.84-3.05-1.26-4.9-1.26s-3.45.42-4.9,1.26c-1.45.84-2.57,2.02-3.38,3.53-.81,1.52-1.21,3.25-1.21,5.2v.56c0,2.02.45,3.79,1.34,5.32.89,1.53,2.14,2.73,3.74,3.58s3.42,1.29,5.48,1.29c1.61,0,3.12-.28,4.52-.86s2.6-1.45,3.61-2.63l2.02,2.32c-1.18,1.41-2.65,2.49-4.42,3.23-1.77.74-3.71,1.11-5.83,1.11Z"/>
          <path class="cls-7" d="M744.83,322.48v-26.5h3.43v7.22l-.35-1.26c.74-2.02,1.98-3.56,3.74-4.62,1.75-1.06,3.92-1.59,6.51-1.59v3.48c-.13,0-.27,0-.4-.02s-.27-.03-.4-.03c-2.79,0-4.98.85-6.56,2.55-1.58,1.7-2.37,4.12-2.37,7.24v13.53h-3.58Z"/>
          <path class="cls-7" d="M765.07,322.48v-26.5h3.43v7.22l-.35-1.26c.74-2.02,1.98-3.56,3.74-4.62,1.75-1.06,3.92-1.59,6.51-1.59v3.48c-.13,0-.27,0-.4-.02s-.27-.03-.4-.03c-2.79,0-4.98.85-6.56,2.55-1.58,1.7-2.37,4.12-2.37,7.24v13.53h-3.58Z"/>
          <path class="cls-7" d="M796.57,322.73c-2.76,0-5.18-.58-7.27-1.74s-3.72-2.76-4.9-4.8c-1.18-2.03-1.77-4.37-1.77-6.99s.56-4.95,1.69-6.96,2.68-3.61,4.64-4.77c1.97-1.16,4.18-1.74,6.64-1.74s4.7.56,6.64,1.69c1.93,1.13,3.46,2.71,4.57,4.75,1.11,2.04,1.67,4.38,1.67,7.04,0,.17,0,.35-.02.53s-.02.38-.02.58h-23.07v-2.68h21.15l-1.41,1.06c0-1.92-.41-3.63-1.24-5.12-.83-1.5-1.94-2.66-3.36-3.51-1.41-.84-3.05-1.26-4.9-1.26s-3.45.42-4.9,1.26c-1.45.84-2.57,2.02-3.38,3.53-.81,1.52-1.21,3.25-1.21,5.2v.56c0,2.02.45,3.79,1.34,5.32.89,1.53,2.14,2.73,3.74,3.58,1.6.86,3.42,1.29,5.48,1.29,1.62,0,3.12-.28,4.52-.86,1.4-.57,2.6-1.45,3.61-2.63l2.02,2.32c-1.18,1.41-2.65,2.49-4.42,3.23-1.77.74-3.71,1.11-5.83,1.11Z"/>
          <path class="cls-7" d="M816,332.52c-1.24,0-2.43-.2-3.56-.61-1.13-.41-2.1-1.01-2.9-1.82l1.67-2.68c.67.64,1.4,1.14,2.2,1.49.79.35,1.67.53,2.65.53,1.18,0,2.2-.33,3.05-.99.86-.66,1.67-1.81,2.45-3.46l1.72-3.89.4-.55,10.9-24.59h3.53l-13.28,29.68c-.74,1.72-1.56,3.08-2.45,4.09-.89,1.01-1.86,1.73-2.9,2.15-1.04.42-2.2.63-3.48.63ZM823.07,323.23l-12.22-27.26h3.74l10.8,24.33-2.32,2.92Z"/>
          <path class="cls-7" d="M840.99,329.85l2.22-9.34.4,2.17c-.77,0-1.42-.25-1.94-.76-.52-.5-.78-1.16-.78-1.97s.26-1.46.78-1.97c.52-.51,1.15-.76,1.89-.76s1.4.27,1.89.81c.49.54.73,1.18.73,1.92,0,.27-.02.54-.05.81-.03.27-.1.57-.2.91s-.24.74-.4,1.21l-2.12,6.96h-2.42Z"/>
          <path class="cls-7" d="M867.85,322.48v-35.34h3.08l24.38,30.69h-1.61v-30.69h3.68v35.34h-3.08l-24.33-30.69h1.61v30.69h-3.74Z"/>
          <path class="cls-7" d="M919.08,322.73c-2.26,0-4.22-.42-5.91-1.26-1.68-.84-2.99-2.1-3.91-3.78-.93-1.68-1.39-3.79-1.39-6.31v-15.4h3.58v14.99c0,2.83.7,4.95,2.1,6.38,1.4,1.43,3.36,2.14,5.88,2.14,1.85,0,3.46-.38,4.82-1.13,1.36-.76,2.41-1.86,3.13-3.31s1.08-3.18,1.08-5.2v-13.88h3.58v26.5h-3.43v-7.27l.55,1.31c-.84,1.95-2.14,3.48-3.91,4.57-1.77,1.09-3.83,1.64-6.18,1.64Z"/>
          <path class="cls-7" d="M953.31,322.73c-2.76,0-5.18-.58-7.27-1.74-2.09-1.16-3.72-2.76-4.9-4.8-1.18-2.03-1.77-4.37-1.77-6.99s.56-4.95,1.69-6.96c1.13-2.02,2.68-3.61,4.64-4.77,1.97-1.16,4.18-1.74,6.64-1.74s4.7.56,6.64,1.69c1.93,1.13,3.46,2.71,4.57,4.75,1.11,2.04,1.67,4.38,1.67,7.04,0,.17,0,.35-.02.53-.02.19-.03.38-.03.58h-23.07v-2.68h21.15l-1.41,1.06c0-1.92-.41-3.63-1.24-5.12s-1.94-2.66-3.36-3.51c-1.41-.84-3.05-1.26-4.9-1.26s-3.45.42-4.9,1.26c-1.45.84-2.57,2.02-3.38,3.53-.81,1.52-1.21,3.25-1.21,5.2v.56c0,2.02.45,3.79,1.34,5.32.89,1.53,2.14,2.73,3.74,3.58,1.6.86,3.42,1.29,5.48,1.29,1.62,0,3.12-.28,4.52-.86s2.6-1.45,3.61-2.63l2.02,2.32c-1.18,1.41-2.65,2.49-4.42,3.23-1.77.74-3.71,1.11-5.83,1.11Z"/>
          <path class="cls-7" d="M979.36,322.48l-11.76-26.5h3.74l10.8,24.59h-1.77l10.95-24.59h3.53l-11.81,26.5h-3.68Z"/>
          <path class="cls-7" d="M1010.7,322.73c-2.56,0-4.85-.58-6.89-1.74s-3.64-2.76-4.82-4.8c-1.18-2.03-1.77-4.37-1.77-6.99s.59-5,1.77-7.02c1.18-2.02,2.78-3.6,4.8-4.74,2.02-1.14,4.32-1.72,6.92-1.72s4.96.57,6.99,1.72,3.63,2.73,4.8,4.74c1.16,2.02,1.74,4.36,1.74,7.02s-.58,4.96-1.74,6.99c-1.16,2.04-2.77,3.63-4.82,4.8s-4.38,1.74-6.97,1.74ZM1010.7,319.55c1.92,0,3.62-.43,5.1-1.29,1.48-.86,2.65-2.07,3.51-3.63.86-1.57,1.29-3.37,1.29-5.43s-.43-3.9-1.29-5.45c-.86-1.55-2.03-2.75-3.51-3.61-1.48-.86-3.16-1.29-5.05-1.29s-3.57.43-5.05,1.29c-1.48.86-2.66,2.06-3.53,3.61s-1.31,3.36-1.31,5.45.44,3.86,1.31,5.43c.88,1.56,2.05,2.78,3.53,3.63,1.48.86,3.15,1.29,5,1.29Z"/>
          <path class="cls-7" d="M1045.53,322.48v-35.34h3.74v32.1h19.79v3.23h-23.52Z"/>
          <path class="cls-7" d="M1085.77,322.73c-2.76,0-5.18-.58-7.27-1.74-2.09-1.16-3.72-2.76-4.9-4.8-1.18-2.03-1.77-4.37-1.77-6.99s.56-4.95,1.69-6.96c1.13-2.02,2.68-3.61,4.64-4.77,1.97-1.16,4.18-1.74,6.64-1.74s4.7.56,6.64,1.69c1.93,1.13,3.46,2.71,4.57,4.75,1.11,2.04,1.67,4.38,1.67,7.04,0,.17,0,.35-.02.53-.02.19-.03.38-.03.58h-23.07v-2.68h21.15l-1.41,1.06c0-1.92-.41-3.63-1.24-5.12s-1.94-2.66-3.36-3.51c-1.41-.84-3.05-1.26-4.9-1.26s-3.45.42-4.9,1.26c-1.45.84-2.57,2.02-3.38,3.53-.81,1.52-1.21,3.25-1.21,5.2v.56c0,2.02.45,3.79,1.34,5.32.89,1.53,2.14,2.73,3.74,3.58s3.42,1.29,5.48,1.29c1.61,0,3.12-.28,4.52-.86s2.6-1.45,3.61-2.63l2.02,2.32c-1.18,1.41-2.65,2.49-4.42,3.23-1.77.74-3.71,1.11-5.83,1.11Z"/>
          <path class="cls-7" d="M1115.8,322.73c-2.56,0-4.85-.58-6.89-1.74s-3.64-2.76-4.82-4.8c-1.18-2.03-1.77-4.37-1.77-6.99s.59-5,1.77-7.02c1.18-2.02,2.78-3.6,4.8-4.74,2.02-1.14,4.32-1.72,6.92-1.72s4.95.57,6.99,1.72,3.64,2.73,4.8,4.74c1.16,2.02,1.74,4.36,1.74,7.02s-.58,4.96-1.74,6.99c-1.16,2.04-2.77,3.63-4.82,4.8s-4.38,1.74-6.97,1.74ZM1115.8,319.55c1.92,0,3.62-.43,5.1-1.29,1.48-.86,2.65-2.07,3.51-3.63.86-1.57,1.29-3.37,1.29-5.43s-.43-3.9-1.29-5.45c-.86-1.55-2.03-2.75-3.51-3.61-1.48-.86-3.16-1.29-5.05-1.29s-3.57.43-5.05,1.29c-1.48.86-2.66,2.06-3.53,3.61s-1.31,3.36-1.31,5.45.44,3.86,1.31,5.43c.88,1.56,2.05,2.78,3.53,3.63,1.48.86,3.15,1.29,5,1.29ZM1112.52,291.84l6.92-6.26h4.8l-8.18,6.26h-3.53Z"/>
          <path class="cls-7" d="M1150.18,295.72c2.15,0,4.05.41,5.68,1.24,1.63.83,2.91,2.08,3.84,3.76s1.39,3.8,1.39,6.36v15.4h-3.58v-15.04c0-2.79-.7-4.91-2.09-6.33-1.4-1.43-3.36-2.14-5.88-2.14-1.88,0-3.52.38-4.92,1.14-1.4.76-2.47,1.85-3.23,3.28-.76,1.43-1.14,3.16-1.14,5.17v13.93h-3.58v-26.5h3.43v7.27l-.55-1.36c.84-1.92,2.19-3.42,4.04-4.52,1.85-1.09,4.05-1.64,6.61-1.64Z"/>
        </g>
      </g>
      <g id="path7321">
        <path class="cls-7" d="M108.23,715.1c-2.96,0-6.02-1.01-6.19-3.28-.22-2.87-.05-23.77.37-45.63.72-37.64-.23-42.63-11.27-59.32-9.9-14.96-11.03-19.89-9.3-40.56,1.91-22.8.74-26.84-12.46-43.17-11.86-14.66-13.37-19.22-12.44-37.54.64-12.73,2.57-24.85,3.96-28.18,2.05-4.89.14-13.4-4.64-20.7q-6.66-10.16,1.19-20.62c6-7.99,7.93-9.87,21.52-9.87,4.42,0,9.98.22,18.09.6,8.58.41,13.76.57,17.86.57,14.44,0,17.94-2.21,21.75-9.33,2.24-4.19,3.34-7.14,2.34-9.82-1.08-2.89-4.17-4.52-9.87-6.68-6.54-2.48-14.37-4.43-17.82-4.43-2.27,0-5.18-2.39-6.23-5.11-1.7-4.42-7.66-7.89-13.58-7.89-3.14,0-4.34-.64-4.53-.89.02,0,.06-.24.32-.67,3.56-5.77-12.94-21.92-20.2-28.6-20.44-18.8-21.61-21.8-19.57-31.96,1.39-6.96,1.18-15.52-2.58-17.84-1.29-.8-3.17-5.27-3.17-10.47,0-7.32-10.25-21.15-20.41-31.61l-18.19-18.72,25.56-21.95c17.5-15.02,24.65-19.84,29.43-19.84,1.16,0,2.26.3,3.48.95,1.47.79,6.47,3.35,9.14,3.35,1.67,0,2.35-.99,2.57-1.42.41-.76,4.76-7.15,10.31-15.09,13.69-19.56,13.94-50.69.5-62.85-4.22-3.81-7.6-6.18-11.44-6.18-2.46,0-4.91.9-8.45,3.11-4.89,3.05-8.55,4.6-10.88,4.6-1.27,0-1.75-.48-2.06-.95-.41-.63-.9-1.93-.9-4.61,0-12.09,22.55-31.78,39.55-34.54,22.38-3.63,29.76-11.47,32.91-34.95,1.93-14.41,7.8-23.01,15.69-23.01,3.92,0,8.31,2.15,12.68,6.22,5.87,5.47,10.86,9.11,16.11,9.11,6.19,0,11.55-4.93,18.71-13.44,4.95-5.88,8.32-9.73,10.15-9.73,1.22,0,3.18,1.86,5.43,4.1,3.83,3.84,3.94,5.2,3.94,5.38h0s-.21.14-.69.3c-16.89,5.63-28.28,21.27-27.94,31.78.19,5.64,3.59,9.74,9.33,11.24,8.85,2.32,26.26,44.01,22.6,59.3-5.05,21.04-4.92,25.44,7.87,28.58,3.05.75,4.5,1.38,5.18,1.77-.11.07-.23.16-.38.25-4.16,2.57-6.4,11.15-6.4,17.92,0,10.1,1.78,14.91,11.91,14.99,14.18.1,19.08,4.09,22.11,28.88,2.64,21.64,3.98,25.03,18.48,29.3,10.81,3.18,12.56,5.93,12.6,13.11.03,5.58.14,22.56,14.61,22.56,1.93,0,4.01-.29,6.36-.88,2.11-.53,3.85-.79,5.33-.79,3.97,0,6.68,1.85,10.34,7.09,3.45,4.92,6.27,7.97,9.71,7.97,2.5,0,4.5-1.71,5.79-3,2.18-2.18,10.05-4.61,17.85-4.61h12.04l1.18,38c1.15,37.15,1.3,41.92,13.11,43.59,3.46.49,5.71,1.84,6.4,2.96.26.41.19.62.16.71-2.44,7.34-63.14,52.34-70.59,52.35-.94-.14-1.94-.22-2.96-.22-13.74,0-29.41,12.79-29.41,24.01,0,13.08-6.79,24.99-14.24,25-5.36,0-17.36,8.1-25.92,15.72-9.68,8.61-20.22,14.62-23.62,14.62-6.1,0-10.5,2.57-12.08,7.03-1.96,5.52,1.1,12.6,7.8,18.02,8.38,6.79,9.07,7.34,4.73,28.52-4.48,21.87-3.95,24.56,8.08,41.17,7.26,10.02,11.82,18.65,11.9,20.42,0,8.77-12.31,14.89-29.94,14.89-24.72,0-34.76,11.32-38.36,43.28-1.31,11.64-2.55,15.77-4.75,15.77-.55,0-1.24-.14-2.13-.42-1.22-.39-2.48-.58-3.76-.58-4.69,0-9.48,2.73-12.51,7.13-2.99,4.35-3.75,9.61-2.04,14.06.72,1.88.69,2.53.67,2.68,0,0-.01,0-.02,0-.11,0-.65.19-2.05.19-1.55,0-3.78-.22-7.01-.7-2.25-.33-4.33-.5-6.2-.5-7.98,0-10.84,3.1-11.84,5.69-1.08,2.82-5.18,4.29-8.67,4.29Z"/>
        <path class="cls-3" d="M196.22,4.38c.92.44,3.06,2.59,3.9,3.43,1.16,1.16,1.92,2.05,2.42,2.69-17.12,6.44-28.11,22.16-27.74,33.31.22,6.67,4.21,11.5,10.95,13.27,2.5.65,8.69,8.4,14.61,23.58,5.32,13.64,7.9,26.94,6.42,33.11-4.86,20.26-5.76,27.45,9.46,31.2.62.15,1.16.3,1.63.43-3.22,4.12-4.89,11.31-4.89,17.4,0,10.8,2.3,17.07,14.06,17.15,12.37.08,16.96,2.31,19.97,26.97,2.71,22.21,4.44,26.53,20.02,31.12,10.14,2.99,11.01,5.14,11.04,11.04.1,16.4,5.74,24.72,16.78,24.72,2.11,0,4.36-.31,6.89-.94,1.94-.49,3.51-.72,4.8-.72,2.76,0,4.94.98,8.57,6.16,3.85,5.49,7.11,8.9,11.49,8.9,3.3,0,5.76-2.08,7.32-3.64,1.62-1.62,8.78-3.97,16.32-3.97h9.94l1.12,35.9c1.15,37.06,1.36,43.74,14.97,45.67,2.21.31,3.68,1.01,4.39,1.53-6.34,9.45-59.54,48.77-68.04,50.17-.98-.13-2-.2-3.04-.2-6.77,0-14.59,2.99-20.92,7.99-6.77,5.36-10.66,11.99-10.66,18.19,0,12.85-6.49,22.83-12.08,22.83-6.66,0-20.01,9.73-27.36,16.27-10.21,9.09-20.01,14.06-22.18,14.07-6.97,0-12.25,3.17-14.13,8.48-2.3,6.5.95,14.33,8.48,20.42,7.74,6.27,8.05,6.51,3.97,26.4-4.61,22.51-3.98,25.72,8.45,42.88,6.97,9.62,11.06,17.44,11.49,19.32-.18,7.29-11.8,12.56-27.76,12.56-25.82,0-36.8,12.25-40.51,45.2-1.08,9.63-2.07,12.88-2.75,13.84-.22-.02-.63-.09-1.31-.31-1.43-.46-2.92-.69-4.42-.69-5.48,0-10.82,3.02-14.29,8.07-3.37,4.91-4.24,10.87-2.32,15.97-1.41-.05-3.36-.27-6.04-.66-2.35-.35-4.54-.52-6.5-.52-9.21,0-12.62,3.86-13.86,7.09-.62,1.62-3.54,2.89-6.65,2.89-2.44,0-4-.82-4.03-1.27-.19-2.52-.08-21.37.37-45.43.73-38.26-.25-43.35-11.63-60.55-9.53-14.41-10.62-19.17-8.95-39.19,1.95-23.35.62-27.94-12.94-44.71-11.52-14.25-12.86-18.3-11.97-36.07.62-12.33,2.5-24.36,3.8-27.45,2.72-6.47-.46-16.07-4.82-22.73-2.78-4.24-4.6-7.15-4.5-8.85.1-1.81,2.29-4.84,5.61-9.28,5.46-7.28,6.76-9.01,19.78-9.01,4.38,0,9.91.22,18,.6,8.62.4,13.82.57,17.96.57,14.34,0,19.2-2.15,23.66-10.48,2.11-3.94,3.89-7.8,2.46-11.6-1.5-4.01-5.74-5.9-11.14-7.95-5.84-2.22-14.34-4.58-18.59-4.58-1.12,0-3.38-1.56-4.2-3.72-2.03-5.29-8.74-9.28-15.6-9.28-.68,0-1.24-.03-1.68-.08,1-5.69-6.14-15.6-21.26-29.5-20.39-18.75-20.7-21.02-18.92-29.94.33-1.63,3-16.06-3.45-20.03-.79-.72-2.25-4.34-2.25-8.71,0-8.47-11.33-23.13-21.03-33.11l-16.58-17.06,23.82-20.44c14.25-12.23,23.41-19.32,28.02-19.32.8,0,1.55.21,2.45.7,2.52,1.35,7.18,3.61,10.16,3.61,1.99,0,3.68-.97,4.45-2.51.45-.79,4.35-6.56,10.2-14.92,14.24-20.35,14.34-52.89.18-65.7-4.6-4.16-8.36-6.74-12.89-6.74-3.6,0-6.87,1.74-9.59,3.44-5.95,3.72-8.65,4.27-9.73,4.27-.12,0-.2,0-.25,0-.01,0-.02,0-.02,0-.13-.22-.53-1.09-.53-3.39,0-10.14,20.6-29.62,37.73-32.4,23.33-3.79,31.44-12.39,34.71-36.8,1.75-13.03,6.94-21.13,13.54-21.13,3.37,0,7.24,1.95,11.2,5.64,6.25,5.82,11.63,9.7,17.58,9.7,7.03,0,12.79-5.21,20.37-14.21,2.77-3.29,6.91-8.21,8.49-8.92M196.23,0c-2.74,0-5.65,3.19-11.81,10.5-7.2,8.56-12.03,12.66-17.05,12.66-4.23,0-8.59-2.91-14.63-8.53-4.94-4.61-9.78-6.81-14.16-6.81-8.77,0-15.68,8.84-17.84,24.89-3.02,22.49-9.72,29.63-31.11,33.1-18.3,2.97-41.37,23.42-41.37,36.68,0,5.16,1.65,7.73,5.13,7.73,2.79,0,6.77-1.65,12.02-4.93,2.92-1.82,5.14-2.78,7.3-2.78,2.94,0,5.75,1.79,9.98,5.62,12.54,11.35,12.13,41.49-.83,60-5.36,7.65-10.07,14.56-10.47,15.35-.08.16-.3.23-.64.23-1.35,0-4.58-1.2-8.12-3.09-1.45-.78-2.89-1.21-4.5-1.21-5.68,0-13.43,5.42-30.84,20.36L0,223.23l19.8,20.37c11.57,11.9,19.8,24.41,19.8,30.09,0,5.35,1.89,10.89,4.19,12.31s3.02,8.44,1.6,15.58c-2.3,11.52-.02,15.36,20.23,33.98,13.15,12.09,21.56,23.05,19.82,25.86-1.86,3.01.45,4.87,6.05,4.87,4.98,0,10.18,2.93,11.56,6.5,1.37,3.58,5.09,6.5,8.25,6.5s10.84,1.93,17.05,4.29c9.86,3.75,10.67,5.46,6.39,13.45-3.34,6.24-6.12,8.19-19.84,8.19-4.57,0-10.34-.22-17.76-.56-7.66-.36-13.55-.6-18.2-.6-14.34,0-16.93,2.32-23.25,10.74-8.39,11.18-8.44,12.15-1.27,23.11,4.36,6.66,6.22,14.46,4.45,18.67-1.67,3.98-3.53,16.99-4.13,28.91-.95,18.82.75,23.96,12.93,39.01,12.91,15.97,13.86,19.26,11.99,41.63-1.76,21.05-.47,26.64,9.65,41.94,10.78,16.29,11.62,20.77,10.91,58.08-.42,22.23-.59,42.86-.36,45.84.27,3.55,4.13,5.28,8.36,5.28,4.43,0,9.25-1.92,10.69-5.68,1.09-2.85,4.47-4.31,9.82-4.31,1.75,0,3.71.16,5.87.47,3.14.46,5.55.72,7.33.72,4.49,0,5.02-1.64,3.42-5.8-3.22-8.4,4.27-18.25,12.53-18.25,1.03,0,2.07.15,3.11.48,1.05.33,1.97.52,2.78.52,3.95,0,5.4-4.39,6.9-17.7,3.48-30.89,12.64-41.35,36.2-41.35,19.02,0,32.1-6.95,32.1-17.07,0-2.57-5.54-12.33-12.32-21.68-11.69-16.14-12.08-18.14-7.71-39.46,4.32-21.08,3.98-22.97-5.49-30.64-11.31-9.16-9.65-21.2,2.92-21.2,4.41,0,15.69-6.83,25.06-15.17,9.37-8.34,20.39-15.17,24.48-15.17,8.79,0,16.41-12.61,16.41-27.16,0-10.31,14.95-21.84,27.24-21.84.91,0,1.8.06,2.68.19.09.01.18.02.28.02,8.53,0,69.8-45.29,72.64-53.83.93-2.8-2.81-5.72-8.31-6.5-9.52-1.35-10.06-3.36-11.25-41.52l-1.25-40.1h-14.14c-7.78,0-16.5,2.36-19.38,5.24-1.55,1.55-2.89,2.37-4.26,2.37-2.25,0-4.55-2.22-7.94-7.05-3.95-5.63-7.25-8.01-12.12-8.01-1.72,0-3.64.3-5.85.85-2.15.54-4.09.81-5.83.81-8.51,0-12.36-6.49-12.45-20.41-.05-8.67-3.07-11.91-14.15-15.17-13.08-3.85-14.29-5.82-16.94-27.48-2.97-24.37-7.94-30.67-24.24-30.78-7.89-.05-9.75-2.5-9.75-12.82,0-7.01,2.42-14.24,5.37-16.07,3.64-2.25,1.88-4.18-5.42-5.98-10.74-2.64-11.31-4.99-6.28-25.98,3.72-15.51-13.27-59.05-24.15-61.9-16.92-4.42-3.96-31.3,18.74-38.87,3.54-1.18,2.78-4.1-2.4-9.28-3.04-3.04-4.95-4.74-6.96-4.74h0Z"/>
      </g>
      <g>
        <g class="cls-4">
          <path class="cls-5" d="M214.91,307.49c0,6.75-19.39,12.24-43.35,12.24s-43.35-5.49-43.35-12.24,19.39-12.24,43.35-12.24,43.35,5.49,43.35,12.24Z"/>
        </g>
        <path class="cls-6" d="M171.57,305.44s-82.2-139.78,0-139.78,0,139.78,0,139.78Z"/>
        <circle class="cls-1" cx="171.63" cy="204.11" r="17.74"/>
      </g>
      <g>
        <path class="cls-6" d="M488.13,308.87c0-8.37,6.8-15.17,15.17-15.17h0c8.37,0,15.17,6.8,15.17,15.17h0c0,8.36-6.8,15.17-15.17,15.17h0c-8.37,0-15.17-6.81-15.17-15.17ZM435.99,308.87c0-8.37,6.76-15.17,15.17-15.17h0c8.36,0,15.17,6.8,15.17,15.17h0c0,8.36-6.81,15.17-15.17,15.17h0c-8.41,0-15.17-6.81-15.17-15.17ZM387.83,308.87c0-8.37,6.76-15.17,15.13-15.17h0c8.41,0,15.21,6.8,15.21,15.17h0c0,8.36-6.8,15.17-15.21,15.17h0c-8.37,0-15.13-6.81-15.13-15.17ZM339.67,308.87c0-8.37,6.76-15.17,15.13-15.17h0c8.41,0,15.17,6.8,15.17,15.17h0c0,8.36-6.76,15.17-15.17,15.17h0c-8.37,0-15.13-6.81-15.13-15.17ZM287.47,308.87c0-8.37,6.76-15.17,15.17-15.17h0c8.37,0,15.17,6.8,15.17,15.17h0c0,8.36-6.8,15.17-15.17,15.17h0c-8.41,0-15.17-6.81-15.17-15.17ZM239.31,308.87c0-8.37,6.76-15.17,15.17-15.17h0c8.36,0,15.17,6.8,15.17,15.17h0c0,8.36-6.81,15.17-15.17,15.17h0c-8.41,0-15.17-6.81-15.17-15.17Z"/>
        <path class="cls-6" d="M206.33,324.04c-1,0-2-.09-2.99-.3-.95-.17-1.91-.48-2.82-.87-.91-.35-1.82-.82-2.64-1.39-.82-.56-1.6-1.17-2.3-1.86-2.82-2.82-4.42-6.76-4.42-10.75,0-1,.09-1.99.3-2.95.17-.99.48-1.95.82-2.86.39-.91.87-1.77,1.43-2.6.52-.82,1.17-1.6,1.86-2.3.69-.69,1.47-1.34,2.3-1.9s1.73-1,2.64-1.39,1.86-.69,2.82-.87c1.95-.39,3.99-.39,5.94,0,.95.17,1.91.48,2.86.87.91.39,1.78.83,2.6,1.39s1.6,1.21,2.3,1.9c.69.69,1.34,1.48,1.91,2.3.52.83,1,1.69,1.39,2.6.39.91.65,1.87.87,2.86.17.96.3,1.95.3,2.95,0,3.99-1.65,7.89-4.47,10.75-2.82,2.82-6.72,4.42-10.71,4.42Z"/>
      </g>
    </g>
  </g>
</svg>