<?xml version="1.0" encoding="UTF-8"?>
<svg id="Layer_2" data-name="Layer 2" xmlns="http://www.w3.org/2000/svg" viewBox="0 0 1089.59 696.97">
  <defs>
    <style>
      .cls-1 {
        fill: #fff;
      }

      .cls-2 {
        fill: #f3f3f3;
      }

      .cls-3 {
        fill: #e2e2e2;
      }

      .cls-4 {
        opacity: .25;
      }

      .cls-5 {
        fill: #17283f;
      }

      .cls-6 {
        fill: #3ac6f4;
      }

      .cls-7 {
        fill: #334ba0;
      }
    </style>
  </defs>
  <g id="Layer_1-2" data-name="Layer 1">
    <g>
      <g>
        <path class="cls-7" d="M670.53,691.51l4.27-9.76v-4.95l6.76-1.69,1.73,1.44.35,3.15-12.75,12.22-.36-.42ZM691.58,672.64l1.14-11.91,9.15-14.04,14.4-3.2-1.22-6.11h4.85l-1.39-6.93h5.59l1.57-8.61,5.8-2.42,11.61.97-.55-5.6,6.3,2.29,1.22-6.73,3.7,2.22,15.98-2.4,8.69-6.75-1.13-5.07,50.62-12.49,11.06-7.1,2.92-6.56,8.82-8.42-1.01,5.71-5.77,3.84-9.15,18.31h20.83l10.68-19.83,1.24-2.07,8.43,1.87.93-8.34,7.57-4.45,4.45,6.11-1.44,1.11-22.48,21.74-29.95,20.57-11,.73-8.61,11.14v-4.69l-32.64,18.31-9.09-.76-6.15,7.69-18.8,7.96-2.56,10.25-2.05.85-15.94,5.97h-14.34l-5.88,8.48-6.1-1.66-8.15,1.88-2.16-1.85ZM692.99,610.01l-103.23-34.64-11.82-8.13-13.11,2.08-18.96-13.91-21.38-41.33h-13.3l-2.43-9.11-14.08-9.11L8.49,591.71l-4.82-36.11,29.09-26.39,4.05-11.48,27.18-17.42,4.23-16.89,15.41-13.4,7.04-9.67-13.44-26.08-11.91-3.5-11.34-18.9-1.19-19.07,50.19-25.76,56.33-10.99,29,.06,22.35,11.18,8.35-.93,12.6-11.2,22.3-4.59h21.25l19.28-9.64,17.73-18.44,16.09-20.76,12.3-2.58,9.73-4.42,3.15-25.16-10.66-20.55-4.32-2.53,10.83-7.03-.99-17.75h-12.69l-13.5-8.22-.59-18.08,42.52-41.84,4.99-17.08,25.23-42.95,40.61-44.07,13.17-10.62,16.52.67L604.98,4.06l3.75,7.97-4.54,14.39,9.8,6.31-2.31,8.65,3.75,23.97,14.78,15.44-2.61,14.32,4.05,13.5-2.51,6.29-2.19,27.75,21.2,45.82-5.51,12.39,9.51,23.24,7.77-13.8,9,7.1,20.36,96.37-3.78,15.09,7.96,7.25-3.44,103.48,5.07,7.24,19.48,113.42,10.49,8.74-23.71,23.03,12.47,16.14-8.06,20.47-9.99,11.32-5.36,8.18,2.59-38.12ZM901.71,553.82l5.34-6.41,3.18.19-2.29,2.74-6.7,5.15.47-1.67Z"/>
        <path class="cls-3" d="M603.06,8.11l1.96,4.16-3.34,10.58-1.6,5.05,4.46,2.86,5.45,3.5-1.47,5.51-.38,1.41.22,1.44,3.46,22.17.34,2.15,1.5,1.57,12.8,13.38-2.14,11.77-.3,1.64.48,1.59,3.46,11.54-1.87,4.68-.39.98-.08,1.05-2.08,26.33-.14,1.81.76,1.65,20.16,43.57-4.27,9.6-1.2,2.7,1.12,2.74,6.24,15.24,5.43,13.26,7.02-12.49,2.26-4.02,4.84,3.82,19.94,94.36-3.08,12.31-1,4.02,3.07,2.79,5.25,4.77-3.36,100.72-.08,2.31,1.33,1.89,3.96,5.66,19.13,111.4.43,2.52,1.96,1.63,6.56,5.46-18.73,18.19-4.44,4.31,3.78,4.9,9.37,12.13-7.12,18.07-8.05,9.12,1.56-22.99.36-5.33-5.07-1.7-100.23-33.64-10.28-7.07-2.28-1.57-2.73.43-10.31,1.63-17.15-12.57-20.04-38.74-1.94-3.74h-12.75l-1.4-5.25-.69-2.58-2.24-1.45-11.78-7.62-2.35-1.52-2.75.54L11.44,587.59l-4.09-30.66,27.1-24.58,1.3-1.18.58-1.65,3.36-9.53,25.02-16.04,2.32-1.48.67-2.67,3.63-14.51,14.29-12.43.59-.52.46-.64,5.54-7.62,2.51-3.45-1.96-3.8-11.78-22.86-1.36-2.64-2.84-.84-9.18-2.7-10.21-17.02-1-15.96,47.75-24.5,55.19-10.77h28.18l20.71,10.35,1.83.92,2.03-.23,6.23-.69,2.19-.24,1.65-1.46,11.08-9.85,21.04-4.33h21.71l1.46-.73,18.01-9.01,1.07-.53.83-.86,17.32-18.01.26-.27.23-.29,15.07-19.46,10.67-2.25.75-.16.69-.31,7.62-3.46,3.53-1.6.48-3.84,2.77-22.17.27-2.14-.99-1.91-9.7-18.71-.92-1.78-.34-.2,4.43-2.88,3.36-2.19-.22-4.01-.69-12.47-.36-6.54h-15l-11.08-6.74-.47-14.7,40.79-40.13,1.29-1.27.51-1.73,4.61-15.8,24.82-42.26,40.03-43.42,12.13-9.82,14.71.59,1,.04.97-.25,137.18-34.63M883.51,563.41l.69.95-4.42,4.28.05-.46.31-2.79,3.37-1.98M869.22,573.68l2.21.49,2.14.48-10.18,9.86,5.79-10.76.04-.07M833.54,586.38l-4.37,8.75h18.98l-14.29,9.84-8.49.57-3.11.21-1.91,2.47-1.45,1.87v-.46l-10.32,5.79-26.56,14.89-6.2-.52-3.68-.31-2.31,2.88-4.45,5.56-16.4,6.94-3.18,1.35-.84,3.35-1.39,5.54-.33,1.34-.23.09-15.45,5.79h-15.54l-2.07,2.99-3.44,4.98-2.89-.79-1.68-.46-1.7.39-5,1.16.83-8.68,7.92-12.14,9.71-2.16,6.62-1.47-1.06-5.29h4.85l-1.39-6.93h4.26l1.04-5.69.71-3.91,3.28-1.36,6.63.55,8.3.69-.42-4.24,4.98,1.81,1.06-5.85.47.28,2.46-.37,13.86-2.08,1.79-.27,1.43-1.11,6.23-4.85,3.46-2.69-.87-3.91,46.77-11.54,1.12-.28.97-.62,3.27-2.1M679.04,679.32l-.78.75v-.55l.78-.19M606.9,0l-142.72,36.03-17.32-.69-14.55,11.78-40.88,44.34-25.63,43.65-4.85,16.63-42.96,42.26.69,21.48,15.94,9.7h10.39l.69,12.47-13.86,9.01,8.31,4.85,9.7,18.71-2.77,22.17-7.62,3.46-13.16,2.77-16.63,21.48-17.32,18.01-18.01,9.01h-20.78l-23.55,4.85-12.47,11.09-6.23.69-22.17-11.09h-30.48l-56.81,11.09-52.65,27.02,1.39,22.17,12.47,20.78,11.78,3.46,11.78,22.86-5.54,7.62-15.94,13.86-4.16,16.63-27.02,17.32-4.16,11.78-29.79,27.02,5.54,41.57,488.43-96.3,11.78,7.62,2.77,10.39h13.86l20.78,40.18,20.78,15.24,13.16-2.08,11.08,7.62,101.15,33.95-2.77,40.88,1.39,4.85,10.39-15.93,10.39-11.78,9.01-22.86-11.78-15.24,24.25-23.55-12.47-10.39-19.4-112.93-4.85-6.93,3.46-103.92-7.62-6.93,3.46-13.86-20.78-98.38-13.16-10.39-6.23,11.09-6.24-15.24,5.54-12.47-21.48-46.42,2.08-26.33,2.77-6.93-4.16-13.86,2.77-15.24-15.24-15.94-3.46-22.17,2.77-10.39-9.7-6.24,4.16-13.16-5.54-11.78h0ZM899.96,516.84l-9.01.69-3.46,6.93,12.47-7.62h0ZM872.94,536.93l-4.85,6.24h-4.85l-7.62,5.54-1.39,6.93-15.24,14.55-2.77,6.23-9.7,6.24-53.35,13.16,1.39,6.24-6.23,4.85-13.86,2.08-6.93-4.16-1.39,7.62-7.62-2.77.69,6.93-8.31-.69-8.31,3.46-1.39,7.62h-6.93l1.39,6.93h-4.85l1.39,6.93-12.47,2.77-10.39,15.93-1.39,14.55,4.85,4.16,9.01-2.08,7.62,2.08,6.23-9.01h13.16l16.63-6.23,35.33-14.55-3.46-3.46-13.16,5.54-13.86,6.23,1.39-5.54,18.01-7.62,5.54-6.93,8.31.69,28.41-15.93v4.85l-29.1,20.78,31.18-19.4,11.78-15.24,10.39-.69,31.18-21.48,22.17-21.48,20.78-15.94,6.93-8.31-11.78-.69-6.93,8.32-1.39,4.85-6.23,4.85-5.54-7.62-11.78,6.93-.69,6.24-6.23-1.39,3.46-6.23-8.31-4.85-4.16,6.23,6.24,2.08,1.39,3.46-2.08,3.46-9.7,18.01h-13.16l6.24-12.47,6.23-4.16,2.08-11.78,9.7-11.09,6.24-5.54,10.39-4.85-8.31-1.39h0ZM682.42,671.34l-11.09,2.77v6.93l-4.85,11.09,4.16,4.85,16.63-15.94-.69-6.23-4.16-3.46h0Z"/>
      </g>
      <g>
        <rect class="cls-2" x="750.66" y="200.17" width="338.93" height="116.47" rx="58.24" ry="58.24"/>
        <g>
          <path class="cls-7" d="M806.5,274.85v-35.59h3.1l24.55,30.91h-1.63v-30.91h3.71v35.59h-3.1l-24.51-30.91h1.63v30.91h-3.76Z"/>
          <path class="cls-7" d="M858.4,275.1c-2.78,0-5.22-.58-7.32-1.75-2.1-1.17-3.75-2.78-4.93-4.83-1.19-2.05-1.78-4.4-1.78-7.04s.57-4.98,1.7-7.02c1.14-2.04,2.69-3.64,4.68-4.8s4.21-1.75,6.69-1.75,4.74.57,6.68,1.7c1.95,1.13,3.48,2.73,4.6,4.78,1.12,2.05,1.68,4.42,1.68,7.09,0,.17,0,.35-.02.53-.02.18-.03.38-.03.58h-23.23v-2.69h21.3l-1.42,1.07c0-1.93-.42-3.65-1.25-5.16-.83-1.51-1.96-2.69-3.38-3.53-1.42-.85-3.07-1.27-4.93-1.27s-3.48.42-4.93,1.27c-1.46.85-2.59,2.03-3.41,3.56-.81,1.52-1.22,3.27-1.22,5.24v.56c0,2.03.45,3.82,1.35,5.36.9,1.54,2.15,2.74,3.76,3.61,1.61.86,3.45,1.3,5.52,1.3,1.63,0,3.14-.29,4.55-.87,1.41-.57,2.62-1.46,3.64-2.64l2.03,2.34c-1.19,1.42-2.67,2.51-4.45,3.25s-3.74,1.12-5.87,1.12Z"/>
          <path class="cls-7" d="M883.21,274.85l-10.07-26.69h3.46l9.15,24.76h-1.57l9.41-24.76h3.1l9.3,24.76h-1.57l9.3-24.76h3.3l-10.12,26.69h-3.41l-8.95-23.28h1.07l-9,23.28h-3.41Z"/>
          <path class="cls-7" d="M945.03,274.85v-13.22l.86,2.34-15.1-24.71h4.02l13.27,21.71h-2.13l13.27-21.71h3.76l-15.1,24.71.86-2.34v13.22h-3.71Z"/>
          <path class="cls-7" d="M978.94,275.1c-2.58,0-4.89-.58-6.94-1.75-2.05-1.17-3.67-2.78-4.86-4.83-1.19-2.05-1.78-4.4-1.78-7.04s.59-5.04,1.78-7.07c1.19-2.03,2.8-3.63,4.83-4.78,2.03-1.15,4.36-1.73,6.97-1.73s4.99.58,7.04,1.73c2.05,1.15,3.66,2.74,4.83,4.78s1.75,4.39,1.75,7.07-.58,4.99-1.75,7.04c-1.17,2.05-2.79,3.66-4.85,4.83-2.07,1.17-4.41,1.75-7.02,1.75ZM978.94,271.9c1.93,0,3.64-.43,5.13-1.3,1.49-.87,2.67-2.09,3.53-3.66s1.3-3.4,1.3-5.46-.43-3.93-1.3-5.49-2.04-2.77-3.53-3.64c-1.49-.86-3.19-1.3-5.08-1.3s-3.59.43-5.08,1.3c-1.49.86-2.68,2.08-3.56,3.64-.88,1.56-1.32,3.39-1.32,5.49s.44,3.89,1.32,5.46c.88,1.57,2.07,2.79,3.56,3.66,1.49.86,3.17,1.3,5.03,1.3Z"/>
          <path class="cls-7" d="M999.94,274.85v-26.69h3.46v7.27l-.36-1.27c.74-2.03,2-3.58,3.76-4.65,1.76-1.07,3.95-1.6,6.56-1.6v3.51c-.14,0-.27,0-.41-.02-.14-.02-.27-.02-.41-.02-2.81,0-5.02.86-6.61,2.57-1.59,1.71-2.39,4.14-2.39,7.3v13.63h-3.61Z"/>
          <path class="cls-7" d="M1020.32,274.85v-37.72h3.61v37.72h-3.61ZM1023.17,267.93l.1-4.63,16.62-15.15h4.42l-11.74,11.24-2.03,1.73-7.37,6.81ZM1041.02,274.85l-11.13-13.88,2.34-2.8,13.22,16.68h-4.42Z"/>
        </g>
      </g>
      <g>
        <g class="cls-4">
          <path class="cls-5" d="M532.48,297.59c0,4.61-13.24,8.36-29.61,8.36s-29.61-3.75-29.61-8.36,13.24-8.36,29.61-8.36,29.61,3.75,29.61,8.36Z"/>
        </g>
        <path class="cls-6" d="M502.87,296.19s-56.14-95.47,0-95.47,0,95.47,0,95.47Z"/>
        <circle class="cls-1" cx="502.92" cy="226.98" r="12.12"/>
      </g>
      <g>
        <path class="cls-6" d="M729.87,267.87c-.68,0-1.36-.06-2.04-.21-.65-.12-1.3-.33-1.93-.59-.62-.27-1.24-.56-1.81-.95s-1.1-.8-1.57-1.3c-.47-.47-.92-1.01-1.27-1.57-.38-.56-.71-1.15-.98-1.78-.24-.62-.44-1.27-.56-1.95-.15-.65-.21-1.33-.21-2.02,0-2.72,1.1-5.39,3.02-7.31,3.85-3.88,10.78-3.88,14.66,0,.47.47.92,1.01,1.3,1.57.36.56.68,1.15.95,1.78.24.62.44,1.27.59,1.95.12.65.21,1.33.21,2.01s-.09,1.36-.21,2.02c-.15.68-.35,1.33-.59,1.95-.27.62-.59,1.21-.95,1.78-.38.56-.83,1.1-1.3,1.57-.47.5-1.01.92-1.57,1.3s-1.16.68-1.81.95c-.62.27-1.27.47-1.93.59-.68.15-1.36.21-2.01.21Z"/>
        <path class="cls-6" d="M683.85,257.51c0-5.71,4.65-10.36,10.36-10.36h0c5.71,0,10.36,4.65,10.36,10.36h0c0,5.72-4.65,10.36-10.36,10.36h0c-5.72,0-10.36-4.65-10.36-10.36ZM650.96,257.51c0-5.71,4.62-10.36,10.36-10.36h0c5.71,0,10.36,4.65,10.36,10.36h0c0,5.72-4.65,10.36-10.36,10.36h0c-5.75,0-10.36-4.65-10.36-10.36Z"/>
        <path class="cls-6" d="M618.06,257.51c0-5.71,4.62-10.36,10.36-10.36h0c5.72,0,10.36,4.65,10.36,10.36h0c0,5.72-4.65,10.36-10.36,10.36h0c-5.74,0-10.36-4.65-10.36-10.36ZM582.41,257.51c0-5.71,4.65-10.36,10.36-10.36h0c5.72,0,10.36,4.65,10.36,10.36h0c0,5.72-4.65,10.36-10.36,10.36h0c-5.71,0-10.36-4.65-10.36-10.36ZM549.52,257.51c0-5.71,4.65-10.36,10.36-10.36h0c5.72,0,10.36,4.65,10.36,10.36h0c0,5.72-4.65,10.36-10.36,10.36h0c-5.72,0-10.36-4.65-10.36-10.36Z"/>
      </g>
    </g>
  </g>
</svg>