<?xml version="1.0" encoding="UTF-8"?>
<svg id="Layer_2" data-name="Layer 2" xmlns="http://www.w3.org/2000/svg" viewBox="0 0 1151.77 711.33">
  <defs>
    <style>
      .cls-1 {
        fill: #fff;
      }

      .cls-2 {
        fill: #f3f3f3;
      }

      .cls-3 {
        fill: #e2e2e2;
      }

      .cls-4 {
        opacity: .25;
      }

      .cls-5 {
        fill: #17283f;
      }

      .cls-6 {
        fill: #3ac6f4;
      }

      .cls-7 {
        fill: #334ba0;
      }
    </style>
  </defs>
  <g id="Layer_1-2" data-name="Layer 1">
    <g>
      <g>
        <path class="cls-7" d="M930.76,705.96l-3.88-.58-10.01-10.89-7.41-1.94h-21l-7.79-2.23-10.42-8.68-5.61-3.33-6.09.29-9.27-7.53-15.21-4.5v-3.26l-4.24-5.45-2.65-13.85-3.54-5.47-4.67-3.85v-5.01l-3.9-1.68,1.56-6.75-.99-7.25-3.63-3.91,1.97-8.46-2.57-10.29-5.82-4.79h-3.23l-10.88-9.52.28-5.28-2.83-6-2.3-.57-2.53-6.76-6.24-4.99-8.1-6.98-.6-6.31-2.79-1.95.44-3.48,1.97-2.75-4.49-4.81.29-2.06-5.98-6.58.29-6.03-8.04-14.58-.29-5.05-5.62-9.67-14.79-13.92v-3.52l-9.82-5.06-.3-5.49-3.5-1.17v-2.16l-2.98-.75-6.35-8.46h-2.56l-2.61-2.24-4.4,3.72h-5.67l-7.7-3.26h-13.57l-13.28-6.64-3.98,5.82-5.95-1.62-10.7,3.89-5.31,8.74-6.03,9.66-3.2,12.8-3.43,2.94-3.56.33-2.81,5-4.22,1.95-.27,4.87-6.67.23-5.31-4.42h-2.72l-5.85-8.48-10.69-1.49-5.03-6.8-4.29-.66-5.77-2.2-9.25-9.25.63-2.51-5.86-4.39-2.88-.29-9.25-8.44-.29-5.67-6.74-11.72.59-4.72-1.92-3.57,2.18-4.1-.33-7.9-7.74-12.21-1.8-12.61-4.65-4.65v-3.6l-4.14-.69-1.87-2.95-7.66-5.42-2.6-.29-4.76-4v-3.39l-8.8-5.46-1.74-6.08-7.9-6.99-9.62-13.23-9.05-3.92-5.42-4.64.57-3.45-4.18-4.5-5.18-11.27-7.34-3.06-5.26-5.78.67-6.75,100.38,10.5,95.67,7.82L649.48,1.48h1l154.22,9.39-4.13,125.96,8.58,4.13,7.53,9.04,5.69,1.14,3.17-2.88,2.52.84,5.16,3.68,3.24-4.42,5.14,3.8,1.5,8.68,4.52,2.64,6.84-.29,10.37,5.63,6.51-.33,3.49-1,7.32,7,6.3-7.25,8.92,2.8,5.79,9.15,5.52-.24-1.81,5.42,8.87,4.24,8.77-7.6,7.4,4.83,2.68-1.03.21,3.14,6.67,4.71,6.89-7.48,1.65.97-.81,5.43,3.98,7.17,5.17-3.44,6.54-11,4.29,4.77,6.78,1.69,5.81-1.94,5.76,5.18,3.54-.3,3.96,3.65,12.21-3.05,1.72-4.88,9.63-.78,5.03,2.2,13.99-6.99,1.58,3.94,17.18-1.01,1.3-4.17,4.81,1.97,13.68,11.3,18.92,5.62,8.18,7.23,8.69-4.03,7.87,1.96.57,34.1,1.48,58.93,2.19,10.74,7.66,8.24,2.06,15.94,11.28,13.65,2.52,13.56h2.69l-.27,19.76-9.98,19.35,3.73,6.6-3.66,4.22,2.2,9.44-.28,12.14-6.47,10.3-.26,2.05-5.58,3.94,3.72,6.7,1.24,1.14-7.27.62-25.11,11.66-10.41,4.16.35-.38,5.51-2.14,2.91-5.25-10.36-.36-1.05-1.21,2.28-5.7-3.37-6.74h-3.07l-7.73,4.19-6.2,8.48,1.08,6.1,10.39,10.7,3.13.72v.42l-6.18,4.3-14.6,11.91-11.75,11.45-9.23,4.04-14.97,8.97-10.9,5.89-13.2,5.56-.61.37v-3.25l1.83-2.44-.79-7.14-6.49-.43-3.52,4.81-6.61,3.31-4.09-2.73-.99-5.63h-7.8l3.29,9.06,4.67,2.34,3.33,2.52,4.13,3.68-.89,1.01-11,4.8-4.11.24-4.96-4.96-2.21,9.29,1.2,2.63-6.73,4.98-4.5.6-3.06,2.68-1.25,5.3-4.99,9.15-3.72,1.63-4.85-1.82-6.84,4.18,1.24,5.79,4.39,2.7,1.87,1.51-4.9,9.54-.88,8.25-2.64,4.49-3.59,2.56-14.5,2,11.8,3.94,3.88-1.23-.72,5.76-3.74-.34.91,5.44.7,3.25-3.68,2.55v10.62l4.86,4.26,1.63,8.41-.99,5.44-3.42,1.37,1.72,6.46,3.41,1.24,1.97,4.18v7.73l3.5,6.69,6.19,7.31v.02s-5.75-.52-5.75-.52l-5.82,5.09.37,2.56-.39-.13ZM943.46,596.42l3.24-4.58-6.71,14.38,3.48-9.8ZM967.62,562.24l2.02-4.28,10.18-6.5,7.3-2.81h.36l-20.55,14.56.69-.97Z"/>
        <path class="cls-3" d="M650.85,2.99l152.33,9.27-4.05,123.55-.06,1.93,1.74.84,7.42,3.57,6.99,8.39.67.8,1.03.2,4.44.89,1.47.29,1.11-1.01,1.97-1.79,1.49.5,3.78,2.7,2.38,1.7,1.73-2.36,1.5-2.04,3.46,2.56,1.28,7.42.23,1.36,1.19.69,3.55,2.07.75.44.87-.04,5.99-.26,9.64,5.23.73.4.83-.04,5.92-.3.34-.02.33-.09,2.51-.72,5.58,5.34,2.24,2.15,2.04-2.34,4.65-5.35,7.48,2.35,5.05,7.97.92,1.45,1.71-.07,2.51-.11-.71,2.14-.83,2.48,2.36,1.13,6.81,3.26,1.75.84,1.47-1.27,7.19-6.23,5.83,3.81,1.27.83,1.42-.54.1-.04.03.43.09,1.41,1.15.81,5.03,3.55,2.13,1.5,1.76-1.91,4.89-5.31-.52,3.46-.15,1,.49.88,2.96,5.33,1.56,2.81,2.67-1.78,3.55-2.37.56-.37.34-.58,5.35-8.98,2.64,2.93.61.67.88.22,5.92,1.48.84.21.82-.27,4.58-1.53,4.64,4.18.95.86,1.28-.11,2.25-.19,2.89,2.67,1.17,1.08,1.55-.39,10.66-2.67,1.54-.39.53-1.5,1.14-3.22,8.3-.67,4.05,1.77,1.27.56,1.24-.62,11.93-5.96.58,1.45.79,1.98,2.13-.13,15.1-.89,2.04-.12.61-1.95.52-1.66,3.11,1.27,13.27,10.96.47.38.58.17,18.32,5.44,7.21,6.38,1.45,1.28,1.76-.82,7.34-3.41,6.26,1.56.56,32.99,1.48,58.92v.26s.06.26.06.26l2.07,10.07.17.81.56.61,7.05,7.6,1.95,15.05.11.85.54.66,10.76,13.03,2.23,11.98.45,2.42h2.42l-.25,17.92-9.45,18.33-.73,1.42.79,1.39,2.82,4.99-2.48,2.86-.99,1.14.34,1.47,1.99,8.52-.27,11.54-6.08,9.67-.35.56-.08.65-.13,1.07-3.96,2.8-2.17,1.53,1.29,2.32,2.63,4.73-4.14.35-.52.04-.47.22-24.8,11.51-.82.33,2.2-3.95-4.84-.17-7.3-.25-.03-.04,1.7-4.24.49-1.23-.59-1.19-2.66-5.33-.82-1.64h-4.36l-.66.36-7.11,3.85-.59.32-.39.54-5.63,7.7-.74,1.02.22,1.24.89,5.03.16.89.63.65,9.77,10.07.61.63.75.17-3.88,2.7-.09.06-.09.07-14.51,11.84-.1.08-.09.09-11.46,11.17-8.98,3.93-.17.08-.16.1-14.69,8.82-10.83,5.85-11.75,4.96v-.41l1.18-1.58.7-.94-.13-1.17-.59-5.33-.27-2.46-2.47-.16-4.44-.3-1.62-.11-.96,1.31-2.83,3.86-5.52,2.76-2.85-1.9-.67-3.79-.43-2.45h-11.15l1.45,3.97,2.37,6.51.4,1.11,1.06.53,3.91,1.95,3.24,2.43,2.88,2.56-10,4.36-3.18.19-2.61-2.61-3.75-3.75-1.23,5.15-1.48,6.22-.23.99.42.92.49,1.08-5.46,4.04-3.68.49-.89.12-.67.59-2.37,2.07-.71.63-.22.92-1.09,4.64-4.65,8.53-2.71,1.18-3.61-1.35-1.35-.51-1.23.75-5.33,3.26-1.79,1.09.44,2.05.89,4.15.27,1.24,1.08.66,3.69,2.27.93.74-4.22,8.21-.25.49-.06.55-.82,7.66-2.32,3.94-3.04,2.17-7.86,1.09-12.56,1.73,12.03,4.01,5.33,1.78.91.3.92-.29,1.22-.39-.26,2.05-.41-.04-3.82-.35.63,3.78.62,3.69.47,2.21-2.23,1.54-1.28.88v12.07l1.01.88,3.97,3.48,1.48,7.64-.79,4.36-1.44.58-2.44.98.68,2.54,1.18,4.44.4,1.49,1.45.53,2.11.77,1.57,3.33v7.76l.34.65,3.26,6.22.15.29.21.25,3.77,4.46-1.54-.14-1.26-.11-.95.84-4.74,4.15-1.21,1.06.19,1.31-1.78-.26-9.35-10.18-.59-.64-.84-.22-6.81-1.78-.37-.1h-20.99l-7.29-2.08-10.18-8.48-.19-.15-.21-.12-5.03-2.96-.76-.45-.88.04-5.09.24-8.6-6.98-.46-.37-.57-.17-13.87-4.11v-2.65l-.62-.8-3.71-4.77-2.53-13.22-.11-.57-.31-.48-3.26-5.03-.25-.39-.35-.29-3.95-3.26v-5.29l-1.79-.77-1.87-.8,1.22-5.29.12-.53-.07-.54-.89-6.51-.13-.93-.64-.69-2.78-2.99,1.71-7.35.16-.7-.17-.69-2.37-9.48-.24-.95-.75-.62-5.03-4.14-.82-.68h-3.21l-9.92-8.68.22-4.19.04-.74-.32-.67-2.37-5.03-.6-1.27-1.36-.34-.86-.21-2.12-5.65-.29-.76-.64-.51-5.84-4.67-7.68-6.63-.48-5.03-.13-1.36-1.12-.78-1.5-1.05.28-2.22,1.04-1.46,1.41-1.97-1.65-1.77-3.18-3.4.1-.67.2-1.38-.94-1.03-5.1-5.61.24-4.99.04-.84-.4-.73-7.67-13.92-.26-4.36-.04-.7-.35-.61-5.33-9.18-.22-.37-.31-.3-14.17-13.34v-3.78l-1.6-.83-8.26-4.26-.2-3.64-.11-2.01-1.91-.64-1.53-.51v-2.25l-2.24-.56-1.35-.34-5.59-7.45-.89-1.18h-2.75l-1.24-1.06-1.91-1.64-1.93,1.63-3.02,2.56h-4.83l-7.14-3.02-.55-.23h-13.52l-11.81-5.91-2.31-1.15-1.46,2.13-2.66,3.89-4.48-1.22-.91-.25-.88.32-9.77,3.55-.98.36-.54.89-5.01,8.26-5.92,9.47-.25.4-.11.45-3.03,12.11-2.71,2.32-2.32.21-1.55.14-.76,1.36-2.19,3.9-2.98,1.37-1.62.75-.1,1.78-.15,2.63-4.75.16-4.46-3.72-.82-.69h-2.48l-5.04-7.31-.74-1.07-1.29-.18-9.42-1.31-4.29-5.81-.73-.98-1.21-.19-3.54-.55-5.33-2.03-8.43-8.43.19-.74.48-1.91-1.57-1.18-4.74-3.55-.66-.5-.82-.08-1.99-.2-8.44-7.7-.23-4.7-.04-.71-.35-.62-6.32-10.98.47-3.75.12-.94-.45-.83-1.32-2.45,1.62-3.04.38-.71-.03-.8-.3-7.11-.03-.79-.43-.67-7.36-11.6-1.69-11.81-.14-.98-.7-.7-3.87-3.87v-4.24l-2.47-.41-2.25-.38-1.36-2.14-.31-.49-.47-.34-7.11-5.03-.62-.44-.76-.08-1.77-.2-3.89-3.27v-3.53l-1.4-.87-7.61-4.73-1.46-5.12-.24-.83-.65-.57-7.46-6.59-9.28-12.77-.48-.65-.74-.32-8.47-3.67-4.61-3.95.32-1.91.24-1.43-.99-1.07-3.53-3.8-4.84-10.52-.48-1.05-1.07-.45-6.5-2.71-4.59-5.05.46-4.61,98.96,10.36,94.16,7.7,2.96.24.23-2.96L650.85,2.99M650.49,0h-2.37l-23.39,294.02-94.16-7.7-101.86-10.66-.89,8.88,5.92,6.51,7.11,2.96,5.03,10.96,3.85,4.14-.59,3.55,6.22,5.33,8.88,3.85,9.48,13.03,7.7,6.81,1.78,6.22,8.59,5.33v3.26l5.63,4.74,2.66.3,7.11,5.03,2.07,3.26,3.55.59v2.96l4.74,4.74,1.78,12.44,7.7,12.14.3,7.11-2.37,4.44,2.07,3.85-.59,4.74,6.81,11.84.3,5.92,10.07,9.18,2.96.3,4.74,3.55-.59,2.37,10.07,10.07,6.22,2.37,3.85.59,5.03,6.81,10.66,1.48,5.92,8.59h2.96l5.33,4.44,8.59-.3.3-5.33,3.85-1.78,2.66-4.74,3.26-.3,4.14-3.55,3.26-13.03,5.92-9.47,5.03-8.29,9.77-3.55,6.51,1.78,3.85-5.63,12.44,6.22h13.62l7.7,3.26h6.51l3.85-3.26,2.07,1.78h2.37l6.22,8.29,2.37.59v2.07l3.55,1.18.3,5.33,9.77,5.03v3.26l15.1,14.21,5.33,9.18.3,5.03,8,14.51-.3,6.22,5.92,6.51-.3,2.07,4.15,4.44-1.48,2.07-.59,4.74,2.96,2.07.59,6.22,8.59,7.4,5.92,4.74,2.66,7.11,2.37.59,2.37,5.03-.3,5.63,11.84,10.36h3.26l5.03,4.14,2.37,9.48-2.07,8.88,3.85,4.14.89,6.51-1.78,7.7,4.14,1.78v4.74l5.03,4.14,3.26,5.03,2.66,13.92,4.15,5.33v3.85l15.99,4.74,9.47,7.7,6.22-.3,5.03,2.96,10.66,8.88,8.29,2.37h21.02l6.81,1.78,10.07,10.96,4.15.59,2.66.89-.59-4.14,4.74-4.15,6.51.59.3-2.07-6.51-7.7-3.26-6.22v-7.7l-2.37-5.03-3.26-1.18-1.18-4.44,2.96-1.18,1.18-6.51-1.78-9.18-4.74-4.15v-9.18l3.85-2.67-.89-4.14-.59-3.55,3.26.3,1.18-9.47-5.63,1.78-5.33-1.78,8.59-1.18,4.14-2.96,2.96-5.03.89-8.29,5.33-10.36-2.96-2.37-3.85-2.37-.89-4.15,5.33-3.26,4.74,1.78,4.74-2.07,5.33-9.77,1.18-5.03,2.37-2.07,4.44-.59,7.99-5.92-1.48-3.26,1.48-6.22,3.55,3.55,5.03-.3,11.55-5.03,2.07-2.37-5.33-4.74-3.55-2.67-4.14-2.07-2.37-6.51h4.44l.89,5.03,5.33,3.55,7.7-3.85,3.26-4.44,4.44.3.59,5.33-1.78,2.37v3.26l-9.48,8.88,12.14-7.4,13.32-5.63,10.96-5.92,14.8-8.88,9.47-4.15,11.84-11.55,14.51-11.84,6.81-4.74v-2.37l-3.85-.89-9.77-10.07-.89-5.03,5.63-7.7,7.11-3.85h1.78l2.66,5.33-2.37,5.92,2.07,2.37,8.59.3-1.48,2.66-5.33,2.07-6.22,6.81,2.07,1.48,5.33-5.33,10.36-4.15,24.87-11.55,10.36-.89-3.55-3.26-2.96-5.33,5.03-3.55.3-2.37,6.51-10.36.3-12.73-2.07-8.88,3.85-4.44-3.85-6.81,9.77-18.95.3-21.61h-2.96l-2.37-12.73-11.25-13.62-2.07-15.99-7.7-8.29-2.07-10.07-1.48-58.92-.59-35.24-9.47-2.37-8.29,3.85-7.7-6.81-18.95-5.63-13.62-11.25-6.51-2.67-1.48,4.74-15.1.89-1.78-4.44-14.8,7.4-4.74-2.07-10.96.89-1.78,5.03-10.66,2.67-3.85-3.55-3.55.3-5.92-5.33-6.22,2.07-5.92-1.48-5.33-5.92-7.4,12.44-3.55,2.37-2.96-5.33.89-5.92-3.55-2.07-6.81,7.4-5.03-3.55-.3-4.44-3.85,1.48-7.7-5.03-8.88,7.7-6.81-3.26,2.07-6.22-6.81.3-5.63-8.88-10.36-3.26-5.92,6.81-6.81-6.51-4.15,1.18-5.92.3-10.36-5.63-6.81.3-3.55-2.07-1.48-8.59-6.81-5.03-3.26,4.44-4.14-2.96-3.55-1.18-3.26,2.96-4.44-.89-7.4-8.88-8-3.85,4.15-126.43L650.49,0h0ZM989.21,547.18h-2.37l-7.7,2.96-10.66,6.81-2.07,4.44-24.28,34.35-8.29,23.39v26.06l10.66,35.53,1.18,13.32,2.37.3-1.78-14.21-10.36-36.42-.59-23.98,14.51-31.09,18.06-24.28,21.32-15.1v-2.07h0Z"/>
      </g>
      <g>
        <rect class="cls-2" x="222.05" y="596.15" width="442.52" height="115.18" rx="57.59" ry="57.59"/>
        <g>
          <path class="cls-7" d="M273.94,669.99v-35.19h3.07l16.09,27.45h-1.61l15.94-27.45h3.07v35.19h-3.57v-29.61h.86l-14.68,25.14h-1.76l-14.78-25.14h.96v29.61h-3.57Z"/>
          <path class="cls-7" d="M332.16,670.24c-2.62,0-4.95-.58-7.01-1.73s-3.68-2.75-4.85-4.78c-1.17-2.03-1.76-4.35-1.76-6.96s.59-4.98,1.76-6.99c1.17-2.01,2.79-3.59,4.85-4.72,2.06-1.14,4.4-1.71,7.01-1.71,2.24,0,4.27.44,6.08,1.31,1.81.87,3.23,2.18,4.27,3.92l-2.66,1.81c-.91-1.34-2.03-2.33-3.37-2.96-1.34-.64-2.8-.95-4.38-.95-1.88,0-3.57.43-5.08,1.28s-2.7,2.05-3.57,3.6c-.87,1.54-1.31,3.35-1.31,5.43s.43,3.89,1.31,5.43c.87,1.54,2.06,2.74,3.57,3.6,1.51.85,3.2,1.28,5.08,1.28,1.58,0,3.03-.32,4.38-.95,1.34-.64,2.46-1.61,3.37-2.92l2.66,1.81c-1.04,1.71-2.46,3.01-4.27,3.9-1.81.89-3.84,1.33-6.08,1.33Z"/>
          <path class="cls-7" d="M356.94,670.24c-1.98,0-3.69-.33-5.15-.98-1.46-.65-2.57-1.56-3.34-2.72-.77-1.16-1.16-2.49-1.16-4,0-1.37.33-2.62.98-3.75s1.73-2.03,3.22-2.72c1.49-.68,3.49-1.03,6.01-1.03h9.1v2.66h-9c-2.55,0-4.32.45-5.3,1.36-.99.91-1.48,2.03-1.48,3.37,0,1.51.59,2.72,1.76,3.62,1.17.91,2.81,1.36,4.93,1.36s3.75-.46,5.2-1.38,2.52-2.25,3.19-4l.8,2.46c-.67,1.74-1.83,3.13-3.49,4.17-1.66,1.04-3.75,1.56-6.26,1.56ZM366.04,669.99v-5.83l-.15-.95v-9.75c0-2.24-.63-3.97-1.89-5.18-1.26-1.21-3.13-1.81-5.61-1.81-1.71,0-3.34.28-4.88.85s-2.85,1.33-3.92,2.26l-1.61-2.66c1.34-1.14,2.95-2.02,4.83-2.64s3.85-.93,5.93-.93c3.42,0,6.06.85,7.92,2.54s2.79,4.27,2.79,7.72v16.39h-3.42Z"/>
          <path class="cls-7" d="M379.17,669.99v-37.31h3.57v37.31h-3.57Z"/>
          <path class="cls-7" d="M392.69,669.99v-37.31h3.57v37.31h-3.57Z"/>
          <path class="cls-7" d="M417.43,670.24c-2.75,0-5.16-.58-7.24-1.73-2.08-1.16-3.7-2.75-4.88-4.78-1.17-2.03-1.76-4.35-1.76-6.96s.56-4.93,1.68-6.94c1.12-2.01,2.66-3.6,4.62-4.75s4.17-1.73,6.61-1.73,4.68.56,6.61,1.69c1.93,1.12,3.44,2.7,4.55,4.72,1.1,2.03,1.66,4.37,1.66,7.02,0,.17,0,.34-.02.53-.02.18-.03.38-.03.58h-22.98v-2.66h21.07l-1.41,1.06c0-1.91-.41-3.61-1.23-5.1-.82-1.49-1.94-2.66-3.34-3.49s-3.03-1.26-4.88-1.26-3.44.42-4.88,1.26c-1.44.84-2.56,2.01-3.37,3.52-.8,1.51-1.21,3.23-1.21,5.18v.55c0,2.01.44,3.78,1.33,5.3s2.13,2.71,3.72,3.57c1.59.85,3.41,1.28,5.46,1.28,1.61,0,3.11-.28,4.5-.86,1.39-.57,2.59-1.44,3.6-2.61l2.01,2.31c-1.17,1.41-2.64,2.48-4.4,3.22s-3.7,1.1-5.81,1.1Z"/>
          <path class="cls-7" d="M450.05,643.34c2.15,0,4.03.41,5.66,1.23,1.62.82,2.9,2.07,3.82,3.75s1.38,3.79,1.38,6.33v15.33h-3.57v-14.98c0-2.78-.7-4.88-2.09-6.31-1.39-1.42-3.34-2.14-5.86-2.14-1.88,0-3.51.38-4.9,1.13-1.39.76-2.46,1.84-3.22,3.27-.76,1.43-1.13,3.14-1.13,5.16v13.88h-3.57v-26.4h3.42v7.24l-.55-1.36c.84-1.91,2.18-3.41,4.02-4.5,1.84-1.09,4.04-1.63,6.59-1.63Z"/>
          <path class="cls-7" d="M468.41,677.33l2.21-9.3.4,2.16c-.77,0-1.42-.25-1.94-.76s-.78-1.16-.78-1.96.26-1.46.78-1.96c.52-.5,1.15-.75,1.89-.75s1.4.27,1.88.8.73,1.17.73,1.91c0,.27-.02.53-.05.8-.03.27-.1.57-.2.91-.1.34-.23.74-.4,1.21l-2.11,6.94h-2.41Z"/>
          <path class="cls-7" d="M501.99,669.99v-31.98h-12.37v-3.22h28.45v3.22h-12.37v31.98h-3.72Z"/>
          <path class="cls-7" d="M534.47,670.24c-2.75,0-5.16-.58-7.24-1.73-2.08-1.16-3.7-2.75-4.88-4.78-1.17-2.03-1.76-4.35-1.76-6.96s.56-4.93,1.68-6.94c1.12-2.01,2.66-3.6,4.63-4.75s4.16-1.73,6.61-1.73,4.68.56,6.61,1.69c1.93,1.12,3.44,2.7,4.55,4.72,1.11,2.03,1.66,4.37,1.66,7.02,0,.17,0,.34-.02.53-.02.18-.03.38-.03.58h-22.98v-2.66h21.07l-1.41,1.06c0-1.91-.41-3.61-1.23-5.1-.82-1.49-1.94-2.66-3.34-3.49-1.41-.84-3.03-1.26-4.88-1.26s-3.44.42-4.88,1.26c-1.44.84-2.56,2.01-3.37,3.52-.8,1.51-1.21,3.23-1.21,5.18v.55c0,2.01.44,3.78,1.33,5.3.89,1.52,2.13,2.71,3.72,3.57,1.59.85,3.41,1.28,5.46,1.28,1.61,0,3.11-.28,4.5-.86,1.39-.57,2.59-1.44,3.6-2.61l2.01,2.31c-1.17,1.41-2.64,2.48-4.4,3.22s-3.7,1.1-5.81,1.1Z"/>
          <path class="cls-7" d="M549.6,669.99l11.16-14.48-.05,1.76-10.61-13.68h4.02l8.7,11.31-1.51-.05,8.7-11.26h3.92l-10.71,13.83.05-1.91,11.26,14.48h-4.07l-9.2-12.07,1.41.2-9.05,11.87h-4.02Z"/>
          <path class="cls-7" d="M587.91,670.24c-1.98,0-3.7-.33-5.15-.98-1.46-.65-2.57-1.56-3.34-2.72-.77-1.16-1.16-2.49-1.16-4,0-1.37.33-2.62.98-3.75s1.73-2.03,3.22-2.72c1.49-.68,3.49-1.03,6.01-1.03h9.1v2.66h-9c-2.55,0-4.32.45-5.3,1.36-.99.91-1.48,2.03-1.48,3.37,0,1.51.59,2.72,1.76,3.62,1.17.91,2.81,1.36,4.93,1.36s3.75-.46,5.2-1.38,2.52-2.25,3.19-4l.8,2.46c-.67,1.74-1.84,3.13-3.49,4.17-1.66,1.04-3.75,1.56-6.26,1.56ZM597.01,669.99v-5.83l-.15-.95v-9.75c0-2.24-.63-3.97-1.89-5.18-1.26-1.21-3.12-1.81-5.61-1.81-1.71,0-3.34.28-4.88.85-1.54.57-2.85,1.33-3.92,2.26l-1.61-2.66c1.34-1.14,2.95-2.02,4.83-2.64,1.88-.62,3.85-.93,5.93-.93,3.42,0,6.06.85,7.92,2.54s2.79,4.27,2.79,7.72v16.39h-3.42Z"/>
          <path class="cls-7" d="M617.22,670.24c-2.18,0-4.24-.31-6.18-.93-1.94-.62-3.47-1.4-4.58-2.34l1.61-2.81c1.07.8,2.45,1.5,4.12,2.09s3.44.88,5.28.88c2.51,0,4.32-.39,5.43-1.18,1.11-.79,1.66-1.84,1.66-3.14,0-.97-.31-1.73-.93-2.29-.62-.55-1.43-.97-2.44-1.25-1.01-.28-2.13-.53-3.37-.73-1.24-.2-2.47-.43-3.7-.7-1.22-.27-2.34-.66-3.34-1.18-1.01-.52-1.82-1.23-2.44-2.14-.62-.91-.93-2.11-.93-3.62s.4-2.73,1.21-3.87,1.99-2.04,3.54-2.69c1.56-.65,3.46-.98,5.71-.98,1.71,0,3.42.23,5.13.68,1.71.45,3.12,1.05,4.22,1.78l-1.56,2.87c-1.17-.8-2.43-1.38-3.77-1.73-1.34-.35-2.68-.53-4.02-.53-2.38,0-4.13.41-5.25,1.23s-1.68,1.87-1.68,3.14c0,1,.31,1.79.93,2.36.62.57,1.44,1.01,2.46,1.33,1.02.32,2.14.58,3.37.78,1.22.2,2.45.45,3.67.73,1.22.28,2.34.67,3.37,1.16s1.84,1.17,2.46,2.06c.62.89.93,2.05.93,3.49,0,1.54-.43,2.87-1.28,4s-2.1,1.99-3.72,2.61c-1.63.62-3.6.93-5.91.93Z"/>
        </g>
      </g>
      <g>
        <rect class="cls-2" x="0" y="465.57" width="478.53" height="114.92" rx="57.46" ry="57.46"/>
        <g>
          <path class="cls-7" d="M65.32,539.24v-35.12h3.71v31.9h19.66v3.21h-23.38Z"/>
          <path class="cls-7" d="M101.54,539.49c-1.97,0-3.69-.33-5.14-.98-1.45-.65-2.57-1.56-3.34-2.71-.77-1.15-1.15-2.48-1.15-3.99,0-1.37.33-2.62.98-3.74.65-1.12,1.72-2.02,3.21-2.71,1.49-.68,3.49-1.03,5.99-1.03h9.08v2.66h-8.98c-2.54,0-4.31.45-5.29,1.35-.99.9-1.48,2.02-1.48,3.36,0,1.5.59,2.71,1.76,3.61,1.17.9,2.81,1.36,4.92,1.36s3.74-.46,5.19-1.38c1.46-.92,2.52-2.25,3.19-3.99l.8,2.46c-.67,1.74-1.83,3.13-3.49,4.16-1.65,1.04-3.74,1.55-6.24,1.55ZM110.62,539.24v-5.82l-.15-.95v-9.73c0-2.24-.63-3.96-1.88-5.17-1.25-1.2-3.12-1.8-5.59-1.8-1.71,0-3.33.28-4.87.85-1.54.57-2.84,1.32-3.91,2.26l-1.61-2.66c1.34-1.14,2.94-2.02,4.82-2.63,1.87-.62,3.85-.93,5.92-.93,3.41,0,6.04.84,7.9,2.53s2.78,4.26,2.78,7.7v16.35h-3.41Z"/>
          <path class="cls-7" d="M123.71,539.24v-26.34h3.41v7.17l-.35-1.25c.73-2.01,1.97-3.54,3.71-4.59s3.9-1.58,6.47-1.58v3.46c-.13,0-.27,0-.4-.02-.13-.02-.27-.02-.4-.02-2.78,0-4.95.84-6.52,2.53-1.57,1.69-2.36,4.09-2.36,7.2v13.44h-3.56Z"/>
          <path class="cls-7" d="M155.01,539.49c-2.74,0-5.15-.58-7.22-1.73-2.07-1.15-3.7-2.74-4.87-4.77-1.17-2.02-1.76-4.34-1.76-6.95s.56-4.92,1.68-6.92c1.12-2.01,2.66-3.59,4.62-4.74s4.15-1.73,6.6-1.73,4.67.56,6.6,1.68c1.92,1.12,3.44,2.69,4.54,4.71,1.1,2.02,1.66,4.36,1.66,7,0,.17,0,.34-.02.53-.02.18-.03.38-.03.58h-22.92v-2.66h21.02l-1.4,1.05c0-1.91-.41-3.6-1.23-5.09-.82-1.49-1.93-2.65-3.34-3.49-1.4-.84-3.03-1.25-4.86-1.25s-3.43.42-4.87,1.25c-1.44.84-2.56,2.01-3.36,3.51-.8,1.5-1.2,3.23-1.2,5.17v.55c0,2.01.44,3.77,1.33,5.29.89,1.52,2.12,2.71,3.71,3.56,1.59.85,3.4,1.28,5.44,1.28,1.6,0,3.1-.28,4.49-.85,1.39-.57,2.58-1.44,3.59-2.61l2.01,2.31c-1.17,1.4-2.63,2.48-4.39,3.21s-3.69,1.1-5.79,1.1Z"/>
          <path class="cls-7" d="M184.61,539.49c-2.51,0-4.76-.57-6.75-1.71-1.99-1.13-3.55-2.72-4.69-4.74-1.14-2.02-1.71-4.36-1.71-7s.57-5.02,1.71-7.02,2.7-3.57,4.69-4.69c1.99-1.12,4.24-1.68,6.75-1.68,2.31,0,4.37.52,6.2,1.56,1.82,1.03,3.28,2.55,4.36,4.54,1.09,1.99,1.63,4.42,1.63,7.3s-.53,5.27-1.6,7.27c-1.07,2.01-2.52,3.54-4.34,4.59-1.82,1.06-3.91,1.58-6.25,1.58ZM184.86,536.33c1.87,0,3.55-.43,5.04-1.28,1.49-.85,2.66-2.06,3.51-3.61s1.28-3.35,1.28-5.39-.43-3.88-1.28-5.42-2.02-2.74-3.51-3.59c-1.49-.85-3.17-1.28-5.04-1.28s-3.5.43-4.97,1.28c-1.47.85-2.64,2.05-3.51,3.59-.87,1.54-1.3,3.34-1.3,5.42s.43,3.84,1.3,5.39c.87,1.55,2.04,2.76,3.51,3.61,1.47.85,3.13,1.28,4.97,1.28ZM194.79,539.24v-7.93l.35-5.32-.5-5.32v-18.66h3.56v37.22h-3.41Z"/>
          <path class="cls-7" d="M218.87,539.49c-2.54,0-4.82-.58-6.85-1.73s-3.62-2.74-4.79-4.77c-1.17-2.02-1.76-4.34-1.76-6.95s.59-4.97,1.76-6.98c1.17-2.01,2.76-3.58,4.77-4.71,2.01-1.14,4.3-1.71,6.87-1.71s4.92.57,6.95,1.71c2.02,1.13,3.61,2.71,4.77,4.71s1.73,4.33,1.73,6.98-.58,4.92-1.73,6.95c-1.15,2.02-2.75,3.61-4.79,4.77s-4.35,1.73-6.92,1.73ZM218.87,536.33c1.91,0,3.6-.43,5.07-1.28,1.47-.85,2.63-2.06,3.49-3.61.85-1.55,1.28-3.35,1.28-5.39s-.43-3.88-1.28-5.42c-.85-1.54-2.01-2.74-3.49-3.59-1.47-.85-3.14-1.28-5.02-1.28s-3.54.43-5.02,1.28c-1.47.85-2.64,2.05-3.51,3.59s-1.3,3.34-1.3,5.42.43,3.84,1.3,5.39,2.04,2.76,3.51,3.61c1.47.85,3.13,1.28,4.97,1.28Z"/>
          <path class="cls-7" d="M237.43,546.57l2.21-9.28.4,2.16c-.77,0-1.41-.25-1.93-.75s-.78-1.15-.78-1.95.26-1.46.78-1.96c.52-.5,1.15-.75,1.88-.75s1.4.27,1.88.8.73,1.17.73,1.91c0,.27-.02.53-.05.8-.03.27-.1.57-.2.9-.1.33-.24.73-.4,1.2l-2.11,6.92h-2.41Z"/>
          <path class="cls-7" d="M270.94,539.24v-31.9h-12.34v-3.21h28.39v3.21h-12.34v31.9h-3.71Z"/>
          <path class="cls-7" d="M303.34,539.49c-2.74,0-5.15-.58-7.22-1.73-2.07-1.15-3.7-2.74-4.87-4.77-1.17-2.02-1.76-4.34-1.76-6.95s.56-4.92,1.68-6.92c1.12-2.01,2.66-3.59,4.61-4.74,1.96-1.15,4.15-1.73,6.6-1.73s4.67.56,6.6,1.68c1.92,1.12,3.44,2.69,4.54,4.71,1.1,2.02,1.66,4.36,1.66,7,0,.17,0,.34-.02.53-.02.18-.03.38-.03.58h-22.92v-2.66h21.02l-1.41,1.05c0-1.91-.41-3.6-1.23-5.09-.82-1.49-1.93-2.65-3.34-3.49-1.4-.84-3.03-1.25-4.86-1.25s-3.43.42-4.87,1.25c-1.44.84-2.56,2.01-3.36,3.51-.8,1.5-1.2,3.23-1.2,5.17v.55c0,2.01.44,3.77,1.33,5.29s2.12,2.71,3.71,3.56c1.59.85,3.4,1.28,5.44,1.28,1.6,0,3.1-.28,4.49-.85,1.39-.57,2.58-1.44,3.59-2.61l2.01,2.31c-1.17,1.4-2.63,2.48-4.39,3.21s-3.69,1.1-5.79,1.1Z"/>
          <path class="cls-7" d="M318.44,539.24l11.14-14.45-.05,1.76-10.58-13.65h4.01l8.68,11.29-1.5-.05,8.68-11.24h3.91l-10.68,13.8.05-1.91,11.24,14.45h-4.06l-9.18-12.04,1.41.2-9.03,11.84h-4.01Z"/>
          <path class="cls-7" d="M356.66,539.49c-1.97,0-3.69-.33-5.14-.98-1.45-.65-2.57-1.56-3.34-2.71s-1.15-2.48-1.15-3.99c0-1.37.33-2.62.98-3.74s1.72-2.02,3.21-2.71c1.49-.68,3.49-1.03,5.99-1.03h9.08v2.66h-8.98c-2.54,0-4.31.45-5.29,1.35-.99.9-1.48,2.02-1.48,3.36,0,1.5.59,2.71,1.76,3.61,1.17.9,2.81,1.36,4.92,1.36s3.74-.46,5.19-1.38,2.52-2.25,3.19-3.99l.8,2.46c-.67,1.74-1.83,3.13-3.49,4.16-1.66,1.04-3.74,1.55-6.25,1.55ZM365.74,539.24v-5.82l-.15-.95v-9.73c0-2.24-.63-3.96-1.88-5.17-1.25-1.2-3.12-1.8-5.59-1.8-1.71,0-3.33.28-4.87.85s-2.84,1.32-3.91,2.26l-1.61-2.66c1.34-1.14,2.94-2.02,4.82-2.63s3.85-.93,5.92-.93c3.41,0,6.04.84,7.9,2.53s2.78,4.26,2.78,7.7v16.35h-3.41Z"/>
          <path class="cls-7" d="M385.91,539.49c-2.17,0-4.23-.31-6.17-.93-1.94-.62-3.46-1.4-4.56-2.33l1.6-2.81c1.07.8,2.44,1.5,4.11,2.08s3.43.88,5.27.88c2.51,0,4.31-.39,5.42-1.18,1.1-.78,1.66-1.83,1.66-3.14,0-.97-.31-1.73-.93-2.28-.62-.55-1.43-.97-2.43-1.25s-2.12-.53-3.36-.73c-1.24-.2-2.47-.43-3.69-.7-1.22-.27-2.33-.66-3.34-1.18-1-.52-1.82-1.23-2.43-2.13-.62-.9-.93-2.11-.93-3.61s.4-2.72,1.2-3.86,1.98-2.03,3.54-2.68c1.55-.65,3.45-.98,5.69-.98,1.71,0,3.41.23,5.12.68,1.71.45,3.11,1.05,4.21,1.78l-1.55,2.86c-1.17-.8-2.42-1.38-3.76-1.73s-2.68-.53-4.01-.53c-2.38,0-4.12.41-5.24,1.23-1.12.82-1.68,1.86-1.68,3.14,0,1,.31,1.79.93,2.36.62.57,1.44,1.01,2.46,1.33,1.02.32,2.14.58,3.36.78,1.22.2,2.44.45,3.66.73,1.22.28,2.34.67,3.36,1.15,1.02.48,1.84,1.17,2.46,2.05.62.89.93,2.05.93,3.49,0,1.54-.43,2.87-1.28,3.99-.85,1.12-2.09,1.99-3.71,2.61-1.62.62-3.59.93-5.89.93Z"/>
        </g>
      </g>
      <g>
        <g class="cls-4">
          <path class="cls-5" d="M915.35,654.08c0,4.61-13.24,8.36-29.61,8.36s-29.61-3.75-29.61-8.36,13.24-8.36,29.61-8.36,29.61,3.75,29.61,8.36Z"/>
        </g>
        <path class="cls-6" d="M885.74,652.68s-56.14-95.47,0-95.47,0,95.47,0,95.47Z"/>
        <circle class="cls-1" cx="885.79" cy="583.47" r="12.12"/>
      </g>
      <g>
        <g class="cls-4">
          <path class="cls-5" d="M825.27,527.29c0,4.61-13.24,8.36-29.61,8.36s-29.61-3.75-29.61-8.36,13.24-8.36,29.61-8.36,29.61,3.75,29.61,8.36Z"/>
        </g>
        <path class="cls-6" d="M795.66,525.89s-56.14-95.47,0-95.47,0,95.47,0,95.47Z"/>
        <circle class="cls-1" cx="795.7" cy="456.68" r="12.12"/>
      </g>
      <g>
        <path class="cls-6" d="M861.35,663.09c-.68,0-1.36-.06-2.04-.21-.65-.12-1.3-.33-1.93-.59-.62-.27-1.24-.56-1.81-.95s-1.1-.8-1.57-1.3c-.47-.47-.92-1.01-1.27-1.57-.38-.56-.71-1.15-.98-1.78-.24-.62-.44-1.27-.56-1.95-.15-.65-.21-1.33-.21-2.02,0-2.72,1.1-5.39,3.02-7.31,3.85-3.88,10.78-3.88,14.66,0,.47.47.92,1.01,1.3,1.57.36.56.68,1.15.95,1.78.24.62.44,1.27.59,1.95.12.65.21,1.33.21,2.01s-.09,1.36-.21,2.02c-.15.68-.35,1.33-.59,1.95-.27.62-.59,1.21-.95,1.78-.38.56-.83,1.1-1.3,1.57-.47.5-1.01.92-1.57,1.3s-1.16.68-1.81.95c-.62.27-1.27.47-1.93.59-.68.15-1.36.21-2.01.21Z"/>
        <path class="cls-6" d="M815.34,652.73c0-5.71,4.65-10.36,10.36-10.36h0c5.71,0,10.36,4.65,10.36,10.36h0c0,5.72-4.65,10.36-10.36,10.36h0c-5.72,0-10.36-4.65-10.36-10.36ZM782.44,652.73c0-5.71,4.62-10.36,10.36-10.36h0c5.71,0,10.36,4.65,10.36,10.36h0c0,5.72-4.65,10.36-10.36,10.36h0c-5.75,0-10.36-4.65-10.36-10.36Z"/>
        <path class="cls-6" d="M749.54,652.73c0-5.71,4.62-10.36,10.36-10.36h0c5.72,0,10.36,4.65,10.36,10.36h0c0,5.72-4.65,10.36-10.36,10.36h0c-5.74,0-10.36-4.65-10.36-10.36ZM713.89,652.73c0-5.71,4.65-10.36,10.36-10.36h0c5.72,0,10.36,4.65,10.36,10.36h0c0,5.72-4.65,10.36-10.36,10.36h0c-5.71,0-10.36-4.65-10.36-10.36ZM681,652.73c0-5.71,4.65-10.36,10.36-10.36h0c5.72,0,10.36,4.65,10.36,10.36h0c0,5.72-4.65,10.36-10.36,10.36h0c-5.72,0-10.36-4.65-10.36-10.36Z"/>
      </g>
      <g>
        <path class="cls-6" d="M769.65,534.74c-.68,0-1.36-.09-2.04-.21-.65-.15-1.3-.32-1.92-.59-.62-.27-1.24-.59-1.81-.95-.56-.38-1.1-.83-1.57-1.3-1.92-1.92-3.02-4.59-3.02-7.31,0-.68.06-1.36.21-2.04.12-.65.33-1.3.59-1.92.24-.62.56-1.24.95-1.81.35-.56.8-1.1,1.27-1.57.47-.47,1.01-.92,1.57-1.27.56-.38,1.18-.71,1.81-.98.62-.24,1.27-.44,1.92-.59,3.38-.68,6.96.45,9.36,2.84.47.47.92,1.01,1.3,1.57.36.56.68,1.19.95,1.81.27.62.44,1.27.59,1.92.15.68.21,1.36.21,2.04,0,2.72-1.12,5.39-3.05,7.31-1.92,1.93-4.59,3.05-7.31,3.05Z"/>
        <path class="cls-6" d="M723.64,524.38c0-5.75,4.65-10.36,10.36-10.36h0c5.72,0,10.36,4.62,10.36,10.36h0c0,5.71-4.65,10.36-10.36,10.36h0c-5.71,0-10.36-4.65-10.36-10.36ZM690.74,524.38c0-5.75,4.65-10.36,10.36-10.36h0c5.72,0,10.36,4.62,10.36,10.36h0c0,5.71-4.65,10.36-10.36,10.36h0c-5.72,0-10.36-4.65-10.36-10.36Z"/>
        <path class="cls-6" d="M657.84,524.38c0-5.75,4.65-10.36,10.36-10.36h0c5.71,0,10.36,4.62,10.36,10.36h0c0,5.71-4.65,10.36-10.36,10.36h0c-5.72,0-10.36-4.65-10.36-10.36ZM622.2,524.38c0-5.75,4.65-10.36,10.36-10.36h0c5.74,0,10.36,4.62,10.36,10.36h0c0,5.71-4.62,10.36-10.36,10.36h0c-5.72,0-10.36-4.65-10.36-10.36ZM589.3,524.38c0-5.75,4.65-10.36,10.36-10.36h0c5.71,0,10.36,4.62,10.36,10.36h0c0,5.71-4.65,10.36-10.36,10.36h0c-5.72,0-10.36-4.65-10.36-10.36ZM556.4,524.38c0-5.75,4.65-10.36,10.36-10.36h0c5.74,0,10.36,4.62,10.36,10.36h0c0,5.71-4.62,10.36-10.36,10.36h0c-5.71,0-10.36-4.65-10.36-10.36ZM520.75,524.38c0-5.75,4.65-10.36,10.36-10.36h0c5.74,0,10.39,4.62,10.39,10.36h0c0,5.71-4.65,10.36-10.39,10.36h0c-5.71,0-10.36-4.65-10.36-10.36ZM487.86,524.38c0-5.75,4.65-10.36,10.36-10.36h0c5.74,0,10.36,4.62,10.36,10.36h0c0,5.71-4.62,10.36-10.36,10.36h0c-5.72,0-10.36-4.65-10.36-10.36Z"/>
      </g>
    </g>
  </g>
</svg>