<?xml version="1.0" encoding="UTF-8"?>
<svg id="Layer_2" xmlns="http://www.w3.org/2000/svg" version="1.1" viewBox="0 0 1031 679.9">
  <!-- Generator: Adobe Illustrator 29.0.0, SVG Export Plug-In . SVG Version: 2.1.0 Build 186)  -->
  <defs>
    <style>
      .st0, .st1 {
        fill: #334ba0;
      }

      .st1 {
        font-family: Montserrat-Regular, Montserrat;
        font-size: 18px;
      }

      .st1, .st2, .st3 {
        isolation: isolate;
      }

      .st2 {
        fill: #17283f;
        opacity: .2;
      }

      .st4 {
        fill: #fff;
      }

      .st5 {
        stroke-dasharray: 0 12 0 11.1 0 11.1;
      }

      .st5, .st6, .st7, .st8, .st9 {
        fill: none;
        stroke: #3ac6f4;
        stroke-linecap: round;
        stroke-miterlimit: 10;
        stroke-width: 7px;
      }

      .st6 {
        stroke-dasharray: 0 11.1 0 11.1;
      }

      .st10 {
        fill: #e2e2e2;
      }

      .st8 {
        stroke-dasharray: 0 11.5 0 11.5;
      }

      .st9 {
        stroke-dasharray: 0 12.4 0 11.5 0 11.5;
      }

      .st11 {
        fill: #3ac6f4;
      }

      .st12 {
        fill: #f3f3f3;
      }
    </style>
  </defs>
  <g id="Layer_1-2">
    <g>
      <g>
        <path class="st12" d="M732.6,260.5h189.5c11.4,0,20.6,9.2,20.6,20.6h0c0,11.4-9.2,20.6-20.6,20.6h-189.5c-11.4,0-20.6-9.2-20.6-20.6h0c0-11.4,9.2-20.6,20.6-20.6Z"/>
        <g class="st3">
          <text class="st1" transform="translate(724.1 286.9)"><tspan x="0" y="0">Monterrey, Nuevo León</tspan></text>
        </g>
      </g>
      <g>
        <path class="st12" d="M111.1,497.5h116.7c11.4,0,20.6,9.2,20.6,20.6h0c0,11.4-9.2,20.6-20.6,20.6h-116.7c-11.4,0-20.6-9.2-20.6-20.6h0c0-11.4,9.2-20.6,20.6-20.6Z"/>
        <g class="st3">
          <text class="st1" transform="translate(104.8 524)"><tspan x="0" y="0">CDMX, México</tspan></text>
        </g>
      </g>
      <g>
        <path class="st12" d="M780.6,320.8h229.7c11.4,0,20.6,9.2,20.6,20.6h0c0,11.4-9.2,20.6-20.6,20.6h-229.7c-11.4,0-20.6-9.2-20.6-20.6h0c0-11.4,9.2-20.6,20.6-20.6Z"/>
        <g class="st3">
          <text class="st1" transform="translate(774.1 347.2)"><tspan x="0" y="0">Nuevo Laredo, Tamaulipas</tspan></text>
        </g>
      </g>
      <g id="g3014">
        <path id="path7385" class="st12" d="M608.3,562.5c-1-.7-3.4-1.6-5.2-2-1.8-.4-3.2-1.1-3.2-1.5s-2.2-2.5-5-4.6l-5-3.8,4.1-2.3c2.9-1.6,4.5-2,5.3-1.3,1.6,1.3,2.5.3,2.5-2.9s.5-3.2,1.2-3.9c1-1,1-1.7,0-3.2-.8-1.2-.8-2.2-.2-2.5.5-.3,1-5.7,1-12,0-10.5.2-11.4,1.9-11.4s3.1,1.8,4.7,4.1c1.5,2.2,4.1,4.7,5.7,5.5,2.9,1.5,6.8,1.1,6.8-.8s1.2-.8,2.9-.4c2.4.5,3.2.2,4.1-1.5.8-1.4,1.8-2,3-1.7,1,.3,2.4-.1,3-.9.9-1.1.6-1.9-1.5-3.9-1.5-1.4-3.3-2.5-4.1-2.5s-1.5-.6-1.5-1.5-2.2-2.5-5-3.7c-5.6-2.6-6.9-5.3-4.7-9.6.8-1.5,1.7-4.3,2.1-6.1.6-2.9.4-3.7-1.6-5.2-1.3-1-1.8-1.8-1-1.8,1.8,0,9.1-8,9.3-10.2,0-1,.2-2.6.2-3.5.1-2.4,3.4-5.5,5.2-4.9.8.3,1.3,1.5,1.2,2.8-.2,1.6.7,2.8,3,4.3,3.8,2.4,3.7,3.9-.3,4.6-2.8.5-2.9.8-3.2,5.8-.3,4.8,0,5.6,2.5,7.7,3.5,3.1,4.7,3,7-.2l1.9-2.6,3.5,1.8c1.9,1,3.6,1.9,3.8,2s-.5,1.5-1.6,3c-2.5,3.6-6.3,15-6.1,18.3.2,3.7,1.5,4.9,7.4,6.6,6,1.8,6.2,3.1.4,4-3.7.6-5.7,2.5-4.4,4.5.3.5-.4,2.9-1.6,5.4-2.7,5.6-2.3,7.7,1.6,8.8,2.2.6,3.3,1.7,4,4,1,3.3,2.3,3.7,7.5,2.4,2.1-.5,2.8-.2,4,1.9,1.3,2.4,1.2,2.8-1.9,5.5-3.4,3-4.9,3.3-15.3,2.9-3.3-.1-5.9.3-6.3.9-1,1.6-4.7-3.4-4-5.3,1.7-4.4-5.7-2.2-8.1,2.3-1.5,2.8-1.5,3.3,0,5.5,1.9,2.9.5,4.1-2.7,2.3-3.2-1.7-10-1.7-11.8.1-2.1,2-3.3,2.1-5.5.6h0Z"/>
        <path id="path7375" class="st12" d="M426.7,534.4c-1.5-.8-3-2.3-3.3-3.4-.4-1.1-1.3-2-2-2s-1.8-.8-2.4-1.8c-1-1.7-1-1.7-1,0,0,2.1,0,2.1-4.5.2-2.5-1-3.5-2-3.1-3,.3-.8,0-1.5-.7-1.6-2.3-.3-3.2-.5-6-1.7-1.5-.6-3.4-1.2-4-1.2-2.4-.2,5-2.7,11.6-4,5.1-1,6.9-1.8,7.4-3.2.5-1.6,1.2-1.8,4-1.3,1.9.4,5.2,0,7.4-.6,5.7-1.7,6.5-.6,6.2,8.9-.2,4.2-.7,7.9-1.1,8.2-.5.3-1.1,1.5-1.5,2.7-.4,1.2-1.4,2.8-2.4,3.7-1.5,1.3-2.1,1.4-4.4.1h0Z"/>
        <path id="path7371" class="st12" d="M436.9,527c0-1,.4-4.1,1-6.8.8-4,.6-5.7-.5-8l-1.5-3-8.7.2c-7.5.2-8.8.5-9.6,2.2-.7,1.6-2.9,2.3-10.8,3.8-9.1,1.7-10,1.7-11.5.2-.9-.9-2.3-1.6-3.2-1.6-1.9,0-6.3-4.4-8.3-8.5-.8-1.6-2.6-3.5-3.9-4.2-2.5-1.2-5-4.8-5-7.1,0-1.4-4-7.5-5.3-8-.4-.2-.8-1.4-.8-2.7s-1-4-2.1-6c-2-3.4-2-3.7-.5-5.3.9-.9,3.8-2.1,6.3-2.7s5.1-1.8,5.7-2.8c2.5-4.1,9.3-10.7,11-10.7s3.4-.9,5.2-2.1c4.2-2.6,6.5-2,12.3,3.4l4.4,4,1.4-4.6c.7-2.5,1.8-4.9,2.3-5.2,1.5-.9,1.2-4.4-.5-6.1s-.9-4.7,1.2-3.5c2.3,1.3,6-.7,6.7-3.8.5-2.1,0-3.1-2.1-4.9-2.5-2.2-2.6-2.6-1.6-6.1,1.5-5,1.6-4.5-2.4-8.9l-3.5-3.9,1.6-7.1c1.7-7.5,2.8-8.6,8.4-8.6,2,0,2.6-.6,2.8-2.9.2-1.6-.2-3.2-.9-3.6-2.2-1.4-.2-4.1,2.7-3.8,2.7.3,4.6,2.8,2.1,2.8s-2.9,4.6-4.5,12.4c-.4,2.2-.2,2.8.8,2.4,1.5-.5,3.3-3.5,4.9-8.2.8-2.4,1.2-2.7,2.5-1.6,1,.8,1.2,1.6.6,2.4-.5.6-1.2,3.7-1.6,6.8l-.7,5.6,3.1.7c4,.9,6.1-.8,6.1-4.9s2.4-5.6,6.8-4.4c3.8,1,3.9,1.4,1.1,8.9-2,5.5-2.3,5.8-5.1,5.6-1.7-.1-3.2.3-3.5,1-.2.7.3,1.2,1.1,1.2s1.6.4,1.6,1c0,1.1-3.6,2.1-6.5,1.8-1.4-.2-1.9.3-1.7,1.5.2,1-.2,1.8-.8,1.8s-.9.8-.5,1.8c.4,1.1-.2,2.5-1.4,3.6-1.1,1-2.8,4.2-3.7,7.2-.9,2.9-2.3,5.4-3,5.4-2.2,0-1.5,2.8.9,3.6,1.2.4,2.7,1.4,3.3,2.2.9,1.2,2,1.3,5,.7,2.1-.5,5.9-.9,8.4-.9,15.1-.3,15.5-.4,20.3-4.2,5.2-4.1,6.1-7.7,2.7-10.9-2.6-2.4-2.5-3.3.5-4.7,2-.9,3.4-.7,7.6,1.1,6,2.6,8.7,2,13.7-2.5,1.7-1.6,4.6-4.1,6.3-5.7l3.2-2.8,3.2,3.1c1.8,1.7,3.9,3.1,4.8,3.1,1.4,0,1.5.5.7,3.1-.5,1.7-1.7,4.3-2.7,5.8-1.2,1.7-1.7,4-1.5,6.7.3,3.7,0,4.2-2.7,5.3-1.7.7-3.2,2.2-3.6,3.5-.3,1.3-2.2,4.3-4.2,6.7-5.3,6.3-5.9,8.1-3.9,11.2,1.6,2.5,1.6,2.7-.6,5.6-1.7,2.3-3.3,3.2-6.8,3.6-6.3.8-10.7,2.3-12.1,3.9-.6.8-4.2,1.9-7.9,2.5-7.8,1.3-8.3,1.6-10,5.4-1.5,3.4-.9,4.7,2.1,4.7,1.2,0,4.3.8,6.9,1.7,4.4,1.6,4.6,1.8,3.7,4.2-.6,1.7-.6,4.1.2,7.3,1,4.3,1.4,4.7,3.4,4.2,1.3-.3,2.6-.1,3,.5,1.1,1.7-3.4,6.8-6.5,7.5-1.6.3-5.4,2.6-8.4,5.1-4.2,3.5-6.1,4.4-7.9,4-1.3-.3-4-.1-6,.4-3.2.9-3.6.8-3.6-.8h0Z"/>
        <path id="path7361" class="st12" d="M527.2,488.8c-.4-1.5-1.5-1.8-5.6-1.7-2.8,0-6.1.7-7.3,1.4-1.8,1.2-2.4,1.1-3.7-.4-.8-.9-1.7-3-1.9-4.7-.2-1.6-1-3.3-1.8-3.7-2.6-1.2-6.8-.9-8.4.7-2.3,2.3-5.5,1.8-6.8-1-.6-1.4-1.4-2.5-1.7-2.5s-1.2-.4-2-.9c-1.1-.7-.9-1.5.9-4,2.1-2.9,2.2-3.2.6-5-2.5-2.7-2.1-4.2,2.3-9.6,2.2-2.7,4.3-5.9,4.6-7.1s1.9-2.8,3.4-3.5c3-1.2,4.3-4.2,3.4-7.7-.4-1.3.2-3.3,1.4-5,1.1-1.5,2.2-3.9,2.4-5.3.4-3.1,3.8-3.8,7.1-1.5,1.2.9,3.8,1.6,5.8,1.6s4.5.9,7.5,3.6c2.2,2,5.2,4,6.8,4.5,2.4.7,3.3.4,5.4-1.9,2.8-3,8.4-3.8,9.4-1.3.3.8,3.3,2.2,6.8,3.3,3.7,1.1,6.2,2.5,6.2,3.3s.7,2.1,1.5,2.9c1.3,1.3,1.3,1.7,0,3.1-1.2,1.2-2.1,1.3-3.4.6-2.9-1.5-5-1.2-5,.9s-.7,2.4-1.5,3.1c-.8.7-1.5,2.1-1.5,3.1,0,1.5-.5,1.8-3,1.2-2-.4-3-.2-3,.6s-1.3,1.1-3.5.9c-4.5-.4-6.7,2.2-5.9,7.1.3,1.9.9,4,1.3,4.5s1.1,2.5,1.4,4.2c.4,2.1,2.4,4.8,5.6,7.6,5.5,4.9,6.1,6.6,2.6,6.6s-3.5.9-4.8,1.9c-3.4,2.7-14.9,2.6-15.6,0h0Z"/>
        <path id="path7359" class="st12" d="M553.1,487.8c-.7-.7-1.2-1.7-1.2-2.3,0-.6-2.5-3.2-5.4-5.8-3.7-3.2-5.6-5.8-6.1-8-.4-1.8-1-3.7-1.5-4.3-1.1-1.4-1.4-5.7-.6-7.6.4-1,2.1-1.6,4.4-1.7,2,0,3.8-.6,4-1.1s1.7-.7,3.3-.4c2.5.5,2.9.3,2.9-1.4s.7-2.6,1.5-3.2c.8-.7,1.5-2.1,1.5-3.2s.4-1.8,1.8-1.3c4,1.6,5.1,1.5,7.1-.6,1.4-1.5,1.4-2.9.1-4.1-2.3-2.2-2.3-1.9-1-5.2l1-2.5,4.7,2.5c5.6,3,7.4,3.1,7.4.6s3.4-6.6,4.8-5.7c.6.4,1.2,1.4,1.2,2.2s1.2,3.5,2.5,5.9l2.5,4.3-2.8,2.6c-1.5,1.4-2.9,2.1-3.1,1.6-.8-2.4-3.8-.8-5.1,2.7-.7,2.1-2.4,5.4-3.7,7.5-1.3,2-2.1,4.3-1.8,5.1.3.9-1.2,2.2-4.5,3.8-4.8,2.3-5,2.6-5,6.2s-.5,4-1.5,4.4c-.8.3-1.5,1.6-1.5,3s-.3,2.4-.8,2.4-1.5,1.1-2.3,2.5c-1.2,2-1.8,2.2-2.7,1.3h0Z"/>
        <path id="path7357" class="st12" d="M900.2,473.5c-10.5-12.1-11.9-13.3-13.4-12-.9.8-3.3,1.5-5.3,1.5h-3.7v-6.4c0-3.5-.5-6.7-1-7.1-2.4-1.5-1-6.1,3.2-10.2,7.3-7,21.6-12.8,36.9-14.8,2.7-.4,7.1-2.1,10.5-4.2,3.2-2,7.9-4.1,10.4-4.8,7.5-2,25.3.3,30.2,3.9,1,.8,2.1,3.5,2.5,6.7.7,4.5.4,6.7-1.6,12.9l-2.5,7.5-19.9,15c-11,8.2-23.2,17.4-27.3,20.2l-7.4,5.2-11.7-13.4h0Z"/>
        <path id="path7351" class="st12" d="M876.1,453.9c0-1.4.2-1.9.5-1.2s.3,1.8,0,2.5-.5.1-.5-1.2Z"/>
        <path id="path7347" class="st12" d="M593.5,443.4c-1.1-.8-2.8-1.5-3.8-1.5s-2.6-1.7-4.4-5.5c-1.4-3-3-5.8-3.5-6.1-1.4-.9-5.9,3.5-5.9,5.8s-3,2.3-7-.7c-3.5-2.6-6-2.1-6,1.2s-2.2,1.2-7.4-1.3c-1.6-.8-3.5-1.4-4.2-1.4s-1.3-.7-1.3-1.5-1.2-1.5-4.4-1.5-4.8.5-6.4,2.5c-2.8,3.5-5.3,3.1-10.2-1.7-3.6-3.5-5-4.2-8.7-4.3-3-.1-4.9-.7-5.7-1.9-.9-1.2-2-1.5-3.9-1.1-2.9.7-3.3-.2-1.2-3.1,2.1-3,3.1-13.1,1.5-15-1.1-1.3-1-2.1.5-4.5,2-3.3,1.5-6.2-1.6-9.6-2.2-2.4-3.7-2.2-3.7.6s-5.6,6.5-6.5,5.1c-1-1.6-2.5-1.1-2.5.8,0,1.1-.8.3-2-1.9-1.1-2-3.2-4.1-4.9-4.8-5-2.1-7.4-5.5-7.9-11.3-.3-3.1-1.1-5.8-2-6.5-.9-.7-1.4-1.4-1.1-1.5,3-2.2,6.3-3.7,8.1-3.7,6.8,0,11-2.6,19.8-11.9,8.6-9.1,8.7-9.4,8.2-13.3-.5-3.8-.4-4,1.6-3.5,2.4.6,3.7-.6,4.7-4.5.4-1.5,1.1-2.7,1.6-2.7s1.9-1,3-2.1l2.2-2.1,2.8,3.4c2.4,2.9,2.8,4.3,2.8,9.8,0,4.9.5,7,2.2,9.4,1.9,2.6,2.1,4.3,2,12.6-.1,12.1.2,13.1,3.9,13.1s2.9-.5,2.9-1.1c0-1.3,5.3-.2,5.8,1.2.2.5,1,.9,1.9.9,1.7,0,4.2,2.8,4.2,4.8,0,.7-.6,2-1.5,2.8-1.8,1.8-2,4.8-.2,6,.7.5,4.8,2,9.1,3.3,6.5,2,8,2.1,8.7,1,1.3-2.1,5,.8,6.4,5,1,3,1.7,3.5,5.6,4.3,2.5.5,7.8.6,11.9.3,6.7-.5,7.7-.2,11.2,2.1,4.2,2.8,4.7,3.8,2.3,4.7-.9.3-1.4,1.2-1.1,1.9.7,1.8-1.1,4.8-2.9,4.8s-1.2.5-.7,1.2c.4.7.8,1.5.9,1.8s.4,1.5.9,2.8c.6,1.8.3,2.7-1.3,3.8-2.5,1.7-2.7,4.1-.6,7.1,1.4,2,1.3,2.2-.6,2.8-1.7.5-2,1.2-1.4,3.6.6,2.9.6,2.9-3.7,2.9-2.4,0-5.2-.7-6.3-1.5h0Z"/>
        <path id="path7339" class="st12" d="M460.5,428c-1.6-1.7-2.1-7.5-.9-10.5.3-.9,2.4-2.5,4.5-3.6,2.2-1.1,4.2-2.7,4.5-3.5.3-.8,1-1.5,1.5-1.5,1.5,0,9.7-3.9,10.3-4.9,1.2-2,9.1,7.9,8.2,10.4-.3.8.5,2.1,1.9,3,3,2,3.1,4.3.2,5.5-1.2.5-3.5,2.3-5,4-3.2,3.7-6.3,4-12.4,1.2-4-1.8-4.3-1.8-7.7-.1-3.3,1.7-3.6,1.7-5.1,0h0Z"/>
        <g id="path7329">
          <path class="st0" d="M626.9,408.9c-.8-.5-2.2-1.6-4.1-3.3-3.3-2.8-5.7-4.2-7.5-4.2s-1.6.3-2.2.9c-.2.2-1.6.6-3.6.7-1.8,0-6.8.4-11.2.8-2,.2-4.3.3-6.5.3s-4.6-.1-5.8-.3c-3.7-.7-4.2-1.1-5.2-3.8-1.3-3.9-5.3-7.4-8.4-7.5h0c-.6,0-1.3,0-1.7.6-.3.4-.3.9,0,1.7,0,.3.1.4.2.5,0,0,0,0-.2,0-1.8-.7-12.1-4-13.6-4.4-.5-.1-1-1.9-.8-3.4,0-.8.3-1,.4-1,.8,0,1.7-1.2,2-2.3.5-1.5-.7-4-2-5.9-.5-.8-2-2.5-3.3-2.5s-.3,0-.5,0h0c0,0-.5-.3-.5-2.6s.2-2.6.6-2.6.8.1,1.2.2c.6.1,1.1.2,1.6.2,1.2,0,1.4-.5,1.5-.8,0-.4.2-2.6.3-4.9.1-2.2,1-5.2,2-6.6,1.1-1.7,1.6-2.1,3-2.1s1.6.1,2.5.2c1.2.2,1.9.2,2.6.2,1.9,0,2.8-.7,4-2.1,2.6-3,2.2-5.6-1.2-10.1-1.8-2.4-2.2-3.7-1.7-5.6,1.3-4.8.9-8.5-1.1-10.7-.4-.4-1-1.2-1-1.4,0-.2,1.1-.6,1.8-.8,1.5-.6,4.2-2.4,6-4.1,1.8-1.7,3.9-2.9,4.6-2.9,2.3,0,4.3-3.1,4.3-6.8s2.6-4.1,4.9-4.1.5,0,.7,0h.2c2.3,0,16.8-10.7,18.2-13.5.6-1.1.7-2,.3-2.6-.4-.7-1.4-1.1-2.9-1.1s-2.3-3-2.6-12.4l-.3-6.8-3.9-.3c-.4,0-.7,0-1.1,0-1.3,0-3.2.2-3.9.8-.2.1-.3.2-.5.2-.3,0-.8-.3-1.2-.7-.8-1-2.7-1.7-4.4-1.7s-3.5-.8-3.5-4.6-.9-2.4-2.3-2.4c-2.8,0-4.7-3.1-4.7-7.8s-.2-5.1-4.3-5.8c-1.5-.2-2.7-.4-3-.8-.2-.3,0-1.2.4-2.3.8-2.9,1.1-4,.5-4.7-.4-.6-1.2-.6-2.1-.6s-.9,0-1-.2c-.3-.3,0-1.7.1-3.1.8-5.3-2-14.2-5.5-17.1l-2-1.6,3.5-2.3c2-1.3,3.2-2,4.3-2s1,.1,1.8.5c2,.9,2.8,2.1,2.4,7.1-.1,1.3.4,3.4,1.1,4.8.6,1.1,1.1,3.6,1,5.3,0,1.9.8,5.1,1.9,7.1,1,1.8,1.9,4.6,2,6,0,1.7,0,2.4.7,2.4s.7-.5,1.2-1.5c0-.1.1-.2.2-.4.1.8.2,2.1.3,2.9,0,1,1.1,2.2,2,2.9.8.6,1.8,2.4,2.1,4,.6,2.5,1.5,3.4,3.5,3.4,3,0,7.3,1.9,9.1,4,1,1.2,3.7,2.2,6.8,2.6,3.4.4,5.4,1.3,6.7,2.8,1.8,2.1,3.5,2.6,10.3,3.1h.8c6.7.5,10.7,1.6,12.3,3.3l.2.2c2.1,2.3,4.2,3.6,5.8,3.6s2-.6,2.4-1.8c.4-1.2,2.7-2.5,4-2.5s.5,0,.6.2c1,1.1-2.2,14.7-5.8,21.9-2.1,4.2-4.3,9.4-5,11.6-3.4,11.8-4.2,15.2-4.2,18.1,0,1.8-.5,3.6-.9,4.3,0,0,0,0,0,0,.1-6.2,2.5-16.7,5.4-24.1,1.4-3.6,3.6-9.4,3.6-10.2s-1.2-2-2.3-2.8c-1.1-.7-1.5-.7-1.6-.7-.4,0-.5.2-.6.3-.2.4,0,.7.1.9.2.4.3,2.1,0,3.9l-.5,2.2-1.1-1.4c-1.3-1.6-2.3-2.3-3.1-2.3-1.4,0-1.9,1.8-2,2.3-.4,1.5,0,2.8,1.2,3.2.7.2,1.1.8,1.1,1,0,0,0,0,0,0,0,0,0,0-.2,0-.2-.1-.5-.2-.8-.2-.6,0-1.1.3-1.5.8-.3.4-.3.9-.1,1.2.2.3.6.5,1,.5.1.1.4.5,0,2.4-.4,2-.2,3.9.6,4.9.6.7.5.9.5.9,0,0,0,.1-.6.3-1.5.6-1.7,2.6-1.4,6.3,0,1.2.2,2.7.2,3.5-.2-.2-.4-.5-.5-.6-.7-.8-1-1.2-1.5-1.2s-.4,0-.5.2c-.4.4-.4,1.5,0,5.7.1,1.9.7,7.9,1.9,7.9s.8-.9.8-2.2v-.5c.2.2.5.5.7.7,1.1,1.1,1.2,1.8.4,4.8-.5,1.8-1,4.7-1.2,6.9-.2-.9-.3-1.3-.8-1.3s-.9,0-1,10c0,8.1.4,15.8,1.4,21.1,1.3,6.9,1.4,9.2.3,14-.5,2.3-1,3.6-1.3,4.2-.2-.2-.4-.4-.7-.4-.8,0-1.1.9-2.6,6.2-.2.8-.1,1.5.2,2,.2.3.5.4.9.4s.9-.3,1.2-.7c0,.7.2,1.6.4,2.8.3,2.5.4,4.4.5,5.4h0Z"/>
          <path class="st10" d="M567.3,215.6c.4,0,.9.1,1.6.5,1.7.8,2.5,1.7,2.1,6.6-.1,1.4.4,3.6,1.1,5,.6,1.1,1,3.4,1,5,0,2,.8,5.2,2,7.3,1,1.8,1.9,4.4,1.9,5.8,0,1.8,0,2.9,1.2,2.9s.7-.2,1-.6c0,.4,0,.9,0,1.2,0,1.1,1.2,2.5,2.2,3.2.7.5,1.6,2.1,2,3.7.5,2.3,1.4,3.8,4,3.8s7,1.8,8.7,3.8c1.3,1.5,4.7,2.5,7.1,2.8,3.3.4,5.1,1.2,6.4,2.6,2,2.4,4,2.8,10.7,3.3h.8c6.5.5,10.5,1.5,11.9,3.1l.2.2c2.2,2.4,4.4,3.8,6.2,3.8s2.4-.8,2.8-2.1c.3-.9,2.3-2.2,3.5-2.2s.2,0,.2,0c.6,2-2.4,14.5-5.9,21.3-.2.3-.3.7-.5,1,.1-.5.2-.9.2-1,0-1.2-1.6-2.6-2.6-3.2-1.1-.7-1.6-.8-1.9-.8-.4,0-.8.2-1,.6-.2.3-.3.7.1,1.4.2.3.2,1.8-.1,3.5l-.2,1.1-.5-.6c-1.4-1.7-2.5-2.5-3.5-2.5s-2,.9-2.5,2.7c-.4,1.6,0,3.1,1.2,3.7-.5.1-1,.5-1.3,1-.4.6-.4,1.2-.1,1.8.2.4.7.7,1.2.8,0,.2,0,.8-.2,1.9-.5,2.2-.2,4.2.7,5.3.1.2.2.3.3.4,0,0,0,0-.1,0-1.8.7-2,2.8-1.7,6.8,0,.6.1,1.4.2,2-.5-.6-.9-.9-1.5-.9s-.6.1-.9.4c-.6.6-.5,1.5-.2,6.1.6,8.4,1.9,8.4,2.4,8.4,1,0,1.2-1,1.2-2,.7.8.9,1.4,0,4.2-.4,1.4-.8,3.4-1,5.3-.1,0-.3,0-.5,0h0c-1.2,0-1.3,0-1.5,10.5,0,8.1.4,15.8,1.5,21.2,1.3,6.9,1.4,9,.3,13.8-.4,1.7-.7,2.8-1,3.5-.2,0-.3-.1-.5-.1-1.2,0-1.5,1.1-3.1,6.5-.3.9-.2,1.8.3,2.4.3.4.8.6,1.3.6s.6,0,.8-.2c0,.5.1,1.1.2,1.8.2,1.8.3,3.3.4,4.3-.8-.6-1.9-1.5-3.2-2.6-3.4-2.9-5.8-4.3-7.8-4.3s-1.8.3-2.5,1c-.3.2-1.6.5-3.2.5-1.8,0-6.8.4-11.2.8-2,.2-4.2.3-6.4.3s-4.5-.1-5.7-.3c-3.6-.6-4-1-4.8-3.5-1.4-4.1-5.5-7.8-8.8-7.8h0c-.4,0-1.5,0-2,.8-.4.6-.3,1.2-.2,1.7-3-1-11.2-3.7-12.8-4.1-.1-.1-.4-.6-.5-1.5-.1-.9,0-1.6.1-1.9,1-.2,1.9-1.4,2.3-2.6.6-1.8-.8-4.5-2-6.3-.7-1-2.2-2.7-3.7-2.7s-.2,0-.3,0c0-.3-.2-.9-.2-2s0-1.7.1-2.1c.3,0,.7.1,1,.2.6.1,1.2.2,1.7.2,1.7,0,1.9-1,2-1.3,0-.4.2-2.6.3-4.9.1-2.1,1-5,1.9-6.4,1.1-1.6,1.4-1.9,2.6-1.9s1.5.1,2.4.2c1.2.2,2,.2,2.7.2,2.1,0,3.1-.8,4.4-2.2,3.1-3.6,1.9-6.8-1.2-10.7-1.9-2.5-2-3.6-1.6-5.2,1.3-5,.9-8.9-1.2-11.2-.2-.2-.5-.6-.8-.9.3-.2.9-.4,1.3-.5,1.6-.6,4.3-2.5,6.2-4.2,1.9-1.8,3.8-2.7,4.2-2.7,2.6,0,4.8-3.3,4.8-7.3s2.4-3.6,4.4-3.6.4,0,.6,0c0,0,.2,0,.3,0,2.7,0,17.3-11.2,18.7-13.8.7-1.3.8-2.3.3-3.1-.5-.9-1.6-1.3-3.3-1.3s-1.9-5.7-2.1-11.9l-.2-6.4v-.9s-.9,0-.9,0l-3.5-.3c-.4,0-.7,0-1.1,0-.7,0-3.2,0-4.2.9-.1.1-.2.1-.2.1-.1,0-.4-.1-.8-.6-.9-1.1-3-1.9-4.8-1.9s-3-.6-3-4.1-1.1-2.9-2.8-2.9c-2.5,0-4.2-2.9-4.2-7.3s-.2-5.5-4.7-6.3c-1-.2-2.3-.4-2.6-.6,0-.3.2-1.3.4-1.9.8-2.9,1.2-4.2.5-5.1-.6-.8-1.7-.8-2.5-.8s-.6,0-.6,0c-.1-.5.1-2.1.2-2.7.9-5.4-2.1-14.6-5.7-17.6l-1.4-1.2,3-1.9c2.2-1.5,3.2-1.9,4-1.9M567.3,214.6c-1.1,0-2.3.6-4.5,2.1l-4.1,2.7,2.5,2c3.3,2.7,6.2,11.6,5.3,16.6-.5,3.4-.4,3.9,1.4,3.9s2.4.3,1.1,4.6c-.9,3.1-.8,3.1,3,3.8,3.9.6,3.9.6,3.9,5.3s2,8.3,5.2,8.3,1.8.7,1.8,1.9c0,3.6,1.2,5.1,4,5.1s3.3.7,4,1.5c.5.6,1,.9,1.5.9s.6-.1.8-.3c.5-.4,2-.7,3.6-.7s.7,0,1,0l3.5.3.2,6.4c.4,10,1.1,12.9,3.1,12.9s3.2,1,2.2,2.9c-1.4,2.6-15.8,13.2-17.8,13.2h0c-.3,0-.5,0-.8,0-2.5,0-5.4,2.4-5.4,4.6,0,3.4-1.8,6.3-3.8,6.3-.9,0-3.2,1.4-4.9,3-1.8,1.6-4.4,3.5-5.9,4-2.6,1-2.6,1.1-.9,3,1.8,2,2.2,5.6,1,10.2-.5,2.1-.1,3.5,1.8,6.1,3.3,4.3,3.6,6.7,1.2,9.5-1.2,1.4-2,1.9-3.6,1.9s-1.5,0-2.5-.2c-1.1-.2-1.9-.3-2.6-.3-1.6,0-2.2.6-3.4,2.4-1,1.5-1.9,4.6-2,6.9-.1,2.3-.3,4.5-.3,4.9,0,.2-.4.4-1,.4s-.9,0-1.5-.2c-.6-.1-1-.2-1.3-.2-1,0-1.1.8-1.1,3.1s.3,3.1.9,3.1.2,0,.2,0c0,0,.2,0,.3,0,1.9,0,5.5,5.5,4.8,7.7-.3,1.1-1,2-1.6,2-1.4,0-1.1,5,.3,5.4,1.5.4,11.7,3.7,13.5,4.4.2,0,.3.1.5.1.4,0,.5-.4.2-1.2-.4-1.1,0-1.6,1.2-1.6h0c2.9,0,6.7,3.5,7.9,7.1,1,2.9,1.7,3.4,5.5,4.1,1.3.2,3.5.4,5.9.4s4.5,0,6.5-.3c4.4-.4,9.4-.8,11.2-.8s3.5-.4,3.9-.8,1.1-.7,1.8-.7c1.7,0,4,1.3,7.2,4,2.5,2.1,4.6,3.8,4.9,3.8s0,0,0,0c.1-.2,0-3-.5-6.3-.3-2.7-.6-4.5-.8-4.5s0,0,0,.2c0,1-.6,1.8-1.2,1.8s-.8-.8-.6-1.8c1.2-4.4,1.7-5.8,2.1-5.8s.3.2.5.5c0,0,.1.1.2.1.5,0,1.2-1.9,1.8-4.8,1-4.9,1-7.2-.3-14.2-1-5.3-1.5-13-1.4-21,0-6.4.2-9.5.5-9.5s.2.5.4,1.3l.7,4.5.2-4c0-2.2.6-5.7,1.2-7.8.8-3.1.8-4.1-.5-5.3-.7-.7-1.1-1-1.3-1s-.3.4-.3,1.2c0,1.2,0,1.7-.2,1.7-.4,0-1.1-3.4-1.4-7.5-.3-3.9-.4-5.4,0-5.4s.6.4,1.1,1c.6.7,1,1.1,1.2,1.1.4,0,.3-1.2,0-4.3-.3-3.9,0-5.3,1-5.8,1.2-.4,1.2-.9.3-2-.7-.9-.9-2.6-.5-4.5.4-2,.3-3-.5-3s-.9-.5-.5-1c.2-.4.6-.6,1-.6s.4,0,.5.1c.2.1.3.2.5.2.3,0,.5-.2.5-.5,0-.5-.6-1.2-1.4-1.5-.9-.3-1.2-1.4-.9-2.6.3-1.3.8-2,1.5-2s1.6.7,2.8,2.1l1.8,2.2.7-3.2c.4-1.8.4-3.7,0-4.3-.2-.3-.1-.4,0-.4s.7.2,1.4.6c1.2.7,2.1,1.8,2.1,2.3s-1.6,5.1-3.5,10c-3,7.5-5.3,18.3-5.4,24.5,0,.7,0,1,.2,1s.4-.3.8-1c.5-.8,1-2.9,1-4.6,0-2.8.8-6.2,4.2-17.9.6-2.2,2.9-7.4,5-11.5,3.5-6.8,7.1-21.1,5.7-22.4-.2-.2-.5-.3-1-.3-1.5,0-4,1.4-4.5,2.9-.3,1-1,1.4-1.9,1.4-1.4,0-3.5-1.2-5.5-3.4-2.7-3-2.3-2.9-13.6-3.6-6.8-.5-8.3-.9-10-2.9-1.4-1.7-3.5-2.6-7-3-3-.4-5.6-1.4-6.5-2.4-1.8-2.2-6.3-4.2-9.5-4.2s-2.5-.7-3-3c-.4-1.6-1.4-3.6-2.3-4.2s-1.7-1.8-1.8-2.5c-.2-2.8-.4-4-.7-4s-.4.4-.8,1.2c-.3.8-.6,1.2-.7,1.2s-.2-.6-.2-1.9c0-1.5-1-4.3-2-6.2-1.1-1.9-1.9-5-1.8-6.8s-.4-4.3-1.1-5.5-1.1-3.2-1-4.5c.4-4.7-.2-6.5-2.7-7.6-.8-.4-1.4-.6-2.1-.6h0Z"/>
        </g>
        <path id="path7327" class="st12" d="M406.8,399.9c-.9-.5-2-2.2-2.3-3.7-.4-1.5-1.2-3.1-1.9-3.5-2-1.2-5.6-.9-8.2.9-3.3,2.2-4.3.9-1.6-2,1.8-1.9,2.1-3.1,1.6-6.8-.3-2.4-.8-5.1-1-6-.6-1.8-10.5-5.2-12.7-4.4-1,.4-1.7-.2-2-1.5-.3-1.2-1.4-2.1-2.6-2.1s-2.8-1.4-4.6-4.9c-1.4-2.7-3-5.2-3.5-5.6s-1-1.9-1-3.4-.6-3.6-1.4-4.8c-.8-1.1-1.7-4.9-2.1-8.4-.7-7.1-3-12.2-6.9-15.9-2.4-2.2-2.9-2.3-6.7-1.2-4.4,1.3-6.9.4-6.9-2.6s-5.4-12-9.1-15.4c-2.1-2-3.9-4.3-3.9-5.2s-.5-2.8-1.1-4.1c-.8-1.6-.9-5.4-.4-11l.7-8.6h5.4c5.3,0,10.2-1.5,11.7-3.5.4-.6.7-3.1.8-5.6,0-3.3.6-5.1,2-6.4,1.6-1.4,1.9-2.6,1.4-5.6-.6-3.5-.4-3.9,1.6-3.9s3.1-.5,4.2-1.1c1.6-.9,1.9-1.7,1.4-4.2-.6-3.2,1.4-6.7,4-6.7s1.6-.9,1.9-2.1c.6-2,.8-2,3.6.9,1.6,1.7,4.3,3.3,5.9,3.7,1.7.4,4.1,2.1,5.5,4,3,4,8.2,6.2,9.1,4,.7-1.8,3.5-1.9,5.1-.3.9.9,1.9.9,4,0,3.6-1.5,7.8-.1,8.7,2.9,1.2,3.7,4.6,2,9.1-4.5,3.4-4.9,4.9-6.1,7.9-6.8,2.1-.4,4.5-.3,5.5.2,1,.6,3.2,1,4.8,1s4.1,1.2,7.9,5.3c2.8,2.9,5.8,6.8,6.7,8.6,1.6,3.1,1.6,3.5,0,7.1-1.2,2.8-1.5,5-1,8.3.6,3.8.2,5.3-1.9,9.1-2.7,4.9-3.2,8-1.5,9,.7.4.4,1.1-.6,1.9-2.2,1.6-1.5,4.4,2.9,11.6,5.2,8.4,7,10,11.3,10s4.5.7,5.5,1.7c2.3,2,2.4,1.9,4.8-4.7,1-3,2.3-5.5,2.7-5.6,1.5-.5,4.8,9.1,5.2,15.4l.4,6.2-4.4.6c-2.4.3-6.8.4-9.9,0-16.2-1.8-18-1.8-18.7.2-.9,2.4-9.8,11.3-11.3,11.3s-2.9,4-3.2,9.9c-.2,3.3-.8,5.1-1.6,5.1s-1.6.8-2,1.8-1.5,2.4-2.5,3.2c-2.5,2-4,10.1-4.5,24.2-.3,7.4-.9,12-1.6,12.6-1.9,1.5-7.1,2.2-8.8,1.2h0Z"/>
        <path id="path7323" class="st12" d="M300.9,317.9c0-.5-.5-1-1.1-1s-.8.5-.4,1,.8,1,1.1,1,.4-.5.4-1Z"/>
        <g id="path7321">
          <path class="st0" d="M541.7,375.4c-.7,0-1.4-.2-1.4-.8,0-.7,0-5.5,0-10.5.2-8.7,0-9.8-2.6-13.7-2.3-3.5-2.5-4.6-2.2-9.4.4-5.3.2-6.2-2.9-10-2.7-3.4-3.1-4.4-2.9-8.7.2-2.9.6-5.7.9-6.5.5-1.1,0-3.1-1.1-4.8-1-1.6-.9-3.1.3-4.8,1.4-1.8,1.8-2.3,5-2.3s2.3,0,4.2.1c2,0,3.2.1,4.1.1,3.3,0,4.1-.5,5-2.1.5-1,.8-1.6.5-2.3-.2-.7-1-1-2.3-1.5-1.5-.6-3.3-1-4.1-1s-1.2-.5-1.4-1.2c-.4-1-1.8-1.8-3.1-1.8s-1-.1-1-.2c0,0,0,0,0-.2.8-1.3-3-5.1-4.7-6.6-4.7-4.3-5-5-4.5-7.4.3-1.6.3-3.6-.6-4.1-.3-.2-.7-1.2-.7-2.4s-2.4-4.9-4.7-7.3l-4.2-4.3,5.9-5.1c4-3.5,5.7-4.6,6.8-4.6s.5,0,.8.2c.3.2,1.5.8,2.1.8s.5-.2.6-.3c0-.2,1.1-1.6,2.4-3.5,3.2-4.5,3.2-11.7.1-14.5-1-.9-1.8-1.4-2.6-1.4s-1.1.2-2,.7c-1.1.7-2,1.1-2.5,1.1s-.4-.1-.5-.2c0-.1-.2-.4-.2-1.1,0-2.8,5.2-7.3,9.1-8,5.2-.8,6.9-2.6,7.6-8.1.5-3.3,1.8-5.3,3.6-5.3s1.9.5,2.9,1.4c1.3,1.3,2.5,2.1,3.7,2.1s2.7-1.1,4.3-3.1c1.1-1.4,1.9-2.2,2.3-2.2s.7.4,1.2.9c.9.9.9,1.2.9,1.2h0s0,0-.2,0c-3.9,1.3-6.5,4.9-6.4,7.3,0,1.3.8,2.2,2.2,2.6,2,.5,6.1,10.1,5.2,13.7-1.2,4.9-1.1,5.9,1.8,6.6.7.2,1,.3,1.2.4,0,0,0,0,0,0-1,.6-1.5,2.6-1.5,4.1,0,2.3.4,3.4,2.8,3.5,3.3,0,4.4.9,5.1,6.7.6,5,.9,5.8,4.3,6.8,2.5.7,2.9,1.4,2.9,3,0,1.3,0,5.2,3.4,5.2s.9,0,1.5-.2c.5-.1.9-.2,1.2-.2.9,0,1.5.4,2.4,1.6.8,1.1,1.5,1.8,2.2,1.8s1-.4,1.3-.7c.5-.5,2.3-1.1,4.1-1.1h2.8l.3,8.8c.3,8.6.3,9.7,3,10.1.8.1,1.3.4,1.5.7,0,0,0,.1,0,.2-.6,1.7-14.6,12.1-16.3,12.1-.2,0-.5,0-.7,0-3.2,0-6.8,3-6.8,5.5s-1.6,5.8-3.3,5.8-4,1.9-6,3.6c-2.2,2-4.7,3.4-5.5,3.4-1.4,0-2.4.6-2.8,1.6-.5,1.3.2,2.9,1.8,4.2,1.9,1.6,2.1,1.7,1.1,6.6-1,5-.9,5.7,1.9,9.5,1.7,2.3,2.7,4.3,2.8,4.7,0,2-2.8,3.4-6.9,3.4s-8,2.6-8.8,10c-.3,2.7-.6,3.6-1.1,3.6s-.3,0-.5-.1c-.3,0-.6-.1-.9-.1-1.1,0-2.2.6-2.9,1.6-.7,1-.9,2.2-.5,3.2.2.4.2.6.2.6h0s-.2,0-.5,0-.9,0-1.6-.2c-.5,0-1-.1-1.4-.1-1.8,0-2.5.7-2.7,1.3-.2.6-1.2,1-2,1h0Z"/>
          <path class="st10" d="M562,211.4c.2.1.7.6.9.8.3.3.4.5.6.6-4,1.5-6.5,5.1-6.4,7.7,0,1.5,1,2.6,2.5,3.1.6.1,2,1.9,3.4,5.4,1.2,3.1,1.8,6.2,1.5,7.6-1.1,4.7-1.3,6.3,2.2,7.2.1,0,.3,0,.4.1-.7.9-1.1,2.6-1.1,4,0,2.5.5,3.9,3.2,4,2.8,0,3.9.5,4.6,6.2.6,5.1,1,6.1,4.6,7.2,2.3.7,2.5,1.2,2.5,2.5,0,3.8,1.3,5.7,3.9,5.7s1,0,1.6-.2c.5-.1.8-.2,1.1-.2.6,0,1.1.2,2,1.4.9,1.3,1.6,2,2.7,2s1.3-.5,1.7-.8,2-.9,3.8-.9h2.3l.3,8.3c.3,8.5.3,10.1,3.5,10.5.5,0,.8.2,1,.4-1.5,2.2-13.7,11.2-15.7,11.6-.2,0-.5,0-.7,0-1.6,0-3.4.7-4.8,1.8-1.6,1.2-2.5,2.8-2.5,4.2,0,3-1.5,5.3-2.8,5.3s-4.6,2.2-6.3,3.8c-2.4,2.1-4.6,3.2-5.1,3.2-1.6,0-2.8.7-3.3,2-.5,1.5.2,3.3,2,4.7,1.8,1.5,1.9,1.5.9,6.1-1.1,5.2-.9,5.9,2,9.9,1.6,2.2,2.5,4,2.7,4.5,0,1.7-2.7,2.9-6.4,2.9-6,0-8.5,2.8-9.3,10.4-.2,2.2-.5,3-.6,3.2,0,0-.2,0-.3,0-.3-.1-.7-.2-1-.2-1.3,0-2.5.7-3.3,1.9-.8,1.1-1,2.5-.5,3.7-.3,0-.8,0-1.4-.1-.5,0-1-.1-1.5-.1-2.1,0-2.9.9-3.2,1.6-.1.4-.8.7-1.5.7s-.9-.2-.9-.3c0-.6,0-4.9,0-10.5.2-8.8,0-10-2.7-14-2.2-3.3-2.5-4.4-2.1-9,.5-5.4.1-6.5-3-10.3-2.7-3.3-3-4.2-2.8-8.3.1-2.8.6-5.6.9-6.3.6-1.5-.1-3.7-1.1-5.2-.6-1-1.1-1.6-1-2,0-.4.5-1.1,1.3-2.1,1.3-1.7,1.6-2.1,4.6-2.1s2.3,0,4.2.1c2,0,3.2.1,4.1.1,3.3,0,4.4-.5,5.5-2.4.5-.9.9-1.8.6-2.7-.3-.9-1.3-1.4-2.6-1.8-1.3-.5-3.3-1.1-4.3-1.1s-.8-.4-1-.9c-.5-1.2-2-2.1-3.6-2.1s-.3,0-.4,0c.2-1.3-1.4-3.6-4.9-6.8-4.7-4.3-4.8-4.9-4.4-6.9,0-.4.7-3.7-.8-4.6-.2-.2-.5-1-.5-2,0-2-2.6-5.3-4.8-7.6l-3.8-3.9,5.5-4.7c3.3-2.8,5.4-4.5,6.5-4.5s.4,0,.6.2c.6.3,1.7.8,2.3.8s.8-.2,1-.6c0-.2,1-1.5,2.3-3.4,3.3-4.7,3.3-12.2,0-15.2-1.1-1-1.9-1.6-3-1.6s-1.6.4-2.2.8c-1.4.9-2,1-2.2,1h0c0,0-.1-.2-.1-.8,0-2.3,4.8-6.8,8.7-7.5,5.4-.9,7.2-2.9,8-8.5.4-3,1.6-4.9,3.1-4.9s1.7.4,2.6,1.3c1.4,1.3,2.7,2.2,4.1,2.2s3-1.2,4.7-3.3c.6-.8,1.6-1.9,2-2.1M562,210.4c-.6,0-1.3.7-2.7,2.4-1.7,2-2.8,2.9-3.9,2.9s-2-.7-3.4-2c-1.1-1.1-2.3-1.6-3.3-1.6-2,0-3.6,2-4.1,5.7-.7,5.2-2.2,6.8-7.2,7.6-4.2.7-9.5,5.4-9.5,8.5s.4,1.8,1.2,1.8,1.6-.4,2.8-1.1c.7-.4,1.2-.6,1.7-.6s1.3.4,2.3,1.3c2.9,2.6,2.8,9.6-.2,13.8-1.2,1.8-2.3,3.4-2.4,3.5,0,0,0,0-.2,0-.3,0-1.1-.3-1.9-.7-.3-.2-.7-.3-1-.3-1.3,0-3.1,1.2-7.1,4.7l-6.3,5.4,4.6,4.7c2.7,2.8,4.6,5.6,4.6,6.9s.4,2.5,1,2.8.7,2,.4,3.6c-.5,2.7,0,3.5,4.7,7.8,3,2.8,5,5.3,4.6,6-.4.7,0,1.1,1.4,1.1s2.3.7,2.7,1.5,1.2,1.5,1.9,1.5,2.5.5,3.9,1c2.3.9,2.5,1.3,1.5,3.1-.8,1.4-1.4,1.9-4.6,1.9s-2.4,0-4.1-.1c-1.8,0-3.1-.1-4.2-.1-3.3,0-3.9.5-5.4,2.5-1.9,2.6-2,2.8-.3,5.3,1,1.5,1.4,3.3,1,4.3-.4.9-.8,3.9-1,6.7-.2,4.3.2,5.5,3,9,3,3.7,3.2,4.4,2.8,9.6-.4,4.9-.1,6.1,2.2,9.7,2.5,3.8,2.7,4.8,2.5,13.4,0,5.1-.1,9.9,0,10.6,0,.8,1,1.2,1.9,1.2s2.1-.4,2.5-1.3c.2-.7,1-1,2.3-1s.9,0,1.4.1c.7.1,1.3.2,1.7.2,1,0,1.2-.4.8-1.3-.7-1.9,1-4.2,2.9-4.2s.5,0,.7.1c.2,0,.5.1.6.1.9,0,1.2-1,1.6-4.1.8-7.1,2.9-9.5,8.3-9.5s7.4-1.6,7.4-3.9-1.3-2.8-2.8-5c-2.7-3.7-2.8-4.2-1.8-9.1,1-4.9.9-5.3-1.3-7.1-2.6-2.1-2.2-4.9.7-4.9s3.6-1.6,5.8-3.5c2.2-1.9,4.7-3.5,5.7-3.5,2,0,3.8-2.9,3.8-6.3s3.5-5,6.3-5,.4,0,.6,0h0c2,0,16.1-10.5,16.8-12.4.2-.6-.7-1.3-1.9-1.5-2.2-.3-2.3-.8-2.6-9.6l-.3-9.2h-3.3c-1.8,0-3.8.5-4.5,1.2-.4.4-.7.5-1,.5-.5,0-1-.5-1.8-1.6-.9-1.3-1.7-1.9-2.8-1.9s-.8,0-1.3.2c-.5.1-.9.2-1.3.2-2,0-2.8-1.5-2.9-4.7,0-2-.7-2.8-3.3-3.5-3-.9-3.3-1.3-3.9-6.3-.7-5.6-1.8-7.1-5.6-7.1-1.8,0-2.2-.6-2.2-3s.6-3.3,1.2-3.7c.8-.5.4-1-1.2-1.4-2.5-.6-2.6-1.1-1.5-6,.9-3.6-3.1-13.6-5.6-14.3-3.9-1-.9-7.2,4.3-9,.8-.3.6-.9-.5-2.1-.7-.7-1.1-1.1-1.6-1.1h0Z"/>
        </g>
        <path id="path7315" class="st12" d="M526.6,326.6c-.5-1.3-1.3-1.6-2.8-1.2-2.5.8-6.2-2.3-8-6.7-1.2-2.9-1.5-3-6-2.5-4.4.5-4.8.4-5.1-1.6-.2-1.4-1-2.2-2.3-2.2s-2.1-.7-2.3-1.5c-.4-2.2-17.6-7.4-23.2-7.1-7.8.4-7.5.1-11.5,9.9-1.5,3.5-2,4-3.2,3-.8-.7-3.5-1.5-6-1.8-4.5-.5-4.6-.7-9.4-8.5-2.7-4.4-4.8-8.3-4.8-8.8s1.1-.8,2.5-.8c3.1,0,3.1-.7.3-3.7l-2.2-2.3,2.4-4.2c1.7-2.9,2.6-6.6,3.1-11.7.4-4.1,1-8.9,1.4-10.7.8-3.6-1-6.9-7.6-13.8-3.8-4-3.8-4.1-7.5-24.5l-3.7-20.5,3.3-5c1.8-2.7,3.7-5.1,4.1-5.3.4-.2.8-.7.8-1.2s3.8-6.6,8.4-13.7,8.7-13.9,9.1-15.3,2.2-3.9,3.9-5.6c4.4-4.2,7.3-8.6,8.1-12,.8-3.4,4.5-9.4,5.8-9.4.5,0,1.7-1,2.7-2.1,1.5-1.7,2.5-2,5.1-1.4,3.2.7,10.6,1.3,23.5,1.9,6.7.3,10.3,2.3,10.3,5.8s.7,1.9,1.8,1.9,1.1.6-1.2,2.3c-2.1,1.7-2.6,2.5-1.6,3.1.8.5,1.6.2,2.2-.6.5-.8.9-.9.9-.4,0,.6,1.7,1.1,3.6,1.3,3.4.2,10.1,4.6,10.3,6.6,0,.5,1.2,2.2,2.6,3.8s2.5,3.7,2.5,4.6.9,3.1,2,4.9,2,4.2,2,5.4,1.2,3.7,2.6,5.6,2.7,4.2,2.8,5.1c.3,3.2,2.7,6.7,6.1,9,1.9,1.3,3.5,2.6,3.5,3s1,1.8,2.3,3.3c2.9,3.3,2.5,8.7-.8,11.8l-2.2,2.1-2.6-2.6c-2.4-2.4-2.8-2.5-5.4-1.3-2.2,1-2.9,2.3-3.5,5.7-1,5.7-2.1,6.8-7.1,7.7-5,.8-9.6,5.5-9.7,9.7,0,2.3.4,2.8,2.4,2.8s2.7-.5,3.1-1.1c.4-.7,1.3-.5,2.5.6,3.9,3.6.5,13.9-4.6,13.9s-14.3,9.1-14.4,11.3c0,.7,1.9,3.4,4.4,5.9,3.7,3.8,4.5,5.4,5.1,9.7.9,7.2,2.2,9.8,5.8,12.1,1.8,1.1,3.2,2.9,3.2,3.9s.9,2.4,2,3c1.1.6,2.3,1.5,2.6,2,.3.5,2,1.1,3.8,1.5s3.3,1.1,3.4,1.6c.3,1.4-8.2,1.8-9.8.5-1.9-1.5-5-.4-7.5,2.7-2.4,3-2.6,6.6-.5,8.3,1.2,1,1.2,1.6.4,2.6-.6.8-.9,2.2-.7,3.2s.2,3.6-.2,5.8c-.5,2.9-.8,3.5-1.4,2.1h0Z"/>
        <g id="g7461">
          <path id="path7325" class="st12" d="M368.9,395.1c0-2.1-3.6-7.1-5.2-7.1s-.5.6.2,1.5c.7.8,1,1.8.7,2.1-.8.8-6.7-5.8-7.4-8.3-.5-2.1-7.4-10.2-7.4-8.7s1,2.3,2.2,4.3l2.2,3.6-2.3-2c-1.3-1.1-3-3.4-3.8-5-.9-1.6-4-5.8-6.9-9.1s-5.4-6.7-5.4-7.4c0-2-7.3-13.9-8.6-13.9-.6,0-2.2-1.2-3.5-2.6-2-2.1-2.1-2.4-.5-1.8,1.7.6,1.6.4-.4-2.4-1.2-1.7-2.8-2.9-3.5-2.6-.7.3-1.8-.2-2.5-1.1-.7-.9-2.1-1.5-3.1-1.5s-2.7-1.2-3.9-2.8c-1.1-1.5-3-3.8-4.3-5-3-3-1.6-4,1.8-1.4,1.9,1.5,3,1.8,3.8,1.1,1.8-1.8-.8-4.5-3.9-4.2-1.5.2-3.3-.2-4-.8s-1.9-.8-2.7-.5c-.8.3-2.3-.4-3.3-1.5-1.7-1.8-1.7-2.5-.6-5.6.9-2.6,1-3.9.2-4.7s-1.1-.4-1.1,1.6-.5,2.7-1,2.7-1-.7-1-1.6-.7-2.2-1.5-3.1c-2.1-2.1-.9-3.5,2.1-2.3,2.3.9,2.4.8,1.4-1-.6-1.1-1.4-2-1.9-2s-2.3-1.3-4.1-3-3.7-2.8-4.1-2.5-1.6-.6-2.6-1.9c-1-1.3-2.9-2.7-4.1-3.1-1.2-.4-2-1.1-1.8-1.5.3-.4-.4-1.7-1.5-2.9-1.1-1.2-2-2.8-2-3.6,0-2-1.9-2-2.7,0-.5,1.3-.8,1.3-1.5.2-.6-1-.9-.9-.9.4,0,1.5-.4,1.6-2.5.6-3.2-1.5-3.9-3.6-1.5-4.4,2.1-.7,2.5-2,1-2.9-.5-.3-1.1,0-1.3.7-.3,1-1,1-3.2,0-2.5-1.2-2.7-1.1-1.5.3,2.3,2.8-.8,1.7-4.2-1.5-3.1-2.9-3.1-3-.8-2.5l2.5.6-2.4-2.1c-1.9-1.7-2.1-2.3-1.1-3.5,1-1.2,1-1.8,0-3-1-1.2-.8-2.4.9-5.9,1.2-2.4,2.9-5,3.8-5.8,1.4-1.2,1.5-1,.9,1.2l-.7,2.5,1.9-2.4,1.9-2.4.7,2.6c.4,1.5,1.1,2.6,1.6,2.6s.6-1.2,0-2.9c-.8-2.8-.6-3.1,6.5-7.6,7.7-4.9,14.9-11.9,16.5-16,.9-2.4,1-2.4,4.1-.9s3.6,1.3,5.7.4c1.4-.6,2.9-.8,3.2-.4,1,1.1,4.8,16.7,5.5,22.5.7,5.7,1.7,6.6,8.6,7.6,5,.7,5.4,1,5.8,3.7.2,1.6,1.9,4.7,3.8,6.7,3.7,4.1,3.9,5.4,2.4,16-.8,5.3-.7,7.6.5,11,.8,2.3,1.5,4.9,1.5,5.7,0,.8,1.8,3,3.9,5,2.3,2.1,5.3,6.7,7.5,11.3,3.8,8.2,4.4,8.5,10.3,6.9,2.7-.8,3.5-.6,5.6,1.8,2.6,2.8,6,9.3,5.6,10.8-.5,1.9,1.4,10.9,2.7,12.8.8,1.1,1.4,3.2,1.4,4.7s.5,3,1,3.4,2.1,2.9,3.5,5.6c1.8,3.5,3.1,4.9,4.5,4.9,2.4,0,3.7,2.7,2.1,4.3-.6.6-1.1,2.1-1.1,3.2s-.7,3.1-1.6,4.4c-1.6,2.3-1.5,7.2.1,11.4.6,1.4.2,1.8-2.4,1.8s-3.1-.5-3.1-1.9h0Z"/>
          <path id="path7307" class="st12" d="M291.3,311.7c-1.8-3-5.3-10.2-5-10.5.5-.5,5.2,7.1,5.9,9.5.6,2.5.3,2.9-.9,1Z"/>
        </g>
        <path id="path7297" class="st12" d="M333.2,278.2c-3.2-.3-4.2-.8-4.2-2.1s-1.5-3.3-3.4-5.2c-1.9-2-3.6-4.8-3.8-6.5-.3-2.8-.7-3-5.8-3.8-3-.5-6-1.3-6.7-1.8s-1.5-3.5-1.9-6.6-1.7-9.3-2.9-13.7l-2.2-8-5,.3c-4.7.3-5.3,0-9.2-3.7l-4.2-4,.7-8.1c.4-5.3.3-8.1-.4-8.1s-1.9-1.7-3-3.8-3-5.7-4.3-8.1c-1.3-2.4-2.4-6.2-2.4-8.5v-4.1c0,0,7.7.3,7.7.3,8.7.4,8.7.3,6.7-7.1-.6-2.3-.7-4.4-.1-5.5.5-1,.6-7.3.3-14-.6-11.7-.5-12.2,1.4-12.5,1.7-.2,2.1-1.4,2.8-7.3,1.3-12.2,1.3-27.8,0-30.2-.7-1.2-2-8.3-3-15.8-2-15.5-1.8-16.1,4.8-15l4,.7v-9.1c0-6.9.3-9.1,1.3-9.1s11.2.7,23.2,1.5,25.4,1.6,29.7,1.8l7.8.3,2.4,5c2.3,4.8,8.3,12.5,9.8,12.5s4.7,3.7,4.7,4.4,2.9,3.4,6.5,7.1c3.6,3.7,6.5,7,6.5,7.5s1.2,1.1,2.7,1.4c3.5.9,11,9,11.9,12.8.4,1.6,1.6,4.6,2.7,6.5,1.1,1.9,2,5,1.9,7,0,1.9.5,5.1,1.3,7s1.5,4.3,1.5,5.1,2.7,3.6,6,6c3.3,2.4,6,4.7,6,5.2,0,1.9,4.7,5.7,7.8,6.4,1.8.4,3.7,1.5,4.2,2.6.5,1,2.3,2.1,3.9,2.5,1.6.4,3.5,1.3,4.2,2.2,1.1,1.4,5.2,3.5,7,3.8,2.2.3.8,3-9.7,18.7-6.4,9.6-11.9,18.1-12.4,18.9-.5.9.5,8.8,2.5,19.5,4.3,23.2,4.3,21.9-.4,21-11.7-2.3-12.4-2.1-19.5,7.4-4,5.4-5.1,5.9-6.6,2.6-1.4-3-5.5-4.2-9.3-2.8-2.2.8-3,.7-4-.4-1.5-1.8-3.4-1.8-5.3.2s-5,1.1-8.1-3.1c-1.4-1.9-3.9-3.6-5.5-4-1.6-.4-4.2-2-5.7-3.6-3.1-3.2-4.8-3.7-5.6-1.4-.3.8-1.1,1.5-1.9,1.5-2.3,0-5,4.9-4.5,8.1.5,3.4.1,3.8-4.2,4.3-4,.5-4.1.5-3.1,4.8.7,3,.5,4-1.1,5.4-1.3,1.2-1.9,3.1-1.9,6.3,0,2.5-.4,5-.8,5.6-.8,1.2-6,3.6-7,3.3-.4-.1-2.6-.4-5-.6h0Z"/>
        <path id="path7397" class="st12" d="M819.6,672.3c-4.5-4.2-9.3-8.8-10.7-10.1-2.5-2.4-2.5-2.5-.2-1.9,1.3.3,2,.1,1.7-.4-.6-1-4.6-2.8-7.6-3.4-3.2-.6-5.4-2.3-11-8.4-3.1-3.3-6.2-6.1-6.8-6.1s-.9-.4-.2-1.3c.8-.9.4-1.6-1.5-2.4-2.1-1-2.3-1-1.3.3,2.4,2.9-1.1,1.4-7.2-3-3.4-2.5-6.6-4.7-7.2-5-.7-.4-.7-.7.2-1.1,1.9-.9,1.5-2.4-.7-2.4s-2.2-.9-2.6-2.8c-.3-1.5-1.3-4.4-2.1-6.4-1.5-3.5-1.4-4.1,1.7-13.5,1.8-5.4,3.6-10.3,4-10.8.4-.5,1-2.2,1.4-3.7.4-1.6,1.8-3.3,3.4-4.2,3-1.6,5.2-5.3,5.2-9s1.2-3.4,2.6-4.7c1.8-1.7,2.4-3.1,2.1-4.9-.7-3.5,2.1-9,4.5-9s5.6,3.1,6.2,7.5c.9,6.8,2.3,9.5,5,9.5s3.2.9,4.2,2,2.3,2,2.9,2c1.4,0,4.8-3.6,7.2-7.6,3.4-5.6,7.2-9.4,9.4-9.4s3.2-.7,4.6-1.7c2.4-1.6,2.7-1.5,7,1.5,2.5,1.7,4.9,3.2,5.4,3.2,1.7,0,3,3.6,1.8,4.8-1.6,1.6.3,3.6,5.1,5.2,2.2.7,3.7,1.8,3.5,2.4s1.7,2.5,4.3,4.1c2.6,1.6,6.7,5,9,7.4,2.7,2.8,4.8,4.2,5.8,3.8.8-.3,1.5-.2,1.5.3s1.5,1.4,3.3,2c3.4,1.1,6.8,4.9,8.1,8.7.4,1.3,2.4,2.8,5.2,3.8,4.3,1.7,4.5,1.8,2.9,3.6-1.2,1.3-1.6,3.2-1.3,6.2l.4,4.4-16.5.7c-9.1.4-19.1.9-22.3,1.3l-5.8.6-5.9,11.1c-3.2,6.1-6.3,11.6-6.8,12.2-2.3,2.6-2.2,6.1.3,8.5,2.5,2.4,3.2,5.8,1.5,7.5-.8.8-1.1,3.5-1.1,11.3,0,2.5-1.6,5.1-3.2,5.1s-4.6-3.5-9.1-7.7h0Z"/>
        <path id="path7395" class="st12" d="M674.6,643.8c-.9-.5-3.9-1.3-6.7-1.9-2.8-.5-6.9-2.2-9.1-3.7-3.2-2.1-5.9-2.9-12.3-3.5-4.5-.4-9.9-1-12-1.2-2.3-.2-4.9-1.4-6.5-2.9-4.9-4.6-9.4-6.7-14.4-6.7-2.6,0-4.8-.3-4.8-.6s1-1.7,2.2-2.9,2.7-2.8,3.2-3.3c.5-.6,3.4-3.2,6.3-5.8l5.3-4.8-.9-4.9c-.8-3.9-1.8-5.7-5.4-9-5.3-4.8-6.6-8.3-6.8-18.7-.2-9.3,1.1-12,6-12s4.9.5,6.8,1.2c4.5,1.6,6.3,0,4.3-3.8-1.2-2.2-1.2-3,0-5.3,1.9-3.3,4.9-4.2,4.9-1.3s.5,2.3,1.1,2.7,1.5,1.7,2,3.1c1.1,2.9,2.5,3.1,3.9.5.9-1.7,2.1-1.9,9-1.8,6.6.1,8.4-.2,10.7-1.9,3.2-2.4,9.3-12.9,9.3-16.3,0-1.7.5-2.2,1.6-1.8.9.3,2,.6,2.5.6,1.5,0,5,4.3,5,6.2s.5,1.8,1,1.8,1.5,1.4,2.1,3.1c1.2,3.5,4.1,4.9,10,4.9s4.5.6,5.4,1.8c1.8,2.4,1.7,7.7,0,9.2-1.6,1.3-1.3,4.6.7,8.7,1.6,3.2,9,4.2,12.1,1.7,3.1-2.7,9.6-5.8,10.4-5s.1.7-.5.7c-4.2,0,3.3,9.7,9.1,11.9,1.8.7,2.8,1.8,2.8,3.1s.6,2,1.2,2c6,0,33.1,1,33.3,1.3s-1.7,5.8-4.2,12.5l-4.4,12.2,2,4c2.1,4.2,2.6,7,1.1,7s-1.2-.7-1.5-1.6-1.1-1.3-1.7-.9c-.6.4-2.4-.3-4-1.4-3.4-2.5-4-2.6-4-.6s.8,1.8,1.8,2.1c4.5,1.5,11.2,4.8,11.2,5.4s-3-.6-6.8-2.2-8.3-2.9-10.2-2.9c-4.4,0-7-1.4-4.5-2.4.9-.3,2.1-.4,2.6,0s.9,0,.9-.5-.9-1.5-2.1-2.1c-1.6-.9-2.5-.8-3.8.5-2.3,2.1-3.1,2-3.1-.5s-2.7-3.5-4.9-.8c-2.3,2.8-1.8,4.2,1.2,3.3,1.5-.5,1.8-.3,1.2.4-.5.6-2.1,1.2-3.5,1.5s-.2.3,2.5,0c3.5-.2,4.5,0,3.5.6-.8.5-4.2,1-7.6,1-5.8,0-6.3.2-10,4-2.1,2.2-4.7,4-5.7,4s-2.9.7-4.2,1.6c-1.3.9-4.2,2-6.5,2.5s-6.2,2.2-8.8,3.8c-2.6,1.6-6.3,3.2-8.3,3.5-7.8,1.2-9.7,1.3-11.3.5h0Z"/>
        <path id="path7393" class="st12" d="M605.3,621.5c-.3-.8-1-1.5-1.5-1.5s-2-1.3-3.3-2.8c-2-2.3-3.2-2.8-6.9-2.9-3.1,0-5.2-.7-6.8-2.2-1.3-1.2-2.5-1.7-2.6-1.1-.6,1.7-3,1.2-5.1-1.1-1.5-1.6-2.7-2-5-1.5-1.7.3-3.2.2-3.5-.2-.7-1.1-4.5-2.1-4.5-1.2s1,1.2,2.2,1.8c2.2,1.1,2.2,1.1.1,1.2-1.2,0-2.7-.6-3.4-1.5-.7-.9-3.6-2.7-6.4-4.1-2.8-1.4-5.9-3.2-6.9-4.1-1.4-1.2-2-1.3-2.6-.3-.8,1.2-4.1.6-4.1-.7s-1.5-.7-3.4-.8-6.9-1.7-11.1-3.7c-4.2-2-8.1-3.6-8.6-3.6s-.9-.7-.9-1.5-2-2.6-4.5-4.1c-2.5-1.5-4.5-3.2-4.5-3.9,0-1.6-4.2-4.4-7.8-5.1-1.7-.3-4-2.3-6.1-5.1-3.4-4.5-9.2-7.9-11.8-6.9-1,.4-1.4-.4-1.4-2.9s.5-3.7,2.8-4.9c4.7-2.4,5.6-4.1,4.2-7.6-1.1-2.6-1-3.3.5-5,2.3-2.5,6.9-2.5,9.5,0,1.7,1.7,2.8,1.9,6.2,1.3,7.7-1.3,16.9-.5,27.9,2.2,2.1.5,2.8.2,3.3-1.5.4-1.2.5-3.3.4-4.8-.3-2.9.7-5.2,2.2-5.2s4,6.6,4,9.6.7,2.5,2.7,3c2.2.5,3.1.1,5.2-2.5,2.2-2.6,3.3-3.2,6.7-3.2s4.3-.4,5.3-2.8c1-2.4,1.6-2.8,4.2-2.4,3.4.5,6.3,2.9,7.3,6,.8,2.5,4.2,3.7,6.1,2.1.8-.7,1.5-.8,1.5-.3,0,1.2,9.7,11.3,10.9,11.3s1.6.8,2.3,1.8c1.6,2.2,5.2,4.2,7.3,4.2s2.7,1.2,4.1,2.6c2.4,2.4,2.5,3,2,10.2-.4,5.8-.2,8.1.9,9.6.8,1.1,1.5,2.8,1.5,3.8s.4,1.8.8,1.8,2.4,1.5,4.4,3.2c2.8,2.5,3.7,4.3,4.2,7.9.6,4.5.4,4.8-3.3,8.2-2.1,1.9-4.8,4-6,4.6-1.2.6-2.1,1.7-2.1,2.4s-1.4,2.3-3,3.5c-2.6,1.9-3.1,2-3.6.7h0Z"/>
        <path id="path7389" class="st12" d="M851.6,579.3c-.4-.4-.7-1.4-.7-2.3s-1.6-2.2-4.2-3.2c-3.4-1.3-4.2-2-4-3.8.3-2.7-1.4-6-3-6.1-.7,0-2.8-1.4-4.7-3-3.7-3.2-7.4-3.7-10.4-1.5-1,.8-2.5,1.1-3.3.8-1.5-.6-4.4,2.2-8.7,8.7-3.3,4.9-6.1,8-7.3,8s-1.6-.7-2.3-1.5c-.7-.8-2.3-1.5-3.6-1.5-3,0-3.4-.8-4.1-7.2-.7-6.3-3.7-9.8-8.3-9.8s-3.4.7-4.6,3.1c-.9,1.8-1.4,4.3-1.1,5.9.4,2,0,3.3-1.8,4.9-1.3,1.2-2.7,3.6-3,5.4l-.7,3.2-1-2.5c-2.1-5.2-3.7-7.5-5.8-8.6-3.7-2-8.8-8.3-9.3-11.6-.3-1.8-.8-4.2-1.2-5.3-.5-1.6,0-2.5,2.1-3.9,1.9-1.2,2.9-1.5,3.2-.7.5,1.6,1.6,1.4,4.2-.8,1.3-1.1,3.1-2,4.1-2s2.1-.5,2.5-1.2c.7-1.1-1.1-.9-6.2.7-1.7.5-1.7.5,0-.7,2.1-1.3,14.5-3.9,18.6-3.9,1.8,0,2.1.3,1.1.9-1.1.7-1.1.9,0,1.3.7.2,1.9-.1,2.7-.8s3-1.8,5-2.3c2-.6,5.1-2.3,6.8-3.8,2.8-2.6,6.9-5.3,7.9-5.3s.6,1.5.8,3.2c.3,3,.6,3.3,4.3,3.5,4.9.4,6.5,2.3,6.5,7.6,0,5.1.5,5.8,5.7,8.4,2.3,1.2,4.5,2.6,4.8,3.1.8,1.2,7.5,1.3,9.3.1.7-.5,1.2-1.9,1-3.2-.3-2,.2-2.4,2.3-2.7,1.5-.2,4.5.6,6.7,1.8,2.2,1.1,5.6,2.1,7.5,2.1s3.7.6,4,1.5c.3.8.9,6.9,1.3,13.5l.7,12h-6.5c-3.6,0-6.8-.3-7.2-.7h0Z"/>
        <path id="path7387" class="st12" d="M474.9,564.4c-1.9-.7-4.8-1.4-6.4-1.4s-5-1.4-7.5-3c-2.5-1.6-7-3.4-10.1-4-5.6-1.2-14-5.4-14-7.1s-1.3-2.4-2.8-4.2c-4.2-4.9-4.5-6.6-1.8-9.8,1.3-1.6,2.6-3.4,2.8-4s1.8-1.1,3.6-1.2c1.8,0,3.5-.5,3.8-1s2-.6,3.8-.3c2.9.5,4,0,8.9-4,3.1-2.5,6.6-4.6,7.7-4.6,3,0,8.1-5.9,7.7-9-.2-2-.8-2.5-3-2.3-2.2.1-2.8-.2-2.8-2s-.5-2.7-1-3.3c-.7-.7-.7-1.9,0-3.8.6-1.5,1-3.1,1-3.5,0-1-6.7-3.9-10.8-4.7-3.6-.7-3.8-1.1-1.7-4,1.1-1.5,3-2.2,7.1-2.7,3.6-.4,7-1.5,9.5-3.1,2.8-1.9,5.8-2.7,11.5-3.2l7.7-.7,2.9,3.1c3.4,3.7,4.8,3.9,8,1.1,4.2-3.6,9-1.5,9,3.9s3.7,5.9,7.1,4c3.9-2.1,9.2-2,11,.2,1.2,1.5,3,2,7.8,2.2,5.2.2,6.8-.1,9.4-2.1,3.4-2.5,7.7-3,9.6-1.1,1.5,1.5,1.6,7.8.2,7.8s-1,.9-1,1.9-.4,2.1-.9,2.2-1.3,5-1.9,10.6c-1.1,11.4-5.3,23.2-8.4,23.2-2.1,0-2.9,2.1-2.9,7.7s-.2,4.4-1.8,3.8c-4-1.7-12.4-2.8-22.7-2.9-7.8,0-11-.5-11.3-1.3-.7-2.1-8.7-1.6-10.7.7-1.6,1.8-1.7,3.2-.4,8,.2.8-1.2,2.5-3.4,3.9-3.4,2.2-3.8,2.9-3.8,6.8s-.2,4.3-2.8,4.3c-1.5,0-4.3-.7-6.2-1.4h0Z"/>
        <path id="path7379" class="st12" d="M586.9,545.9c-2.2-3.2-5-4-5-1.5s-.6,1.2-1.5.9c-.8-.3-1.5-1.2-1.5-2s-.9-2.2-2-3.1c-1.1-.9-2-2-2-2.4s1.8-2.8,4-5.3c2.2-2.5,4-5.3,4-6.2,0-1.2.8-1.4,3.8-.9,8.7,1.5,9.2,1.7,9.2,3.7s.7,1.9,3.5,1.9,3.4.1,2.3,2c-1,1.6-1,2.4,0,4,.7,1.2.8,2,.2,2s-1,1.6-1,3.5c0,3.3-.1,3.4-2.1,2.2-1.7-1-2.2-1-2.6,0-.4,1.1-5.3,4.2-6.7,4.2s-1.4-1.3-2.6-3h0Z"/>
        <path id="path7377" class="st12" d="M547.6,547.3c-.4-.4-.7-1.6-.7-2.7s-.7-3.9-1.6-6.2c-1.5-4-1.5-4.3,1.1-9.4,2-3.9,2.9-7.8,3.6-14.9,1-9.7,2.4-15.1,4-15.1s.9-2,.9-4.4.6-5,1.5-5.9,1.2-1.8.8-2.1c-.4-.4.4-.9,1.6-1.2,1.4-.4,2.1-1.1,1.7-2-.7-1.9.4-1.7,3.9.6,1.7,1.1,4.5,2,6.2,2,3.6,0,4.7,1.4,5.8,7.3.6,3.4,1,3.7,4,3.7s3.4-.5,3.8-2c.6-2.1,5.2-4.4,6.9-3.4.6.4.8,1.8.5,3.3-.5,2.7-.5,2.7,5.1,2.6,5.3,0,5.7.1,6.6,2.7.8,2.4.7,3-1.3,4.4-1.8,1.3-2,1.8-1,2.5,2,1.2,2.6,20.8.7,22-2.4,1.5-4.8,1-4.8-1.1s-.7-2-1.5-2-1.5-1.1-1.5-3.8c0-2.1-.7-4.9-1.4-6.2s-2.2-4-3.1-5.8c-1.8-3.4-3.5-4.3-3.5-1.9s-1.4,2.9-3.1,4.7c-3.1,3.3-3.1,3.4-1.9,8.1,1.4,5.3,1,6.2-4.9,12.6-2.7,2.9-3.6,3.3-6.5,2.7-3-.6-3.5-.3-4.6,2.4-1.1,2.7-1.7,3-5.6,3s-4.6.5-6.5,3c-2.1,2.9-4,3.7-5.3,2.3h0Z"/>
        <g id="g7472">
          <path id="path7383" class="st12" d="M864.7,555.8c-.3-3.2-.6-3.4-4.8-3.9-2.5-.3-6.6-1.6-9.2-2.9-4-2-5.1-2.2-7.3-1.2-2.2,1-2.5,1.7-2,3.7.6,2.3.4,2.5-3.1,2.5s-14-4.7-14.7-7.5c-.3-1.1-.5-3.6-.6-5.6,0-4.5-1.5-6-6.2-6s-3.9-.4-4.4-2.5c-1.2-5-.2-5.6,9.1-5.4,5.5.1,8.9.7,9.6,1.5,2.1,2.5,0,3.5-6.2,2.8-4.3-.5-5.9-.3-5.9.5s.8,1,2,.5c1.1-.4,4.4,0,7.3,1,4.9,1.5,5.3,1.9,4.8,4.3l-.5,2.7,2-2c1.1-1.1,1.8-2.3,1.6-2.8-.6-1.1,3.1-.9,6.2.3,2.4.9,2.6.8,2.2-1-.4-1.5.2-2.2,2.8-3.1,4.9-1.6,6.8-7,3.4-9.4-1.2-.8-1.8-2-1.4-2.5.4-.7,0-.8-.9-.5-.8.3-1.5,1-1.5,1.5s-.5.9-1,.9c-2.3,0-.6-2,5-5.9,3.3-2.3,6.5-4.1,7-4.1s3.1-2.2,5.8-4.9c4.7-4.7,4.9-5.1,6-13.2.9-6.7,1.5-8.6,3.4-10,2.1-1.6,2.3-2.4,2.1-12.6,0-6,.3-11.5.8-12.4.7-1.1,1-.7,1,1.8,0,3.2,0,3.2,4.8,3.2s5.2-.4,5.8-.9c.6-.6,5.3,4.1,12.6,12.3l11.6,13.3,1.6,11.4c1.8,12.8,5.2,54.7,4.6,55.3-.2.2-9.9.9-21.4,1.5-11.5.6-23.3,1.4-26.2,1.7l-5.2.6-.3-3.4h0Z"/>
          <path id="path7373" class="st12" d="M836.4,527.5c2.2-1.4,4.5-2.5,5.2-2.5.6,0,1.4-.6,1.7-1.3.3-.7.5-.8.6-.2.2,2-4.9,5.8-8.2,6.1l-3.3.3,4-2.5h0Z"/>
        </g>
        <g id="path7369">
          <path class="st0" d="M589.5,523.8c-.8,0-1.9-.1-3.5-.3-2.7-.4-3.2-.9-3.8-3.3-.6-2.4-.5-3.1,2.5-6.5,1-1,2.5-2.8,3-2.8,0,0,.1.1.3.7.4,1.1,1.3,2.7,2.1,3.6.7.8,1.4,3,1.7,4.9.2,1.7.1,2.6-.3,3.1-.3.4-1,.6-2,.6h0Z"/>
          <path class="st10" d="M587.5,511.6c0,0,0,.1,0,.2.4,1.2,1.4,2.8,2.2,3.8.5.6,1.3,2.7,1.6,4.6.2,1.5.1,2.3-.2,2.7-.2.3-.8.4-1.7.4s-1.9-.1-3.4-.3c-2.5-.4-2.9-.7-3.4-2.9-.6-2.3-.5-2.8,2.4-6,.6-.7,1.8-1.9,2.4-2.4M587.7,510.5c-.5,0-1.5.9-3.3,2.9-3,3.3-3.4,4.2-2.7,6.9.7,2.6,1.4,3.2,4.2,3.7,1.5.2,2.6.4,3.5.4,2.7,0,3.2-1.1,2.8-4.2-.2-2-1.1-4.3-1.8-5.2-.7-.9-1.6-2.4-2-3.5-.2-.7-.5-1.1-.8-1.1h0Z"/>
        </g>
        <path id="path7367" class="st12" d="M616.9,519.5c-1.4-.7-4-3.4-5.8-5.9-2.4-3.3-3.9-4.5-5.5-4.3-1.6.2-2.3-.4-2.5-2-.3-2.1,0-2.2,4.6-2.2s5.7-.6,6.8-1.4c1.2-.9,2.5-1.1,3.4-.6.8.5,2.8,1.1,4.4,1.4,1.7.4,3.5,1.8,4.5,3.6.9,1.6,2.3,2.8,3,2.5,1.1-.4,5.2,2.7,5.2,4s-1.1.5-2.5.5-3,.9-3.7,1.9c-1,1.5-1.6,1.7-3.1.9-1.5-.8-2.4-.6-4,1-1.9,1.8-2.5,1.8-4.7.7h0Z"/>
        <path id="path7365" class="st12" d="M605.3,502.2c-1.9-6-2.2-6.2-7.4-6.2s-5-.2-5-2.5-.7-2.8-1.5-3.1c-2.4-.9-7,1.1-8,3.5-1.6,3.6-4.8,2.4-6-2.4-1.4-5.6-2.2-6.5-5.8-6.5-3.6,0-11.5-4.4-9.8-5.4.6-.4,1.1-2.3,1.1-4.4,0-3.5.3-3.9,5.2-6.3,3.6-1.8,5.2-3.1,4.9-4.3-.2-.9,1.1-4.1,2.8-7.2,1.7-3,3-6.2,3-7,0-1.2.4-1.2,1.9-.3,1.5.9,2.4.8,4.4-.7,1.4-1,3-2.9,3.6-4.2,1-2.1,1.3-2.2,3.3-.9,1.2.8,4.7,1.7,7.6,2l5.4.6-.4-3.4c-.2-2.2,0-3.6.9-3.9,1.7-.6,2.5.8,1.7,2.9-.9,2.3,3.4,6.7,5.8,6,1-.3,1.8-.1,1.8.4s.9,1.2,2.1,1.5c2,.5,2,.7.5,3.5-.9,1.7-1.3,3.7-1,4.6.7,1.8,0,2-2.7.5-1.5-.8-2.2-.5-3.5,1.5-.9,1.4-2.3,2.5-3,2.5s-1.4.7-1.4,1.5.6,1.5,1.4,1.5c1.2,0,1.2.4,0,3-1.7,3.4-1,8.8,1.2,9.6,2,.8,5.3-1.4,10-6.3,4.6-4.8,6-5.3,7.5-2.5.8,1.5.3,2.6-2.7,5.7-2,2.1-4.4,3.9-5.1,3.9-2.5,0-2.3,2.3.3,4,2.1,1.4,2.4,2.2,1.9,4.8-.3,1.7-1.2,3.9-2,4.7s-1.4,2.9-1.4,4.5-.7,3.4-2.9,4.7c-3.8,2.2-8,2.2-8.7,0h0Z"/>
        <path id="path7349" class="st12" d="M431.7,448.2c-1-.2-1.8-.8-1.8-1.2s-1-1.2-2.1-1.5c-1.2-.4-1.7-1-1.1-1.3.5-.4,1.5-2.3,2.2-4.3s2-4.7,3-6c2.5-3.1,5-9.5,4.2-10.4-.4-.4.5-.4,1.9-.1,5.5,1.3,13-8.8,13.3-17.8.1-3.7-.1-4-3.3-4.8-4.9-1.3-8.1.6-8.1,4.8s-1.8,5.6-4.8,4.8c-2.6-.7-2.7-1.1-.6-8.6,1.6-5.6,1.6-5.9-.2-7.3-2.8-2.1-3.1-1.9-4.9,3.5-.9,2.7-2.1,5.2-2.6,5.6-1.2.7-1.2.9.9-5.2,1-2.8,2.5-5.9,3.5-6.8,3-3,1.8-4.1-5.3-4.8-2.1-.2-2.5.2-2.8,3-.2,1.9.1,3.2.8,3.2s1,1,.8,2.2c-.2,1.8-.9,2.2-2.8,1.9-1.4-.2-2.9-.9-3.3-1.5-1.1-1.7-.2-19.3,1.5-26,.8-3.2,2.2-6.4,3.1-7.1s1.7-1.8,1.7-2.4,1.1-1.1,2.5-1.1c2.4,0,2.5-.2,2.1-4.8-.6-6.9.2-9.8,3.2-11.4,1.5-.8,3.5-2.4,4.5-3.7,1-1.3,2.7-3.1,3.6-4s2-2.5,2.4-3.5c.6-1.6,1.4-1.8,5.9-1.3,2.9.3,7.3,1,9.7,1.4,2.5.5,7.2.6,10.5.3l6-.5.3-6.7c.2-5.2-.2-8-2.1-12.7-1.4-3.3-2.2-6.3-1.9-6.6,1.1-1.1,10.8-.5,14.7,1,5.1,1.9,5.4,2,9.2,2.9,1.9.4,3.2,1.4,3.2,2.2s.8,1.7,1.8,1.9,2.2,1.5,2.8,2.7c.8,1.9,1.6,2.1,5.7,1.9,2.9-.2,4.8,0,4.8.8s1.7,2.9,3.7,5.1c2.9,3.2,4.2,3.9,6,3.5,3.3-.8,3.1,2.1-.2,3.6-1.5.7-2.8,2.4-3.3,4.2-.7,2.5-1.3,3-3.4,2.8-3-.3-4.2,2.1-3.2,6.2.5,2.2-.5,3.8-7.2,11.2-7.8,8.6-11.9,11.4-16.9,11.4s-11.1,3.5-11.8,5.3c-.3.8.3,2.1,1.4,3,1.4,1.2,1.7,2.4,1.3,4.5-.9,4.6,2,9.3,7.7,12.7,2.9,1.7,5.2,3.9,5.6,5.2.8,3.2,3.2,5,3.9,3,.3-.9,1.4-1.3,2.4-1,2.2.6,7.1-3.7,7.1-6.2s0-1.7,2,0c2.5,2.2,2.6,7,.2,8.4-1.7.9-1.7,1.1,0,4.3,2.3,4.2,1.5,11.2-1.8,15.3l-2.3,2.9-3.3-3.2c-1.9-1.9-4.2-3.1-5.3-3-3.1.4-6.5-2.3-6.5-5.1,0-1.6-1.7-4.3-4.4-7.2-3.7-4-4.6-4.5-5.6-3.3-1.6,1.9-6.8,4.5-9.1,4.5s-2.3.9-2.9,2-2.4,2.7-3.9,3.5c-5,2.6-6.1,4.3-6,9.9,0,4.9,1.6,8.6,3.6,8.7,1.8.1,5.5,5.9,5,7.7-.3,1-2.5,3.2-4.8,5-4.3,3.3-8.8,4.1-19.8,3.4-1.9-.1-4.6.2-6,.6s-3.3.6-4.2.4h0Z"/>
        <g id="g7483">
          <path id="path7391" class="st12" d="M733.9,584.8c0-1.3-1.1-2.5-3.2-3.4-1.8-.8-4.8-3-6.7-5-2.7-2.8-3.2-3.8-2.1-4.5,1.7-1,.7-4.1-1.2-4.1s-2,.7-2.7,1.5c-.7.8-2,1.5-2.8,1.5s-2.8,1.2-4.2,2.6c-6.5,6.2-15.5-2-10.3-9.4,1.4-2,1.4-2.9.4-6.7-1.4-5-2.2-5.5-7.9-4.9-2.3.2-4.1,0-4.1-.6s-.9-1-2-1-2-.7-2-1.5-.9-2.4-2-3.5-2-2.6-2-3.2c0-2.2-2.4-4.5-6.4-6.2-5.2-2.2-5.8-2-5.2,1.2.4,1.9,0,3.9-1.5,6.2l-2.1,3.4-1.7-2.2c-1.6-2.1-1.8-2.2-5.4-.7-3.5,1.5-3.7,1.4-4.7-.4-.6-1.1-1-2.6-1-3.4s-1.3-1.8-3.1-2.2c-4-.9-4.6-2.7-2-6.3,1.2-1.6,2.1-4.3,2.1-5.9,0-2.7.5-3.2,4.2-4.3,5.7-1.8,6-4.9.4-6-5.5-1.2-7.4-2.4-8-5.4-.7-3.5,3.7-15.3,7-18.9,2-2.2,2.3-2.9,1.2-3.6-.8-.5-1.9-.9-2.5-.9s-2.3-.9-3.7-2c-2.6-2-5.7-1.8-5.7.4s-2.1,3.5-4,1.6c-1-1-2.2-1.9-2.8-2.1-.6-.2-.7-2.1-.2-4.9.4-2.5.8-4.1.9-3.7s1.5-.1,3.1-1.3c3.4-2.4,3.2-3.9-.9-6.2-2.2-1.2-3-2.5-3.2-5-.3-2.9-.7-3.3-2.7-3-2.8.4-6.2,3.6-6.2,5.8s-.3,1.4-1.5.4-2.1-.8-5,1.4c-1.9,1.5-4.2,3.7-5,5-.8,1.2-2.6,2.8-4,3.4-2.3,1-2.6.9-3.5-1.5-.8-2.1-.6-3.3,1-6l2-3.4-2.2-.9c-1.5-.6-1.7-.9-.6-1,.9,0,2.3-1,3-2.2,1.2-1.8,1.8-2,3.5-1,2.5,1.3,3.3.7,3.3-2.4s.5-3.4,1.2-4.8c.9-1.9.9-2.9-.1-4-.7-.8-1.7-1.3-2.2-1-.5.3-.9-.2-.9-1.1s-.6-1.5-2.1-1c-2.7.9-5.9-2-5.2-4.6.3-1.1-.4-3.7-1.6-5.9l-2.1-4,2-2.6c1.5-1.9,1.8-3.4,1.4-5.5-.4-2-.1-3.7.9-5.2.9-1.2,1.6-3,1.6-3.9s.7-1.9,1.5-2.2c2.4-.9,1.8-2.4-2.2-5.1-3.8-2.6-3.7-2.9.9-2.6,1.5,0,3-.3,3.3-.9,1-1.7,2-1.3,7.2,2.9,2.7,2.2,5.3,4,6,4,1.2,0,3,3.9,7.1,14.9,1.3,3.5,3.2,7.4,4.3,8.5s3.1,5,4.5,8.6c1.5,3.8,2.3,5,1.9,3-.4-1.9-.7-5.5-.6-8,.1-3.9-.4-5.1-3.9-9-2.2-2.5-3.7-3.6-3.3-2.5s1,2.7,1.3,3.5c.4,1.1.3,1.2-.7.4-.7-.6-1.3-2.6-1.5-4.5-.2-1.9-1.5-5.1-2.9-7.3-1.5-2.1-2.7-4.4-2.7-5,0-1.4.9-.3,5.5,6.7,2.1,3.2,5.3,6.7,7.1,7.8,3.8,2.2,4.8,5,3.3,8.5-1.4,3,.5,14.6,3.3,20.1,1.1,2.1,1.9,4.4,1.9,5.1s2.6,3.9,5.7,7c6.8,6.8,11.1,12.2,14.7,18.6,1.4,2.6,3.6,6,4.8,7.6,1.4,1.9,2.3,4.9,2.6,8.5.4,4.9.9,5.9,3.9,8.3,1.9,1.5,4.1,3.9,4.9,5.4s2.3,2.9,3.3,3.3c1,.3,2.4,1.7,3,3.1.6,1.4,2.3,2.9,3.7,3.5,3,1.1,3.4,2.4.5,1.5-1.2-.4-2-.2-2,.4s.5,1.1,1,1.1.9.6.8,1.2c-.2.8.7,1.1,2.5.9,1.5-.2,3.5.3,4.4,1,1.4,1.1,1.5,1.1,1.1-.2-.3-.8-1.5-1.6-2.7-1.8s-2.2-.7-2.2-1.2,1.8-.3,3.9.5c2.5.9,5.9,1.2,9.5.8,5.3-.5,5.8-.4,9,2.7,1.8,1.8,4.9,3.6,6.7,3.9,2,.4,3.8,1.6,4.5,3,.6,1.3,1.6,2.8,2.2,3.3s.8,1.8.5,2.7c-.3.9-.2,1.3.2.9s1.5.2,2.3,1.4c1.3,1.9,2.1,2,8.7,1.4l7.2-.7,1.2,3.9c.7,2.2,1.2,4.8,1.2,5.8,0,1,2.1,3.7,4.6,5.9,7.3,6.3,8.5,7.8,10,12,1.8,5.3,1.9,5-2.2,7.4-3.3,1.9-5,2.1-20.5,2-16.2,0-16.9-.2-16.9-2.1h0Z"/>
          <path id="path7345" class="st12" d="M642.3,436.9c-.4-.6-.2-1.6.4-2.2.8-.8,1.1-.5,1.1,1.1,0,2.4-.5,2.8-1.5,1.1h0Z"/>
        </g>
        <g id="g7476">
          <path id="path7381" class="st12" d="M919.5,551.7c-.3-2.3-1.3-13.2-2.1-24.2s-2.2-24.2-3-29.2c-.8-5.1-1.4-9.5-1.4-9.7s3.3-2.9,7.4-5.8c10.1-7.2,43.6-32.4,46.2-34.8,3.4-3.1,6.5-15.4,5.5-22.2l-.8-5.6,3.8-.6c2.1-.3,4-1,4.4-1.6,1.3-2-.6-2.7-5.2-1.9-3.3.6-6.3.4-9.8-.5l-5-1.4h6.5c3.6.1,9-.5,12.2-1.2,5.6-1.4,5.7-1.4,9.7,1.3,2.2,1.5,4.7,2.7,5.5,2.7s1.6,1.9,2.2,6.7c1.1,10.6-1.2,16.7-9.9,25.9-2,2.1-4,5.3-4.3,7.1-.3,1.8-1,3.2-1.4,3.2-1.7,0-3.1,7.1-2.6,13.2.3,3.5.3,5.5,0,4.6-.9-3-2.3-1.9-3.8,3-.8,2.6-1.5,4-1.5,3,0-1-.5-1.8-1.1-1.8-1.5,0-1.2,2.6.4,3.9,1,.9,1.7.8,2.7-.4.7-.9,1.9-1.3,2.6-1,.8.3,1.3-.1,1.3-1s.6-1.4,1.2-1.1c2.9,1-1.4,11.1-4.5,10.5-1.6-.3-3.1,2.9-2.4,4.9.7,1.8.8,1.8,2,.1.7-1,2.2-1.8,3.4-1.8,2.7,0,2.7.5.1,3-1.3,1.3-2,3.4-2.1,6.2,0,2.3-.5,6.5-1,9.2s-1.4,8.6-2,13c-1,7.2-2.9,12.5-2.9,8.2s-.5-1.7-1-1.7-.9-.3-.8-.8c.3-1.6-2.2-6.2-3.4-6.3-3.2,0-3.7-1.5-2.2-6.4,1.7-5.6,1.9-9.5.5-9.5s-1.2.9-1.5,2c-.3,1.1-1.5,2.2-2.6,2.6-1.5.5-1.7,1-1,1.9,1.6,2-1.6,9.1-4.8,10.6-1.5.7-3.3,1.5-4.1,1.9-.8.4-1.9,2-2.4,3.6s-1.8,4.2-2.9,5.8-2.7,4.9-3.7,7.5c-1.8,5.1-4.1,6.3-7.1,3.7-2.8-2.6-5.5-1.5-5.8,2.3-.3,3-.6,3.2-3.7,3.2s-3.4-.2-3.9-4.2h0Z"/>
          <path id="path7363" class="st12" d="M978.4,493.9c-.3-.5-.1-1,.4-1s1.1.5,1.1,1-.2,1-.4,1-.7-.5-1.1-1Z"/>
          <path id="path7353" class="st12" d="M991.3,456.6c-.9-2.2,1.5-8.7,3.4-9.3.9-.3,2.4-.9,3.4-1.4,2.3-1.2,2.2-.4-1.1,6-2.9,5.7-4.8,7.3-5.8,4.7h0Z"/>
          <path id="path7337" class="st12" d="M996.9,427.5c0-.9.5-1.6,1-1.6s1,.4,1,.9-.5,1.2-1,1.6-1,0-1-.9Z"/>
          <path id="path7333" class="st12" d="M996.9,419.9c0-.5.2-1,.4-1s.7.5,1.1,1,.1,1-.4,1-1.1-.5-1.1-1Z"/>
        </g>
        <g id="g7465">
          <path id="path7355" class="st12" d="M378.9,462.3c0-.6-1.6-1.4-3.5-1.8-1.9-.4-3.5-1-3.5-1.4s2.3-3,5-5.7,4.9-5.5,4.5-7.1c-.3-1.2-.1-4.3.4-6.9.7-4,.6-5-.9-6.5-1-1-2.2-1.9-2.7-2.1-.5-.2-2-2.1-3.2-4.1-1.9-3.1-2-3.8-.7-3.8,2,0,2-2.4,0-4-1.3-1-1.5-.9-1.6,1.1,0,3.2-2.4-4.3-4.4-14.6-.9-4.4-1.9-9-2.2-10.2-.4-1.4-.1-2.2.5-2.2s1.1,1.1,1.1,2.6c0,2.4.3,2.5,4.2,2.2,3.2-.2,4.1-.7,3.9-1.8-.2-.8-.9-3.1-1.4-5.1-.9-3.1-.7-4,1.2-6.8,1.2-1.8,2-3.8,1.8-4.5-1.3-3.4,3.6-4.5,10.5-2.4,3.4,1,3.9,1.6,4.4,4.8.3,2,.7,4.4.9,5.4.2,1-.8,2.6-2.2,3.7-4.7,3.7-.4,6.9,4.5,3.4,3.2-2.3,7.2-1.1,7.2,2.1s4.1,5.9,8.4,5.2l3.4-.5-1.4,5.2c-2,7.4-1.8,8.9,1.7,12.2,2.9,2.8,3,3.2,2.4,8.2-.6,4.8-.4,5.5,1.8,7.2,4.3,3.4.7,8.6-4.2,6-1.1-.6-2.2-1.1-2.5-1.1-1.2,0-.5,6,.9,7.4,1.9,1.9,1.9,3.1.1,4.6-.8.6-1.7,2.8-2.1,4.8l-.7,3.6-3.8-3.7c-4.9-4.7-9.9-5.7-13.7-2.7-1.5,1.2-3.6,2.1-4.8,2.1s-3.6,1.7-5.8,4.2c-2,2.4-3.7,3.8-3.8,3.1h0Z"/>
          <path id="path7343" class="st12" d="M350.4,435.9c-.9-1.5.1-2.3,2.1-1.6.9.3,1.3,1.1,1,1.6-.8,1.3-2.2,1.3-3,0h0Z"/>
          <path id="path7341" class="st12" d="M342.9,432.2c0-2.4,2.7-3.7,6.7-3.4,1,0,1,.5,0,2.1-1.2,1.9-6.8,2.9-6.8,1.2h0Z"/>
          <path id="path7335" class="st12" d="M336.1,423.6c-1.5-4.3-1.5-4.2.7-4.4,2.2-.2,3.5,1.1,5,5,1,2.5.9,2.7-1.7,2.7s-3-.6-4-3.3h0Z"/>
          <path id="path7331" class="st12" d="M329.9,415.9c0-1.1.5-1.8,1-1.4s1,1.3,1,2.1-.5,1.4-1,1.4-1-.9-1-2.1Z"/>
        </g>
        <g id="g7445">
          <g id="g7414">
            <path id="path7319" class="st12" d="M225.9,372.5c-1.5-1.6-2.6-4.3-3.1-7.8-.4-2.9-2-7.9-3.6-11.2-2.3-4.8-3.8-6.4-7.8-8.6-3.1-1.7-5.6-4-6.7-6.2-2.6-5.1-16.3-18.6-19.6-19.3-4.3-1-8.3-2.6-8.3-3.5s1.5-.4,3.2,0l3.2.9-2.8-2.4c-1.5-1.3-2.8-3.3-2.8-4.3,0-2-3.9-2.6-5.2-.7-.4.5-.8-.1-.8-1.5,0-1.4-.7-3.4-1.5-4.4s-1.5-2.9-1.6-4c0-1.5-.4-1.2-.9.9-.7,2.8-.8,2.9-.9.5-.2-2.3-.3-2.3-1-.5-.7,1.8-.9,1.6-1.5-1.3-.4-1.8-1.1-3-1.6-2.7-.5.3-.9-.1-.9-1s.5-1.5,1.1-1.3c.6.1,1.4-.4,1.6-1.1.3-.9,0-1.1-.6-.7-1.6,1-1.4-.2.9-6.9,1.1-3.2,2-6.6,2-7.7s.5-1.8,1.1-1.8.7-.5-.1-1.5-.9-1.5-.1-1.5,1.1-1.8,1-4.8v-4.8c-.1,0-.9,4-.9,4-.7,4-.7,4-.9-1.5-.2-6.8-2.3-14.8-3.6-14.3-.6.2-1.6-1.2-2.3-3.2-1-2.8-1.7-3.4-3.2-3-1.1.4-2.6-.1-3.7-1.2-1-1-3.1-2.5-4.6-3.3-1.6-.8-2.3-1.6-1.7-1.8,1.6-.6,1.3-2.2-.4-2.2s-6.4-3-5.8-4.5c.3-.7-.2-2.8-1.1-4.5-1.4-2.6-1.4-3.4-.3-4.7,1.1-1.4,1-1.5-1.2-.8-2.4.8-2.4.7-.7-1.2,1.8-2,2.4-6.3.9-6.3s-1.6,1.8-2.5,3.9c-1.7,3.8-1.9,3.9-4.8,2.9-1.9-.7-2.8-1.6-2.5-2.4.3-.8-.1-1.4-.9-1.4s-1.5.8-1.5,1.8-.5,2.3-1.1,2.9c-1.3,1.3-4.2.6-3.3-.8.3-.5-.1-1.2-1-1.5-.8-.3-2.5-2.1-3.6-4-1.4-2.3-2.9-3.4-4.4-3.4s-3-1.1-4.4-3.4c-2.2-3.6-4.2-4.9-6.3-4-2.4.9-5.7-3.4-5.8-7.3,0-4.4-1.5-6.6-5.1-7.5-1.8-.4-3-1.7-3.7-3.7-.6-1.6-1.7-3-2.4-3-1.8,0-6-5.7-4.8-6.5,1.3-.8,4.8,0,9.4,1.9,4.8,2,8.6,2.1,11.2.1,2.7-2,3.4-1.9,3.4.5s.9,2.4,2.2,2.9c2.5.9,4.1.4,3.2-1-.3-.5.1-.9,1-.9s1.6-.5,1.6-1-1.1-.8-2.5-.4c-2.1.5-2.4.4-1.8-1.1.5-1.4.3-1.6-1-1.1-1.3.5-1.2,0,.6-2.4,2.1-2.8,2.3-2.9,2.6-1,.4,2.6.4,2.6,23.9,4.7,10.6.9,19,2.1,18.7,2.5-1,1.6,4.9,12,7.6,13.4,2.9,1.5,6.8,8.7,7.7,14.2.4,2.4,1.5,3.8,3.9,5.3,2.9,1.7,3.3,2.4,2.8,4.9-.3,1.7-.1,3.2.5,3.6.6.4,1.1,2.8,1.1,5.4,0,5.3,3,10.5,4.9,8.6.8-.8.5-1.8-.9-3.7-2-2.5-2.9-9.8-1.2-9.8s7.2,7.9,7.8,11c.3,1.7,1.2,3,2,3s1.4,1.1,1.3,3.2c0,4.6,1.1,11,2.2,12.5.6.8.6,2.5-.2,4.9-1.1,3.4-.9,4.2,2.1,10.5,1.9,3.8,4,7.1,4.9,7.4s1.6,1.5,1.6,2.7c.3,6.4,1.7,11.5,4.4,15.9,3.7,6,4.6,9.5,3,11.4-.9,1-1,3.4-.5,8.2.9,8.4,3.3,12.2,7.8,12.3,1.8,0,2.6.3,1.9.6-2,.8-1.4,2.3.8,2.3s2-.5,1.5-3.2c-.3-1.8-.1-3.9.4-4.7.8-1.2,2-.4,6,3.9,2.8,2.9,5.1,5.9,5.1,6.7s1,1.4,2.5,1.4,2.5.5,2.5,2.2.6,4.7,1.2,7.7c1,4.4,1.9,5.8,4.4,7.4,5.4,3.2,5.6,12,.4,17.5-1.2,1.2-2.8,2.2-3.6,2.2s-3.4,1.1-5.9,2.5-4.6,2.5-4.9,2.5-1.4-1.1-2.7-2.5h0Z"/>
            <path id="path7317" class="st12" d="M234.2,326.2c-1.5-4.9-.9-5.3,1.6-1.1,2.4,3.9,2.5,4.9.8,4.9s-1.8-1.7-2.4-3.7h0Z"/>
            <path id="path7313" class="st12" d="M173.6,317.1c-1.8-2-2.1-3.2-.8-3.2s1.6,1.1,2.5,2.5c1.9,2.9.7,3.4-1.8.7Z"/>
            <path id="path7311" class="st12" d="M218.6,315.4c-2.2-4.6-2.1-4.8.8-1.9,1.4,1.4,2.5,3.1,2.5,4,0,2.5-1.6,1.6-3.3-2.1h0Z"/>
            <path id="path7309" class="st12" d="M167.4,310.3c-2.9-2.4-2.9-2.5-.5-1.8,3,.8,5.5,3,4.4,3.8-.5.3-2.2-.6-3.9-2h0Z"/>
            <path id="path7305" class="st12" d="M161.9,306.5c-.7-.9-1.4-2.5-1.5-3.8-.4-3.6-.4-3.7-2-3.1-1.7.6-1.9-.8-.6-3.4.5-1,1.6-3.3,2.3-5.2s1.9-4.6,2.6-6c1.1-2.3,1.1-2.2.6,1-.3,1.9-1.3,4.8-2.1,6.4-1.1,2.2-1.2,3.4-.4,5.3.6,1.3,1.1,3.4,1.1,4.7s.5,2.8,1.2,3.4.9,1.4.6,1.7c-.3.3-1.1-.1-1.8-1h0Z"/>
            <path id="path7303" class="st12" d="M213.1,301.4c-1.2-.8-2.2-2-2.2-2.6s-.8-1.9-1.7-3c-2.1-2.3-1.3-3.1,1.8-2,1.6.6,2.8,2.2,3.6,4.7.6,2.1,1,3.9.9,4.1-.1.1-1.3-.4-2.5-1.3h0Z"/>
            <path id="path7301" class="st12" d="M209.9,287c0-.5.4-1.2,1-1.6s1,0,1,.9-.4,1.6-1,1.6-1-.4-1-.9Z"/>
            <path id="path7299" class="st12" d="M164,279.2c0-1,.5-2.7.9-3.8.7-1.7.9-1.5.9,1.2,0,1.8-.4,3.5-.9,3.8-.6.3-1-.2-.9-1.2Z"/>
            <path id="path7295" class="st12" d="M208.2,273.4c-.3-.9-.1-2,.4-2.6.7-.7,1.2-.1,1.5,1.6.5,2.8-.9,3.5-1.9,1h0Z"/>
            <path id="path7293" class="st12" d="M199.9,270.4c0-.8.4-1.5,1-1.5s1,.7,1,1.5-.4,1.5-1,1.5-1-.7-1-1.5Z"/>
            <path id="path7291" class="st12" d="M194.9,262.9c0-2.2,3.1-6.9,4.5-6.9,2.3,0,1.8,2.6-1.1,5.4-2.8,2.8-3.4,3.1-3.4,1.5h0Z"/>
          </g>
          <path id="path7287" class="st12" d="M171.9,210.4c0-.9.4-1.3,1-.9s1,1,1,1.6-.4.9-1,.9-1-.7-1-1.6Z"/>
        </g>
        <path id="path7281" class="st12" d="M152.9,157.4c-1.6-1.9,0-1.9,2.6,0,1.6,1.2,1.7,1.5.3,1.5-.9,0-2.2-.6-2.9-1.5Z"/>
        <g id="g7439">
          <path id="path7285" class="st12" d="M130.6,176.9c-9.2-.9-17-1.9-17.3-2.2-.3-.3.2-2.1,1-4.1,1.3-3.2,1.3-3.6,0-3.1-1.7.6-2.1-1.6-.6-3.2.5-.5,1.2-2.6,1.6-4.5.6-3.1.3-3.9-2.4-6.5-1.7-1.6-4-5-5.1-7.6-1.1-2.6-2.9-5-3.9-5.3-1.1-.3-2.4-1.8-3-3.3-3-7.4-10.2-16.2-13.1-16.2s-3.2-1.7-5.2-3.8-5.4-5.3-7.7-7.2c-3.4-2.9-4.1-4.1-4.1-7.1s-.5-3.9-1.5-4.2c-1-.4-1.4-1.4-1.1-2.9,1.6-8,1.5-10.4-.5-12.6-1.1-1.2-1.8-2.6-1.5-3.1s.1-1.2-.4-1.6c-.6-.3-1,.3-1,1.5s-.4,1.8-1,1.5-1-3.7-1-7.5c0-6.6-2.2-14-4.2-14s-.8-2.3-.8-5-.8-6.4-3.1-10.5c-1.7-3-3.5-5.7-4-6-.5-.3-.9-2-.9-3.8s-.5-3.8-1.2-4.4-.9-1.5-.5-1.9c.4-.4,1.2-.2,1.9.5,1.8,1.8,2.8,1.4,2.8-.8s-.7-2-1.5-2-1.5-.5-1.5-1-.9-2-1.9-3.1c-1.1-1.1-2.2-3.9-2.6-6.2-.4-2.3-1.7-6.3-3.1-8.9-1.3-2.6-2.4-5.2-2.4-5.8,0-1.4,9.1-1.3,38.5.5,29.3,1.8,35.5,2.4,35.5,3.4s-2.3,3.1-5,5.9c-3.9,4.1-4.8,5.6-4.1,6.9,2.8,5.5,1.7,14.7-1.7,13.5-1.5-.6-1.5-.4-.2,1.3.8,1,2.3,2.7,3.2,3.7,1.9,1.9,2.3,4.8.9,6.3-1.6,1.8-3.3,9-3.3,14,0,7.5.1,8.6,1.6,9.1,1.1.4,1.3,3.6.9,17-.4,14.1-.2,16.5,1.1,17,.8.3,1.5,1.2,1.5,1.9s.7,2,1.6,2.9,1.3,2.2,1,3c-.6,1.5.8,2.8,3.3,3.2.8.1,1.9,1,2.4,2,.6,1,2,2.8,3.2,4s3.3,3.7,4.6,5.5c1.3,1.8,3.8,4.6,5.7,6.2,1.8,1.6,3.2,3.6,3.1,4.5s.2,2.9.6,4.5c.5,1.9.4,3.1-.4,3.6-.9.5-.9,1.5-.1,3.5,1,2.7,1.1,2.7,2.5.9,1.6-2.2,3.1-1.2,3.1,1.9s.6,2.2,2,2.2,2,.7,2.1,4.3c.2,5.1,1.4,6.9,5.4,7.7,2.5.5,3,1.2,3.6,4.6.4,2.2,1,4.2,1.5,4.5s.9,2.3.9,4.5c0,3.9,0,3.9-3.8,3.8-2.1,0-11.3-.9-20.5-1.9h0Z"/>
          <path id="path7283" class="st12" d="M75.1,169.5c-3.6-2-3.7-2.4-.9-3.5,2-.8,2.6-1.7,2.7-3.8,0-3.5,1.6-6.5,2.3-4.2,1.4,4.3,1.5,6.8.4,9.7-.9,2.4-2.4,3-4.5,1.8h0Z"/>
          <path id="path7273" class="st12" d="M143.9,139.8c-2.2-2.4-4.9-5.3-5.9-6.4-3.1-3.4-4.6-11.4-2.4-12.2,1.6-.6,6.2,4.4,6.1,6.7-.2,3.4.3,4,2.9,4s2.8.2,2.4,3.4c-.2,1.9.1,4.4.8,5.6,2.1,3.9.2,3.4-4-1.1h0Z"/>
        </g>
        <g id="g7428">
          <g id="g7399">
            <path id="path7279" class="st12" d="M162.5,156.5c.3-.9,1.1-1.6,1.6-1.6,1.3,0,.5,2.3-1,2.8-.7.2-.9-.2-.6-1.2Z"/>
            <path id="path7277" class="st12" d="M167.7,153.5c-4.8-2.5-4.9-2.6-2.8-5.3,1.1-1.4,2-3.8,2-5.4,0-3.4,4.7-6.6,6.6-4.5,2.1,2.3,2.5,8.9.6,12.8-1.9,4.2-2.5,4.4-6.5,2.4h0Z"/>
          </g>
          <g id="g7405">
            <path id="path7289" class="st12" d="M258.5,247.1c.6-4.5.5-5.1-1.5-5.7-2.9-.9-4.7-4.3-2.5-4.7,1.4-.3,1.3-.7-.6-2.8-1.5-1.8-2-2-1.6-.7.5,1.6.3,1.6-1.7.6-1.5-.8-1.6-.4-.3,1,1.1,1.2,1.4,2.1.8,2.1s-1.4-.5-1.8-1.1-1.2-.9-1.9-.6c-.7.3-1.7.2-2.4-.2-1.6-1-6.4-12.1-5.2-12.1s1-.4,1-1c0-1.3-6.3-3.9-7-2.9-.3.4-3.2-.5-6.5-2.1s-5.6-2.9-5.1-2.9.3-.7-.4-1.6c-.7-.8-1.4-3.2-1.6-5.2-.2-2.1-.8-3.9-1.4-4.1-1.3-.4-1.4-4.2-.1-4.2s.9-1,.8-2.2.2-2.9.6-3.8c.4-.9-.3-2.2-2-3.4-2.3-1.7-2.6-1.7-2-.2.6,1.6.5,1.6-1.8,0-1.5-1-2.5-2.6-2.5-4.1s-.4-2.2-1.1-1.8c-.6.4-.9,1.2-.6,1.9.3.7,0,1.9-.4,2.6-.8,1.1-1.3,1-2.9-.9-1.1-1.3-2-3-2-3.8s-.4-1.2-1.9-.4c-2.3,1.2-2.4,1.1-4.1-5.9-1.2-4.9-1.7-5.5-5.6-7.2-2.5-1.1-4.3-2.5-4.3-3.4s-1.1-3.1-2.5-4.9c-2.9-3.8-3.2-5.6-.9-5.6s1.3-.5.9-1.1-1.3-.8-2-.6c-1.4.5-7.3-5.5-7.6-7.7,0-.7-.2-2.4-.4-3.9-.3-4.6-2.5-8.7-4.8-9-1.8-.3-2.1-1-2.1-4.8s-.7-5.5-3.4-9.2c-1.9-2.6-3.8-4.8-4.2-4.8s-.8-3.8-.8-8.4c-.1-9.5-.5-11.2-2.9-11.8-1.1-.3-2.2-2.3-3-5.5-.7-2.8-2.8-7.4-4.7-10.4-2.4-3.8-3.4-6.5-3.4-9.3s-.7-4.7-1.7-5.9c-1.6-1.8-1.6-2,0-2.9,2.3-1.3,2.2-2.5-.4-5.2l-2.1-2.2.7,2.2c.8,2.5-.9,3.1-1.8.7-.3-.9-1-1.3-1.4-1.1-.4.3-3.9-.3-7.8-1.2-6.5-1.6-6.9-1.8-6.7-4.2.2-1.9-.3-2.8-2.3-3.7-1.4-.7-2.8-1.9-3.2-2.8-.4-1-.9-1.2-1.3-.5-.8,1.4-8.1-3.4-8.1-5.4s-1.1-2.3-2.5-3.3c-2.2-1.7-2.4-2.3-1.5-4.9,1-2.9.8-8.3-.5-11.4-.4-1,.2-2.6,1.6-4.2l2.3-2.6,16.5,8.6c9.1,4.7,23,12.1,31,16.3,62.2,33.2,61.1,32.7,68,33.3,27.6,2.3,56,4.9,58.8,5.3,2.8.4,3.1.8,2.2,2.4-.6,1-.6,2.1-.2,2.4s1.4,5.4,2.1,11.3,2,12.8,2.8,15.3c1.2,3.6,1.4,7.3.9,18-.8,16.2-1.3,19.1-3.5,18.8-1.2-.2-1.6.5-1.5,2.7.1,2.6.2,15.3.2,28,0,2.2.1,4.9.3,6,.3,1.9-.1,2-6.7,1.7-8.9-.4-10,.5-8.4,7.4.6,2.6,2.5,7.3,4.3,10.4,5.8,9.9,7.2,14.5,5.5,18.8-1,2.6,1.2,9.2,3,9.2s1,1.3,1,2.9c0,3.9-6.5,11.1-15,16.7-3.7,2.4-7,4.4-7.3,4.4s-.6-1.2-.6-2.6c0-3.2-2.2-2.8-3,.6-.3,1.3-1.1,2.5-1.8,2.8-1,.3-1.1-.8-.6-4.6h0Z"/>
            <path id="path3930" class="st12" d="M111.1,47.4c-2.6-5.7-.7-7.2,3.4-2.7,1.8,2,2.3,2.2,1.8.8-.5-1.3-.3-1.7.5-1.2,1.6,1,1.5,2.2-.4,4-2.3,2.3-3.9,1.9-5.3-1Z"/>
          </g>
        </g>
      </g>
      <g>
        <path class="st2" d="M598,513.9c0,1.6-4.5,2.8-10,2.8s-10-1.3-10-2.8,4.5-2.8,10-2.8,10,1.3,10,2.8Z"/>
        <path class="st11" d="M588,513.4s-19-32.2,0-32.2,0,32.2,0,32.2Z"/>
        <circle class="st4" cx="588" cy="490" r="4.1"/>
      </g>
      <g>
        <path class="st2" d="M613.6,341.8c0,1.6-4.5,2.8-10,2.8s-10-1.3-10-2.8,4.5-2.8,10-2.8,10,1.3,10,2.8Z"/>
        <path class="st11" d="M603.6,341.3s-19-32.2,0-32.2,0,32.2,0,32.2Z"/>
        <circle class="st4" cx="603.6" cy="317.9" r="4.1"/>
      </g>
      <g>
        <path class="st2" d="M566.3,281.4c0,1.6-4.5,2.8-10,2.8s-10-1.3-10-2.8,4.5-2.8,10-2.8,10,1.3,10,2.8Z"/>
        <path class="st11" d="M556.3,280.9s-19-32.2,0-32.2,0,32.2,0,32.2Z"/>
        <circle class="st4" cx="556.4" cy="257.5" r="4.1"/>
      </g>
      <g>
        <line class="st7" x1="575.2" y1="518.6" x2="575.2" y2="518.6"/>
        <line class="st8" x1="562.8" y1="518.6" x2="545.6" y2="518.6"/>
        <line class="st9" x1="539.8" y1="518.6" x2="262.7" y2="518.6"/>
        <line class="st7" x1="257" y1="518.6" x2="257" y2="518.6"/>
      </g>
      <g>
        <line class="st7" x1="751.7" y1="342.1" x2="751.7" y2="342.1"/>
        <line class="st6" x1="739.7" y1="342.1" x2="723" y2="342.1"/>
        <line class="st5" x1="717.5" y1="342.1" x2="620.2" y2="342.1"/>
        <line class="st7" x1="614.7" y1="342.1" x2="614.7" y2="342.1"/>
      </g>
      <g>
        <line class="st7" x1="701.4" y1="281.7" x2="701.4" y2="281.7"/>
        <line class="st6" x1="689.4" y1="281.7" x2="672.7" y2="281.7"/>
        <line class="st5" x1="667.1" y1="281.7" x2="569.9" y2="281.7"/>
        <line class="st7" x1="564.4" y1="281.7" x2="564.4" y2="281.7"/>
      </g>
    </g>
  </g>
</svg>