<?xml version="1.0" encoding="UTF-8"?>
<svg id="Layer_2" data-name="Layer 2" xmlns="http://www.w3.org/2000/svg" viewBox="0 0 913.4 596.09">
  <defs>
    <style>
      .cls-1 {
        stroke-dasharray: 0 13.82 0 12.75 0 12.75;
      }

      .cls-1, .cls-2, .cls-3, .cls-4, .cls-5, .cls-6 {
        fill: none;
        stroke-miterlimit: 10;
      }

      .cls-1, .cls-2, .cls-4, .cls-5, .cls-6 {
        stroke: #3ac6f4;
        stroke-linecap: round;
        stroke-width: 7px;
      }

      .cls-7 {
        fill: #17283f;
        opacity: .25;
      }

      .cls-8 {
        fill: #fff;
      }

      .cls-9 {
        fill: #f3f3f3;
      }

      .cls-10 {
        fill: #e2e2e2;
      }

      .cls-11 {
        fill: #3ac6f4;
      }

      .cls-3 {
        stroke: #1a466c;
        stroke-width: 2px;
      }

      .cls-4 {
        stroke-dasharray: 0 12.04 0 11.11 0 11.11;
      }

      .cls-5 {
        stroke-dasharray: 0 12.75 0 12.75;
      }

      .cls-12 {
        fill: #d0d1d1;
        stroke: #fff;
      }

      .cls-13 {
        font-family: Montserrat-Regular, Montserrat;
        font-size: 18px;
      }

      .cls-13, .cls-14 {
        fill: #334ba0;
      }

      .cls-6 {
        stroke-dasharray: 0 11.11 0 11.11;
      }
    </style>
  </defs>
  <g id="Layer_1-2" data-name="Layer 1">
    <g>
      <g>
        <g>
          <path class="cls-9" d="M629,483.89l.4-7.3-.9-1.2-1.7-.7-2.5-2.8.5-2.9,48.8-5.1-.7-2.2-1.5-1.5-.5-1.4.6-6.3-2.4-5.7.5-2.6.3-3.7,2.2-3.8-.2-1.1-1.7-1v-3.2l-1.8-1.9-2.9-6.1-12.9-45.8-45.7,4,1.3,2-1.3,67,4.4,33.2.9-.5,1.3.1.6.4.8-.1,2-3.8v-2.3l1.1-1.1,1.4.5,3.4,6.4v.9l-3.3,2.2,3.5-.4,4.9-1.6,1.1-.6Z"/>
          <path class="cls-9" d="M125.6,404.09l3-2.2.8-2.4-1-1.6-1.8-.2-1.1-1.6,1.1-6.9,1.6-.3,2.4-3.2,1.6-7,2.4-3.6,4.8-1.7,1.3-1.3-.4-1.9-2.3-2.5-1.2-5.8-1.4-1.8-1.3-3.4.9-2.1,1.4-3,.5-2.9-.5-4.9,1-13.6,3.5-.6,3.7,1.4,1.2,2.7h2l2.4-2.9,3.4-17.5,46.2,8.2,40,6-17.4,124.1-37.3-5.4-64.2-37.5.5-2.9,2-1.8,2.2.1Z"/>
          <path class="cls-9" d="M570.2,383.49l.9-2.2,1.2.5.7-1-.8-.7.3-1.5-1.1-.9.6-1-.1-1.5-1.1-.1.8-.8,1.3.8.3-1.4-.4-1.1.1-.7,2,.6-.4-1.5,1.6-1.3-.5-.9-1.1.1-.6-.9.9-.9,1.6-.2.5-.8,1.4-.2-.1-.8-.9-.9v-.5h1.5l.4-.7-1.4-1-.1-.6-11.2.8,2.8-5.1,1.7-1.5v-2.2l-1.6-2.5-39.8,2-39.1.7,4.1,24.4-.7,39,2.6,2.3,2.8-1.3,3.2.8.2,11.9,52.3-1.3,1.2-1.5.5-3-1.5-2.3-.5-2.2.9-.7v-.8l-1.7-1.1-.1-.7,1.6-.9-1.2-1.1,1.7-7.1,3.4-1.6v-.8l-1.1-1.4,2.9-5.4h1.9l1.5-1.2-.3-5.2,3.1-4.5,1.8-.6-.5-3.1,1.6-.7Z"/>
          <path class="cls-9" d="M55.4,382.09l3.4,5.2-1.4.1-1.8-1.9-.2-3.4ZM57.3,372.29l1.8,4.1,2.6,1,.7-.6-1.3-2.5-2.6-2.4-1.2.4ZM37.4,353.29v2.4l2,1.2,4.4-.2,1-1-3.1-.2-4.3-2.2ZM31.5,353.39l3.3.5,1.4,2.2h-3.8l-.9-2.7ZM79.4,398.89l-1-3,.2-3-.4-7.9-1.8-4.8-1.2-1.4-.6-1.5-7-8.6-3.6.1-2-1.9,1.1-1.8-.7-3.7-2.2-1.2-3.9-.6-2.8-1.3-1.5-1.9-4.5-6.6-2.7-2.2-3.7-.5-3.1-2.3-4.7-1.5-2.8-.3-2.5-2.5.2-2.8.8-4.8,1.8-5.1-1.4-1.6-4-9.4-2.7-3.7-.4-3-1.6-2.3.2-2.5-2-5-2.9-2.7.6-7.1,2.4-.8,1.8-3.1-.4-3.2-1-.9h-2.5l-2.5-3.3-1.5-3.5v-7.5l1.2-4.2.2-2.1,2.5.2-.1,1.6-.8.7v2.5l3.7,3.2v-4.7l-1.4-3.4.5-1.1-1-1.7,2.8-1.5-1.9-3-1.4.5-1.5,3.8.5,1.3-.8,1-.9-.1-5.4-6.1.7-5.6-1.1-3.9-6.5-12.8.8-10.7,2.3-3.6.2-6.4-5.5-11.1.3-5.2,6.9-7.5,1.7-2.4-.1-1.4,4-9.2.1-8.4.9-2.5,66.1,18.6-16.4,63.1,1.1,3.5,70.4,105-.9,2.1,1.3,3.4,1.4,1.8,1.2,5.8,2.3,2.5.4,1.9-1.3,1.3-4.8,1.7-2.4,3.6-1.6,7-2.4,3.2-1.6.3-1.1,6.9,1.1,1.6,1.8.2,1,1.6-.8,2.4-3,2.2-2.2-.1-44-5.1Z"/>
          <path class="cls-9" d="M360.6,339.79l-16.5-1-51.7-4.8-52.6-6.5,11.5-88.3,44.9,5.7,37.5,3.4,33.1,2.4-1.4,22.1-4.8,67Z"/>
          <path class="cls-9" d="M859.5,195.39l.4-1.1-3.2-12.3-.1-.3-14.9,3.4v.7l-.9.3-.5-.7-10.5,2.4,2.8,16.3,1.8,1.5-3.5,3.4,1.7,2.2,5.4-4.5,1.7-1.3h.8l2.4-3.1,1.4.1,2.9-1.1h2.1l5.3-2.7,2.8-.9,1-1,1.5.5-.4-1.8Z"/>
          <path class="cls-9" d="M808.2,243.09l-1.6.3-1.5,1.1-1.2,2.1,7.6,27.1,10.9-2.3-2.2-7.6-1.1.5-3.3-2.6-.5-1.7-1.8-1-.2-3.7-2.1-2.2-1.1-.8-1.2-1.1-.4-3.2.3-2.1,1-2.2-1.6-.6Z"/>
          <path class="cls-9" d="M737.7,461.59l-4-.7-1.7-.9-2.2,1.4v2.5l1.4,2.1-.5,4.3-2.1.6-1-1.1-.6-3.2-50.1,3.3-3.3-6-48.8,5.1-.5,2.9,2.5,2.8,1.7.7.9,1.2-.4,7.3-1.1.6.5.4,1-.3.7-.8,10.5-2.7,9.2-.5,8.1,1.9,8.5,5,2.4.8,2.2,2-.1,2.7h2.4l1.9-1,2.5.1,2-.8,2.9-2,3.1-2.9,1.1-.4.6.5h1.4l.5-.8-.5-1.2-.6-.6.2-.8,2-1.1,5-.4.8,1,1,.1,2.3,1,3,1.8,1.2,1.7,1.1,1.2,2.8,1.4v2.4l2.8,1.9,1,.1,1.6,1.4.7,1.6,1,.2.8,2.1.7.6,1-1.1,2.9.1.5,1.4,1.1.9v1.3l2.9,2.2.2,9.6-1.8,5.8,1,1.2-.2,3.4-.8,1.4.7,1.2,2.3,2.3.3,1.5.8,1-.4-1.9,1.3-.6.8-3.6-3-1.2.1-.6,2.6-.4.9,2.6,1.1.6.1-2,1.1.3.6.8-.1.7-2.9,4.2-.2,1.1-1.7,1.9v1.1l3.7,3.8,5.3,7.9,1.8,2.1v1.8l2.8,4.6,2.3.6.7-1.2-2.1.3-3-4.5.2-1.4,1.5-.8v-1.5l-.6-1.3.9-.9.4.9.7.5v4l-1.2-.6-.8.9,1.4,1.6,1,2.6,1.2-.6,2.3,1.2,2.1,2.2,1.6,5.1,3.1,4.8.8-1.3,2.8-.5,3.2,1.3.3,1.7,3.3,3.8.1,1.1,2.2,2.7-.7.5v2.7l2.7,1.4h1.5l2.7-1.8,1.5.3,1.1.4,2.3-1.7.2-.7,1.2.3,2.4-1.7,1.3-2.3-.7-3.2-.2-1.3,1.1-4,.6-.2.6,1.6.8-1.8-.8-7.2-.4-10.5-1-6.8-.7-1.7-6.6-11.1-5.2-9.1-2.2-3.3-1.3-3.6-.2-3.4.9-.3v-.9l-1.1-2.2-4-4-7.6-9.7-5.7-10.4-4.3-10.7-.6-3.7-1.2-1-.5-3.8-3.6.3ZM746.9,596.09l1.7-.1-.7-1-1,1.1ZM754.2,594.99v-.7l1.6-.2,3.7-3.3,1.5-.6,2.4-.9.3,1.3,1.7.8-2.6,1.2h-2.4l-3.9,2.5-2.3-.1ZM771.4,587.39l-3,1.4-1,1.3,1.1.1,2.9-2.8ZM775.2,584.49l-1.1.3-1.4,2,1.1-.2,1.5-1.6-.1-.5ZM783.5,568.79l-1.7,5.6-.8,1-1,2.6-1.2,1.6-.7,1.7-1.9,2.2v.9l2.7-2.8,2.4-3.5.6-2,2.1-4.9-.5-2.4Z"/>
          <path class="cls-9" d="M747.8,430.59v1.4l-4.2,6.2-1.2.2,1.5.5v2l-.9,1.1-.6,6-2.3,6.2.5,2,.7,5.1-3.6.3-4-.7-1.7-.9-2.2,1.4v2.5l1.4,2.1-.5,4.3-2.1.6-1-1.1-.6-3.2-50.1,3.3-3.3-6-.7-2.2-1.5-1.5-.5-1.4.6-6.3-2.4-5.7.5-2.6.3-3.7,2.2-3.8-.2-1.1-1.7-1v-3.2l-1.8-1.9-2.9-6.1-12.9-45.8,22.9-2.9,21.4-3-.1,1.9-1.9,1-1.4,3.2.2,1.3,6.1,3.8,2.6-.3,3.1,4,.4,1.7,4.2,5.1,2.6,1.7,1.4.2,2.2,1.6,1.1,2.2,2,1.6,1.8.5,2.7,2.7.1,1.4,2.6,2.8,5,2.3,3.6,6.7.3,2.7,3.9,2.1,2.5,4.8.8,3.1,4.2.4.9.4Z"/>
          <path class="cls-9" d="M151.3,199.59l-24.4-5.4,8.5-37.3,2.9-5.8.4-2.1.8-.9-.9-2-2.9-1.2.2-4.2,4-5.8,2.5-.8,1.6-2.3-.1-1.6,1.8-1.6,3.2-5.5,4.2-4.8-.5-3.2-3.5-3.1-1.6-3.6,1.1-4.3-.7-4,12.7-56.1,14.2,3-4.8,22,3.7,7.4-1.6,4.8,3.6,4.8,1.9.7,3.9,8.3v2.1l2.3,3h.9l1.4,2.1h3.2v1.6l-7.1,17-.5,4.1,1.4.5,1.6,2.6,2.8-1.4,3.6-2.4,1.9,1.9.5,2.5-.5,3.2,2.5,9.7,2.6,3.5,2.3,1.4.4,3v4.1l2.3,2.3,1.6-2.3,6.9,1.6,2.1-1.2,9,1.7,2.8-3.3,1.8-.6,1.2,1.8,1.6,4.1.9.1-8.5,54.8-47.9-8.2-23.3-4.7Z"/>
          <path class="cls-9" d="M609.5,282.39l-1,5.2v2l2.4,3.5v.7l-.3.9.9,1.9-.3,2.4-1.6,1.8-1.3,4.2-3.8,5.3-.1,7h-1l.9,1.9v.9l-2.2,2.7.1,1.1,1.5,2.2-.1.9-3.7.6-.6,1.2-1.2-.6-1,.5-.4,3.3,1.7,1.8-.4,2.4-1.5.3-6.9-3-4,3.7.3,1.8h-2.8l-1.4-1.5-1.8-3.8v-1.9l.8-.6.1-1.3-1.7-1.9-.9-2.5-2.7-4.1-4.8-1.3-7.4-7.1-.4-2.4,2.8-7.6-.4-1.9,1.2-1.1v-1.3l-2.8-1.5-3-.7-3.4,1.2-1.3-2.3.6-1.9-.7-2.4-8.6-8.4-2.2-1.5-2.5-5.9-1.2-5.4,1.4-3.7.7-.7.1-2.3-.7-.9,1-1.5,1.8-.6.9-.3,1-1.2v-2.4l1.7-2.4.5-.5.1-3.5-.9-1.4-1-.3-1.1-1.6,1-4,3-.8h2.4l4.2-1.8,1.7-2.2.1-2.4,1.1-1.3,1.3-3.2-.1-2.6-2.8-3.5h-1.2l-.9-1.1.2-1.6-1.7-1.7-2.5-1.3.5-.6,45.9-2.8.1,4.6,3.4,4.6,1.2,4.1,1.6,3.2,4.1,50.2Z"/>
          <path class="cls-9" d="M615.2,231.29l-5.1,2.3-4.7-1.4,4.1,50.2-1,5.2v2l2.4,3.5v.7l-.3.9.9,1.9-.3,2.4-1.6,1.8-1.3,4.2-3.8,5.3-.1,7h-1l.9,1.9,1.1.8.6-1-.7-1.7,4.6-.5.2,1.2,1.1.2.4-.9-.6-1.3.3-.8,1.3.8,1.7-.4,1.7.6,3.4,2.1,1.8-2.8,3.5-2.2,3,3.3,1.6-2.1.3-2.7,3.8-2.3.2,1.3,1.9,1.2,3-.2,1.2-.7.1-3.4,2.5-3.7,4.6-4.4-.1-1.7,1.2-3.8,2.2,1,6.7-4.5-.4-1.7-1.5-2.1,1-1.9-6.6-57.2-.1-1.4-32.4,3.4-1.7,1.6Z"/>
          <path class="cls-9" d="M542.9,199.49l2.1,1.6.6,1.1-1.6,3.3-.1,2.5,2,5.5,2.7,1.5,3.3.7,1.3,2.8-.5.6,2.5,1.3,1.7,1.7-.2,1.6.9,1.1h1.2l2.8,3.5.1,2.6-1.3,3.2-1.1,1.3-.1,2.4-1.7,2.2-4.2,1.8h-2.4l-3,.8-1,4,1.1,1.6,1,.3.9,1.4-.1,3.5-.5.5-1.7,2.4v2.4l-1,1.2-.9.3-1.8.6-1,1.5.7.9-.1,2.3-.7.7-1.5-.8-1.1-1.1-.6-1.6-1.7-1.3-14.3.8-27.2,1.2-25.9-.1-1.8-4.4.7-2.2-.8-3.3.2-2.9-1.3-.7-.4-6.1-2.8-5-.2-3.7-2.2-4.3-1.3-3.7v-1.4l-.6-1.7v-2.3l-.5-.9-.7-1.7-.3-1.3-1.3-1.2,1-4.3,1.7-5.1-.7-2-1.3-.4-.4-1.6,1-.5.1-1.1-1.3-1.5.1-1.6,2.2.1h28.2l36.3-.9,18.6-.7.2,2.6Z"/>
          <path class="cls-9" d="M445.1,275.99l-43.7-1.2-36-2-4.8,67,67.7,2.9,62,.1-.5-48.1-3.2-.7-2.6-4.7-2.5-2.5.5-2.3,2.7-2.6.1-1.2-1.5-2.1-.9,1-2-.6-2.9-3h-32.4Z"/>
          <path class="cls-9" d="M678.1,338.99l-20.5,1.4-5.2.8-17.4,1-2.6.8-22.6,2-.7-.6h-3.7l1.2,3.2-.6.9-23.3,1.5,1-2.7,1.4.9.7-.4,1.2-4.1-1-1,1-2,.2-.9-1.3-.8-.3-1.8,4-3.7,6.9,3,1.5-.3.4-2.4-1.7-1.8.4-3.3,1-.5,1.2.6.6-1.2,3.7-.6.1-.9-1.5-2.2-.1-1.1,2.2-2.7v-.9l1.1.8.6-1-.7-1.7,4.6-.5.2,1.2,1.1.2.4-.9-.6-1.3.3-.8,1.3.8,1.7-.4,1.7.6,3.4,2.1,1.8-2.8,3.5-2.2,3,3.3,1.6-2.1.3-2.7,3.8-2.3.2,1.3,1.9,1.2,3-.2,1.2-.7.1-3.4,2.5-3.7,4.6-4.4-.1-1.7,1.2-3.8,2.2,1,6.7-4.5-.4-1.7-1.5-2.1,1-1.9,1.3.5,2.2.1,1.9-.8,2.9,1.2,2.2,3.4v1l4.1.7,2.3-.2,1.9,2.1,2.2.2v-1l1.9-.8,3,.8,1.2.8,1.3-.7h.9l.6-1.7,3.4-1.8.5.8.8,2.9,3.5,1.4,1.2,2.1-.1,1.1.6,1-.6,3.6,1.9,1.6.8,1.1,1,.6-.1.9,4.4,5.6h1.4l1.5,1.8,1.2.3,1.4-.1-4.9,6.6-2.9,1-3,3-.4,2.2-2.1,1.3-.1,1.7-1.4,1.4-1.8.5-.5,1.9-1,.4-6.9,4.2-5.6,1.4ZM580.1,350.29l-.7-.7.2-1h1.1l.7.7-.3,1h-1Z"/>
          <path class="cls-9" d="M588.5,489.29l-1.2-1.8.3-1.3-4.8-6.8.9-4.6,1-1.4.1-1.4-36,2,1.7-11.9,2.4-4.8,6-8.4-1.8-2.5h2v-3.3l-2.4-2.5.5-1.7-1.2-1-1.6-7.1.6-1.4-52.3,1.3.5,19.9.7,3.4,2.6,2.8.7,5.4,3.8,4.6.8,4.3h1l-.1,7.3-3.3,6.4,1.3,2.3-1.3,1.5.7,3-.1,4.3-2.2,3.5-.1.8-1.7,1.2,1,1.8,1.2,1.1,1.6-1.3,5.3-.9,6.1-.1,9.6,3.8,8,1,1.5-1.4,1.8-.2,4.8,2.2,1.6-.4,1.1-1.5-4.2-1.8-2.2,1-1.1-.2-1.4-2,3.3-2.2,1.6-.1v1.7l1.5-.1,3.4-.3.4,2.3,1.1.4.6,1.9,4.8,1,1.7,1.6v.7h-1.2l-1.5,1.7,1.7,1.2,5.4,1,2.7,2.8,4.4-1-3.7.2-.1-.6,2.8-.7.2-1.8,1.2-.3v-1.4l1.1.1v1.6l2.5.1.8-1.9.9.3.2,2.5,1.2.2-1.8,2,2.6-.9,2-1.1,2.9-3.3h-.7l-1.3,1.2-.4-.1-.5-.8.9-1.2v-2.3l1.1-.8.7.7,1-.8,1-.1.6,1.3-.6,1.9h2.4l5.1,1.7.5,1.3,1.6,1.4,2.8.1,1.3.7,1.8-1,.9-1.7v-1.7h-1.4l-1.2-1.4-1.1-1.1-3.2-.9-2.6.2-4.2-2.4v-2.3l1.3-1,2.4.6-3.1-1.6.2-.8h3.6l2.6-3.5-2.6-1.8.8-1.5-1.2-.8h-.8l-2,2.1v2.1l-.6.7-1.1-.1-1.6-1.4h-1.3v-1.5l.6-.7.8.7,1.7-1.6.7-1.6.8-.3-.6-.7ZM578.2,486.59l1.9,1,.8,1.1,2.5.1,1.5.8.2,1.4-.4.6-.9-1.5-1.4,1.2-.9,1.4-2.8.8-1.6.1-3.7-1,.1-1.7,2-2,1.1-2.4,1.6.1ZM573.5,487.79v1.1l-1.8,2h-1.2v-2.2l1.6-1.5,1.4.6Z"/>
          <path class="cls-9" d="M861,145.19l.6,4,3.2,2,.8,2.2,2.3,1.4,1.4-.3,1-3-.8-2.9,1.6-.9.5-2.8-.6-1.3,3.3-1.9-2.2-2.3.9-2.4,1.4-2.2.5,3.2,1.6-2,1.3.9,1.2-.8v-1.7l3.2-1.3.3-2.9,2.5-.2,2.7-3.7v-.7l-.9-.5-.1-3.3.6-1.1.2,1.6,1-.5-.2-3.2-.9.3-.1,1.2-1.2-1.4.9-1.4.6.1,1.1-.4.5,2.8,2-.3,2.9.7v-1l-1.1-1.2,1.3.1.1-2.3.6.8.3,1.9,2.1,1.5.2-1,.9-.2-.3-.8.8-.6-.1-1.6-1.6-.2-2,.7,1.4-1.6.7-.8,1.3-.2.4,1.3,1.7,1.6.4-2.1,2.3-1.2-.9-1.3.1-1.7,1.1.5h.7l1.7-1.4.4-2.3,2.2.3.1-.7.2-1.6.5,1.4,1.5-1,2.3-4.1-.1-2.2-1.4-2-3-3.2h-1.9l-.8,2.2-2.9-3,.3-.8v-1.5l-1.6-4.5-.8-.2-.7.4h-4.8l-.3-3.6-8.1-26-7.3-3.7-2.9-.1-6.7,6.6-2.7-1-1-3.9h-2.7l-6.9,19.5.7,6.2-1.7,2.4-.4,4.6,1.3,3.7.8.2v1.6l-1.6,4.5-1.5,1.4-1.3,2.2-.4,7.8-2.4-1-1.5.4,11.9,36.8ZM895.6,120.49l-1,.8v1.3l.7-.8.9.8.4-.5,1.1.2-1-.8.4-.8-1.5-.2ZM893.9,123.09l-1,1.1.5.4-.1,1h1.1v-1.8l-.5-.7ZM890.9,121.49l.9,1.3,1,.5.3-1v-1.8l-1.3-.7-.4,1.2-.5.5ZM889.9,126.49l-1.7-1.7,1.6-2.4.8.3.2,1.1,1,.8v1.1l-1,1-.9-.2Z"/>
          <path class="cls-9" d="M808.9,285.79v-1.7h-.8v1.8l.8-.1ZM820.7,281.89l1.2-2.2.1-2.5-.6-.6-.7.9-.2,2.1-.8,1.4-.3,1.1-4.6,1.6-.7.8-1.3.2-.4.9-1.3.6-.3-2.5.4-.7-.8-.5.2-1.5-1.6,1v-2l1.2-.3-1.9-.4-.7-.8.4-1.3-.8-.6-.7,1.6.5.8-.7.6-1.1.5-2-1-.2-1.2-1-1.1-1.4-1.7,1.5-.8-1-.6v-.9l.6-1,1.7-.3-1.4-.6-.1-.7-1.3-.1-.4,1.1-.6.3.1-3.4,1-1,.8.7.1-1.6-1-.9-.9,1.1-1,1.4-.6-1,.2-2.4.9-1,.9.9,1.2-.7-.4-1.7-1,1-.9-2.1-.2-1.7,1.1-2.4,1.1-1.4,1.4-.2-.5-.8.5-.6-.3-.7.2-2.1-1.5.4-.8,1.1,1,1.3-2.6,3.6-.9-.4-.7.9-.6,2.2-1.8.5,1.3.6,1.3,1.3-.2.7.9,1.2-1.1,1,.5.3-.5,1.3v2.1l-.5,1.3.9,1.1.7,3.4,1.3,1.4,1.6,1.4.4,2.8,1.6,2,.4,1.4v1h-.7l-1.5-1.2-.4.2-1.2-.2-1.7-1.4-1.4-.3-1,.5-1.2-.3-.4.2-1.7-.8-1-1-1-1.3-.6-.2-.8.7-1.6,1.3-1.1-.8-.4-2.3.8-2.1-.3-.5.3-.4-.7-1,1-.1,1-.9.4-1.8,1.7-2.6-2.6-1.8-1,1.7-.6-.6h-1l-.6-.1-.4-.4.1-.5-1.7-.6-.8.3-1.2-.1-.7-.7-.5-.2-.2-.7.6-.8v-.9l-1.2-.2-1-.9-.9.1-1.6-.3-.9-.4.2-1.6-1-.5-.2-.7h-.7l-.8-1.2.2-1-2.6.4-2.2-1.6-1.4.3-.9,1.4h-1.3l-1.7,2.9-3.3.4-1.9-1-2.6,3.8-2.2-.3-3.1,3.9-.9,1.6-1.8,1.6-1.7-11.4,60.5-11.8,7.6,27.1,10.9-2.3v5.3l-.1,3.1-1,1.8-.6.3ZM807.3,280.09l-1.3.9.8,1.8,1.7.8-.4-1.6-.8-1.9Z"/>
          <path class="cls-9" d="M885.9,190.69h3.4l.9-.6.1-1.3-1.9-1.8.4,1-1.5,1.5h-2.3l.1.8.8.4ZM876.9,192.49l-1.2-.6,1-.8.6-2.1,1.2-1,.8-.2.6.9,1.1.2.6-.6.5,1.9-1.3.3-2.8.7-1.1,1.3ZM842,169.09l18.4-3.8,1-1.5.3-1.7,1.9-.6.5-1.1,1.7-1.1,1.3.3,1.7,3.3,1,.4,1.1-1.3.8,1.3v1.1l-3,2.4.2.8-.9,1,.4.8-1.3.3.9,1.2-.8.7.6,1,.9-.2.3-.8,1.1.6h1.8l2.5,2.6.2,2.6,1.8.1.8,1.1.6,2,1,.7h1.9l1.9-.1.8-.9,1.6-1.2,1.1-.3-1.2-2.1-.3.9-1.5-3.6h-.8l-.4.9-1.2-1,1.3-1.1,1.8.4,2.3,2.1,1.3,2.7,1.2,3.3-1,2.8v-1.8l-.7-1-3.5,2.3-.9-.3-1.6,1-.1,1.2-2.2,1.2-2,2.1-2,1.9h-1.2l3.3-3.3.5-1.9-.5-.6-.3-1.3-.9-.1-.1,1.3-1,1.2h-1.2l-.3,1.1.4,1.2-1.2,1.1-1.1-.2-.4,1-1.4-3-1.3-1.1-2.6-1.3-.6-2.2h-.8l-.7-2.6-6.5,2-.1-.3-14.9,3.4v.7l-.9.3-.5-.7-10.5,2.4-.7-1,.5-15,12.4-2.7Z"/>
          <path class="cls-9" d="M649.3,226.29l.1,1.4,21.4-3.5.5-1.2,3.9-5.9v-4.3l.8-2.1,2.2-.8,2-7.8,1-.5,1,.6-.2.6-1.1.8.3.9.8.4,1.9-1.4.4-9.8-1.6-2.3-1.2-3.7v-2.5l-2.3-4.4v-1.8l-1.2-3.3-2.3-3-2.9-1-4.8,3-2.5,4.6-.2.9-3,3.5-1.5-.2-2.9-2.8-.1-3.4,1.5-1.9,2-.2,1.2-1.7.2-4,.8-.8,1.1-.1.9-1.7-.2-9.6-.3-1.3-1.2-1.2-1.7-1-.1-1.8.7-.6,1.8.8-.3-1.7-1.9-2.7-.7-1.6-1.1-1.1h-2.2l-8.1-2.9-1.4-1.7-3.1-.3-1.2.3-4.4-2.3h-1.4l.5,1-2.7-.1.1.6.6.6-2.5,2.1.1,1.8,1.5,2.3,1.5.2v.6l-1.5.5-2.1-.1-2.8,2.5.1,2.5.4,5.8-2.2,3.4.8-4.5-.8-.6-.9,5.3-1-2.3.5-2.3-.5-1,.6-1.3-.6-1.1,1-1v-1.2l-1.3.6-1.3,3.1-.7.7-1.3,2.4-1.7-.2-.1,1.2h-1.6l.2,1.5.2,2-3,1.2.1,1.3,1,1.7-.1,5.2-1.3,4.4-1.7,2.5,1.2,1.4.8,3.5-1,2.5-.2,2.1,1.7,3.4,2.5,4.9,1.2,1.9,1.6,6.9-.1,8.8-.9,3.9-2,3.2-.9,3.7-2,3-1.2,1,32.4-3.4ZM553.5,129.49l3,3.8,17,3.8,1.4,1,4,.8.7.5,2.8-.2,4.9.8,1.4,1.5-1,1,.8.8,3.8.7,1.2,1.2.1,4.4-1.3,2.8,2,.1,1-.8.9.8-1.1,3.1,1,1.6,1.2.3.8-1.8,2.9-4.6,1.6-6,2.3-2-.5-1.6.5-.9,1,1.6-.3,2.2,2.9-2.2.2-2.3,2.1.6.8-1.6.7.6-.7,1.5-1,.5-1,2,1.4,1.8,1.1-.5-.5-.7,1-1.5,1.9-1.7h.8l.2-2.6,2-1.8,7.9-.5,1.9-3.1,3.8-.3,3.8,1.2,4.2,2.7.7-.2-.2-3.5.7-.2,4.5,1.1,1.5-.2,2.9-.7,1.7.4,1.8.1v-1.1l-.7-.9-1.5-.2-1.1-.8.5-1.4-.8-.3-2.6.1-.1-1,1.1-.8.6.8.5-1.8-.7-.7.7-.2-1.4-1.3.3-1.3.1-1.9h-1.3l-1.5,1-1.9.1-.5,1.8-1.9.2-.3-1.2-2.2.1-1,1.2-.7-.1-.2-.8-2.6.4-.1-4.8,1-2-.7-.1-1.8,1.1h-2.2l-3.8,2.7-6.2.3-4.1.8-1.9,1.5-1.4,1.3-2.5,1.7-.3.8-.6-1.7-1.3-.6v.6l.7.7v1.3l-1.5-.6h-.6l-.3,1.2-2-1.9-1.3-.2-1.3,1.5-3.2-.1-.5-1.4-2-1.9-1.3-1.6v-.7l-1.1-1.4-2.6-1.2-3.3-.1-1.1-.9h-1.4l-.7.4-2.2,2.2-.7,1.1-1-.7.2-1,.8-2.1,3.2-5,.8-.2,1.7-1.9.7-1.6,3-.6.8-.6-.1-1-.5-.5-4.5.2-2,.5-2.6,1.2-1.2,1.2-1.7,2.2-1.8,1-3.3,3.4-.4,1.6-7.4,4.6-4,.5-1.8.4-2.3,3-1.8.7-4.4,2.3,1.9.7ZM654.2,133.29l3.8.1.6-.5-.2-2-1.7-1.8-1.9.1-.1.5,1.1.4-1.6.8-.3,1-.6-.6-.4.8,1.3,1.2ZM579.1,91.39l-2.3.2-2.7,1.9-7.1,5.3.8,1,1.8.3,2.8-2-1.1-.5,2.3-1.6h1l3-1.9-.1-.9,1.6-1.8ZM620.2,154.19v1l2.1,1.6-.2-2.4-1.9-.2ZM619.5,156.99l1.1.1v.9h-1l-.1-1ZM640.9,135.69v.9l.8-.2v-.5l-.8-.2ZM645.6,138.79l-.1-1.1-1.6-.2-.6-.4h-.9l-.4.3.9.4,1.1,1.1,1.6-.1ZM627.6,139.99l-.1,1.1-.3.7.2,2.2.4.3.7.1.5-.9.1-1.6-.3-.6-.1-1.1-1.1-.2Z"/>
          <path class="cls-9" d="M450.7,85.09l-1.1,2.8.8,1.4-.3,5.1-.5,1.1,2.7,9.1,1.3,2.5.7,14,1,2.7-.4,5.8,2.9,7.4.3,5.8-.1,2.1-.1,2.2-.9,2-3.1,1.9-.3,1.2,1.7,2.5.4,1.8,2.6.6,1.5,1.9-.2,39.5h28.2l36.3-.9,18.6-.7-1.1-4.5-.2-3-2.2-3-2.8-.7-5.2-3.6-.6-3.3-6.3-3.1-.2-1.3h-3.3l-2.2-2.6-2-1.3.7-5.1-.9-1.6.5-5.4,1-1.8-.3-2.7-1.2-1.3-1.8-.3v-1.7l2.8-5.8,5.9-3.9-.4-13,.9.4.6-.5.1-1.1.9-.6,1.4,1.2.7-.1h0l-1.2-2.2,4.3-3.1,3.1-3.7,1.6-.8,4.7-5.9,6.3-5.8,3.9-2.1,6.3-2.7,7.6-4.5-.6-.4-3.7.7-2.8.1-1-1.6-1.4-.9-9.8,1.2-1-2.8-1.6-.1-1.7.8-3.7,3.1h-4.1l-2.1-1-.3-1.7-3.9-.8-.6-1.6-.7-1.3-1,.9-2.6.1-9.9-5.5h-2.9l-.8-.7-3.1,1.3-.8,1.3-3.3.8-1.3-.2v-1.7l-.7-.9h-5.9l-.4-1.4h-2.6l-1.1.4-2.4-1.7.3-1.4-.6-2.4-.7-1.1-.2-3-1-3.1-2.1-1.6h-2.9l.1,8-30.9-.4,2.4,7.3Z"/>
          <path class="cls-9" d="M609.8,485.09l-5,.1-2.4-1.5-7.9,2.5-.9-.7-.5.2-.1,1.6-.6.1-2.6,2.7-.7-.1-.6-.7-1.2-1.8.3-1.3-4.8-6.8.9-4.6,1-1.4.1-1.4-36,2,1.7-11.9,2.4-4.8,6-8.4-1.8-2.5h2v-3.3l-2.4-2.5.5-1.7-1.2-1-1.6-7.1.6-1.4,1.2-1.5.5-3-1.5-2.3-.5-2.2.9-.7v-.8l-1.7-1.1-.1-.7,1.6-.9-1.2-1.1,1.7-7.1,3.4-1.6v-.8l-1.1-1.4,2.9-5.4h1.9l1.5-1.2-.3-5.2,3.1-4.5,1.8-.6-.5-3.1,38.3-2.6,1.3,2-1.3,67,4.4,33.2-1.5,1.3Z"/>
          <path class="cls-9" d="M541.3,265.39l-1.1-1.1-.6-1.6-1.7-1.3-14.3.8-27.2,1.2-25.9-.1,1.3,1.3-.3,1.4,2.1,3.7,3.9,6.3,2.9,3,2,.6.9-1,1.5,2.1-.1,1.2-2.7,2.6-.5,2.3,2.5,2.5,2.6,4.7,3.2.7.5,48.1.2,10.8,39.1-.7,39.8-2,1.6,2.5v2.2l-1.7,1.5-2.8,5.1,11.2-.8,1-2,1.2-.5v-.7l-1.2-1.1-.6-1,1.7.2.8-.7-1.4-1.5,1.4-.5.1-1-.6-1v-1.3l-.7-.7.2-1h1.1l.7.7-.3,1,.8.7.8-1,1-2.7,1.4.9.7-.4,1.2-4.1-1-1,1-2,.2-.9-1.3-.8h-2.8l-1.4-1.5-1.8-3.8v-1.9l.8-.6.1-1.3-1.7-1.9-.9-2.5-2.7-4.1-4.8-1.3-7.4-7.1-.4-2.4,2.8-7.6-.4-1.9,1.2-1.1v-1.3l-2.8-1.5-3-.7-3.4,1.2-1.3-2.3.6-1.9-.7-2.4-8.6-8.4-2.2-1.5-2.5-5.9-1.2-5.4,1.4-3.7-1.5-.8Z"/>
          <path class="cls-9" d="M233,146.99l57.3,7.9,51,5.3,2-20.7,5.2-66.7-53.5-5.6-54.3-7.7-65.9-12.5-4.8,22,3.7,7.4-1.6,4.8,3.6,4.8,1.9.7,3.9,8.3v2.1l2.3,3h.9l1.4,2.1h3.2v1.6l-7.1,17-.5,4.1,1.4.5,1.6,2.6,2.8-1.4,3.6-2.4,1.9,1.9.5,2.5-.5,3.2,2.5,9.7,2.6,3.5,2.3,1.4.4,3v4.1l2.3,2.3,1.6-2.3,6.9,1.6,2.1-1.2,9,1.7,2.8-3.3,1.8-.6,1.2,1.8,1.6,4.1.9.1,2-10.7Z"/>
          <path class="cls-9" d="M388.5,207.59l38,1.6,3.4,3.2,1.7.2,2.1,2,1.8-.1,1.8-2,1.5.6,1-.7.7.5.9-.4.7.4.9-.4,1,.5,1.4-.6,2,.6.6,1.1,6.1,2.2,1.2,1.3.9,2.6,1.8.7,1.5-.2.5.9v2.3l.6,1.7v1.4l1.3,3.7,2.2,4.3.2,3.7,2.8,5,.4,6.1,1.3.7-.2,2.9.8,3.3-.7,2.2,1.8,4.4,1.3,1.3-.3,1.4,2.1,3.7,3.9,6.3h-32.4l-43.7-1.2-36-2,1.4-22.1-33.1-2.4,3.7-44.2,51.1,3.5Z"/>
          <path class="cls-9" d="M153.6,313.29l-3.4,17.5-2.4,2.9h-2l-1.2-2.7-3.7-1.4-3.5.6-1,13.6.5,4.9-.5,2.9-1.4,3-70.4-105-1.1-3.5,16.4-63.1,47,11.2,24.4,5.4,23.3,4.7-21,109Z"/>
          <path class="cls-9" d="M848.6,110.09l-1.3.1-1-1.1-1.9,1.4-.5,6.1,1.2,2.3-1.1,3.5,2.1,2.8-.4,1.7.1,1.3-1.1,2.1-1.4.4-.6,1.3-2.1,1-.7,1.5,1.4,3.4-.5,2.5.5,1.5-1,1.9.4,1.9-1.3,1.9.2,2.2-.7,1.1.7,4.5.7,1.5-.5,2.6.9,1.8-.2,2.5-.5,1.3-.1,1.4,2.1,2.6,18.4-3.8,1-1.5.3-1.7,1.9-.6.5-1.1,1.7-1.1,1.3.3.8-4.8-2.3-1.4-.8-2.2-3.2-2-.6-4-11.9-36.8-.5,1.7Z"/>
          <path class="cls-9" d="M828.5,211.89l-14.6-4.9-1.8,2.5.1,2.2-3,5.4,1.5,1.8-.7,2-1,1,.5,3.6,2.7.9,1,2.8,2.1,1.1,4.2,3.2-3.3,2.6-1.6,2.3-1.8,3-1.6.6-1.4,1.7-1,2.2-.3,2.1.8.9.4,2.3,1.2.6,2.4,1.5,1.8.8,1.6.8.1,1.1.8.1,1.1-1.2.8.4,2.1.2-.2,2.9.2,2.5,1.8-.7,1.5-3.9,1.6-4.8,2.9-2.8.6-3.5-.6-1.2,1.7-2.9v-1.2l-.7-1.1,1.2-2.7-.3-3.6-.6-8.2-1.2-1.4v1.4l.5.6h-1.1l-.6-.4-1.3-.2-.9.6-1.2-1.6.7-1.7v-1l1.7-.7.8-2.1.4-5.9Z"/>
          <path class="cls-9" d="M343.5,349.39h-.8l-7.9,99.3-31.8-2.6-34.4-3.6-.3,3,2,2.2-30.8-4.1-1.4,10.2-15.7-2.2,17.4-124.1,52.6,6.5,51.7,4.8-.6,10.6Z"/>
          <g>
            <path class="cls-14" d="M825.78,223.3l.62-1.41v-.71l.97-.24.25.21.05.46-1.84,1.76-.05-.06ZM828.82,220.58l.16-1.72,1.32-2.03,2.08-.46-.18-.88h.7l-.2-1h.81l.22-1.24.84-.35,1.68.14-.08-.81.91.33.18-.97.53.32,2.31-.35,1.25-.97-.16-.73,7.31-1.8,1.6-1.03.42-.95,1.27-1.22-.15.83-.83.55-1.32,2.64h3.01l1.54-2.86.18-.3,1.21.27.13-1.21,1.09-.64.64.88-.21.16-3.24,3.14-4.32,2.97-1.59.11-1.24,1.61v-.68l-4.71,2.64-1.31-.11-.89,1.11-2.71,1.15-.37,1.48-.29.12-2.3.86h-2.07l-.85,1.22-.88-.24-1.18.27-.31-.27ZM829.03,211.54l-14.9-5-1.71-1.17-1.89.3-2.74-2.01-3.09-5.97h-1.92l-.35-1.32-2.03-1.31-70.18,13.84-.7-5.21,4.2-3.81.58-1.66,3.92-2.51.61-2.44,2.22-1.93,1.01-1.4-1.94-3.76-1.72-.51-1.64-2.73-.17-2.75,7.25-3.72,8.13-1.59h4.19s3.23,1.62,3.23,1.62l1.21-.13,1.82-1.62,3.22-.66h3.07l2.78-1.39,2.56-2.66,2.32-3,1.77-.37,1.41-.64.45-3.63-1.54-2.97-.62-.37,1.56-1.01-.14-2.56h-1.83l-1.95-1.19-.08-2.61,6.14-6.04.72-2.46,3.64-6.2,5.86-6.36,1.9-1.53,2.38.1,20.27-5.12.54,1.15-.66,2.08,1.41.91-.33,1.25.54,3.46,2.13,2.23-.38,2.07.58,1.95-.36.91-.32,4.01,3.06,6.61-.8,1.79,1.37,3.35,1.12-1.99,1.3,1.03,2.94,13.91-.54,2.18,1.15,1.05-.5,14.94.73,1.04,2.81,16.37,1.51,1.26-3.42,3.32,1.8,2.33-1.16,2.96-1.44,1.63-.77,1.18.37-5.5ZM859.15,203.43l.77-.92.46.03-.33.4-.97.74.07-.24Z"/>
            <path class="cls-10" d="M816.05,124.66l.28.6-.48,1.53-.23.73.64.41.79.51-.21.8-.05.2.03.21.5,3.2.05.31.22.23,1.85,1.93-.31,1.7-.04.24.07.23.5,1.67-.27.68-.06.14v.15s-.31,3.8-.31,3.8l-.02.26.11.24,2.91,6.29-.62,1.39-.17.39.16.4.9,2.2.78,1.91,1.01-1.8.33-.58.7.55,2.88,13.62-.44,1.78-.15.58.44.4.76.69-.48,14.54v.33s.18.27.18.27l.57.82,2.76,16.08.06.36.28.24.95.79-2.7,2.63-.64.62.55.71,1.35,1.75-1.03,2.61-1.16,1.32.23-3.32.05-.77-.73-.25-14.47-4.86-1.48-1.02-.33-.23-.39.06-1.49.24-2.47-1.82-2.89-5.59-.28-.54h-1.84l-.2-.76-.1-.37-.32-.21-1.7-1.1-.34-.22-.4.08-69.46,13.69-.59-4.42,3.91-3.55.19-.17.08-.24.49-1.38,3.61-2.31.33-.21.1-.39.52-2.09,2.06-1.79.09-.07.07-.09.8-1.1.36-.5-.28-.55-1.7-3.3-.2-.38-.41-.12-1.33-.39-1.47-2.46-.14-2.3,6.89-3.54,7.97-1.55h4.07l2.99,1.49.26.13.29-.03.9-.1.32-.04.24-.21,1.6-1.42,3.04-.63h3.13l.21-.11,2.6-1.3.15-.08.12-.12,2.5-2.6.04-.04.03-.04,2.18-2.81,1.54-.32.11-.02.1-.05,1.1-.5.51-.23.07-.55.4-3.2.04-.31-.14-.28-1.4-2.7-.13-.26-.05-.03.64-.42.49-.32-.03-.58-.1-1.8-.05-.94h-2.17l-1.6-.97-.07-2.12,5.89-5.79.19-.18.07-.25.67-2.28,3.58-6.1,5.78-6.27,1.75-1.42,2.12.08h.14s.14-.03.14-.03l19.8-5M856.52,204.81l.1.14-.64.62v-.07s.05-.4.05-.4l.49-.29M854.46,206.29l.32.07.31.07-1.47,1.42.84-1.55h0M849.31,208.12l-.63,1.26h2.74l-2.06,1.42-1.23.08-.45.03-.28.36-.21.27v-.07l-1.49.84-3.83,2.15-.9-.07-.53-.04-.33.42-.64.8-2.37,1-.46.19-.12.48-.2.8-.05.19h-.03s-2.23.85-2.23.85h-2.24l-.3.43-.5.72-.42-.11-.24-.07-.25.06-.72.17.12-1.25,1.14-1.75,1.4-.31.96-.21-.15-.76h.7l-.2-1h.61l.15-.82.1-.57.47-.2.96.08,1.2.1-.06-.61.72.26.15-.84.07.04.35-.05,2-.3.26-.04.21-.16.9-.7.5-.39-.13-.56,6.75-1.67.16-.04.14-.09.47-.3M827.01,221.54l-.11.11v-.08l.11-.03M816.6,123.49l-20.6,5.2-2.5-.1-2.1,1.7-5.9,6.4-3.7,6.3-.7,2.4-6.2,6.1.1,3.1,2.3,1.4h1.5l.1,1.8-2,1.3,1.2.7,1.4,2.7-.4,3.2-1.1.5-1.9.4-2.4,3.1-2.5,2.6-2.6,1.3h-3l-3.4.7-1.8,1.6-.9.1-3.2-1.6h-4.4l-8.2,1.6-7.6,3.9.2,3.2,1.8,3,1.7.5,1.7,3.3-.8,1.1-2.3,2-.6,2.4-3.9,2.5-.6,1.7-4.3,3.9.8,6,70.5-13.9,1.7,1.1.4,1.5h2l3,5.8,3,2.2,1.9-.3,1.6,1.1,14.6,4.9-.4,5.9.2.7,1.5-2.3,1.5-1.7,1.3-3.3-1.7-2.2,3.5-3.4-1.8-1.5-2.8-16.3-.7-1,.5-15-1.1-1,.5-2-3-14.2-1.9-1.5-.9,1.6-.9-2.2.8-1.8-3.1-6.7.3-3.8.4-1-.6-2,.4-2.2-2.2-2.3-.5-3.2.4-1.5-1.4-.9.6-1.9-.8-1.7h0ZM858.9,198.09l-1.3.1-.5,1,1.8-1.1h0ZM855,200.99l-.7.9h-.7l-1.1.8-.2,1-2.2,2.1-.4.9-1.4.9-7.7,1.9.2.9-.9.7-2,.3-1-.6-.2,1.1-1.1-.4.1,1-1.2-.1-1.2.5-.2,1.1h-1l.2,1h-.7l.2,1-1.8.4-1.5,2.3-.2,2.1.7.6,1.3-.3,1.1.3.9-1.3h1.9l2.4-.9,5.1-2.1-.5-.5-1.9.8-2,.9.2-.8,2.6-1.1.8-1,1.2.1,4.1-2.3v.7l-4.2,3,4.5-2.8,1.7-2.2,1.5-.1,4.5-3.1,3.2-3.1,3-2.3,1-1.2-1.7-.1-1,1.2-.2.7-.9.7-.8-1.1-1.7,1-.1.9-.9-.2.5-.9-1.2-.7-.6.9.9.3.2.5-.3.5-1.4,2.6h-1.9l.9-1.8.9-.6.3-1.7,1.4-1.6.9-.8,1.5-.7-1.2-.2h0ZM827.5,220.39l-1.6.4v1l-.7,1.6.6.7,2.4-2.3-.1-.9-.6-.5h0Z"/>
          </g>
          <path class="cls-9" d="M815,316.59l-29.1,6.1-39.4,7.3-29.4,3.5v5.2l-1.5-.1-1.4,1.2-2.4,5.2-2.6-1.1-3.5,2.5-.7,2.1-1.5,1.2-.8-.8-.1-1.5-.8-.2-4,3.3-.6,3.4-4.7,2.4-.5,1.2-3.2,2.6-3.6.5-4.6,3-.8,4.1-1.3.9-1.5-.1-1.4,1.3-.1,4.9,21.4-3,4.4-1.9,1.3-.1,7.3-4.3,23.2-2.2.4.5-.2,1.4.7.3,1.2-1.5,3.3,3,.1,2.6,19.7-2.8,24.5,17.1,4-2.2,3-.7h1.7l1.1,1.1.8-2,.6-5,1.7-3.9,5.4-6.1,4.1-3.5,5.4-2.3,2.5-.4,1.3.4.7,1.1,3.3-6.6,3.3-5.3-.7-.3-4.4,6.8-.5-.8,2-2.2-.4-1.5-2-.5,1,1.3-1.2.1-1.2-1.8-1.2,2-1.6.2,1-2.7.7-1.7-.2-2.9-2.2-.1.9-.9,1.1.3,2.7.1.8-.5h2.3l2-1.9.2-3.2,1.3-1.4,1.2-.2,1.3-1-.5-3.7-2.2-3.8-2.7-.2-.9,1.6-.5-1-2.7.2-1.2.4-1.9,1.2-.3-.4h-.9l-1.8,1.2-2.6.5v-1.3l.8-1,1,.7h1l1.7-2.1,3.7-1.7,2-2.2h2.4l.8,1.3,1.7.8-.5-1.5-.3-1.6-2.8-3.1-.3-1.4-.4,1-.9-1.3-1.3-1.6ZM822,347.59l2.7-2.5,4.6-3.3v-3.7l-.4-3.1-1.7-4.2,1.5,1.4,1,3.2.4,7.6-1.7.4-3.1,2.4-3.2,3.2-.1-1.4ZM823.9,328.29l-.9-.2v1l2.5,2.2-.2-1.4-1.4-1.6ZM826.8,330.39l-1.4-2.8-2.2-3.4-2.4-3-2.2-4.3-.8-.7,2.2,4.3.3,1.3,3.4,5.5,1.8,2.1,1.3,1Z"/>
          <path class="cls-9" d="M450.7,85.09l-1.1,2.8.8,1.4-.3,5.1-.5,1.1,2.7,9.1,1.3,2.5.7,14,1,2.7-.4,5.8,2.9,7.4.3,5.8-.1,2.1-29.5-.4-46-2.1-39.2-2.9,5.2-66.7,44.5,3.4,55.3,1.6,2.4,7.3Z"/>
          <path class="cls-9" d="M671.7,225.29l1.9-.4,3,1.3,2.1.6.7.9h1l1-1.5,1.3.8h1.5l-.1,1-3.1.5-2,1.1,1.9.8,1.6-1.5,2.4-.4,2.2,1.5,1.5-.1,2.5-1.7,3.6-2.1,5.2-.3,4.9-5.9,3.8-3.1,9.3-5.1,4.9,29.9-2.2,1.2,1.4,2.1-.1,2.2.6,2-1.1,3.4-.1,5.4-1,3.6.5,1.1-.4,2.2-1.1.5-2,3.3-1.8,2h-.6l-1.8,1.7-1.3-1.2-1.5,1.8-.3,1.2h-1.3l-1.3,2.2.1,2.1-1,.5,1.4,1.1v1.9l-1,.2-.7.8-1,.5-.6-2.1-1.6-.5-1,2.3-.3,2.2-1.1,1.3,1.3,3.6-1.5.8-.4,3.5h-1.5l-3.2,1.4-1.2-2.1-3.5-1.4-.8-2.9-.5-.8-3.4,1.8-.6,1.7h-.9l-1.3.7-1.2-.8-3-.8-1.9.8v1l-2.2-.2-1.9-2.1-2.3.2-4.1-.7v-1l-2.2-3.4-2.9-1.2-1.9.8-2.2-.1-1.3-.5-6.6-57.2,21.4-3.5.9,1.1Z"/>
          <path class="cls-9" d="M487.5,415.09l-4.6-3.8-2.2-.9-.5,1.6-5.1.3-.6-1.5-5,2.5-1.6-.7-3.7.3-.6,1.7-3.6.9-1.3-1.2-1.2.1-2-1.8-2.1.7-2-.5-1.8-2-2.5,4.2-1.2.8-1-1.8.3-2-1.2-.7-2.3,2.5-1.7-1.2-.1-1.5-1.3.5-2.6-1.7-3,2.6-2.3-1.1.7-2.1-2.3.1-1.9-3-3.5-1.1-2,2.3-2.3-2.2-1.4.4-2,.1-3.5-1.9-2.3.1-1.2-.7-.5-2.9-2.3-1.7-1.1,1.5-1.4-1-1.2-.4-1.1,1-1.5-.3-2.5-3-2.7-1.3,1.4-42.7-52.6-3.2.6-10.6,16.5,1,67.7,2.9,62,.1.2,10.8,4.1,24.4-.7,39-6.4-1.9Z"/>
          <path class="cls-9" d="M79.9,182.99l47,11.2,8.5-37.3,2.9-5.8.4-2.1.8-.9-.9-2-2.9-1.2.2-4.2,4-5.8,2.5-.8,1.6-2.3-.1-1.6,1.8-1.6,3.2-5.5,4.2-4.8-.5-3.2-3.5-3.1-1.6-3.6-30.3-7.3-2.8,1-5.4-.9-1.8-.9-1.5,1.2-3.3-.4-4.5.5-.9.7-4.2-.4-.8-1.6-1.2-.2-4.4,1.3-1.6-1.1-2.2.8-.2-1.8-2.3-1.2-1.5-.2-1-1.1-3,.3-1.2-.8h-1.2l-1.2.9-5.5.7-6.6-4.2,1.1-5.6-.4-4.1-3.2-3.7-3.7.1-.4-1.1.4-1.2-.7-.8-1,.1-1.1,1.3-1.5-.2-.5-1.1-1-.1-.7.6-2-1.9v4.3l-1.3,1.3-1.1,3.5-.1,2.3-4.5,12.3-13.2,31.3-3.2,4.6-1.6-.1.1,2.1-5.2,7.1-.3,3.3,1,1.3.1,2.4-1.2,1.1-1.2,3,.1,5.7,1.2,2.9,66.1,18.6Z"/>
          <path class="cls-9" d="M812.3,205.89l-1.9.3-3-2.2-3-5.8h-2l-.4-1.5-1.7-1.1-70.5,13.9-.8-6-4.2,3.4-.9.1-2.7,3-3.3,1.7,4.9,29.9,3.2,19.7,17.4-2.9,60.5-11.8,1.2-2.1,1.5-1.1,1.6-.3,1.6.6,1.4-1.7,1.6-.6,1.8-3,1.6-2.3,3.3-2.6-4.2-3.2-2.1-1.1-1-2.8-2.7-.9-.5-3.6,1-1,.7-2-1.5-1.8,3-5.4-.1-2.2,1.8-2.5-1.6-1.1Z"/>
          <path class="cls-9" d="M869.2,187.19l-1.3-1.1-2.6-1.3-.6-2.2h-.8l-.7-2.6-6.5,2,3.2,12.3-.4,1.1.4,1.8,5.6-3.6.1-3-.8-.8.4-.6-.1-1.3-.9-.7,1.2-.4-.9-1.6,1.8.7.3,1.4.7,1.2-1.4-.8,1.1,1.7-.3,1.2-.6-1.1v2.5l.6-.9.4.9,1.3-1.5-.2-2.5,1.4,3.1,1-.9-1.4-3ZM864.5,199.39h.9l.5-.6-.8-1.3-.7.7.1,1.2Z"/>
          <path class="cls-9" d="M758.3,366.69l-19.7,2.8-.1-2.6-3.3-3-1.2,1.5-.7-.3.2-1.4-.4-.5-23.2,2.2-7.3,4.3-1.3.1-4.4,1.9-.1,1.9-1.9,1-1.4,3.2.2,1.3,6.1,3.8,2.6-.3,3.1,4,.4,1.7,4.2,5.1,2.6,1.7,1.4.2,2.2,1.6,1.1,2.2,2,1.6,1.8.5,2.7,2.7.1,1.4,2.6,2.8,5,2.3,3.6,6.7.3,2.7,3.9,2.1,2.5,4.8.8,3.1,4.2.4.8-1.5h.6l1.8-1.5.5-2,3.2-2.1.3-2.4-1.2-.9.8-.7.8.4,1.3-.4,1.8-2.1,3.8-1.8,1.6-2.4.1-.7,4.8-4.4-.1-.5-.9-.8,1.1-1.5h.8l.4.5.7-.8h1.3l.6-1.5,2.3-2.1-.3-5.4.8-2.3,3.6-6.2,2.4-2.2,2.2-1.1-24.5-17.1Z"/>
          <path class="cls-9" d="M382.5,142.39l46,2.1,29.5.4-.1,2.2-.9,2-3.1,1.9-.3,1.2,1.7,2.5.4,1.8,2.6.6,1.5,1.9-.2,39.5-2.2-.1-.1,1.6,1.3,1.5-.1,1.1-1,.5.4,1.6,1.3.4.7,2-1.7,5.1-1,4.3,1.3,1.2.3,1.3.7,1.7-1.5.2-1.8-.7-.9-2.6-1.2-1.3-6.1-2.2-.6-1.1-2-.6-1.4.6-1-.5-.9.4-.7-.4-.9.4-.7-.5-1,.7-1.5-.6-1.8,2-1.8.1-2.1-2-1.7-.2-3.4-3.2-38-1.6-51.1-3.5,3.9-43.9,2-20.7,39.2,2.9Z"/>
          <path class="cls-9" d="M606.9,381.59l45.7-4,22.9-2.9.1-4.9,1.4-1.3,1.5.1,1.3-.9.8-4.1,4.6-3,3.6-.5,3.2-2.6.5-1.2,4.7-2.4.6-3.4,4-3.3.8.2.1,1.5.8.8,1.5-1.2.7-2.1,3.5-2.5,2.6,1.1,2.4-5.2,1.4-1.2,1.5.1v-5.2l.3-.7-4.6.5-.2,1-28.9,3.3-5.6,1.4-20.5,1.4-5.2.8-17.4,1-2.6.8-22.6,2-.7-.6h-3.7l1.2,3.2-.6.9-23.3,1.5-.8,1-.8-.7h-1v1.3l.6,1-.1,1-1.4.5,1.4,1.5-.8.7-1.7-.2.6,1,1.2,1.1v.7l-1.2.5-1,2,.1.6,1.4,1-.4.7h-1.5v.5l.9.9.1.8-1.4.2-.5.8-1.6.2-.9.9.6.9,1.1-.1.5.9-1.6,1.3.4,1.5-2-.6-.1.7.4,1.1-.3,1.4-1.3-.8-.8.8,1.1.1.1,1.5-.6,1,1.1.9-.3,1.5.8.7-.7,1-1.2-.5-.9,2.2-1.6.7,38.3-2.6Z"/>
          <g>
            <path class="cls-14" d="M438.16,587.81l-1.31-.19-3.38-3.68-2.5-.65h-7.09l-2.63-.75-3.52-2.93-1.9-1.12-2.06.1-3.13-2.54-5.14-1.52v-1.1l-1.43-1.84-.9-4.68-1.19-1.85-1.58-1.3v-1.69l-1.32-.56.53-2.28-.33-2.45-1.23-1.32.67-2.86-.87-3.48-1.97-1.62h-1.09l-3.68-3.22.09-1.78-.95-2.03-.78-.19-.86-2.28-2.11-1.69-2.73-2.36-.2-2.13-.94-.66.15-1.18.66-.93-1.52-1.62.1-.7-2.02-2.22.1-2.03-2.71-4.93-.1-1.71-1.9-3.27-5-4.7v-1.19l-3.32-1.71-.1-1.85-1.18-.39v-.73l-1.01-.25-2.14-2.86h-.87l-.88-.76-1.49,1.26h-1.92l-2.6-1.1h-4.58l-4.48-2.24-1.35,1.97-2.01-.55-3.61,1.31-1.79,2.95-2.04,3.26-1.08,4.32-1.16.99-1.2.11-.95,1.69-1.43.66-.09,1.64-2.25.08-1.79-1.49h-.92l-1.98-2.87-3.61-.5-1.7-2.3-1.45-.22-1.95-.74-3.12-3.12.21-.85-1.98-1.48-.97-.1-3.13-2.85-.1-1.91-2.28-3.96.2-1.59-.65-1.2.74-1.38-.11-2.67-2.62-4.12-.61-4.26-1.57-1.57v-1.22l-1.4-.23-.63-1-2.59-1.83-.88-.1-1.61-1.35v-1.15l-2.97-1.84-.59-2.05-2.67-2.36-3.25-4.47-3.06-1.32-1.83-1.57.19-1.16-1.41-1.52-1.75-3.81-2.48-1.03-1.78-1.95.23-2.28,33.9,3.55,32.31,2.64,7.9-99.34h.34l52.08,3.17-1.4,42.54,2.9,1.39,2.54,3.05,1.92.38,1.07-.97.85.28,1.74,1.24,1.09-1.49,1.73,1.28.51,2.93,1.53.89,2.31-.1,3.5,1.9,2.2-.11,1.18-.34,2.47,2.36,2.13-2.45,3.01.95,1.96,3.09,1.86-.08-.61,1.83,2.99,1.43,2.96-2.57,2.5,1.63.91-.35.07,1.06,2.25,1.59,2.33-2.53.56.33-.27,1.83,1.35,2.42,1.75-1.16,2.21-3.71,1.45,1.61,2.29.57,1.96-.65,1.94,1.75,1.2-.1,1.34,1.23,4.12-1.03.58-1.65,3.25-.26,1.7.74,4.72-2.36.53,1.33,5.8-.34.44-1.41,1.63.67,4.62,3.82,6.39,1.9,2.76,2.44,2.94-1.36,2.66.66.19,11.52.5,19.9.74,3.62,2.59,2.79.7,5.38,3.81,4.61.85,4.58h.91l-.09,6.68-3.37,6.54,1.26,2.23-1.24,1.43.74,3.19-.1,4.1-2.19,3.48-.09.69-1.89,1.33,1.26,2.26.42.39-2.45.21-8.48,3.94-3.52,1.41.12-.13,1.86-.72.98-1.77-3.5-.12-.36-.41.77-1.92-1.14-2.28h-1.04l-2.61,1.41-2.09,2.86.36,2.06,3.51,3.62,1.06.24v.14l-2.08,1.45-4.93,4.02-3.97,3.87-3.12,1.36-5.06,3.03-3.68,1.99-4.46,1.88-.21.13v-1.1l.62-.83-.27-2.41-2.19-.15-1.19,1.62-2.23,1.12-1.38-.92-.33-1.9h-2.63l1.11,3.06,1.58.79,1.12.85,1.4,1.24-.3.34-3.72,1.62-1.39.08-1.67-1.67-.75,3.14.4.89-2.27,1.68-1.52.2-1.04.91-.42,1.79-1.69,3.09-1.26.55-1.64-.61-2.31,1.41.42,1.96,1.48.91.63.51-1.66,3.22-.3,2.79-.89,1.51-1.21.87-4.9.68,3.99,1.33,1.31-.41-.24,1.95-1.26-.12.31,1.84.23,1.1-1.24.86v3.59l1.64,1.44.55,2.84-.33,1.84-1.16.46.58,2.18,1.15.42.66,1.41v2.61l1.18,2.26,2.09,2.47h0s-1.94-.17-1.94-.17l-1.96,1.72.12.87-.13-.04ZM442.45,550.82l1.09-1.55-2.27,4.86,1.17-3.31ZM450.61,539.28l.68-1.45,3.44-2.2,2.47-.95h.12l-6.94,4.92.23-.33Z"/>
            <path class="cls-10" d="M343.62,350.4l51.45,3.13-1.37,41.73-.02.65.59.28,2.5,1.21,2.36,2.83.23.27.35.07,1.5.3.5.1.37-.34.67-.61.5.17,1.28.91.8.57.58-.8.51-.69,1.17.86.43,2.5.08.46.4.23,1.2.7.25.15h.29s2.02-.1,2.02-.1l3.26,1.77.25.13h.28s2-.11,2-.11h.11s.11-.04.11-.04l.85-.24,1.89,1.8.76.72.69-.79,1.57-1.81,2.53.79,1.7,2.69.31.49.58-.03.85-.04-.24.72-.28.84.8.38,2.3,1.1.59.28.5-.43,2.43-2.11,1.97,1.29.43.28.48-.18h.03s0,.13,0,.13l.03.48.39.27,1.7,1.2.72.51.59-.65,1.65-1.79-.18,1.17-.05.34.17.3,1,1.8.53.95.9-.6,1.2-.8.19-.13.12-.19,1.81-3.03.89.99.2.23.3.07,2,.5.28.07.28-.09,1.55-.52,1.57,1.41.32.29.43-.04.76-.06.98.9.4.37.52-.13,3.6-.9.52-.13.18-.51.38-1.09,2.8-.23,1.37.6.43.19.42-.21,4.03-2.01.2.49.27.67.72-.04,5.1-.3.69-.04.21-.66.18-.56,1.05.43,4.48,3.7.16.13.2.06,6.19,1.84,2.43,2.15.49.43.59-.28,2.48-1.15,2.11.53.19,11.14.5,19.9v.09s.02.09.02.09l.7,3.4.06.27.19.2,2.38,2.57.66,5.08.04.29.18.22,3.64,4.4.75,4.05.15.82h.82l-.08,6.05-3.19,6.19-.25.48.27.47.95,1.69-.84.97-.33.39.12.5.67,2.88-.09,3.9-2.05,3.27-.12.19-.03.22-.05.36-1.34.95-.73.52.44.78.89,1.6-1.4.12-.18.02-.16.07-8.37,3.89-.28.11.74-1.34-1.63-.06-2.47-.08h-.01s.57-1.44.57-1.44l.17-.42-.2-.4-.9-1.8-.28-.55h-1.47l-.22.12-2.4,1.3-.2.11-.13.18-1.9,2.6-.25.34.07.42.3,1.7.05.3.21.22,3.3,3.4.21.21.25.06-1.31.91-.03.02-.03.02-4.9,4-.03.03-.03.03-3.87,3.77-3.03,1.33-.06.03-.05.03-4.96,2.98-3.66,1.98-3.97,1.67v-.14l.4-.53.24-.32-.04-.39-.2-1.8-.09-.83-.83-.06-1.5-.1-.55-.04-.32.44-.96,1.3-1.86.93-.96-.64-.23-1.28-.15-.83h-3.77l.49,1.34.8,2.2.14.37.36.18,1.32.66,1.09.82.97.87-3.38,1.47-1.07.06-.88-.88-1.27-1.27-.41,1.74-.5,2.1-.08.33.14.31.17.36-1.84,1.37-1.24.17-.3.04-.23.2-.8.7-.24.21-.07.31-.37,1.57-1.57,2.88-.92.4-1.22-.46-.46-.17-.42.25-1.8,1.1-.6.37.15.69.3,1.4.09.42.36.22,1.25.77.31.25-1.43,2.77-.08.17-.02.19-.28,2.59-.78,1.33-1.03.73-2.66.37-4.24.59,4.06,1.35,1.8.6.31.1.31-.1.41-.13-.09.69h-.14s-1.29-.13-1.29-.13l.21,1.28.21,1.25.16.75-.75.52-.43.3v4.08l.34.3,1.34,1.17.5,2.58-.27,1.47-.49.19-.82.33.23.86.4,1.5.13.5.49.18.71.26.53,1.12v2.62l.11.22,1.1,2.1.05.1.07.08,1.27,1.51-.52-.05-.43-.04-.32.28-1.6,1.4-.41.36.06.44-.6-.09-3.16-3.44-.2-.22-.28-.07-2.3-.6-.12-.03h-7.09l-2.46-.7-3.44-2.86-.06-.05-.07-.04-1.7-1-.26-.15h-.3s-1.72.1-1.72.1l-2.9-2.36-.16-.13-.19-.06-4.68-1.39v-.9l-.21-.27-1.25-1.61-.85-4.46-.04-.19-.11-.16-1.1-1.7-.08-.13-.12-.1-1.34-1.1v-1.79l-.61-.26-.63-.27.41-1.79.04-.18-.02-.18-.3-2.2-.04-.31-.22-.23-.94-1.01.58-2.48.05-.24-.06-.23-.8-3.2-.08-.32-.25-.21-1.7-1.4-.28-.23h-1.08l-3.35-2.93.07-1.42v-.25s-.09-.23-.09-.23l-.8-1.7-.2-.43-.46-.11-.29-.07-.72-1.91-.1-.26-.21-.17-1.97-1.58-2.6-2.24-.16-1.7-.04-.46-.38-.26-.51-.35.09-.75.35-.49.48-.67-.56-.6-1.07-1.15.03-.23.07-.47-.32-.35-1.72-1.89.08-1.69v-.28s-.12-.25-.12-.25l-2.59-4.7-.09-1.47v-.24s-.13-.21-.13-.21l-1.8-3.1-.07-.13-.11-.1-4.79-4.5v-1.28l-.54-.28-2.79-1.44-.07-1.23-.04-.68-.64-.21-.52-.17v-.76l-.76-.19-.46-.11-1.89-2.52-.3-.4h-.93l-.42-.36-.65-.55-.65.55-1.02.86h-1.63l-2.41-1.02-.19-.08h-4.57l-3.99-1.99-.78-.39-.49.72-.9,1.31-1.51-.41-.31-.08-.3.11-3.3,1.2-.33.12-.18.3-1.69,2.79-2,3.2-.08.13-.04.15-1.02,4.09-.92.78-.78.07-.52.05-.26.46-.74,1.32-1.01.46-.55.25-.03.6-.05.89-1.61.06-1.51-1.26-.28-.23h-.84l-1.7-2.47-.25-.36-.44-.06-3.18-.44-1.45-1.96-.24-.33-.41-.06-1.2-.18-1.8-.69-2.85-2.85.06-.25.16-.64-.53-.4-1.6-1.2-.22-.17-.28-.03-.67-.07-2.85-2.6-.08-1.59v-.24s-.13-.21-.13-.21l-2.13-3.71.16-1.27.04-.32-.15-.28-.45-.83.55-1.03.13-.24v-.27s-.11-2.4-.11-2.4v-.27s-.15-.23-.15-.23l-2.48-3.92-.57-3.99-.05-.33-.24-.24-1.31-1.31v-1.43l-.84-.14-.76-.13-.46-.72-.11-.17-.16-.11-2.4-1.7-.21-.15-.26-.03-.6-.07-1.31-1.1v-1.19l-.47-.29-2.57-1.6-.49-1.73-.08-.28-.22-.19-2.52-2.23-3.14-4.31-.16-.22-.25-.11-2.86-1.24-1.56-1.33.11-.64.08-.48-.33-.36-1.19-1.28-1.63-3.55-.16-.36-.36-.15-2.19-.91-1.55-1.71.16-1.56,33.42,3.5,31.8,2.6,1,.08.08-1,7.83-98.37M343.5,349.39h-.8l-7.9,99.3-31.8-2.6-34.4-3.6-.3,3,2,2.2,2.4,1,1.7,3.7,1.3,1.4-.2,1.2,2.1,1.8,3,1.3,3.2,4.4,2.6,2.3.6,2.1,2.9,1.8v1.1l1.9,1.6.9.1,2.4,1.7.7,1.1,1.2.2v1l1.6,1.6.6,4.2,2.6,4.1.1,2.4-.8,1.5.7,1.3-.2,1.6,2.3,4,.1,2,3.4,3.1,1,.1,1.6,1.2-.2.8,3.4,3.4,2.1.8,1.3.2,1.7,2.3,3.6.5,2,2.9h1l1.8,1.5,2.9-.1.1-1.8,1.3-.6.9-1.6,1.1-.1,1.4-1.2,1.1-4.4,2-3.2,1.7-2.8,3.3-1.2,2.2.6,1.3-1.9,4.2,2.1h4.6l2.6,1.1h2.2l1.3-1.1.7.6h.8l2.1,2.8.8.2v.7l1.2.4.1,1.8,3.3,1.7v1.1l5.1,4.8,1.8,3.1.1,1.7,2.7,4.9-.1,2.1,2,2.2-.1.7,1.4,1.5-.5.7-.2,1.6,1,.7.2,2.1,2.9,2.5,2,1.6.9,2.4.8.2.8,1.7-.1,1.9,4,3.5h1.1l1.7,1.4.8,3.2-.7,3,1.3,1.4.3,2.2-.6,2.6,1.4.6v1.6l1.7,1.4,1.1,1.7.9,4.7,1.4,1.8v1.3l5.4,1.6,3.2,2.6,2.1-.1,1.7,1,3.6,3,2.8.8h7.1l2.3.6,3.4,3.7,1.4.2.9.3-.2-1.4,1.6-1.4,2.2.2.1-.7-2.2-2.6-1.1-2.1v-2.6l-.8-1.7-1.1-.4-.4-1.5,1-.4.4-2.2-.6-3.1-1.6-1.4v-3.1l1.3-.9-.3-1.4-.2-1.2,1.1.1.4-3.2-1.9.6-1.8-.6,2.9-.4,1.4-1,1-1.7.3-2.8,1.8-3.5-1-.8-1.3-.8-.3-1.4,1.8-1.1,1.6.6,1.6-.7,1.8-3.3.4-1.7.8-.7,1.5-.2,2.7-2-.5-1.1.5-2.1,1.2,1.2,1.7-.1,3.9-1.7.7-.8-1.8-1.6-1.2-.9-1.4-.7-.8-2.2h1.5l.3,1.7,1.8,1.2,2.6-1.3,1.1-1.5,1.5.1.2,1.8-.6.8v1.1l-3.2,3,4.1-2.5,4.5-1.9,3.7-2,5-3,3.2-1.4,4-3.9,4.9-4,2.3-1.6v-.8l-1.3-.3-3.3-3.4-.3-1.7,1.9-2.6,2.4-1.3h.6l.9,1.8-.8,2,.7.8,2.9.1-.5.9-1.8.7-2.1,2.3.7.5,1.8-1.8,3.5-1.4,8.4-3.9,3.5-.3-1.2-1.1-1-1.8,1.7-1.2.1-.8,2.2-3.5.1-4.3-.7-3,1.3-1.5-1.3-2.3,3.3-6.4.1-7.3h-1l-.8-4.3-3.8-4.6-.7-5.4-2.6-2.8-.7-3.4-.5-19.9-.2-11.9-3.2-.8-2.8,1.3-2.6-2.3-6.4-1.9-4.6-3.8-2.2-.9-.5,1.6-5.1.3-.6-1.5-5,2.5-1.6-.7-3.7.3-.6,1.7-3.6.9-1.3-1.2-1.2.1-2-1.8-2.1.7-2-.5-1.8-2-2.5,4.2-1.2.8-1-1.8.3-2-1.2-.7-2.3,2.5-1.7-1.2-.1-1.5-1.3.5-2.6-1.7-3,2.6-2.3-1.1.7-2.1-2.3.1-1.9-3-3.5-1.1-2,2.3-2.3-2.2-1.4.4-2,.1-3.5-1.9-2.3.1-1.2-.7-.5-2.9-2.3-1.7-1.1,1.5-1.4-1-1.2-.4-1.1,1-1.5-.3-2.5-3-2.7-1.3,1.4-42.7-52.6-3.2h0ZM457.9,534.19h-.8l-2.6,1-3.6,2.3-.7,1.5-8.2,11.6-2.8,7.9v8.8l3.6,12,.4,4.5.8.1-.6-4.8-3.5-12.3-.2-8.1,4.9-10.5,6.1-8.2,7.2-5.1v-.7h0Z"/>
          </g>
          <path class="cls-9" d="M219.2,234.39l3.3-21.9-47.9-8.2-21,109,46.2,8.2,40,6,11.5-88.3-32.1-4.8Z"/>
          <path class="cls-9" d="M845.1,118.89l-1.1,3.5,2.1,2.8-.4,1.7.1,1.3-1.1,2.1-1.4.4-.6,1.3-2.1,1-.7,1.5,1.4,3.4-.5,2.5.5,1.5-1,1.9.4,1.9-1.3,1.9.2,2.2-.7,1.1.7,4.5.7,1.5-.5,2.6.9,1.8-.2,2.5-.5,1.3-.1,1.4,2.1,2.6-12.4,2.7-1.1-1,.5-2-3-14.2-1.9-1.5-.9,1.6-.9-2.2.8-1.8-3.1-6.7.3-3.8.4-1-.6-2,.4-2.2-2.2-2.3-.5-3.2.4-1.5-1.4-.9.6-1.9-.8-1.7,27.3-6.9,1.2,2.3Z"/>
          <path class="cls-9" d="M820.7,281.89l-1.1,2.8.5,1.1.4-1.1.8-3.1-.6.3ZM786.1,274.89l-.7-1,1-.1,1-.9.4-1.8-.2-.5.1-.5-.3-.7-.6-.5-.4-.1-.5-.4-.6-.6h-1l-.6-.1-.4-.4.1-.5-1.7-.6-.8.3-1.2-.1-.7-.7-.5-.2-.2-.7.6-.8v-.9l-1.2-.2-1-.9-.9.1-1.6-.3-.4.7-.4,1.6-.5,2.3-10-5.2-.2.9.9,1.6-.8,2.3.1,2.9-1.2.8-.5,2.1-.9.8-1.4,1.8-.9.8-1,2.5-2.4-1.1-2.3,8.5-1.3,1.6-2.8-.5-1.3-1.9-2.3-.7-.1,4.7-1.4,1.7.4,1.5-2.1,2.2.4,1.9-3.7,6.3-1,3.3,1.5,1.2-1.5,1.9.1,1.4-2.3,2-.7-1.1-4.3,3.1-1.5-1-.6,1.4.8.5-.5.9-5.5,2.4-3-1.8-.8,1.7-1.9,1.8-2.3.1-4.4-2.3-.1-1.5-1.5-.7.8-1.2-.7-.6-4.9,6.6-2.9,1-3,3-.4,2.2-2.1,1.3-.1,1.7-1.4,1.4-1.8.5-.5,1.9-1,.4-6.9,4.2,28.9-3.3.2-1,4.6-.5-.3.7,29.4-3.5,39.4-7.3,29.1-6.1-.6-1.2.4-.1.9.9-.1-1.4-.3-1.9,1.6,1.2.9,2.1v-1.3l-3.4-5.5v-1.2l-.7-.8-1.3.7.5,1.4h-.8l-.4-1-.6.9-.9-1.1-2.1-.1-.2.7,1.5,2.1-1.4-.7-.5-1-.4.8-.8.1-1.5,1.7.3-1.6v-1.4l-1.5-.7-1.8-.5-.2-1.7-.6-1.3-.6,1.1-1.7-1-2,.3.2-.9,1.5-.2.9.5,1.7-.8.9.4.5,1v.7l1.9.4.3.9.9.4.9,1.2,1.4-1.6h.6l-.1-2.1-1.3,1-.6-.9,1.5-.2-1.2-.9-1.2.6-.1-1.7-1.7.2-2.2-1.1-1.8-2.2,3.6,2.2.9.3,1.7-.8-1.7-.9.6-.6-1-.5.8-.2-.3-.9,1.1.9.4-.8.4,1.3,1.2.8.6-.5-.5-.6-.1-2.5-1.1-.1-1.6-.8.9-1.1-2-.1-.4-.5-1.4.6-1.4-.8-.5-1.2-2.1-1.2-2.1-1.8-2.2-1.9,3,1.3.9,1.2,2.1.7,2.3,2.5.2-1.7.6,1.3,2.3.5v-4l-.8-1.1,1.1.4.1-1.6-3.1-1.4-1.6-.2-1.3-.2.3-1.2-1.5-.3-.1-.6h-1.8l-.2.8-.7-1h-2.7l-1-.4-.2-1-1.2-.6-.4-1.5-.6-.4-.7,1.1-.9.2-.9.7h-1.5l-.9-1.3.4-3.1.5-2.4.6.5.3-.4ZM808,286.49l.9-.1v-.6l-.8.1-.1.6ZM815.5,300.69l-1,2.7,1.2-1.3-.2-1.4ZM813.7,285.39l.7.3-.2,1.9-.5-.5-1.3,1,1,.4-1.8,4.4.1,8.1,1.9,3.1.5-1.5.4-2.7-.3-2.3.7-.9-.2-1.4,1.2-.6-.6-.5.5-.7.8,1.1-.2,1.1-.4,3.9,1.1-2.2.4-3.1.1-3-.3-2,.6-2.3,1.1-1.8.1-2.2.3-.9-4.6,1.6-.7.8-.4.9Z"/>
          <path class="cls-9" d="M147.9,100.09l.7,4-1.1,4.3-30.3-7.3-2.8,1-5.4-.9-1.8-.9-1.5,1.2-3.3-.4-4.5.5-.9.7-4.2-.4-.8-1.6-1.2-.2-4.4,1.3-1.6-1.1-2.2.8-.2-1.8-2.3-1.2-1.5-.2-1-1.1-3,.3-1.2-.8h-1.2l-1.2.9-5.5.7-6.6-4.2,1.1-5.6-.4-4.1-3.2-3.7-3.7.1-.4-1.1.4-1.2-.7-.8-1,.1-2.1-1.5-1.2.4-2-.1-.7-1.5-1.6-.3,2.5-7.5-.7,6,.5.5v-2l.8-.2,1.1,2.3-.5-2.2,1.2-4.2,1.8.4-1.1-2-1,.3-1.5-.4.2-4.2.2,1.5.9.5.6-1.6h3.2l-2.2-1.2-1.7-1.9-1.4,1.6,1.2-3.1-.3-4.6-.2-3.6.9-6.1-.5-2-1.4-2.1.1-4,.4-2.7,2-2.3-.7-1.4.2-.6.9.1,7.8,7.6,4.7,1.9,5.1,2.5,3.2-.1.2,3,1-1.6h.7l.6,2.7.5-2.6,1.4-.2.5.7-1.1.6.1,1.6.7-1.5h1.1l-.4,2.6-1.1-.8.4,1.4-.1,1.5-.8.7-2.5,2.9,1.2-3.4-1.6.4-.4,2.1-3.8,2.8-.4,1-2.1,2.2-.1,1h2.2l2.4-.2.5-.9-3.9.5v-.6l2.6-2.8,1.8-.8,1.9-.2,1-1.6,3-2.3v-1.4h1.1l.1,4h-1.5l-.6.8-1.1-.9.3,1.1v1.7l-.7.7-.3-1.6-.8.8.7.6-.9,1.1h1.3l.7-.5.1,2-1,1.9-.9,1-.1,1.8-1-.2-.2-1.4.9-1.1-.8-.5-.8.7-.7,2.2-.8.9-.1-2,.8-1.1-.2-1.1-1.2,1.2.1,2.2-.6.4-2.1-.4-1.3,1.2,2.2-.6-.2,2.2,1-1.8.4,1.4.5-1,.7,1.8h.7l.7-.8.6-.1,2-1.9.2-1.2.8.6.3.9.7-.3.1-1.2h1.3l.2-2.9-.1-2.7.9.3-.7-2.1,1.4-.8.2-2.4,2.3-2.2,1,.1.3-1.4-1.2-1.4-.1-3.5-.8.9.7,2.9-.6.1-.6-1.9-.6-.5.3-2.3,1.8-.1.3.7.3-1.6-1.6-1.7-.6-1.6-.2,2,.9,1.1-.7.4-1-.8-1.8,1.3,1.5.5.2,2.4-.3,1.8.9-1.3,1.4,2.3-.4,1.9h-1.5v-1.2l-1.5-1.2.5-3-1.9-2.6,2.7-3,.6-4.1h.9l1.4,3.2v-2.6l1.2.3v-3.3l-.9-.8-1.2,2.5-1-3,1.3-.1-1.5-4.9,1.9-.6,25.4,7.5,31.7,8,23.6,5.5-12.7,56.1ZM69.2,60.69h.5l.1.8-.5.3.1.6-.7.4-.2-.9.5-.4.2-.8ZM74.2,56.39l-1.2,1.9-.1.8.4.2.5-.6,1.1.1-.7-2.4ZM73.8,34.79l.5.6,1.3-.3.2-1,1.2-1.8-1-.4-.7,1.6-.1-1.6-1.1.2-.7,1.4.4,1.3ZM77,29.29l.7,1.5-.9.2-.8.4-.2-2.4,1.2.3ZM74.3,27.69l-1.1-.2.5,1.4.6-1.2ZM73.3,30.19l.8.4-.4,1.1,1.7-.5-.2-2.2-.9-.2-1,1.4ZM70.6,29.79l.3,2.7,1.6,1.3.6-1.9-1.1-2.2-1.4.1ZM72.5,28.69l-1.1-1-.9.1,1.8,1.5.2-.6ZM75.7,21.69h-1.2v.8l1.2.6v-1.4ZM74.8,54.19l.4-2.7h-1.1l-.2,1.9.9.8Z"/>
          <path class="cls-9" d="M709.4,313.99l-.8,1.2,1.5.7.1,1.5,4.4,2.3,2.3-.1,1.9-1.8.8-1.7,3,1.8,5.5-2.4.5-.9-.8-.5.6-1.4,1.5,1,4.3-3.1.7,1.1,2.3-2-.1-1.4,1.5-1.9-1.5-1.2,1-3.3,3.7-6.3-.4-1.9,2.1-2.2-.4-1.5,1.4-1.7.1-4.7,2.3.7,1.3,1.9,2.8.5,1.3-1.6,2.3-8.5,2.4,1.1,1-2.5.9-.8,1.4-1.8.9-.8.5-2.1,1.2-.8-.1-2.9.8-2.3-.9-1.6.2-.9,10,5.2.5-2.3.4-1.6.4-.7-.9-.4.2-1.6-1-.5-.2-.7h-.7l-.8-1.2.2-1-2.6.4-2.2-1.6-1.4.3-.9,1.4h-1.3l-1.7,2.9-3.3.4-1.9-1-2.6,3.8-2.2-.3-3.1,3.9-.9,1.6-1.8,1.6-1.7-11.4-17.4,2.9-3.2-19.7-2.2,1.2,1.4,2.1-.1,2.2.6,2-1.1,3.4-.1,5.4-1,3.6.5,1.1-.4,2.2-1.1.5-2,3.3-1.8,2h-.6l-1.8,1.7-1.3-1.2-1.5,1.8-.3,1.2h-1.3l-1.3,2.2.1,2.1-1,.5,1.4,1.1v1.9l-1,.2-.7.8-1,.5-.6-2.1-1.6-.5-1,2.3-.3,2.2-1.1,1.3,1.3,3.6-1.5.8-.4,3.5h-1.5l-3.2,1.4-.1,1.1.6,1-.6,3.6,1.9,1.6.8,1.1,1,.6-.1.9,4.4,5.6h1.4l1.5,1.8,1.2.3,1.4-.1.7.6Z"/>
          <path class="cls-9" d="M597,160.49l-2.9.8.2,2.3-2.4,3.4-.2,3.1.6.7.8-.7.5-1.6,2-1.1,1.6-4.2,3.5-1.1.8-3.3.7-.9.4-2.1,1.8-1.1v-1.5l1-.9,1.4.1v2l-1,.1.5,1.2-.7,2.2-.6.1-1.2,4.5-.7.5-2.8,7.2-.3,4.2.6,2,.1,1.3-2.4,1.9.3,1.9-.9,3.1.3,1.6.4,3.7-1.1,4.1-1.5,5,1,1.5-.3.3.8,1.7-.5,1.1,1.1.9v2.7l1.3,1.5-.4,3,.3,4-45.9,2.8-1.3-2.8-3.3-.7-2.7-1.5-2-5.5.1-2.5,1.6-3.3-.6-1.1-2.1-1.6-.2-2.6-1.1-4.5-.2-3-2.2-3-2.8-.7-5.2-3.6-.6-3.3-6.3-3.1-.2-1.3h-3.3l-2.2-2.6-2-1.3.7-5.1-.9-1.6.5-5.4,1-1.8-.3-2.7-1.2-1.3-1.8-.3v-1.7l2.8-5.8,5.9-3.9-.4-13,.9.4.6-.5.1-1.1.9-.6,1.4,1.2.7-.1h2.6l6.8-2.6.3-1h1.2l.7-1.2.4.8,1.8-.9,1.8-1.7.3.5,1-1,2.2,1.6-.8,1.6-1.2,1.4.5,1.5-1.4,1.6.4.9,2.3-1.1v-1.4l3.3,1.9,1.9.7,1.9.7,3,3.8,17,3.8,1.4,1,4,.8.7.5,2.8-.2,4.9.8,1.4,1.5-1,1,.8.8,3.8.7,1.2,1.2.1,4.4-1.3,2.8,2,.1,1-.8.9.8-1.1,3.1,1,1.6,1.2.3-.3,3ZM547.5,123.19l-.5.1-1.5,1.6.2.5,1.5-.6v-.6l.9-.3-.6-.7ZM549.1,122.09l-1,.3-.2.7.9-.1.3-.9ZM547.8,120.49l-.2.9h1.7l.6-.4.1-1-2.2.5ZM550.6,117.49l-.3,1.9,1.2-.5.1-1.4h-1ZM608.9,149.39l-2,.3-.4,1.3,1.3,1.7,1.1-3.3Z"/>
          <path class="cls-9" d="M341.3,160.19l-51-5.3-57.3-7.9-2,10.7-8.5,54.8-3.3,21.9,32.1,4.8,44.9,5.7,37.5,3.4,3.7-44.2,3.9-43.9Z"/>
          <path class="cls-9" d="M789.5,268.49l-2.6-1.8-1,1.7.5.4.4.1.6.5.3.7-.1.5.2.5,1.7-2.6Z"/>
        </g>
        <g>
          <path class="cls-3" d="M673.6,463.89l-48.8,5.1-.5,2.9,2.5,2.8,1.7.7.9,1.2-.4,7.3-1.1.6"/>
          <path class="cls-3" d="M652.6,377.59l12.9,45.8,2.9,6.1,1.8,1.9v3.2l1.7,1,.2,1.1-2.2,3.8-.3,3.7-.5,2.6,2.4,5.7-.6,6.3.5,1.4,1.5,1.5.7,2.2"/>
          <path class="cls-3" d="M606.9,381.59l1.3,2-1.3,67,4.4,33.2"/>
          <path class="cls-3" d="M606.9,381.59l45.7-4"/>
          <path class="cls-3" d="M502.7,430.69l52.3-1.3"/>
          <path class="cls-3" d="M577.7,361.39l-11.2.8,2.8-5.1,1.7-1.5v-2.2l-1.6-2.5-39.8,2-39.1.7"/>
          <path class="cls-3" d="M555,429.39l1.2-1.5.5-3-1.5-2.3-.5-2.2.9-.7v-.8l-1.7-1.1-.1-.7,1.6-.9-1.2-1.1,1.7-7.1,3.4-1.6v-.8l-1.1-1.4,2.9-5.4h1.9l1.5-1.2-.3-5.2,3.1-4.5,1.8-.6-.5-3.1"/>
          <path class="cls-3" d="M493.9,416.99l.7-39-4.1-24.4"/>
          <path class="cls-3" d="M568.6,384.19l1.6-.7.9-2.2,1.2.5.7-1-.8-.7.3-1.5-1.1-.9.6-1-.1-1.5-1.1-.1.8-.8,1.3.8.3-1.4-.4-1.1.1-.7,2,.6-.4-1.5,1.6-1.3-.5-.9-1.1.1-.6-.9.9-.9,1.6-.2.5-.8,1.4-.2-.1-.8-.9-.9v-.5h1.5l.4-.7-1.4-1-.1-.6"/>
          <path class="cls-3" d="M493.9,416.99l2.6,2.3,2.8-1.3,3.2.8.2,11.9"/>
          <path class="cls-3" d="M135,354.59l-.9,2.1,1.3,3.4,1.4,1.8,1.2,5.8,2.3,2.5.4,1.9-1.3,1.3-4.8,1.7-2.4,3.6-1.6,7-2.4,3.2-1.6.3-1.1,6.9,1.1,1.6,1.8.2,1,1.6-.8,2.4-3,2.2-2.2-.1"/>
          <path class="cls-3" d="M239.8,327.49l-17.4,124.1"/>
          <path class="cls-3" d="M153.6,313.29l-3.4,17.5-2.4,2.9h-2l-1.2-2.7-3.7-1.4-3.5.6-1,13.6.5,4.9-.5,2.9-1.4,3"/>
          <path class="cls-3" d="M153.6,313.29l46.2,8.2,40,6"/>
          <path class="cls-3" d="M79.9,182.99l-16.4,63.1,1.1,3.5,70.4,105"/>
          <path class="cls-3" d="M13.8,164.39l66.1,18.6"/>
          <path class="cls-3" d="M365.4,272.79l-4.8,67"/>
          <path class="cls-3" d="M333.7,248.29l33.1,2.4-1.4,22.1"/>
          <path class="cls-3" d="M239.8,327.49l52.6,6.5,51.7,4.8"/>
          <path class="cls-3" d="M344.1,338.79l16.5,1"/>
          <path class="cls-3" d="M251.3,239.19l-11.5,88.3"/>
          <path class="cls-3" d="M251.3,239.19l44.9,5.7,37.5,3.4"/>
          <path class="cls-3" d="M829.8,187.79l10.5-2.4.5.7.9-.3v-.7l14.9-3.4.1.3"/>
          <path class="cls-3" d="M832.6,211.19l-1.7-2.2,3.5-3.4-1.8-1.5-2.8-16.3"/>
          <path class="cls-3" d="M856.7,181.99l3.2,12.3-.4,1.1.4,1.8"/>
          <path class="cls-3" d="M787.8,271.09l1.7-2.6-2.6-1.8-1,1.7"/>
          <path class="cls-3" d="M785.9,268.39l.5.4.4.1.6.5.3.7-.1.5.2.5"/>
          <path class="cls-3" d="M803.9,246.59l7.6,27.1,10.9-2.3"/>
          <path class="cls-3" d="M809.8,243.69l-1,2.2-.3,2.1"/>
          <path class="cls-3" d="M803.9,246.59l1.2-2.1,1.5-1.1,1.6-.3,1.6.6"/>
          <path class="cls-3" d="M673.6,463.89l3.3,6,50.1-3.3.6,3.2,1,1.1,2.1-.6.5-4.3-1.4-2.1v-2.5l2.2-1.4,1.7.9,4,.7,3.6-.3"/>
          <path class="cls-3" d="M675.5,374.69l21.4-3"/>
          <path class="cls-3" d="M696.9,371.69l-.1,1.9-1.9,1-1.4,3.2.2,1.3,6.1,3.8,2.6-.3,3.1,4,.4,1.7,4.2,5.1,2.6,1.7,1.4.2,2.2,1.6,1.1,2.2,2,1.6,1.8.5,2.7,2.7.1,1.4,2.6,2.8,5,2.3,3.6,6.7.3,2.7,3.9,2.1,2.5,4.8.8,3.1,4.2.4"/>
          <path class="cls-3" d="M652.6,377.59l22.9-2.9"/>
          <path class="cls-3" d="M542.8,266.19l.7-.7.1-2.3-.7-.9,1-1.5,1.8-.6.9-.3,1-1.2v-2.4l1.7-2.4.5-.5.1-3.5-.9-1.4-1-.3-1.1-1.6,1-4,3-.8h2.4l4.2-1.8,1.7-2.2.1-2.4,1.1-1.3,1.3-3.2-.1-2.6-2.8-3.5h-1.2l-.9-1.1.2-1.6-1.7-1.7-2.5-1.3.5-.6"/>
          <path class="cls-3" d="M459.6,198.49h28.2l36.3-.9,18.6-.7"/>
          <path class="cls-3" d="M470.5,263.29l25.9.1,27.2-1.2,14.3-.8,1.7,1.3.6,1.6,1.1,1.1,1.5.8"/>
          <path class="cls-3" d="M470.5,263.29l-1.8-4.4.7-2.2-.8-3.3.2-2.9-1.3-.7-.4-6.1-2.8-5-.2-3.7-2.2-4.3-1.3-3.7v-1.4l-.6-1.7v-2.3l-.5-.9"/>
          <path class="cls-3" d="M459.5,220.69l-.7-1.7-.3-1.3-1.3-1.2,1-4.3,1.7-5.1-.7-2-1.3-.4-.4-1.6,1-.5.1-1.1-1.3-1.5.1-1.6,2.2.1"/>
          <path class="cls-3" d="M553.2,218.49l-1.3-2.8-3.3-.7-2.7-1.5-2-5.5.1-2.5,1.6-3.3-.6-1.1-2.1-1.6-.2-2.6"/>
          <path class="cls-3" d="M174.8,46.99l-4.8,22,3.7,7.4-1.6,4.8,3.6,4.8,1.9.7,3.9,8.3v2.1l2.3,3h.9l1.4,2.1h3.2v1.6l-7.1,17-.5,4.1,1.4.5,1.6,2.6,2.8-1.4,3.6-2.4,1.9,1.9.5,2.5-.5,3.2,2.5,9.7,2.6,3.5,2.3,1.4.4,3v4.1l2.3,2.3,1.6-2.3,6.9,1.6,2.1-1.2,9,1.7,2.8-3.3,1.8-.6,1.2,1.8,1.6,4.1.9.1"/>
          <path class="cls-3" d="M126.9,194.19l24.4,5.4,23.3,4.7"/>
          <path class="cls-3" d="M126.9,194.19l8.5-37.3,2.9-5.8.4-2.1.8-.9-.9-2-2.9-1.2.2-4.2,4-5.8,2.5-.8,1.6-2.3-.1-1.6,1.8-1.6,3.2-5.5,4.2-4.8-.5-3.2-3.5-3.1-1.6-3.6"/>
          <path class="cls-3" d="M222.5,212.49l-47.9-8.2"/>
          <path class="cls-3" d="M160.6,43.99l-12.7,56.1.7,4-1.1,4.3"/>
          <path class="cls-3" d="M231,157.69l-8.5,54.8"/>
          <path class="cls-3" d="M605.4,232.19l4.1,50.2-1,5.2v2l2.4,3.5v.7l-.3.9.9,1.9-.3,2.4-1.6,1.8-1.3,4.2-3.8,5.3-.1,7h-1l.9,1.9"/>
          <path class="cls-3" d="M585.9,338.99l-.3-1.8,4-3.7,6.9,3,1.5-.3.4-2.4-1.7-1.8.4-3.3,1-.5,1.2.6.6-1.2,3.7-.6.1-.9-1.5-2.2-.1-1.1,2.2-2.7v-.9"/>
          <path class="cls-3" d="M585.9,338.99h-2.8l-1.4-1.5-1.8-3.8v-1.9l.8-.6.1-1.3-1.7-1.9-.9-2.5-2.7-4.1-4.8-1.3-7.4-7.1-.4-2.4,2.8-7.6-.4-1.9,1.2-1.1v-1.3l-2.8-1.5-3-.7-3.4,1.2-1.3-2.3.6-1.9-.7-2.4-8.6-8.4-2.2-1.5-2.5-5.9-1.2-5.4,1.4-3.7"/>
          <path class="cls-3" d="M553.2,218.49l45.9-2.8"/>
          <path class="cls-3" d="M604.3,319.19l1.1.8.6-1-.7-1.7,4.6-.5.2,1.2,1.1.2.4-.9-.6-1.3.3-.8,1.3.8,1.7-.4,1.7.6,3.4,2.1,1.8-2.8,3.5-2.2,3,3.3,1.6-2.1.3-2.7,3.8-2.3.2,1.3,1.9,1.2,3-.2,1.2-.7.1-3.4,2.5-3.7,4.6-4.4-.1-1.7,1.2-3.8,2.2,1,6.7-4.5-.4-1.7-1.5-2.1,1-1.9"/>
          <path class="cls-3" d="M616.9,229.69l32.4-3.4.1,1.4"/>
          <path class="cls-3" d="M656,284.89l-6.6-57.2"/>
          <path class="cls-3" d="M490.3,342.79l-.5-48.1-3.2-.7-2.6-4.7-2.5-2.5.5-2.3,2.7-2.6.1-1.2-1.5-2.1-.9,1-2-.6-2.9-3"/>
          <path class="cls-3" d="M365.4,272.79l36,2,43.7,1.2h32.4"/>
          <path class="cls-3" d="M360.6,339.79l67.7,2.9,62,.1"/>
          <path class="cls-3" d="M582.7,349.99l1-2.7,1.4.9.7-.4,1.2-4.1-1-1,1-2,.2-.9-1.3-.8M580.1,350.29l-.7-.7.2-1h1.1l.7.7-.3,1"/>
          <path class="cls-3" d="M656,284.89l1.3.5,2.2.1,1.9-.8,2.9,1.2,2.2,3.4v1l4.1.7,2.3-.2,1.9,2.1,2.2.2v-1l1.9-.8,3,.8,1.2.8,1.3-.7h.9l.6-1.7,3.4-1.8.5.8.8,2.9,3.5,1.4,1.2,2.1"/>
          <path class="cls-3" d="M582.7,349.99l23.3-1.5.6-.9-1.2-3.2h3.7l.7.6,22.6-2,2.6-.8,17.4-1,5.2-.8,20.5-1.4,5.6-1.4M580.1,350.29h1"/>
          <path class="cls-3" d="M683.7,337.59l6.9-4.2,1-.4.5-1.9,1.8-.5,1.4-1.4.1-1.7,2.1-1.3.4-2.2,3-3,2.9-1,4.9-6.6"/>
          <path class="cls-3" d="M695.3,295.89l-.1,1.1.6,1-.6,3.6,1.9,1.6.8,1.1,1,.6-.1.9,4.4,5.6h1.4l1.5,1.8,1.2.3,1.4-.1"/>
          <path class="cls-3" d="M555,429.39l-.6,1.4,1.6,7.1,1.2,1-.5,1.7,2.4,2.5v3.3h-2l1.8,2.5-6,8.4-2.4,4.8-1.7,11.9,36-2-.1,1.4-1,1.4-.9,4.6,4.8,6.8-.3,1.3,1.2,1.8.6.7"/>
          <path class="cls-3" d="M502.7,430.69l.5,19.9.7,3.4,2.6,2.8.7,5.4,3.8,4.6.8,4.3h1l-.1,7.3-3.3,6.4,1.3,2.3-1.3,1.5.7,3-.1,4.3-2.2,3.5-.1.8-1.7,1.2,1,1.8,1.2,1.1"/>
          <path class="cls-3" d="M842,169.09l18.4-3.8,1-1.5.3-1.7,1.9-.6.5-1.1,1.7-1.1,1.3.3"/>
          <path class="cls-3" d="M829.8,187.79l-.7-1,.5-15"/>
          <path class="cls-3" d="M856.7,181.99l6.5-2,.7,2.6h.8l.6,2.2,2.6,1.3,1.3,1.1,1.4,3"/>
          <path class="cls-3" d="M829.6,171.79l12.4-2.7"/>
          <path class="cls-3" d="M743.4,258.39l60.5-11.8"/>
          <path class="cls-3" d="M808.9,285.79l-.8.1M821.3,281.59l-.6.3M819.4,282.09l-4.6,1.6-.7.8M785.9,268.39l-.6-.6h-1l-.6-.1-.4-.4.1-.5-1.7-.6-.8.3-1.2-.1-.7-.7-.5-.2-.2-.7.6-.8v-.9l-1.2-.2-1-.9-.9.1-1.6-.3M785.8,275.29l.3-.4-.7-1,1-.1,1-.9.4-1.8"/>
          <path class="cls-3" d="M743.4,258.39l1.7,11.4,1.8-1.6.9-1.6,3.1-3.9,2.2.3,2.6-3.8,1.9,1,3.3-.4,1.7-2.9h1.3l.9-1.4,1.4-.3,2.2,1.6,2.6-.4-.2,1,.8,1.2h.7l.2.7,1,.5-.2,1.6.9.4"/>
          <path class="cls-3" d="M867.9,154.79l-2.3-1.4-.8-2.2-3.2-2-.6-4-11.9-36.8"/>
          <path class="cls-3" d="M649.4,227.69l21.4-3.5"/>
          <path class="cls-3" d="M551.6,128.79l1.9.7,3,3.8,17,3.8,1.4,1,4,.8.7.5,2.8-.2,4.9.8,1.4,1.5-1,1,.8.8,3.8.7,1.2,1.2.1,4.4-1.3,2.8,2,.1,1-.8.9.8-1.1,3.1,1,1.6,1.2.3"/>
          <path class="cls-3" d="M448.3,77.79l2.4,7.3-1.1,2.8.8,1.4-.3,5.1-.5,1.1,2.7,9.1,1.3,2.5.7,14,1,2.7-.4,5.8,2.9,7.4.3,5.8-.1,2.1"/>
          <path class="cls-3" d="M459.6,198.49l.2-39.5-1.5-1.9-2.6-.6-.4-1.8-1.7-2.5.3-1.2,3.1-1.9.9-2,.1-2.2"/>
          <path class="cls-3" d="M542.7,196.89l-1.1-4.5-.2-3-2.2-3-2.8-.7-5.2-3.6-.6-3.3-6.3-3.1-.2-1.3h-3.3l-2.2-2.6-2-1.3.7-5.1-.9-1.6.5-5.4,1-1.8-.3-2.7-1.2-1.3-1.8-.3v-1.7l2.8-5.8,5.9-3.9-.4-13,.9.4.6-.5.1-1.1.9-.6,1.4,1.2.7-.1"/>
          <path class="cls-3" d="M477.5,275.99l-3.9-6.3-2.1-3.7.3-1.4-1.3-1.3"/>
          <path class="cls-3" d="M490.3,342.79l.2,10.8"/>
          <path class="cls-3" d="M577.7,361.39l1-2,1.2-.5v-.7l-1.2-1.1-.6-1,1.7.2.8-.7-1.4-1.5,1.4-.5.1-1-.6-1v-1.3M581.1,350.29l.8.7.8-1"/>
          <path class="cls-3" d="M568.6,384.19l38.3-2.6"/>
          <path class="cls-3" d="M348.5,72.79l-5.2,66.7"/>
          <path class="cls-3" d="M343.3,139.49l-2,20.7"/>
          <path class="cls-3" d="M341.3,160.19l-51-5.3-57.3-7.9-2,10.7"/>
          <path class="cls-3" d="M696.9,371.69l4.4-1.9,1.3-.1,7.3-4.3,23.2-2.2.4.5-.2,1.4.7.3,1.2-1.5,3.3,3,.1,2.6,19.7-2.8,24.5,17.1"/>
          <path class="cls-3" d="M717.1,333.49v5.2l-1.5-.1-1.4,1.2-2.4,5.2-2.6-1.1-3.5,2.5-.7,2.1-1.5,1.2-.8-.8-.1-1.5-.8-.2-4,3.3-.6,3.4-4.7,2.4-.5,1.2-3.2,2.6-3.6.5-4.6,3-.8,4.1-1.3.9-1.5-.1-1.4,1.3-.1,4.9"/>
          <path class="cls-3" d="M717.1,333.49l29.4-3.5,39.4-7.3,29.1-6.1"/>
          <path class="cls-3" d="M343.3,139.49l39.2,2.9,46,2.1,29.5.4"/>
          <path class="cls-3" d="M337.4,204.09l51.1,3.5,38,1.6,3.4,3.2,1.7.2,2.1,2,1.8-.1,1.8-2,1.5.6,1-.7.7.5.9-.4.7.4.9-.4,1,.5,1.4-.6,2,.6.6,1.1,6.1,2.2,1.2,1.3.9,2.6,1.8.7,1.5-.2"/>
          <path class="cls-3" d="M333.7,248.29l3.7-44.2"/>
          <path class="cls-3" d="M843.9,116.59l1.2,2.3-1.1,3.5,2.1,2.8-.4,1.7.1,1.3-1.1,2.1-1.4.4-.6,1.3-2.1,1-.7,1.5,1.4,3.4-.5,2.5.5,1.5-1,1.9.4,1.9-1.3,1.9.2,2.2-.7,1.1.7,4.5.7,1.5-.5,2.6.9,1.8-.2,2.5-.5,1.3-.1,1.4,2.1,2.6"/>
          <path class="cls-3" d="M813.9,206.99l14.6,4.9-.4,5.9"/>
          <path class="cls-3" d="M809.8,243.69l1.4-1.7,1.6-.6,1.8-3,1.6-2.3,3.3-2.6-4.2-3.2-2.1-1.1-1-2.8-2.7-.9-.5-3.6,1-1,.7-2-1.5-1.8,3-5.4-.1-2.2,1.8-2.5"/>
          <path class="cls-3" d="M344.1,338.79l-.6,10.6"/>
          <path class="cls-3" d="M270.3,447.69l-2-2.2.3-3,34.4,3.6,31.8,2.6,7.9-99.3h.8"/>
          <path class="cls-3" d="M79.9,182.99l47,11.2"/>
          <path class="cls-3" d="M174.6,204.29l-21,109"/>
          <path class="cls-3" d="M813.9,206.99l-1.6-1.1-1.9.3-3-2.2-3-5.8h-2l-.4-1.5-1.7-1.1-70.5,13.9-.8-6"/>
          <path class="cls-3" d="M829.6,171.79l-1.1-1,.5-2-3-14.2-1.9-1.5-.9,1.6-.9-2.2.8-1.8-3.1-6.7.3-3.8.4-1-.6-2,.4-2.2-2.2-2.3-.5-3.2.4-1.5-1.4-.9.6-1.9-.8-1.7"/>
          <path class="cls-3" d="M722.8,241.59l-4.9-29.9"/>
          <path class="cls-3" d="M695.3,295.89l3.2-1.4h1.5l.4-3.5,1.5-.8-1.3-3.6,1.1-1.3.3-2.2,1-2.3,1.6.5.6,2.1,1-.5.7-.8,1-.2v-1.9l-1.4-1.1,1-.5-.1-2.1,1.3-2.2h1.3l.3-1.2,1.5-1.8,1.3,1.2,1.8-1.7h.6l1.8-2,2-3.3,1.1-.5.4-2.2-.5-1.1,1-3.6.1-5.4,1.1-3.4-.6-2,.1-2.2-1.4-2.1,2.2-1.2"/>
          <path class="cls-3" d="M343.5,349.39l52.6,3.2-1.4,42.7,2.7,1.3,2.5,3,1.5.3,1.1-1,1.2.4,1.4,1,1.1-1.5,2.3,1.7.5,2.9,1.2.7,2.3-.1,3.5,1.9,2-.1,1.4-.4,2.3,2.2,2-2.3,3.5,1.1,1.9,3,2.3-.1-.7,2.1,2.3,1.1,3-2.6,2.6,1.7,1.3-.5.1,1.5,1.7,1.2,2.3-2.5,1.2.7-.3,2,1,1.8,1.2-.8,2.5-4.2,1.8,2,2,.5,2.1-.7,2,1.8,1.2-.1,1.3,1.2,3.6-.9.6-1.7,3.7-.3,1.6.7,5-2.5.6,1.5,5.1-.3.5-1.6,2.2.9,4.6,3.8,6.4,1.9"/>
          <path class="cls-3" d="M147.5,108.39l-30.3-7.3-2.8,1-5.4-.9-1.8-.9-1.5,1.2-3.3-.4-4.5.5-.9.7-4.2-.4-.8-1.6-1.2-.2-4.4,1.3-1.6-1.1-2.2.8-.2-1.8-2.3-1.2-1.5-.2-1-1.1-3,.3-1.2-.8h-1.2l-1.2.9-5.5.7-6.6-4.2,1.1-5.6-.4-4.1-3.2-3.7-3.7.1-.4-1.1.4-1.2-.7-.8-1,.1"/>
          <path class="cls-3" d="M722.8,241.59l3.2,19.7,17.4-2.9"/>
          <path class="cls-3" d="M337.4,204.09l3.9-43.9"/>
          <path class="cls-3" d="M683.7,337.59l28.9-3.3.2-1,4.6-.5-.3.7"/>
          <path class="cls-3" d="M222.5,212.49l-3.3,21.9,32.1,4.8"/>
          <path class="cls-3" d="M708.7,313.39l.7.6-.8,1.2,1.5.7.1,1.5,4.4,2.3,2.3-.1,1.9-1.8.8-1.7,3,1.8,5.5-2.4.5-.9-.8-.5.6-1.4,1.5,1,4.3-3.1.7,1.1,2.3-2-.1-1.4,1.5-1.9-1.5-1.2,1-3.3,3.7-6.3-.4-1.9,2.1-2.2-.4-1.5,1.4-1.7.1-4.7,2.3.7,1.3,1.9,2.8.5,1.3-1.6,2.3-8.5,2.4,1.1,1-2.5.9-.8,1.4-1.8.9-.8.5-2.1,1.2-.8-.1-2.9.8-2.3-.9-1.6.2-.9,10,5.2.5-2.3.4-1.6.4-.7"/>
        </g>
        <circle class="cls-12" cx="787.6" cy="268.59" r="5"/>
      </g>
      <g>
        <rect class="cls-9" x="110.52" y="551.66" width="158.43" height="41.24" rx="20.62" ry="20.62"/>
        <text class="cls-13" transform="translate(127.04 578.1)"><tspan x="0" y="0">Mcallen, Texas</tspan></text>
      </g>
      <g>
        <rect class="cls-9" x="66.39" y="503.23" width="171.71" height="41.24" rx="20.62" ry="20.62"/>
        <text class="cls-13" transform="translate(87.77 529.66)"><tspan x="0" y="0">Laredo, Texas</tspan></text>
      </g>
      <g>
        <rect class="cls-9" x="734.52" y="0" width="120" height="41.24" rx="20.62" ry="20.62"/>
        <text class="cls-13" transform="translate(752.23 26.44)"><tspan x="0" y="0">New York</tspan></text>
      </g>
      <g>
        <path class="cls-7" d="M432.95,570.29c0,1.56-4.47,2.82-10,2.82s-10-1.27-10-2.82,4.47-2.82,10-2.82,10,1.27,10,2.82Z"/>
        <path class="cls-11" d="M422.95,569.82s-18.96-32.24,0-32.24,0,32.24,0,32.24Z"/>
        <circle class="cls-8" cx="422.97" cy="546.45" r="4.09"/>
      </g>
      <g>
        <path class="cls-7" d="M400.44,526.16c0,1.56-4.47,2.82-10,2.82s-10-1.27-10-2.82,4.47-2.82,10-2.82,10,1.27,10,2.82Z"/>
        <path class="cls-11" d="M390.44,525.69s-18.96-32.24,0-32.24,0,32.24,0,32.24Z"/>
        <circle class="cls-8" cx="390.45" cy="502.32" r="4.09"/>
      </g>
      <g>
        <path class="cls-7" d="M808.44,170.81c0,1.56-4.47,2.82-10,2.82s-10-1.27-10-2.82,4.47-2.82,10-2.82,10,1.27,10,2.82Z"/>
        <path class="cls-11" d="M798.44,170.34s-18.96-32.24,0-32.24,0,32.24,0,32.24Z"/>
        <circle class="cls-8" cx="798.45" cy="146.96" r="4.09"/>
      </g>
      <g>
        <line class="cls-2" x1="797.69" y1="129.71" x2="797.69" y2="129.71"/>
        <line class="cls-5" x1="797.69" y1="115.89" x2="797.69" y2="96.76"/>
        <line class="cls-1" x1="797.69" y1="90.39" x2="797.69" y2="57.44"/>
        <line class="cls-2" x1="797.69" y1="51.07" x2="797.69" y2="51.07"/>
      </g>
      <g>
        <line class="cls-2" x1="414.71" y1="569.84" x2="414.71" y2="569.84"/>
        <line class="cls-6" x1="402.67" y1="569.84" x2="386.01" y2="569.84"/>
        <line class="cls-4" x1="380.45" y1="569.84" x2="283.23" y2="569.84"/>
        <line class="cls-2" x1="277.68" y1="569.84" x2="277.68" y2="569.84"/>
      </g>
      <g>
        <line class="cls-2" x1="383.74" y1="526.48" x2="383.74" y2="526.48"/>
        <line class="cls-6" x1="371.71" y1="526.48" x2="355.04" y2="526.48"/>
        <line class="cls-4" x1="349.48" y1="526.48" x2="252.27" y2="526.48"/>
        <line class="cls-2" x1="246.71" y1="526.48" x2="246.71" y2="526.48"/>
      </g>
    </g>
  </g>
</svg>