<?xml version="1.0" encoding="UTF-8"?>
<svg id="Layer_2" data-name="Layer 2" xmlns="http://www.w3.org/2000/svg" viewBox="0 0 48 54">
  <defs>
    <style>
      .cls-1 {
        fill: #193cb8;
      }
    </style>
  </defs>
  <g id="Layer_1-2" data-name="Layer 1">
    <path class="cls-1" d="M47.99,13.52s0-.04,0-.05c0-.02,0-.04,0-.06,0-.02-.01-.05-.02-.07,0-.02,0-.03-.01-.04,0-.02-.02-.05-.02-.07,0-.01-.01-.03-.02-.04,0-.02-.02-.04-.03-.06,0-.02-.01-.03-.02-.05,0-.02-.02-.03-.03-.05s-.02-.04-.03-.05c0-.01-.02-.03-.03-.04-.01-.02-.03-.04-.04-.06,0-.01-.02-.02-.03-.03-.02-.02-.03-.04-.05-.06-.01,0-.02-.02-.03-.03-.02-.02-.04-.03-.06-.05-.01-.01-.03-.03-.05-.04-.01-.01-.03-.02-.05-.04-.03-.02-.06-.04-.09-.06,0,0,0,0-.01,0h0s0,0,0,0L24.59.15c-.37-.2-.82-.2-1.18,0L.64,12.56s-.01,0-.02.01c0,0-.02,0-.02.01-.02.01-.03.02-.05.04-.02.01-.04.03-.06.04-.02.02-.05.04-.07.06-.02.02-.04.03-.05.05-.02.02-.04.04-.06.07-.02.02-.03.04-.05.05-.02.02-.03.05-.05.08-.01.02-.03.04-.04.06-.02.03-.03.06-.04.09,0,.02-.02.04-.03.06-.02.04-.03.07-.04.11,0,.01-.01.03-.01.04-.01.05-.02.1-.03.16,0,.01,0,.02,0,.04,0,.04,0,.08,0,.12v20.7c0,.67.55,1.22,1.23,1.22s1.23-.55,1.23-1.22V15.65l4.43,2.3v6.6c0,.67.55,1.22,1.23,1.22s1.23-.55,1.23-1.22v-5.05l6.24,3.32v9.86l-6.89-3.67c-.6-.32-1.35-.1-1.67.5-.32.6-.1,1.34.5,1.66l8.71,4.63c.18.1.38.15.58.15.22,0,.44-.06.63-.17.37-.22.6-.62.6-1.05v-10.97l4.71,2.45v24.56L1.8,39.95c-.6-.31-1.35-.08-1.66.52-.31.6-.08,1.34.52,1.65l22.77,11.75s.03.01.05.02c.02,0,.04.02.06.03.03.01.06.02.09.03.02,0,.04.01.06.02.03,0,.07.02.1.02.02,0,.03,0,.05,0,.05,0,.1,0,.16,0s.1,0,.16,0c.02,0,.03,0,.05,0,.03,0,.07-.01.1-.02.02,0,.04-.01.06-.02.03,0,.06-.02.09-.03.02,0,.04-.02.06-.03.02,0,.03-.01.05-.02l22.77-11.75c.41-.21.66-.63.66-1.08V13.65h0v-.02s0-.07,0-.11ZM36.06,29.45l5.23-2.71c.57-.29,1.27-.07,1.56.49s.07,1.27-.49,1.56l-5.23,2.71c-.17.09-.35.13-.53.13-.42,0-.82-.23-1.03-.62-.29-.57-.07-1.27.49-1.56ZM42.36,40.25l-9.03,5.07c-.17.09-.35.14-.52.14-.41,0-.81-.24-1.02-.67-.29-.61-.07-1.35.49-1.67l9.03-5.07c.56-.31,1.25-.08,1.54.53.29.61.07,1.35-.49,1.67ZM42.36,33.97l-9.03,5.07c-.17.09-.35.14-.52.14-.41,0-.81-.24-1.02-.67-.29-.61-.07-1.35.49-1.67l9.03-5.07c.56-.31,1.25-.08,1.54.53s.07,1.35-.49,1.67Z"/>
  </g>
</svg>