<?xml version="1.0" encoding="UTF-8"?>
<svg id="Layer_2" data-name="Layer 2" xmlns="http://www.w3.org/2000/svg" viewBox="0 0 48 39">
  <defs>
    <style>
      .cls-1 {
        fill: #0084d1;
      }
    </style>
  </defs>
  <g id="Layer_1-2" data-name="Layer 1">
    <g>
      <path class="cls-1" d="M33.74,35.89h-12.36c-.41,1.78-2,3.11-3.91,3.11-2.21,0-4.01-1.8-4.01-4.01s1.8-4.01,4.01-4.01c1.9,0,3.5,1.33,3.91,3.1h12.36c.41-1.78,2-3.1,3.9-3.1s3.49,1.33,3.9,3.1h4.65v-4.13H8.8v4.13h2.15c.5,0,.9.4.9.9s-.4.9-.9.9h-3.06c-.5,0-.9-.4-.9-.9v-11.2c0-.5.4-.9.9-.9s.9.4.9.9v4.36h37.39v-6.89l-4.86-1.01c-.23-.05-.44-.19-.57-.39l-5.99-9.07h-6.04v14.4c0,.5-.4.9-.9.9s-.9-.4-.9-.9v-14.4h-3.7c-.5,0-.9-.4-.9-.9s.4-.9.9-.9h12.02c.3,0,.59.15.75.41l6.05,9.17,5.22,1.08c.42.09.72.46.72.88v14.46c0,.5-.4.9-.9.9h-5.55c-.41,1.78-2,3.11-3.9,3.11s-3.49-1.33-3.9-3.11Z"/>
      <path class="cls-1" d="M0,10.5C0,4.71,4.71,0,10.5,0s10.5,4.71,10.5,10.5-4.71,10.5-10.5,10.5S0,16.29,0,10.5Z"/>
    </g>
  </g>
</svg>