<?xml version="1.0" encoding="UTF-8"?>
<svg id="Layer_2" data-name="Layer 2" xmlns="http://www.w3.org/2000/svg" xmlns:xlink="http://www.w3.org/1999/xlink" viewBox="0 0 72 72.01">
  <defs>
    <style>
      .cls-1 {
        fill: url(#linear-gradient-2);
      }

      .cls-2 {
        fill: url(#linear-gradient-3);
      }

      .cls-3 {
        fill: url(#linear-gradient);
      }
    </style>
    <linearGradient id="linear-gradient" x1="0" y1="32.19" x2="54.28" y2="32.19" gradientUnits="userSpaceOnUse">
      <stop offset="0" stop-color="#00bcff"/>
      <stop offset="1" stop-color="#155dfc"/>
    </linearGradient>
    <linearGradient id="linear-gradient-2" x1="18.62" y1="39.86" x2="72" y2="39.86" xlink:href="#linear-gradient"/>
    <linearGradient id="linear-gradient-3" x1="14.73" y1="34.68" x2="56.04" y2="34.68" xlink:href="#linear-gradient"/>
  </defs>
  <g id="Layer_1-2" data-name="Layer 1">
    <g>
      <path class="cls-3" d="M53.76,6.9c-1,.99-2.96-.6-4.06-1.07C19.13-7.24-9.58,26.24,8.12,53.98c.27.42,1.95,2.87,2.19,2.97.13.06.27.07.38-.08.34-.44-.79-2.01.3-2.81,1.18-.87,2.03-.14,2.43,1.02.6,1.74,1.63,5.41,1.88,7.18.17,1.17.01,2.07-1.36,2.11-2.51-.74-5.34-1.17-7.79-2.02-1.06-.37-1.78-.95-1.21-2.15.67-1.42,2.35-.41,3.48-.27.14,0,.1-.25.07-.39-.08-.51-1.72-2.36-2.15-3.01C-1.79,44.52-2.18,28.98,5.62,16.66,15.01,1.84,34.33-4.14,50.49,3.02c1.33.59,5.18,2.01,3.28,3.88"/>
      <path class="cls-1" d="M63.35,12.27c1.01,1.67,2.32,3.17,3.35,4.86,9.91,16.19,5.52,37.32-9.86,48.25-10.14,7.21-23.88,8.74-35.32,3.65-.52-.23-2.14-.96-2.48-1.27-.94-.88-.21-2.52,1.1-2.51.51,0,2.65,1.21,3.36,1.49,30.01,11.82,57.61-21.06,40.63-48.29-.29-.46-2.18-3.26-2.44-3.34-.25-.08-.39.02-.52.23.52,1.16.52,3.1-1.17,3.03-1.42-.06-1.61-2.14-1.92-3.24-.35-1.26-1.5-4.98-1.46-6.05.03-1.01.68-1.44,1.65-1.33,2.3.91,6.06,1.12,8.17,2.16.92.45,1.1,1.86.19,2.45-1.14.74-2.15-.3-3.27-.07"/>
      <path class="cls-2" d="M37.96,24.35h-5.16v4.68c.72-.16,1.92-.83,2.62-.81.7.02,1.83.65,2.55.81v-4.68ZM30.22,24.35h-12.91v28.4h36.14v-28.4h-12.91v6.74c0,.46-.81,1-1.25,1.01-.95.03-2.85-1.06-3.88-1.21-1.08.12-3.02,1.27-4.01,1.2-.43-.03-1.18-.57-1.18-1v-6.74ZM48.93,16.61h-9.44l.81,5.16h12.02l-3.39-5.16ZM33.04,21.77h4.68l-.81-5.16h-3.02l-.85,5.16ZM31.27,16.61h-9.44l-3.39,5.16h12.02l.81-5.16ZM49.9,14.03l.52.32c1.57,2.54,3.82,5.15,5.24,7.75.16.3.32.57.36.93v29.84c-.1,1.36-1.09,2.33-2.45,2.46H17.18c-1.3-.11-2.14-.96-2.46-2.18v-30.25c.12-.28.22-.54.37-.8,1.49-2.62,3.61-5.2,5.24-7.75l.52-.32h29.04Z"/>
    </g>
  </g>
</svg>