<?xml version="1.0" encoding="UTF-8"?>
<svg id="Layer_2" data-name="Layer 2" xmlns="http://www.w3.org/2000/svg" xmlns:xlink="http://www.w3.org/1999/xlink" viewBox="0 0 79.11 63.21">
  <defs>
    <style>
      .cls-1 {
        fill: url(#linear-gradient);
      }
    </style>
    <linearGradient id="linear-gradient" x1="0" y1="31.6" x2="79.11" y2="31.6" gradientUnits="userSpaceOnUse">
      <stop offset="0" stop-color="#00bcff"/>
      <stop offset="1" stop-color="#155dfc"/>
    </linearGradient>
  </defs>
  <g id="Layer_1-2" data-name="Layer 1">
    <path class="cls-1" d="M69.3,46.43c-1.16-5.38-7.9-7.76-12.19-4.22l2.12,2.6c.25,1.22-.53,2.18-1.78,1.98-1.05-.17-2.11-2.34-3.64-2.86-2.4-.82-5.76.37-6.54,2.9,1.48.39,4.84,2.36,3.35,4.19-1.4,1.72-3.14-1.25-5.1-1.32-5.86-.22-6.78,9.1-.7,10.1,8.55-.54,18.12.78,26.55.02,1.35-.12,2.58-.85,3.44-1.87,3.58-4.26-1.16-10.41-6.24-8.01-1.34.63-2.47,3.01-4.08,1.98-.25-.16-.63-.83-.67-1.11-.3-1.8,3.83-4.31,5.47-4.38M34.48,21.26h-12.79v29.41c0,.51,1.14,1.16,1.67,1.08l14.53-.03c1.39-2.49,3.26-4.42,6.13-5.08.52-3.14,3.83-5.72,6.9-6.08.85-.1,2.7.25,3.08.15.16-.04,1.55-1.32,1.97-1.59,1.82-1.18,4.07-1.78,6.24-1.73v-15.84l-.3-.29h-12.69v8.56c0,.49-.97,1.07-1.48,1.1-1.49.06-4.34-3.37-5.9-3.95l-5.16,3.89c-.99.37-2.21-.67-2.21-1.63v-7.97ZM62.22,18.11v-3.05c0-.22-.71-1.28-.89-1.28h-12.1v4.33h12.98ZM46.09,13.78h-8.26v12.2c1.15-.53,2.97-2.84,4.22-2.75.41.03.71.34,1.04.54,1.04.63,1.88,1.71,3,2.21v-12.2ZM34.48,13.78h-11.9c-.2,0-.89.69-.89.89v3.44h12.79v-4.33ZM32.12,10.63c.11-3.63-4.51-5.34-7.42-3.78-1.34.72-2.87,3.92-4.48,2-1.23-1.47.96-3.09,1.86-4.02-4.21-3.57-11.13-1.19-12.19,4.23,1.79.28,3.72,1.32,4.83,2.75.64.83,1.02,1.48.2,2.37-1.56,1.7-2.57-.52-3.66-1.27-4.58-3.2-10.3,2.34-7.3,7.11.57.91,2.4,2.42,3.48,2.42h11.12v-8.36c0-1.04,2.39-3.44,3.44-3.44h10.13ZM7.24,25.58c-3.37-.4-6.76-3.62-7.16-7.01-.57-4.84,2.11-8.24,6.56-9.72C8.26.28,19.07-3.05,25.16,3.31c4.71-1.04,10.31,2.13,10.11,7.32h26.07c2.79.53,3.84,2.3,4.04,5.01l.02,22.21c1.03.63,2.15,1.06,3.11,1.81,2.15,1.69,3.46,4.06,4.13,6.69,9.1,2.13,8.44,15.77-.87,16.61-8.62.77-18.38-.55-27.12-.02-4.04-.53-7.09-3.97-7.21-8.04l-14.6-.06c-1.57.17-4.28-2.09-4.28-3.58v-25.67H7.24Z"/>
  </g>
</svg>