<?xml version="1.0" encoding="UTF-8"?>
<svg id="Layer_2" data-name="Layer 2" xmlns="http://www.w3.org/2000/svg" xmlns:xlink="http://www.w3.org/1999/xlink" viewBox="0 0 79.82 79.82">
  <defs>
    <style>
      .cls-1 {
        fill: url(#linear-gradient-2);
      }

      .cls-2 {
        fill: url(#linear-gradient-3);
      }

      .cls-3 {
        fill: url(#linear-gradient);
      }
    </style>
    <linearGradient id="linear-gradient" x1="0" y1="25.28" x2="55.86" y2="25.28" gradientUnits="userSpaceOnUse">
      <stop offset="0" stop-color="#00bcff"/>
      <stop offset="1" stop-color="#155dfc"/>
    </linearGradient>
    <linearGradient id="linear-gradient-2" x1="9.31" y1="66.5" x2="70.5" y2="66.5" xlink:href="#linear-gradient"/>
    <linearGradient id="linear-gradient-3" x1="55.86" y1="35.89" x2="79.82" y2="35.89" xlink:href="#linear-gradient"/>
  </defs>
  <g id="Layer_1-2" data-name="Layer 1">
    <g>
      <path class="cls-3" d="M29.33,47.81h5.2v-5.21h-5.2v5.21ZM21.35,47.83h5.22v-5.24h-5.22v5.24ZM25.33,39.85h5.2v-5.24h-5.2v5.24ZM41.2,23.98H14.68v2.56h26.51v-2.56ZM53.2,16.21c-.2-.12-.3-.19-.42-.25-8.07-4.26-16.15-8.52-24.22-12.8-.48-.25-.83-.21-1.29.03-7.73,4.08-15.47,8.15-23.2,12.22-.45.24-.89.48-1.38.75.44.85.83,1.63,1.24,2.42.26-.13.44-.22.63-.32,7.37-3.87,14.75-7.72,22.11-11.62.9-.48,1.64-.49,2.54,0,7.08,3.76,14.18,7.48,21.27,11.2.47.25.95.49,1.46.75.43-.82.83-1.57,1.25-2.38M33.24,39.9c.48,0,.86,0,1.24,0,1.63.03,2.73,1.11,2.76,2.74.01.57,0,1.14,0,1.71v3.45h2.6v-18.51h-23.84v18.53h2.56c.02-.27.04-.5.04-.72,0-1.48-.02-2.96.01-4.44.04-1.71,1.11-2.74,2.81-2.76.38,0,.75,0,1.17,0,0-1.83-.02-3.55,0-5.26.02-1.57,1.08-2.68,2.62-2.7,1.82-.03,3.64-.04,5.45,0,1.44.03,2.47,1.09,2.54,2.53.02.44.01.88.01,1.32,0,1.34,0,2.69,0,4.11M13.29,47.85c0-6.27,0-12.43-.01-18.58,0-.2-.12-.46-.27-.59-.79-.66-1.07-1.49-1.03-2.49.03-.67,0-1.35,0-2.03.01-1.81,1.03-2.9,2.83-2.91,8.75-.02,17.51-.03,26.26.03.69,0,1.5.34,2.02.79,1.29,1.12,1.2,5.29-.07,6.44-.35.31-.47.61-.47,1.06.01,5.84,0,11.69,0,17.53v.76c1.63,0,3.18,0,4.73,0,1.55,0,1.94-.38,1.94-1.92,0-8.31,0-16.62.02-24.93,0-.6-.18-.92-.71-1.2-6.69-3.49-13.37-7.01-20.04-10.54-.43-.22-.73-.19-1.14.02-6.65,3.51-13.31,7.01-19.97,10.5-.52.27-.73.56-.73,1.18.03,8.34.02,16.67.02,25.01,0,.23,0,.47.02.7.08.69.49,1.13,1.16,1.15,1.78.05,3.57.01,5.44.01M28.37,0c2.14,1.15,4.27,2.31,6.42,3.44,6.42,3.39,12.85,6.76,19.28,10.15,1.82.96,2.25,2.39,1.29,4.21-.26.51-.53,1.01-.8,1.51-.73,1.37-1.1,1.66-2.67,2.01v.88c0,7.92-.05,15.84.03,23.76.02,2.69-1.8,4.59-4.6,4.58-12.93-.07-25.87-.03-38.8-.03-2.97,0-4.51-1.54-4.51-4.5,0-7.95,0-15.9,0-23.84,0-.57-.01-.94-.76-1.03-.77-.1-1.33-.65-1.7-1.36-.51-.98-1.04-1.96-1.55-2.94v-1.25c.35-1.05,1.12-1.67,2.09-2.16,2.93-1.5,5.83-3.04,8.74-4.58C16.42,5.9,22.01,2.95,27.59,0h.78Z"/>
      <path class="cls-1" d="M63.83,69.17c-2.2,0-3.96,1.77-3.97,3.96,0,2.2,1.81,4.03,4.01,4.01,2.21-.01,3.98-1.83,3.95-4.06-.02-2.19-1.79-3.92-4-3.92M15.98,69.17c-2.21,0-3.97,1.73-3.99,3.92-.02,2.23,1.75,4.04,3.96,4.05,2.17,0,3.98-1.78,4.01-3.94.03-2.23-1.74-4.02-3.97-4.03M39.92,69.17c-2.2,0-3.97,1.73-4,3.93-.04,2.19,1.79,4.04,3.98,4.04,2.19,0,4.02-1.84,4-4.03-.02-2.19-1.79-3.94-3.98-3.94M15.12,79.82c-1.08-.47-2.28-.78-3.21-1.46-2.11-1.54-2.92-3.77-2.49-6.32.43-2.59,1.99-4.35,4.49-5.19.57-.19.8-.41.74-1.02-.06-.64-.02-1.3-.01-1.95.03-2.33,1.71-4.02,4.05-4.03,6.28-.01,12.57,0,18.85,0h1.03c0-1.31,0-2.54,0-3.78,0-.52-.02-1.04.02-1.56.06-.78.58-1.3,1.28-1.32.72-.02,1.33.51,1.35,1.32.04,1.45.02,2.91.02,4.36,0,.28,0,.57,0,.98h.95c6.18,0,12.36,0,18.54,0,2.86,0,4.51,1.57,4.41,4.42-.05,1.5.13,2.43,1.81,3.08,2.55,1,3.86,3.93,3.49,6.7-.36,2.71-2.46,4.99-5.17,5.59-.2.04-.39.11-.58.17h-1.71c-.19-.06-.38-.13-.58-.18-2.77-.64-4.84-2.94-5.17-5.76-.31-2.69,1.07-5.61,3.6-6.58,1.6-.61,1.88-1.49,1.69-2.89,0-.03,0-.05,0-.08,0-1.41-.41-1.82-1.79-1.82-6.23,0-12.46,0-18.69,0h-.8c0,1.14.03,2.18-.01,3.22-.02.62.11.94.78,1.15,2.67.84,4.42,3.24,4.54,6.07.12,2.65-1.51,5.22-4.03,6.28-.59.25-1.23.39-1.84.58h-1.56c-.71-.23-1.45-.39-2.12-.71-2.4-1.14-3.9-3.69-3.75-6.23.17-2.86,1.93-5.15,4.6-6.06.26-.09.66-.3.67-.47.06-1.26.03-2.52.03-3.71-.13-.08-.15-.11-.17-.11-6.59,0-13.18-.02-19.78-.01-.79,0-1.28.54-1.31,1.35-.02.62.03,1.25-.02,1.87-.04.62.1.93.78,1.14,2.61.81,4.43,3.26,4.53,5.92.11,2.85-1.44,5.35-4.01,6.45-.56.24-1.17.39-1.75.58h-1.71Z"/>
      <path class="cls-2" d="M74.82,33.2c-2.3-2.3-4.68-4.68-6.98-6.98,0,1.77-.02,3.71,0,5.65,0,.7.39,1.28,1.09,1.3,2.03.06,4.07.02,5.88.02M77.16,35.88h-.93c-2.29,0-4.57,0-6.86,0-2.53-.01-4.19-1.68-4.2-4.21-.01-2.29,0-4.57,0-6.86v-.9c-1.63,0-3.16,0-4.69,0-1.6,0-1.96.37-1.96,1.99,0,6.65,0,13.3,0,19.95,0,.23,0,.47.01.7.08.82.55,1.27,1.37,1.3.49.02.99,0,1.48,0,4.73,0,9.45,0,14.18,0,.98,0,1.57-.46,1.57-1.33.02-3.51,0-7.01,0-10.65M79.82,47.39c-.1.23-.21.46-.31.69-.7,1.49-1.85,2.41-3.51,2.42-5.42.04-10.85.03-16.28,0-1.93,0-3.51-1.47-3.79-3.38-.05-.36-.07-.72-.07-1.09,0-6.75,0-13.5,0-20.25,0-2.94,1.59-4.54,4.51-4.54,1.87,0,3.74.02,5.61,0,.72,0,1.28.2,1.8.72,3.77,3.8,7.55,7.57,11.33,11.35.25.25.47.54.7.82v13.25Z"/>
    </g>
  </g>
</svg>