<?xml version="1.0" encoding="UTF-8"?>
<svg id="Layer_2" data-name="Layer 2" xmlns="http://www.w3.org/2000/svg" xmlns:xlink="http://www.w3.org/1999/xlink" viewBox="0 0 81.56 82.19">
  <defs>
    <style>
      .cls-1 {
        fill: url(#linear-gradient-2);
      }

      .cls-2 {
        fill: url(#linear-gradient-4);
      }

      .cls-3 {
        fill: url(#linear-gradient-3);
      }

      .cls-4 {
        fill: url(#linear-gradient-5);
      }

      .cls-5 {
        fill: url(#linear-gradient-8);
      }

      .cls-6 {
        fill: url(#linear-gradient-7);
      }

      .cls-7 {
        fill: url(#linear-gradient-6);
      }

      .cls-8 {
        fill: url(#linear-gradient);
      }
    </style>
    <linearGradient id="linear-gradient" x1="0" y1="15.93" x2="81.56" y2="15.93" gradientUnits="userSpaceOnUse">
      <stop offset="0" stop-color="#00bcff"/>
      <stop offset="1" stop-color="#155dfc"/>
    </linearGradient>
    <linearGradient id="linear-gradient-2" x1="12.9" y1="70.59" x2="68.67" y2="70.59" xlink:href="#linear-gradient"/>
    <linearGradient id="linear-gradient-3" x1="24.89" y1="70.69" x2="56.68" y2="70.69" xlink:href="#linear-gradient"/>
    <linearGradient id="linear-gradient-4" x1="39.46" y1="53.04" x2="42.11" y2="53.04" xlink:href="#linear-gradient"/>
    <linearGradient id="linear-gradient-5" x1="27.53" y1="45.08" x2="30.18" y2="45.08" xlink:href="#linear-gradient"/>
    <linearGradient id="linear-gradient-6" x1="51.38" y1="45.08" x2="54.03" y2="45.08" xlink:href="#linear-gradient"/>
    <linearGradient id="linear-gradient-7" x1="16.93" y1="38.46" x2="19.58" y2="38.46" xlink:href="#linear-gradient"/>
    <linearGradient id="linear-gradient-8" x1="61.99" y1="38.46" x2="64.64" y2="38.46" xlink:href="#linear-gradient"/>
  </defs>
  <g id="Layer_1-2" data-name="Layer 1">
    <g>
      <path class="cls-8" d="M76.73,15.1c3.36-1.27,2.23-3.84.41-5.97-5.82-6.81-14.95-.96-20.38,3.32l-.06,6.35c.15.45,3.26.9,3.86.94,4.6.28,7.66-1.92,8.04-6.63l2.66.43c-.12.87-.32,1.72-.59,2.56-.28.87-.7,1.66-1.08,2.48,3.62.41,4.8-1.86,4.32-5.13l2.64-.34.17,1.99ZM15,18.03c1.58,1.58,4.02,1.86,6.15,1.71.54-.04,3.27-.49,3.57-.74.18-.15.15-.29.17-.49.13-1.08.14-4.59,0-5.65-.04-.31-.04-.34-.25-.58-.5-.56-2.33-1.78-3.05-2.25-4.24-2.81-10.9-5.99-15.58-2.45-2.19,1.66-5.57,6.22-1.17,7.36l.17-1.82,2.65.33c-.59,3.24.67,5.69,4.31,5.13-.87-1.56-1.48-3.25-1.67-5.04l2.66-.43c-.03,1.69.86,3.73,2.05,4.91M43.43,2.68h-5.3v6.63h5.3V2.68ZM35.48,2.68h-7.95v26.5h26.5V2.68h-7.95v8.36c0,.26-.73.94-1.09.9-2.61-.16-5.54.25-8.11.02-.47-.04-1.4-.37-1.4-.92V2.68ZM56.68,9.14c6.78-4.97,16.53-9.46,22.85-1.24,2.59,3.36,3.18,7.13-1.15,9.28-.57.28-2.01.61-2.28.78-.14.09-.88,1.44-1.37,1.86-1.47,1.29-3.17,1.54-5.06,1.41-.7-.05-1.66-.41-2.3-.34-.5.06-1.73.82-2.46,1.03-2.7.8-5.56.46-8.24-.21v9.19c0,.38-.95,1.07-1.4.92h-29.17c-.41.09-1.24-.6-1.24-.92v-9.19c-2.82.68-5.68,1.03-8.48.12-.58-.19-1.69-.88-2.05-.94-.66-.11-1.62.27-2.31.33-2.29.17-4.45-.35-5.95-2.17-.22-.26-.55-1.03-.64-1.1-.11-.09-1.73-.52-2.17-.73C-1.5,14.99-.43,10.58,2.51,7.23c6.45-7.34,15.88-2.83,22.37,1.91V.94c0-.38.95-1.07,1.4-.92h29.17c.41-.09,1.24.6,1.24.92v8.2Z"/>
      <path class="cls-1" d="M26.2,61.64c-3.49.83-11,3.94-10.58,8.35.18,1.93,2.12,3.65,3.64,4.64,9.93,6.51,33.7,6.66,43.44-.27,8.36-5.95-1.45-11.45-7.34-12.73l.67-2.65c7.69,1.76,18.24,9.1,9.11,16.82-10.05,8.5-38.66,8.49-48.7,0-9.14-7.73,1.46-15.02,9.11-16.82l.66,2.64Z"/>
      <path class="cls-3" d="M29.3,64.48c.37-.03.98,1.82,1.2,2.2-1.96,1.32-4.51,2.52-1.72,4.73,4.68,3.72,19.31,3.73,24.01,0,2.79-2.22.22-3.43-1.72-4.73l1.07-2.22c4.52,1.75,6.52,6,1.95,9.24-6.01,4.26-20.03,4.16-26.21.27-4.01-2.52-3.99-6.4.1-8.82.22-.13,1.18-.66,1.32-.68"/>
      <rect class="cls-2" x="39.46" y="46.41" width="2.65" height="13.25"/>
      <rect class="cls-4" x="27.53" y="39.78" width="2.65" height="10.6"/>
      <rect class="cls-7" x="51.38" y="39.78" width="2.65" height="10.6"/>
      <rect class="cls-6" x="16.93" y="34.48" width="2.65" height="7.95"/>
      <rect class="cls-5" x="61.99" y="34.48" width="2.65" height="7.95"/>
    </g>
  </g>
</svg>