<?xml version="1.0" encoding="UTF-8"?>
<svg id="Layer_2" data-name="Layer 2" xmlns="http://www.w3.org/2000/svg" xmlns:xlink="http://www.w3.org/1999/xlink" viewBox="0 0 77.66 96.52">
  <defs>
    <style>
      .cls-1 {
        fill: url(#linear-gradient);
      }
    </style>
    <linearGradient id="linear-gradient" x1="0" y1="48.26" x2="77.66" y2="48.26" gradientUnits="userSpaceOnUse">
      <stop offset="0" stop-color="#00bcff"/>
      <stop offset="1" stop-color="#155dfc"/>
    </linearGradient>
  </defs>
  <g id="Layer_1-2" data-name="Layer 1">
    <path class="cls-1" d="M52.07,77.23l-.29.29v15.65l.29.29h22.21l.29-.29v-15.65l-.29-.29h-22.21ZM48.69,77.23h-16.61v16.23h16.61v-16.23ZM73.02,74.14l-1.06-1.55h-7.24v1.55h8.31ZM35.74,72.59h-3.67v1.55h3.67v-1.55ZM61.43,58.11h-22.6v16.03h22.6v-16.03ZM60.08,55.01c-.31-.5-.63-1.42-1.26-1.54h-17.2c-.8.03-.97,1.03-1.44,1.54h19.9ZM48.49,10.59h-16.42v58.91h3.38l.29-.29v-13.33c.83-.78,3.42-5.7,4.35-5.7h8.4V10.59ZM28.98,3.63L3.11,10.21l-.02,75.98,25.89,6.69V3.63ZM73.51,69.5c.52.15,4.03,5.4,4.14,6.1l.02,19.31c-.03.75-.61,1.36-1.3,1.6l-45.91.02c-9.2-2.95-19.88-4.26-28.9-7.42-.93-.33-1.57-.57-1.55-1.73L.1,8.45l.5-.66L30.77,0c.36,0,1.3.76,1.3,1.03v6.47h18.64c.24,0,1.06,1.01,1.06,1.26v41.43h8.4c.06,0,.75.41.88.53,1.24,1.19,2.67,4.24,3.66,5.75v13.04h8.79Z"/>
  </g>
</svg>