<?xml version="1.0" encoding="UTF-8"?>
<svg id="Layer_2" data-name="Layer 2" xmlns="http://www.w3.org/2000/svg" xmlns:xlink="http://www.w3.org/1999/xlink" viewBox="0 0 109.4 59.15">
  <defs>
    <style>
      .cls-1 {
        fill: url(#linear-gradient-2);
      }

      .cls-2 {
        fill: url(#linear-gradient-3);
      }

      .cls-3 {
        fill: url(#linear-gradient);
      }
    </style>
    <linearGradient id="linear-gradient" x1="0" y1="19.9" x2="15.02" y2="19.9" gradientUnits="userSpaceOnUse">
      <stop offset="0" stop-color="#00bcff"/>
      <stop offset="1" stop-color="#155dfc"/>
    </linearGradient>
    <linearGradient id="linear-gradient-2" x1="3.83" y1="29.58" x2="109.4" y2="29.58" xlink:href="#linear-gradient"/>
    <linearGradient id="linear-gradient-3" x1="12.61" y1="23.13" x2="46.24" y2="23.13" xlink:href="#linear-gradient"/>
  </defs>
  <g id="Layer_1-2" data-name="Layer 1">
    <g>
      <path class="cls-3" d="M0,20.78v-1.92c.46-.35.77-.57,1.39-.65,3.76-.44,8.35.35,12.2,0,1.85.25,2.12,3.14-.44,3.43-1.42.16-11.4.17-12.23-.16-.32-.12-.58-.54-.91-.69"/>
      <path class="cls-1" d="M98.24,45.65c-5.8-6.11-14.62,3.89-7.94,8.9,5.93,4.45,12.91-3.66,7.94-8.9M43.55,43.91c-8.11,1.28-5.28,14.17,2.83,11.6,6.82-2.17,4.46-12.74-2.83-11.6M95.01,18.43h-12.72v29.71l2.36-.09c2.43-10.06,16.13-10.11,18.57,0l2.58.09v-10.15c0-.73-1.27-3.09-1.67-3.88-2.29-4.52-5.43-10.28-8.13-14.53-.24-.38-.51-1.06-.99-1.14M82.29,15.01h13.15c.96,0,2.53,1.25,3.06,2.07,2.58,5.88,8.01,12.45,10.09,18.34.88,2.48.97,10.72.64,13.48-.37,3.11-3.72,2.63-6,2.76-2.4,10.01-16.35,10.03-18.49-.11h-30.96c-2.07,10.02-16.12,10.18-18.39.22l-.25-.18-14.51-.03c-.58.08-1.82-.62-1.82-1.17v-12.08H4.81c-.12,0-.8-.83-.87-1.06-.53-1.67,1-2.27,2.36-2.37,6.72-.52,14.14.4,20.93.03,2.64.37,1.66,3.4.66,3.4h-5.66v9.83h12.93c.54-1.15.81-2.3,1.51-3.4,3.8-5.94,12.77-5.67,16.08.56.51.96.65,1.95,1.22,2.85h24.58l.32-.32V3.46H22.23v5.34h10.79c.12,0,.8.83.87,1.06.58,1.81-1.2,2.27-2.57,2.37-6.34.46-13.25-.34-19.65-.03-.87-.19-1.8-.46-1.96-1.47-.09-.59.5-1.93,1.09-1.93h7.69l.32-.32V2.29c0-.69,1.92-2.58,2.88-2.25l58.47.11c.89.2,2.13,1.72,2.13,2.57v12.29Z"/>
      <path class="cls-2" d="M22.23,27.19h22.76c.13,0,.98.66,1.07.86.5,1.1-.07,2.36-1.29,2.55l-30.35.02c-2.86-.26-1.74-3.43-.63-3.43h5.02v-10.37c0-.47,1.27-1.2,1.8-1.17.5.03,1.62.98,1.62,1.39v10.15Z"/>
    </g>
  </g>
</svg>