<?xml version="1.0" encoding="UTF-8"?>
<svg id="Layer_2" data-name="Layer 2" xmlns="http://www.w3.org/2000/svg" xmlns:xlink="http://www.w3.org/1999/xlink" viewBox="0 0 94.07 50.87">
  <defs>
    <style>
      .cls-1 {
        fill: url(#linear-gradient-2);
      }

      .cls-2 {
        fill: url(#linear-gradient-3);
      }

      .cls-3 {
        fill: url(#linear-gradient);
      }
    </style>
    <linearGradient id="linear-gradient" x1="0" y1="17.12" x2="12.91" y2="17.12" gradientUnits="userSpaceOnUse">
      <stop offset="0" stop-color="#00bcff"/>
      <stop offset="1" stop-color="#155dfc"/>
    </linearGradient>
    <linearGradient id="linear-gradient-2" x1="3.29" y1="25.43" x2="94.07" y2="25.43" xlink:href="#linear-gradient"/>
    <linearGradient id="linear-gradient-3" x1="10.84" y1="19.89" x2="39.76" y2="19.89" xlink:href="#linear-gradient"/>
  </defs>
  <g id="Layer_1-2" data-name="Layer 1">
    <g>
      <path class="cls-3" d="M0,17.87v-1.65c.4-.3.67-.49,1.19-.56,3.23-.38,7.18.3,10.49,0,1.59.21,1.82,2.71-.38,2.95-1.22.14-9.81.15-10.52-.14-.27-.11-.5-.47-.78-.6"/>
      <path class="cls-1" d="M84.48,39.25c-4.99-5.25-12.57,3.35-6.83,7.65,5.1,3.82,11.1-3.15,6.83-7.65M37.45,37.76c-6.97,1.1-4.54,12.18,2.44,9.97,5.87-1.86,3.84-10.96-2.44-9.97M81.7,15.85h-10.93v25.55l2.03-.08c2.09-8.65,13.87-8.69,15.97,0l2.22.08v-8.73c0-.63-1.09-2.66-1.44-3.34-1.97-3.89-4.67-8.84-6.99-12.5-.21-.32-.44-.91-.85-.98M70.76,12.91h11.3c.83,0,2.18,1.07,2.63,1.78,2.22,5.05,6.88,10.7,8.67,15.77.75,2.13.84,9.22.55,11.59-.32,2.67-3.2,2.26-5.16,2.37-2.07,8.61-14.06,8.63-15.9-.09h-26.62c-1.77,8.61-13.86,8.76-15.81.19l-.21-.16-12.47-.02c-.49.07-1.56-.53-1.56-1.01v-10.39H4.14c-.1,0-.69-.71-.75-.91-.46-1.44.86-1.95,2.03-2.04,5.78-.45,12.16.34,18,.03,2.27.32,1.43,2.92.57,2.92h-4.87v8.45h11.12c.46-.99.7-1.98,1.3-2.92,3.27-5.11,10.98-4.87,13.83.48.44.83.56,1.68,1.05,2.44h21.14l.28-.27V2.98H19.12v4.6h9.28c.1,0,.69.71.75.91.5,1.56-1.03,1.95-2.21,2.04-5.46.39-11.4-.3-16.9-.02-.75-.16-1.55-.4-1.69-1.26-.08-.51.42-1.66.93-1.66h6.62l.28-.28V1.97c0-.59,1.65-2.22,2.47-1.94l50.28.1c.77.17,1.83,1.48,1.83,2.21v10.57Z"/>
      <path class="cls-2" d="M19.11,23.38h19.58c.11,0,.84.57.91.74.43.95-.05,2.02-1.11,2.19l-26.1.02c-2.46-.22-1.49-2.95-.54-2.95h4.32v-8.91c0-.4,1.09-1.04,1.55-1.01.43.02,1.39.84,1.39,1.19v8.73Z"/>
    </g>
  </g>
</svg>