<?xml version="1.0" encoding="UTF-8"?>
<svg id="Layer_2" data-name="Layer 2" xmlns="http://www.w3.org/2000/svg" xmlns:xlink="http://www.w3.org/1999/xlink" viewBox="0 0 105.12 79.32">
  <defs>
    <style>
      .cls-1 {
        fill: url(#linear-gradient-2);
      }

      .cls-2 {
        fill: url(#linear-gradient);
      }
    </style>
    <linearGradient id="linear-gradient" x1="0" y1="39.66" x2="105.12" y2="39.66" gradientUnits="userSpaceOnUse">
      <stop offset="0" stop-color="#00bcff"/>
      <stop offset="1" stop-color="#155dfc"/>
    </linearGradient>
    <linearGradient id="linear-gradient-2" x1="27.35" y1="35.16" x2="31.4" y2="35.16" xlink:href="#linear-gradient"/>
  </defs>
  <g id="Layer_1-2" data-name="Layer 1">
    <g>
      <path class="cls-2" d="M0,2.97C.55,1.76,1.39.44,2.82.15c.97-.2,6.53-.2,7.5,0,.48.1,1.02.55,1.44.81,3.66,2.25,7.05,5.45,10.75,7.71,1.67-.14,4.13.34,5.7.04.55-.1.9-.84,1.54-1.13,2.1-.96,6.79-.87,8.38,1.06,1.71,2.07,3.02,5.73,4.6,8.02l3.01,1.61c.8-.41,1.26-1.18,2.13-1.59,7.48-3.54,10.17,8.42,13.32,12.7,1.08.48,4.69,1.55,5.12,2.57.47,5.12.31,10.25.41,15.39l5.48,9.02c1.6.65,4.75,2.66,6.38,2.32l9.81-3.63c-.2-3.08.3-6.91,3.87-7.72,1.7-.38,5.94-.65,7.76-.67,2.17-.02,4.49,1.77,4.93,3.89.22,1.05.25,4.98.08,6.05-.16,1.02-3.09,6.89-3.77,8.12-.28.5-1.06,1.63-1.65,1.63h-5.64c-.15,2.07,1.28,4.9-.31,6.56-1.42,1.48-4.96,4.84-6.56,5.95-.76.53-1.58.6-2.43.18-1.66-.82-3.98-3.43-5.69-4.57-3.61-2.41-4.97.37-8.29.7-1.12.11-2.51,0-3.59-.3-4.62-1.28-10.17-5.48-14.83-7.12-2.53-.89-5.27-.35-7.45-2.29-1.96-1.75-4.72-4.87-6.54-6.9-1.05-1.17-2.45-2.57-2.57-4.21-.08-1.02.44-1.69.43-2.66,0-.7-.51-3.3-.72-4.01-.5-1.66-2.97-3.51-2.78-5.2.2-1.71,2.35-2.33,3.57-1.13.49.48,2.43,3.36,2.75,4.02.47.98,1.46,5.82,1.48,6.95.01.86-.48,1.2-.53,1.93l8,8.43c6.74.61,12.26,4.74,18.3,7.34,1.56.67,2.64,1.31,4.44,1.01.92-.16,1.81-.91,2.7-1.19,2.6-.83,5.03-.48,7.36.87.87.51,4.64,3.87,5.07,3.75l4.48-4.14c.12-2.02-2.06-7.57.97-8.05,1.28-.2,6,.29,6.66-.11.22-1.05,3.08-5.6,3.08-6.16v-4.72c0-.16-.66-.48-.91-.48-1.4-.04-4.05.24-5.54.39-.33.03-1.32.18-1.54.31-.83.5-.22,4.46-.42,5.53-.13.71-1.06,1.16-1.64,1.44-3.67,1.78-8.32,2.81-12.09,4.53-2.47.51-6.44-2.41-8.91-3.01l-7.27-11.4-.27-14.4-4.08-1.77-6.57-11.68c-3.37-2.15-2.39,3.12-5.74,2.25-.51-.13-5.76-2.94-6.08-3.25l-5.13-8.51h-2.81c-.42.14-.56,1.39-1.68,1.6-2.5.45-6.33-.28-8.97-.03L9.33,4.21h-5.23v8.51l10.09,21.5,7.07,7.5c.61.43,1.4,0,1.21-.8-1.64-3.27-4.01-6.31-5.62-9.57-.73-1.47-2.39-5.01-2.76-6.47-.14-.56-.23-1.08-.1-1.66.18-.77,3.06-3.22,3.85-3.35.26-.04.36-.04.62,0,.46.08,4.11,2.11,4.52,2.47.45.41,2.66,3.63,2.94,4.24.53,1.15.26,2.37-.99,2.86-3,1.2-3.74-4.53-6.48-4.94.78,2,1.55,4.06,2.56,5.95,1.25,2.35,5.45,7.95,5.63,10.18.28,3.5-3.04,6.14-6.39,5.15-2.83-.84-6.77-6.85-9.24-8.81L0,13.64V2.97Z"/>
      <path class="cls-1" d="M28.86,33.17c3.28-.75,3.41,4.48.22,4.02-2.26-.33-2.27-3.55-.22-4.02"/>
    </g>
  </g>
</svg>