<?xml version="1.0" encoding="UTF-8"?>
<svg id="Layer_2" data-name="Layer 2" xmlns="http://www.w3.org/2000/svg" xmlns:xlink="http://www.w3.org/1999/xlink" viewBox="0 0 79.99 79.97">
  <defs>
    <style>
      .cls-1 {
        fill: url(#linear-gradient-2);
      }

      .cls-2 {
        fill: url(#linear-gradient-4);
      }

      .cls-3 {
        fill: url(#linear-gradient-3);
      }

      .cls-4 {
        fill: url(#linear-gradient-5);
      }

      .cls-5 {
        fill: url(#linear-gradient-6);
      }

      .cls-6 {
        fill: url(#linear-gradient);
      }
    </style>
    <linearGradient id="linear-gradient" x1="0" y1="39.98" x2="79.99" y2="39.98" gradientUnits="userSpaceOnUse">
      <stop offset="0" stop-color="#00bcff"/>
      <stop offset="1" stop-color="#155dfc"/>
    </linearGradient>
    <linearGradient id="linear-gradient-2" x1="5.9" y1="13.37" x2="20.45" y2="13.37" xlink:href="#linear-gradient"/>
    <linearGradient id="linear-gradient-3" x1="59.6" y1="61.16" x2="74.14" y2="61.16" xlink:href="#linear-gradient"/>
    <linearGradient id="linear-gradient-4" x1="35.29" y1="41.37" x2="44.68" y2="41.37" xlink:href="#linear-gradient"/>
    <linearGradient id="linear-gradient-5" x1="30.63" y1="41.28" x2="32.93" y2="41.28" xlink:href="#linear-gradient"/>
    <linearGradient id="linear-gradient-6" x1="47.03" y1="41.28" x2="49.32" y2="41.28" xlink:href="#linear-gradient"/>
  </defs>
  <g id="Layer_1-2" data-name="Layer 1">
    <g>
      <path class="cls-6" d="M65.72,50.18c-5.03.51-9.28,4.82-9.64,9.87-.31,4.24,2.75,8.72,5.31,11.86.61.75,4.99,5.63,5.52,5.54,4.32-3.92,11.09-11,10.72-17.25-.35-6.03-5.94-10.63-11.9-10.02M50.45,48.26h-2.19v3.2c0,.23.83.67,1.15.66.26-.02,1.04-.46,1.04-.66v-3.2ZM31.71,48.26h-2.19v3.2c0,.23.83.67,1.15.66.27-.02,1.04-.46,1.04-.66v-3.2ZM52.79,36.55h-25.6v8.2c0,.28,1.04,1.3,1.48,1.17h22.49c.49.2,1.63-.85,1.63-1.17v-8.2ZM52.79,34.2v-9.45c0-.56-1.52-1.43-2.11-1.33-6.87.38-14.28-.51-21.08,0-.5.04-1.09.09-1.53.34-.2.12-.88.82-.88.99v9.45h25.6ZM55.29,39.05h10.69c.55,0,2.09-.53,2.7-.74,9.71-3.38,12.06-16.36,4.17-23-1.54-1.3-5.17-3.13-7.18-3.13H26.25l-.12,2.12.2.23h39.35c.77,0,3.19.96,3.93,1.38,7.55,4.22,7.54,15.16,0,19.42-.78.44-2.95,1.38-3.77,1.38h-10.54v2.34ZM14.54,0c.77.23,1.57.32,2.34.55,4.38,1.29,7.79,4.91,9,9.3l39.49-.02c5.96.46,11.51,4.55,13.57,10.16.49,1.33.71,2.69,1.02,4.06v3.12c-.35,1.69-.67,3.36-1.38,4.95-1.87,4.2-7.65,9.27-12.44,9.27h-10.85v2.58c0,.12-.21,1.11-.26,1.3-.33,1.17-1.14,1.89-2.05,2.63-.1,2.07.35,4.54-1.6,5.9-1.65,1.15-3.85.73-4.96-.95-.29-.44-.65-1.5-.65-2v-2.58h-11.55v2.58c0,.5-.36,1.56-.65,2-1.11,1.68-3.31,2.1-4.96.95-1.94-1.35-1.5-3.83-1.6-5.9-.91-.74-1.72-1.46-2.05-2.63-.05-.19-.26-1.18-.26-1.3v-2.58h-9.13c-8.55,0-11.84,12.17-4.03,16.53,4.21,2.34,13.09.54,18.08,1.12,1.58.18,1.54,2.18,0,2.35-8.36-.65-20.52,2.96-24.25-7.3-2.44-6.74,2.57-15.04,9.88-15.04h9.45v-2.34c-6,.2-11.97-1.07-17.07,2.84C.03,45.36.82,57.14,9.09,61.92c1.28.74,4.09,1.81,5.53,1.81h39.42l-.31-2.34h-18.8c-1.44-.23-1.32-2.26.14-2.35h18.8c1.33-8.65,10.49-13.72,18.54-10.02,3,1.38,5.68,4.32,6.77,7.44.35,1,.53,2.02.78,3.05-.07.85.09,1.82,0,2.66-.57,5.31-6.62,12.76-10.53,16.25-1.19,1.06-2.28,2.23-3.91,1.09-1.55-1.09-3.87-3.67-5.15-5.15-2.16-2.51-4.11-5.26-5.49-8.28H14.92c-13.25-.87-19.86-16.85-10.61-26.71,5.61-5.98,12.86-5,20.38-5v-8.82c0-1.82,1.47-3.79,3.25-4.25,7.31,0,15.32-.68,22.6-.21.51.03,1.28.12,1.76.27,1.63.51,3,2.51,3,4.19v8.82h10.23c1.48,0,4.25-1.79,5.23-2.89,4.79-5.44,1.25-13.95-5.84-14.6l-39.17.03c-.66,1.19-1.13,2.48-1.79,3.68-1.44,2.59-3.69,5.38-5.72,7.55-.85.91-2.97,3.16-3.93,3.72-.75.44-1.55.44-2.3,0-.97-.57-3.15-2.88-4.01-3.8C2.42,22.1-3.1,13.98,2.14,5.95c.58-.88,1.57-2.57,2.73-1.5,1.13,1.04-.1,1.7-.6,2.53-2.92,4.79-2.26,8.54.53,13.16,2.14,3.54,5.22,6.78,8.28,9.53,3.48-2.99,7.32-7.07,9.35-11.23C26.56,9.99,20.4.86,11.07,2.54c-1.07.19-2.76,1.22-3.49.28-1.04-1.33.83-1.98,1.81-2.28.63-.19,1.72-.49,2.34-.55h2.81Z"/>
      <path class="cls-1" d="M16.67,9.74c-4.99-4.99-12.2,3.42-6.58,7.6,4.95,3.69,10.97-3.21,6.58-7.6M12.47,5.98c8.38-.72,11.05,10.95,3.62,14.09C5.52,24.53,1.37,6.93,12.47,5.98"/>
      <path class="cls-3" d="M70.38,57.53c-4.98-4.98-12.18,3.43-6.58,7.6,4.97,3.7,10.96-3.21,6.58-7.6M66.18,53.78c8.57-.8,11.09,11.51,3.2,14.29-10.42,3.67-14.05-13.27-3.2-14.29"/>
      <path class="cls-2" d="M36.04,40.17l7.77-.03c1.28.58,1.14,2.12-.32,2.32-1.31.18-5.69.18-7,0-1.41-.19-1.6-1.58-.45-2.29"/>
      <path class="cls-4" d="M31.35,40.17c1.97-.59,2.16,2.63.2,2.25-1.25-.25-1.13-1.97-.2-2.25"/>
      <path class="cls-5" d="M47.75,40.17c1.97-.59,2.16,2.63.2,2.25-1.25-.25-1.13-1.97-.2-2.25"/>
    </g>
  </g>
</svg>