<?xml version="1.0" encoding="UTF-8"?>
<svg id="Layer_2" data-name="Layer 2" xmlns="http://www.w3.org/2000/svg" xmlns:xlink="http://www.w3.org/1999/xlink" viewBox="0 0 77.88 45.7">
  <defs>
    <style>
      .cls-1 {
        fill: url(#linear-gradient-2);
      }

      .cls-2 {
        fill: url(#linear-gradient-4);
      }

      .cls-3 {
        fill: url(#linear-gradient-3);
      }

      .cls-4 {
        fill: url(#linear-gradient);
      }
    </style>
    <linearGradient id="linear-gradient" x1="0" y1="22.85" x2="29.76" y2="22.85" gradientUnits="userSpaceOnUse">
      <stop offset="0" stop-color="#00bcff"/>
      <stop offset="1" stop-color="#155dfc"/>
    </linearGradient>
    <linearGradient id="linear-gradient-2" x1="36.6" y1="22.85" x2="77.88" y2="22.85" xlink:href="#linear-gradient"/>
    <linearGradient id="linear-gradient-3" x1="6.87" y1="11.51" x2="22.89" y2="11.51" xlink:href="#linear-gradient"/>
    <linearGradient id="linear-gradient-4" x1="6.87" y1="34.17" x2="22.89" y2="34.17" xlink:href="#linear-gradient"/>
  </defs>
  <g id="Layer_1-2" data-name="Layer 1">
    <g>
      <path class="cls-4" d="M0,23.46v-1.22c.45-.64.6-1.25,1.44-1.53l26.18-.15c2.87.41,2.86,4.18,0,4.58H2.05c-1.09-.18-1.57-.78-2.05-1.68"/>
      <path class="cls-1" d="M72.66,24.47c1.07-1.25.75-2.93-.66-3.72-9.47-5.29-18.71-11.09-28.28-16.15-1.73-.15-2.8,1.28-2.47,2.94l2.87,13.02h11.17c2.53.36,2.61,4.02.13,4.53l-11.3.04-2.87,13.02c-.43,2.16,1.53,3.68,3.49,2.57l27.93-16.26ZM42.4.07c2-.26,3.2.23,4.91,1.1,9.13,4.64,17.94,10.91,27.06,15.68,4.27,2.45,4.75,8.39.82,11.45-9.31,5.06-18.41,11.33-27.79,16.18-2.65,1.37-4.83,1.8-7.54.19-2.69-1.6-3.63-4.37-3.14-7.37.78-4.8,2.47-9.7,3.28-14.52-.83-4.79-2.56-9.72-3.3-14.49-.6-3.83,1.67-7.69,5.7-8.21"/>
      <path class="cls-3" d="M8.48,9.19l12.58-.02c2.59.65,2.4,4.19-.31,4.53-3.62.46-8.12-.3-11.83,0-2.48-.45-2.79-3.63-.43-4.52"/>
      <path class="cls-2" d="M8.78,32.01c3.71.3,8.5-.55,12.09,0,2.6.4,2.69,3.93.18,4.51l-12.58-.02c-2.29-.85-2.08-3.93.31-4.49"/>
    </g>
  </g>
</svg>