<?xml version="1.0" encoding="UTF-8"?>
<svg id="Layer_2" data-name="Layer 2" xmlns="http://www.w3.org/2000/svg" xmlns:xlink="http://www.w3.org/1999/xlink" viewBox="0 0 73.58 89.35">
  <defs>
    <style>
      .cls-1 {
        fill: url(#linear-gradient-2);
      }

      .cls-2 {
        fill: url(#linear-gradient-3);
      }

      .cls-3 {
        fill: url(#linear-gradient);
      }
    </style>
    <linearGradient id="linear-gradient" x1="21.67" y1="32.59" x2="60.93" y2="32.59" gradientUnits="userSpaceOnUse">
      <stop offset="0" stop-color="#00bcff"/>
      <stop offset="1" stop-color="#155dfc"/>
    </linearGradient>
    <linearGradient id="linear-gradient-2" x1="0" y1="70.02" x2="71.55" y2="70.02" xlink:href="#linear-gradient"/>
    <linearGradient id="linear-gradient-3" x1="11.25" y1="21.57" x2="73.58" y2="21.57" xlink:href="#linear-gradient"/>
  </defs>
  <g id="Layer_1-2" data-name="Layer 1">
    <g>
      <path class="cls-3" d="M49.35,38.69c2.11-.76,2.16-.83,2.16-2.76,0-2.76-.02-5.51.01-8.27,0-.69-.19-1.07-.81-1.42-4.79-2.72-9.58-5.43-14.29-8.28-1.45-.88-2.58-1.08-3.81.28.25.15.52.32.81.48,4.91,2.84,9.81,5.7,14.74,8.51.87.5,1.22,1.11,1.2,2.1-.05,3.09-.02,6.18-.02,9.36M37.46,15.3c.07.13.09.21.14.24,4.94,2.86,9.87,5.71,14.82,8.56.2.11.54.18.72.08,1.2-.65,2.37-1.35,3.55-2.03-.08-.14-.09-.22-.14-.25-4.94-2.85-9.87-5.71-14.82-8.54-.21-.12-.6-.14-.81-.03-1.17.63-2.31,1.31-3.46,1.98M45.13,28.81c-.07-.15-.09-.23-.13-.25-4.93-2.86-9.86-5.71-14.8-8.55-.2-.11-.55-.17-.73-.07-1.2.65-2.36,1.34-3.58,2.05.13.15.18.24.26.28,4.9,2.84,9.8,5.67,14.72,8.49.2.11.55.18.73.09,1.2-.65,2.36-1.35,3.54-2.03M42.66,51.29c.41-.22.73-.38,1.03-.55,4.53-2.62,9.06-5.25,13.61-7.84.66-.37.93-.76.93-1.55-.04-5.27-.02-10.55-.02-15.82v-1.11c-1.14.65-2.1,1.25-3.11,1.76-.68.34-.94.77-.93,1.56.05,3.43.01,6.85.03,10.28,0,.74-.21,1.3-.88,1.67-1.49.84-2.95,1.73-4.45,2.55-1.19.65-2.17.07-2.18-1.28-.02-2.76,0-5.51,0-8.27v-1.62c-1.35.77-2.54,1.43-3.71,2.14-.17.11-.29.44-.29.67-.02,5.74-.01,11.49-.01,17.4M39.89,51.29c.03-.37.07-.56.07-.75,0-5.48.02-10.96-.03-16.44,0-.38-.37-.92-.72-1.13-4.66-2.74-9.35-5.43-14.04-8.13-.21-.12-.45-.2-.68-.3-.05.15-.09.21-.09.27,0,5.65-.02,11.3.02,16.95,0,.33.35.77.67.96,1.81,1.09,3.66,2.13,5.49,3.19,3.05,1.76,6.1,3.53,9.31,5.38M21.68,32.57c0-3.33.02-6.66-.01-9.98,0-.91.31-1.5,1.11-1.95,5.8-3.32,11.58-6.67,17.35-10.03.82-.48,1.51-.49,2.33,0,5.74,3.35,11.5,6.68,17.27,9.97.88.5,1.2,1.13,1.2,2.11-.02,6.62-.03,13.24,0,19.87,0,1-.37,1.61-1.23,2.1-5.77,3.3-11.53,6.62-17.28,9.96-.79.46-1.46.46-2.25,0-5.8-3.38-11.62-6.74-17.44-10.08-.77-.44-1.07-1-1.06-1.88.03-3.36.01-6.72.01-10.08"/>
      <path class="cls-1" d="M11,65.72c-.31.15-.54.23-.72.36-2.36,1.72-4.7,3.46-7.06,5.19-.63.46-.6.94-.16,1.54,3.25,4.4,6.49,8.81,9.72,13.22.48.65.96.73,1.6.24,2.29-1.7,4.59-3.39,6.89-5.07.65-.47.73-.95.24-1.61-3.25-4.4-6.48-8.81-9.73-13.21-.2-.27-.53-.45-.79-.67M23.13,77.21c1.49-.87,2.9-1.64,4.26-2.51,1.2-.77,2.46-1.15,3.88-1.21,6.34-.25,12.69-.53,19.03-.81,1.18-.05,2.15-.46,3.01-1.36,4.8-4.99,9.65-9.93,14.47-14.89.32-.33.73-.71.81-1.12.11-.53.13-1.26-.16-1.65-.42-.56-1.07-.24-1.61.13-2.32,1.61-4.61,3.26-6.99,4.77-2.85,1.81-5.35,4.19-8.59,5.37-.14.05-.28.19-.35.32-1.2,2.49-3.28,3.23-5.89,3.15-2.45-.07-4.9.03-7.36.03-.85,0-1.43-.37-1.51-1.28-.07-.82.49-1.35,1.46-1.43.2-.02.4,0,.6,0,2.65-.02,5.31-.05,7.96-.07,1.02,0,1.74-.48,2.16-1.37.41-.89.09-1.73-.57-2.28-.57-.48-1.38-.96-2.08-.97-5.64-.06-11.29-.02-16.93,0-5.45.03-9.69,2.72-13.65,6.25,2.68,3.64,5.32,7.23,8.03,10.93M13.36,63.97c1.9-1.32,3.66-2.68,5.54-3.84,3.1-1.91,6.5-2.8,10.16-2.79,5.18.02,10.36.06,15.53-.1,3.07-.09,5.19,1.02,6.43,3.96.51-.31,1-.57,1.46-.88,4.36-2.97,8.71-5.94,13.07-8.92,1.37-.94,3.14-.95,4.43-.05,1.25.87,1.9,2.54,1.4,4.12-.3.93-.78,1.9-1.45,2.59-5.07,5.29-10.21,10.52-15.32,15.76-1.03,1.05-2.35,1.42-3.75,1.5-5.74.29-11.48.59-17.22.77-2.19.07-4.29.18-6.06,1.68-.4.34-.91.57-1.4.78-1.05.46-1.76.98-1.76,2.39,0,.77-.73,1.75-1.41,2.29-2.34,1.86-4.78,3.6-7.21,5.34-1.78,1.28-3.81.93-5.13-.86-3.27-4.43-6.54-8.87-9.79-13.32-1.42-1.94-1.12-3.93.8-5.36,2.19-1.62,4.38-3.23,6.58-4.84,1.97-1.45,3.13-1.5,5.09-.23"/>
      <path class="cls-2" d="M16.84,10.34c1.37.23,2.58.43,3.79.63,1.04.17,1.56.73,1.46,1.57-.1.84-.76,1.26-1.81,1.1-2.59-.4-5.17-.82-7.76-1.25-1.05-.18-1.51-.89-1.16-1.9.87-2.54,1.79-5.06,2.72-7.58.31-.84,1.04-1.19,1.75-.94.76.27,1.08.99.77,1.91-.45,1.33-.95,2.64-1.53,4.25.47-.31.7-.45.91-.61,20.92-16.32,51.99-4.64,56.96,21.4.81,4.24.84,8.48.17,12.73-.17,1.09-.77,1.62-1.65,1.46-.83-.15-1.16-.78-1.02-1.87,1.86-14.41-3.19-25.78-15.39-33.66C43.57.17,27.96,1.27,17.41,9.84c-.15.12-.29.25-.57.49"/>
    </g>
  </g>
</svg>