<?xml version="1.0" encoding="UTF-8"?>
<svg id="Layer_2" data-name="Layer 2" xmlns="http://www.w3.org/2000/svg" xmlns:xlink="http://www.w3.org/1999/xlink" viewBox="0 0 79.69 79.81">
  <defs>
    <style>
      .cls-1 {
        fill: url(#linear-gradient-2);
      }

      .cls-2 {
        fill: url(#linear-gradient-4);
      }

      .cls-3 {
        fill: url(#linear-gradient-3);
      }

      .cls-4 {
        fill: url(#linear-gradient-5);
      }

      .cls-5 {
        fill: url(#linear-gradient-8);
      }

      .cls-6 {
        fill: url(#linear-gradient-7);
      }

      .cls-7 {
        fill: url(#linear-gradient-6);
      }

      .cls-8 {
        fill: url(#linear-gradient);
      }
    </style>
    <linearGradient id="linear-gradient" x1="0" y1="39.9" x2="79.69" y2="39.9" gradientUnits="userSpaceOnUse">
      <stop offset="0" stop-color="#00bcff"/>
      <stop offset="1" stop-color="#155dfc"/>
    </linearGradient>
    <linearGradient id="linear-gradient-2" x1="18" y1="21.83" x2="61.65" y2="21.83" xlink:href="#linear-gradient"/>
    <linearGradient id="linear-gradient-3" x1="52.74" y1="61.16" x2="53.94" y2="61.16" xlink:href="#linear-gradient"/>
    <linearGradient id="linear-gradient-4" x1="55.33" y1="61.17" x2="56.55" y2="61.17" xlink:href="#linear-gradient"/>
    <linearGradient id="linear-gradient-5" x1="19.29" y1="74.07" x2="20.48" y2="74.07" xlink:href="#linear-gradient"/>
    <linearGradient id="linear-gradient-6" x1="21.88" y1="74.05" x2="23.07" y2="74.05" xlink:href="#linear-gradient"/>
    <linearGradient id="linear-gradient-7" x1="44.99" y1="74.71" x2="47.55" y2="74.71" xlink:href="#linear-gradient"/>
    <linearGradient id="linear-gradient-8" x1="69.44" y1="74.71" x2="72" y2="74.71" xlink:href="#linear-gradient"/>
  </defs>
  <g id="Layer_1-2" data-name="Layer 1">
    <g>
      <path class="cls-8" d="M19.19,61.88h-2.48v3.77h2.48v-3.77ZM50.18,52.73h2.47v-3.78h-2.47v3.78ZM74.77,63.07c-.29-.77-.54-1.5-.83-2.21-.06-.14-.25-.32-.38-.32-1.36-.02-2.71-.01-4.06-.01v2.55h5.27ZM70.71,77.28c1.4,0,2.56-1.13,2.58-2.54.02-1.4-1.13-2.59-2.52-2.61-1.44-.02-2.63,1.15-2.62,2.58,0,1.41,1.16,2.56,2.56,2.57M46.3,77.28c1.4-.02,2.54-1.18,2.54-2.59,0-1.39-1.17-2.56-2.56-2.56-1.44,0-2.61,1.19-2.58,2.63.03,1.4,1.2,2.54,2.6,2.52M66.12,77.27c-.06-1.12-.66-1.31-1.6-1.29-4.04.05-8.08.02-12.13.02q-1.23,0-1.52,1.27h15.25ZM15.42,39.83h48.83v-2.48H15.42v2.48ZM64.25,32.21H15.43v2.48h48.83v-2.48ZM10.27,77.23h15.35v-15.38h-3.81v6.35h-7.75v-6.35h-3.78v15.37ZM59.09,64.36v-15.38h-3.84v6.33h-7.72v-6.35h-3.78v15.4h15.34ZM65.55,56.65v10.36h-25.66v6.33c.87.19,1.38.08,1.8-.87.87-1.96,2.54-2.95,4.69-2.91,2.11.04,3.65,1.1,4.58,3.01.13.26.23.54.34.81h14.41c.78-2.25,2.29-3.68,4.69-3.81,2.68-.15,4.4,1.29,5.4,3.91v-7.81c-2.46,0-4.84,0-7.22,0-1.27,0-1.71-.42-1.71-1.67,0-1.48,0-2.96,0-4.43,0-1.2.45-1.63,1.66-1.63,1.41,0,2.83,0,4.51,0-.56-.46-.19-1.29-1.09-1.29-2.09,0-4.18,0-6.41,0M78.44,76c-.56,0-1.05.06-1.52-.01-.96-.14-1.53.18-1.61,1.28h4.36v2.54H0v-2.49h3.81v-1.07c0-19.21,0-38.42-.02-57.63,0-1.06.35-1.65,1.31-2.11C16.33,11.13,27.54,5.71,38.75.28c.77-.38,1.41-.38,2.19,0,10.79,5.43,21.59,10.84,32.4,16.23.91.46,1.28,1.03,1.27,2.07-.03,11.07-.02,22.14-.02,33.21v.94h-2.57v-.94c0-10.75,0-21.49.01-32.24,0-.6-.18-.89-.72-1.15-10.28-5.13-20.55-10.28-30.82-15.44-.48-.24-.85-.23-1.33,0-10.73,5.19-21.46,10.37-32.2,15.53-.46.22-.6.48-.6.98.01,19.05.01,38.1.01,57.14,0,.21.02.42.03.66h1.23v-17.99h5.13v-29.64h54.04v23.09h-2.51v-10.21H15.45v16.7h12.78v18.01h13.44q-.3-1.23-1.52-1.23h-2.84v-11.57h3.81v-18.05h20.57v17.97h1.3v-10.22c.28-.02.51-.05.74-.05,3.24,0,6.49.02,9.73-.02.6,0,.82.21,1.01.73,1.23,3.34,2.49,6.67,3.73,10.01.11.3.23.61.24.92.02,3.38.01,6.77.01,10.28"/>
      <path class="cls-1" d="M59.1,19.31H20.57v5.06h38.53v-5.06ZM18,16.72h43.65v10.22H18v-10.22Z"/>
      <rect class="cls-3" x="52.74" y="60.55" width="1.19" height="1.21"/>
      <rect class="cls-2" x="55.33" y="60.59" width="1.22" height="1.16"/>
      <rect class="cls-4" x="19.29" y="73.48" width="1.2" height="1.19"/>
      <rect class="cls-7" x="21.88" y="73.46" width="1.19" height="1.19"/>
      <path class="cls-6" d="M46.23,73.43c.7-.02,1.3.54,1.32,1.24.02.7-.54,1.3-1.24,1.32-.7.02-1.3-.54-1.32-1.24-.02-.7.54-1.3,1.24-1.32"/>
      <path class="cls-5" d="M72,74.7c0,.7-.58,1.29-1.27,1.29-.7,0-1.28-.58-1.29-1.28,0-.7.57-1.29,1.27-1.29.7,0,1.28.58,1.29,1.28"/>
    </g>
  </g>
</svg>