<?xml version="1.0" encoding="UTF-8"?>
<svg id="Layer_2" data-name="Layer 2" xmlns="http://www.w3.org/2000/svg" viewBox="0 0 48 55">
  <defs>
    <style>
      .cls-1 {
        fill: #0084d1;
      }
    </style>
  </defs>
  <g id="Layer_1-2" data-name="Layer 1">
    <g>
      <path class="cls-1" d="M45.3,20.05c-1.71-3.27-4.2-6.15-7.2-8.32-.5-.36-1.2-.25-1.57.25-.36.5-.25,1.2.25,1.56,5.32,3.85,8.61,9.93,8.95,16.43h-10.78c-.06-2.75-.32-5.42-.78-7.96-.11-.61-.69-1.01-1.3-.9-.61.11-1.01.69-.9,1.3.44,2.4.69,4.94.74,7.56H15.3c.06-2.66.31-5.24.77-7.69.11-.61-.29-1.19-.9-1.3-.61-.11-1.19.29-1.31.89-.48,2.58-.75,5.29-.8,8.09H2.27c.35-6.83,3.9-13.09,9.65-16.92.52-.34.65-1.04.31-1.55-.34-.51-1.04-.65-1.55-.31C3.99,15.64,0,23.08,0,31.08c0,13.19,10.77,23.92,24,23.92s24-10.73,24-23.92c0-3.84-.93-7.65-2.7-11.03Z"/>
      <path class="cls-1" d="M22.81,26.72c.2.18.44.28.69.28.23,0,.46-.08.65-.24.32-.27,7.85-6.63,7.85-17.69,0-5-3.81-9.08-8.5-9.08s-8.5,4.07-8.5,9.08c0,10.29,7.49,17.35,7.81,17.65ZM18.32,8.91c.05-.65.62-1.13,1.27-1.08.65.05,1.13.62,1.08,1.27-.05.61.17,1.21.61,1.68.52.56,1.29.9,2.06.9,1.47,0,2.67-1.2,2.67-2.67s-1.2-2.67-2.67-2.67c-.65,0-1.18-.53-1.18-1.18s.53-1.18,1.18-1.18c2.77,0,5.02,2.26,5.02,5.03s-2.25,5.03-5.02,5.03c-1.44,0-2.81-.6-3.78-1.65-.89-.97-1.33-2.2-1.23-3.47Z"/>
    </g>
  </g>
</svg>