<?xml version="1.0" encoding="UTF-8"?>
<svg id="Layer_2" data-name="Layer 2" xmlns="http://www.w3.org/2000/svg" viewBox="0 0 48.01 56.78">
  <defs>
    <style>
      .cls-1 {
        fill: #0084d1;
      }
    </style>
  </defs>
  <g id="Layer_1-2" data-name="Layer 1">
    <g>
      <path class="cls-1" d="M25.67,42.59c.9-1.67,1.38-3.53,1.38-5.45,0-3.3-1.41-6.41-3.96-8.74s-5.95-3.62-9.56-3.62-7.01,1.29-9.56,3.62c-2.55,2.33-3.96,5.44-3.96,8.74s1.41,6.41,3.96,8.74,5.95,3.62,9.56,3.62,7.01-1.29,9.56-3.62c.47-.43.9-.88,1.29-1.36l7.65,7c.37.33.57.78.57,1.25s-.2.92-.57,1.25l-.04.04c-.75.69-1.98.69-2.74,0l-5.08-4.64c-.47-.43-1.23-.43-1.7,0-.47.43-.47,1.13,0,1.56l5.08,4.64c.85.77,1.96,1.16,3.07,1.16s2.23-.39,3.07-1.16l.04-.04c.82-.75,1.27-1.75,1.27-2.81s-.45-2.06-1.27-2.81l-8.06-7.37ZM14.12,28.82c-3.54,0-6.43,2.88-6.43,6.43,0,.67-.54,1.21-1.21,1.21s-1.21-.54-1.21-1.21c0-4.88,3.97-8.85,8.85-8.85.67,0,1.21.54,1.21,1.21s-.54,1.21-1.21,1.21Z"/>
      <path class="cls-1" d="M46.85,0H10.2c-.64,0-1.16.52-1.16,1.16v19.14c0,.64.52,1.16,1.16,1.16s1.16-.52,1.16-1.16V2.32h34.33v34.33h-16.15c-.64,0-1.16.52-1.16,1.16s.52,1.16,1.16,1.16h17.31c.64,0,1.16-.52,1.16-1.16V1.16c0-.64-.52-1.16-1.16-1.16Z"/>
      <path class="cls-1" d="M20.23,5.78h-5.11c-.62,0-1.12.5-1.12,1.12v5.11c0,.62.5,1.12,1.12,1.12h3.99v8.52c0,.62.5,1.12,1.12,1.12h9.65c.62,0,1.12-.5,1.12-1.12v-9.65c0-.62-.5-1.12-1.12-1.12h-8.52v-3.99c0-.62-.5-1.12-1.12-1.12Z"/>
      <path class="cls-1" d="M33.59,16.95v8.85h-3.44c-.63,0-1.15.52-1.15,1.16v4.66c0,.64.51,1.17,1.15,1.17h4.59c.63,0,1.15-.52,1.15-1.17v-3.49h6.97c.63,0,1.15-.52,1.15-1.16v-10.02c0-.64-.51-1.16-1.15-1.16h-.17c.73,0,1.32-.62,1.32-1.38V6.17c0-.76-.59-1.38-1.32-1.38h-9.36c-.73,0-1.32.62-1.32,1.38v8.23c0,.76.59,1.38,1.32,1.38h1.41c-.63,0-1.15.52-1.15,1.16Z"/>
    </g>
  </g>
</svg>