<?xml version="1.0" encoding="UTF-8"?>
<svg id="Layer_2" data-name="Layer 2" xmlns="http://www.w3.org/2000/svg" viewBox="0 0 48 65">
  <defs>
    <style>
      .cls-1 {
        fill: #193cb8;
      }
    </style>
  </defs>
  <g id="Layer_1-2" data-name="Layer 1">
    <g>
      <path class="cls-1" d="M1.3,65c-.72,0-1.3-.59-1.3-1.31V5.38c0-.72.58-1.31,1.3-1.31h6.56c.72,0,1.3.58,1.3,1.31s-.58,1.3-1.3,1.3H2.6v55.71h42.8V6.68h-10.84v3.78c0,.72-.58,1.31-1.3,1.31H14.75c-.72,0-1.3-.58-1.3-1.31V1.3c0-.72.58-1.3,1.3-1.3h18.51c.72,0,1.3.58,1.3,1.3v2.76h12.14c.72,0,1.3.58,1.3,1.31v58.32c0,.72-.58,1.31-1.3,1.31H1.3Z"/>
      <path class="cls-1" d="M8.81,23.22v5.38h5.39v-5.38h-5.39ZM15.59,31.42H7.4c-.77,0-1.4-.63-1.4-1.41v-8.19c0-.78.63-1.41,1.4-1.41h8.19c.77,0,1.41.63,1.41,1.41v8.19c0,.78-.63,1.41-1.41,1.41Z"/>
      <path class="cls-1" d="M20.38,27.18h18.75c.72,0,1.31-.56,1.31-1.26s-.59-1.26-1.31-1.26h-18.75c-.72,0-1.31.56-1.31,1.26s.59,1.26,1.31,1.26Z"/>
      <path class="cls-1" d="M8.81,36.19v5.39h5.39v-5.39h-5.39ZM15.59,44.39H7.4c-.77,0-1.4-.63-1.4-1.41v-8.19c0-.78.63-1.41,1.4-1.41h8.19c.77,0,1.41.63,1.41,1.41v8.19c0,.78-.63,1.41-1.41,1.41Z"/>
      <path class="cls-1" d="M20.38,40.14h18.75c.72,0,1.31-.56,1.31-1.26s-.59-1.26-1.31-1.26h-18.75c-.72,0-1.31.56-1.31,1.26s.59,1.26,1.31,1.26Z"/>
      <path class="cls-1" d="M15.27,49.2c.71,0,1.28-.58,1.28-1.28s-.57-1.28-1.28-1.28h-7.49c-.71,0-1.28.58-1.28,1.28v7.49c0,.71.57,1.28,1.28,1.28h7.49c.71,0,1.28-.58,1.28-1.28s-.57-1.28-1.28-1.28h-6.2v-4.92h6.2Z"/>
      <path class="cls-1" d="M20.38,52.92h18.75c.72,0,1.31-.56,1.31-1.26s-.59-1.26-1.31-1.26h-18.75c-.72,0-1.31.56-1.31,1.26s.59,1.26,1.31,1.26Z"/>
    </g>
  </g>
</svg>