<?xml version="1.0" encoding="UTF-8"?>
<svg id="Layer_2" data-name="Layer 2" xmlns="http://www.w3.org/2000/svg" viewBox="0 0 47.77 47.77">
  <defs>
    <style>
      .cls-1 {
        fill: #193cb8;
      }
    </style>
  </defs>
  <g id="Layer_1-2" data-name="Layer 1">
    <g>
      <path class="cls-1" d="M46.71,22.83c-.58,0-1.05.47-1.05,1.05,0,12.01-9.77,21.78-21.78,21.78S2.1,35.89,2.1,23.88,11.87,2.1,23.88,2.1c3.54,0,7.06.87,10.17,2.51.51.27,1.15.08,1.42-.44.27-.51.08-1.15-.44-1.42C31.62.95,27.77,0,23.88,0,10.71,0,0,10.71,0,23.88s10.71,23.88,23.88,23.88,23.88-10.71,23.88-23.88c0-.58-.47-1.05-1.05-1.05Z"/>
      <path class="cls-1" d="M32.48,7.94c-.6.01-1.07.5-1.05,1.08.01.58.49,1.04,1.08,1.04h.02l7.9-.17c.29,0,.56-.12.76-.33.2-.2.31-.47.3-.76l-.17-7.77c-.01-.59-.51-1.05-1.1-1.04-.6.01-1.07.5-1.05,1.08l.15,6.71-6.82.14Z"/>
      <path class="cls-1" d="M25.9,19.84l-4.23,5.49h4.23v-5.49ZM26.94,31.78c-.58,0-1.05-.45-1.05-1v-3.43h-6.3c-.4,0-.76-.21-.94-.55-.18-.34-.14-.74.09-1.05l7.35-9.55c.2-.25.51-.41.84-.41.11,0,.22.02.32.05.43.14.72.52.72.96v8.55h2.51c.58,0,1.05.45,1.05,1s-.47,1-1.05,1h-2.51v3.43c0,.55-.47,1-1.05,1Z"/>
      <path class="cls-1" d="M7.84,29.61c-.3.31-.38.76-.22,1.16.16.4.54.65.96.65h9.22c.58,0,1.05-.48,1.05-1.06s-.47-1.06-1.05-1.06h-6.72l5.51-5.69c1.41-1.46,1.82-3.55,1.05-5.47-.74-1.86-2.41-3.03-4.36-3.06h-.09c-3.12,0-5.66,2.58-5.66,5.76,0,.59.47,1.06,1.05,1.06s1.05-.48,1.05-1.06c0-2,1.6-3.63,3.57-3.63h.06c1.11.02,2.03.67,2.45,1.74.35.87.37,2.16-.6,3.17l-7.27,7.5Z"/>
      <path class="cls-1" d="M39.16,32.68c.59,0,1.06-.47,1.06-1.05v-2.03c0-2.05-1.68-3.71-3.74-3.71h-.05c-.58,0-1.13.13-1.62.36v-5.09c0-.58-.48-1.06-1.06-1.06s-1.06.47-1.06,1.06v10.46c0,.58.48,1.05,1.06,1.05s1.06-.47,1.06-1.05v-2.03c0-.88.72-1.6,1.62-1.6h.05c.89,0,1.62.72,1.62,1.6v2.03c0,.58.48,1.05,1.06,1.05Z"/>
    </g>
  </g>
</svg>