<?xml version="1.0" encoding="UTF-8"?>
<svg id="Layer_2" data-name="Layer 2" xmlns="http://www.w3.org/2000/svg" xmlns:xlink="http://www.w3.org/1999/xlink" viewBox="0 0 174.17 111.33">
  <defs>
    <style>
      .cls-1 {
        fill: url(#linear-gradient-2);
      }

      .cls-2 {
        fill: url(#linear-gradient-4);
      }

      .cls-3 {
        fill: url(#linear-gradient-3);
      }

      .cls-4 {
        fill: url(#linear-gradient);
      }
    </style>
    <linearGradient id="linear-gradient" x1="0" y1="55.67" x2="174.17" y2="55.67" gradientUnits="userSpaceOnUse">
      <stop offset="0" stop-color="#389ed8"/>
      <stop offset="1" stop-color="#20419a"/>
    </linearGradient>
    <linearGradient id="linear-gradient-2" x1="38.87" y1="39.1" x2="80.36" y2="39.1" xlink:href="#linear-gradient"/>
    <linearGradient id="linear-gradient-3" x1="129.45" y1="92.34" x2="147.19" y2="92.34" xlink:href="#linear-gradient"/>
    <linearGradient id="linear-gradient-4" x1="35.68" y1="92.31" x2="53.39" y2="92.31" xlink:href="#linear-gradient"/>
  </defs>
  <g id="Layer_1-2" data-name="Layer 1">
    <g>
      <path class="cls-4" d="M110.88,22.27h42.95c3.83,0,8.24,2.53,10.2,5.8,4.19,6.99,6.34,19.11,9.71,26.81-.63,10.97,1.15,23.54.09,34.34-.33,3.37-2.32,6.39-5.43,7.78-3.53,1.58-7.85.22-11.62.9-5.95,17.91-31.2,17.96-36.9-.11l-56.76-.06c-6.1,18.11-30.79,18.12-37.09.18-5.47-.98-13.17.85-18.37-.41-8.2-1.97-10.41-13.24-3.71-18.53,1.04-.82,3.85-1.85,4-2.61l-.02-67.14c.37-4.84,2.71-8.55,7.82-9.22h87.65c3.27.13,7.48,4.31,7.48,7.49v14.78ZM13.51,7.14v69.38h20.34c.14,0,1.62-1.13,2.13-1.35,5.7-2.41,10.47-2.62,16.25-.34.74.29,2.67,1.69,2.83,1.69h50.6V8.53c0-1.63-1.86-3.56-3.63-3.32l-86.7.28c-.32.13-1.77,1.44-1.83,1.65ZM126.53,27.83h-15.65v64.68h8.35c.47-25.54,37.58-25.53,38.25,0,4-.43,10.13,1.78,11.1-3.68l-.02-25.13c-11.07-1.96-22.51-2.06-33.43-4.65-3.48-.84-8.6-7.13-8.6-10.52v-20.69ZM155.57,27.83h-23.82v20c0,1.44,2.61,4.7,3.85,5.54,2.75,1.87,12.07,2.46,15.84,2.94,5.7.72,11.47,1.3,17.17,1.78.05-.95.02-1.86-.16-2.8-1.38-7.27-6.7-16.08-8.47-23.52-.66-1.54-2.74-3.66-4.41-3.93ZM41.94,78.7c-14.49,1.96-15.24,24.79.07,27.23,21.21,3.37,22.03-30.22-.07-27.23ZM128.39,102.13c12.07,12.07,31.42-4.68,21.09-18.13-11.97-15.58-34.87,4.36-21.09,18.13ZM28.46,81.74H10.21c-.7,0-2.94,1.13-3.49,1.72-3.15,3.36-1.03,8.64,3.48,9.08,4.78.46,10.29-.38,15.15-.02-.09-3.87,1.23-7.49,3.13-10.78ZM105.67,92.52v-10.26l-.52-.52h-44.34c1.48,3.51,3.28,6.78,2.78,10.78h42.08Z"/>
      <path class="cls-1" d="M43.32,18.87l31.57-.08c3.62.54,4.79,3.05,5.05,6.42.58,7.42.52,19.69,0,27.15-.26,3.76-1.41,6.13-5.41,6.77-9.66-.64-20.4.85-29.92.01-2.58-.23-5.06-1.98-5.38-4.7-1.16-9.6.89-21.47,0-31.32.23-1.92,2.15-3.9,4.09-4.26ZM51.41,24.01h-6.96v29.91h29.91v-29.91h-6.96v11.65c0,.9-1.73,2.67-2.68,2.88-1.22.28-9.81.25-10.9-.08-.75-.23-2.42-2.19-2.42-2.8v-11.65ZM62.2,24.01h-5.56v9.39h5.56v-9.39Z"/>
      <path class="cls-3" d="M136.53,83.57c12.71-1.85,14.36,15.95,3.3,17.55-12.16,1.77-14.12-15.98-3.3-17.55ZM137.21,88.77c-3.68.83-3.4,6.83.66,7.21,5.76.54,5.19-8.54-.66-7.21Z"/>
      <path class="cls-2" d="M42.63,83.56c14.03-2.39,14.43,19.2.65,17.61-9.94-1.14-10.11-16-.65-17.61ZM43.67,88.77c-4.41.9-3.36,7.96,1.57,7.15,4.72-.78,3.54-8.2-1.57-7.15Z"/>
    </g>
  </g>
</svg>