<?xml version="1.0" encoding="UTF-8"?>
<svg id="Layer_2" data-name="Layer 2" xmlns="http://www.w3.org/2000/svg" xmlns:xlink="http://www.w3.org/1999/xlink" viewBox="0 0 99.5 141.47">
  <defs>
    <style>
      .cls-1 {
        fill: url(#linear-gradient-2);
      }

      .cls-2 {
        fill: url(#linear-gradient-10);
      }

      .cls-3 {
        fill: url(#linear-gradient-4);
      }

      .cls-4 {
        fill: url(#linear-gradient-3);
      }

      .cls-5 {
        fill: url(#linear-gradient-5);
      }

      .cls-6 {
        fill: url(#linear-gradient-8);
      }

      .cls-7 {
        fill: url(#linear-gradient-7);
      }

      .cls-8 {
        fill: url(#linear-gradient-9);
      }

      .cls-9 {
        fill: url(#linear-gradient-6);
      }

      .cls-10 {
        fill: url(#linear-gradient);
      }
    </style>
    <linearGradient id="linear-gradient" x1="0" y1="70.73" x2="99.5" y2="70.73" gradientUnits="userSpaceOnUse">
      <stop offset="0" stop-color="#389ed8"/>
      <stop offset="1" stop-color="#20419a"/>
    </linearGradient>
    <linearGradient id="linear-gradient-2" x1="36.72" y1="72.27" x2="79.36" y2="72.27" xlink:href="#linear-gradient"/>
    <linearGradient id="linear-gradient-3" x1="36.75" y1="91.24" x2="79.33" y2="91.24" xlink:href="#linear-gradient"/>
    <linearGradient id="linear-gradient-4" x1="36.74" y1="51.87" x2="79.31" y2="51.87" xlink:href="#linear-gradient"/>
    <linearGradient id="linear-gradient-5" x1="36.71" y1="112.14" x2="79.31" y2="112.14" xlink:href="#linear-gradient"/>
    <linearGradient id="linear-gradient-6" x1="18.88" y1="111.88" x2="30.29" y2="111.88" xlink:href="#linear-gradient"/>
    <linearGradient id="linear-gradient-7" x1="18.75" y1="91.17" x2="29.94" y2="91.17" xlink:href="#linear-gradient"/>
    <linearGradient id="linear-gradient-8" x1="18.72" y1="72.3" x2="29.99" y2="72.3" xlink:href="#linear-gradient"/>
    <linearGradient id="linear-gradient-9" x1="18.69" y1="51.56" x2="29.92" y2="51.56" xlink:href="#linear-gradient"/>
    <linearGradient id="linear-gradient-10" x1="42.16" y1="17.31" x2="56.98" y2="17.31" xlink:href="#linear-gradient"/>
  </defs>
  <g id="Layer_1-2" data-name="Layer 1">
    <g>
      <path class="cls-10" d="M62.5,10.09h8.13c.26,0,1.65.94,1.84,1.35.47,1.01.15,2.35.23,3.43h12.6c6.46,0,13.98,8.07,14.19,14.51l.02,97.27c-.59,7.57-6.43,13.64-13.89,14.81H13.87c-7.24-1.12-12.96-6.9-13.84-14.23l-.03-97.86c.75-5.94,4.73-11.43,10.43-13.49,4.96-1.79,10.53-.76,15.72-1.03-.28-1.54.42-4.79,2.39-4.79h8.13V1.95c0-.61,1.6-1.95,2.38-1.76,6.69.47,14.16-.6,20.75,0,.91.08,2.7.72,2.7,1.77v8.13ZM67.92,15.19h-8.45c-.19,0-1.25-.85-1.44-1.11-.94-1.3-.69-5-.65-6.72.01-.5.66-2.38-.14-2.38h-15.79v8.45c0,.56-1.53,1.75-2.07,1.75h-8.13v4.94c0,2.72,4.01,6.34,6.61,6.78,6.73,1.14,16.16-.67,23.18.05,5.57-1.25,7.47-6.54,6.88-11.77ZM72.72,19.67c-.67,6.99-6.04,11.86-12.93,12.42-5.47.45-14.94.44-20.42.02-6.96-.54-12.03-5.24-13.05-12.14-.15-.25-.4-.26-.65-.31-1.58-.31-7.1-.14-8.94-.01-6.8.47-11.41,4.33-11.96,11.32v94.73c.34,4.87,3.57,9.14,8.24,10.58,24.38.69,49.1.69,73.48,0,4.67-1.44,7.9-5.71,8.24-10.58l-.05-95.64c-1.68-11.61-12.82-10.69-21.95-10.39Z"/>
      <path class="cls-1" d="M39.13,69.79l37.24-.08c3.86.44,4.01,4.37.33,5.11h-37.33c-3.32-.55-3.65-4.24-.24-5.03Z"/>
      <path class="cls-4" d="M38.49,88.92l38.52-.08c3.09.26,3.09,4.54,0,4.8h-37.96c-2.77-.03-3.13-4.15-.56-4.72Z"/>
      <path class="cls-3" d="M78.67,53.37c-.47.47-1.62.68-2.29.74-11.85,1.08-25.31-.84-37.33-.01-2.82-.16-3.21-4.43-.33-4.81h38.62c1.9.17,2.59,2.8,1.33,4.07Z"/>
      <path class="cls-5" d="M78.67,113.64c-.47.47-1.62.68-2.29.74-11.75,1.07-25.1-.84-37.02,0-3.05-.16-3.76-4.04-.65-4.81h38.62c1.9.17,2.59,2.8,1.33,4.07Z"/>
      <path class="cls-9" d="M23.91,110.86c.37-1.23,1.98-3.96,3.18-4.33,1.47-.45,3.28,1.08,3.19,2.55-.03.54-3.63,6.69-4.19,7.31-.77.87-2.04,1.19-3.14.68-.23-.1-3.14-2.7-3.36-3.01-.82-1.14-1.05-2.14-.1-3.32,1.74-2.16,4.1.35,4.41.11Z"/>
      <path class="cls-7" d="M27.31,85.76c1.69-.09,3.04,1.8,2.52,3.43-.16.49-3.98,6.62-4.3,6.87-.71.57-1.81.65-2.67.39-.34-.1-3.47-2.89-3.69-3.32-1.61-3.13,1.77-5.17,4.25-2.99,1.21-1.28,1.8-4.25,3.89-4.37Z"/>
      <path class="cls-6" d="M23.59,71.31c.55-1.22,1.72-3.69,2.96-4.22,1.65-.71,3.45.4,3.44,2.15,0,1.02-4.07,7.83-4.88,8.21-.9.42-1.74.32-2.6-.12-.42-.22-3.54-3.35-3.64-3.69-.64-2.11.79-3.69,2.95-3.28.86.16.97,1.05,1.76.95Z"/>
      <path class="cls-8" d="M27.02,46.17c1.81-.32,3.29,1.29,2.81,3.15-.16.62-3.52,6.35-3.99,6.86-.77.82-1.84.99-2.89.65-.26-.08-3.45-2.78-3.64-3.05-2.04-2.78,1.53-5.69,4.12-3.18.62-.14,1.73-4.08,3.6-4.42Z"/>
      <path class="cls-2" d="M54.73,12.11c7.33,7.33-5.1,17.74-11.05,9.61-5.41-7.39,4.8-15.86,11.05-9.61ZM49.02,14.93c-2.85.58-2.28,5.42,1.13,4.66,2.92-.65,2.01-5.3-1.13-4.66Z"/>
    </g>
  </g>
</svg>