<?xml version="1.0" encoding="UTF-8"?>
<svg id="Layer_2" data-name="Layer 2" xmlns="http://www.w3.org/2000/svg" xmlns:xlink="http://www.w3.org/1999/xlink" viewBox="0 0 312.06 139.76">
  <defs>
    <style>
      .cls-1 {
        fill: #1c1a1f;
      }

      .cls-2 {
        fill: #2f2a32;
      }

      .cls-3 {
        fill: #4d2e2e;
      }

      .cls-4 {
        fill: #4d4d4d;
      }

      .cls-5 {
        fill: #fff;
      }

      .cls-6 {
        fill: #edf2f4;
      }

      .cls-7 {
        fill: #fa704e;
      }

      .cls-8 {
        fill: none;
      }

      .cls-9 {
        clip-path: url(#clippath-1);
      }

      .cls-10 {
        fill: #3d414a;
      }

      .cls-11 {
        fill: #e3a781;
      }

      .cls-12 {
        fill: #f0c7ad;
      }

      .cls-13 {
        fill: #1a1a1a;
      }

      .cls-14 {
        fill: #8990a6;
      }

      .cls-15 {
        fill: #b39687;
      }

      .cls-16 {
        fill: #c98360;
      }

      .cls-17 {
        fill: #bbc5d1;
      }

      .cls-18 {
        fill: #28282e;
      }

      .cls-19 {
        fill: #e1e9ed;
      }

      .cls-20 {
        fill: #989fb8;
      }

      .cls-21 {
        fill: #45363f;
      }

      .cls-22 {
        fill: #c1cbd8;
      }

      .cls-23 {
        clip-path: url(#clippath);
      }

      .cls-24 {
        fill: #e6534c;
      }

      .cls-25 {
        fill: #707070;
      }
    </style>
    <clipPath id="clippath">
      <rect class="cls-8" x="13.39" y="6.11" width="135.97" height="115.34"/>
    </clipPath>
    <clipPath id="clippath-1">
      <rect class="cls-8" x="176.09" width="135.97" height="121.44"/>
    </clipPath>
  </defs>
  <g id="Layer_1-2" data-name="Layer 1">
    <g id="call_center_character" data-name="call center character">
      <g id="woman">
        <g class="cls-23">
          <g>
            <path class="cls-2" d="M136.75,104.77c-.28-.97-25.4-30.61-29.05-34.92-.45-.53-1.01-1.1-1.61-1.47-.41-.25-2.77-.55-2.96-.13-2.07,4.6-1.74,21.09.29,25.62,2.28,5.07,18.53,19.12,19.36,19,4.42-.61,15.15-4.29,13.97-8.1Z"/>
            <path class="cls-24" d="M65.79,73.22v-40.45c0-6.21,5.08-11.29,11.29-11.29h12.78c6.21,0,11.29,5.08,11.29,11.29v40.45c0,6.21-35.36,6.21-35.36,0Z"/>
            <g>
              <path class="cls-12" d="M96.35,69.26c0,4.33-8.03,21.47-12.29,21.47s-11.91-17.14-11.91-21.47,5.42-3.56,12.1-3.56,12.1-.77,12.1,3.56Z"/>
              <path class="cls-12" d="M84.29,77.44h0c-4.52,0-9.89-3.38-9.89-8.21l3.79-14.26c0-4.79,12.21-4.79,12.21,0l3.79,14.26c0,4.83-5.38,8.21-9.89,8.21Z"/>
              <path class="cls-16" d="M78.54,62.48c5.75,1.93,9.11,1.75,13.12-2.72l-1.27-4.79c0-4.79-12.21-4.79-12.21,0l-2.91,10.96c.87-2.19,1.06-4.19,3.27-3.45Z"/>
            </g>
            <path class="cls-19" d="M68.09,122.09c.15.81-5.3,11.12-5.1,11.93,0,0,15.76,2.39,21.36,2.39s21.23-2.39,21.23-2.39c.21-.81-5.25-11.12-5.09-11.94,0,0,1.88-17.68,2.38-20.67.53-3.18,4.58-12.21,2.87-21.04,0,0,1.08-7.63.58-11.11-3.89-4.2-8.5-5.28-13.91-7.04l.75,7.25c-1.09,5.09-8.69,10.98-8.69,10.98,0,0-7.78-6.13-8.94-11.29l.68-6.95c-5.41,1.76-10.02,2.84-13.91,7.04-.5,3.48.58,11.11.58,11.11-1.74,7.36,2.34,17.86,2.87,21.04.5,2.99,2.38,20.67,2.38,20.67Z"/>
            <g>
              <g>
                <path class="cls-12" d="M96.04,50.34c1.48-.49,2.98-.98,4.29-1.82,1.31-.84,2.45-2.06,2.89-3.55.44-1.5.06-3.28-1.15-4.26-1.21-.98-3.05-.68-4.15.42-.53.53-2.79,9.51-1.88,9.21Z"/>
                <path class="cls-12" d="M71.96,50.34c-1.48-.49-2.98-.98-4.29-1.82-1.31-.84-2.45-2.06-2.89-3.55-.44-1.5-.06-3.28,1.15-4.26,1.21-.98,3.05-.68,4.15.42.53.53,2.79,9.51,1.88,9.21Z"/>
              </g>
              <g>
                <path class="cls-12" d="M85.47,18.21c-.26-.01-2.69-.01-2.94,0-7.84.38-15.23,1.7-14.09,13.98,0,0,1.23,14.1,1.91,16.83.35,1.38,1.26,2.69,2.07,3.85,1.22,1.75,2.64,3.4,4.25,4.81,1.97,1.74,4.32,3.24,6.99,3.24,2.48,0,4.34-.72,6.2-2.05,1.84-1.33,3.44-3,4.83-4.79,1.06-1.36,2.12-2.85,2.76-4.47.08-.19.15-.39.2-.59.68-2.73,1.91-16.83,1.91-16.83,1.15-12.28-6.25-13.6-14.09-13.98Z"/>
                <path class="cls-11" d="M84,60.29c-5.72-.24-10.42-5.62-12.09-10.87-.6-1.79-1.08-5.28-.72-7.04.56-2.83,5.94-9.47,9.35-12.11,3.41-2.64,7-3.74,10.94-4.03,2.5-.18,3.57,7.19,8.08,5.96,0-.01,0-.02,0-.02,1.15-12.28-6.25-13.6-14.09-13.98-.26-.01-2.69-.01-2.94,0-7.84.38-15.23,1.7-14.09,13.98,0,0,1.23,14.1,1.91,16.83.35,1.38,1.26,2.69,2.07,3.85,1.22,1.75,2.64,3.4,4.25,4.81,1.97,1.74,4.32,3.24,6.99,3.24,2.48,0,4.34-.72,6.2-2.05.82-.59,1.58-1.24,2.31-1.94-3.72,2.83-7.32,3.49-8.16,3.37Z"/>
              </g>
            </g>
            <g>
              <path class="cls-7" d="M84.18,39.16s-1.64,5.21-1.34,6.12c.52,1.57,3.07,1.06,3.07,1.06,0,0-1.74-.61-1.74-1.74v-5.44Z"/>
              <path class="cls-24" d="M74.26,35.44s.05-.05.08-.08c1.51-1.36,3.23-1.83,4.97-1.33.15.04.31.1.44.31.25.4.29.86.28,1.52-2.03-.97-4.08-.88-5.97.28-.06-.22-.04-.24.02-.42.05-.13.11-.22.18-.29Z"/>
              <path class="cls-24" d="M94.23,35.44s-.05-.05-.08-.08c-1.51-1.36-3.23-1.83-4.97-1.33-.15.04-.31.1-.44.31-.25.4-.29.86-.28,1.52,2.03-.97,4.08-.88,5.97.28.06-.22.04-.24-.02-.42-.05-.13-.11-.22-.18-.29Z"/>
              <g>
                <path class="cls-21" d="M79.03,39.1c0-.92-.67-1.67-1.49-1.67s-1.49.75-1.49,1.67v1.76c0,.92.73,1.24,1.49,1.24s1.49-.32,1.49-1.24v-1.76Z"/>
                <path class="cls-5" d="M78.5,39.03c0,.07-.06.13-.13.13s-.13-.06-.13-.13.06-.13.13-.13.13.06.13.13Z"/>
              </g>
              <g>
                <path class="cls-21" d="M92.65,39.1c0-.92-.67-1.67-1.49-1.67s-1.49.75-1.49,1.67v1.76c0,.92.73,1.24,1.49,1.24s1.49-.32,1.49-1.24v-1.76Z"/>
                <path class="cls-5" d="M92.11,39.03c0,.07-.06.13-.13.13s-.13-.06-.13-.13.06-.13.13-.13.13.06.13.13Z"/>
              </g>
              <path class="cls-5" d="M78.41,46.42s3.73.66,5.99.55c2.26-.1,6.24-.55,6.24-.55.4,0-1.81,5.88-6.06,5.93-4.23.05-6.44-5.93-6.18-5.93Z"/>
            </g>
            <path class="cls-24" d="M66.16,40.42s1.98,1.47,4.4.11c1.48-.83,2.68-2.05,3.65-3.44,1.72-2.46,3.27-5.07,5.27-7.31,2-2.24,4.56-4.13,7.52-4.67,2.34-.42,4.94.17,6.7,1.72.39,1.97.78,3.94,1.18,5.92.31,1.55,1.32,4.54,2.25,5.82.93,1.28,2.54,2.11,4.03,1.56,0,0,3.25-19.3-7.17-20.48,0,0-1.61-2.68-6.39-4.26-6.27-2.08-19.99-1.34-22.15,10.56-1.62,8.94.72,14.47.72,14.47Z"/>
            <path class="cls-2" d="M32.01,103.55c.28-.97,25.4-30.61,29.05-34.92.45-.53,1.01-1.1,1.61-1.47.41-.25,2.77-.55,2.96-.13,2.07,4.6,1.74,21.09-.29,25.62-2.28,5.07-18.53,19.12-19.36,19-4.42-.61-15.15-4.29-13.97-8.1Z"/>
            <path class="cls-2" d="M58.54,137.2l21.88,2.53c1.13.13,2.19-.57,2.51-1.67l1.36-4.68,1.48,4.74c.33,1.07,1.38,1.75,2.49,1.62l21.78-2.54c.2-.66-7.58-15.76-7.58-23.74,0-1.63.35-6.2,2.03-11.77,1.18-3.92,4.1-8.32,4.41-12.53.24-3.23-1.38-6.34-2.18-9.01,0,0,.34-7.72-.16-11.24-3.94-4.25-8.75-4.93-14.16-6.69l.75,7.25c-1.09,5.09-5.99,41.84-9.32,41.84s-7.16-37-8.32-42.15l.68-6.95c-5.41,1.76-10.23,2.44-14.16,6.69-.51,3.52-.16,11.24-.16,11.24-.78,2.75-2.41,5.87-2.17,9.08.31,4.27,3.23,8.71,4.43,12.66,1.74,5.72,2.23,10.42,2.23,12.08,0,8.93-8.01,22.55-7.8,23.22Z"/>
            <g>
              <path class="cls-1" d="M68.02,111.65c-.18-1.42-.86-5.23.77-5.49,4.75-.78,7.72-.61,12.52-.61-.35-1.44-.69-3.09-1.03-4.88-7.42-1.03-16.2-1.03-18.9-8.45-.96-3.01.04-7.64.63-10.84,0-.65-.16-1.23-.16-1.23-.78,2.75-2.41,5.87-2.17,9.08.31,4.27,3.23,8.71,4.43,12.66,1.74,5.72,2.23,10.42,2.23,12.08,0,8.93-8.01,22.55-7.8,23.22l3.93.46c.11-3.53.94-6.93,1.95-10.42,1.51-5.34,4.36-9.49,3.59-15.59Z"/>
              <path class="cls-1" d="M101.76,116.31c.92,6.08,3.5,12.94,7.85,20.95l.43-.05c.2-.66-7.58-15.76-7.58-23.74,0-1.63.35-6.2,2.03-11.77,1.18-3.92,4.1-8.32,4.41-12.53.17-2.32-.62-4.58-1.37-6.66.38,4.44,1.45,10.07-2,14.04-4.34,5.06-11.43,3.66-17.74,3.62-.42,1.96-.84,3.78-1.26,5.34,4.12.19,9.89-.21,13.64,1.78,2.47,1.37.67,2.93,1.59,9.02Z"/>
            </g>
            <g>
              <path class="cls-6" d="M85.46,79.67c2.56-1.7,5.54-3.54,8.48-2.6,2.29.74,1.57,2.93,2.63,4.98-.64-4.84.82-9.67.05-14.51-.21-1.32-.43-2.68-1.11-3.84-.68-1.15-1.94-2.07-3.27-1.95,0,0,.72,6.57.28,7.98-.44,1.41-7.94,10.52-7.05,9.93Z"/>
              <path class="cls-6" d="M83.24,79.49c-2.56-1.7-5.66-3.54-8.59-2.59-2.29.74-1.57,2.93-2.63,4.98.64-4.84-.82-9.67-.05-14.51.21-1.32.43-2.68,1.11-3.84.68-1.15,1.94-2.07,3.27-1.95,0,0-.72,6.57-.28,7.98.44,1.41,8.05,10.52,7.16,9.93Z"/>
            </g>
            <path class="cls-12" d="M125.04,101.91c7.62-.94,11.47,2.06,11.74,4.13.34,2.68-3.94,7.15-6.03,7.4-4.19.51-34.93,4.58-34.93,4.58-.36-.52-.64-1.09-.84-1.7-.54-1.67.13-2.99.13-2.99,9.39-3.53,22.62-8.74,29.94-11.43Z"/>
            <g>
              <path class="cls-13" d="M101.95,36.49s-.1-1.83-.82-4.24c-.66-2.2-2-5.38-4.61-7.99l1.09-1.09c2.85,2.85,4.3,6.29,5.01,8.68.77,2.58.87,4.48.87,4.56l-1.53.07Z"/>
              <g>
                <path class="cls-13" d="M101.72,41.97c0,4.21.08,7.6-1.36,7.6s-1.62-3.42-1.62-7.63.18-7.63,1.62-7.63,1.36,3.45,1.36,7.66Z"/>
                <g>
                  <path class="cls-25" d="M103.26,36.37h.17c.45,0,.82.37.82.82v10.38c0,.45-.37.82-.82.82h-.17v-12.01h0Z"/>
                  <rect class="cls-4" x="101.14" y="36.13" width="2.68" height="12.61"/>
                </g>
              </g>
              <path class="cls-13" d="M65.79,36.49s.1-1.83.82-4.24c.66-2.2,2-5.38,4.61-7.99l-1.09-1.09c-2.85,2.85-4.3,6.29-5.01,8.68-.77,2.58-.87,4.48-.87,4.56l1.53.07Z"/>
              <g>
                <g>
                  <path class="cls-13" d="M77.26,54.18h0l-4.09-.02s-.05,0-.07,0c-2.64,0-3.84-.54-4.59-1.01-1.71-1.07-2.67-3.21-2.33-5.21.02-.11.13-.19.24-.17.11.02.19.13.17.24-.31,1.83.56,3.79,2.14,4.78,1.34.84,2.99.95,4.43.94l4.09.02c.12,0,.21.1.21.21,0,.12-.09.21-.21.21Z"/>
                  <ellipse class="cls-13" cx="76.76" cy="54.03" rx="1.97" ry="1.2"/>
                </g>
                <path class="cls-13" d="M66.27,41.97c0,4.21-.08,7.6,1.36,7.6s1.62-3.42,1.62-7.63-.18-7.63-1.62-7.63-1.36,3.45-1.36,7.66Z"/>
                <g>
                  <path class="cls-25" d="M63.75,36.37h.17c.45,0,.82.37.82.82v10.38c0,.45-.37.82-.82.82h-.17v-12.01h0Z" transform="translate(128.49 84.74) rotate(-180)"/>
                  <rect class="cls-4" x="64.17" y="36.13" width="2.68" height="12.61" transform="translate(131.03 84.87) rotate(180)"/>
                </g>
              </g>
              <path class="cls-18" d="M99.57,25.22c-3.46-4.94-9.19-8.17-15.68-8.17s-12.27,3.26-15.72,8.23l2.18.9c.83-1.12,1.8-2.15,2.9-3.04,1.47-1.2,3.12-2.14,4.9-2.79,1.84-.67,3.77-1.01,5.75-1.01s3.91.34,5.75,1.01c1.78.65,3.42,1.58,4.9,2.79,1.08.88,2.03,1.89,2.86,2.99l2.18-.9Z"/>
            </g>
            <g>
              <path class="cls-11" d="M93.14,115.58s1.16-.99,1.68-2.16c0,0,.69-3.7.94-3.68.48.04,7.93,4.5,7.71,5.37-.22.87-8.57,2.85-10.33.47Z"/>
              <path class="cls-11" d="M96.55,113.41c-1.39.19-2.83.64-3.37,1.76-.45.93-.27,2.07.41,2.91,1.31.92,3.22,1.18,4.73.59,1.14.6,2.6.71,3.81.29.53-.18,1.02-.47,1.32-.89.3-.42.36-.98.07-1.41-.24-.36-2.42-3.86-6.99-3.24Z"/>
              <path class="cls-11" d="M94.68,113.95s-1.57.81-2.54,1.04c-.97.23-3.08.32-3.73.27-.65-.05-1.49,1.86,1.32,2.49,2.81.63,3.68-.29,5.39.26,1.71.55.91-3.96-.44-4.06Z"/>
              <g>
                <path class="cls-12" d="M98.37,111.5s.06,2.57.03,2.89c-.02.32-.29,2.1-.36,2.99-.07.89,1.35,1.58,2.11-.67.52-1.69.64-2.11.7-2.85.06-.74.1-2.95-.36-3.48-.46-.54-2.31-.64-2.12,1.12Z"/>
                <path class="cls-12" d="M100.62,113.52s-.05,2.3-.08,2.58c-.04.28-.38,1.85-.48,2.64-.11.79,1.29,1.5,2.13-.47.59-1.47.73-1.84.81-2.5.09-.65.22-2.62-.22-3.13-.44-.51-2.27-.71-2.16.86Z"/>
                <path class="cls-12" d="M102.59,114.75s0,1.88-.04,2.12c-.03.23-.32,1.51-.41,2.16-.09.65,1.24,1.25,2-.35.53-1.2.65-1.5.72-2.04.07-.54.16-2.15-.25-2.57s-2.15-.62-2.02.67Z"/>
                <path class="cls-12" d="M95.52,109.71s.04,2.7.01,3.03c-.03.34-.45,2.06-.52,3s1.72,2,2.51-.38c.55-1.78.68-2.23.74-3.01.06-.78.11-3.12-.38-3.68-.48-.57-2.56-.82-2.37,1.04Z"/>
              </g>
            </g>
            <path class="cls-12" d="M43.68,101.23c-7.62-.94-11.47,2.06-11.74,4.13-.34,2.68,3.94,7.15,6.03,7.4,4.19.51,34.93,4.58,34.93,4.58.36-.52.64-1.09.84-1.7.54-1.67-.13-2.99-.13-2.99-9.39-3.53-22.62-8.74-29.94-11.43Z"/>
            <g>
              <path class="cls-11" d="M75.57,114.9s-1.16-.99-1.68-2.16c0,0-.69-3.7-.94-3.68-.48.04-7.93,4.5-7.71,5.37.22.87,8.57,2.85,10.33.47Z"/>
              <path class="cls-11" d="M72.17,112.73c1.39.19,2.83.64,3.37,1.76.45.93.27,2.07-.41,2.91-1.31.92-3.22,1.18-4.73.59-1.14.6-2.6.71-3.81.29-.53-.18-1.02-.47-1.32-.89-.3-.42-.36-.98-.07-1.41.24-.36,2.42-3.86,6.99-3.24Z"/>
              <path class="cls-11" d="M74.03,113.27s1.57.81,2.54,1.04c.97.23,3.08.32,3.73.27.65-.05,1.49,1.86-1.32,2.49-2.81.63-3.68-.29-5.39.26s-.91-3.96.44-4.06Z"/>
              <g>
                <path class="cls-12" d="M70.35,110.82s-.06,2.57-.03,2.89c.02.32.29,2.1.36,2.99.07.89-1.35,1.58-2.11-.67-.52-1.69-.64-2.11-.7-2.85-.06-.74-.1-2.95.36-3.48.46-.54,2.31-.64,2.12,1.12Z"/>
                <path class="cls-12" d="M68.09,112.84s.05,2.3.08,2.58c.04.28.38,1.85.48,2.64.11.79-1.29,1.5-2.13-.47-.59-1.47-.73-1.84-.81-2.5-.09-.65-.22-2.62.22-3.13.44-.51,2.27-.71,2.16.86Z"/>
                <path class="cls-12" d="M66.12,114.07s0,1.88.04,2.12c.03.23.32,1.51.41,2.16s-1.24,1.25-2-.35c-.53-1.2-.65-1.5-.72-2.04-.07-.54-.16-2.15.25-2.57.42-.42,2.15-.62,2.02.67Z"/>
                <path class="cls-12" d="M73.2,109.03s-.04,2.7-.01,3.03c.03.34.45,2.06.52,3,.07.95-1.72,2-2.51-.38-.55-1.78-.68-2.23-.74-3.01-.06-.78-.11-3.12.38-3.68.48-.57,2.56-.82,2.37,1.04Z"/>
              </g>
            </g>
          </g>
          <g id="LAPTOP">
            <g>
              <path class="cls-17" d="M29.16,78.51h50.46c1.43,0,2.87,1.17,3.2,2.61l8.11,35.7c.33,1.43-.58,2.61-2.01,2.61h-50.46c-1.43,0-2.87-1.17-3.2-2.61l-8.11-35.7c-.33-1.43.58-2.61,2.01-2.61Z"/>
              <path class="cls-15" d="M27.75,78.51h50.46c1.43,0,2.87,1.17,3.2,2.61l8.11,35.7c.33,1.43-.58,2.61-2.01,2.61h-50.46c-1.43,0-2.87-1.17-3.2-2.61l-8.11-35.7c-.33-1.43.58-2.61,2.01-2.61Z"/>
              <path class="cls-20" d="M27.75,78.51h50.46c1.43,0,2.87,1.17,3.2,2.61l8.11,35.7c.33,1.43-.58,2.61-2.01,2.61h-50.46c-1.43,0-2.87-1.17-3.2-2.61l-8.11-35.7c-.33-1.43.58-2.61,2.01-2.61Z"/>
              <path class="cls-14" d="M41.11,112.47l-13.04-24.27,6.47,28.46c.25,1.12,1.4,2.06,2.51,2.06h50.46c.24,0,.46-.05.66-.14-14.75-1.04-47.05-6.11-47.05-6.11Z"/>
              <polygon class="cls-22" points="50.13 79.22 40.11 79.22 77.73 103.16 50.13 79.22"/>
              <path class="cls-22" d="M80.72,81.27c-.25-1.12-1.4-2.06-2.51-2.06h-19.11l25.19,17.8-3.58-15.74Z"/>
            </g>
            <g>
              <path class="cls-17" d="M106.46,121.44H36.45c-.55,0-1.01-.45-1.01-1.01h0c0-.55.45-1.01,1.01-1.01h70.01c.55,0,1.01.45,1.01,1.01h0c0,.55-.45,1.01-1.01,1.01Z"/>
              <path class="cls-10" d="M91.52,121.44h-55.07c-.55,0-1.01-.45-1.01-1.01h0c0-.55.45-1.01,1.01-1.01h55.07c.55,0,1.01.45,1.01,1.01h0c0,.55-.45,1.01-1.01,1.01Z"/>
            </g>
          </g>
        </g>
      </g>
      <g id="man">
        <g class="cls-9">
          <g>
            <g>
              <path class="cls-12" d="M259.77,59.22c0,4.18-7.76,20.74-11.88,20.74s-11.51-16.56-11.51-20.74,5.24-3.44,11.69-3.44,11.69-.74,11.69,3.44Z"/>
              <path class="cls-12" d="M248.12,67.14h0c-4.36,0-9.56-3.27-9.56-7.93l3.66-13.78c0-4.63,11.8-4.63,11.8,0l3.66,13.78c0,4.66-5.2,7.93-9.56,7.93Z"/>
              <path class="cls-16" d="M242.57,52.68c5.55,1.86,8.8,1.69,12.68-2.63l-1.23-4.63c0-4.63-11.8-4.63-11.8,0l-2.81,10.59c.84-2.11,1.03-4.04,3.16-3.33Z"/>
            </g>
            <path class="cls-19" d="M273.52,91.78c2.24-7.34,4.14-14.77,5.72-22.28.29-1.37-.33-2.77-1.55-3.47-6.65-3.82-16.02-8.91-21.71-12.9,0,0,2.03,6.86-.6,9.93-2.91,3.4-5,4.98-7.34,5.49-2.33-.51-4.43-2.09-7.34-5.49-2.63-3.07-.6-9.93-.6-9.93-5.69,3.99-15.07,9.08-21.71,12.9-1.21.7-1.83,2.1-1.55,3.47,1.57,7.51,3.48,14.94,5.72,22.28-.71,9.7.76,20.73.05,30.43-.16,2.2-2.2,10.39-1.07,11.26,1.45,1.11,6.07,3.28,7.89,3.54h37.23c1.81-.26,7.33-2.13,7.71-4.49.38-2.35-1.3-8.24-1.46-10.44-.71-9.7,1.32-20.6.61-30.3Z"/>
            <g>
              <path class="cls-6" d="M249.25,69.28c2.48-1.65,3.77-1.32,3.77-1.32,0,0,2.1,3.61,3.12,5.58,1.54-4.26,4.64-11.31,3.89-15.99-.2-1.28-4.24-5.59-4.24-5.59,0,0,.69,6.35.27,7.71-.42,1.36-7.67,10.17-6.81,9.6Z"/>
              <path class="cls-6" d="M247.11,69.11c-2.48-1.65-4.15-1.64-4.15-1.64l-3.25,4.76s-4.23-10.17-3.48-14.84c.2-1.28,4.15-5.43,4.15-5.43,0,0-.6,6.19-.17,7.55.42,1.36,7.78,10.16,6.92,9.59Z"/>
            </g>
            <path class="cls-24" d="M240.1,122.36l8.02,10.26,8.02-10.26-5.43-48.04,1.61-5.26-.54-1.34s-2.34-.4-3.66-.4-3.63.32-3.63.32l-.57,1.41,1.61,5.26-5.43,48.04Z"/>
            <path class="cls-2" d="M290.1,113.24c-1.19-1.74-10.23-19.79-13.03-23.99-2.8-4.2-4.94-7.77-6.01-10.46-1.73-4.32,1.59-14.68,4.67-15.63,3.08-.95,10.03,7.62,11.83,10.87,2.22,3.99,12.7,22.04,16.89,30.86,3.17,6.7-8.9,16.34-14.35,8.35Z"/>
            <g>
              <g>
                <g>
                  <path class="cls-12" d="M259.47,40.95c1.43-.47,2.88-.95,4.15-1.76,1.27-.81,2.37-1.99,2.79-3.43.42-1.45.06-3.17-1.12-4.11-1.17-.94-2.94-.66-4.01.41-.51.51-2.7,9.19-1.81,8.9Z"/>
                  <path class="cls-12" d="M236.21,40.95c-1.43-.47-2.88-.95-4.15-1.76-1.27-.81-2.37-1.99-2.79-3.43-.42-1.45-.06-3.17,1.12-4.11,1.17-.94,2.94-.66,4.01.41.51.51,2.7,9.19,1.81,8.9Z"/>
                </g>
                <g>
                  <path class="cls-12" d="M249.26,9.9c-.25-.01-2.6-.01-2.84,0-7.57.37-14.72,1.64-13.61,13.51,0,0,1.19,13.62,1.85,16.26.34,1.34,1.22,2.6,2,3.72,1.18,1.7,2.55,3.28,4.1,4.65,1.9,1.68,4.17,3.13,6.75,3.13,2.4,0,4.2-.69,5.99-1.98,1.78-1.28,3.33-2.9,4.67-4.63,1.03-1.32,2.05-2.76,2.67-4.32.07-.19.14-.37.19-.57.66-2.64,1.85-16.26,1.85-16.26,1.11-11.87-6.04-13.14-13.61-13.51Z"/>
                  <path class="cls-11" d="M247.84,50.56c-5.53-.23-10.07-5.43-11.69-10.5-.58-1.73-1.04-5.1-.7-6.8.55-2.73,5.19-5.15,7.13-8.84,2.65-5.05,7.7-1.8,12.47-2.92,2.36-.56,3.45,3.12,7.81,1.94,0-.01,0-.02,0-.02,1.11-11.87-6.04-13.14-13.61-13.51-.25-.01-2.6-.01-2.84,0-7.57.37-14.72,1.64-13.61,13.51,0,0,1.19,13.62,1.85,16.26.34,1.34,1.22,2.6,2,3.72,1.18,1.7,2.55,3.28,4.1,4.65,1.9,1.68,4.17,3.13,6.75,3.13,2.4,0,4.2-.69,5.99-1.98.79-.57,1.53-1.2,2.23-1.88-3.6,2.74-7.08,3.38-7.88,3.26Z"/>
                </g>
              </g>
              <g>
                <path class="cls-7" d="M248.36,30.14s1.59,5.03,1.29,5.91c-.5,1.52-2.97,1.02-2.97,1.02,0,0,1.68-.59,1.68-1.68v-5.25Z"/>
                <path class="cls-3" d="M238.49,27.52s.05-.06.07-.08c1.31-1.46,2.91-2.09,4.64-1.79.15.03.31.06.46.25.28.36.37.8.42,1.43-2.05-.73-4.01-.43-5.71.88-.08-.21-.07-.22-.02-.4.03-.13.08-.22.14-.29Z"/>
                <path class="cls-3" d="M257.67,27.53s-.05-.06-.07-.08c-1.3-1.47-2.9-2.11-4.63-1.82-.15.02-.31.06-.46.25-.28.36-.37.79-.43,1.43,2.06-.71,4.02-.4,5.7.92.09-.2.07-.22.03-.4-.03-.13-.08-.22-.14-.3Z"/>
                <g>
                  <path class="cls-21" d="M243.04,30.08c0-.89-.64-1.62-1.44-1.62s-1.44.72-1.44,1.62v1.7c0,.89.71,1.2,1.44,1.2s1.44-.31,1.44-1.2v-1.7Z"/>
                  <path class="cls-5" d="M242.52,30.01c0,.07-.06.13-.13.13s-.13-.06-.13-.13.06-.13.13-.13.13.06.13.13Z"/>
                </g>
                <g>
                  <path class="cls-21" d="M256.2,30.08c0-.89-.64-1.62-1.44-1.62s-1.44.72-1.44,1.62v1.7c0,.89.71,1.2,1.44,1.2s1.44-.31,1.44-1.2v-1.7Z"/>
                  <circle class="cls-5" cx="255.55" cy="30.01" r=".13"/>
                </g>
                <path class="cls-5" d="M242.44,37.15s3.61.63,5.79.53c2.18-.1,6.03-.53,6.03-.53.39,0-1.75,5.68-5.86,5.73-4.09.05-6.22-5.73-5.97-5.73Z"/>
              </g>
              <path class="cls-3" d="M238.54,25.96c1.86-.46,3.09-.92,3.98-2.29,1.19-1.83.35-3.78,1.95-4.21,2.53-.68,7.31,2.14,9.59.88.48-.27.89-.65,1.21-1.09.48.85,1.22,1.62,1.93,2.31,1.29,1.24,2.7,2.66,2.69,4.43,0,1.09-.57,2.08-.9,3.12-.63,1.97,1.26,8.04,1.26,8.04,1.2-.63,1.5-3.74,1.97-5,.54-1.46.41-3.09.83-4.58.45-1.61,1.52-3.01,1.92-4.63.45-1.85-.07-3.9-1.32-5.35.15-.9.24-1.82.2-2.74-.09-1.95-.81-3.95-2.31-5.25-1.33-1.15-3.34-1.59-4.95-.95-2.6-2.75-5.69-5.3-9.4-5.11-3.34.17-6.08,2.56-9.21,3.71-1.83.67-3.81.91-5.66,1.54-1.85.63-3.67,1.76-4.39,3.55-.36.9-.31,1.97.08,2.86-.55.38-.98.95-1.16,1.58-.4,1.39.11,2.87.73,4.18.62,1.31,3.9,2.85,4.06,4.29.17,1.62,2.08,10.84,2.68,10.84s1.5-9.85,1.5-9.85c.3.06,2.14-.15,2.73-.29Z"/>
            </g>
            <path class="cls-2" d="M229.39,137.5h-.03c-1.88-.27-6.58-2.46-8.12-3.64-.88-.68-.6-3.17.37-8.49.25-1.37.46-2.56.51-3.19.35-4.82.16-10.08-.02-15.16-.19-5.08-4.64-35.67-5.6-40.22-.22-1.05.26-2.12,1.19-2.66,1.57-.91,3.31-1.89,5.13-2.92,5.9-3.33,13.51-6.31,17.61-9.42l-1.52,4.61c-.74,2.25-1,4.63-.75,6.99l2.93,27.34s4.81,23.22,6.96,23.72c2.15-.51,6.96-23.72,6.96-23.72l2.99-27.55c.26-2.39,0-4.81-.77-7.09l-1.48-4.39c4.11,3.11,11.63,6.18,17.53,9.51,1.82,1.03,3.56,2.01,5.13,2.92.93.54,1.41,1.61,1.19,2.66-.96,4.55-5.56,35.12-5.89,40.16-.32,5.05-.66,10.26-.31,15.08.06.77.32,2.08.6,3.47.52,2.58,1.11,5.5.86,7.08-.45,2.83-6.6,4.68-8.13,4.9h-.03s-37.3,0-37.3,0Z"/>
            <path class="cls-1" d="M223.84,129c-1.74-2.23.5-6.45.5-9.92.25-12.65-2.48-24.81-3.47-37.46-.21-2.3-1.31-4.61-2.98-6.46,1.67,10.84,4.08,28.15,4.21,31.85.19,5.08.38,10.34.02,15.16-.05.63-.26,1.82-.51,3.19-.97,5.33-1.25,7.82-.37,8.49,1.54,1.18,6.24,3.37,8.12,3.63h.03s6.3,0,6.3,0c-4.54-1.97-8.67-4.58-11.85-8.5Z"/>
            <path class="cls-1" d="M278.34,74.13c-3.36,3.83-4.29,9.17-4.89,14.2-.99,8.93-1.52,15.81-1.52,24.74,0,5.95,2.11,17.61.07,19.57-2.04,1.96-6.01,3.3-8.3,4.88h3.02c1.53-.22,7.68-2.07,8.13-4.9.25-1.58-.34-4.5-.86-7.08-.28-1.39-.54-2.7-.6-3.47-.35-4.82-.02-10.04.31-15.08.24-3.8,2.92-22.1,4.63-32.83Z"/>
            <path class="cls-2" d="M295.29,100.45s-21.39,3.85-32.99,5.58c-2.74,1.44,1.33,14.12,3.79,13.89s16.89-1.49,31.01-3.93c6.57-1.14,3.93-16.08-1.81-15.54Z"/>
            <g>
              <path class="cls-11" d="M257.58,114.96s1.38-1.18,2-2.58c0,0,.82-4.41,1.12-4.38.57.04,9.44,5.36,9.18,6.4-.26,1.04-10.21,3.4-12.31.56Z"/>
              <path class="cls-11" d="M261.63,112.38c-1.65.22-3.37.77-4.01,2.1-.54,1.11-.32,2.46.49,3.46,1.56,1.1,3.83,1.41,5.64.7,1.36.71,3.09.84,4.54.34.63-.22,1.22-.56,1.57-1.06.35-.5.43-1.17.09-1.68-.29-.43-2.88-4.6-8.32-3.86Z"/>
              <path class="cls-11" d="M259.41,113.03s-1.87.97-3.02,1.24c-1.16.27-3.67.38-4.44.32-.77-.06-1.78,2.21,1.57,2.96,3.35.75,4.38-.34,6.42.31,2.04.65,1.08-4.71-.52-4.84Z"/>
              <g>
                <path class="cls-12" d="M263.8,110.1s.07,3.07.04,3.45c-.03.38-.35,2.5-.43,3.56-.08,1.06,1.61,1.89,2.51-.8.62-2.01.77-2.52.83-3.4.07-.88.12-3.51-.43-4.15s-2.75-.76-2.53,1.33Z"/>
                <path class="cls-12" d="M266.49,112.52s-.06,2.74-.1,3.07c-.04.34-.45,2.2-.57,3.15-.13.94,1.53,1.78,2.54-.55.7-1.75.86-2.19.97-2.97.1-.78.26-3.12-.26-3.72-.52-.6-2.71-.85-2.57,1.03Z"/>
                <path class="cls-12" d="M268.84,113.98s0,2.24-.04,2.52c-.04.28-.38,1.8-.49,2.57-.1.77,1.47,1.49,2.38-.41.63-1.42.78-1.79.86-2.42.08-.64.19-2.56-.3-3.06-.5-.5-2.56-.74-2.4.8Z"/>
                <path class="cls-12" d="M260.41,107.98s.05,3.21.01,3.61c-.03.4-.53,2.45-.62,3.58s2.04,2.39,2.99-.45c.66-2.12.81-2.66.88-3.59.07-.93.13-3.71-.45-4.39-.58-.67-3.05-.97-2.82,1.24Z"/>
              </g>
            </g>
            <path class="cls-2" d="M204.75,113.99c1.19-1.74,10.23-19.79,13.03-23.99,2.8-4.2,4.94-7.77,6.01-10.46,1.73-4.32-1.59-14.68-4.67-15.63-3.08-.95-10.03,7.62-11.83,10.87-2.22,3.99-12.7,22.04-16.89,30.86-3.17,6.7,8.9,16.34,14.35,8.35Z"/>
            <path class="cls-2" d="M199.56,101.21s21.39,3.85,32.99,5.58c2.74,1.44-1.33,14.12-3.79,13.89-2.46-.23-16.89-1.49-31.01-3.93-6.57-1.14-3.93-16.08,1.81-15.54Z"/>
            <g>
              <path class="cls-11" d="M237.27,115.72s-1.38-1.18-2-2.58c0,0-.82-4.41-1.12-4.38-.57.04-9.44,5.36-9.18,6.4.26,1.04,10.21,3.4,12.31.56Z"/>
              <path class="cls-11" d="M233.22,113.13c1.65.22,3.37.77,4.01,2.1.54,1.11.32,2.46-.49,3.46-1.56,1.1-3.83,1.41-5.64.7-1.36.71-3.09.84-4.54.34-.63-.22-1.22-.56-1.57-1.06-.35-.5-.43-1.17-.09-1.68.29-.43,2.88-4.6,8.32-3.86Z"/>
              <path class="cls-11" d="M235.44,113.78s1.87.97,3.02,1.24c1.16.27,3.67.38,4.44.32.77-.06,1.78,2.21-1.57,2.96-3.35.75-4.38-.34-6.42.31-2.04.65-1.08-4.71.52-4.84Z"/>
              <g>
                <path class="cls-12" d="M231.05,110.86s-.07,3.07-.04,3.45c.03.38.35,2.5.43,3.56.08,1.06-1.61,1.89-2.51-.8-.62-2.01-.77-2.52-.83-3.4-.07-.88-.12-3.51.43-4.15.55-.64,2.75-.76,2.53,1.33Z"/>
                <path class="cls-12" d="M228.36,113.27s.06,2.74.1,3.07c.04.34.45,2.2.57,3.15.13.94-1.53,1.78-2.54-.55-.7-1.75-.86-2.19-.97-2.97-.1-.78-.26-3.12.26-3.72.52-.6,2.71-.85,2.57,1.03Z"/>
                <path class="cls-12" d="M226.01,114.73s0,2.24.04,2.52c.04.28.38,1.8.49,2.57.1.77-1.47,1.49-2.38-.41-.63-1.42-.78-1.79-.86-2.42-.08-.64-.19-2.56.3-3.06.5-.5,2.56-.74,2.4.8Z"/>
                <path class="cls-12" d="M234.44,108.73s-.05,3.21-.01,3.61c.03.4.53,2.45.62,3.58.09,1.13-2.04,2.39-2.99-.45-.66-2.12-.81-2.66-.88-3.59-.07-.93-.13-3.71.45-4.39.58-.67,3.05-.97,2.82,1.24Z"/>
              </g>
            </g>
            <g>
              <path class="cls-13" d="M265.67,26.66s-.1-1.83-.82-4.24c-.66-2.2-2-5.38-4.61-7.99l1.09-1.09c2.85,2.85,4.3,6.29,5.01,8.68.77,2.58.87,4.48.87,4.56l-1.53.07Z"/>
              <g>
                <path class="cls-13" d="M265.43,32.14c0,4.21.08,7.6-1.36,7.6s-1.62-3.42-1.62-7.63.18-7.63,1.62-7.63,1.36,3.45,1.36,7.66Z"/>
                <g>
                  <path class="cls-25" d="M266.97,26.54h.17c.45,0,.82.37.82.82v10.38c0,.45-.37.82-.82.82h-.17v-12.01h0Z"/>
                  <rect class="cls-4" x="264.86" y="26.3" width="2.68" height="12.61"/>
                </g>
              </g>
              <path class="cls-13" d="M229.5,26.66s.1-1.83.82-4.24c.66-2.2,2-5.38,4.61-7.99l-1.09-1.09c-2.85,2.85-4.3,6.29-5.01,8.68-.77,2.58-.87,4.48-.87,4.56l1.53.07Z"/>
              <g>
                <g>
                  <path class="cls-13" d="M240.98,44.35h0l-4.09-.02s-.05,0-.07,0c-2.64,0-3.84-.54-4.59-1.01-1.71-1.07-2.67-3.21-2.33-5.21.02-.11.13-.19.24-.17.11.02.19.13.17.24-.31,1.83.56,3.79,2.14,4.78,1.34.84,2.99.95,4.43.94l4.09.02c.12,0,.21.1.21.21,0,.12-.09.21-.21.21Z"/>
                  <ellipse class="cls-13" cx="240.47" cy="44.2" rx="1.97" ry="1.2"/>
                </g>
                <path class="cls-13" d="M229.99,32.14c0,4.21-.08,7.6,1.36,7.6s1.62-3.42,1.62-7.63-.18-7.63-1.62-7.63-1.36,3.45-1.36,7.66Z"/>
                <g>
                  <path class="cls-25" d="M227.47,26.54h.17c.45,0,.82.37.82.82v10.38c0,.45-.37.82-.82.82h-.17v-12.01h0Z" transform="translate(455.92 65.09) rotate(-180)"/>
                  <rect class="cls-4" x="227.89" y="26.3" width="2.68" height="12.61" transform="translate(458.46 65.21) rotate(180)"/>
                </g>
              </g>
              <path class="cls-18" d="M263.29,15.39c-3.46-4.94-9.19-8.17-15.68-8.17s-12.27,3.26-15.72,8.23l2.18.9c.83-1.12,1.8-2.15,2.9-3.04,1.47-1.2,3.12-2.14,4.9-2.79,1.84-.67,3.77-1.01,5.75-1.01s3.91.34,5.75,1.01c1.78.65,3.42,1.58,4.9,2.79,1.08.88,2.03,1.89,2.86,2.99l2.18-.9Z"/>
            </g>
          </g>
          <g id="LAPTOP-2" data-name="LAPTOP">
            <g>
              <path class="cls-17" d="M190.96,78.51h50.46c1.43,0,2.87,1.17,3.2,2.61l8.11,35.7c.33,1.43-.58,2.61-2.01,2.61h-50.46c-1.43,0-2.87-1.17-3.2-2.61l-8.11-35.7c-.33-1.43.58-2.61,2.01-2.61Z"/>
              <path class="cls-15" d="M189.54,78.51h50.46c1.43,0,2.87,1.17,3.2,2.61l8.11,35.7c.33,1.43-.58,2.61-2.01,2.61h-50.46c-1.43,0-2.87-1.17-3.2-2.61l-8.11-35.7c-.33-1.43.58-2.61,2.01-2.61Z"/>
              <path class="cls-20" d="M189.54,78.51h50.46c1.43,0,2.87,1.17,3.2,2.61l8.11,35.7c.33,1.43-.58,2.61-2.01,2.61h-50.46c-1.43,0-2.87-1.17-3.2-2.61l-8.11-35.7c-.33-1.43.58-2.61,2.01-2.61Z"/>
              <path class="cls-14" d="M202.9,112.47l-13.04-24.27,6.47,28.46c.25,1.12,1.4,2.06,2.51,2.06h50.46c.24,0,.46-.05.66-.14-14.75-1.04-47.05-6.11-47.05-6.11Z"/>
              <polygon class="cls-22" points="211.93 79.22 201.91 79.22 239.53 103.16 211.93 79.22"/>
              <path class="cls-22" d="M242.52,81.27c-.25-1.12-1.4-2.06-2.51-2.06h-19.11l25.19,17.8-3.58-15.74Z"/>
            </g>
            <g>
              <path class="cls-17" d="M268.26,121.44h-70.01c-.55,0-1.01-.45-1.01-1.01h0c0-.55.45-1.01,1.01-1.01h70.01c.55,0,1.01.45,1.01,1.01h0c0,.55-.45,1.01-1.01,1.01Z"/>
              <path class="cls-10" d="M253.31,121.44h-55.07c-.55,0-1.01-.45-1.01-1.01h0c0-.55.45-1.01,1.01-1.01h55.07c.55,0,1.01.45,1.01,1.01h0c0,.55-.45,1.01-1.01,1.01Z"/>
            </g>
          </g>
        </g>
      </g>
      <rect class="cls-2" x="13.39" y="121.44" width="294.98" height="3.97" rx="1.64" ry="1.64"/>
      <g id="bubble_speech" data-name="bubble speech">
        <path class="cls-20" d="M191.31,6.11h-20.74c-5.33,0-9.69,4.36-9.69,9.69h0c0,5.33,4.36,9.69,9.69,9.69h14.71l8.39,5.63-4.3-5.63h1.95c5.33,0,9.69-4.36,9.69-9.69h0c0-5.33-4.36-9.69-9.69-9.69Z"/>
        <g>
          <circle class="cls-5" cx="172.41" cy="17.79" r=".81"/>
          <circle class="cls-5" cx="180.94" cy="17.79" r=".81"/>
          <circle class="cls-5" cx="189.47" cy="17.79" r=".81"/>
        </g>
      </g>
      <g id="bubble_speech-2" data-name="bubble speech">
        <path class="cls-20" d="M30.42,6.11H9.69C4.36,6.11,0,10.47,0,15.79h0c0,5.33,4.36,9.69,9.69,9.69h14.71l8.39,5.63-4.3-5.63h1.95c5.33,0,9.69-4.36,9.69-9.69h0c0-5.33-4.36-9.69-9.69-9.69Z"/>
        <g>
          <circle class="cls-5" cx="11.53" cy="17.79" r=".81"/>
          <circle class="cls-5" cx="20.05" cy="17.79" r=".81"/>
          <circle class="cls-5" cx="28.58" cy="17.79" r=".81"/>
        </g>
      </g>
    </g>
  </g>
</svg>