<?xml version="1.0" encoding="UTF-8"?>
<svg id="Layer_2" data-name="Layer 2" xmlns="http://www.w3.org/2000/svg" xmlns:xlink="http://www.w3.org/1999/xlink" viewBox="0 0 164.49 135.61">
  <defs>
    <style>
      .cls-1 {
        fill: #505050;
      }

      .cls-2 {
        fill: #fff;
      }

      .cls-3 {
        fill: #75a0c8;
      }

      .cls-4 {
        fill: #e69680;
      }

      .cls-5 {
        filter: url(#drop-shadow-1);
      }

      .cls-6 {
        fill: #6698b1;
      }

      .cls-7 {
        fill: #fcb99f;
      }

      .cls-8 {
        fill: #ededed;
      }

      .cls-9 {
        fill: #f8f8f8;
      }

      .cls-10 {
        fill: #707070;
      }

      .cls-11 {
        fill: #e6edfc;
      }
    </style>
    <filter id="drop-shadow-1" x="-21.68" y="-21.8" width="214" height="185" filterUnits="userSpaceOnUse">
      <feOffset dx="3" dy="3"/>
      <feGaussianBlur result="blur" stdDeviation="8"/>
      <feFlood flood-color="#000" flood-opacity=".15"/>
      <feComposite in2="blur" operator="in"/>
      <feComposite in="SourceGraphic"/>
    </filter>
  </defs>
  <g id="Layer_1-2" data-name="Layer 1">
    <g class="cls-5">
      <g>
        <g>
          <path class="cls-7" d="M88.36,39.83c2.72.04,7.43.44,10.09.9,8.56,1.48,5.21,6.62,13.77,8.1l-12.81,8.4c-2.81,1.91-6.23,2.57-9.48,2.46-3.25-.11-6.4-.92-9.52-1.73-7.28-1.89-16-3.08-23.28-4.97,8.11-6.67,21.22-13.3,31.23-13.16Z"/>
          <path class="cls-7" d="M129.02,56.45c1.48.36,3.12.97,3.69,2.38.58,1.42-.23,3.1-1.47,4-1.24.9-2.81,1.19-4.32,1.42-6.2.98-12.46,1.52-18.73,1.61l3.99-9.6c5.53-1.23,11.35-1.16,16.85.19Z"/>
          <path class="cls-7" d="M123.45,70.74c1.36.68,2.82,1.64,3.07,3.15.25,1.51-.92,2.97-2.33,3.57-1.41.6-3,.53-4.53.42-6.26-.43-12.49-1.31-18.62-2.62l6.03-8.46c5.67.04,11.32,1.4,16.38,3.95Z"/>
          <path class="cls-7" d="M112.47,79.29c1.09,1.06,2.19,2.42,1.97,3.93-.22,1.52-1.77,2.55-3.3,2.69-1.53.14-3.02-.41-4.45-.97-5.83-2.31-11.5-5.03-16.95-8.14l8.31-6.24c5.39,1.76,10.36,4.77,14.41,8.73Z"/>
          <path class="cls-7" d="M19.99,91.56c3.76,7.17,10.83,14.81,22.65,23.39,2.5,1.82.28,7.47,3.22,9.37,2.76-3.37,10.29-10.23,12.51-12.8.11-.13.23-.26.34-.39,3.99-4.6,6.68-7.5,6.68-7.5.82.16,1.72.33,2.69.44,4.36.53,10.15-.01,16.26-7.88.31-.4.63-.8.95-1.18,1.13-1.36,2.31-2.62,3.5-3.78,4.37-4.25,8.91-7.16,11.91-8.84.61-.34,1.15-.63,1.61-.86h0c1.15-.59,1.83-.88,1.83-.88h0s-.9-.32-.9-.32l-12.32-4.43-19.69-26.16-4.69,17.38-.1-.04h-.03s0-.01,0-.01l-1.53-.55h0s-.14-.05-.14-.05l-.18-.07h0s-2.75.78-2.75.78h0s-14.47,4.12-14.47,4.12l-.39.11-2.68.76c-.43.61-1.47,1.62-2.98,2.92-.16.14-.32.28-.49.42-.12.1-.25.21-.37.32h0c-4.57,3.85-12.4,9.78-20.44,15.7Z"/>
          <path class="cls-7" d="M47.91,82.52s.11.03.16.01c.09-.04.13-.15.1-.24-2.62-6.15-.4-12.67-.38-12.73.03-.09-.02-.2-.11-.23-.09-.03-.2.02-.23.11-.02.07-2.29,6.72.39,12.99.02.04.04.07.07.08Z"/>
          <g>
            <rect class="cls-11" x="89.75" y="10.09" width="56.31" height="23.99" rx="5.27" ry="5.27"/>
            <g>
              <path class="cls-3" d="M97.06,23.72c11.21.36,22.43.41,33.64.15,3.23-.08,6.46-.18,9.69-.31.54-.02.45-.89-.1-.87-11.2.44-22.41.58-33.62.4-3.16-.05-6.32-.13-9.48-.23-.54-.02-.67.85-.13.86h0Z"/>
              <path class="cls-6" d="M97.78,19.28c10,.28,20,.63,30.01.39,3.38-.08,6.77-.21,10.15-.35,1.32-.06,1.09-2.09-.23-2.04-9.94.42-19.85.52-29.79.25-3.27-.09-6.55-.19-9.82-.28-.56-.02-1.07.25-1.17.85-.08.49.3,1.16.85,1.17h0Z"/>
              <path class="cls-3" d="M97.12,27.43c3.8.17,7.61.19,11.42.05.56-.02.46-.89-.1-.87-3.73.13-7.46.12-11.18-.05-.56-.03-.7.84-.14.87h0Z"/>
              <path class="cls-3" d="M112.15,27.67c3.8.17,7.61.19,11.42.05.56-.02.46-.89-.1-.87-3.73.13-7.46.12-11.18-.05-.56-.03-.7.84-.14.87h0Z"/>
            </g>
          </g>
          <path class="cls-4" d="M71.8,104.42c-3.23.27-6.48-.3-9.44-1.63-.26-.12-.03-.5.23-.38,2.88,1.3,6.06,1.84,9.21,1.57.29-.02.28.42,0,.45h0Z"/>
        </g>
        <path class="cls-10" d="M20.75,89.96l34.04,29.76c2.42,2.12,2.93,5.69,1.2,8.4l-2.86,4.48c-1.2,1.87-3.26,3.01-5.48,3.01H6.51c-3.59,0-6.51-2.91-6.51-6.51v-30.78c0-2.77,1.76-5.24,4.37-6.15l9.96-3.46c2.21-.77,4.66-.29,6.41,1.25Z"/>
        <g>
          <polygon class="cls-9" points="163.01 18.31 164.49 108.22 77.55 109.65 75.78 1.43 162.61 0 163.01 18.31"/>
          <rect class="cls-2" x="90.94" y="23.83" width="13.71" height="2.67" transform="translate(-.4 1.6) rotate(-.93)"/>
          <rect class="cls-2" x="91.03" y="29.17" width="13.71" height="2.67" transform="translate(-.48 1.6) rotate(-.93)"/>
          <rect class="cls-8" x="91.11" y="31.49" width="57.61" height="2.67" transform="translate(-.52 1.96) rotate(-.93)"/>
          <rect class="cls-2" x="91.16" y="34.52" width="13.71" height="2.67" transform="translate(-.57 1.6) rotate(-.93)"/>
          <g>
            <path d="M93.34,23.45c-.01-.09-.06-.12-.15-.12s-.14.04-.13.1c0,.07.07.08.16.1.1.02.22.05.23.17,0,.13-.12.18-.23.19-.14,0-.25-.06-.25-.21h.08c0,.11.09.14.18.14.07,0,.15-.03.15-.11,0-.08-.08-.09-.18-.11-.1-.02-.21-.03-.21-.16s.11-.17.22-.18c.13,0,.22.06.22.19h-.08Z"/>
            <path d="M93.72,23.89c-.13,0-.21-.08-.21-.22s.08-.24.2-.24c.14,0,.2.11.2.24h0s-.33.02-.33.02h0c0,.1.05.15.14.15.06,0,.1-.03.12-.09h.07c-.02.1-.08.15-.19.15ZM93.71,23.48c-.07,0-.12.05-.13.13h.25c0-.09-.06-.14-.13-.13Z"/>
            <path d="M94.18,23.88c-.14,0-.21-.09-.21-.22,0-.15.08-.24.21-.24.11,0,.17.05.19.15h-.07c-.01-.06-.05-.09-.11-.09-.08,0-.13.07-.13.17s.05.17.13.17c.07,0,.11-.04.12-.11h.07c-.01.1-.08.17-.19.17Z"/>
            <path d="M94.84,23.63c0,.15-.07.24-.21.24s-.21-.08-.22-.23.08-.23.21-.24.21.08.21.23ZM94.49,23.64c0,.11.05.17.14.17s.13-.07.13-.17-.06-.17-.14-.17-.14.07-.14.17Z"/>
            <path d="M94.99,23.48c.04-.05.08-.08.15-.08.11,0,.15.06.15.16v.29s-.07,0-.07,0v-.26c0-.07,0-.13-.1-.13s-.12.07-.12.16v.23s-.07,0-.07,0v-.44s.06,0,.06,0v.07Z"/>
            <path d="M95.79,23.84h-.07s0-.06,0-.06c-.03.05-.08.08-.14.08-.12,0-.2-.09-.21-.23,0-.12.06-.23.2-.23.06,0,.11.02.14.07v-.22s.07,0,.07,0v.6ZM95.45,23.62c0,.11.06.17.14.17s.13-.07.13-.17c0-.09-.04-.17-.14-.17-.08,0-.13.07-.13.17Z"/>
            <path d="M96.41,23.23c.11,0,.2.03.21.16,0,.07-.04.13-.1.15.08.02.09.07.09.15,0,.05,0,.11.04.14h-.09s-.02-.1-.02-.13c0-.1-.03-.13-.14-.13h-.16s0,.26,0,.26h-.08s0-.6,0-.6h.26ZM96.23,23.51h.15c.08,0,.16-.01.16-.11,0-.09-.07-.1-.14-.1h-.17s0,.21,0,.21Z"/>
            <path d="M97.12,23.6c0,.15-.07.24-.21.24s-.21-.08-.22-.23.08-.23.21-.24.21.08.21.23ZM96.77,23.61c0,.11.05.17.14.17s.13-.07.13-.17-.06-.17-.14-.17c-.08,0-.14.07-.14.17Z"/>
            <path d="M97.24,23.38l.11.36.08-.36h.08s.1.36.1.36l.09-.36h.07s-.13.44-.13.44h-.08s-.1-.34-.1-.34l-.08.35h-.08s-.15-.43-.15-.43h.08Z"/>
          </g>
          <g>
            <path d="M93.49,25.98h-.2s0,.54,0,.54h-.08s0-.53,0-.53h-.2s0-.07,0-.07h.48s0,.06,0,.06Z"/>
            <path d="M93.62,26.14s.08-.07.14-.08c.1,0,.15.06.15.15v.3s-.07,0-.07,0v-.28c0-.06-.02-.1-.1-.1-.09,0-.12.07-.12.17v.22s-.07,0-.07,0v-.6s.06,0,.06,0v.23Z"/>
            <path d="M94.09,25.99h-.07s0-.09,0-.09h.07s0,.09,0,.09ZM94.1,26.51h-.07s0-.44,0-.44h.07s0,.44,0,.44Z"/>
            <path d="M94.44,26.13s-.01,0-.02,0c-.12,0-.14.09-.14.19v.18s-.07,0-.07,0v-.44s.06,0,.06,0v.09c.03-.07.08-.11.16-.11v.07Z"/>
            <path d="M94.89,26.49h-.07s0-.06,0-.06c-.03.05-.08.08-.14.08-.12,0-.2-.09-.21-.23,0-.12.06-.23.2-.23.06,0,.11.02.14.07v-.22s.07,0,.07,0v.6ZM94.55,26.28c0,.11.06.17.14.17s.13-.07.13-.17c0-.09-.04-.17-.14-.17-.08,0-.13.07-.13.17Z"/>
            <path d="M95.5,25.88c.11,0,.2.03.2.16,0,.07-.04.13-.1.15.08.02.09.07.09.15,0,.05,0,.11.04.14h-.09s-.02-.1-.02-.13c0-.1-.03-.13-.14-.13h-.16s0,.26,0,.26h-.08s0-.6,0-.6h.26ZM95.32,26.16h.15c.08,0,.16-.01.16-.11,0-.09-.07-.1-.14-.1h-.17s0,.21,0,.21Z"/>
            <path d="M96.21,26.25c0,.15-.07.24-.21.24s-.21-.08-.22-.23.08-.23.21-.24c.13,0,.21.08.21.23ZM95.86,26.26c0,.11.05.17.14.17s.13-.07.13-.17-.06-.17-.14-.17-.14.07-.14.17Z"/>
            <path d="M96.33,26.03l.11.36.08-.36h.08s.1.36.1.36l.09-.36h.07s-.13.44-.13.44h-.08s-.1-.34-.1-.34l-.08.35h-.08s-.15-.43-.15-.43h.08Z"/>
          </g>
          <g>
            <path d="M93.38,28.54c.11,0,.2.03.21.16,0,.07-.04.13-.1.15.08.02.09.07.09.15,0,.05,0,.11.04.14h-.09s-.02-.1-.02-.13c0-.1-.03-.13-.14-.13h-.16s0,.26,0,.26h-.08s0-.6,0-.6h.26ZM93.2,28.82h.15c.08,0,.16-.01.16-.11,0-.09-.07-.1-.14-.1h-.17s0,.21,0,.21Z"/>
            <path d="M94.09,28.91c0,.15-.07.24-.21.24s-.21-.08-.22-.23.08-.23.21-.24.21.08.21.23ZM93.74,28.91c0,.11.05.17.14.17.08,0,.13-.07.13-.17s-.06-.17-.14-.17-.14.07-.14.17Z"/>
            <path d="M94.21,28.69l.11.36.08-.36h.08s.1.36.1.36l.09-.36h.07s-.13.44-.13.44h-.08s-.1-.34-.1-.34l-.08.35h-.08s-.15-.43-.15-.43h.08Z"/>
            <path d="M94.88,28.74c.04-.05.08-.08.14-.08.06,0,.1.02.12.07.04-.05.08-.08.14-.08.09,0,.14.05.14.14v.31s-.07,0-.07,0v-.28c0-.06-.02-.11-.09-.11-.08,0-.11.06-.11.14v.25s-.07,0-.07,0v-.28c0-.06-.02-.1-.09-.1-.1,0-.12.07-.12.15v.23s-.07,0-.07,0v-.44s.06,0,.06,0v.06Z"/>
            <path d="M95.93,29.09s-.03,0-.05,0c-.04,0-.06-.02-.06-.06-.04.05-.09.07-.16.07-.09,0-.14-.05-.14-.12s.05-.12.15-.14c.1-.01.14-.01.14-.07,0-.05-.04-.07-.1-.07s-.1.03-.11.09h-.07c0-.09.07-.15.18-.15.06,0,.11.01.14.04.03.03.03.07.03.11,0,.07,0,.13,0,.19,0,.03,0,.04.03.04,0,0,.01,0,.02,0v.06ZM95.71,28.9c-.05,0-.12.01-.12.08,0,.04.03.07.09.07.07,0,.13-.05.13-.1v-.08s-.07.02-.1.03Z"/>
            <path d="M96.06,28.73c.04-.05.08-.08.15-.08.11,0,.15.06.15.16v.29s-.07,0-.07,0v-.26c0-.07,0-.13-.1-.13s-.12.07-.12.16v.23s-.07,0-.07,0v-.44s.06,0,.06,0v.07Z"/>
            <path d="M96.65,29.1c-.14,0-.21-.09-.21-.22,0-.15.08-.24.21-.24.11,0,.17.05.19.15h-.07c-.01-.06-.05-.09-.11-.09-.08,0-.13.07-.13.17s.05.17.13.17c.07,0,.11-.04.12-.11h.07c-.01.1-.08.17-.19.17Z"/>
            <path d="M97.11,29.09c-.13,0-.21-.08-.21-.22s.08-.24.2-.24c.14,0,.2.11.2.24h0s-.33.02-.33.02h0c0,.1.05.15.14.15.06,0,.1-.03.12-.09h.07c-.02.1-.08.15-.19.15ZM97.09,28.69c-.07,0-.12.05-.13.13h.25c0-.09-.06-.14-.13-.13Z"/>
          </g>
          <g>
            <path d="M93.44,32.96c.1,0,.19.04.19.15,0,.06-.03.11-.09.13.07.02.12.07.12.15,0,.14-.11.17-.23.17h-.25s0-.6,0-.6h.26ZM93.27,33.22h.14c.07,0,.15,0,.15-.1s-.07-.09-.14-.09h-.15s0,.19,0,.19ZM93.27,33.49h.16c.08,0,.16-.01.16-.12s-.09-.1-.17-.1h-.15s0,.22,0,.22Z"/>
            <path d="M93.95,33.56c-.13,0-.21-.08-.21-.22s.08-.24.2-.24c.14,0,.2.11.2.24h0s-.33.02-.33.02h0c0,.1.05.15.14.15.06,0,.1-.03.12-.1h.07c-.02.1-.08.15-.19.15ZM93.94,33.16c-.07,0-.12.05-.13.14h.25c0-.09-.06-.14-.13-.14Z"/>
            <path d="M94.44,33.17s-.01,0-.02,0c-.12,0-.14.09-.14.19v.18s-.07,0-.07,0v-.44s.06,0,.06,0v.09c.03-.07.08-.11.16-.11v.07Z"/>
            <path d="M94.9,33.31c0,.15-.07.24-.21.24s-.21-.08-.22-.23.08-.23.21-.24.21.08.21.23ZM94.55,33.32c0,.11.05.17.14.17s.13-.07.13-.17-.06-.17-.14-.17c-.08,0-.14.07-.14.17Z"/>
            <path d="M95.02,33.1l.11.36.08-.36h.08s.1.36.1.36l.09-.36h.07s-.13.44-.13.44h-.08s-.1-.34-.1-.34l-.08.35h-.08s-.15-.43-.15-.43h.08Z"/>
          </g>
          <g>
            <path d="M93.68,38.62h-.4s0-.6,0-.6h.08s0,.53,0,.53h.32s0,.06,0,.06Z"/>
            <path d="M94.12,38.61s-.03,0-.05,0c-.04,0-.06-.02-.06-.06-.04.05-.09.07-.16.07-.09,0-.14-.05-.14-.12s.05-.12.15-.14c.1-.01.14-.01.14-.07,0-.05-.04-.07-.1-.07s-.1.03-.11.09h-.07c0-.09.07-.15.18-.15.06,0,.11.01.14.04.03.03.03.07.03.11,0,.07,0,.13,0,.19,0,.03,0,.04.03.04,0,0,.01,0,.02,0v.06ZM93.91,38.42c-.05,0-.12.01-.12.08,0,.04.03.07.09.07.07,0,.13-.05.13-.1v-.08s-.07.02-.1.03Z"/>
            <path d="M94.44,38.3c0-.06-.05-.08-.11-.08-.05,0-.09.02-.09.06,0,.05.06.06.12.07.07.02.17.04.17.13,0,.08-.07.14-.18.14-.12,0-.18-.05-.19-.15h.07c0,.06.05.09.12.09.06,0,.11-.03.11-.07,0-.05-.05-.06-.11-.07-.08-.02-.18-.03-.18-.13,0-.08.06-.13.16-.13s.18.04.18.14h-.07Z"/>
            <path d="M94.8,38.22h-.09s0,.26,0,.26c0,.04,0,.06.05.06.01,0,.02,0,.04,0v.06s-.03,0-.05,0c-.11,0-.11-.05-.11-.15v-.23s-.08,0-.08,0v-.06s.07,0,.07,0v-.13s.07,0,.07,0v.13s.09,0,.09,0v.06Z"/>
            <path d="M95.39,37.99c.11,0,.2.03.21.16,0,.07-.04.13-.1.15.08.02.09.07.09.15,0,.05,0,.11.04.14h-.09s-.02-.1-.02-.13c0-.1-.03-.13-.14-.13h-.16s0,.26,0,.26h-.08s0-.6,0-.6h.26ZM95.2,38.27h.15c.08,0,.16-.01.16-.11,0-.09-.07-.1-.14-.1h-.17s0,.21,0,.21Z"/>
            <path d="M96.09,38.36c0,.15-.07.24-.21.24s-.21-.08-.22-.23.08-.23.21-.24c.13,0,.21.08.21.23ZM95.75,38.37c0,.11.05.17.14.17s.13-.07.13-.17-.06-.17-.14-.17-.14.07-.14.17Z"/>
            <path d="M96.22,38.14l.11.36.08-.36h.08s.1.36.1.36l.09-.36h.07s-.13.44-.13.44h-.08s-.1-.34-.1-.34l-.08.35h-.08s-.15-.43-.15-.43h.08Z"/>
          </g>
          <g>
            <path d="M93.49,35.5c.11,0,.2.03.21.16,0,.07-.04.13-.1.15.08.02.09.07.09.15,0,.05,0,.11.04.14h-.09s-.02-.1-.02-.13c0-.1-.03-.13-.14-.13h-.16s0,.26,0,.26h-.08s0-.6,0-.6h.26ZM93.31,35.78h.15c.08,0,.16-.01.16-.11,0-.09-.07-.1-.14-.1h-.17s0,.21,0,.21Z"/>
            <path d="M94.2,35.87c0,.15-.07.24-.21.24s-.21-.08-.22-.23.08-.23.21-.24c.13,0,.21.08.21.23ZM93.85,35.88c0,.11.05.17.14.17s.13-.07.13-.17-.06-.17-.14-.17-.14.07-.14.17Z"/>
            <path d="M94.32,35.65l.11.36.08-.36h.08s.1.36.1.36l.09-.36h.07s-.13.44-.13.44h-.08s-.1-.34-.1-.34l-.08.35h-.08s-.15-.43-.15-.43h.08Z"/>
            <path d="M95.32,36.07s-.03,0-.05,0c-.04,0-.06-.02-.06-.06-.04.05-.09.07-.16.07-.09,0-.14-.05-.14-.12s.05-.12.15-.14c.1-.01.14-.01.14-.07,0-.05-.04-.07-.1-.07s-.1.03-.11.09h-.07c0-.09.07-.15.18-.15.06,0,.11.01.14.04.03.03.03.07.03.11,0,.07,0,.13,0,.19,0,.03,0,.04.03.04,0,0,.01,0,.02,0v.06ZM95.1,35.87c-.05,0-.12.01-.12.09,0,.04.03.07.09.07.07,0,.13-.05.13-.1v-.08s-.07.02-.1.03Z"/>
            <path d="M95.45,35.7c.04-.05.08-.08.15-.08.11,0,.15.06.15.16v.29s-.07,0-.07,0v-.26c0-.07,0-.13-.1-.13-.09,0-.12.07-.12.16v.23s-.07,0-.07,0v-.44s.06,0,.06,0v.07Z"/>
            <path d="M96.26,35.83c0,.15-.07.24-.21.24-.13,0-.21-.08-.22-.23s.08-.23.21-.24.21.08.21.23ZM95.91,35.84c0,.11.05.17.14.17s.13-.07.13-.17-.06-.17-.14-.17c-.08,0-.14.07-.14.17Z"/>
            <path d="M96.38,35.62l.11.36.08-.36h.08s.1.36.1.36l.09-.36h.07s-.13.44-.13.44h-.08s-.1-.34-.1-.34l-.08.35h-.08s-.15-.43-.15-.43h.08Z"/>
          </g>
          <rect class="cls-2" x="105.17" y="23.62" width="10.54" height="2.67" transform="translate(-.39 1.8) rotate(-.93)"/>
          <rect class="cls-2" x="105.25" y="28.97" width="10.54" height="2.67" transform="translate(-.48 1.8) rotate(-.93)"/>
          <rect class="cls-2" x="105.34" y="34.31" width="10.54" height="2.67" transform="translate(-.57 1.81) rotate(-.93)"/>
          <rect class="cls-2" x="116.13" y="23.45" width="10.54" height="2.67" transform="translate(-.39 1.98) rotate(-.93)"/>
          <rect class="cls-2" x="116.21" y="28.79" width="10.54" height="2.67" transform="translate(-.47 1.98) rotate(-.93)"/>
          <rect class="cls-2" x="116.3" y="34.13" width="10.54" height="2.67" transform="translate(-.56 1.98) rotate(-.93)"/>
          <rect class="cls-2" x="127.08" y="23.27" width="10.54" height="2.67" transform="translate(-.38 2.16) rotate(-.93)"/>
          <rect class="cls-2" x="127.17" y="28.61" width="10.54" height="2.67" transform="translate(-.47 2.16) rotate(-.93)"/>
          <rect class="cls-2" x="127.26" y="33.96" width="10.54" height="2.67" transform="translate(-.56 2.16) rotate(-.93)"/>
          <rect class="cls-2" x="138.05" y="23.09" width="10.54" height="2.67" transform="translate(-.38 2.34) rotate(-.93)"/>
          <rect class="cls-2" x="138.13" y="28.43" width="10.54" height="2.67" transform="translate(-.47 2.34) rotate(-.93)"/>
          <rect class="cls-2" x="138.22" y="33.78" width="10.54" height="2.67" transform="translate(-.55 2.34) rotate(-.93)"/>
          <rect class="cls-1" x="90.21" y="101.18" width="18.6" height=".33" transform="translate(-1.64 1.63) rotate(-.93)"/>
          <g>
            <path class="cls-1" d="M95.01,102.32s-.01.02-.02.02c0,0-.01,0-.02,0s-.02,0-.04-.01c-.01-.01-.03-.02-.05-.03-.02-.01-.04-.02-.07-.03-.03,0-.06-.01-.1-.01s-.07,0-.1.02c-.03,0-.05.02-.07.04-.02.02-.03.04-.04.06,0,.02-.01.05-.01.07,0,.03,0,.06.03.08.02.02.04.04.07.05.03.02.06.03.1.04.04.01.07.02.11.03.04.01.07.03.11.04.04.02.07.04.1.06.03.02.05.05.07.09.02.04.03.08.03.13,0,.06,0,.11-.03.16-.02.05-.05.09-.08.13s-.08.07-.13.09-.11.03-.18.03c-.04,0-.08,0-.12,0s-.07-.02-.11-.03c-.03-.01-.07-.03-.1-.05-.03-.02-.06-.04-.08-.07l.05-.09s.01-.01.02-.02c0,0,.02,0,.03,0,.01,0,.03,0,.04.02s.04.03.06.04c.02.02.05.03.09.04.03.01.07.02.12.02.04,0,.07,0,.1-.02.03-.01.06-.03.08-.04.02-.02.04-.04.05-.07.01-.03.02-.06.02-.09,0-.04,0-.07-.03-.09-.02-.02-.04-.04-.07-.06-.03-.01-.06-.03-.1-.04s-.07-.02-.11-.03c-.04-.01-.07-.03-.11-.04s-.07-.04-.1-.06c-.03-.02-.05-.06-.07-.1-.02-.04-.03-.09-.03-.14,0-.04,0-.09.02-.13.02-.04.04-.08.07-.11.03-.03.07-.06.12-.08.05-.02.1-.03.17-.03.07,0,.14,0,.2.03.06.02.11.05.16.09l-.04.09Z"/>
            <path class="cls-1" d="M95.49,102.2s0,.03,0,.04c0,.01-.01.03-.03.04-.01.01-.02.02-.04.03-.01,0-.03,0-.05,0s-.03,0-.04,0c-.01,0-.03-.01-.04-.02-.01-.01-.02-.02-.03-.04,0-.01,0-.03,0-.04,0-.02,0-.03,0-.05,0-.01.01-.03.02-.04.01-.01.02-.02.04-.03.01,0,.03,0,.04,0s.03,0,.05,0,.03.01.04.02c.01.01.02.02.03.04,0,.01,0,.03,0,.05ZM95.46,102.48v.89s-.16,0-.16,0v-.89s.16,0,.16,0Z"/>
            <path class="cls-1" d="M96.47,102.5v.06s-.01.03-.04.04l-.1.02s.02.04.02.06,0,.04,0,.06c0,.04,0,.08-.02.12s-.04.07-.07.09-.06.05-.11.06-.09.02-.14.02c-.04,0-.08,0-.11-.01-.02.01-.03.02-.04.04s-.01.02-.01.04c0,.02,0,.04.03.05s.04.02.07.02c.03,0,.06,0,.1,0,.04,0,.07,0,.11,0,.04,0,.07,0,.11.01.04,0,.07.02.1.03.03.01.05.03.07.06.02.02.03.06.03.1,0,.04,0,.08-.03.11-.02.04-.05.07-.08.1-.04.03-.08.05-.13.07s-.11.03-.18.03-.12,0-.17-.02c-.05-.01-.09-.03-.12-.05-.03-.02-.06-.05-.07-.07-.02-.03-.02-.06-.03-.09,0-.04.01-.08.04-.11.03-.03.06-.05.11-.07-.03-.01-.05-.03-.06-.05-.02-.02-.02-.05-.02-.08,0-.01,0-.03,0-.04,0-.01.01-.03.02-.04.01-.01.02-.03.04-.04.01-.01.03-.02.05-.03-.04-.02-.08-.06-.1-.1-.03-.04-.04-.09-.04-.14,0-.04,0-.08.02-.12s.04-.07.07-.09c.03-.03.07-.05.11-.06.04-.01.09-.02.14-.02.08,0,.14.01.2.04h.25ZM96.31,103.41s0-.04-.02-.05-.03-.02-.05-.03c-.02,0-.04-.01-.07-.01-.03,0-.06,0-.08,0-.03,0-.06,0-.09,0-.03,0-.06,0-.09,0-.03.02-.05.03-.07.06-.02.02-.03.05-.03.08,0,.02,0,.04.02.05,0,.02.02.03.05.04.02.01.05.02.08.03.03,0,.07,0,.11,0s.08,0,.11-.01c.03,0,.06-.02.08-.03.02-.01.04-.03.05-.05s.02-.04.02-.06ZM96.03,102.92s.06,0,.08-.01c.02,0,.04-.02.06-.04.02-.02.03-.03.03-.06,0-.02.01-.04.01-.07,0-.05-.02-.09-.05-.12-.03-.03-.08-.05-.14-.04s-.1.02-.14.05c-.03.03-.05.07-.04.12,0,.03,0,.05.01.07,0,.02.02.04.04.05.02.01.04.03.06.03.02,0,.05.01.08.01Z"/>
            <path class="cls-1" d="M96.79,102.58s.04-.04.06-.06c.02-.02.04-.03.07-.04.02-.01.05-.02.08-.03.03,0,.06-.01.09-.01.05,0,.09,0,.13.02s.07.04.09.07.04.06.06.11c.01.04.02.09.02.14v.57s-.16,0-.16,0v-.57c-.01-.06-.03-.11-.06-.15-.03-.03-.08-.05-.14-.05-.04,0-.08.01-.12.03-.04.02-.07.05-.11.09v.65s-.16,0-.16,0v-.89s.09,0,.09,0c.02,0,.04.01.05.03l.02.09Z"/>
            <path class="cls-1" d="M97.59,102.57s.1-.09.16-.11c.06-.02.12-.04.19-.04.05,0,.1,0,.14.02s.07.04.1.07c.03.03.05.06.06.11.01.04.02.09.02.14v.57s-.07,0-.07,0c-.02,0-.03,0-.04,0,0,0-.02-.02-.02-.03l-.02-.08s-.05.04-.07.06c-.02.02-.05.03-.07.04s-.05.02-.08.03c-.03,0-.06,0-.09,0-.04,0-.07,0-.1-.01-.03,0-.06-.02-.08-.04-.02-.02-.04-.04-.05-.07-.01-.03-.02-.06-.02-.1,0-.04,0-.07.03-.1.02-.03.05-.06.09-.09.04-.03.1-.05.17-.07.07-.02.15-.03.26-.03v-.07c0-.07-.02-.12-.05-.15s-.07-.05-.13-.05c-.04,0-.07,0-.09.02-.03,0-.05.02-.07.03s-.03.02-.05.03-.03.02-.04.02c-.01,0-.02,0-.03,0,0,0-.02-.01-.02-.02l-.03-.05ZM98.1,102.93c-.07,0-.13,0-.18.02-.05,0-.09.02-.12.04-.03.02-.05.03-.07.05-.01.02-.02.04-.02.06s0,.04.01.06.02.03.03.04.03.02.04.02.04,0,.06,0c.03,0,.05,0,.07,0,.02,0,.04-.01.06-.02.02-.01.04-.02.05-.04.02-.01.03-.03.05-.05v-.18Z"/>
            <path class="cls-1" d="M98.77,103.33c-.07,0-.13-.02-.17-.06-.04-.04-.06-.1-.06-.17v-.53s-.11,0-.11,0c-.01,0-.02,0-.03,0s-.01-.01-.01-.03v-.07s.14-.02.14-.02l.03-.27s0-.02.01-.02c0,0,.01,0,.03,0h.09s0,.3,0,.3h.25s0,.12,0,.12h-.25s0,.53,0,.53c0,.04,0,.06.03.08s.04.02.07.02c.02,0,.03,0,.04,0s.02,0,.03-.01c0,0,.01,0,.02-.01,0,0,.01,0,.02,0,0,0,.01,0,.01,0,0,0,0,0,.01.01l.05.08s-.06.05-.1.06c-.04.01-.08.02-.12.02Z"/>
            <path class="cls-1" d="M99.85,102.41v.89s-.09,0-.09,0c-.02,0-.04-.01-.05-.03v-.09s-.05.04-.07.06c-.02.02-.04.03-.07.04-.02.01-.05.02-.08.03-.03,0-.06.01-.09.01-.05,0-.09,0-.13-.02-.04-.02-.07-.04-.09-.07-.03-.03-.05-.06-.06-.11-.01-.04-.02-.09-.02-.14v-.57s.16,0,.16,0v.57c.01.06.03.11.06.15.03.04.07.05.13.05.04,0,.08-.01.12-.03.04-.02.07-.05.11-.09v-.65s.16,0,.16,0Z"/>
            <path class="cls-1" d="M100.26,102.57c.03-.06.06-.11.1-.14s.09-.05.15-.05c.02,0,.04,0,.06,0s.03,0,.04.02v.13s-.02.02-.04.02c0,0-.02,0-.04,0-.02,0-.03,0-.05,0-.03,0-.05,0-.07.01-.02,0-.04.02-.06.04-.02.02-.03.04-.04.06-.01.02-.02.05-.03.08v.56s-.16,0-.16,0v-.89s.08,0,.08,0c.02,0,.03,0,.04,0,0,0,.01.02.01.04v.12Z"/>
            <path class="cls-1" d="M101.45,103.15s-.05.05-.07.06c-.03.02-.06.03-.09.04-.03.01-.06.02-.1.03-.03,0-.07,0-.1,0-.06,0-.12,0-.17-.03-.05-.02-.1-.05-.14-.09-.04-.04-.07-.09-.09-.15-.02-.06-.03-.13-.04-.2,0-.06,0-.12.03-.17s.05-.1.08-.14c.03-.04.08-.07.13-.1.05-.02.11-.04.18-.04.05,0,.1,0,.15.03.05.02.09.04.12.08.03.03.06.07.08.12.02.05.03.11.03.17,0,.03,0,.04,0,.05,0,0-.02.01-.03.01h-.58c0,.06.01.11.03.15.01.04.03.07.06.1.02.03.05.04.09.06.03.01.07.02.11.02.04,0,.07,0,.1-.01s.05-.02.07-.03.04-.02.05-.03.03-.01.04-.01c.01,0,.03,0,.03.01l.05.06ZM101.3,102.73s0-.07-.02-.09c0-.03-.02-.05-.04-.07-.02-.02-.04-.04-.07-.05-.03-.01-.06-.02-.09-.02-.07,0-.13.02-.17.07-.04.04-.07.1-.07.17h.47Z"/>
          </g>
          <rect class="cls-8" x="90.89" y="18.04" width="57.61" height="2.67" transform="translate(-.3 1.95) rotate(-.93)"/>
          <g>
            <path d="M93.28,19.68c-.01-.09-.06-.12-.15-.12s-.14.04-.13.1c0,.07.07.08.16.1.1.02.22.05.23.17,0,.13-.12.18-.23.19-.14,0-.25-.06-.25-.21h.08c0,.11.09.14.18.14.07,0,.15-.03.15-.11,0-.08-.08-.09-.18-.11-.1-.02-.21-.03-.21-.16s.11-.17.22-.18c.13,0,.22.06.22.19h-.08Z"/>
            <path d="M93.66,20.12c-.13,0-.21-.08-.21-.22s.08-.24.2-.24c.14,0,.2.11.2.24h0s-.33.02-.33.02h0c0,.1.05.15.14.15.06,0,.1-.03.12-.09h.07c-.02.1-.08.15-.19.15ZM93.64,19.71c-.07,0-.12.05-.13.13h.25c0-.09-.06-.14-.13-.13Z"/>
            <path d="M94.11,20.11c-.14,0-.21-.09-.21-.22,0-.15.08-.24.21-.24.11,0,.17.05.19.15h-.07c-.01-.06-.05-.09-.11-.09-.08,0-.13.07-.13.17s.05.17.13.17c.07,0,.11-.04.12-.11h.07c-.01.1-.08.17-.19.17Z"/>
            <path d="M94.78,19.86c0,.15-.07.24-.21.24-.13,0-.21-.08-.22-.23s.08-.23.21-.24.21.08.21.23ZM94.43,19.87c0,.11.05.17.14.17s.13-.07.13-.17-.06-.17-.14-.17-.14.07-.14.17Z"/>
            <path d="M94.93,19.71c.04-.05.08-.08.15-.08.11,0,.15.06.15.16v.29s-.07,0-.07,0v-.26c0-.07,0-.13-.1-.13s-.12.07-.12.16v.23s-.07,0-.07,0v-.44s.06,0,.06,0v.07Z"/>
            <path d="M95.73,20.07h-.07s0-.06,0-.06c-.03.05-.08.08-.14.08-.12,0-.2-.09-.21-.23,0-.12.06-.23.2-.23.06,0,.11.02.14.07v-.22s.07,0,.07,0v.6ZM95.39,19.85c0,.11.06.17.14.17s.13-.07.13-.17c0-.09-.04-.17-.14-.17-.08,0-.13.07-.13.17Z"/>
            <path d="M96.34,19.46c.11,0,.2.03.21.16,0,.07-.04.13-.1.15.08.02.09.07.09.15,0,.05,0,.11.04.14h-.09s-.02-.1-.02-.13c0-.1-.03-.13-.14-.13h-.16s0,.26,0,.26h-.08s0-.6,0-.6h.26ZM96.16,19.74h.15c.08,0,.16-.01.16-.11,0-.09-.07-.1-.14-.1h-.17s0,.21,0,.21Z"/>
            <path d="M97.05,19.83c0,.15-.07.24-.21.24-.13,0-.21-.08-.22-.23s.08-.23.21-.24c.13,0,.21.08.21.23ZM96.7,19.84c0,.11.05.17.14.17s.13-.07.13-.17-.06-.17-.14-.17-.14.07-.14.17Z"/>
            <path d="M97.17,19.61l.11.36.08-.36h.08s.1.36.1.36l.09-.36h.07s-.13.44-.13.44h-.08s-.1-.34-.1-.34l-.08.35h-.08s-.15-.43-.15-.43h.08Z"/>
          </g>
          <g>
            <path d="M93.62,40.26c-.01-.09-.06-.12-.15-.12s-.14.04-.13.1c0,.07.07.08.16.1.1.02.22.05.23.17,0,.13-.12.18-.23.19-.14,0-.25-.06-.25-.21h.08c0,.11.09.14.18.14.07,0,.15-.03.15-.11,0-.08-.08-.09-.18-.11-.1-.02-.21-.03-.21-.16s.11-.17.22-.18c.13,0,.22.06.22.19h-.08Z"/>
            <path d="M93.99,40.7c-.13,0-.21-.08-.21-.22s.08-.24.2-.24c.14,0,.2.11.2.24h0s-.33.02-.33.02h0c0,.1.05.15.14.15.06,0,.1-.03.12-.09h.07c-.02.1-.08.15-.19.15ZM93.98,40.29c-.07,0-.12.05-.13.13h.25c0-.09-.06-.14-.13-.13Z"/>
            <path d="M94.45,40.69c-.14,0-.21-.09-.21-.22,0-.15.08-.24.21-.24.11,0,.17.05.19.15h-.07c-.01-.06-.05-.09-.11-.09-.08,0-.13.07-.13.17s.05.17.13.17c.07,0,.11-.04.12-.11h.07c-.01.1-.08.17-.19.17Z"/>
            <path d="M95.11,40.44c0,.15-.07.24-.21.24-.13,0-.21-.08-.22-.23s.08-.23.21-.24.21.08.21.23ZM94.77,40.45c0,.11.05.17.14.17s.13-.07.13-.17-.06-.17-.14-.17-.14.07-.14.17Z"/>
            <path d="M95.27,40.29c.04-.05.08-.08.15-.08.11,0,.15.06.15.16v.29s-.07,0-.07,0v-.26c0-.07,0-.13-.1-.13s-.12.07-.12.16v.23s-.07,0-.07,0v-.44s.06,0,.06,0v.07Z"/>
            <path d="M96.07,40.65h-.07s0-.06,0-.06c-.03.05-.08.08-.14.08-.12,0-.2-.09-.21-.23,0-.12.06-.23.2-.23.06,0,.11.02.14.07v-.22s.07,0,.07,0v.6ZM95.73,40.43c0,.11.06.17.14.17s.13-.07.13-.17c0-.09-.04-.17-.14-.17-.08,0-.13.07-.13.17Z"/>
            <path d="M96.68,40.04c.11,0,.2.03.21.16,0,.07-.04.13-.1.15.08.02.09.07.09.15,0,.05,0,.11.04.14h-.09s-.02-.1-.02-.13c0-.1-.03-.13-.14-.13h-.16s0,.26,0,.26h-.08s0-.6,0-.6h.26ZM96.5,40.32h.15c.08,0,.16-.01.16-.11,0-.09-.07-.1-.14-.1h-.17s0,.21,0,.21Z"/>
            <path d="M97.39,40.41c0,.15-.07.24-.21.24-.13,0-.21-.08-.22-.23s.08-.23.21-.24.21.08.21.23ZM97.04,40.41c0,.11.05.17.14.17s.13-.07.13-.17-.06-.17-.14-.17-.14.07-.14.17Z"/>
            <path d="M97.51,40.19l.11.36.08-.36h.08s.1.36.1.36l.09-.36h.07s-.13.44-.13.44h-.08s-.1-.34-.1-.34l-.08.35h-.08s-.15-.43-.15-.43h.08Z"/>
          </g>
          <g>
            <path d="M93.77,42.79h-.2s0,.54,0,.54h-.08s0-.53,0-.53h-.2s0-.07,0-.07h.48s0,.06,0,.06Z"/>
            <path d="M93.9,42.95s.08-.07.14-.08c.1,0,.15.06.15.15v.3s-.07,0-.07,0v-.28c0-.06-.02-.1-.1-.1-.09,0-.12.07-.12.17v.22s-.07,0-.07,0v-.6s.06,0,.06,0v.23Z"/>
            <path d="M94.37,42.8h-.07s0-.09,0-.09h.07s0,.09,0,.09ZM94.38,43.31h-.07s0-.44,0-.44h.07s0,.44,0,.44Z"/>
            <path d="M94.71,42.94s-.01,0-.02,0c-.12,0-.14.09-.14.19v.18s-.07,0-.07,0v-.44s.06,0,.06,0v.09c.03-.07.08-.11.16-.11v.07Z"/>
            <path d="M95.16,43.3h-.07s0-.06,0-.06c-.03.05-.08.08-.14.08-.12,0-.2-.09-.21-.23,0-.12.06-.23.2-.23.06,0,.11.02.14.07v-.22s.07,0,.07,0v.6ZM94.82,43.09c0,.11.06.17.14.17s.13-.07.13-.17c0-.09-.04-.17-.14-.17-.08,0-.13.07-.13.17Z"/>
            <path d="M95.78,42.69c.11,0,.2.03.2.16,0,.07-.04.13-.1.15.08.02.09.07.09.15,0,.05,0,.11.04.14h-.09s-.02-.1-.02-.13c0-.1-.03-.13-.14-.13h-.16s0,.26,0,.26h-.08s0-.6,0-.6h.26ZM95.59,42.97h.15c.08,0,.16-.01.16-.11,0-.09-.07-.1-.14-.1h-.17s0,.21,0,.21Z"/>
            <path d="M96.48,43.06c0,.15-.07.24-.21.24-.13,0-.21-.08-.22-.23s.08-.23.21-.24.21.08.21.23ZM96.14,43.07c0,.11.05.17.14.17s.13-.07.13-.17-.06-.17-.14-.17-.14.07-.14.17Z"/>
            <path d="M96.61,42.84l.11.36.08-.36h.08s.1.36.1.36l.09-.36h.07s-.13.44-.13.44h-.08s-.1-.34-.1-.34l-.08.35h-.08s-.15-.43-.15-.43h.08Z"/>
          </g>
          <g>
            <path d="M93.65,45.34c.11,0,.2.03.21.16,0,.07-.04.13-.1.15.08.02.09.07.09.15,0,.05,0,.11.04.14h-.09s-.02-.1-.02-.13c0-.1-.03-.13-.14-.13h-.16s0,.26,0,.26h-.08s0-.6,0-.6h.26ZM93.47,45.62h.15c.08,0,.16-.01.16-.11,0-.09-.07-.1-.14-.1h-.17s0,.21,0,.21Z"/>
            <path d="M94.36,45.71c0,.15-.07.24-.21.24-.13,0-.21-.08-.22-.23s.08-.23.21-.24c.13,0,.21.08.21.23ZM94.01,45.72c0,.11.05.17.14.17s.13-.07.13-.17-.06-.17-.14-.17-.14.07-.14.17Z"/>
            <path d="M94.48,45.5l.11.36.08-.36h.08s.1.36.1.36l.09-.36h.07s-.13.44-.13.44h-.08s-.1-.34-.1-.34l-.08.35h-.08s-.15-.43-.15-.43h.08Z"/>
            <path d="M95.16,45.55c.04-.05.08-.08.14-.08.06,0,.1.02.12.07.04-.05.08-.08.14-.08.09,0,.14.05.14.14v.31s-.07,0-.07,0v-.28c0-.06-.02-.11-.09-.11-.08,0-.11.06-.11.14v.25s-.07,0-.07,0v-.28c0-.06-.02-.1-.09-.1-.1,0-.12.07-.12.15v.23s-.07,0-.07,0v-.44s.06,0,.06,0v.06Z"/>
            <path d="M96.2,45.9s-.03,0-.05,0c-.04,0-.06-.02-.06-.06-.04.05-.09.07-.16.07-.09,0-.14-.05-.14-.12s.05-.12.15-.14c.1-.01.14-.01.14-.07,0-.05-.04-.07-.1-.07s-.1.03-.11.09h-.07c0-.09.07-.15.18-.15.06,0,.11.01.14.04.03.03.03.07.03.11,0,.07,0,.13,0,.19,0,.03,0,.04.03.04,0,0,.01,0,.02,0v.06ZM95.99,45.71c-.05,0-.12.01-.12.08,0,.04.03.07.09.07.07,0,.13-.05.13-.1v-.08s-.07.02-.1.03Z"/>
            <path d="M96.33,45.53c.04-.05.08-.08.15-.08.11,0,.15.06.15.16v.29s-.07,0-.07,0v-.26c0-.07,0-.13-.1-.13-.09,0-.12.07-.12.16v.23s-.07,0-.07,0v-.44s.06,0,.06,0v.07Z"/>
            <path d="M96.93,45.9c-.14,0-.21-.09-.21-.22,0-.15.08-.24.21-.24.11,0,.17.05.19.15h-.07c-.01-.06-.05-.09-.11-.09-.08,0-.13.07-.13.17s.05.17.13.17c.07,0,.11-.04.12-.11h.07c-.01.1-.08.17-.19.17Z"/>
            <path d="M97.38,45.9c-.13,0-.21-.08-.21-.22s.08-.24.2-.24c.14,0,.2.11.2.24h0s-.33.02-.33.02h0c0,.1.05.15.14.15.06,0,.1-.03.12-.09h.07c-.02.1-.08.15-.19.15ZM97.37,45.49c-.07,0-.12.05-.13.13h.25c0-.09-.06-.14-.13-.13Z"/>
          </g>
          <g>
            <path d="M93.87,50.38h-.4s0-.6,0-.6h.08s0,.53,0,.53h.32s0,.06,0,.06Z"/>
            <path d="M94.32,50.38s-.03,0-.05,0c-.04,0-.06-.02-.06-.06-.04.05-.09.07-.16.07-.09,0-.14-.05-.14-.12s.05-.12.15-.14c.1-.01.14-.01.14-.07,0-.05-.04-.07-.1-.07s-.1.03-.11.09h-.07c0-.09.07-.15.18-.15.06,0,.11.01.14.04.03.03.03.07.03.11,0,.07,0,.13,0,.19,0,.03,0,.04.03.04,0,0,.01,0,.02,0v.06ZM94.1,50.18c-.05,0-.12.01-.12.08,0,.04.03.07.09.07.07,0,.13-.05.13-.1v-.08s-.07.02-.1.03Z"/>
            <path d="M94.63,50.06c0-.06-.05-.08-.11-.08-.05,0-.09.02-.09.06,0,.05.06.06.12.07.07.02.17.04.17.13,0,.08-.07.14-.18.14-.12,0-.18-.05-.19-.15h.07c0,.06.05.09.12.09.06,0,.11-.03.11-.07,0-.05-.05-.06-.11-.07-.08-.02-.18-.03-.18-.13,0-.08.06-.13.16-.13s.18.04.18.14h-.07Z"/>
            <path d="M94.99,49.99h-.09s0,.26,0,.26c0,.04,0,.06.05.06.01,0,.02,0,.04,0v.06s-.03,0-.05,0c-.11,0-.11-.05-.11-.15v-.23s-.08,0-.08,0v-.06s.07,0,.07,0v-.13s.07,0,.07,0v.13s.09,0,.09,0v.06Z"/>
            <path d="M95.58,49.75c.11,0,.2.03.21.16,0,.07-.04.13-.1.15.08.02.09.07.09.15,0,.05,0,.11.04.14h-.09s-.02-.1-.02-.13c0-.1-.03-.13-.14-.13h-.16s0,.26,0,.26h-.08s0-.6,0-.6h.26ZM95.4,50.04h.15c.08,0,.16-.01.16-.11,0-.09-.07-.1-.14-.1h-.17s0,.21,0,.21Z"/>
            <path d="M96.29,50.12c0,.15-.07.24-.21.24s-.21-.08-.22-.23.08-.23.21-.24c.13,0,.21.08.21.23ZM95.94,50.13c0,.11.05.17.14.17s.13-.07.13-.17-.06-.17-.14-.17-.14.07-.14.17Z"/>
            <path d="M96.41,49.91l.11.36.08-.36h.08s.1.36.1.36l.09-.36h.07s-.13.44-.13.44h-.08s-.1-.34-.1-.34l-.08.35h-.08s-.15-.43-.15-.43h.08Z"/>
          </g>
          <g>
            <path d="M93.68,47.26c.11,0,.2.03.21.16,0,.07-.04.13-.1.15.08.02.09.07.09.15,0,.05,0,.11.04.14h-.09s-.02-.1-.02-.13c0-.1-.03-.13-.14-.13h-.16s0,.26,0,.26h-.08s0-.6,0-.6h.26ZM93.5,47.54h.15c.08,0,.16-.01.16-.11,0-.09-.07-.1-.14-.1h-.17s0,.21,0,.21Z"/>
            <path d="M94.39,47.63c0,.15-.07.24-.21.24s-.21-.08-.22-.23.08-.23.21-.24c.13,0,.21.08.21.23ZM94.05,47.64c0,.11.05.17.14.17s.13-.07.13-.17-.06-.17-.14-.17-.14.07-.14.17Z"/>
            <path d="M94.52,47.42l.11.36.08-.36h.08s.1.36.1.36l.09-.36h.07s-.13.44-.13.44h-.08s-.1-.34-.1-.34l-.08.35h-.08s-.15-.43-.15-.43h.08Z"/>
            <path d="M95.51,47.83s-.03,0-.05,0c-.04,0-.06-.02-.06-.06-.04.05-.09.07-.16.07-.09,0-.14-.05-.14-.12s.05-.12.15-.14c.1-.01.14-.01.14-.07,0-.05-.04-.07-.1-.07s-.1.03-.11.09h-.07c0-.09.07-.15.18-.15.06,0,.11.01.14.04.03.03.03.07.03.11,0,.07,0,.13,0,.19,0,.03,0,.04.03.04,0,0,.01,0,.02,0v.06ZM95.3,47.64c-.05,0-.12.01-.12.09,0,.04.03.07.09.07.07,0,.13-.05.13-.1v-.08s-.07.02-.1.03Z"/>
            <path d="M95.64,47.46c.04-.05.08-.08.15-.08.11,0,.15.06.15.16v.29s-.07,0-.07,0v-.26c0-.07,0-.13-.1-.13-.09,0-.12.07-.12.16v.23s-.07,0-.07,0v-.44s.06,0,.06,0v.07Z"/>
            <path d="M96.45,47.6c0,.15-.07.24-.21.24-.13,0-.21-.08-.22-.23s.08-.23.21-.24.21.08.21.23ZM96.1,47.61c0,.11.05.17.14.17s.13-.07.13-.17-.06-.17-.14-.17-.14.07-.14.17Z"/>
            <path d="M96.57,47.38l.11.36.08-.36h.08s.1.36.1.36l.09-.36h.07s-.13.44-.13.44h-.08s-.1-.34-.1-.34l-.08.35h-.08s-.15-.43-.15-.43h.08Z"/>
          </g>
          <g>
            <path d="M93.81,52.03c-.01-.09-.06-.12-.15-.12s-.14.04-.13.1c0,.07.07.08.16.1.1.02.22.05.23.17,0,.13-.12.18-.23.19-.14,0-.25-.06-.25-.21h.08c0,.11.09.14.18.14.07,0,.15-.03.15-.11,0-.08-.08-.09-.18-.11-.1-.02-.21-.03-.21-.16s.11-.17.22-.18c.13,0,.22.06.22.19h-.08Z"/>
            <path d="M94.18,52.46c-.13,0-.21-.08-.21-.22s.08-.24.2-.24c.14,0,.2.11.2.24h0s-.33.02-.33.02h0c0,.1.05.15.14.15.06,0,.1-.03.12-.09h.07c-.02.1-.08.15-.19.15ZM94.17,52.06c-.07,0-.12.05-.13.13h.25c0-.09-.06-.14-.13-.13Z"/>
            <path d="M94.64,52.45c-.14,0-.21-.09-.21-.22,0-.15.08-.24.21-.24.11,0,.17.05.19.15h-.07c-.01-.06-.05-.09-.11-.09-.08,0-.13.07-.13.17s.05.17.13.17c.07,0,.11-.04.12-.11h.07c-.01.1-.08.17-.19.17Z"/>
            <path d="M95.31,52.21c0,.15-.07.24-.21.24s-.21-.08-.22-.23.08-.23.21-.24.21.08.21.23ZM94.96,52.22c0,.11.05.17.14.17s.13-.07.13-.17-.06-.17-.14-.17-.14.07-.14.17Z"/>
            <path d="M95.46,52.06c.04-.05.08-.08.15-.08.11,0,.15.06.15.16v.29s-.07,0-.07,0v-.26c0-.07,0-.13-.1-.13s-.12.07-.12.16v.23s-.07,0-.07,0v-.44s.06,0,.06,0v.07Z"/>
            <path d="M96.26,52.41h-.07s0-.06,0-.06c-.03.05-.08.08-.14.08-.12,0-.2-.09-.21-.23,0-.12.06-.23.2-.23.06,0,.11.02.14.07v-.22s.07,0,.07,0v.6ZM95.92,52.2c0,.11.06.17.14.17s.13-.07.13-.17c0-.09-.04-.17-.14-.17-.08,0-.13.07-.13.17Z"/>
            <path d="M96.87,51.8c.11,0,.2.03.21.16,0,.07-.04.13-.1.15.08.02.09.07.09.15,0,.05,0,.11.04.14h-.09s-.02-.1-.02-.13c0-.1-.03-.13-.14-.13h-.16s0,.26,0,.26h-.08s0-.6,0-.6h.26ZM96.69,52.08h.15c.08,0,.16-.01.16-.11,0-.09-.07-.1-.14-.1h-.17s0,.21,0,.21Z"/>
            <path d="M97.58,52.17c0,.15-.07.24-.21.24-.13,0-.21-.08-.22-.23s.08-.23.21-.24c.13,0,.21.08.21.23ZM97.23,52.18c0,.11.05.17.14.17s.13-.07.13-.17-.06-.17-.14-.17-.14.07-.14.17Z"/>
            <path d="M97.7,51.95l.11.36.08-.36h.08s.1.36.1.36l.09-.36h.07s-.13.44-.13.44h-.08s-.1-.34-.1-.34l-.08.35h-.08s-.15-.43-.15-.43h.08Z"/>
          </g>
          <g>
            <path d="M93.96,54.56h-.2s0,.54,0,.54h-.08s0-.53,0-.53h-.2s0-.07,0-.07h.48s0,.06,0,.06Z"/>
            <path d="M94.09,54.71s.08-.07.14-.08c.1,0,.15.06.15.15v.3s-.07,0-.07,0v-.28c0-.06-.02-.1-.1-.1-.09,0-.12.07-.12.17v.22s-.07,0-.07,0v-.6s.06,0,.06,0v.23Z"/>
            <path d="M94.56,54.57h-.07s0-.09,0-.09h.07s0,.09,0,.09ZM94.57,55.08h-.07s0-.44,0-.44h.07s0,.44,0,.44Z"/>
            <path d="M94.9,54.7s-.01,0-.02,0c-.12,0-.14.09-.14.19v.18s-.07,0-.07,0v-.44s.06,0,.06,0v.09c.03-.07.08-.11.16-.11v.07Z"/>
            <path d="M95.36,55.07h-.07s0-.06,0-.06c-.03.05-.08.08-.14.08-.12,0-.2-.09-.21-.23,0-.12.06-.23.2-.23.06,0,.11.02.14.07v-.22s.07,0,.07,0v.6ZM95.01,54.85c0,.11.06.17.14.17s.13-.07.13-.17c0-.09-.04-.17-.14-.17-.08,0-.13.07-.13.17Z"/>
            <path d="M95.97,54.45c.11,0,.2.03.2.16,0,.07-.04.13-.1.15.08.02.09.07.09.15,0,.05,0,.11.04.14h-.09s-.02-.1-.02-.13c0-.1-.03-.13-.14-.13h-.16s0,.26,0,.26h-.08s0-.6,0-.6h.26ZM95.79,54.74h.15c.08,0,.16-.01.16-.11,0-.09-.07-.1-.14-.1h-.17s0,.21,0,.21Z"/>
            <path d="M96.68,54.82c0,.15-.07.24-.21.24-.13,0-.21-.08-.22-.23s.08-.23.21-.24.21.08.21.23ZM96.33,54.83c0,.11.05.17.14.17s.13-.07.13-.17-.06-.17-.14-.17-.14.07-.14.17Z"/>
            <path d="M96.8,54.61l.11.36.08-.36h.08s.1.36.1.36l.09-.36h.07s-.13.44-.13.44h-.08s-.1-.34-.1-.34l-.08.35h-.08s-.15-.43-.15-.43h.08Z"/>
          </g>
          <g>
            <path d="M93.85,57.11c.11,0,.2.03.21.16,0,.07-.04.13-.1.15.08.02.09.07.09.15,0,.05,0,.11.04.14h-.09s-.02-.1-.02-.13c0-.1-.03-.13-.14-.13h-.16s0,.26,0,.26h-.08s0-.6,0-.6h.26ZM93.66,57.39h.15c.08,0,.16-.01.16-.11,0-.09-.07-.1-.14-.1h-.17s0,.21,0,.21Z"/>
            <path d="M94.55,57.48c0,.15-.07.24-.21.24s-.21-.08-.22-.23.08-.23.21-.24c.13,0,.21.08.21.23ZM94.21,57.49c0,.11.05.17.14.17s.13-.07.13-.17-.06-.17-.14-.17c-.08,0-.14.07-.14.17Z"/>
            <path d="M94.68,57.26l.11.36.08-.36h.08s.1.36.1.36l.09-.36h.07s-.13.44-.13.44h-.08s-.1-.34-.1-.34l-.08.35h-.08s-.15-.43-.15-.43h.08Z"/>
            <path d="M95.35,57.31c.04-.05.08-.08.14-.08.06,0,.1.02.12.07.04-.05.08-.08.14-.08.09,0,.14.05.14.14v.31s-.07,0-.07,0v-.28c0-.06-.02-.11-.09-.11-.08,0-.11.06-.11.14v.25s-.07,0-.07,0v-.28c0-.06-.02-.1-.09-.1-.1,0-.12.07-.12.15v.23s-.07,0-.07,0v-.44s.06,0,.06,0v.06Z"/>
            <path d="M96.39,57.67s-.03,0-.05,0c-.04,0-.06-.02-.06-.06-.04.05-.09.07-.16.07-.09,0-.14-.05-.14-.12s.05-.12.15-.14c.1-.01.14-.01.14-.07,0-.05-.04-.07-.1-.07s-.1.03-.11.09h-.07c0-.09.07-.15.18-.15.06,0,.11.01.14.04.03.03.03.07.03.11,0,.07,0,.13,0,.19,0,.03,0,.04.03.04,0,0,.01,0,.02,0v.06ZM96.18,57.47c-.05,0-.12.01-.12.08,0,.04.03.07.09.07.07,0,.13-.05.13-.1v-.08s-.07.02-.1.03Z"/>
            <path d="M96.52,57.3c.04-.05.08-.08.15-.08.11,0,.15.06.15.16v.29s-.07,0-.07,0v-.26c0-.07,0-.13-.1-.13-.09,0-.12.07-.12.16v.23s-.07,0-.07,0v-.44s.06,0,.06,0v.07Z"/>
            <path d="M97.12,57.67c-.14,0-.21-.09-.21-.22,0-.15.08-.24.21-.24.11,0,.17.05.19.15h-.07c-.01-.06-.05-.09-.11-.09-.08,0-.13.07-.13.17s.05.17.13.17c.07,0,.11-.04.12-.11h.07c-.01.1-.08.17-.19.17Z"/>
            <path d="M97.57,57.66c-.13,0-.21-.08-.21-.22s.08-.24.2-.24c.14,0,.2.11.2.24h0s-.33.02-.33.02h0c0,.1.05.15.14.15.06,0,.1-.03.12-.09h.07c-.02.1-.08.15-.19.15ZM97.56,57.26c-.07,0-.12.05-.13.13h.25c0-.09-.06-.14-.13-.13Z"/>
          </g>
          <rect class="cls-8" x="91.58" y="60.24" width="36.11" height="2.67" transform="translate(-.99 1.79) rotate(-.93)"/>
          <text/>
          <rect class="cls-1" x="133.91" y="100.47" width="18.6" height=".33" transform="translate(-1.62 2.34) rotate(-.93)"/>
          <g>
            <path class="cls-1" d="M140.4,101.58s-.01.02-.02.02c0,0-.01,0-.02,0s-.02,0-.04-.01c-.01-.01-.03-.02-.05-.03-.02-.01-.04-.02-.07-.03-.03,0-.06-.01-.1-.01s-.07,0-.1.02c-.03,0-.05.02-.07.04-.02.02-.03.04-.04.06,0,.02-.01.05-.01.07,0,.03,0,.06.03.08.02.02.04.04.07.05.03.02.06.03.1.04.04.01.07.02.11.03.04.01.07.03.11.04.04.02.07.04.1.06.03.02.05.05.07.09.02.04.03.08.03.13,0,.06,0,.11-.03.16-.02.05-.05.09-.08.13s-.08.07-.13.09-.11.03-.18.03c-.04,0-.08,0-.12,0s-.07-.02-.11-.03c-.03-.01-.07-.03-.1-.05-.03-.02-.06-.04-.08-.07l.05-.09s.01-.01.02-.02c0,0,.02,0,.03,0,.01,0,.03,0,.04.02s.04.03.06.04c.02.02.05.03.09.04.03.01.07.02.12.02.04,0,.07,0,.1-.02.03-.01.06-.03.08-.04.02-.02.04-.04.05-.07.01-.03.02-.06.02-.09,0-.04,0-.07-.03-.09-.02-.02-.04-.04-.07-.06-.03-.01-.06-.03-.1-.04s-.07-.02-.11-.03c-.04-.01-.07-.03-.11-.04s-.07-.04-.1-.06c-.03-.02-.05-.06-.07-.1-.02-.04-.03-.09-.03-.14,0-.04,0-.09.02-.13.02-.04.04-.08.07-.11.03-.03.07-.06.12-.08.05-.02.1-.03.17-.03.07,0,.14,0,.2.03.06.02.11.05.16.09l-.04.09Z"/>
            <path class="cls-1" d="M140.87,101.46s0,.03,0,.04c0,.01-.01.03-.03.04-.01.01-.02.02-.04.03-.01,0-.03,0-.05,0s-.03,0-.04,0c-.01,0-.03-.01-.04-.02-.01-.01-.02-.02-.03-.04,0-.01,0-.03,0-.04,0-.02,0-.03,0-.05,0-.01.01-.03.02-.04.01-.01.02-.02.04-.03.01,0,.03,0,.04,0s.03,0,.05,0,.03.01.04.02c.01.01.02.02.03.04,0,.01,0,.03,0,.05ZM140.84,101.74v.89s-.16,0-.16,0v-.89s.16,0,.16,0Z"/>
            <path class="cls-1" d="M141.85,101.76v.06s-.01.03-.04.04l-.1.02s.02.04.02.06,0,.04,0,.06c0,.04,0,.08-.02.12s-.04.07-.07.09-.06.05-.11.06-.09.02-.14.02c-.04,0-.08,0-.11-.01-.02.01-.03.02-.04.04s-.01.02-.01.04c0,.02,0,.04.03.05s.04.02.07.02c.03,0,.06,0,.1,0,.04,0,.07,0,.11,0,.04,0,.07,0,.11.01.04,0,.07.02.1.03.03.01.05.03.07.06.02.02.03.06.03.1,0,.04,0,.08-.03.11-.02.04-.05.07-.08.1-.04.03-.08.05-.13.07s-.11.03-.18.03-.12,0-.17-.02c-.05-.01-.09-.03-.12-.05-.03-.02-.06-.05-.07-.07-.02-.03-.02-.06-.03-.09,0-.04.01-.08.04-.11.03-.03.06-.05.11-.07-.03-.01-.05-.03-.06-.05-.02-.02-.02-.05-.02-.08,0-.01,0-.03,0-.04,0-.01.01-.03.02-.04.01-.01.02-.03.04-.04.01-.01.03-.02.05-.03-.04-.02-.08-.06-.1-.1-.03-.04-.04-.09-.04-.14,0-.04,0-.08.02-.12s.04-.07.07-.09c.03-.03.07-.05.11-.06.04-.01.09-.02.14-.02.08,0,.14.01.2.04h.25ZM141.69,102.67s0-.04-.02-.05-.03-.02-.05-.03c-.02,0-.04-.01-.07-.01-.03,0-.06,0-.08,0-.03,0-.06,0-.09,0-.03,0-.06,0-.09,0-.03.02-.05.03-.07.06-.02.02-.03.05-.03.08,0,.02,0,.04.02.05,0,.02.02.03.05.04.02.01.05.02.08.03.03,0,.07,0,.11,0s.08,0,.11-.01c.03,0,.06-.02.08-.03.02-.01.04-.03.05-.05s.02-.04.02-.06ZM141.41,102.18s.06,0,.08-.01c.02,0,.04-.02.06-.04.02-.02.03-.03.03-.06,0-.02.01-.04.01-.07,0-.05-.02-.09-.05-.12-.03-.03-.08-.05-.14-.04s-.1.02-.14.05c-.03.03-.05.07-.04.12,0,.03,0,.05.01.07,0,.02.02.04.04.05.02.01.04.03.06.03.02,0,.05.01.08.01Z"/>
            <path class="cls-1" d="M142.17,101.84s.04-.04.06-.06c.02-.02.04-.03.07-.04.02-.01.05-.02.08-.03.03,0,.06-.01.09-.01.05,0,.09,0,.13.02s.07.04.09.07.04.06.06.11c.01.04.02.09.02.14v.57s-.16,0-.16,0v-.57c-.01-.06-.03-.11-.06-.15-.03-.03-.08-.05-.14-.05-.04,0-.08.01-.12.03-.04.02-.07.05-.11.09v.65s-.16,0-.16,0v-.89s.09,0,.09,0c.02,0,.04.01.05.03l.02.09Z"/>
            <path class="cls-1" d="M142.97,101.83s.1-.09.16-.11c.06-.02.12-.04.19-.04.05,0,.1,0,.14.02s.07.04.1.07c.03.03.05.06.06.11.01.04.02.09.02.14v.57s-.07,0-.07,0c-.02,0-.03,0-.04,0,0,0-.02-.02-.02-.03l-.02-.08s-.05.04-.07.06c-.02.02-.05.03-.07.04s-.05.02-.08.03c-.03,0-.06,0-.09,0-.04,0-.07,0-.1-.01-.03,0-.06-.02-.08-.04-.02-.02-.04-.04-.05-.07-.01-.03-.02-.06-.02-.1,0-.04,0-.07.03-.1.02-.03.05-.06.09-.09.04-.03.1-.05.17-.07.07-.02.15-.03.26-.03v-.07c0-.07-.02-.12-.05-.15s-.07-.05-.13-.05c-.04,0-.07,0-.09.02-.03,0-.05.02-.07.03s-.03.02-.05.03-.03.02-.04.02c-.01,0-.02,0-.03,0,0,0-.02-.01-.02-.02l-.03-.05ZM143.48,102.19c-.07,0-.13,0-.18.02-.05,0-.09.02-.12.04-.03.02-.05.03-.07.05-.01.02-.02.04-.02.06s0,.04.01.06.02.03.03.04.03.02.04.02.04,0,.06,0c.03,0,.05,0,.07,0,.02,0,.04-.01.06-.02.02-.01.04-.02.05-.04.02-.01.03-.03.05-.05v-.18Z"/>
            <path class="cls-1" d="M144.15,102.59c-.07,0-.13-.02-.17-.06-.04-.04-.06-.1-.06-.17v-.53s-.11,0-.11,0c-.01,0-.02,0-.03,0s-.01-.01-.01-.03v-.07s.14-.02.14-.02l.03-.27s0-.02.01-.02c0,0,.01,0,.03,0h.09s0,.3,0,.3h.25s0,.12,0,.12h-.25s0,.53,0,.53c0,.04,0,.06.03.08s.04.02.07.02c.02,0,.03,0,.04,0s.02,0,.03-.01c0,0,.01,0,.02-.01,0,0,.01,0,.02,0,0,0,.01,0,.01,0,0,0,0,0,.01.01l.05.08s-.06.05-.1.06c-.04.01-.08.02-.12.02Z"/>
            <path class="cls-1" d="M145.23,101.67v.89s-.09,0-.09,0c-.02,0-.04-.01-.05-.03v-.09s-.05.04-.07.06c-.02.02-.04.03-.07.04-.02.01-.05.02-.08.03-.03,0-.06.01-.09.01-.05,0-.09,0-.13-.02-.04-.02-.07-.04-.09-.07-.03-.03-.05-.06-.06-.11-.01-.04-.02-.09-.02-.14v-.57s.16,0,.16,0v.57c.01.06.03.11.06.15.03.04.07.05.13.05.04,0,.08-.01.12-.03.04-.02.07-.05.11-.09v-.65s.16,0,.16,0Z"/>
            <path class="cls-1" d="M145.64,101.83c.03-.06.06-.11.1-.14s.09-.05.15-.05c.02,0,.04,0,.06,0s.03,0,.04.02v.13s-.02.02-.04.02c0,0-.02,0-.04,0-.02,0-.03,0-.05,0-.03,0-.05,0-.07.01-.02,0-.04.02-.06.04-.02.02-.03.04-.04.06-.01.02-.02.05-.03.08v.56s-.16,0-.16,0v-.89s.08,0,.08,0c.02,0,.03,0,.04,0,0,0,.01.02.01.04v.12Z"/>
            <path class="cls-1" d="M146.83,102.41s-.05.05-.07.06c-.03.02-.06.03-.09.04-.03.01-.06.02-.1.03-.03,0-.07,0-.1,0-.06,0-.12,0-.17-.03-.05-.02-.1-.05-.14-.09-.04-.04-.07-.09-.09-.15-.02-.06-.03-.13-.04-.2,0-.06,0-.12.03-.17s.05-.1.08-.14c.03-.04.08-.07.13-.1.05-.02.11-.04.18-.04.05,0,.1,0,.15.03.05.02.09.04.12.08.03.03.06.07.08.12.02.05.03.11.03.17,0,.03,0,.04,0,.05,0,0-.02.01-.03.01h-.58c0,.06.01.11.03.15.01.04.03.07.06.1.02.03.05.04.09.06.03.01.07.02.11.02.04,0,.07,0,.1-.01s.05-.02.07-.03.04-.02.05-.03.03-.01.04-.01c.01,0,.03,0,.03.01l.05.06ZM146.68,101.99s0-.07-.02-.09c0-.03-.02-.05-.04-.07-.02-.02-.04-.04-.07-.05-.03-.01-.06-.02-.09-.02-.07,0-.13.02-.17.07-.04.04-.07.1-.07.17h.47Z"/>
          </g>
        </g>
      </g>
      <g>
        <path class="cls-7" d="M47.97,62.83c2.4-2.93,5.01-5.67,7.81-8.18,1.27-1.14,2.6-2.25,4.11-2.97,1.98-.94,4.16-1.19,6.29-1.42,7.29-.78,14.88-1.03,22.73-1.25,2.93-.08,3.05.89,3.09,2.65.03,1.22-.46,2.44-1.35,3.3-3.23,3.15-8.17,2.71-12.89,3.31-1.46.18-1.91,1.11-3.49,2.09-3.14,1.96-6.21,2.95-6.34,3.67-1.88,11.26,3.39,17.22-7.97,26.33-2.79,2.24-4.65-8.78-8-9.35l-12.05,2.15c-.92-2.25,3.13-11.68,4.04-14.02.91-2.34,2.42-4.38,4-6.31Z"/>
        <path class="cls-4" d="M67.02,83.22c-1.74,5.5-5.59,10.23-10.62,13.05-.25.14-.47-.25-.22-.39,4.93-2.77,8.7-7.4,10.4-12.78.09-.27.52-.16.43.12h0Z"/>
        <path class="cls-4" d="M42.43,74.11c-.32,2.86-.46,5.74-.41,8.61,0,.29-.44.29-.45,0-.05-2.88.09-5.75.41-8.61.03-.28.48-.28.45,0h0Z"/>
        <path class="cls-4" d="M90.81,50.69c-2.31,1.58-7.17,2.11-8.44-1.06-.11-.27.33-.38.43-.11.59,1.48,2.24,1.97,3.7,1.95,1.43-.02,2.9-.35,4.09-1.16.24-.16.45.23.22.39h0Z"/>
        <path class="cls-4" d="M77.62,58.29c-3.75,2.7-7.69,5.49-12.36,6.22-.28.04-.4-.39-.11-.43,4.63-.73,8.54-3.51,12.25-6.18.23-.17.45.22.22.39h0Z"/>
        <path class="cls-4" d="M68.17,64.03c-.4,4.34-.53,8.7-.4,13.06,0,.29-.44.29-.45,0-.14-4.36,0-8.72.4-13.06.03-.28.47-.28.45,0h0Z"/>
        <path class="cls-4" d="M85.45,57.62c-2.69.68-5.46.91-8.23.67-.28-.02-.29-.47,0-.45,2.72.24,5.46.02,8.11-.66.28-.07.39.36.11.43h0Z"/>
        <path class="cls-4" d="M75.85,49.06c-4.05.97-8.11,1.94-12.16,2.92-.28.07-.39-.36-.11-.43,4.05-.97,8.11-1.94,12.16-2.92.28-.07.39.37.11.43h0Z"/>
      </g>
    </g>
  </g>
</svg>