<?xml version="1.0" encoding="UTF-8"?>
<svg xmlns="http://www.w3.org/2000/svg" xmlns:xlink="http://www.w3.org/1999/xlink" viewBox="0 0 296.11 218.46">
  <defs>
    <style>
      .cls-1 {
        fill: url(#linear-gradient-15);
      }

      .cls-2 {
        fill: url(#linear-gradient-13);
      }

      .cls-3 {
        fill: url(#linear-gradient-10);
      }

      .cls-4 {
        fill: #fff;
      }

      .cls-5 {
        stroke: url(#linear-gradient-11);
      }

      .cls-5, .cls-6, .cls-7, .cls-8, .cls-9, .cls-10 {
        fill: none;
      }

      .cls-5, .cls-6, .cls-11, .cls-9, .cls-10 {
        opacity: .25;
      }

      .cls-5, .cls-6, .cls-9, .cls-10 {
        stroke-miterlimit: 10;
        stroke-width: 3.03px;
      }

      .cls-12 {
        fill: #e2e2e2;
      }

      .cls-6 {
        stroke: url(#linear-gradient-2);
      }

      .cls-13 {
        fill: url(#linear-gradient-4);
      }

      .cls-14 {
        opacity: .15;
      }

      .cls-14, .cls-11 {
        mix-blend-mode: overlay;
      }

      .cls-15 {
        fill: url(#linear-gradient-3);
      }

      .cls-16 {
        clip-path: url(#clippath-1);
      }

      .cls-17 {
        fill: url(#linear-gradient-5);
      }

      .cls-18 {
        isolation: isolate;
      }

      .cls-19 {
        fill: #b1c3dd;
      }

      .cls-8 {
        stroke: url(#linear-gradient-9);
        stroke-linecap: round;
        stroke-linejoin: round;
        stroke-width: 2.42px;
      }

      .cls-20 {
        fill: url(#linear-gradient-8);
      }

      .cls-9 {
        stroke: url(#linear-gradient-12);
      }

      .cls-21 {
        fill: url(#linear-gradient-14);
      }

      .cls-22 {
        fill: url(#linear-gradient-17);
      }

      .cls-23 {
        fill: url(#linear-gradient-7);
      }

      .cls-10 {
        stroke: url(#linear-gradient);
      }

      .cls-24 {
        fill: url(#linear-gradient-6);
      }

      .cls-25 {
        fill: url(#linear-gradient-16);
      }

      .cls-26 {
        clip-path: url(#clippath);
      }
    </style>
    <linearGradient id="linear-gradient" x1="109.66" y1="46.92" x2="126.69" y2="46.92" gradientUnits="userSpaceOnUse">
      <stop offset="0" stop-color="#25314c"/>
      <stop offset="1" stop-color="#44536d"/>
    </linearGradient>
    <linearGradient id="linear-gradient-2" x1="264.38" y1="126.26" x2="281.41" y2="126.26" xlink:href="#linear-gradient"/>
    <linearGradient id="linear-gradient-3" x1="192.51" y1="142.36" x2="103.49" y2="39.54" xlink:href="#linear-gradient"/>
    <clipPath id="clippath">
      <path class="cls-7" d="M99.65,125.25c14.97,2.25-16.32,57.35,4.75,71.89,21.07,14.54,109.06-147.77,114.62-167.06,5.56-19.29-8.94-27.89-33.59-9.5-24.65,18.4-8.03-5.34-35.03,1.19-27,6.53-94.66,96.88-50.74,103.48Z"/>
    </clipPath>
    <linearGradient id="linear-gradient-4" x1="245.89" y1="217.19" x2="244.56" y2="145.53" xlink:href="#linear-gradient"/>
    <clipPath id="clippath-1">
      <path class="cls-7" d="M247.52,141.04c-27.71,12.74-35.01,69.22-12.17,66.85,22.85-2.37,54.3-86.22,12.17-66.85Z"/>
    </clipPath>
    <linearGradient id="linear-gradient-5" x1="209.37" y1="70.36" x2="182.58" y2="124.82" gradientTransform="translate(70.69 -65.2) rotate(25.09)" gradientUnits="userSpaceOnUse">
      <stop offset="0" stop-color="#f5f7fa"/>
      <stop offset="1" stop-color="#b1c3dd"/>
    </linearGradient>
    <linearGradient id="linear-gradient-6" x1="135.13" y1="85.39" x2="246.14" y2="165.14" gradientTransform="translate(70.05 -68.08) rotate(25.09)" xlink:href="#linear-gradient-5"/>
    <linearGradient id="linear-gradient-7" x1="191.49" y1="9.53" x2="240.74" y2="272.44" gradientUnits="userSpaceOnUse">
      <stop offset="0" stop-color="#abff83"/>
      <stop offset="1" stop-color="#4a75ae"/>
    </linearGradient>
    <linearGradient id="linear-gradient-8" x1="187.52" y1="67.4" x2="168.53" y2="160.57" xlink:href="#linear-gradient"/>
    <linearGradient id="linear-gradient-9" x1="150.58" y1="120.7" x2="218.67" y2="120.7" gradientUnits="userSpaceOnUse">
      <stop offset="0" stop-color="#ffbda2"/>
      <stop offset="1" stop-color="#ff707c"/>
    </linearGradient>
    <linearGradient id="linear-gradient-10" x1="137.47" y1="91.85" x2="153.21" y2="200.89" gradientTransform="translate(67.79 -48.42) rotate(25.09)" xlink:href="#linear-gradient-7"/>
    <linearGradient id="linear-gradient-11" x1="252.63" y1="65.76" x2="234.72" y2="45.07" xlink:href="#linear-gradient"/>
    <linearGradient id="linear-gradient-12" x1="155.34" y1="211.78" x2="137.43" y2="191.09" xlink:href="#linear-gradient"/>
    <linearGradient id="linear-gradient-13" x1="160.82" y1="38.09" x2="228.87" y2="74.52" gradientTransform="translate(42.39 -77.46) rotate(25.09)" xlink:href="#linear-gradient-9"/>
    <linearGradient id="linear-gradient-14" x1="2159.65" y1="-2373.13" x2="2154.1" y2="-2343.2" gradientTransform="translate(-813.8 3189.52) rotate(-25.11)" xlink:href="#linear-gradient-5"/>
    <linearGradient id="linear-gradient-15" x1="2165.07" y1="-2372.78" x2="2203.33" y2="-2333.07" gradientTransform="translate(-813.8 3189.52) rotate(-25.11)" xlink:href="#linear-gradient-5"/>
    <linearGradient id="linear-gradient-16" x1="11580.2" y1="-4534.48" x2="11601.06" y2="-4523.3" gradientTransform="translate(10317.7 -5472.89) rotate(130.38) scale(1.1 -.91) skewX(20.68)" xlink:href="#linear-gradient-5"/>
    <linearGradient id="linear-gradient-17" x1="2172.47" y1="-2372.05" x2="2175.36" y2="-2330.04" gradientTransform="translate(-813.8 3189.52) rotate(-25.11)" xlink:href="#linear-gradient-9"/>
  </defs>
  <g class="cls-18">
    <g id="Layer_2" data-name="Layer 2">
      <g id="Layer_1-2" data-name="Layer 1">
        <g>
          <circle class="cls-10" cx="118.18" cy="46.92" r="7"/>
          <circle class="cls-6" cx="272.9" cy="126.26" r="7"/>
          <path class="cls-4" d="M267.45,88.85c1.17,0,1.17-1.82,0-1.82s-1.17,1.82,0,1.82h0Z"/>
          <g>
            <path class="cls-15" d="M99.65,125.25c14.97,2.25-16.32,57.35,4.75,71.89,21.07,14.54,109.06-147.77,114.62-167.06,5.56-19.29-8.94-27.89-33.59-9.5-24.65,18.4-8.03-5.34-35.03,1.19-27,6.53-94.66,96.88-50.74,103.48Z"/>
            <g class="cls-14">
              <g class="cls-26">
                <g>
                  <path class="cls-4" d="M234.54,8.86c-1.99,8.56-4.24,17.2-8.31,25.04s-10.19,14.47-18.34,18.36-17.87,5.28-27.05,6.09c-10.57.93-21.17,1.53-31.75,2.2-21.44,1.35-42.92,2.77-64.14,6.23-10.52,1.71-20.97,3.92-31.22,6.88-9.1,2.63-18.11,5.93-26.3,10.75-7.86,4.62-14.88,10.67-19.9,18.33C2.77,110.01-.24,118.66.01,127.41c.06,2.15.33,4.29.77,6.39.24,1.14,1.99.66,1.75-.48-1.86-8.86.1-18.03,4.33-25.93s11.04-14.76,18.8-19.77,16.99-8.72,26.11-11.49c10.02-3.05,20.29-5.31,30.61-7.09,21.26-3.67,42.81-5.16,64.32-6.52,10.64-.67,21.28-1.3,31.91-2.16,9.01-.73,18.2-1.73,26.69-5.02s15.01-8.57,19.84-15.94,7.44-15.44,9.59-23.67c.55-2.12,1.07-4.25,1.56-6.38.26-1.14-1.49-1.62-1.75-.48h0Z"/>
                  <path class="cls-4" d="M79.62,78.7c11.66-1.12,23.32-2.24,34.97-3.36,5.45-.52,10.98-1.37,16.46-1.47,4.36-.08,9.36,1.34,9.61,6.51s-3.61,8.44-7.65,10.53c-4.62,2.39-9.77,3.78-14.8,4.99-9.78,2.36-20,3.84-28.9,8.8-8.15,4.54-15.25,11.89-16.28,21.53-.12,1.16,1.69,1.15,1.82,0,.98-9.23,8.24-16.15,16.03-20.32,9.41-5.04,20.27-6.25,30.46-8.92,8-2.1,20.8-5.67,21.14-15.9.15-4.47-2.9-7.82-7.17-8.7-2.13-.44-4.32-.4-6.48-.23-2.85.22-5.69.54-8.53.81-13.56,1.3-27.12,2.61-40.68,3.91-1.15.11-1.16,1.93,0,1.82h0Z"/>
                  <path class="cls-4" d="M73.07,153.9c9.45-8.33,19.3-16.99,31.23-21.56,2.93-1.12,5.96-1.98,9.06-2.5s6.3-.69,9.46-.94c5.82-.46,11.97-1.15,16.86-4.64s7.27-8.44,9.6-13.49c2.44-5.3,4.92-10.43,8.72-14.92,7.43-8.8,18.02-14.9,29.45-16.57,13.63-1.99,27.99,2.36,38.28,11.48.87.77,2.16-.51,1.28-1.28-9.2-8.15-21.4-12.65-33.7-12.47-11.71.17-23.04,4.82-31.76,12.59-4.35,3.88-8.04,8.54-10.74,13.71s-4.62,11.14-8.36,15.83c-4.01,5.02-9.8,6.91-15.99,7.62s-12.63.75-18.77,2.54c-13.93,4.07-25.23,13.92-35.89,23.33-.88.77.41,2.06,1.28,1.28h0Z"/>
                  <path class="cls-4" d="M201.94,96.65c-9.84-.8-19.84,1.93-28.05,7.38-4.01,2.66-7.59,5.95-10.52,9.76-3.12,4.06-5.33,8.67-7.64,13.21s-4.77,9.15-8.42,12.79-8.68,6.1-13.75,7.63c-10.73,3.22-22.29,2.98-32.7,7.37-9.57,4.04-18.55,13.97-15.6,25.08.3,1.13,2.05.65,1.75-.48-2.67-10.04,5.6-19.01,14.15-22.76,9.96-4.37,21.14-4.22,31.52-7.06,4.76-1.3,9.42-3.21,13.35-6.24s6.7-6.98,9.06-11.21,4.44-8.98,7.03-13.26,5.73-7.86,9.52-10.93c8.45-6.83,19.47-10.32,30.3-9.44,1.17.09,1.16-1.72,0-1.82h0Z"/>
                  <path class="cls-4" d="M84.7,206.49c3.34-10.09,9.3-19.68,18.37-25.54,8.82-5.7,20.19-7.59,29.86-2.87,4.98,2.43,9.11,6.32,11.52,11.33.51,1.05,2.07.13,1.57-.92-4.52-9.39-14.81-14.99-25.06-14.95-11.61.05-22.26,6.52-29.23,15.53-3.92,5.07-6.77,10.86-8.78,16.93-.37,1.11,1.39,1.59,1.75.48h0Z"/>
                  <path class="cls-4" d="M110.8,31.92c3.76,8.19,13.25,12.93,22.03,10.68,4.26-1.09,8.14-3.65,10.8-7.15,3.18-4.17,3.93-9.34,5.04-14.32s3.22-10.96,8.58-12.72c1.11-.36.63-2.12-.48-1.75-9.49,3.12-9.25,14.68-11.88,22.49-2.95,8.76-12.46,14.24-21.48,11.5-4.86-1.48-8.92-5.03-11.04-9.64-.49-1.06-2.05-.14-1.57.92h0Z"/>
                  <path class="cls-4" d="M211.34.13c-18.67,10.73-36.3,23.25-52.56,37.35-1.69,1.47-3.73,3.11-4.16,5.45-.33,1.82.64,3.48,2.25,4.31,1.76.91,3.85.87,5.77.84,2.95-.04,5.9-.11,8.85-.19,11.64-.35,23.27-1.07,34.86-2.16,12.98-1.22,25.92-2.9,38.78-5.03,1.15-.19.66-1.94-.48-1.75-21.69,3.59-43.58,5.87-65.54,6.84-5.49.24-10.98.4-16.48.48-1.77.02-4.28.23-5.65-1.14-1.95-1.95.99-4.54,2.39-5.76,7.72-6.76,15.79-13.14,24.12-19.14,9.26-6.67,18.87-12.85,28.76-18.53,1.01-.58.1-2.15-.92-1.57h0Z"/>
                  <path class="cls-4" d="M217.44,8.28c-.38,6.11-6.13,10.1-11.27,12.31-5.51,2.37-11.59,3.59-16.43,7.33-1.9,1.47-4.61,3.93-3.82,6.65s5.22,2.9,7.53,3.26c6.89,1.06,13.89,1.25,20.83.53,7.98-.83,15.8-2.81,23.2-5.92,1.06-.45.6-2.2-.48-1.75-12.51,5.26-26.25,7.28-39.74,5.83-1.7-.18-3.4-.43-5.09-.73-1.2-.21-3.33-.26-4.22-1.24-1.12-1.24.61-3.13,1.46-3.96,1.13-1.1,2.4-2,3.76-2.79,4.9-2.82,10.54-3.89,15.57-6.42s10.13-6.94,10.52-13.11c.07-1.17-1.74-1.16-1.82,0h0Z"/>
                </g>
              </g>
            </g>
          </g>
          <g>
            <path class="cls-13" d="M247.52,141.04c-27.71,12.74-35.01,69.22-12.17,66.85,22.85-2.37,54.3-86.22,12.17-66.85Z"/>
            <g class="cls-14">
              <g class="cls-16">
                <g>
                  <path class="cls-4" d="M213.77,129.42c5.45,12.88,18.94,19.86,31.93,22.81,8.22,1.86,16.65,2.49,25.01,3.42,7.44.83,15.76,1.62,20.29,8.41,5.14,7.69,3.5,17.39-.1,25.34-.48,1.06,1.09,1.98,1.57.92,3.19-7.04,5.03-15.17,2.34-22.68-1.17-3.26-3.11-6.28-5.82-8.47-2.86-2.31-6.38-3.51-9.95-4.2-8.31-1.61-16.85-1.83-25.22-3.08-7.76-1.16-15.5-3.01-22.45-6.77s-12.93-9.27-16.03-16.62c-.45-1.07-2.02-.15-1.57.92h0Z"/>
                  <path class="cls-4" d="M274.25,162.7c-5.61,1.78-11.29,2.2-17.14,1.73-4.19-.34-9.09-.86-12.76,1.67-4.09,2.82-4.59,8.01-3.81,12.53.5,2.89,1.36,5.7,1.91,8.58s.94,6.04,1.13,9.09c.4,6.66-.1,13.34-1.48,19.87-.24,1.14,1.51,1.63,1.75.48,2.31-10.92,2.22-22.27-.34-33.15-1.1-4.7-3.14-10.96.75-14.98,3.15-3.25,8.38-2.65,12.47-2.32,6.14.49,12.1.1,17.99-1.77,1.11-.35.64-2.11-.48-1.75h0Z"/>
                  <path class="cls-4" d="M253.38,208.72c-.66-4.69-1.33-9.39-1.99-14.08-.32-2.27-.64-4.53-.96-6.8-.3-2.1-.91-4.52-.24-6.61,1.22-3.83,6.48-4.67,9.9-4.91,4.39-.31,8.81.5,12.81,2.35,1.05.49,1.98-1.08.92-1.57-6.26-2.9-14.43-3.91-20.89-.99-2.89,1.3-4.75,3.68-4.82,6.91-.04,1.85.35,3.72.61,5.55.3,2.1.6,4.21.89,6.31.68,4.77,1.35,9.55,2.03,14.32.16,1.15,1.91.66,1.75-.48h0Z"/>
                  <path class="cls-4" d="M218.67,154.5c4.02,1.6,8.46,3.36,10.9,7.17,2.3,3.59,1.52,7.36-.87,10.65s-5.29,5.73-7.55,8.93-4.06,6.85-5.27,10.63c-1.4,4.38-2,8.99-1.78,13.58.05,1.16,1.87,1.17,1.82,0-.41-8.85,2.37-17.79,7.89-24.75,2.46-3.1,5.62-5.69,7.57-9.18s1.93-7.41-.23-10.78c-2.72-4.25-7.48-6.22-11.98-8-1.09-.43-1.56,1.33-.48,1.75h0Z"/>
                  <path class="cls-4" d="M217.56,210.78c2.17-6.89,5.74-13.45,10.58-18.83,1.01-1.12,2.78-2.92,4.45-2.17,1.48.67,1.64,2.83,1.76,4.23.32,3.71.14,7.47-.55,11.13-.79,4.18-2.21,8.2-4.21,11.95-.55,1.03,1.02,1.95,1.57.92,4.04-7.57,5.99-16.53,4.9-25.09-.19-1.51-.6-3.13-1.78-4.18s-2.9-1.13-4.35-.47c-1.79.81-3.09,2.4-4.3,3.88-1.36,1.66-2.62,3.39-3.78,5.2-2.58,4.03-4.58,8.41-6.02,12.97-.35,1.12,1.4,1.6,1.75.48h0Z"/>
                  <path class="cls-4" d="M234.6,133.56c9.36,11.8,25.18,16.98,39.7,12.98,4.18-1.15,8.15-3.02,11.7-5.51.95-.67.04-2.24-.92-1.57-12.05,8.43-28.19,8.79-40.53.75-3.31-2.16-6.22-4.85-8.67-7.94-.73-.92-2,.38-1.28,1.28h0Z"/>
                </g>
              </g>
            </g>
          </g>
          <g>
            <rect class="cls-17" x="145.61" y="60.31" width="72.52" height="131.9" rx="9.76" ry="9.76" transform="translate(-36.38 89.02) rotate(-25.09)"/>
            <rect class="cls-24" x="151.76" y="57.44" width="72.52" height="131.9" rx="10.01" ry="10.01" transform="translate(-34.58 91.36) rotate(-25.09)"/>
            <path class="cls-12" d="M238.77,160.33l-18.42,8.62-3.41,1.59-7.73,3.62-3.4,1.59-21.93,10.26c-1.67.78-3.65.06-4.43-1.6l-13.66-29.18-1.64-3.51-2.28-4.87-.86-1.84-3.08-6.58-4.42-9.43-19.57-41.81c-.03-.06-.05-.12-.08-.17-.65-1.63.07-3.5,1.68-4.25l14.28-6.68,3.64-1.7,36.98-17.31c1.61-.75,3.51-.11,4.34,1.43.03.05.06.12.08.17l6.1,13.03,1.67,3.56,6.68,14.27,16.29,34.79,2.46,5.27,1.59,3.39,10.74,22.93c.78,1.67.06,3.65-1.6,4.43Z"/>
            <g>
              <path class="cls-19" d="M154.36,70.45c.12.27,0,.58-.26.71s-.58,0-.71-.26,0-.58.26-.71.58,0,.71.26Z"/>
              <path class="cls-19" d="M169.63,63.89l-12.35,5.78c-.27.12-.58,0-.71-.26h0c-.12-.27,0-.58.26-.71l12.35-5.78c.27-.12.58,0,.71.26h0c.12.27,0,.58-.26.71Z"/>
            </g>
            <path class="cls-11" d="M238.2,151.26l2.17,4.64c.78,1.67.06,3.65-1.6,4.43l-54.89,25.7c-1.67.78-3.65.06-4.43-1.6l-2.17-4.64,60.92-28.52Z"/>
            <path class="cls-11" d="M194.77,58.5l-60.91,28.52c-.65-1.63.07-3.5,1.68-4.25l54.89-25.7c1.61-.75,3.51-.11,4.34,1.43Z"/>
            <g>
              <path class="cls-11" d="M203.03,172.39c.36.78.03,1.71-.75,2.07-.78.36-1.71.03-2.07-.75-.36-.78-.03-1.71.75-2.07.78-.36,1.71-.03,2.07.75Z"/>
              <path class="cls-11" d="M210.95,168.69c.36.78.03,1.71-.75,2.07-.78.36-1.71.03-2.07-.75-.36-.78-.03-1.71.75-2.07.78-.36,1.71-.03,2.07.75Z"/>
              <path class="cls-11" d="M218.87,164.98c.36.78.03,1.71-.75,2.07-.78.36-1.71.03-2.07-.75-.36-.78-.03-1.71.75-2.07.78-.36,1.71-.03,2.07.75Z"/>
            </g>
            <polygon class="cls-23" points="226.83 126.97 209.21 132.38 192.83 87.94 203.65 77.45 226.83 126.97"/>
            <g>
              <polygon class="cls-4" points="157.93 138.43 153.51 129 149.82 76.08 153.46 74.37 156.15 113.05 156.15 113.06 156.43 117.01 157.93 138.43"/>
              <polygon class="cls-4" points="202.62 75.26 190.21 86.72 187.23 89.47 179.48 96.62 176.52 99.35 156.87 117.49 156.43 117.01 154.33 114.73 156.15 113.06 156.15 113.05 200.95 71.7 202.62 75.26"/>
              <polygon class="cls-4" points="209.22 174.16 205.82 175.76 195.91 149.92 194.54 146.35 176.52 99.35 175.53 96.77 179.03 95.43 179.48 96.62 209.22 174.16"/>
              <polygon class="cls-4" points="229.64 132.97 213.79 139.89 212.3 136.46 228.06 129.58 229.64 132.97"/>
              <polygon class="cls-4" points="220.35 168.95 216.94 170.55 187.23 89.47 186.26 86.84 189.78 85.55 190.21 86.72 220.35 168.95"/>
              <polygon class="cls-4" points="197.43 149.65 195.91 149.92 165.79 155.24 164.15 151.72 194.54 146.35 196.77 145.96 197.43 149.65"/>
            </g>
            <polygon class="cls-20" points="191.11 144.25 162.85 148.95 161.01 145.01 157.93 118.18 175.53 103.32 191.11 144.25"/>
            <polyline class="cls-8" points="217.45 165.64 188.02 86.19 154.41 116.7 151.79 75.75"/>
          </g>
          <rect class="cls-3" x="124.7" y="110.13" width="36" height="36" rx="4.89" ry="4.89" transform="translate(-40.86 72.59) rotate(-25.09)"/>
          <path class="cls-5" d="M226.83,52.04l5.35,5.35c.77.77,2.03.77,2.8,0l3.93-3.93c.77-.77,2.03-.77,2.8,0l3.95,3.95c.77.77,2.03.77,2.8,0l3.92-3.92c.77-.77,2.03-.77,2.8,0l5.31,5.31"/>
          <path class="cls-9" d="M129.55,198.06l5.35,5.35c.77.77,2.03.77,2.8,0l3.93-3.93c.77-.77,2.03-.77,2.8,0l3.95,3.95c.77.77,2.03.77,2.8,0l3.92-3.92c.77-.77,2.03-.77,2.8,0l5.31,5.31"/>
          <g>
            <rect class="cls-2" x="177.26" y="38.53" width="36" height="36" rx="4.89" ry="4.89" transform="translate(-5.55 88.12) rotate(-25.09)"/>
            <path class="cls-4" d="M199.1,46.41h0c-4.36-2.12-9.61-.31-11.73,4.05h0c-2.12,4.36-.31,9.61,4.05,11.73l7.89,3.84,3.84-7.89c2.12-4.36.31-9.61-4.05-11.73ZM196.06,56.6c-1.27.44-2.66-.24-3.09-1.51-.44-1.27.24-2.66,1.51-3.09,1.27-.44,2.66.24,3.09,1.51.44,1.27-.24,2.66-1.51,3.09Z"/>
          </g>
          <g>
            <g>
              <polygon class="cls-21" points="144.14 139.5 136.31 139.59 129.14 124.29 136.96 124.2 144.14 139.5"/>
              <polygon class="cls-1" points="156.98 133.48 149.16 133.57 141.98 118.27 149.81 118.18 156.98 133.48"/>
              <polygon class="cls-25" points="144.1 139.52 149.17 133.56 142 118.26 136.93 124.22 144.1 139.52"/>
            </g>
            <path class="cls-22" d="M150.17,120.35h0c-1.82-.7-3.87.21-4.58,2.03h0c-.7,1.82.21,3.87,2.03,4.58l3.3,1.27,1.27-3.3c.7-1.82-.21-3.87-2.03-4.58ZM149.3,124.55c-.5.22-1.08,0-1.3-.5-.22-.5,0-1.08.5-1.3.5-.22,1.08,0,1.3.5.22.5,0,1.08-.5,1.3Z"/>
          </g>
        </g>
      </g>
    </g>
  </g>
</svg>