<?xml version="1.0" encoding="UTF-8"?><svg id="uuid-0afaa51a-2401-4019-b2e8-4144247b69e2" xmlns="http://www.w3.org/2000/svg" viewBox="0 0 580 580"><defs><style>.uuid-bf11bccc-a039-4a9b-845a-1f2c9a75aa31{fill:#fff;}</style></defs><path class="uuid-bf11bccc-a039-4a9b-845a-1f2c9a75aa31" d="M368.83,159.28l89.22,44.87,43.6,81.16c1.06,2.73-.42,6.9-2.69,8.72l-38.27,18.81.08,99.35-2.13,6.46-168.18,84.14-167.71-83.84-1.83-2.68-.37-103.42c-.55-2.29-38.33-16.14-41.59-21.8-1.43-2.48-1.17-4.71.14-7.2l43.64-79.23,4.06-3.16,85.61-42.16c-1.64-33.35,18.63-64.5,49.54-76.5,53.75-20.87,108.6,19.73,106.87,76.5ZM282.76,90.06c-49.74,5.14-75.04,65.98-43.1,105.05,35.55,43.49,105.3,25,114.32-30.08,6.96-42.51-28.61-79.37-71.21-74.97ZM214.36,172.98l-72.18,36.15,147.7,73.97,148.28-73.97-72.18-36.16c-11.18,47.89-62.7,73.28-107.72,53.22-21.68-9.66-38.46-30.09-43.91-53.22ZM281.11,292.38l-150.24-74.97-36.45,67.16,150.15,75.62,36.55-67.8ZM486.9,285.09l-36.64-67.73-151.06,75.42,36.58,67.4,151.12-75.09ZM283.85,484.93v-168.18l-30.78,56.41-4.87,2.23-114.15-55.93v91.32l149.8,74.14ZM296.49,316.75v168.18l149.8-74.6v-90.87l-113.17,56.07-5.09-2.48-31.55-56.3Z"/><path class="uuid-bf11bccc-a039-4a9b-845a-1f2c9a75aa31" d="M275.74,181.13c.63,1.51,4.13,2.52,5.61,2.96,6.66,1.96,11.14,2.09,17.87.21,4.74-1.32,10.3-6.45,14.85-1.35,6.06,6.8-2.45,12.21-8.3,14.24-13.17,4.58-29.36,2.73-40.41-6.11-1.9,1.82-1.52,4.44-3.58,6.34-3.21,2.95-9.54,2.12-10.38-2.3-.73-3.82-.55-23.15,2.01-25.51.77-.72,3.56-1.52,4.71-1.59,3.1-.2,18.89.23,21.01,1.13,6.22,2.67,3.64,12.24-3.37,11.99Z"/><path class="uuid-bf11bccc-a039-4a9b-845a-1f2c9a75aa31" d="M334.4,160.32c6.15-4.62,14.48,2.65,8.6,9.08-1.04,1.14-17.85,10.43-19.22,10.66-1.19.2-1.82.12-2.96-.22-3.83-1.16-13.09-19.42-12.58-23.5.85-6.81,9.13-6.24,12.6-1.44-.26-6.98-3.06-15.44-7.73-20.73-3.79-4.3-17.65-10.07-7.56-16.74,4.57-3.02,8.94.61,12.6,3.55,11.6,9.33,17.07,24.68,16.24,39.34Z"/><path class="uuid-bf11bccc-a039-4a9b-845a-1f2c9a75aa31" d="M274.82,128.68c-6.66,2.91-11.66,9.59-13.78,16.47-1.25,4.07-.94,7.42-1.74,10.91-1.47,6.36-11.23,7.4-12.38.14-2.47-15.58,11.23-35.68,26.11-40.19-8.21-6.22-4.49-17.41,6.03-12.8,5.61,2.45,20.36,9.94,17.65,17.08-.61,1.6-11.18,17.22-12.15,17.68-6.79,3.17-12.3-2.58-9.73-9.28Z"/></svg>