<?xml version="1.0" encoding="UTF-8"?><svg id="uuid-1f5b64a7-c2fb-4855-ba0a-1c4f6764681e" xmlns="http://www.w3.org/2000/svg" viewBox="0 0 580 580"><defs><style>.uuid-81fb5d9b-cc55-45ae-b5b8-ed28d885edca{fill:#fff;}</style></defs><path class="uuid-81fb5d9b-cc55-45ae-b5b8-ed28d885edca" d="M71.97,211.08c1.95-2.54,2.98-3.87,6.36-4.27,6.48-.77,43.83,1.56,45.46-.03,2.79-60.77,59.52-104.85,119.43-90.01,33.85,8.38,62.35,37.04,69.95,71.18,1.37,6.14,1.67,12.33,2.75,18.51l46.34.42c1.82-.22,5.58,3.28,5.58,4.63v47.19h74.39c.82,0,3.93,2.92,4.65,3.85,16.36,22.02,34.41,42.8,51,64.63,2.72,3.58,8.93,10.35,9.41,14.4-1.83,26.02,2.36,55.19.02,80.83-.22,2.46-.44,4.33-2.61,5.89-4.47,3.21-30.32.13-31.43,1.3-5.41,41.5-63.59,50.35-81.77,12.47-1.27-2.64-3.04-10.82-3.66-11.65-.45-.6-.98-.82-1.71-.84l-185.29-.02c-9.13,48.45-76.55,48.78-86.29.4-2.18-1.57-31.1.51-36.99-.42-2.88-.46-3.88-2.15-5.58-4.2v-214.25ZM212.08,128.02c-65.32,5.79-97.7,85.04-54.68,134.94,42.33,49.1,123.21,32.33,140.94-29.97,15.94-56-28.26-110.11-86.26-104.97ZM124.68,220.44h-39.11v195.54h28.48c2.05-4.64,2.92-9.66,5.37-14.18,19.63-36.25,75.5-26.34,80.92,14.18h153.88v-195.54h-39.11c-7.91,64.15-74.17,103.04-134.3,76.91-30.15-13.1-53.02-44.03-56.14-76.91ZM493.66,415.98v-71.84l-57.39-71.84h-68.44v143.68h19.13c2.83-8.05,5-15.01,10.65-21.65,23.84-28,70.92-14.63,75.64,21.65h20.4ZM153.38,393.24c-36.62,4.94-31.76,61.88,6.57,59.27,39.63-2.7,34.18-64.77-6.57-59.27ZM426.29,393.24c-36.54,4.93-31.74,61.88,6.57,59.27,39.7-2.7,34.19-64.77-6.57-59.27Z"/><path class="uuid-81fb5d9b-cc55-45ae-b5b8-ed28d885edca" d="M266.41,342.19l52.48-.13c7.73,1.95,8.1,10.51.88,13.54h-53.52c-6.57-2.41-6.68-11.3.16-13.41Z"/><path class="uuid-81fb5d9b-cc55-45ae-b5b8-ed28d885edca" d="M265.56,382.15c1.85-.54,22.46-.54,24.3,0,5.8,1.69,5.59,12.26-1.58,13.38-3.29.51-19.73.52-22.53-.33-6.1-1.86-5.45-11.52-.2-13.05Z"/><path class="uuid-81fb5d9b-cc55-45ae-b5b8-ed28d885edca" d="M180.8,194.08c4.9-2.02,8.58-6.49,13.65-2.18,4.39,3.73,2.69,8.37-1.47,11.39-2.68,1.95-16.29,9.8-19.03,10.72-4.62,1.55-6.89.55-9.67-2.99-1.98-2.52-9.76-15.98-10.87-18.88-1.23-3.18-1.24-6.75,1.58-9,7.56-6.03,12.17,5.64,13.05,4.98,18.38-46.06,85.38-46.52,104.38-.22,21.62,52.7-39.18,100.92-85.59,67.74-5.26-3.76-20.08-16.69-13.29-23.34,7.5-7.35,13.87,6.17,18.76,10.22,22.24,18.46,57.04,10.33,67.37-16.76,14.67-38.49-26.15-73.63-61.79-52.44-7.58,4.5-14.86,12.15-17.06,20.76Z"/><path class="uuid-81fb5d9b-cc55-45ae-b5b8-ed28d885edca" d="M430.48,291.27l46.16,59.74c.5,3.11-.95,5.71-3.4,7.56h-84.99s-2.98-2.98-2.98-2.98l-.48-59.11c.08-4.98,2.61-6.8,7.23-7.23,7.88-.72,25.48-.85,33.22.02,1.93.22,3.65.93,5.24,2ZM455.4,345.41l-33.58-42.51h-23.38v42.51h56.96Z"/><path class="uuid-81fb5d9b-cc55-45ae-b5b8-ed28d885edca" d="M155.9,416.15c9.96-2.17,11.69,11.56,3.87,13.27-9.96,2.17-11.69-11.56-3.87-13.27Z"/><path class="uuid-81fb5d9b-cc55-45ae-b5b8-ed28d885edca" d="M428.81,416.15c9.96-2.17,11.69,11.56,3.87,13.27-9.96,2.17-11.69-11.56-3.87-13.27Z"/></svg>