<?xml version="1.0" encoding="UTF-8"?><svg id="uuid-23033065-834f-4596-9abb-47216ea14fb4" xmlns="http://www.w3.org/2000/svg" viewBox="0 0 580 580"><defs><style>.uuid-10a9e448-c04c-4405-ad8c-5306b2a9c41c{fill:#fff;}</style></defs><path class="uuid-10a9e448-c04c-4405-ad8c-5306b2a9c41c" d="M326.05,438.68H68.63l-.26-.26V163.73l.26-.26h122.48v48.98c0,2.03,2.03,4.08,4.05,5.21,2.08,1.17,4.04,1.33,5.55.48l40.62-18.24,41.24,18.5.09.04c1.5.58,3.35.16,5.37-1.22,1.48-1.01,4.28-3.51,4.28-5.72v-48.03h122.74v170.01c0,3.37,3.88,5.95,7.37,6.15,3.45.22,7.36-1.75,8.07-7.81l.02-176.05-.18-.39c-4.14-9.13-7.54-19.8-10.83-30.12-3.83-12.01-7.79-24.43-13-34.77l-.17-.35c-.61-1.24-1.31-2.64-2.79-3.72l-.53-.39-323.78.49-26.16,69.31,1.7,295.46,6,1.93h263.43s.27-.03.27-.03c5.18-.7,6.79-4.38,6.58-7.6-.22-3.27-2.32-6.91-4.98-6.91ZM201.19,100.58l-8.79,47.46h-120.3l17.58-47.46h111.51ZM276.88,164.42v34.03l-35.67-15.38-34.66,15.35v-34h70.33ZM207.91,148.03l8.88-47.36,49.82.02,8.9,47.33h-67.6ZM393.28,100.58l18.02,47.46h-119.81l-9.23-47.46h111.02Z"/><path class="uuid-10a9e448-c04c-4405-ad8c-5306b2a9c41c" d="M522.31,377.68c-.31-.29-.63-.58-.94-.88-15.14-14.44-45.53-39.04-61.35-49.67-.31-.21-.66-.46-1.03-.73-1.81-1.32-4.07-2.96-6.18-2.97h-.01c-2.03,0-6.53,2.5-7.17,4.72l-.08.27v24.32c-.17.08-.45.11-1.05.18l-.47.05c-8.06.95-15.63.56-22.94.18-13.34-.68-25.94-1.33-40.77,5.49-24.14,11.11-39.39,34.91-39.79,62.11-.41,28.06,14.62,53.07,39.22,65.27,11.14,5.52,26.54,7.92,39.6,7.92,4.27,0,8.29-.26,11.83-.74,3.3-.46,5.73-2.67,6.34-5.79.64-3.29-.91-6.64-3.86-8.34-2.38-1.37-4.65-1.34-6.66-1.31-1.1.02-2.13.03-3.11-.19-15.26-3.41-22.18-15.45-23.57-25.58-1.74-12.65,4.19-24.28,15.47-30.34,2.51-1.35,8.66-3.76,10.3-3.76h19.44v23.25c0,1.72,1.02,3.22,2.88,4.23,2.4,1.3,6.42,1.78,8.75.28l.09-.06,68.23-55.8.36-.29.19-.42c2.54-5.59-.94-8.81-3.75-11.4ZM453.04,402.55c-5.48-.86-18.71-.53-24.26-.11-18.87,1.42-34.13,12.2-40.81,28.85-5.9,14.71-3.78,30.74,5.58,43.95-18.12-6.04-31.79-20.98-36.31-40.18-4.99-21.16,2.34-42.69,19.13-56.2,12.62-10.15,28.2-11.6,43.92-11.6,3.16,0,6.33.06,9.48.12,9.05.17,18.41.34,27.18-.88l.49-.07.4-.29c.45-.33,3.14-3.73,3.14-5.03v-13.48l46.27,36.86-46.27,37.69v-12.47c0-3.36-5.29-6.75-7.94-7.16Z"/><path class="uuid-10a9e448-c04c-4405-ad8c-5306b2a9c41c" d="M309.01,289.25l.13-.02c13.73-1.75,19.83-12.33,19.79-22.04-.04-9.78-6.58-21.08-20.86-22.79h-.12s-134.13.13-134.13.13l-.4.04c-13.08,2.66-19.14,12.98-19.34,22.02-.24,10.88,6.88,19.72,18.14,22.52l.24.06,136.42.07h.13ZM175.58,273.84c-4.29-.55-6.01-3.55-6.18-6.19-.19-2.93,1.49-6.56,5.61-7.72l134.53.5c2.62,1.59,4.2,4.08,4.25,6.74.04,2.36-1.14,4.45-3.35,5.92l-134.87.74Z"/><path class="uuid-10a9e448-c04c-4405-ad8c-5306b2a9c41c" d="M242.68,372.82l.09-.63-3.09-6-134.12-.71-.48.29c-3.33,2.01-4.86,5.13-4.1,8.35.84,3.56,4.37,6.29,8.58,6.63h.16s123.97,0,123.97,0c4.52-.1,8.38-3.52,9-7.94Z"/><path class="uuid-10a9e448-c04c-4405-ad8c-5306b2a9c41c" d="M184.08,391.96l-76.05.22h-.26s-.25.07-.25.07c-3.62.98-6.37,4.06-6.84,7.66l-.08.62,3.08,5.98,82.28.94c.07,0,.13,0,.2,0,4.01,0,6.38-3.47,6.96-6.96l.05-.3-.04-.3c-.61-4.43-4.48-7.84-9.05-7.94Z"/></svg>