<?xml version="1.0" encoding="UTF-8"?><svg id="uuid-853263d1-dd66-4941-a74f-a80285619c82" xmlns="http://www.w3.org/2000/svg" viewBox="0 0 580 580"><defs><style>.uuid-bccf03d0-96ef-496d-8c74-31bef385024d{fill:#fff;}</style></defs><path class="uuid-bccf03d0-96ef-496d-8c74-31bef385024d" d="M428.66,242.11c-2.24-.13-4.9,1.02-5.8,4.58-.72,15.44-.38,31.76-.05,47.55.52,24.95,1.06,50.74-2.4,75.08-3.74,26.31-14.78,43.76-33.74,53.34-16.25,8.21-36.56,10.35-64.06,11.14-34.06.98-73.15,1.55-104.89-1.56-29.14-2.86-48.47-13.52-59.08-32.58-9.13-16.39-11.48-37.16-12.31-65.36-1.01-34.12-1.61-73.35,1.56-105.65,2.86-29.13,13.51-48.45,32.55-59.07,16.37-9.13,37.1-11.48,65.23-12.32,13.52-1.07,28.17-.41,42.34.22,15.31.68,31.13,1.39,44.9-.15,4.56-.51,5.03-4.16,5.07-5.27.02-.78-.07-4.61-4.27-5.65-14.07.24-28.3.06-42.06-.11-8.85-.11-18-.23-27.14-.23-10.45,0-19.51.16-27.71.48-30.65,1.2-57.73,4.05-78.8,26.88-19.45,21.07-20.6,45.41-21.82,71.17-1.55,32.78-3.17,80.83.7,119.53,4.59,45.92,29.07,72.27,72.75,78.32,34.6,4.78,80.61,3.56,125.18,1.52,27.25-1.25,50.78-2.32,71.91-21.82,22.66-20.91,25.63-47.99,27.11-81.21-.98-14.73-.4-30.29.16-45.35.6-16.08,1.21-32.69-.12-47.78-.45-5.03-4.07-5.62-5.17-5.69Z"/><path class="uuid-bccf03d0-96ef-496d-8c74-31bef385024d" d="M305.3,307.98c-9.43-2.85-13.51-10.47-17.11-17.19-1.72-3.21-3.34-6.24-5.39-8.48-6.59-7.2-16.22-11.43-26.44-11.6-.21,0-.43,0-.64,0-9.92,0-19.4,3.88-26.02,10.64-6.29,6.43-20.93,36.83-27.38,51.68-.4.91-.8,1.79-1.19,2.63-2.23,4.83-2.65,5.94-.99,8.65.77,1.26,2.13,2.11,3.73,2.33,1.75.24,3.54-.28,4.82-1.4.21-.26.86-1.17,1.8-2.79,3.43-5.91,6.61-13.27,9.98-21.07,4.5-10.43,9.15-21.18,14.79-29.1,4.7-6.6,12.17-10.39,20.49-10.39,8.41,0,16.25,4,20.99,10.69,1.46,2.05,2.46,4.3,3.43,6.46.65,1.45,1.25,2.8,1.87,3.81,7.05,11.51,18.46,17.94,31.35,17.64,13.68-.33,26.01-8.12,32.99-20.84,7.24-13.2,15.55-30.12,20.69-42.1.31-.73.63-1.43.94-2.12,2.54-5.69,2.62-6.62.77-9.11-1.1-1.48-2.38-2.16-3.88-2.07h0c-2.28.13-4.78,1.89-6.23,4.38-3.43,5.91-6.62,13.29-9.99,21.1-4.49,10.4-9.14,21.16-14.77,29.07-6.25,8.78-17.75,12.47-28.61,9.19Z"/><path class="uuid-bccf03d0-96ef-496d-8c74-31bef385024d" d="M421.55,199.96c19.98-5.34,26.1-23.6,23.32-38.31-2.88-15.25-15.42-29.56-36.96-27.13h0c-12.78,1.44-22.1,8.26-26.24,19.2-4.77,12.61-1.89,28.3,7.02,38.15,7.92,8.76,19.58,11.63,32.86,8.08ZM396.26,151.99c6.28-6.32,14.39-8.46,22.24-5.87,8.41,2.77,14.91,10.51,16.18,19.24,1.19,8.19-2.37,15.84-9.77,20.99-3.84,2.67-7.98,4.02-12.31,4.02-6.38,0-12.8-3.11-17.17-8.32-6.4-7.63-8.87-20.29.83-30.06Z"/></svg>