<?xml version="1.0" encoding="UTF-8"?>
<svg id="Layer_1" xmlns="http://www.w3.org/2000/svg" version="1.1" viewBox="0 0 500 500">
  <!-- Generator: Adobe Illustrator 29.0.0, SVG Export Plug-In . SVG Version: 2.1.0 Build 186)  -->
  <defs>
    <style>
      .st0 {
        fill: #fff;
      }
    </style>
  </defs>
  <g>
    <path class="st0" d="M227.5,235c.3-2.1-.7-9.6.7-10.8.6-.5,1.8-.7,2.6-.8,12.4-1.1,26.6.8,39.2.1.5.2,1.4.4,1.7.8,1.1,1.2.2,8.6.5,10.7h8.6c.7,0,2.1,1.8,2.1,2.5v28.7h2.7v-7.9c0-1,1.2-3.1,2.5-2.9h40.8c.8-.2,2.5,1,2.5,1.8v8.5c1.3,1.4,8.5-.6,8.5,2.3v130.2c4.1-.7,9.9.6,5.3,5.1l-189.3.3c-2.4,0-3.8-2.9-2.1-4.7,1.2-1.2,4.5-.4,6.2-.7v-130.2c0-2.9,7.1-.9,8.5-2.3v-8.5c0-.7,1.6-1.9,2.5-1.7h40.8c1.3-.2,2.5,1.9,2.5,2.9v7.9h2.7v-28.6c0-.7,1.4-2.5,2.1-2.5h8.7ZM266.7,228.9h-33.8v6.1h33.8v-6.1ZM277.5,240.4h-55.4v157.7h11.9v-32.1c0-3.1,3.9-6.8,6.9-7.3,3.3-.6,12.4-.5,16-.2,3.2.2,6.2,1.7,7.6,4.7s1,2.6,1,2.9v32.1h11.9v-157.7h0ZM208.6,260.8h-35v5.4h34.4c1.2-1.3.3-3.7.6-5.4ZM325.9,260.8h-35c.2,1.7-.6,4,.6,5.4h34.4v-5.4h0ZM216.7,271.6h-51.5v126.5h51.5v-126.5ZM334.4,271.6h-51.5v126.5h51.5v-126.5ZM260.2,398.1v-31.7c0-1.3-2.4-2.4-3.6-2.5-3-.3-11.4-.4-14.2,0-.9.1-2.9,1.7-2.9,2.5v31.7h20.8Z"/>
    <path class="st0" d="M230.8,251.3h37.9c.8.2,1.3,1.3,1.4,2.1.2,1.3.2,9.7,0,10.7-.2.7-1.6,1.9-2.4,1.8h-36.5c-1-.7-1.7-1.3-1.8-2.5-.2-1.8-.2-8.3,0-10,.1-.8.6-1.8,1.4-2.1h0ZM264.8,256.6h-30v3.9h30v-3.9Z"/>
  </g>
  <path class="st0" d="M186.9,288.6h-9.2c-.9,0-1.6.7-1.6,1.5v9.2c0,.9.7,1.5,1.6,1.5h9.2c.9,0,1.6-.7,1.6-1.5v-9.2c0-.9-.7-1.5-1.6-1.5ZM186.8,298.1c0,.6-.5,1.1-1.1,1.1h-6.7c-.6,0-1.1-.5-1.1-1.1v-6.7c0-.6.5-1.1,1.1-1.1h6.7c.6,0,1.1.5,1.1,1.1v6.7Z"/>
  <path class="st0" d="M205.2,288.6h-9.2c-.9,0-1.6.7-1.6,1.5v9.2c0,.9.7,1.5,1.6,1.5h9.2c.9,0,1.6-.7,1.6-1.5v-9.2c0-.9-.7-1.5-1.6-1.5ZM205.1,298.1c0,.6-.5,1.1-1.1,1.1h-6.7c-.6,0-1.1-.5-1.1-1.1v-6.7c0-.6.5-1.1,1.1-1.1h6.7c.6,0,1.1.5,1.1,1.1v6.7Z"/>
  <path class="st0" d="M186.9,307.2h-9.2c-.9,0-1.6.7-1.6,1.5v9.2c0,.9.7,1.5,1.6,1.5h9.2c.9,0,1.6-.7,1.6-1.5v-9.2c0-.9-.7-1.5-1.6-1.5ZM186.8,316.6c0,.6-.5,1.1-1.1,1.1h-6.7c-.6,0-1.1-.5-1.1-1.1v-6.7c0-.6.5-1.1,1.1-1.1h6.7c.6,0,1.1.5,1.1,1.1v6.7Z"/>
  <path class="st0" d="M205.2,307.2h-9.2c-.9,0-1.6.7-1.6,1.5v9.2c0,.9.7,1.5,1.6,1.5h9.2c.9,0,1.6-.7,1.6-1.5v-9.2c0-.9-.7-1.5-1.6-1.5ZM205.1,316.6c0,.6-.5,1.1-1.1,1.1h-6.7c-.6,0-1.1-.5-1.1-1.1v-6.7c0-.6.5-1.1,1.1-1.1h6.7c.6,0,1.1.5,1.1,1.1v6.7Z"/>
  <path class="st0" d="M186.9,325.7h-9.2c-.9,0-1.6.7-1.6,1.5v9.2c0,.9.7,1.5,1.6,1.5h9.2c.9,0,1.6-.7,1.6-1.5v-9.2c0-.9-.7-1.5-1.6-1.5ZM186.8,335.2c0,.6-.5,1.1-1.1,1.1h-6.7c-.6,0-1.1-.5-1.1-1.1v-6.7c0-.6.5-1.1,1.1-1.1h6.7c.6,0,1.1.5,1.1,1.1v6.7Z"/>
  <path class="st0" d="M205.2,325.7h-9.2c-.9,0-1.6.7-1.6,1.5v9.2c0,.9.7,1.5,1.6,1.5h9.2c.9,0,1.6-.7,1.6-1.5v-9.2c0-.9-.7-1.5-1.6-1.5ZM205.1,335.2c0,.6-.5,1.1-1.1,1.1h-6.7c-.6,0-1.1-.5-1.1-1.1v-6.7c0-.6.5-1.1,1.1-1.1h6.7c.6,0,1.1.5,1.1,1.1v6.7Z"/>
  <path class="st0" d="M186.9,344.3h-9.2c-.9,0-1.6.7-1.6,1.5v9.2c0,.9.7,1.5,1.6,1.5h9.2c.9,0,1.6-.7,1.6-1.5v-9.2c0-.9-.7-1.5-1.6-1.5ZM186.8,353.8c0,.6-.5,1.1-1.1,1.1h-6.7c-.6,0-1.1-.5-1.1-1.1v-6.7c0-.6.5-1.1,1.1-1.1h6.7c.6,0,1.1.5,1.1,1.1v6.7Z"/>
  <path class="st0" d="M205.2,344.3h-9.2c-.9,0-1.6.7-1.6,1.5v9.2c0,.9.7,1.5,1.6,1.5h9.2c.9,0,1.6-.7,1.6-1.5v-9.2c0-.9-.7-1.5-1.6-1.5ZM205.1,353.8c0,.6-.5,1.1-1.1,1.1h-6.7c-.6,0-1.1-.5-1.1-1.1v-6.7c0-.6.5-1.1,1.1-1.1h6.7c.6,0,1.1.5,1.1,1.1v6.7Z"/>
  <path class="st0" d="M304,288.6h-9.2c-.9,0-1.5.7-1.5,1.5v9.2c0,.9.7,1.5,1.5,1.5h9.2c.9,0,1.5-.7,1.5-1.5v-9.2c0-.9-.7-1.5-1.5-1.5ZM303.9,298.1c0,.6-.5,1.1-1.1,1.1h-6.7c-.6,0-1.1-.5-1.1-1.1v-6.7c0-.6.5-1.1,1.1-1.1h6.7c.6,0,1.1.5,1.1,1.1v6.7Z"/>
  <path class="st0" d="M322.4,288.6h-9.2c-.9,0-1.5.7-1.5,1.5v9.2c0,.9.7,1.5,1.5,1.5h9.2c.9,0,1.5-.7,1.5-1.5v-9.2c0-.9-.7-1.5-1.5-1.5ZM322.3,298.1c0,.6-.5,1.1-1.1,1.1h-6.7c-.6,0-1.1-.5-1.1-1.1v-6.7c0-.6.5-1.1,1.1-1.1h6.7c.6,0,1.1.5,1.1,1.1v6.7Z"/>
  <path class="st0" d="M304,307.2h-9.2c-.9,0-1.5.7-1.5,1.5v9.2c0,.9.7,1.5,1.5,1.5h9.2c.9,0,1.5-.7,1.5-1.5v-9.2c0-.9-.7-1.5-1.5-1.5ZM303.9,316.6c0,.6-.5,1.1-1.1,1.1h-6.7c-.6,0-1.1-.5-1.1-1.1v-6.7c0-.6.5-1.1,1.1-1.1h6.7c.6,0,1.1.5,1.1,1.1v6.7Z"/>
  <path class="st0" d="M322.4,307.2h-9.2c-.9,0-1.5.7-1.5,1.5v9.2c0,.9.7,1.5,1.5,1.5h9.2c.9,0,1.5-.7,1.5-1.5v-9.2c0-.9-.7-1.5-1.5-1.5ZM322.3,316.6c0,.6-.5,1.1-1.1,1.1h-6.7c-.6,0-1.1-.5-1.1-1.1v-6.7c0-.6.5-1.1,1.1-1.1h6.7c.6,0,1.1.5,1.1,1.1v6.7Z"/>
  <path class="st0" d="M304,325.7h-9.2c-.9,0-1.5.7-1.5,1.5v9.2c0,.9.7,1.5,1.5,1.5h9.2c.9,0,1.5-.7,1.5-1.5v-9.2c0-.9-.7-1.5-1.5-1.5ZM303.9,335.2c0,.6-.5,1.1-1.1,1.1h-6.7c-.6,0-1.1-.5-1.1-1.1v-6.7c0-.6.5-1.1,1.1-1.1h6.7c.6,0,1.1.5,1.1,1.1v6.7Z"/>
  <path class="st0" d="M322.4,325.7h-9.2c-.9,0-1.5.7-1.5,1.5v9.2c0,.9.7,1.5,1.5,1.5h9.2c.9,0,1.5-.7,1.5-1.5v-9.2c0-.9-.7-1.5-1.5-1.5ZM322.3,335.2c0,.6-.5,1.1-1.1,1.1h-6.7c-.6,0-1.1-.5-1.1-1.1v-6.7c0-.6.5-1.1,1.1-1.1h6.7c.6,0,1.1.5,1.1,1.1v6.7Z"/>
  <path class="st0" d="M304,344.3h-9.2c-.9,0-1.5.7-1.5,1.5v9.2c0,.9.7,1.5,1.5,1.5h9.2c.9,0,1.5-.7,1.5-1.5v-9.2c0-.9-.7-1.5-1.5-1.5ZM303.9,353.8c0,.6-.5,1.1-1.1,1.1h-6.7c-.6,0-1.1-.5-1.1-1.1v-6.7c0-.6.5-1.1,1.1-1.1h6.7c.6,0,1.1.5,1.1,1.1v6.7Z"/>
  <path class="st0" d="M322.4,344.3h-9.2c-.9,0-1.5.7-1.5,1.5v9.2c0,.9.7,1.5,1.5,1.5h9.2c.9,0,1.5-.7,1.5-1.5v-9.2c0-.9-.7-1.5-1.5-1.5ZM322.3,353.8c0,.6-.5,1.1-1.1,1.1h-6.7c-.6,0-1.1-.5-1.1-1.1v-6.7c0-.6.5-1.1,1.1-1.1h6.7c.6,0,1.1.5,1.1,1.1v6.7Z"/>
  <path class="st0" d="M245.4,278.5h-9.2c-.9,0-1.6.7-1.6,1.5v9.2c0,.9.7,1.5,1.6,1.5h9.2c.9,0,1.6-.7,1.6-1.5v-9.2c0-.9-.7-1.5-1.6-1.5ZM245.3,288c0,.6-.5,1.1-1.1,1.1h-6.7c-.6,0-1.1-.5-1.1-1.1v-6.7c0-.6.5-1.1,1.1-1.1h6.7c.6,0,1.1.5,1.1,1.1v6.7Z"/>
  <path class="st0" d="M263.7,278.5h-9.2c-.9,0-1.6.7-1.6,1.5v9.2c0,.9.7,1.5,1.6,1.5h9.2c.9,0,1.5-.7,1.5-1.5v-9.2c0-.9-.7-1.5-1.5-1.5ZM263.6,288c0,.6-.5,1.1-1.1,1.1h-6.7c-.6,0-1.1-.5-1.1-1.1v-6.7c0-.6.5-1.1,1.1-1.1h6.7c.6,0,1.1.5,1.1,1.1v6.7Z"/>
  <path class="st0" d="M245.4,297.1h-9.2c-.9,0-1.6.7-1.6,1.5v9.2c0,.9.7,1.5,1.6,1.5h9.2c.9,0,1.6-.7,1.6-1.5v-9.2c0-.9-.7-1.5-1.6-1.5ZM245.3,306.6c0,.6-.5,1.1-1.1,1.1h-6.7c-.6,0-1.1-.5-1.1-1.1v-6.7c0-.6.5-1.1,1.1-1.1h6.7c.6,0,1.1.5,1.1,1.1v6.7Z"/>
  <path class="st0" d="M263.7,297.1h-9.2c-.9,0-1.6.7-1.6,1.5v9.2c0,.9.7,1.5,1.6,1.5h9.2c.9,0,1.5-.7,1.5-1.5v-9.2c0-.9-.7-1.5-1.5-1.5ZM263.6,306.6c0,.6-.5,1.1-1.1,1.1h-6.7c-.6,0-1.1-.5-1.1-1.1v-6.7c0-.6.5-1.1,1.1-1.1h6.7c.6,0,1.1.5,1.1,1.1v6.7Z"/>
  <path class="st0" d="M245.4,315.7h-9.2c-.9,0-1.6.7-1.6,1.5v9.2c0,.9.7,1.5,1.6,1.5h9.2c.9,0,1.6-.7,1.6-1.5v-9.2c0-.9-.7-1.5-1.6-1.5ZM245.3,325.2c0,.6-.5,1.1-1.1,1.1h-6.7c-.6,0-1.1-.5-1.1-1.1v-6.7c0-.6.5-1.1,1.1-1.1h6.7c.6,0,1.1.5,1.1,1.1v6.7Z"/>
  <path class="st0" d="M263.7,315.7h-9.2c-.9,0-1.6.7-1.6,1.5v9.2c0,.9.7,1.5,1.6,1.5h9.2c.9,0,1.5-.7,1.5-1.5v-9.2c0-.9-.7-1.5-1.5-1.5ZM263.6,325.2c0,.6-.5,1.1-1.1,1.1h-6.7c-.6,0-1.1-.5-1.1-1.1v-6.7c0-.6.5-1.1,1.1-1.1h6.7c.6,0,1.1.5,1.1,1.1v6.7Z"/>
  <path class="st0" d="M245.4,334.3h-9.2c-.9,0-1.6.7-1.6,1.5v9.2c0,.9.7,1.5,1.6,1.5h9.2c.9,0,1.6-.7,1.6-1.5v-9.2c0-.9-.7-1.5-1.6-1.5ZM245.3,343.8c0,.6-.5,1.1-1.1,1.1h-6.7c-.6,0-1.1-.5-1.1-1.1v-6.7c0-.6.5-1.1,1.1-1.1h6.7c.6,0,1.1.5,1.1,1.1v6.7Z"/>
  <path class="st0" d="M263.7,334.3h-9.2c-.9,0-1.6.7-1.6,1.5v9.2c0,.9.7,1.5,1.6,1.5h9.2c.9,0,1.5-.7,1.5-1.5v-9.2c0-.9-.7-1.5-1.5-1.5ZM263.6,343.8c0,.6-.5,1.1-1.1,1.1h-6.7c-.6,0-1.1-.5-1.1-1.1v-6.7c0-.6.5-1.1,1.1-1.1h6.7c.6,0,1.1.5,1.1,1.1v6.7Z"/>
</svg>