<?xml version="1.0" encoding="UTF-8"?>
<svg id="Layer_1" xmlns="http://www.w3.org/2000/svg" version="1.1" viewBox="0 0 500 500">
  <!-- Generator: Adobe Illustrator 29.0.0, SVG Export Plug-In . SVG Version: 2.1.0 Build 186)  -->
  <defs>
    <style>
      .st0 {
        fill: #fff;
      }
    </style>
  </defs>
  <path class="st0" d="M214.3,362.6h3.4v-22.1c0-.4,1.6-2.1,2.1-2.1h8.9c-.6-2-1.7-3.7-1.9-5.9-1-10.8,10.9-18,20.1-12.2,2.9,1.8,6.8,6.9,9.3,9.6.2.2.3.6.4.9l.8-.2,7.7-8.8c8-7,19.8-2.8,22.1,7.4l3,.2v-14.5c0-7.8,9.7-15.3,17.2-15.7,2.9-.1,4.7.9,6.9,1,1.8.1,4.8-1.3,7.9-1,7.1.6,16.4,8.2,16.4,15.7v14.5c2.3,0,5.5-.5,6,2.5.9,5.6.5,12.7.8,18.5.7,13.3,1.9,26.7,2.3,40,0,1.4,0,5.5-2.1,5.5h-49.3v7c0,.9-2.2,2.4-3.2,2.1l-121.8-.2c-1.1-.4-1.9-1.5-1.9-2.6.8-11.7-1.1-24.8,0-36.3.1-1.1.9-3.2,2.1-3.2h7.4M296.3,315.6c-.5,4.2.4,9.4,0,13.8h6v-14.5c0-2.3,2.6-7.2,4.1-9.1-4.8-.3-9.6,5.3-10.2,9.8ZM332.5,329.4v-13.8c0-.6-1.3-3.6-1.7-4.4-1.6-2.9-5.2-5.7-8.5-5.5,1.1,1.3,2.1,2.9,2.7,4.5.4,1.1,1.4,4,1.4,5v14.2h6.1ZM308.3,315.6c-.6,4.2.4,9.5,0,13.8h12.1v-13.8c0-.8-1.5-4.2-2.1-5.1-.6-1-3-3.5-4.1-3.5-2.3.2-5.6,6.4-5.9,8.5h0ZM254,338.4l-.4-2.5c-3.3-2.4-7.8-10.2-11.4-11.2-6.4-1.9-11.7,4.4-8.4,10.3.6,1.1,3.3,3.4,4.5,3.4h15.7ZM260,338.4h15.7c.5,0,2.8-1.4,3.3-1.9,5.4-5,.4-13.8-6.9-11.9-3.9,1-8.5,9-11.9,11.5l-.2,2.3h0ZM326.5,335.4h-39.6v3h7.4c.4,0,2.1,1.6,2.1,2.1v49.3h33.2l-3-54.4h0ZM338.5,335.4h-6l3,54.4h6l-3-54.4ZM244.9,344.5h-21.1v12.1h21.1v-12.1ZM263,344.5h-12.1v12.1h12.1v-12.1ZM290.2,344.5h-21.1v12.1h21.1v-12.1ZM244.9,362.6h-21.1v36.2h21.1v-36.2ZM263,362.6h-12.1v36.2h12.1v-36.2ZM290.2,362.6h-21.1v36.2h21.1v-36.2ZM187.5,368.6h-12.1v6h12.1v-6ZM199.6,368.6h-6v6h6v-6ZM217.7,368.6h-12.1v6h12.1v-6ZM187.5,380.7h-12.1v18.1h12.1v-18.1ZM199.6,380.7h-6v18.1h6v-18.1ZM217.7,380.7h-12.1v18.1h12.1v-18.1Z"/>
  <path class="st0" d="M284.2,278h15.9c1.7-6,2.8-12.7,4.6-18.6,2.2-7,6.4-5.4,12.7-5.6.1-3.5,2.4-5.7,5.9-6,4-.4,11.9-.4,15.9,0,11.2,1,11,17,.4,18.1-3.4.4-14,.5-17.3,0-2.7-.5-4.8-3.2-4.8-5.9h-6.8l-9.1,36.6-5.7-1.3,2.7-11.1h-107.2l19.6,72.3-5.9,1.5-19.6-73c-.4-4.6,3.2-7.2,7.5-7.1-2.4-3.3-10.9-9.2-11.6-12.9-.5-2.3.2-4.3,1.8-6l35.1-34.8c7.3-3.9,12.6,7.4,17.8,10.8v-6.6c0-.2.8-1.8,1-2.1,1.2-1.9,3.1-2.5,5.2-2.7,15.7-1.2,32.9.9,48.7,0,2-.1,5.5,2.9,5.5,4.7v51h-6v-49.7h-48.3v48.3h6M235.9,243.8l-14.7-14.4-34,34,14.5,14.5h34.5M323.5,259.9h16c2.6,0,2.6-6,0-6h-16v6Z"/>
  <path class="st0" d="M215.5,332.4l1.5,6-5.5,1.4-11.1-43.2c0-3,1.6-5.4,4.5-6.4h79.8c2.6.6,4.1,2.5,4.7,5l-4.5,19.7-6-1.5,1.5-5.3h-8.3v6h-6v-6h-6v6h-6v-6h-6v6h-6v-6h-6v6h-6v-6h-6v6h3v6h-3v12.1h-8.3ZM217.7,296.1h-11.3l1.5,6h9.8v-6ZM229.8,296.1h-6v6h6v-6ZM241.9,296.1h-6v6h6v-6ZM254,296.1h-6v6h6v-6ZM266,296.1h-6v6h6v-6ZM283.4,296.1h-11.3v6h9.8l1.5-6h0ZM217.7,308.2h-8.3l1.5,6h6.8v-6ZM217.7,320.3h-5.3l1.6,6h3.7s0-6,0-6h0Z"/>
</svg>