<?xml version="1.0" encoding="UTF-8"?>
<svg id="Layer_1" xmlns="http://www.w3.org/2000/svg" version="1.1" viewBox="0 0 500 500">
  <!-- Generator: Adobe Illustrator 29.0.0, SVG Export Plug-In . SVG Version: 2.1.0 Build 186)  -->
  <defs>
    <style>
      .st0 {
        fill: #fff;
      }
    </style>
  </defs>
  <path class="st0" d="M175.7,404.7c-2.2-1.4-2.2-2.6-2.1-5.1,0-2.9.6-6.1.7-9,1.7-36.2,3.3-72.5,5.8-108.6,3.4-4.1,5.9-11.4,9.2-15.2,1.3-1.5,2.7-1.2,4.5-1.2l-2.4-21.1c.3-2.5,1.5-2.8,3.7-3.3l33-3.9c11.9-16.8,36.9-14.1,45.1,4.9.4,1,1,3.9,1.6,4.3l28.1,6.9c2.2,2-1,9.4-1.3,12.1h6.1c.3,0,1.4,1.1,1.7,1.4,1.1,1.4,9.4,15.5,9.6,16.6,1.6,35.7,3.6,71.4,5.2,107,.1,2.9.6,6.2.7,9,0,2.4,0,3.7-2.1,5.1h-147.2,0ZM267.4,245c-1.5-5.6-7.1-10.4-12.6-11.9-6.4-1.8-11.7-.4-17.4,2.9h3.3c2.1-.2,5.2-1.4,6.8.6l3.4,22.1,2.7-.7c1.2-2.6,2.1-12.4,3.8-14,2-1.8,7.5.5,10,1.1h0ZM201.9,280.5h14.6c0-2.8-3.1-9.5-2.2-11.8.2-.4.8-1,1.1-1.3,1.4-.9,6.8-1.9,8.8-2.4,6.8-1.7,13.7-3.2,20.5-4.8l-2.1-18.5-44.6,5.3,3.8,33.4h0ZM297.1,257.9l-34.7-8-.8.6-1,6c2.5-.6,6.1-2.6,7.8.2l6.2,23.9,17.2-.2,5.2-22.5h0ZM268.1,280.5l-4.2-17.9-.8-.6-42.4,10.1,2.1,8.4h45.3ZM195.6,280.5c-.3-2.6-.3-5.7-.7-8.2,0-.5-.3-.9-.9-.9l-.8.6-4.9,8.5h7.3ZM310.3,280.5l-4.9-8.5c-1.1-1.1-3.6-.4-5.2-.5l-2.1,9h12.2ZM313.1,286.8h-127.6l-5.6,111.9h138.8l-5.6-111.9Z"/>
  <path class="st0" d="M229.8,310.2c.1,8.2-1.5,15.9,3.6,22.9,8.2,11.2,25.5,10.4,32.6-1.5,4.1-6.8,2.4-13.7,2.8-21.3-7.6-3-8.1-14.1-.2-17,11.4-4.3,17.8,12.4,6.5,17,0,8.4.8,16.2-3.4,23.7-9.3,16.4-32.6,17.6-43.4,2.1-5.7-8.1-4.9-16.3-4.8-25.8-11.3-4.7-4.9-21.3,6.5-17,7.7,2.9,7.5,14.1-.2,16.9h0ZM229.4,303.2c1.4-6-7.1-5.8-5.6,0,1.9-1.9,3.7-1.9,5.6,0ZM274.7,303.2c1.6-5.5-6.8-6.1-5.6-.4,1.9-1.6,3.9-1.4,5.6.4Z"/>
</svg>