<?xml version="1.0" encoding="UTF-8"?>
<svg id="Layer_1" xmlns="http://www.w3.org/2000/svg" version="1.1" viewBox="0 0 500 500">
  <!-- Generator: Adobe Illustrator 29.0.0, SVG Export Plug-In . SVG Version: 2.1.0 Build 186)  -->
  <defs>
    <style>
      .st0 {
        fill: #fff;
      }
    </style>
  </defs>
  <path class="st0" d="M251.1,403.2h-2.1l-83-40.7-.4-1.7v-95.4c0-1.2.5-2.2,1.5-2.7l82.8-39.7c1.1,0,6.8,2.9,8.4,3.6,25,11.8,49.7,24.4,74.7,36.1,1.1.5,1.6,1.5,1.5,2.7v95.4l-.4,1.7-83,40.7h0ZM325.6,264.9l-75.5-36.2-21.6,10.1.4.8,74.7,36.1,21.9-10.8h0ZM297.5,278.3l-74.9-35.8c-5.6,1.3-10.4,5.3-15.9,7l75.2,36.5,15.1-6.9.5-.8ZM329.2,269.5l-24.1,11.6-.4,33c-.5,1.2-7.1,4.1-8.8,5-3.4,1.7-8.9,4.7-12.2,5.8-1.9.6-3,.2-3.8-1.7v-31.3l-.6-1.2-78.5-38-26.5,12.6,56.9,27.4c3.3,2,1.1,6.3-2.6,4.7l-57.8-27.9v90.1l76.4,36.6v-90.1c-2.4-1.3-10.1-3.2-7.8-6.9,2.1-3.5,8.1,2.5,11.1,2.3l19.4-9c2.5.4,3.5,3.1,1.5,4.8l-18.5,8.8v90.1l76.4-36.6v-90.1h0ZM299.6,283.9l-14.4,6.9v27.3l14.4-6.7v-27.5h0Z"/>
  <path class="st0" d="M178.5,330.8c.8-.2,1.7-.1,2.5.2,6.5,4.1,16.7,6.8,22.7,11,3,2.1,1.2,5.6-2.2,4.7l-23.7-11.5c-1.6-1-.9-4,.7-4.5h0Z"/>
  <path class="st0" d="M179.2,343.1c.8,0,1.4.3,2.1.6,2.2.8,9.6,4.3,11.4,5.5,2.7,2,1.4,5.2-1.7,4.9l-12.6-6c-2.2-1.3-1.8-4.8.9-5Z"/>
</svg>