<?xml version="1.0" encoding="UTF-8"?>
<svg id="Layer_2" data-name="Layer 2" xmlns="http://www.w3.org/2000/svg" viewBox="0 0 972.4 228.4">
  <defs>
    <style>
      .cls-1 {
        fill: #fff;
      }
    </style>
  </defs>
  <g id="Layer_1-2" data-name="Layer 1">
    <g>
      <g>
        <path class="cls-1" d="M667.9,114.95c11.59,0,23.18,0,34.77,0,1.17,0,2.37.03,3.52-.17,3.41-.59,5.79-2.47,6.96-5.8,1.18-3.33-.78-6.92-3.24-8.22-1.89-1-3.88-1.58-6.01-1.7-.67-.04-1.34,0-2.02,0-22.76,0-45.52,0-68.29,0-.84,0-1.68-.01-2.51-.09-.36-.03-.56-.36-.4-.74.13-.3.31-.59.51-.86,4.17-5.79,8.38-11.54,12.49-17.38,1.03-1.47,2.19-2.04,3.98-2.03,16.21.05,32.42.03,48.63.03,2.27,0,4.54-.02,6.8,0,6.82.08,13.31,1.53,19.39,4.69,3,1.56,5.75,3.47,8.07,5.95,3.88,4.15,5.98,9.01,6.07,14.76.08,4.69-1.21,8.91-3.66,12.87-2.88,4.66-6.7,8.36-11.2,11.4-1.39.94-2.85,1.77-4.27,2.66-.55.35-.61.81-.17,1.23,3.95,3.76,7.92,7.51,11.85,11.29,3.63,3.49,7.21,7.03,10.82,10.54.12.12.27.22.36.35.13.2.3.42.29.63,0,.3-.32.33-.57.35-.42.02-.84.02-1.26.02-5.63,0-11.26.11-16.88-.04-3.61-.1-7.21-.18-10.82-.18-1.43,0-2.6-.46-3.57-1.54-.78-.88-1.65-1.68-2.49-2.5-4.26-4.17-8.54-8.32-12.76-12.53-1.03-1.03-2.14-1.44-3.58-1.44-11.09.04-22.17.02-33.26.02-.5,0-1.01.02-1.51.06-.48.04-.76.35-.79.81-.05.67-.06,1.34-.06,2.01,0,4.2.01,8.4,0,12.59,0,2.18-.07,2.25-2.28,2.25-6.55.01-13.1,0-19.65,0-.42,0-.84,0-1.26-.04-.46-.05-.78-.31-.83-.79-.05-.58-.06-1.17-.06-1.76,0-11.33,0-22.67,0-34,0-.42-.01-.84.01-1.26.06-1.08.32-1.37,1.33-1.44.67-.04,1.34-.03,2.01-.03,11.84,0,23.69,0,35.53,0Z"/>
        <path class="cls-1" d="M809.76,154.26c-10.08,0-20.15.03-30.23-.01-5.69-.02-11.23-1.01-16.39-3.44-9.72-4.58-15.9-12.16-18.3-22.64-2.79-12.21-.53-23.5,6.75-33.71,4.29-6.02,9.97-10.39,16.78-13.25,6.11-2.57,12.47-3.82,19.12-3.8,18.31.05,36.61,0,54.92.04.85,0,2.06-.54,2.49.44.31.7-.62,1.46-1.08,2.14-3.93,5.75-7.9,11.47-11.78,17.26-.91,1.36-1.99,1.79-3.57,1.79-12.76-.05-25.53-.02-38.29-.03-2.27,0-4.53,0-6.79.26-3.73.41-7.26,1.42-10.2,3.88-4.91,4.1-7.29,9.37-6.74,15.76.34,3.87,1.49,7.56,3.75,10.83,1.8,2.6,4.1,4.65,6.82,6.24,1.85,1.08,3.82,1.61,6,1.61,11.84-.04,23.68-.02,35.52-.02.5,0,1.01,0,1.51-.04.46-.05.75-.34.81-.82.04-.33.05-.67.05-1,0-2.85,0-5.71,0-8.56,0-.33,0-.67-.06-1-.07-.45-.36-.78-.82-.82-.75-.06-1.51-.07-2.26-.07-10.92,0-21.83,0-32.75-.01-.82,0-1.67.19-2.46-.22-.14-1.13.87-1.54,1.44-2.18,3.74-4.19,7.56-8.32,11.28-12.53,1.12-1.27,2.4-1.6,4.02-1.6,13.94,0,27.88-.05,41.82-.08.59,0,1.18-.02,1.76.02,1.08.07,1.34.32,1.4,1.35.03.59.02,1.17.02,1.76,0,13.18,0,26.36,0,39.53,0,.67,0,1.34-.03,2.01-.03.6-.41.89-.99.91-.76.02-1.51.03-2.27.03-10.41,0-20.83,0-31.24,0Z"/>
        <path class="cls-1" d="M917.86,153.99c-5.78.4-10.63-.09-15.45-.68-6.52-.8-12.86-2.35-18.94-4.89-6.4-2.67-12.36-6.08-17.49-10.77-5.76-5.28-9.42-11.81-10.5-19.57-.92-6.58.83-12.65,4.41-18.2,3.81-5.9,8.89-10.45,14.91-13.98,6.27-3.69,13.02-6.18,20.1-7.79,4.17-.95,8.4-1.54,12.69-1.8,3.27-.2,6.53-.36,9.8-.22,10.07.44,19.79,2.37,29.04,6.5,5.02,2.24,9.7,4.98,13.85,8.59,4.77,4.14,8.51,9.02,10.59,15.05,2.8,8.14,1.73,15.89-2.57,23.22-2.8,4.77-6.66,8.6-11.12,11.84-7.17,5.2-15.22,8.45-23.77,10.54-5.4,1.32-10.88,2.06-15.54,2.15ZM913.83,95.4c-2.1-.03-4.18.15-6.27.32-5.4.44-10.58,1.74-15.58,3.78-4.42,1.8-8.34,4.33-11.4,8.04-1.98,2.4-3.1,5.11-3.06,8.31.04,3.2,1.3,5.85,3.26,8.25,2.37,2.91,5.32,5.09,8.72,6.68,6.62,3.1,13.61,4.71,20.87,5.21,5.91.41,11.72-.34,17.47-1.63,4.02-.91,7.91-2.21,11.55-4.2,3.12-1.71,5.89-3.85,8.09-6.68,3.2-4.12,3.76-9.5.92-14.12-1.16-1.88-2.57-3.51-4.26-4.92-3.33-2.79-7.21-4.57-11.26-6.02-6.15-2.2-12.54-2.94-19.03-3.02Z"/>
        <path class="cls-1" d="M458.05,134.89c9.58,0,19.15,0,28.73,0,3.12,0,3.14.02,1.78,2.81-2.6,5.36-5.19,10.72-7.82,16.07-1.29,2.63-1.32,2.63-4.2,2.63-14.45,0-28.9,0-43.35,0-2.35,0-4.71.01-7.05-.09-9.29-.41-17.6-3.3-24.51-9.71-4.02-3.73-6.91-8.23-8.7-13.38-3.84-11.07-3.35-22.05,1.77-32.56,5.29-10.85,14.02-17.83,25.7-20.98,3.65-.99,7.39-1.54,11.18-1.66,2.69-.08,5.37-.12,8.06-.17,8.73-.14,17.46-.28,26.19-.42.08,0,.17,0,.25,0,6.38-.09,12.76-.18,19.14-.28,1.93-.03,3.86-.08,5.79-.1.5,0,1.01.02,1.5.1.43.07.51.45.35.77-.22.45-.52.86-.82,1.26-4.48,5.98-8.99,11.94-13.42,17.95-1.01,1.38-2.23,1.84-3.87,1.83-9.83-.04-19.66-.03-29.49-.02-4.37,0-8.74-.01-13.1.11-7.75.21-13.4,4.81-15.36,11.88-1.41,5.07-1.38,10.11.55,15.08.65,1.66,1.52,3.18,2.57,4.6,2.14,2.89,5,4.4,8.63,4.39,2.52,0,5.04,0,7.56,0,5.71-.03,11.42-.08,17.13-.12,1.6-.01,3.19,0,4.79,0Z"/>
        <path class="cls-1" d="M576.78,154.26c-12.85,0-25.69,0-38.54,0-.5,0-1.01.04-1.51,0-.71-.07-1.66.34-2.04-.5-.35-.76.36-1.41.74-2.03,2.88-4.73,5.84-9.41,8.64-14.19.94-1.6,2.1-2.15,3.89-2.13,8.82.06,17.63.04,26.45.01.98,0,2,.28,2.94-.25.21-1.26-.84-1.92-1.43-2.74-6.16-8.49-12.36-16.95-18.56-25.41-1.23-1.68-1.28-1.7-2.59.05-2.67,3.55-5.3,7.14-7.96,10.7-4.67,6.25-9.35,12.49-14.02,18.75-3.81,5.11-7.62,10.23-11.42,15.35-.3.4-.6.81-.91,1.2-.68.83-1.53,1.22-2.63,1.21-8.23-.11-16.45.27-24.68-.02-.25,0-.5-.04-.75-.08-.32-.05-.56-.49-.38-.76.27-.42.57-.83.87-1.22,4.42-5.7,8.85-11.4,13.28-17.1,7.57-9.74,15.14-19.47,22.72-29.2,6.03-7.75,12.05-15.5,18.11-23.23,1.19-1.51,2.45-2.99,3.85-4.31,2.16-2.05,4.75-2.79,7.67-1.91,1.66.5,2.95,1.57,4.02,2.9,1.95,2.42,3.91,4.82,5.77,7.3,10.92,14.57,21.81,29.16,32.7,43.75,5.47,7.33,10.93,14.66,16.4,22,.15.2.3.41.44.62.19.27.45.53.34.89-.13.43-.53.34-.84.35-.67.02-1.34.01-2.02.01-12.85,0-25.69,0-38.54,0Z"/>
      </g>
      <g>
        <path class="cls-1" d="M498.99,188.93c-.98,1.54-1.97,3.07-2.93,4.62-4.72,7.63-9.43,15.27-14.14,22.91-.18.29-.39.55-.53.85-.55,1.15-1.49,1.44-2.69,1.4-.93-.03-1.56-.32-2.06-1.14-1.97-3.22-4-6.4-6.01-9.6-3.66-5.83-7.31-11.65-10.98-17.47-.26-.42-.58-.81-.93-1.16-.2-.2-.54-.09-.57.17-.09.66-.12,1.33-.12,2,.02,7.89.07,15.77.08,23.66,0,.98.4,2.15-.37,2.9-.67.66-1.79.17-2.68.43-.24.07-.5.08-.75.06-.36-.02-.64-.22-.69-.6-.06-.5-.08-1-.08-1.5-.03-11.83-.05-23.66-.07-35.49,0-.25,0-.5,0-.76.05-1.56.16-1.71,1.77-1.7,3.51.03,2.91-.51,4.8,2.53,5.63,9.05,11.24,18.1,16.86,27.15.4.64.79,1.29,1.22,1.91.51.74.99.72,1.55-.07.34-.48.65-.98.96-1.48,2.8-4.58,5.59-9.17,8.4-13.74,3.11-5.08,6.25-10.14,9.35-15.22.44-.72.96-1.14,1.81-1.08.08,0,.17,0,.25,0,3.82.06,3.58-.52,3.59,3.44.04,10.99.06,21.98.09,32.98,0,.25,0,.5,0,.76,0,3.41.22,3.15-3.4,3.1-.88-.01-1.11-.3-1.15-1.28-.03-.59-.01-1.17-.01-1.76-.02-8.22-.04-16.45-.06-24.67,0-.66,0-1.32,0-1.98-.18-.05-.36-.1-.53-.15Z"/>
        <path class="cls-1" d="M891.62,202.67c0,5.46.02,10.91,0,16.37-.02,4.25-2.69,7.8-6.72,9.03-.81.25-1.64.34-2.48.33-8.06,0-16.12,0-24.19,0-1.9,0-1.98-.1-1.99-2.01-.02-3.15-.23-3.05,2.97-3.04,7.05,0,14.11,0,21.16,0,.59,0,1.18.02,1.76,0,2.6-.09,4.37-1.84,4.46-4.45.04-1.09.02-2.18-.02-3.27-.02-.66-.41-1.04-.93-.85-2.13.74-4.32.49-6.49.5-4.2.03-8.4.02-12.6,0-1.17,0-2.34,0-3.5-.31-4.11-1.09-6.78-4.35-6.82-8.58-.05-6.8-.01-13.6-.01-20.4,0-.34,0-.67.03-1.01.05-.57.35-.95.93-.98.67-.04,1.34-.05,2.01-.04,1.59.03,1.54.06,1.78,1.71.34,2.25.27,4.52.28,6.78,0,4.03,0,8.06,0,12.09,0,.5-.01,1.01,0,1.51.1,2.49,1.59,4.03,4.08,4.22.42.03.84.01,1.26.01,4.79,0,9.57,0,14.36,0,.5,0,1.01.02,1.51-.03,2.36-.24,3.82-1.68,4.08-4.04.07-.66.04-1.34.04-2.01,0-5.79,0-11.58,0-17.38,0-.67,0-1.34.05-2.01.03-.48.35-.73.81-.81.08-.01.17-.02.25-.02,4.39,0,3.88-.54,3.89,3.59.02,5.04,0,10.07,0,15.11Z"/>
        <path class="cls-1" d="M694.49,218.55c-4.03,0-8.06-.01-12.09,0-1.36,0-2.68-.17-3.93-.72-2.9-1.28-4.43-3.52-4.52-6.67-.07-2.51-.01-5.03-.01-7.55,0-4.03-.02-8.05,0-12.08.03-4.61,3.05-7.86,7.63-7.93,6.55-.1,13.1-.06,19.64,0,2.56.02,4.71,1.05,6.24,3.2.75,1.05,1.24,2.17,1.24,3.49,0,2.1.1,4.2,0,6.29-.2,3.85-3.14,6.7-6.99,6.91-.59.03-1.17,0-1.76,0-6.13,0-12.26,0-18.38,0-.59,0-1.18-.02-1.76.01-1.21.06-1.42.25-1.44,1.54-.03,1.93-.05,3.86,0,5.79.06,1.96,1.17,3.09,3.1,3.28.58.06,1.17.02,1.76.02,7.47,0,14.94,0,22.41,0,.75,0,1.51.02,2.26.06.47.03.75.33.82.79.04.25.04.5.05.75.11,2.77.09,2.79-2.7,2.8-3.86,0-7.72,0-11.58,0ZM690.25,199.1c3.19,0,6.38,0,9.58,0,.59,0,1.19.05,1.76-.07,1.34-.27,2.79-1.19,2.71-3.11-.07-1.68-.03-3.36-.02-5.04,0-1.02-.49-1.74-1.31-2.29-.81-.55-1.71-.6-2.65-.6-5.96.01-11.93,0-17.89,0-.5,0-1.02,0-1.5.1-1.43.3-2.45,1.32-2.51,2.77-.1,2.43-.04,4.87,0,7.3,0,.44.3.79.78.84.5.05,1,.07,1.51.07,3.19,0,6.38,0,9.58,0Z"/>
        <path class="cls-1" d="M821.13,218.55c-3.95,0-7.89-.02-11.84,0-1.46,0-2.85-.23-4.14-.88-2.62-1.32-4.12-3.43-4.2-6.38-.09-3.02-.03-6.04-.04-9.07,0-3.53.09-7.05-.02-10.58-.14-4.25,2.82-7.8,7.85-8.07.34-.02.67,0,1.01,0,5.71,0,11.42,0,17.13,0,1.01,0,2,.09,3,.29,3.45.7,5.77,3.36,5.87,6.86.05,1.85-.01,3.69.01,5.54.06,3.96-3.44,7.21-7.22,7.24-1.09,0-2.18,0-3.28,0-5.71,0-11.42,0-17.13,0-.67,0-1.34.03-2.01.09-.37.03-.59.29-.65.65-.04.25-.08.5-.08.75,0,1.93-.04,3.86,0,5.79.04,1.97,1.11,3.12,3.04,3.32.67.07,1.34.03,2.01.03,7.39,0,14.78,0,22.17,0,.75,0,1.51.01,2.26.06.47.03.76.33.81.79.05.42.05.84.05,1.26,0,2.14-.1,2.28-2.27,2.29-4.12.02-8.23,0-12.35,0ZM817.32,199.1c3.18,0,6.36,0,9.55,0,.59,0,1.18.03,1.75-.07,1.68-.29,2.64-1.38,2.71-3.1.06-1.59.06-3.18,0-4.77-.07-1.8-1.18-2.95-2.95-3.14-.5-.05-1-.03-1.51-.03-5.61,0-11.22,0-16.83,0-.42,0-.84-.02-1.26.01-2.22.14-3.35,1.27-3.4,3.5-.05,1.92-.01,3.85,0,5.77,0,.25,0,.5.02.75.07.75.32.99,1.13,1.04.58.04,1.17.02,1.76.02,3.01,0,6.03,0,9.04,0Z"/>
        <path class="cls-1" d="M540.91,218.79c-3.27,0-6.54-.01-9.81,0-1.28,0-2.51-.14-3.68-.67-2.06-.93-3.31-2.55-3.75-4.73-.23-1.14-.3-2.33-.3-3.5-.03-5.7-.03-11.4,0-17.1,0-1,.11-2.01.24-3,.44-3.19,2.83-5.26,5.58-5.66.66-.1,1.33-.18,2-.18,6.46-.01,12.92,0,19.38,0,.42,0,.84,0,1.26.04,3.78.3,6.12,2.99,6.55,6.49.04.33.03.67.03,1.01,0,6.62-.01,13.25,0,19.87,0,1.74-.41,3.33-1.5,4.69-1.45,1.81-3.32,2.76-5.68,2.74-3.44-.03-6.88,0-10.32,0h0ZM553.6,201.5c0-1.01,0-2.01,0-3.02,0-2.43.03-4.87-.02-7.3-.04-1.68-.79-2.44-2.43-2.62-.42-.04-.84-.02-1.26-.02-6.05,0-12.1,0-18.14,0-.42,0-.84-.02-1.26.03-1.22.15-2.18,1.06-2.35,2.27-.07.5-.05,1-.05,1.51,0,6.04,0,12.09,0,18.13,0,.59-.02,1.19.1,1.75.23,1.09.95,1.76,2.06,1.94.41.07.84.05,1.26.05,6.22,0,12.43,0,18.65,0,.42,0,.85.02,1.26-.04,1.37-.21,2.06-.96,2.17-2.34.04-.5.02-1.01.02-1.51,0-2.94,0-5.88,0-8.81Z"/>
        <path class="cls-1" d="M577.54,201.35c0-4.95,0-9.9,0-14.85,0-.59.02-1.17.07-1.76.03-.35.22-.67.61-.69.75-.05,1.51-.07,2.26-.05.22,0,.54.17.62.34.49,1.14,1.18.79,2.02.42,1.31-.59,2.71-.82,4.17-.82,5.63.02,11.26.14,16.88-.03,4.44-.13,9.28,3.5,9.67,9.34.08,1.17.01,2.35.01,3.52,0,6.55,0,13.09,0,19.64,0,2.2-.06,2.24-2.25,2.21-.08,0-.17,0-.25,0-1.33-.04-1.49-.18-1.53-1.41-.02-.59,0-1.17,0-1.76,0-7.05-.04-14.1.02-21.15.02-1.9-.58-3.41-1.96-4.69-.99-.92-2.1-1.28-3.43-1.26-3.11.04-6.21.01-9.32.01-2.77,0-5.55.12-8.31-.03-2.69-.15-4.87,2.1-5.17,4.52-.11.91-.13,1.84-.13,2.76-.01,6.46,0,12.92,0,19.39,0,.5,0,1.01,0,1.51-.04,2.03-.15,2.13-2.16,2.12-1.7-.01-1.77-.07-1.78-1.92-.01-5.12,0-10.24,0-15.36Z"/>
        <path class="cls-1" d="M639.69,199.05c0,3.69,0,7.38,0,11.07,0,.67-.08,1.35.25,1.97.68,1.25,1.62,2.12,3.16,2.11,2.1-.01,4.19-.02,6.29-.03,1.09,0,2.18-.02,3.27,0,.57.01.93.32.98.92.01.17.02.33.02.5,0,3.24.29,3.04-2.93,3.03-2.43,0-4.87.02-7.3,0-5.01-.05-8.18-3.19-8.21-8.2-.04-6.96,0-13.92,0-20.88,0-.67-.03-1.34,0-2.01.04-.96-.22-1.62-1.35-1.66-.61-.02-.83-.49-.85-1.04-.02-.5,0-1.01-.02-1.51-.02-.84.18-1.48,1.2-1.54.72-.04.98-.55,1-1.21.02-.92,0-1.85.04-2.77.05-1.05.3-1.25,1.42-1.32.17,0,.34,0,.5,0,2.49-.05,2.53-.04,2.51,2.45-.02,2.85.08,2.89,2.98,2.87,2.85-.02,5.7,0,8.56,0,.58,0,1.17.02,1.75.09.22.03.54.21.6.38.32,1.06.33,2.14,0,3.2-.05.17-.39.33-.61.35-.58.07-1.17.07-1.76.07-2.77,0-5.54,0-8.3,0-.5,0-1.01-.01-1.51,0-1.48.05-1.62.18-1.68,1.56-.02.5,0,1.01,0,1.51,0,3.35,0,6.71,0,10.06Z"/>
        <path class="cls-1" d="M764.77,200.82c0-4.95,0-9.89,0-14.84,0-.67,0-1.34.07-2.01.04-.46.39-.8.83-.79,1.22.02,2.51-.45,3.63.44.28.22.59.31.94.23,2.07-.5,4.17-.2,6.26-.26,1.84-.05,3.69,0,5.53-.01,3.51-.04,5.86,1.68,7.3,4.78.17.37.32.78.39,1.18.26,1.38-.12,1.81-1.55,1.86-.5.02-1.01,0-1.51,0-.64,0-1.11-.19-1.31-.9-.53-1.93-1.9-2.57-3.81-2.51-2.68.09-5.37.06-8.05.09-.25,0-.5.05-.75.04-2.34-.11-3.6,1.39-3.52,3.59.05,1.34,0,2.68,0,4.02,0,6.87,0,13.75,0,20.62,0,2.32-.02,2.32-2.42,2.29-.34,0-.67-.01-1-.03-.58-.04-.94-.37-.99-.93-.06-.67-.04-1.34-.04-2.01,0-4.95,0-9.89,0-14.84Z"/>
        <path class="cls-1" d="M726.36,200.73c0-5.11-.01-10.23,0-15.34,0-2.2.08-2.28,2.26-2.27.81,0,1.69-.21,2.35.54.13.15.47.21.69.17,3.25-.57,6.52-.12,9.78-.26.75-.03,1.51.02,2.26,0,3.44-.1,6.98,2.5,7.57,6.39.14.91-.07,1.2-1.04,1.25-.67.03-1.34,0-2.01,0-.65,0-1.07-.22-1.31-.9-.6-1.73-1.88-2.4-3.7-2.34-2.76.09-5.53.06-8.3.1-.5,0-1.01.04-1.5.12-1.53.26-2.38,1.12-2.55,2.67-.07.66-.03,1.34-.03,2.01,0,7.63,0,15.25,0,22.88,0,.67,0,1.34-.04,2.01-.03.46-.31.75-.79.82-.08.01-.17.02-.25.03-3.73.03-3.39.39-3.4-3.05,0-4.95,0-9.89,0-14.84Z"/>
      </g>
      <g>
        <path class="cls-1" d="M80.7,181.68c-25.71,0-51.41,0-77.12,0-.76,0-1.51.02-2.27-.02-.9-.05-1.24-.35-1.27-1.21-.04-1.17-.09-2.36.03-3.52.87-8.28.78-16.58.62-24.89-.08-3.94.06-7.89.13-11.83.02-1.33.22-1.53,1.64-1.7,2.75-.33,5.5-.63,8.26-.92,6.26-.66,12.52-1.3,18.79-1.95,6.6-.68,13.2-1.36,19.79-2.05,6.35-.66,12.69-1.34,19.04-1.99,9.61-.99,19.21-1.95,28.82-2.94,6.68-.69,13.36-1.42,20.04-2.1,2.5-.26,5.01-.52,7.52-.66,2.23-.13,3.92-.9,5.32-2.79,3.63-4.9,8.13-8.94,13.32-12.15,6.18-3.83,12.92-5.95,20.19-6.42,7.91-.51,15.55.86,23.04,3.25,2,.64,3.95,1.41,5.93,2.12.47.17.95.33,1.43.45.39.1.69-.15.77-.48.11-.48.13-1,.12-1.5-.04-6.8-.12-13.6-.13-20.4,0-1.44-.38-2.16-2.12-2.62-5.11-1.34-10.23-2.68-15.34-4.03-18.58-4.91-37.18-9.77-55.73-14.78-3.24-.88-6.35-1.46-9.59-.26-13.66,2.77-27.31,5.54-40.97,8.29-12.09,2.44-24.19,4.87-36.28,7.31-8.56,1.73-17.11,3.48-25.66,5.22-.41.08-.82.19-1.23.25-1.1.16-1.59-.23-1.53-1.37.12-2.35.53-4.67,1.01-6.96,2.46-11.64,8.01-21.65,16.08-30.32,5.06-5.44,10.85-10.01,16.95-14.22,1.33-.92,2.84-1.44,4.35-1.94,5.57-1.86,11.15-3.71,16.72-5.57,19.66-6.57,39.32-13.14,58.98-19.71,7.01-2.34,14.03-4.65,21.01-7.05,1.19-.41,2.04-.26,2.98.51,4.16,3.4,8.36,6.76,12.54,10.13,7.19,5.79,14.39,11.59,21.58,17.38,3.33,2.69,6.7,5.34,9.98,8.09,1.09.91,2.1,1.1,3.46.71,7.67-2.2,15.35-4.32,23.03-6.46,5.98-1.67,11.96-3.35,17.94-5.03.24-.07.48-.15.72-.21,1.06-.28,1.95-.08,2.75.73,1.29,1.32,2.68,2.54,4,3.83,6.78,6.64,13.54,13.3,20.32,19.93,5.64,5.52,11.29,11.03,16.94,16.54,7.39,7.21,14.74,14.47,22.19,21.61,7.52,7.2,14.87,14.57,22.37,21.8,7.43,7.17,14.8,14.4,22.16,21.64,5.68,5.59,11.41,11.14,17.14,16.69,4.4,4.26,8.83,8.5,13.24,12.75.73.7,1.4,1.46,2.15,2.12.82.72,1.23,1.57,1.1,2.66-.02.17,0,.34,0,.5,0,4.79,0,9.57,0,14.36,0,2.7-.05,2.72-2.4,1.63-2.21-1.02-4.42-2.03-6.63-3.07-11.94-5.58-23.87-11.18-35.81-16.76-16.5-7.71-33.02-15.4-49.52-23.1-13.31-6.21-26.62-12.44-39.92-18.66-.3-.14-.61-.28-.92-.41-1.07-.45-1.5-.17-1.6,1.04-.03.42-.02.84-.02,1.26,0,4.53,0,9.07,0,13.6,0,2.48,0,2.51,2.44,3.39,7.34,2.65,14.69,5.28,22.05,7.9,11.78,4.2,23.57,8.38,35.34,12.58,14.31,5.11,28.61,10.24,42.91,15.34,10.59,3.78,21.19,7.55,31.78,11.32.4.14.79.3,1.17.46.69.29,1.03.82,1.05,1.56.01.42.01.84.01,1.26,0,5.29,0,10.58,0,15.87,0,.34.01.67,0,1.01-.06,1.11-.34,1.43-1.35,1.32-1.92-.22-3.83-.47-5.74-.79-1.39-.23-1.61-.51-1.83-1.98-.59-3.9-1.17-7.8-1.71-11.7-.44-3.17-.49-3.23-3.53-3.97-9.3-2.27-18.59-4.56-27.88-6.84-1.39-.34-2.77-.69-4.16-1-.84-.19-1.25.08-1.46.92-.08.32-.11.66-.17.99-.97,5.71-1.94,11.42-2.9,17.13-.03.17-.05.33-.08.5-.38,1.92-.56,2.09-2.47,1.95-3.43-.26-6.86-.56-10.29-.85-6.11-.52-12.21-1.03-18.32-1.56-3.09-.27-6.19-.53-9.28-.86-1.58-.17-1.63-.23-1.91-1.83-.72-4.22-1.4-8.45-2.06-12.68-.94-5.97-1.89-11.93-2.76-17.91-.19-1.31-.89-1.87-2.05-2.2-3.56-1-7.1-2.02-10.65-3.04-5.57-1.6-11.13-3.21-16.7-4.8-2.21-.63-2.26-.6-2.58,1.58-.5,3.49-.95,6.99-1.41,10.48-1.09,8.24-2.17,16.47-3.25,24.71-.03.25-.05.5-.1.75-.18.88-.5,1.16-1.37,1.12-1.42-.08-2.85-.2-4.27-.32-2.51-.21-5.02-.43-7.53-.66-.42-.04-.84-.08-1.25-.17-.89-.21-1.23-.62-1.32-1.59-.04-.42-.02-.84-.02-1.26,0-1.01,0-2.02,0-3.02-.07-10.41-.14-20.81-.22-31.22,0-.42-.02-.84-.03-1.26-.02-.56-.34-.95-.81-1.18-.52-.26-1.09-.43-1.62-.69-3.2-1.53-5.1-5.05-4.5-8.52.48-2.79,2.01-4.78,4.82-5.56,2.39-.67,2.26-.6,2.27-3.1.05-17.29.12-34.59.15-51.88.02-12.85,0-25.69,0-38.54,0-3.3-.03-3.3-3.22-2.7-6.02,1.14-12.04,2.25-18.06,3.38-.08.02-.17.02-.25.04-.57.11-1.38.04-1.54.63-.2.75.61,1.1,1.12,1.51,1.63,1.33,3.27,2.64,4.9,3.95.92.74,1.82,1.48,2.76,2.2.86.66,1.39,1.44,1.26,2.57-.04.41,0,.84,0,1.26,0,23.59,0,47.19.01,70.78,0,3.43-.09,3.3-3.15,2.16-4.28-1.59-8.66-2.69-13.27-2.52-5.59.2-10.47,2.13-14.56,6-4.26,4.04-6.9,9.05-8.72,14.53-1.92,5.76-2.88,11.71-3.29,17.76-.5,7.33-.03,14.59,1.15,21.82.59,3.65,1.43,7.24,2.55,10.76.28.88.53,1.77.73,2.67.12.53-.22,1.02-.78,1.08-.83.09-1.67.11-2.51.12-23.52,0-47.04,0-70.56,0-1.93,0-3.87.08-5.79-.03-1.43-.08-2.32.44-3.13,1.6-2.41,3.44-4.98,6.76-7.39,10.2-1.07,1.53-2.34,2.15-4.22,2.14-9.49-.07-18.99-.08-28.48,0-2.03.02-3.51-.64-4.88-2.08-3.25-3.4-6.64-6.67-9.88-10.07-1.27-1.33-2.65-1.81-4.46-1.8-10,.06-19.99.03-29.99.03-3.26,0-3.12.17-3.1-3.2,0-1.26,0-2.52.05-3.78.03-.7.41-1.07,1.12-1.1.92-.05,1.85-.04,2.77-.04,50.99,0,101.98,0,152.97,0,.76,0,1.51.02,2.27-.01,1.15-.05,1.47-.33,1.47-1.55.03-4.03.03-8.06,0-12.09-.01-1.35-.44-1.7-1.88-1.76-.67-.03-1.34,0-2.02,0-25.62,0-51.24,0-76.87,0ZM111.47,176.96c0-.07,0-.14,0-.21,3.11,0,6.21.02,9.32,0,1.78-.02,2.06-.31,2.14-2.02.01-.34,0-.67,0-1.01,0-4.28,0-8.56,0-12.84,0-.5.02-1.01-.02-1.51-.1-1.19-.54-1.6-1.76-1.67-.59-.03-1.18-.02-1.76-.01-3.94.04-7.89.07-11.83.13-1.93.03-3.86.07-5.79.15-1.08.05-1.36.32-1.37,1.37-.03,2.01-.01,4.03-.01,6.04,0,3.36-.02,6.71.02,10.07.01,1.19.3,1.48,1.51,1.49,3.19.03,6.38,0,9.57,0ZM16.36,161.33s0,.05,0,.08c-2.35,0-4.69,0-7.04,0-.59,0-1.18-.02-1.76.06-.64.09-1.06.5-1.13,1.16-.05.5-.06,1-.06,1.5,0,3.85,0,7.7,0,11.56,0,2.67.02,2.64,2.63,2.7,5.27.12,10.53-.55,15.81-.36,1.22.04,1.47-.24,1.47-1.5.02-4.52.03-9.04,0-13.57,0-1.35-.3-1.63-1.63-1.64-2.76-.03-5.53,0-8.29,0Z"/>
        <path class="cls-1" d="M245.44,219.16c-5.04,0-10.07,0-15.11,0-.59,0-1.18.02-1.76-.01-1.31-.07-1.64-.33-1.86-1.57-.4-2.23-.78-4.46-1.16-6.69-.07-.41-.14-.83-.13-1.24.01-.45.28-.83.74-.88.66-.08,1.34-.09,2.01-.09,6.38,0,12.76,0,19.14,0,.59,0,1.18.02,1.76,0,1.44-.06,1.75-.46,1.37-1.92-.38-1.46-.83-2.9-1.24-4.35-2.78-9.93-1.47-19.42,3.08-28.56,1.23-2.47,3.01-4.43,5.39-5.83,2.84-1.66,5.75-1.67,8.67-.26,2.01.97,3.57,2.47,4.79,4.34,1.71,2.63,3,5.46,3.61,8.53,2.17,10.88.49,21.19-4.84,30.9-1.26,2.29-2.93,4.28-4.77,6.15-1.08,1.1-2.28,1.54-3.82,1.53-5.29-.06-10.58-.02-15.87-.02ZM269.29,190.44c-.19,5.53-1.3,10.39-3.79,14.89-.24.44-.48.89-.64,1.36-.15.43.05.83.37,1.13.32.3,1.02.2,1.35-.24.39-.54.75-1.11,1.04-1.7,2.01-4.11,3.24-8.43,3.66-12.99.52-5.62-.63-10.84-3.66-15.61-.44-.7-1.02-1.33-1.58-1.95-.29-.32-.71-.46-1.14-.22-.5.28-.66.73-.57,1.28.14.87.71,1.5,1.2,2.18,2.62,3.69,3.7,7.84,3.75,11.88Z"/>
        <path class="cls-1" d="M331.77,219.15c-2.69,0-5.37.02-8.06,0-1.34-.02-1.68-.35-1.72-1.6-.04-1.34-.03-2.68.01-4.02.03-.86.37-1.21,1.26-1.23,2.18-.04,4.36-.04,6.54-.03,2.77.01,2.86.05,2.53-2.71-.58-4.95-.33-9.88,1.25-14.68.5-1.53,1.14-2.97,2.17-4.22,1.6-1.94,3.32-2.28,5.57-1.09,1.45.77,2.51,1.93,3.3,3.36,1.34,2.41,1.86,5.04,2.03,7.72.33,5.01-.5,9.86-2.37,14.52-.28.7-.67,1.35-1.02,2.02-.72,1.41-1.82,2.05-3.46,1.99-2.68-.09-5.37-.02-8.06-.02h0ZM342.87,202.82c.07,3.47-.67,6.63-1.98,9.67-.23.54-.49,1.07-.68,1.62-.09.23,0,.56.26.6.19.03.45-.15.63-.29.12-.09.18-.28.25-.43,1.97-4.27,2.92-8.74,2.56-13.44-.15-1.95-.78-3.77-1.81-5.44-.17-.27-.43-.5-.69-.71-.1-.08-.35-.07-.45,0-.11.08-.21.3-.19.43.06.32.15.66.32.93,1.39,2.21,1.87,4.64,1.79,7.07Z"/>
        <path class="cls-1" d="M356.22,219.15c-2.18,0-4.36,0-6.55,0-.75,0-1.36-.29-1.54-1.03-.37-1.54-.88-3.07-.94-4.67-.02-.66.36-1.08,1.07-1.14.67-.06,1.34-.04,2.01-.04,1.17,0,2.35.02,3.52-.02.93-.04,1.23-.38,1.17-1.25-.02-.42-.12-.83-.15-1.25-.31-3.81.04-7.53,1.3-11.16.39-1.12.89-2.18,1.67-3.07,1.36-1.55,2.99-1.75,4.71-.61,1.09.72,1.85,1.73,2.32,2.91.47,1.16.93,2.35,1.18,3.58.98,4.84.85,9.67-.44,14.45-.13.48-.34.95-.49,1.42-.44,1.39-1.34,1.99-2.83,1.93-2.01-.08-4.03-.02-6.04-.02h0ZM362.34,214.29c.28.08.4,0,.48-.19,1.78-3.96,2.27-8.04,1.06-12.25-.23-.8-.64-1.54-1-2.29-.14-.3-.41-.58-.76-.4-.26.13-.13.45,0,.67.74,1.33,1.27,2.72,1.47,4.25.37,2.88.06,5.68-.88,8.42-.2.59-.64,1.15-.36,1.8Z"/>
        <path class="cls-1" d="M173.8,219.16c-8.31,0-16.62,0-24.93,0-2.35,0-2.49-.15-2.79-2.52-.26-2.08-.54-4.16-.81-6.24-.24-1.85.04-2.15,2-2.19.5-.01,1.01,0,1.51,0,10.58,0,21.15,0,31.73,0,.67,0,1.34.02,2.01-.02.9-.05,1.13-.4.9-1.33-.1-.41-.22-.81-.35-1.21-2.06-6.31-3.61-12.74-4.51-19.32-1.23-9.09-.87-18.08,1.91-26.88.99-3.13,2.23-6.15,3.82-9.02,1.68-3.06,3.92-5.66,6.78-7.66,4.96-3.49,10.1-3.69,15.35-.62,2.82,1.65,4.95,3.98,6.65,6.74,3.23,5.23,4.92,10.98,5.77,17.02.55,3.93.65,7.86.45,11.8-.52,10.1-2.94,19.73-7.74,28.67-2.23,4.16-4.99,7.95-8.51,11.16-1.26,1.15-2.6,1.67-4.31,1.66-8.31-.05-16.62-.02-24.93-.02ZM214.03,177.97c-.07-1-.12-2.01-.22-3-.82-8.3-4.29-15.43-9.7-21.68-.38-.44-.81-.86-1.27-1.22-1-.78-1.77-.81-2.5-.18-.76.66-.88,1.45-.27,2.48.47.79,1.04,1.52,1.56,2.28,1.96,2.82,3.86,5.68,5.39,8.78,3.67,7.48,4.15,15.09,1.06,22.88-1.3,3.28-2.94,6.39-4.78,9.4-.48.79-.95,1.58-1.36,2.41-.35.69-.2,1.28.34,1.82.78.78,2.1.86,2.97.12.38-.32.7-.72,1-1.12,4.97-6.85,7.61-14.49,7.78-22.98Z"/>
      </g>
    </g>
  </g>
</svg>