<?xml version="1.0" encoding="UTF-8"?>
<svg id="Layer_2" xmlns="http://www.w3.org/2000/svg" viewBox="0 0 841.52 364.55">
  <defs>
    <style>
      .cls-1 {
        fill: #fff;
      }
    </style>
  </defs>
  <g id="Layer_1-2" data-name="Layer_1">
    <g>
      <g>
        <path class="cls-1" d="M151.95,70.2c9.26-3.67,18.31-13.18,18.31-30.24C170.26,13.39,149.54,0,117.34,0H28.18L0,37.58h119.14c5.84,0,11.68,2.16,11.68,9.29s-5.64,9.72-11.68,9.72H0v87.91h118.34c42.47,0,54.74-18.14,54.74-42.12,0-17.28-9.46-28.51-21.13-32.18ZM118.54,107.36H41.86v-19.87h76.68c9.06,0,12.88,3.46,12.88,9.72,0,6.7-3.82,10.15-12.88,10.15Z"/>
        <path class="cls-1" d="M368.9,81.43c0,43.63-27.98,65.45-83.93,65.45-64.8,0-92.78-21.82-92.78-65.45V0h41.46v81.43c0,21.38,8.45,28.3,51.32,28.3,32,0,42.06-7.99,42.06-28.3V0h41.86v81.43Z"/>
        <path class="cls-1" d="M585.25,0l-79.9,96.77v47.74h-41.86v-47.95L381.37,0h53.53l32.2,40.18c4.23,5.19,15.5,18.36,18.31,22.68,2.62-4.1,7.25-10.37,16.91-22.9L532.92,0h52.33Z"/>
        <g>
          <path class="cls-1" d="M175.32,257.6c43.37,0,66.78,16.23,66.78,48.69,0,36.45-22.08,58.26-76.36,58.26H0l35.38-45.76h134.62c13.04,0,18.89-3.73,18.89-13.04s-5.85-12.77-18.89-12.77h-96.84c-45.76,0-66.78-20.49-66.78-51.08,0-33.52,22.35-55.34,76.36-55.34h154.57l-35.38,46.29h-123.45c-12.77,0-18.89,3.19-18.89,12.24s6.12,12.5,18.89,12.5h96.84Z"/>
          <path class="cls-1" d="M482.62,364.55h-54.81v-68.64h-105.89v68.64h-55.34v-177.99h55.34v63.05h105.89v-63.05h54.81v177.99Z"/>
          <path class="cls-1" d="M572.28,364.55h-55.07v-177.99h55.07v177.99Z"/>
          <path class="cls-1" d="M754,319.05h-93.12v45.49h-54.81v-90.99h153.24c17.03,0,26.87-8.25,26.87-20.49s-9.84-20.22-26.87-20.22h-153.24l36.45-46.29h111.74c55.07,0,87.26,27.14,87.26,66.78s-32.19,65.71-87.53,65.71Z"/>
        </g>
      </g>
      <path class="cls-1" d="M797.61,117.21c17.71-10.45,30.25-25.77,37.6-45.95l-59.13-4.58c-3.93,11.99-9.71,20.43-17.35,25.29l-23.29-16.3c11.37-2.25,21.4-6.55,30.1-12.9,8.7-6.35,13.04-14.24,13.04-23.67,0-11.39-6.6-20.32-19.79-26.78-13.2-6.46-30.71-9.69-52.53-9.69-23.16,0-41.37,3.38-54.62,10.13-9.69,4.94-15.82,11.14-18.42,18.6h64.45c2.74-1.33,6.08-2.04,10.09-2.04,5.34,0,9.58,1.05,12.69,3.15,3.12,2.1,4.68,4.75,4.68,7.94,0,6.38-5.54,10.98-16.62,13.81-3.53-1.82-6.49-3.6-8.89-5.32h-65.99c2.67,6.46,8.23,13.18,16.68,20.18-35.19,7.99-52.78,21.61-52.78,40.85,0,14.45,8.6,25.73,25.81,33.82,17.2,8.1,39.11,12.15,65.72,12.15,28.39,0,50.22-4.25,65.47-12.74,15.03,7.99,32.9,11.98,53.62,11.98,8.79,0,17.81-.8,27.06-2.4v-32.02c-6.46.44-11.81.65-16.05.65-9.36,0-16.55-1.38-21.56-4.15ZM693.32,123.76c-8.99,0-16.05-1.54-21.15-4.61-5.11-3.07-7.66-7.11-7.66-12.1,0-7.74,5.44-13.16,16.33-16.28l38.13,27.1c-6.44,3.93-14.99,5.89-25.64,5.89Z"/>
    </g>
  </g>
</svg>