<?xml version="1.0" encoding="UTF-8"?><svg id="uuid-0b2cd74d-3aa7-47fe-b669-825f3605781d" xmlns="http://www.w3.org/2000/svg" viewBox="0 0 580 580"><defs><style>.uuid-d1bb89ee-8ade-45e0-8b98-3d779145f186{fill:#fff;}</style></defs><path class="uuid-d1bb89ee-8ade-45e0-8b98-3d779145f186" d="M300.6,126.8l19.72,2.85c35.69,6.79,67.74,25.6,91.85,52.53l14.93,19.75v-37.88c0-1.29,2.99-5.66,4.14-6.68,7.49-6.74,18.17-2.58,21.29,6.36-1.28,14.64,1.71,32.2,0,46.48-2.11,17.65-19,33.44-36.56,35.01-11.1.99-32.79,1.03-43.87.04-10.53-.94-15.51-12.88-8.89-21.05,1.13-1.4,5.41-4.44,7-4.44h37.18c-1.29-3.49-3.92-7.04-6.11-10.12-55.22-77.48-170.53-75.68-224.51,2.28-61.34,88.59.4,210.79,106.99,215.4,7.46.32,19.57-2.22,25.67,1.03,10.08,5.36,7.72,21.53-3.58,23.66-16.92,3.2-43.37-.53-60.06-5.13-96.4-26.55-146.23-135.59-103.38-226.71,24.67-52.46,78.47-89.96,136.57-93.37h21.61Z"/><path class="uuid-d1bb89ee-8ade-45e0-8b98-3d779145f186" d="M287.09,175.34c7.46-1.29,13.79,3.1,15.37,10.41l-.23,107.26-3.52,6.03c-17.22,14.51-32.94,36.55-50.22,50.29-11.92,9.48-26.16-1.69-20.23-15.17l48.7-49.91.13-97.92c.53-5.03,5.01-10.12,10-10.99Z"/><path class="uuid-d1bb89ee-8ade-45e0-8b98-3d779145f186" d="M436.51,309.04c6.99-.36,13.43,5.96,13.47,12.9.02,2.76-3.84,16.42-5.31,18.88-6.75,11.31-24.07,5.65-23.86-6.71.05-3.1,4.04-17.16,5.76-19.7,2.01-2.96,6.43-5.2,9.94-5.37Z"/><path class="uuid-d1bb89ee-8ade-45e0-8b98-3d779145f186" d="M372.84,412.26c4.91,5.28,4.39,13.87-1.1,18.51-2.26,1.91-14.74,8.21-17.48,8.59-12.97,1.8-20.13-13.69-10.66-22.13,2.7-2.41,14.95-8.57,18.4-8.96s8.41,1.37,10.84,3.99Z"/><path class="uuid-d1bb89ee-8ade-45e0-8b98-3d779145f186" d="M407.86,366.99c10.06-1.75,18.23,6.5,15.12,16.42-.9,2.86-9.99,14.45-12.45,16.17-11.66,8.13-26.34-4.96-17.65-18.31,2.77-4.25,10.04-13.43,14.98-14.28Z"/></svg>