<?xml version="1.0" encoding="UTF-8"?><svg id="uuid-3bc74ba6-2528-46e4-a1a8-c545e7a13c07" xmlns="http://www.w3.org/2000/svg" viewBox="0 0 580 580"><defs><style>.uuid-8156fed1-2cd0-41a7-b803-e9947a6d02e2{fill:#fff;}</style></defs><path class="uuid-8156fed1-2cd0-41a7-b803-e9947a6d02e2" d="M438.88,235.75h15.68c.99,0,4.66,3.66,4.66,4.66v117.41h15.68c.99,0,4.66,3.66,4.66,4.66v22.46h36.03c1.77,0,4.31,3.66,4.61,5.56,1.69,10.83-1,25.79-.13,37.07-1.92,6.22-8.14,4.79-13.38,4.84v22.46c0,1-3.67,4.66-4.66,4.66h-63.16v29.25c0,1.94-4.85,5.47-7.17,4.7h-236.59c-76.71-6.45-108.95-98.77-54.66-153.07l.4-249.68,3.81-3.81,287.04-.42c2.31-.77,7.17,2.76,7.17,4.7v144.54ZM425.32,100.11H154.05v230.58c41.86-26.04,96.43-13.73,122.42,28.05,22.14,35.58,15.92,80.9-13.47,110.15l-14.01,11h176.33v-20.35h-49.59c-.99,0-4.66-3.66-4.66-4.66v-22.46c-5.24-.05-11.46,1.37-13.38-4.84.87-11.28-1.82-26.24-.13-37.07.3-1.9,2.84-5.56,4.61-5.56h36.03v-22.46c0-1,3.67-4.66,4.66-4.66h15.68v-117.41c0-3.93,6.78-4.23,6.78-4.66V100.11ZM445.67,249.31h-13.56v108.51h13.56v-108.51ZM195.42,330.94c-56.54,4.9-86.98,67.91-55.97,115.65,29.08,44.78,97.05,43.76,125.16-1.53,32.29-52.03-8.29-119.4-69.19-114.12ZM466.01,371.38h-54.25v13.56h54.25v-13.56ZM506.7,398.51h-135.64v20.35h135.64v-20.35ZM493.14,432.42h-108.51v13.56h108.51v-13.56Z"/><path class="uuid-8156fed1-2cd0-41a7-b803-e9947a6d02e2" d="M192.8,120.64l195,.46c2.18,1.13,3.56,3.22,3.62,5.7-2.28,32.77,2.96,69.49.02,101.79-.27,2.99-.76,5.02-3.65,6.53h-196.24c-2.18-1.13-3.56-3.22-3.62-5.7,2.25-32.79-2.93-69.45-.02-101.79.32-3.57,1.21-5.84,4.88-6.98ZM377.85,134.02h-176.33v88.16h176.33v-88.16Z"/><path class="uuid-8156fed1-2cd0-41a7-b803-e9947a6d02e2" d="M226.71,256.27l151.58-.2c8.57.84,8.58,12.75,0,13.6h-150.08c-7.74-.66-8.81-10.96-1.5-13.4Z"/><path class="uuid-8156fed1-2cd0-41a7-b803-e9947a6d02e2" d="M226.71,283.4l151.58-.2c8.57.84,8.58,12.75,0,13.6h-150.08c-7.74-.66-8.81-10.96-1.5-13.4Z"/><path class="uuid-8156fed1-2cd0-41a7-b803-e9947a6d02e2" d="M199.6,256.26c9.94-2.17,11.66,11.53,3.85,13.23-9.94,2.17-11.66-11.53-3.85-13.23Z"/><path class="uuid-8156fed1-2cd0-41a7-b803-e9947a6d02e2" d="M199.6,283.39c9.94-2.17,11.66,11.53,3.85,13.23-9.94,2.17-11.66-11.53-3.85-13.23Z"/><path class="uuid-8156fed1-2cd0-41a7-b803-e9947a6d02e2" d="M208.42,358.55c11.34,2.5,22.03,15.82,20.18,27.62-.82,5.22-6.8,7.24-10.95,4.27-4.52-3.24-.69-12.73-9.88-17.25-13.35-6.57-25.47,8.64-16.8,20.19,4.83,6.43,14.03,4.32,20.95,7.03,24.11,9.42,21.41,45.37-3.51,51.63,3.06,19.42-16.86,19.41-13.79,0-11.25-2-23.38-17.67-19.85-28.98,1.3-4.17,6.61-5.23,10.12-3.24,5.09,2.87,1.07,13.02,10.37,17.6,13.35,6.57,25.47-8.64,16.8-20.19-4.83-6.43-14.03-4.32-20.95-7.03-24.12-9.43-21.4-45.38,3.51-51.63-.1-6.16-.92-15.43,8.09-14.28,7.13.91,5.4,9.2,5.7,14.28Z"/><path class="uuid-8156fed1-2cd0-41a7-b803-e9947a6d02e2" d="M292.94,195.19h-20.07c-2.28,3.84-3.34,12.16-8.38,13.26-5.95,1.3-10.16-3.47-8.3-9.17,7.56-14.62,12.35-32.65,20.04-46.94,3.16-5.87,8.83-6.92,12.79-1.13l20.83,48.71c1.24,5.59-2.9,9.75-8.52,8.52-5.04-1.1-6.1-9.41-8.38-13.26ZM283.74,173.02c-1.94-.41-1.35.21-1.9,1.08-1.37,2.18-1.69,5.2-3.18,7.39h8.48l-3.4-8.47Z"/><path class="uuid-8156fed1-2cd0-41a7-b803-e9947a6d02e2" d="M321.67,147.75c8.76-1.91,12.81,12.87,18.54,17.6,2.36.5,10.27-14.92,13.57-16.82,4.52-2.61,10.35.03,10.57,5.43.23,5.66-12.37,18.2-15.18,23.87-.32,2.11,13.56,17.53,14.73,21.43,1.51,5.02-1.38,9.64-6.8,9.42-6.37-.27-11.44-13.91-16.21-17.83-2.36-.5-10.27,14.92-13.57,16.82-4.52,2.61-10.35-.03-10.57-5.43-.23-5.66,12.37-18.2,15.18-23.87.33-2.19-14.02-17.88-14.96-22.08-.82-3.66.89-7.72,4.69-8.54Z"/><path class="uuid-8156fed1-2cd0-41a7-b803-e9947a6d02e2" d="M242.21,161.15v42.81c0,5.91-13.56,5.91-13.56,0v-42.81c-3.62-.27-7.9.93-11-1.29-3.88-2.79-3.38-9.74,1.04-11.63,2.63-1.12,26.68-1.13,30.75-.66,8.62,1.01,8.28,12.37.78,13.53-2.53.39-5.42-.15-8,.05Z"/></svg>