<?xml version="1.0" encoding="UTF-8"?><svg id="uuid-f95d6df7-e225-4db3-b608-b9252875e55c" xmlns="http://www.w3.org/2000/svg" viewBox="0 0 580 580"><defs><style>.uuid-6ed4452b-80d7-458f-b662-a3aaa7ae7d6f{fill:#fff;}</style></defs><path class="uuid-6ed4452b-80d7-458f-b662-a3aaa7ae7d6f" d="M56.59,333.63c5.27-45.28,34.73-81.97,73.83-103.51,23.83-13.12,50.18-20.38,77.36-22.47,14.93-116.13,149.8-158.37,244.79-103.61,71.34,41.13,94,121.74,43.85,190.29-6.37,8.7-10.06,8.98-10.32,21.67-.21,10.11,3.45,21.75,8.67,30.32,4.07,6.69,15.43,14.84,8.08,22.81-4.87,5.29-21.25,2.1-27.92.67-18.22-3.89-35.09-13.17-48.59-25.85-17.49,5.82-35.8,8.38-54.14,9.86-3.49,34.37-20.3,65.76-46.2,88.29-47.1,40.95-113.96,48.27-172.32,29.51-13.34,12.49-29.91,21.72-47.84,25.69-8.6,1.9-33.97,7.25-30.82-8.91.69-3.52,8.06-10.75,10.57-14.99,6.24-10.54,9.81-24.98,7.35-37.09-1.44-7.11-8.47-12.87-12.85-19.06-11.62-16.44-21.79-40.67-23.5-60.83v-22.79ZM443.63,244.28h-120.81c27.64,23.11,46,54.83,49.24,91.18,11.07-1.38,22.07-2.43,32.99-4.85,5.03-1.12,21.65-7.11,24.69-6.81,3.72.37,11.24,8.85,14.82,11.63,9.23,7.16,19.6,12.55,30.96,15.54-2.32-7.09-5.51-14.06-6.72-21.55-1.37-8.48-1.36-17.5.3-25.93,2.23-11.33,8.62-14.61,14.93-23.37,57.95-80.43-10.1-166.15-95.38-179.64-72.44-11.46-153.81,29.02-161.52,107.28,24.18,1.61,46.88,8.23,68.76,18.3l146.76.04c10.55,1.61,9.69,16.44.97,18.18ZM104,478.59c11.53-2.68,22.12-8.3,31.43-15.52,3.58-2.78,11.1-11.26,14.82-11.63,39.39,12.98,80.32,16.53,119.92,2.31,96.17-34.54,115.54-152.31,24.67-206.57-114.8-68.54-285.39,45.21-195.37,165.29,5.99,7.99,9.57,8.23,11.6,19.4,2.87,15.84-.09,32.38-7.06,46.71Z"/><path class="uuid-6ed4452b-80d7-458f-b662-a3aaa7ae7d6f" d="M136.58,372.13l153.9-.23c11.43,1.31,11.67,16.89,0,18.28h-152.31c-10.84-1.29-11.69-15.12-1.59-18.05Z"/><path class="uuid-6ed4452b-80d7-458f-b662-a3aaa7ae7d6f" d="M173.05,317.43l117.43-.23c11.43,1.31,11.67,16.89,0,18.28h-115.84c-10.84-1.29-11.69-15.12-1.59-18.05Z"/><path class="uuid-6ed4452b-80d7-458f-b662-a3aaa7ae7d6f" d="M136.59,317.41c13-2.49,15.1,16.65,3.34,18.02-12.01,1.4-14.07-15.96-3.34-18.02Z"/><path class="uuid-6ed4452b-80d7-458f-b662-a3aaa7ae7d6f" d="M324.4,171.55l117.43-.23c11.43,1.31,11.67,16.89,0,18.28h-115.84c-10.84-1.29-11.69-15.12-1.59-18.05Z"/><path class="uuid-6ed4452b-80d7-458f-b662-a3aaa7ae7d6f" d="M287.94,171.53c13-2.49,15.1,16.65,3.34,18.02s-14.07-15.96-3.34-18.02Z"/></svg>