<?xml version="1.0" encoding="UTF-8"?><svg id="uuid-648c8899-f611-44fc-b18f-4005fa78329a" xmlns="http://www.w3.org/2000/svg" viewBox="0 0 580 580"><defs><style>.uuid-536cddd9-d3b5-4c00-8b26-205fa3ec42b6{fill:#fff;}</style></defs><path class="uuid-536cddd9-d3b5-4c00-8b26-205fa3ec42b6" d="M240.65,449.4c-1.14-1.05-27.19-11.73-28.74-11.76-6.4-.09-11.13,8.28-15.73,11.95-11.32,9.05-23.28,9.42-34.75.44-7.47-5.85-25.44-23.93-31.47-31.4-8.61-10.67-9.74-22.42-.95-33.36,5.81-7.23,15.25-10.33,11.96-21.47-1.09-3.7-7.48-18.82-9.37-22.05-4.64-7.93-10.97-4.38-18.76-5.05-15.96-1.37-25.96-9.64-27.2-26.14-.78-10.36-1.23-42.84,2.06-51.36,3.38-8.75,12.05-14.88,21.33-15.82,9.31-.94,18.07,3.65,23.21-6.32,1.56-3.02,8.89-20.37,9.43-22.96,1.99-9.53-10.83-15.21-15.22-23.4-4.31-8.02-3.76-19.11,1.31-26.71,4.18-6.27,27.64-29.23,34.12-34.46,9.39-7.58,21.99-8.76,31.92-1.42,7.35,5.43,10.3,15.79,21.47,12.88,2.36-.62,22.54-9.05,24.11-10.17,6.77-4.82,3.72-15.99,4.44-23.18.93-9.34,9.38-19.64,18.79-21.22,10.16-1.7,41.28-1.24,52.2-.26,10.39.93,20.22,10.11,21.39,20.51.72,6.39-1.71,17.7,2.82,22.89,3.83,4.4,25.26,9.41,31,14.47,12.35-11.33,23.49-24,35.69-35.47,13.9-13.07,22.1-23.8,43.36-21.42,10.77,1.21,22.18,11.51,29.54,19.03,13.51,13.8,17.59,31.04,7.31,48.31-15.37,19.15-36.08,34-51.47,52.97,5.91,8.85,8.65,20.58,13.3,29.59,5.14,9.97,13.9,5.38,23.21,6.32,9.89,1,18.69,7.73,21.89,17.16,2.64,7.76,2.31,41.45,1.49,50.96-1.34,15.57-11.35,23.69-26.35,25.08-7.28.68-15.49-2.4-19.6,5.17-1.81,3.32-8.91,20.07-9.84,23.5-2.63,9.65,8.69,14.5,13.3,21.04,5.5,7.81,5.99,18.73,1.52,27.12-3.4,6.39-32.38,35.57-38.76,39.34-10.26,6.06-21.14,4.42-30.3-2.73-6.99-5.45-9.56-14.49-20.07-11.45-3.2.92-20.06,8.07-22.67,9.71-6.82,4.27-3.81,11.75-4.44,18.42-1.34,14.14-8.21,25.28-23.43,27.05-10.78,1.26-35.65,1.17-46.56.09-11.31-1.12-22.02-9.77-23.35-21.42-.72-6.32,1.95-18.38-3.14-23.05ZM358.09,154.81c-15.49-7.18-35.39-9-37.18-29.98-.74-8.69,3.56-21.9-8.99-23.39-8.7-1.03-36.31-1.17-44.83-.02-11.34,1.53-7.28,16.55-8.06,24.32-.74,7.29-5.05,14.34-11.1,18.43-4.07,2.75-22.13,9.95-27.42,11.64-8.61,2.76-14.65,2.19-22.35-2.51-8.61-5.26-14.84-20.1-25.83-12.34l-32.22,32.54c-5,10.32,5.59,14.67,10.75,21.39,4.33,5.63,6.84,11.17,6.26,18.48-.38,4.83-10.93,31.64-13.86,35.66-2.63,3.61-9.29,8.26-13.69,9.16-12.74,2.63-27.05-5.64-28.66,13.25-.8,9.35-.95,28.88.14,38.03,1.84,15.53,13.17,9.96,24.17,11.07,4.82.49,11.64,3.4,15.25,6.66,6.54,5.92,17.47,35.43,16.66,44.28-1.48,16.24-25.53,23.48-15.72,36.7,7.95,10.71,23.2,21.19,32,31.81,10.06,5.72,15.64-6.67,22.33-11.8,7.34-5.64,14.42-6.86,23.31-4.31s30,11,35.24,18.1c9.94,13.47-2.93,34.97,15.68,36.71,9.18.86,32.05,1.08,40.91-.12,14.15-1.92,9.1-15.25,10.1-25.14.7-7,4.86-13.96,10.76-17.82,3.57-2.34,26.17-11.58,30.38-12.48,8.25-1.76,14.72.06,21.45,4.83,8.68,6.14,13.18,19.39,25.04,10.24,10.85-8.36,21.09-22.9,31.8-32.01,5.54-9.68-6.94-16-11.8-22.33-3.17-4.13-5.71-9.92-5.81-15.22-.1-4.94,9.32-29.67,12.09-34.65,3.86-6.94,11.33-12.14,19.19-13.2,10.62-1.43,23.6,4.17,25.03-11.16.88-9.48,1.01-30.7-.03-40.04-1.77-15.81-17.16-9.38-27.87-11.18-18.59-3.12-19.35-27.35-28.8-39.76l-13.66,13.93c34.51,72.58-4.08,160.16-81.11,182.73-101.7,29.81-194.79-66.24-162.19-166.95,23.71-73.26,107.17-109.92,177.87-79.23.91-.09,9.99-8.12,11.49-9.53.86-.81,4.16-3.66,3.31-4.77ZM438.8,102.64c-7.85,1.35-15.21,9.14-19.68,15.36l42.18,40.54c12.56-10.25,21.64-22.94,9.67-38.04-7.78-9.81-18.64-20.18-32.17-17.86ZM407.27,129.15l-150.07,148.17,41.49,41.23,150.82-148.99-42.24-40.41ZM397.13,245.28l-94.88,92.27c-22.79,3.51-49.41,15.45-71.78,17.83-5.82.62-10.19-3.66-9.48-9.49l19.12-73.34,91.28-90.62c-63.35-26.22-137.38,12.27-154.21,78.17-21.87,85.61,53.02,162.01,139,142.81,69.28-15.47,107.88-92.1,80.94-157.64ZM282.84,326.23l-33.32-33.33-10.48,43.81,43.8-10.48Z"/><path class="uuid-536cddd9-d3b5-4c00-8b26-205fa3ec42b6" d="M413.07,165.54c2.38,2.37,3.11,8.19.27,10.69l-104.41,101.31c-7.3,3.8-14.18-2.56-11.06-10.11,1.77-4.28,15.77-15.33,19.78-19.26,27.88-27.36,55.84-54.64,83.8-81.93,3.15-2.89,8.38-3.94,11.63-.69Z"/></svg>