<?xml version="1.0" encoding="UTF-8"?><svg id="uuid-7c7b09d3-68ea-457e-aefe-8c7845b7eb81" xmlns="http://www.w3.org/2000/svg" viewBox="0 0 580 580"><defs><style>.uuid-65985fc9-ba59-48be-a1d4-79a7cc031bfe{fill:#fff;}</style></defs><path class="uuid-65985fc9-ba59-48be-a1d4-79a7cc031bfe" d="M447.39,122.21c3.6-.83,6.53-.02,8.85,2.81,3.91,4.78,1.44,8.4-1.87,12.39-9.48,11.4-23.09,21.57-32.94,32.92,10.08,10.36,20.18,16.81,19.44,32.93-.8,17.26-5.34,43-8.33,60.53-3.39,19.92-9.72,33.34-24.42,47.44-15.09,39.42-24.96,82.88-40.58,121.85-6.63,16.54-20.92,25.22-38.77,20.79-12.97-3.22-26.34-11.05-39.5-14.4-1.51.07-9.74,10.24-12.38,12.25-9.58,7.28-24.21,8.53-34.76,2.71-39.1-35.78-75.4-74.84-113.36-111.95-13.62-17.68-5.81-37.78,10.45-50.15,44.91-39.2,86.22-82.71,130.99-122.01,12.83-11.26,22.24-18.48,39.53-21.85,18.52-3.61,47.06-8.05,65.66-9.19,17.27-1.06,23.43,8.52,34.42,19.44l34.79-34.81c.8-.77,1.68-1.44,2.79-1.7ZM373.35,155.96c-18.24,1.46-46.59,5.1-64.25,9.11-6.5,1.47-12.05,4.14-17.44,8.01-47.5,46.03-99.71,89.15-146.48,135.72-6.53,6.5-9.67,13.69-4.48,22.46l110.03,109.3c4.64,2.07,11.53,1.5,15.76-1.47,47.38-50.43,95.08-100.68,141.3-152.12,5.23-6.54,6.83-14.39,8.25-22.44,3-17.02,5.61-36.66,7.5-53.88.45-4.08,1.7-10.75.45-14.46-.49-1.45-11.01-12.42-12.67-13.55-.66-.45-1.01-1.07-1.89-.37l-16.86,16.91c-1.02,2.23.9,4.58,1.14,7.08,2.42,25.01-26.74,37.9-42.31,19.1-12.78-15.43-1.99-38.77,17.47-39.51,3.46-.13,10.18,2.58,12.09,1.71l17.19-17.33c.18-1.03-12.42-13.48-14.2-14.09-2.8-.95-7.57-.43-10.6-.18ZM368.08,202.3c-7.89,1.5-8.28,14.28.62,15.53,12.32,1.73,12.03-17.93-.62-15.53ZM300.9,426.7c15.47,2.47,41.55,24.07,50.91,1.89l29.17-87.97-80.09,86.07Z"/><path class="uuid-65985fc9-ba59-48be-a1d4-79a7cc031bfe" d="M208.65,313.82c2.98-.43,4.69.73,6.93,2.46l49.39,49.42c4.4,6.74-2.43,14.58-9.78,12.02l-51.61-50.94c-3.72-4.62-.72-12.12,5.06-12.95Z"/><path class="uuid-65985fc9-ba59-48be-a1d4-79a7cc031bfe" d="M232.6,289.87c2.28-.33,4.43.2,6.19,1.7l49.78,49.78c5.4,6.99-3.52,16.2-10.85,11.6l-50.19-50.12c-3.72-4.62-.73-12.11,5.07-12.96Z"/></svg>