<?xml version="1.0" encoding="UTF-8"?>
<svg id="Layer_2" data-name="Layer 2" xmlns="http://www.w3.org/2000/svg" xmlns:xlink="http://www.w3.org/1999/xlink" viewBox="0 0 89.84 69.4">
  <defs>
    <style>
      .cls-1 {
        fill: url(#linear-gradient-2);
      }

      .cls-2 {
        fill: url(#linear-gradient-4);
      }

      .cls-3 {
        fill: url(#linear-gradient-3);
      }

      .cls-4 {
        fill: url(#linear-gradient);
      }
    </style>
    <linearGradient id="linear-gradient" x1="0" y1="34.66" x2="83.82" y2="34.66" gradientUnits="userSpaceOnUse">
      <stop offset="0" stop-color="#00bcff"/>
      <stop offset="1" stop-color="#155dfc"/>
    </linearGradient>
    <linearGradient id="linear-gradient-2" x1="48.23" y1="53.45" x2="89.84" y2="53.45" xlink:href="#linear-gradient"/>
    <linearGradient id="linear-gradient-3" x1="23.73" y1="31.49" x2="33.56" y2="31.49" xlink:href="#linear-gradient"/>
    <linearGradient id="linear-gradient-4" x1="49.86" y1="15.72" x2="59.86" y2="15.72" xlink:href="#linear-gradient"/>
  </defs>
  <g id="Layer_1-2" data-name="Layer 1">
    <g>
      <path class="cls-4" d="M46.07,32.12l-16.96-9.78-13.89,7.91c.22.93.27,1.72.04,2.66l13.3,7.84h2.63s14.89-8.63,14.89-8.63ZM81.63,19.6c-1.78.85-3.49,1.89-5.2,2.87-3.97,2.29-7.95,4.6-11.85,7.02v4.44l17.05-9.98v-4.35ZM50.78,34.84l-2.55-1.55-16.63,9.67c-1.12,0-2.09-.31-3.22.05l-15.51-8.82c-1.47-1.25.28-1.81.37-2.36.18-1.07-2-1.42-.28-2.81l13.87-8.07-2.63-1.48L3.43,31.4l26.4,15.44,20.95-12ZM61.31,28.85c.16-.24-4.56-2.88-4.96-3.11-7.08-4.13-14.27-8.09-21.35-12.23-.42-.09-.83.25-1.21.44-2.43,1.22-4.64,2.91-7.13,4.03l.3.51,26.14,14.87,8.21-4.51ZM68.37,19.22c.11-.15-.28-1.2-.28-1.55-.01-.55.49-1.39.12-1.79l-12.86-7.44-2.69.04-10.75,6.3,16.96,9.82,9.51-5.4ZM80.18,17.97L53.76,2.36l-16.59,9.72c-.08.37.15.24.36.36.69.38,1.36.82,2.09,1.12l12.48-7.24c1.02-.31,2.13.41,3.3-.15,4.08,2.16,8.21,4.48,12.19,6.87.75.45,3.3,1.8,3.56,2.44.35.88-1.01,1.27-.91,2.19.08.7,1.8,1.44.49,2.56l-9.61,5.54.11.37,2.2,1.23,16.74-9.41ZM2.16,50.9l27.53,16.03.58-.07,14.52-8.35c1.08-.44,2.17.58,1.38,1.56l-15.57,9.1-.93.14L.26,52.26l-.26-7.32.17-7.45c0-1.64-.02-3.28,0-4.91,0-.71-.36-1.28.3-1.91C14.4,22.56,28.46,14.68,42.38,6.57c3.18-1.85,6.51-4.21,9.73-5.87.7-.36,1.49-.94,2.29-.6,9.24,5.27,18.25,11.06,27.6,16.12.82.44,1.88.28,1.8,1.64l-.05,19.93-.45.86-6.21,3.54c-1.97-.29-1.5-1.45-.17-2.36,1.42-.96,3.19-1.81,4.7-2.64v-4.17l-8.6,4.72c-1.11-.19-1.35-1.38-.46-2.08l9.07-5.27v-3.9l-15.41,8.81c-.69.21-1.12.12-1.55-.46-.39,1.05-2.27.79-2.27-.09v-4.08l-7.87,4.56c-.73,1.02-.88,1.7-2.29,1.17-6.54,3.68-12.9,7.74-19.47,11.36-2.06,1.14-2.27,1.85-4.6.72-7.74-3.76-15.9-9.36-23.52-13.67-.79-.45-1.61-.99-2.48-1.24v4.08l27.69,16.06c5.18-2.58,10-6.06,15.23-8.54.75-.03,1.01.29,1.01,1.01,0,.84-.44.93-1.05,1.32-4.59,3-9.82,5.41-14.44,8.42-.79.41-1.39-.04-2.07-.37-8.7-4.29-17.15-10.51-25.83-14.99l-.54-.1v3.9l27.7,16.02,15.38-8.67c1.23.22,1.42,1.54.34,2.14l-15.74,8.92L2.16,47v3.9Z"/>
      <path class="cls-1" d="M87.25,64.33v-4.08c-3.99,2.31-8.75,2.28-13.25,2.18.14,1.59,0,3.46-1.63,4.18-.22.32,1.79.53,2.08.55,4.05.27,9.67-.02,12.8-2.82M71.83,60.24c-6.36,3.09-14.83,2.98-21.23,0v3.54c0,.68,1.25,1.52,1.82,1.81,4.17,2.12,13.28,2.08,17.48.07.4-.19,1.93-1.13,1.93-1.52v-3.9ZM87.25,53.35c-4.1,1.92-8.76,2.42-13.25,2v4.9c4.41,0,9.76.31,13.25-2.81v-4.08ZM71.83,53.17c-.59.27-1.16.63-1.77.86-4.8,1.86-12.3,1.84-17.15.18-.8-.27-1.56-.67-2.31-1.05v3.54c0,1.61,3.23,2.62,4.5,2.94,4.05,1.01,12.05,1.03,15.65-1.3.29-.19,1.08-.75,1.08-1.09v-4.08ZM74,53.17c2.86.04,5.69.15,8.5-.48,2.06-.46,7.23-2.16,3.23-4.27-2.65-1.4-8.17-1.96-11.11-1.61-.26.03-.47.02-.63.28v6.08ZM71.83,46.27c-6.61,2.97-14.61,2.92-21.23,0v3.36c0,1.26,1.67,2.01,2.67,2.41,4.15,1.64,10.88,1.64,15.11.32,1.27-.4,2.56-.97,3.45-2v-4.08ZM58.73,39.8c-2.64.2-12.4,2.29-5.58,5.11,4.27,1.77,12.33,1.79,16.57-.11,3.12-1.4,2.44-2.67-.33-3.79-3.09-1.24-7.35-1.47-10.66-1.21M74,44.64c1,.18,2.06-.2,2.99-.2.38,0,.74.18,1.09.19,3.72.14,11.11.92,11.53,5.71.29,3.33.32,10.14,0,13.43-.26,2.62-2.79,3.88-5.04,4.58-3.19.99-7.32,1.19-10.65.96-1.5-.1-3.68-.91-4.9-.91s-3.4.8-4.9.91c-2.61.18-5.91.08-8.47-.42-2.75-.53-6.93-1.8-7.23-5.11-.6-6.63.46-14.14,0-20.87.31-2.26,2.33-3.37,4.26-4.09,4.91-1.82,13.21-1.83,18,.34,2.54,1.15,3.72,2.53,3.32,5.48"/>
      <path class="cls-3" d="M27.88,30.35c-.64.08-2.27.52-1.87,1.4.53,1.18,4.93,1.29,5.33-.12.35-1.23-2.62-1.38-3.46-1.27M27.88,28.18c1.87-.19,5.35.54,5.65,2.78.68,5.08-9.79,5.04-9.79.53,0-2.14,2.31-3.11,4.15-3.31"/>
      <path class="cls-2" d="M54.19,14.57c-1.17.14-3.32,1.08-1.33,1.96,1.38.61,3.78.59,4.8-.68.29-1.09-2.74-1.37-3.47-1.28M54.19,12.4c2.32-.19,6.67,1.12,5.46,4.19-1.47,3.73-9.79,3.08-9.79-.89,0-2.1,2.55-3.16,4.33-3.3"/>
    </g>
  </g>
</svg>