<?xml version="1.0" encoding="UTF-8"?>
<svg id="Layer_2" data-name="Layer 2" xmlns="http://www.w3.org/2000/svg" xmlns:xlink="http://www.w3.org/1999/xlink" viewBox="0 0 61.7 70.04">
  <defs>
    <style>
      .cls-1 {
        fill: url(#linear-gradient);
      }
    </style>
    <linearGradient id="linear-gradient" x1="0" y1="35.02" x2="61.7" y2="35.02" gradientUnits="userSpaceOnUse">
      <stop offset="0" stop-color="#00bcff"/>
      <stop offset="1" stop-color="#155dfc"/>
    </linearGradient>
  </defs>
  <g id="Layer_1-2" data-name="Layer 1">
    <path class="cls-1" d="M21.25,50.06c-1.57.04-4.52.74-6.13,1.13-2.68.65-10.25,3.03-10.88,6.08-.4,1.93,2.53,3.74,4,4.49,10.66,5.49,32.97,5.32,43.9.59,1.59-.69,5.07-2.5,5.35-4.36.28-1.92-2.83-3.79-4.29-4.53-3.94-1.97-8.63-2.75-12.95-3.41l-7.75,11.94c-.86,1.09-2.54,1.04-3.34-.08l-7.6-11.82c-.09-.08-.19-.03-.3-.03M30.98,56.86l16.35-25.82c6.89-14.03-5.23-29.87-20.7-26.42-11.59,2.59-17.68,16-12.22,26.51l16.29,25.65.28.08ZM33.99,69.98c-2.03.08-4.39.08-6.43,0-6.99-.28-22.46-2.37-26.45-8.89-4.64-7.59,6.43-12.1,11.95-13.59,1.75-.47,4.09-.65,5.67-1.17.14-.05.26-.04.35-.2l-8.23-12.96C1.67,15.44,18.35-4.93,37.65,1.07c13.68,4.25,20.06,20.85,12.59,33.15l-7.63,11.91c.01.2,3.23.71,3.69.82,5.77,1.33,19.26,5.62,14.33,14.05-3.85,6.59-19.71,8.7-26.64,8.98"/>
  </g>
</svg>