<?xml version="1.0" encoding="UTF-8"?>
<svg id="Layer_2" data-name="Layer 2" xmlns="http://www.w3.org/2000/svg" xmlns:xlink="http://www.w3.org/1999/xlink" viewBox="0 0 97.69 73.72">
  <defs>
    <style>
      .cls-1 {
        fill: url(#linear-gradient-2);
      }

      .cls-2 {
        fill: url(#linear-gradient);
      }
    </style>
    <linearGradient id="linear-gradient" x1="0" y1="36.86" x2="97.69" y2="36.86" gradientUnits="userSpaceOnUse">
      <stop offset="0" stop-color="#00bcff"/>
      <stop offset="1" stop-color="#155dfc"/>
    </linearGradient>
    <linearGradient id="linear-gradient-2" x1="25.42" y1="32.67" x2="29.18" y2="32.67" xlink:href="#linear-gradient"/>
  </defs>
  <g id="Layer_1-2" data-name="Layer 1">
    <g>
      <path class="cls-2" d="M0,2.76C.52,1.64,1.29.41,2.62.14,3.52-.05,8.68-.05,9.58.14c.45.09.95.51,1.34.76,3.4,2.09,6.55,5.07,9.99,7.17,1.55-.13,3.84.31,5.29.04.51-.1.84-.78,1.43-1.05,1.95-.89,6.31-.81,7.79.98,1.58,1.92,2.81,5.33,4.27,7.45l2.8,1.5c.74-.38,1.17-1.1,1.98-1.48,6.95-3.29,9.45,7.82,12.38,11.8,1.01.45,4.36,1.44,4.76,2.39.44,4.76.29,9.53.38,14.3l5.1,8.39c1.49.6,4.41,2.47,5.93,2.15l9.11-3.37c-.19-2.87.28-6.43,3.6-7.17,1.58-.35,5.52-.6,7.21-.62,2.02-.02,4.17,1.64,4.58,3.62.2.97.23,4.63.07,5.62-.15.95-2.87,6.4-3.51,7.55-.26.46-.98,1.52-1.53,1.52h-5.24c-.14,1.92,1.19,4.56-.29,6.1-1.32,1.38-4.61,4.5-6.1,5.53-.7.49-1.47.56-2.26.16-1.54-.77-3.69-3.19-5.29-4.25-3.36-2.24-4.62.34-7.71.65-1.04.1-2.33,0-3.34-.28-4.29-1.19-9.45-5.09-13.78-6.62-2.35-.83-4.9-.33-6.93-2.13-1.82-1.62-4.39-4.52-6.07-6.41-.97-1.09-2.27-2.39-2.39-3.91-.07-.95.41-1.57.4-2.47,0-.65-.47-3.07-.67-3.73-.46-1.54-2.76-3.26-2.58-4.83.19-1.59,2.19-2.17,3.32-1.05.45.45,2.26,3.13,2.55,3.74.44.91,1.36,5.41,1.37,6.46.01.8-.44,1.11-.5,1.8l7.44,7.83c6.27.57,11.39,4.4,17,6.82,1.45.62,2.46,1.22,4.12.93.86-.15,1.68-.84,2.51-1.11,2.42-.78,4.68-.45,6.84.81.81.47,4.31,3.6,4.71,3.49l4.16-3.85c.11-1.88-1.91-7.03.9-7.48,1.19-.19,5.57.27,6.19-.1.21-.98,2.86-5.21,2.86-5.72v-4.38c0-.15-.61-.44-.85-.45-1.3-.04-3.76.22-5.15.36-.31.03-1.23.16-1.43.29-.77.47-.2,4.15-.39,5.14-.12.66-.99,1.08-1.52,1.34-3.41,1.66-7.73,2.61-11.23,4.21-2.29.48-5.98-2.24-8.28-2.8l-6.75-10.59-.25-13.38-3.79-1.64-6.11-10.86c-3.13-2-2.22,2.9-5.33,2.09-.47-.12-5.35-2.73-5.65-3.02l-4.77-7.91h-2.61c-.39.13-.52,1.29-1.56,1.48-2.32.42-5.88-.26-8.34-.03L8.67,3.91H3.81v7.91l9.37,19.98,6.57,6.97c.57.4,1.3,0,1.12-.74-1.52-3.04-3.72-5.86-5.23-8.89-.68-1.37-2.22-4.66-2.57-6.01-.13-.52-.21-1.01-.09-1.55.16-.71,2.85-2.99,3.58-3.11.24-.04.34-.04.58,0,.43.07,3.82,1.96,4.2,2.3.41.38,2.48,3.38,2.73,3.94.5,1.07.24,2.2-.92,2.66-2.79,1.11-3.47-4.21-6.02-4.59.72,1.86,1.44,3.77,2.38,5.53,1.16,2.18,5.06,7.39,5.23,9.46.26,3.26-2.83,5.7-5.93,4.78-2.63-.78-6.29-6.37-8.58-8.19L0,12.68V2.76Z"/>
      <path class="cls-1" d="M26.82,30.83c3.05-.69,3.17,4.17.2,3.74-2.1-.31-2.11-3.3-.2-3.74"/>
    </g>
  </g>
</svg>