<?xml version="1.0" encoding="UTF-8"?>
<svg id="Layer_2" data-name="Layer 2" xmlns="http://www.w3.org/2000/svg" xmlns:xlink="http://www.w3.org/1999/xlink" viewBox="0 0 102.99 66.34">
  <defs>
    <style>
      .cls-1 {
        fill: url(#linear-gradient);
      }
    </style>
    <linearGradient id="linear-gradient" x1="0" y1="33.17" x2="102.99" y2="33.17" gradientUnits="userSpaceOnUse">
      <stop offset="0" stop-color="#00bcff"/>
      <stop offset="1" stop-color="#155dfc"/>
    </linearGradient>
  </defs>
  <g id="Layer_1-2" data-name="Layer 1">
    <path class="cls-1" d="M88.94,24.01l-27.84,6.69-1.22-.53-6.33-8.64v40.09l35.39-10.77v-26.85ZM49.35,61.62V21.53l-6.33,8.64-1.22.53-27.84-6.69v26.85l35.39,10.77ZM96.86,17.81l-8.57-8.6-33.26,6.87,7.33,10.34,34.49-8.61ZM47.86,16.09L14.61,9.22l-8.56,8.6,34.73,8.68,7.09-10.41ZM37.22,0l.73,3.94-14.09,3.23,27.62,5.67,27.57-5.67-14.09-3.23.73-3.94,23.22,4.87c.66.07,1.03.33,1.53.7,1.8,1.32,10.73,10.21,12.01,12,.65.91.81,1.86-.02,2.72-1.03,1.07-7.49,1.94-9.26,2.5l-.13,30.19c-.38,1.48-1.89,1.61-3.16,2.04-12.48,4.29-25.82,7.43-38.42,11.34l-40.95-12.28-.58-1.15-.18-30.13c-1.68-.5-8.42-1.51-9.32-2.55-.5-.58-.55-1.71-.18-2.39L13.04,5.14,37.22,0Z"/>
  </g>
</svg>