<svg xmlns="http://www.w3.org/2000/svg" xmlns:xlink="http://www.w3.org/1999/xlink" width="972" zoomAndPan="magnify" viewBox="0 0 729 171.000002" height="228" preserveAspectRatio="xMidYMid meet" version="1.0"><defs><clipPath id="6bd53c7036"><path d="M 639 56 L 726.878906 56 L 726.878906 115 L 639 115 Z M 639 56 " clip-rule="nonzero"/></clipPath><clipPath id="c02c5d8675"><path d="M 639 136 L 667 136 L 667 170.003906 L 639 170.003906 Z M 639 136 " clip-rule="nonzero"/></clipPath><clipPath id="6a5a5a4343"><path d="M 2.121094 0 L 284 0 L 284 164 L 2.121094 164 Z M 2.121094 0 " clip-rule="nonzero"/></clipPath></defs><path fill="#1e40af" d="M 499.746094 85.5625 C 508.371094 85.5625 517 85.5625 525.625 85.5625 C 526.496094 85.5625 527.390625 85.582031 528.246094 85.433594 C 530.785156 84.996094 532.554688 83.597656 533.425781 81.117188 C 534.304688 78.640625 532.84375 75.964844 531.015625 75 C 529.605469 74.253906 528.125 73.824219 526.539062 73.734375 C 526.042969 73.703125 525.542969 73.734375 525.035156 73.734375 C 508.097656 73.734375 491.15625 73.734375 474.207031 73.734375 C 473.582031 73.734375 472.957031 73.726562 472.339844 73.667969 C 472.070312 73.644531 471.921875 73.398438 472.039062 73.117188 C 472.136719 72.894531 472.269531 72.675781 472.421875 72.476562 C 475.523438 68.167969 478.65625 63.886719 481.71875 59.539062 C 482.484375 58.445312 483.347656 58.019531 484.679688 58.027344 C 496.746094 58.066406 508.8125 58.050781 520.875 58.050781 C 522.566406 58.050781 524.253906 58.035156 525.9375 58.050781 C 531.015625 58.109375 535.84375 59.1875 540.371094 61.542969 C 542.601562 62.703125 544.648438 64.125 546.378906 65.96875 C 549.265625 69.058594 550.828125 72.675781 550.894531 76.957031 C 550.953125 80.449219 549.996094 83.589844 548.171875 86.535156 C 546.027344 90.003906 543.183594 92.757812 539.835938 95.023438 C 538.800781 95.722656 537.714844 96.339844 536.65625 97 C 536.246094 97.261719 536.203125 97.605469 536.53125 97.917969 C 539.46875 100.714844 542.425781 103.507812 545.351562 106.320312 C 548.050781 108.917969 550.714844 111.554688 553.402344 114.164062 C 553.492188 114.253906 553.605469 114.328125 553.671875 114.425781 C 553.769531 114.574219 553.894531 114.738281 553.886719 114.894531 C 553.886719 115.117188 553.648438 115.140625 553.464844 115.15625 C 553.152344 115.171875 552.835938 115.171875 552.523438 115.171875 C 548.335938 115.171875 544.144531 115.253906 539.960938 115.140625 C 537.273438 115.066406 534.59375 115.007812 531.90625 115.007812 C 530.84375 115.007812 529.972656 114.664062 529.25 113.859375 C 528.667969 113.207031 528.023438 112.609375 527.398438 112 C 524.226562 108.894531 521.039062 105.808594 517.898438 102.671875 C 517.132812 101.90625 516.304688 101.601562 515.234375 101.601562 C 506.980469 101.632812 498.730469 101.617188 490.476562 101.617188 C 490.105469 101.617188 489.726562 101.632812 489.355469 101.660156 C 488.996094 101.691406 488.789062 101.921875 488.765625 102.265625 C 488.726562 102.761719 488.722656 103.261719 488.722656 103.761719 C 488.722656 106.886719 488.726562 110.011719 488.722656 113.132812 C 488.722656 114.753906 488.667969 114.804688 487.023438 114.804688 C 482.148438 114.8125 477.273438 114.804688 472.398438 114.804688 C 472.085938 114.804688 471.773438 114.804688 471.460938 114.777344 C 471.117188 114.738281 470.878906 114.546875 470.84375 114.1875 C 470.804688 113.757812 470.796875 113.316406 470.796875 112.878906 C 470.796875 104.445312 470.796875 96.003906 470.796875 87.570312 C 470.796875 87.257812 470.789062 86.945312 470.804688 86.632812 C 470.847656 85.828125 471.042969 85.613281 471.792969 85.5625 C 472.292969 85.53125 472.792969 85.539062 473.289062 85.539062 C 482.105469 85.539062 490.925781 85.539062 499.738281 85.539062 Z M 499.746094 85.5625 " fill-opacity="1" fill-rule="nonzero"/><path fill="#1e40af" d="M 605.335938 114.820312 C 597.832031 114.820312 590.335938 114.84375 582.835938 114.8125 C 578.597656 114.796875 574.476562 114.0625 570.636719 112.253906 C 563.398438 108.84375 558.800781 103.203125 557.011719 95.402344 C 554.9375 86.3125 556.617188 77.910156 562.039062 70.308594 C 565.230469 65.828125 569.457031 62.574219 574.527344 60.449219 C 579.074219 58.535156 583.808594 57.605469 588.757812 57.617188 C 602.386719 57.65625 616.007812 57.617188 629.636719 57.648438 C 630.269531 57.648438 631.171875 57.246094 631.492188 57.976562 C 631.722656 58.496094 631.03125 59.0625 630.6875 59.570312 C 627.761719 63.847656 624.808594 68.105469 621.917969 72.417969 C 621.242188 73.429688 620.4375 73.75 619.261719 73.75 C 609.765625 73.710938 600.257812 73.734375 590.761719 73.726562 C 589.070312 73.726562 587.390625 73.726562 585.707031 73.917969 C 582.929688 74.226562 580.304688 74.976562 578.117188 76.808594 C 574.460938 79.859375 572.6875 83.78125 573.097656 88.539062 C 573.351562 91.417969 574.207031 94.164062 575.890625 96.601562 C 577.230469 98.535156 578.941406 100.0625 580.964844 101.246094 C 582.34375 102.046875 583.808594 102.441406 585.433594 102.441406 C 594.246094 102.414062 603.058594 102.429688 611.871094 102.429688 C 612.242188 102.429688 612.621094 102.429688 612.996094 102.398438 C 613.335938 102.359375 613.554688 102.144531 613.597656 101.789062 C 613.628906 101.542969 613.636719 101.289062 613.636719 101.042969 C 613.636719 98.921875 613.636719 96.792969 613.636719 94.671875 C 613.636719 94.425781 613.636719 94.171875 613.589844 93.925781 C 613.539062 93.59375 613.324219 93.347656 612.980469 93.316406 C 612.421875 93.273438 611.855469 93.265625 611.296875 93.265625 C 603.167969 93.265625 595.050781 93.265625 586.921875 93.257812 C 586.3125 93.257812 585.679688 93.398438 585.089844 93.09375 C 584.984375 92.253906 585.738281 91.949219 586.160156 91.472656 C 588.945312 88.351562 591.789062 85.277344 594.558594 82.144531 C 595.390625 81.199219 596.34375 80.953125 597.550781 80.953125 C 607.925781 80.953125 618.300781 80.917969 628.679688 80.894531 C 629.117188 80.894531 629.554688 80.878906 629.988281 80.910156 C 630.792969 80.960938 630.984375 81.148438 631.03125 81.914062 C 631.050781 82.351562 631.046875 82.785156 631.046875 83.222656 C 631.046875 93.035156 631.046875 102.84375 631.046875 112.648438 C 631.046875 113.144531 631.046875 113.644531 631.023438 114.144531 C 631 114.589844 630.71875 114.804688 630.285156 114.820312 C 629.71875 114.835938 629.160156 114.84375 628.597656 114.84375 C 620.847656 114.84375 613.089844 114.84375 605.34375 114.84375 Z M 605.335938 114.820312 " fill-opacity="1" fill-rule="nonzero"/><g clip-path="url(#6bd53c7036)"><path fill="#1e40af" d="M 685.796875 114.621094 C 681.496094 114.917969 677.886719 114.554688 674.296875 114.113281 C 669.445312 113.519531 664.726562 112.363281 660.199219 110.472656 C 655.4375 108.488281 651 105.949219 647.183594 102.457031 C 642.894531 98.527344 640.171875 93.667969 639.367188 87.890625 C 638.683594 82.992188 639.984375 78.476562 642.648438 74.34375 C 645.484375 69.953125 649.265625 66.566406 653.746094 63.9375 C 658.414062 61.191406 663.4375 59.339844 668.707031 58.140625 C 671.8125 57.433594 674.960938 56.992188 678.152344 56.800781 C 680.585938 56.652344 683.015625 56.53125 685.449219 56.636719 C 692.945312 56.964844 700.179688 58.402344 707.0625 61.472656 C 710.800781 63.140625 714.285156 65.179688 717.371094 67.867188 C 720.921875 70.949219 723.707031 74.582031 725.253906 79.070312 C 727.339844 85.128906 726.542969 90.898438 723.34375 96.355469 C 721.257812 99.90625 718.386719 102.753906 715.066406 105.167969 C 709.726562 109.039062 703.738281 111.457031 697.371094 113.011719 C 693.351562 113.996094 689.273438 114.546875 685.804688 114.613281 Z M 682.796875 71.007812 C 681.234375 70.988281 679.6875 71.121094 678.132812 71.246094 C 674.113281 71.574219 670.257812 72.542969 666.535156 74.0625 C 663.246094 75.402344 660.328125 77.285156 658.050781 80.046875 C 656.574219 81.832031 655.742188 83.847656 655.773438 86.230469 C 655.800781 88.613281 656.738281 90.585938 658.199219 92.371094 C 659.960938 94.539062 662.15625 96.160156 664.6875 97.34375 C 669.617188 99.652344 674.820312 100.851562 680.222656 101.222656 C 684.621094 101.527344 688.945312 100.96875 693.226562 100.007812 C 696.21875 99.332031 699.113281 98.363281 701.824219 96.882812 C 704.144531 95.609375 706.207031 94.015625 707.84375 91.910156 C 710.226562 88.84375 710.644531 84.839844 708.53125 81.398438 C 707.667969 80 706.617188 78.789062 705.359375 77.738281 C 702.878906 75.660156 699.992188 74.335938 696.976562 73.257812 C 692.398438 71.621094 687.644531 71.070312 682.8125 71.007812 Z M 682.796875 71.007812 " fill-opacity="1" fill-rule="nonzero"/></g><path fill="#1e40af" d="M 343.546875 100.402344 C 350.675781 100.402344 357.800781 100.402344 364.929688 100.402344 C 367.253906 100.402344 367.269531 100.417969 366.253906 102.496094 C 364.320312 106.484375 362.394531 110.472656 360.433594 114.457031 C 359.476562 116.414062 359.453125 116.414062 357.308594 116.414062 C 346.554688 116.414062 335.796875 116.414062 325.042969 116.414062 C 323.292969 116.414062 321.535156 116.421875 319.792969 116.347656 C 312.878906 116.042969 306.695312 113.890625 301.550781 109.121094 C 298.558594 106.34375 296.40625 102.992188 295.074219 99.160156 C 292.21875 90.921875 292.582031 82.746094 296.390625 74.925781 C 300.332031 66.847656 306.828125 61.652344 315.523438 59.308594 C 318.238281 58.570312 321.023438 58.164062 323.84375 58.074219 C 325.847656 58.011719 327.839844 57.984375 329.84375 57.945312 C 336.339844 57.84375 342.839844 57.738281 349.335938 57.632812 C 349.398438 57.632812 349.464844 57.632812 349.523438 57.632812 C 354.273438 57.566406 359.019531 57.5 363.769531 57.425781 C 365.207031 57.402344 366.644531 57.367188 368.078125 57.351562 C 368.453125 57.351562 368.832031 57.367188 369.195312 57.425781 C 369.515625 57.476562 369.574219 57.761719 369.457031 58 C 369.292969 58.332031 369.070312 58.636719 368.847656 58.9375 C 365.511719 63.386719 362.15625 67.824219 358.855469 72.296875 C 358.105469 73.324219 357.195312 73.667969 355.976562 73.660156 C 348.660156 73.628906 341.34375 73.636719 334.027344 73.644531 C 330.773438 73.644531 327.519531 73.636719 324.273438 73.726562 C 318.507812 73.882812 314.300781 77.304688 312.84375 82.570312 C 311.792969 86.34375 311.816406 90.09375 313.25 93.792969 C 313.734375 95.027344 314.382812 96.160156 315.164062 97.21875 C 316.757812 99.367188 318.886719 100.492188 321.589844 100.484375 C 323.464844 100.484375 325.339844 100.484375 327.214844 100.484375 C 331.464844 100.460938 335.714844 100.425781 339.964844 100.394531 C 341.15625 100.386719 342.339844 100.394531 343.53125 100.394531 Z M 343.546875 100.402344 " fill-opacity="1" fill-rule="nonzero"/><path fill="#1e40af" d="M 431.921875 114.820312 C 422.355469 114.820312 412.800781 114.820312 403.234375 114.820312 C 402.863281 114.820312 402.484375 114.851562 402.109375 114.820312 C 401.582031 114.769531 400.875 115.074219 400.59375 114.449219 C 400.332031 113.882812 400.859375 113.398438 401.144531 112.9375 C 403.285156 109.417969 405.488281 105.933594 407.574219 102.375 C 408.273438 101.183594 409.136719 100.773438 410.46875 100.789062 C 417.035156 100.835938 423.59375 100.820312 430.15625 100.796875 C 430.886719 100.796875 431.644531 101.007812 432.34375 100.613281 C 432.5 99.671875 431.71875 99.183594 431.28125 98.570312 C 426.695312 92.253906 422.082031 85.957031 417.464844 79.660156 C 416.550781 78.40625 416.511719 78.394531 415.539062 79.695312 C 413.550781 82.339844 411.59375 85.011719 409.613281 87.660156 C 406.136719 92.3125 402.652344 96.957031 399.175781 101.617188 C 396.339844 105.421875 393.503906 109.230469 390.675781 113.042969 C 390.453125 113.339844 390.230469 113.644531 390 113.933594 C 389.492188 114.554688 388.859375 114.84375 388.042969 114.835938 C 381.917969 114.753906 375.796875 115.035156 369.671875 114.820312 C 369.484375 114.820312 369.300781 114.792969 369.113281 114.761719 C 368.875 114.722656 368.695312 114.398438 368.832031 114.195312 C 369.03125 113.882812 369.253906 113.578125 369.480469 113.289062 C 372.769531 109.042969 376.066406 104.800781 379.363281 100.558594 C 385 93.308594 390.632812 86.066406 396.273438 78.824219 C 400.761719 73.054688 405.242188 67.289062 409.753906 61.535156 C 410.640625 60.410156 411.578125 59.308594 412.621094 58.324219 C 414.226562 56.800781 416.15625 56.25 418.328125 56.90625 C 419.566406 57.277344 420.523438 58.074219 421.320312 59.0625 C 422.773438 60.863281 424.230469 62.652344 425.617188 64.496094 C 433.746094 75.339844 441.851562 86.203125 449.957031 97.0625 C 454.027344 102.515625 458.089844 107.972656 462.164062 113.4375 C 462.273438 113.585938 462.386719 113.742188 462.492188 113.898438 C 462.632812 114.097656 462.824219 114.292969 462.742188 114.558594 C 462.648438 114.878906 462.347656 114.8125 462.117188 114.820312 C 461.621094 114.835938 461.121094 114.828125 460.613281 114.828125 C 451.050781 114.828125 441.492188 114.828125 431.929688 114.828125 Z M 431.921875 114.820312 " fill-opacity="1" fill-rule="nonzero"/><path fill="#1e40af" d="M 374.019531 140.628906 C 373.289062 141.773438 372.554688 142.910156 371.839844 144.066406 C 368.324219 149.746094 364.820312 155.433594 361.3125 161.117188 C 361.179688 161.335938 361.023438 161.527344 360.917969 161.75 C 360.507812 162.605469 359.808594 162.824219 358.917969 162.792969 C 358.222656 162.769531 357.753906 162.554688 357.382812 161.945312 C 355.917969 159.546875 354.40625 157.179688 352.910156 154.800781 C 350.1875 150.460938 347.46875 146.128906 344.738281 141.796875 C 344.542969 141.484375 344.304688 141.191406 344.042969 140.933594 C 343.894531 140.785156 343.644531 140.863281 343.621094 141.058594 C 343.554688 141.550781 343.53125 142.046875 343.53125 142.546875 C 343.546875 148.421875 343.582031 154.285156 343.589844 160.160156 C 343.589844 160.886719 343.886719 161.757812 343.316406 162.316406 C 342.816406 162.808594 341.984375 162.445312 341.320312 162.636719 C 341.140625 162.6875 340.949219 162.695312 340.761719 162.679688 C 340.496094 162.667969 340.285156 162.519531 340.25 162.234375 C 340.203125 161.863281 340.1875 161.492188 340.1875 161.117188 C 340.167969 152.3125 340.152344 143.507812 340.136719 134.703125 C 340.136719 134.515625 340.136719 134.328125 340.136719 134.136719 C 340.175781 132.976562 340.257812 132.863281 341.453125 132.871094 C 344.066406 132.894531 343.621094 132.492188 345.027344 134.753906 C 349.21875 141.492188 353.394531 148.226562 357.578125 154.960938 C 357.875 155.4375 358.164062 155.921875 358.484375 156.382812 C 358.863281 156.933594 359.222656 156.921875 359.636719 156.332031 C 359.890625 155.976562 360.121094 155.601562 360.351562 155.230469 C 362.4375 151.820312 364.515625 148.40625 366.605469 145.003906 C 368.921875 141.222656 371.257812 137.457031 373.566406 133.675781 C 373.894531 133.140625 374.28125 132.828125 374.914062 132.871094 C 374.972656 132.871094 375.039062 132.871094 375.097656 132.871094 C 377.941406 132.914062 377.761719 132.484375 377.769531 135.429688 C 377.800781 143.613281 377.816406 151.792969 377.835938 159.980469 C 377.835938 160.164062 377.835938 160.351562 377.835938 160.546875 C 377.835938 163.082031 378 162.890625 375.308594 162.851562 C 374.652344 162.84375 374.480469 162.628906 374.449219 161.898438 C 374.429688 161.460938 374.445312 161.027344 374.445312 160.589844 C 374.429688 154.472656 374.414062 148.34375 374.398438 142.226562 C 374.398438 141.734375 374.398438 141.246094 374.398438 140.753906 C 374.265625 140.714844 374.128906 140.679688 374.003906 140.640625 Z M 374.019531 140.628906 " fill-opacity="1" fill-rule="nonzero"/><g clip-path="url(#c02c5d8675)"><path fill="#1e40af" d="M 666.265625 150.855469 C 666.265625 154.917969 666.28125 158.976562 666.265625 163.039062 C 666.253906 166.203125 664.265625 168.84375 661.265625 169.761719 C 660.660156 169.945312 660.042969 170.011719 659.417969 170.003906 C 653.417969 170.003906 647.421875 170.003906 641.414062 170.003906 C 640 170.003906 639.941406 169.929688 639.933594 168.507812 C 639.917969 166.164062 639.761719 166.238281 642.144531 166.246094 C 647.390625 166.246094 652.644531 166.246094 657.894531 166.246094 C 658.332031 166.246094 658.769531 166.261719 659.203125 166.246094 C 661.136719 166.179688 662.457031 164.878906 662.523438 162.933594 C 662.550781 162.125 662.539062 161.3125 662.507812 160.5 C 662.492188 160.007812 662.203125 159.726562 661.816406 159.867188 C 660.230469 160.417969 658.601562 160.234375 656.984375 160.238281 C 653.859375 160.261719 650.734375 160.253906 647.605469 160.238281 C 646.734375 160.238281 645.863281 160.238281 645 160.007812 C 641.941406 159.199219 639.953125 156.773438 639.925781 153.621094 C 639.886719 148.5625 639.917969 143.5 639.917969 138.4375 C 639.917969 138.1875 639.917969 137.941406 639.941406 137.6875 C 639.976562 137.261719 640.199219 136.980469 640.632812 136.957031 C 641.128906 136.925781 641.628906 136.921875 642.128906 136.925781 C 643.3125 136.949219 643.273438 136.972656 643.453125 138.199219 C 643.707031 139.875 643.652344 141.566406 643.660156 143.246094 C 643.660156 146.246094 643.660156 149.246094 643.660156 152.246094 C 643.660156 152.617188 643.652344 152.996094 643.660156 153.371094 C 643.734375 155.222656 644.84375 156.371094 646.699219 156.511719 C 647.011719 156.535156 647.324219 156.519531 647.636719 156.519531 C 651.203125 156.519531 654.757812 156.519531 658.324219 156.519531 C 658.695312 156.519531 659.078125 156.535156 659.449219 156.496094 C 661.207031 156.316406 662.292969 155.246094 662.484375 153.488281 C 662.539062 152.996094 662.515625 152.492188 662.515625 151.992188 C 662.515625 147.683594 662.515625 143.375 662.515625 139.054688 C 662.515625 138.558594 662.515625 138.058594 662.554688 137.558594 C 662.574219 137.203125 662.8125 137.015625 663.15625 136.957031 C 663.214844 136.949219 663.28125 136.941406 663.339844 136.941406 C 666.609375 136.941406 666.230469 136.539062 666.238281 139.613281 C 666.253906 143.367188 666.238281 147.109375 666.238281 150.863281 Z M 666.265625 150.855469 " fill-opacity="1" fill-rule="nonzero"/></g><path fill="#1e40af" d="M 519.535156 162.675781 C 516.535156 162.675781 513.535156 162.667969 510.539062 162.675781 C 509.523438 162.675781 508.542969 162.546875 507.613281 162.136719 C 505.453125 161.183594 504.316406 159.519531 504.246094 157.171875 C 504.195312 155.304688 504.242188 153.429688 504.242188 151.554688 C 504.242188 148.554688 504.226562 145.5625 504.242188 142.5625 C 504.261719 139.128906 506.511719 136.710938 509.917969 136.660156 C 514.796875 136.585938 519.671875 136.613281 524.539062 136.660156 C 526.445312 136.675781 528.042969 137.441406 529.183594 139.042969 C 529.742188 139.824219 530.105469 140.65625 530.105469 141.640625 C 530.105469 143.203125 530.179688 144.765625 530.105469 146.320312 C 529.957031 149.1875 527.769531 151.308594 524.902344 151.464844 C 524.464844 151.488281 524.03125 151.464844 523.59375 151.464844 C 519.03125 151.464844 514.46875 151.464844 509.910156 151.464844 C 509.472656 151.464844 509.035156 151.449219 508.601562 151.472656 C 507.703125 151.515625 507.546875 151.65625 507.53125 152.617188 C 507.507812 154.054688 507.492188 155.492188 507.53125 156.929688 C 507.574219 158.386719 508.402344 159.226562 509.835938 159.371094 C 510.269531 159.414062 510.707031 159.382812 511.148438 159.382812 C 516.707031 159.382812 522.269531 159.382812 527.828125 159.382812 C 528.386719 159.382812 528.953125 159.398438 529.511719 159.429688 C 529.859375 159.449219 530.070312 159.675781 530.121094 160.015625 C 530.152344 160.203125 530.152344 160.390625 530.15625 160.574219 C 530.238281 162.636719 530.226562 162.652344 528.148438 162.660156 C 525.273438 162.660156 522.402344 162.660156 519.527344 162.660156 Z M 516.378906 148.195312 C 518.753906 148.195312 521.128906 148.195312 523.511719 148.195312 C 523.949219 148.195312 524.398438 148.234375 524.820312 148.144531 C 525.820312 147.945312 526.898438 147.257812 526.839844 145.828125 C 526.785156 144.578125 526.816406 143.328125 526.824219 142.078125 C 526.824219 141.320312 526.457031 140.785156 525.847656 140.375 C 525.246094 139.964844 524.574219 139.925781 523.875 139.925781 C 519.441406 139.933594 514.996094 139.925781 510.558594 139.925781 C 510.1875 139.925781 509.800781 139.925781 509.441406 140 C 508.378906 140.226562 507.621094 140.984375 507.574219 142.0625 C 507.5 143.871094 507.546875 145.6875 507.574219 147.496094 C 507.574219 147.824219 507.796875 148.085938 508.15625 148.121094 C 508.527344 148.160156 508.898438 148.175781 509.28125 148.175781 C 511.652344 148.175781 514.027344 148.175781 516.410156 148.175781 Z M 516.378906 148.195312 " fill-opacity="1" fill-rule="nonzero"/><path fill="#1e40af" d="M 613.796875 162.675781 C 610.859375 162.675781 607.925781 162.660156 604.984375 162.675781 C 603.898438 162.675781 602.863281 162.503906 601.90625 162.019531 C 599.953125 161.035156 598.835938 159.464844 598.777344 157.269531 C 598.710938 155.023438 598.753906 152.773438 598.75 150.519531 C 598.75 147.890625 598.816406 145.273438 598.734375 142.644531 C 598.628906 139.480469 600.832031 136.839844 604.578125 136.636719 C 604.828125 136.621094 605.074219 136.636719 605.328125 136.636719 C 609.578125 136.636719 613.828125 136.636719 618.078125 136.636719 C 618.832031 136.636719 619.566406 136.703125 620.3125 136.851562 C 622.878906 137.375 624.605469 139.355469 624.679688 141.960938 C 624.71875 143.335938 624.671875 144.707031 624.6875 146.082031 C 624.734375 149.03125 622.128906 151.449219 619.3125 151.472656 C 618.503906 151.472656 617.691406 151.472656 616.871094 151.472656 C 612.621094 151.472656 608.371094 151.472656 604.121094 151.472656 C 603.625 151.472656 603.125 151.496094 602.625 151.539062 C 602.351562 151.5625 602.1875 151.753906 602.140625 152.023438 C 602.113281 152.207031 602.082031 152.394531 602.082031 152.582031 C 602.082031 154.015625 602.054688 155.453125 602.082031 156.890625 C 602.113281 158.355469 602.910156 159.214844 604.34375 159.363281 C 604.84375 159.414062 605.34375 159.382812 605.839844 159.382812 C 611.34375 159.382812 616.84375 159.382812 622.34375 159.382812 C 622.902344 159.382812 623.46875 159.390625 624.027344 159.429688 C 624.375 159.449219 624.589844 159.675781 624.628906 160.015625 C 624.664062 160.328125 624.664062 160.640625 624.664062 160.953125 C 624.664062 162.546875 624.589844 162.652344 622.976562 162.660156 C 619.910156 162.675781 616.851562 162.660156 613.785156 162.660156 Z M 610.964844 148.195312 C 613.328125 148.195312 615.695312 148.195312 618.070312 148.195312 C 618.511719 148.195312 618.949219 148.21875 619.375 148.144531 C 620.625 147.929688 621.339844 147.117188 621.390625 145.835938 C 621.4375 144.652344 621.4375 143.46875 621.390625 142.285156 C 621.339844 140.945312 620.511719 140.089844 619.195312 139.949219 C 618.824219 139.914062 618.449219 139.925781 618.070312 139.925781 C 613.894531 139.925781 609.71875 139.925781 605.542969 139.925781 C 605.230469 139.925781 604.917969 139.914062 604.605469 139.933594 C 602.953125 140.039062 602.113281 140.878906 602.074219 142.539062 C 602.039062 143.96875 602.066406 145.40625 602.074219 146.835938 C 602.074219 147.019531 602.074219 147.207031 602.089844 147.394531 C 602.140625 147.953125 602.328125 148.128906 602.929688 148.167969 C 603.363281 148.195312 603.800781 148.183594 604.242188 148.183594 C 606.480469 148.183594 608.730469 148.183594 610.96875 148.183594 Z M 610.964844 148.195312 " fill-opacity="1" fill-rule="nonzero"/><path fill="#1e40af" d="M 405.222656 162.851562 C 402.789062 162.851562 400.355469 162.84375 397.917969 162.851562 C 396.96875 162.851562 396.050781 162.75 395.179688 162.355469 C 393.648438 161.660156 392.71875 160.457031 392.390625 158.832031 C 392.21875 157.984375 392.164062 157.097656 392.164062 156.226562 C 392.144531 151.984375 392.144531 147.742188 392.164062 143.5 C 392.164062 142.753906 392.246094 142.003906 392.34375 141.265625 C 392.671875 138.894531 394.449219 137.351562 396.496094 137.054688 C 396.988281 136.980469 397.488281 136.921875 397.988281 136.921875 C 402.796875 136.914062 407.601562 136.921875 412.410156 136.921875 C 412.722656 136.921875 413.039062 136.921875 413.351562 136.949219 C 416.164062 137.171875 417.90625 139.175781 418.226562 141.78125 C 418.253906 142.027344 418.246094 142.28125 418.246094 142.53125 C 418.246094 147.460938 418.238281 152.394531 418.246094 157.324219 C 418.246094 158.617188 417.941406 159.800781 417.132812 160.8125 C 416.050781 162.160156 414.660156 162.867188 412.902344 162.851562 C 410.34375 162.832031 407.78125 162.851562 405.222656 162.851562 Z M 414.667969 149.984375 C 414.667969 149.230469 414.667969 148.488281 414.667969 147.734375 C 414.667969 145.925781 414.691406 144.109375 414.652344 142.300781 C 414.621094 141.050781 414.0625 140.484375 412.84375 140.351562 C 412.53125 140.320312 412.21875 140.335938 411.90625 140.335938 C 407.402344 140.335938 402.898438 140.335938 398.402344 140.335938 C 398.089844 140.335938 397.777344 140.320312 397.464844 140.359375 C 396.558594 140.46875 395.84375 141.148438 395.714844 142.046875 C 395.664062 142.421875 395.679688 142.792969 395.679688 143.171875 C 395.679688 147.667969 395.679688 152.171875 395.679688 156.667969 C 395.679688 157.105469 395.664062 157.554688 395.753906 157.96875 C 395.925781 158.78125 396.460938 159.28125 397.285156 159.414062 C 397.59375 159.464844 397.914062 159.449219 398.226562 159.449219 C 402.855469 159.449219 407.476562 159.449219 412.105469 159.449219 C 412.417969 159.449219 412.738281 159.464844 413.042969 159.421875 C 414.0625 159.265625 414.578125 158.707031 414.660156 157.679688 C 414.691406 157.308594 414.675781 156.929688 414.675781 156.554688 C 414.675781 154.367188 414.675781 152.179688 414.675781 150 Z M 414.667969 149.984375 " fill-opacity="1" fill-rule="nonzero"/><path fill="#1e40af" d="M 432.488281 149.871094 C 432.488281 146.1875 432.488281 142.503906 432.488281 138.816406 C 432.488281 138.378906 432.5 137.949219 432.539062 137.507812 C 432.5625 137.246094 432.703125 137.007812 432.992188 136.996094 C 433.550781 136.957031 434.117188 136.941406 434.675781 136.957031 C 434.839844 136.957031 435.078125 137.082031 435.136719 137.210938 C 435.5 138.058594 436.015625 137.796875 436.640625 137.523438 C 437.613281 137.082031 438.65625 136.914062 439.742188 136.914062 C 443.933594 136.925781 448.125 137.015625 452.308594 136.890625 C 455.613281 136.792969 459.214844 139.496094 459.503906 143.84375 C 459.566406 144.714844 459.511719 145.589844 459.511719 146.460938 C 459.511719 151.339844 459.511719 156.207031 459.511719 161.082031 C 459.511719 162.71875 459.46875 162.75 457.839844 162.726562 C 457.777344 162.726562 457.710938 162.726562 457.652344 162.726562 C 456.664062 162.695312 456.542969 162.59375 456.511719 161.675781 C 456.5 161.238281 456.511719 160.804688 456.511719 160.367188 C 456.511719 155.117188 456.484375 149.871094 456.527344 144.625 C 456.542969 143.210938 456.097656 142.085938 455.070312 141.132812 C 454.332031 140.449219 453.507812 140.179688 452.515625 140.195312 C 450.203125 140.226562 447.894531 140.203125 445.578125 140.203125 C 443.515625 140.203125 441.449219 140.292969 439.394531 140.179688 C 437.390625 140.070312 435.769531 141.742188 435.546875 143.542969 C 435.464844 144.222656 435.449219 144.914062 435.449219 145.597656 C 435.441406 150.40625 435.449219 155.214844 435.449219 160.03125 C 435.449219 160.402344 435.449219 160.785156 435.449219 161.15625 C 435.417969 162.667969 435.335938 162.742188 433.839844 162.734375 C 432.574219 162.726562 432.523438 162.679688 432.515625 161.304688 C 432.507812 157.492188 432.515625 153.683594 432.515625 149.871094 Z M 432.488281 149.871094 " fill-opacity="1" fill-rule="nonzero"/><path fill="#1e40af" d="M 478.746094 148.160156 C 478.746094 150.90625 478.746094 153.652344 478.746094 156.398438 C 478.746094 156.898438 478.6875 157.402344 478.933594 157.867188 C 479.4375 158.796875 480.140625 159.445312 481.285156 159.4375 C 482.847656 159.429688 484.402344 159.421875 485.96875 159.414062 C 486.777344 159.414062 487.589844 159.398438 488.402344 159.414062 C 488.824219 159.421875 489.09375 159.652344 489.128906 160.097656 C 489.136719 160.226562 489.144531 160.34375 489.144531 160.472656 C 489.144531 162.882812 489.359375 162.734375 486.964844 162.726562 C 485.15625 162.726562 483.339844 162.742188 481.53125 162.726562 C 477.800781 162.6875 475.441406 160.351562 475.417969 156.621094 C 475.390625 151.441406 475.417969 146.261719 475.417969 141.082031 C 475.417969 140.582031 475.398438 140.082031 475.417969 139.585938 C 475.449219 138.871094 475.257812 138.378906 474.414062 138.347656 C 473.960938 138.335938 473.796875 137.984375 473.78125 137.574219 C 473.765625 137.203125 473.78125 136.824219 473.765625 136.453125 C 473.753906 135.824219 473.902344 135.351562 474.660156 135.304688 C 475.195312 135.273438 475.390625 134.894531 475.40625 134.40625 C 475.417969 133.71875 475.40625 133.027344 475.433594 132.34375 C 475.472656 131.5625 475.65625 131.414062 476.492188 131.359375 C 476.617188 131.359375 476.746094 131.359375 476.863281 131.359375 C 478.71875 131.324219 478.746094 131.332031 478.730469 133.183594 C 478.71875 135.304688 478.792969 135.335938 480.949219 135.320312 C 483.070312 135.304688 485.191406 135.320312 487.320312 135.320312 C 487.753906 135.320312 488.191406 135.335938 488.625 135.386719 C 488.789062 135.410156 489.027344 135.542969 489.070312 135.667969 C 489.308594 136.457031 489.316406 137.261719 489.070312 138.050781 C 489.035156 138.179688 488.78125 138.296875 488.617188 138.3125 C 488.183594 138.363281 487.746094 138.363281 487.308594 138.363281 C 485.246094 138.363281 483.183594 138.363281 481.128906 138.363281 C 480.757812 138.363281 480.375 138.355469 480.003906 138.363281 C 478.902344 138.402344 478.800781 138.5 478.753906 139.523438 C 478.738281 139.898438 478.753906 140.277344 478.753906 140.648438 C 478.753906 143.144531 478.753906 145.644531 478.753906 148.136719 Z M 478.746094 148.160156 " fill-opacity="1" fill-rule="nonzero"/><path fill="#1e40af" d="M 571.847656 149.476562 C 571.847656 145.792969 571.847656 142.117188 571.847656 138.429688 C 571.847656 137.933594 571.847656 137.433594 571.898438 136.933594 C 571.929688 136.59375 572.191406 136.339844 572.519531 136.347656 C 573.425781 136.363281 574.386719 136.011719 575.21875 136.675781 C 575.429688 136.839844 575.660156 136.90625 575.917969 136.847656 C 577.460938 136.472656 579.023438 136.695312 580.578125 136.652344 C 581.949219 136.613281 583.324219 136.652344 584.695312 136.644531 C 587.308594 136.613281 589.058594 137.894531 590.128906 140.203125 C 590.253906 140.476562 590.367188 140.785156 590.417969 141.082031 C 590.613281 142.109375 590.328125 142.429688 589.265625 142.464844 C 588.894531 142.480469 588.515625 142.464844 588.140625 142.464844 C 587.664062 142.464844 587.316406 142.324219 587.167969 141.796875 C 586.773438 140.359375 585.753906 139.882812 584.332031 139.925781 C 582.335938 139.996094 580.332031 139.972656 578.339844 139.996094 C 578.152344 139.996094 577.964844 140.03125 577.78125 140.023438 C 576.039062 139.941406 575.101562 141.058594 575.160156 142.695312 C 575.199219 143.695312 575.160156 144.691406 575.160156 145.6875 C 575.160156 150.800781 575.160156 155.921875 575.160156 161.035156 C 575.160156 162.761719 575.144531 162.761719 573.359375 162.742188 C 573.105469 162.742188 572.859375 162.734375 572.613281 162.71875 C 572.183594 162.6875 571.914062 162.445312 571.878906 162.027344 C 571.832031 161.527344 571.847656 161.027344 571.847656 160.53125 C 571.847656 156.847656 571.847656 153.167969 571.847656 149.484375 Z M 571.847656 149.476562 " fill-opacity="1" fill-rule="nonzero"/><path fill="#1e40af" d="M 543.257812 149.410156 C 543.257812 145.605469 543.25 141.796875 543.257812 137.992188 C 543.257812 136.355469 543.316406 136.296875 544.941406 136.300781 C 545.542969 136.300781 546.199219 136.144531 546.691406 136.703125 C 546.785156 136.816406 547.039062 136.859375 547.203125 136.832031 C 549.621094 136.40625 552.054688 136.742188 554.484375 136.636719 C 555.042969 136.613281 555.605469 136.652344 556.164062 136.636719 C 558.726562 136.5625 561.359375 138.5 561.800781 141.394531 C 561.902344 142.070312 561.746094 142.285156 561.027344 142.324219 C 560.527344 142.347656 560.027344 142.324219 559.53125 142.324219 C 559.046875 142.324219 558.734375 142.160156 558.554688 141.652344 C 558.109375 140.367188 557.15625 139.867188 555.800781 139.914062 C 553.746094 139.980469 551.683594 139.957031 549.621094 139.988281 C 549.25 139.988281 548.871094 140.015625 548.507812 140.074219 C 547.367188 140.269531 546.734375 140.910156 546.609375 142.0625 C 546.554688 142.554688 546.585938 143.0625 546.585938 143.558594 C 546.585938 149.238281 546.585938 154.910156 546.585938 160.589844 C 546.585938 161.089844 546.585938 161.585938 546.554688 162.085938 C 546.535156 162.429688 546.324219 162.644531 545.96875 162.695312 C 545.90625 162.703125 545.839844 162.710938 545.78125 162.71875 C 543.003906 162.742188 543.257812 163.007812 543.25 160.449219 C 543.25 156.765625 543.25 153.085938 543.25 149.402344 Z M 543.257812 149.410156 " fill-opacity="1" fill-rule="nonzero"/><g clip-path="url(#6a5a5a4343)"><path fill="#1e40af" d="M 62.671875 135.230469 C 43.535156 135.230469 24.40625 135.230469 5.269531 135.230469 C 4.703125 135.230469 4.144531 135.246094 3.578125 135.214844 C 2.910156 135.179688 2.65625 134.957031 2.632812 134.316406 C 2.605469 133.445312 2.566406 132.558594 2.65625 131.695312 C 3.304688 125.53125 3.238281 119.355469 3.117188 113.167969 C 3.058594 110.234375 3.164062 107.296875 3.214844 104.363281 C 3.230469 103.375 3.378906 103.222656 4.433594 103.097656 C 6.480469 102.851562 8.527344 102.628906 10.582031 102.414062 C 15.242188 101.921875 19.902344 101.445312 24.570312 100.960938 C 29.480469 100.457031 34.394531 99.949219 39.300781 99.433594 C 44.027344 98.945312 48.746094 98.4375 53.472656 97.953125 C 60.625 97.21875 67.769531 96.503906 74.921875 95.765625 C 79.894531 95.253906 84.867188 94.710938 89.839844 94.203125 C 91.699219 94.007812 93.570312 93.816406 95.4375 93.710938 C 97.097656 93.613281 98.355469 93.042969 99.398438 91.636719 C 102.097656 87.988281 105.449219 84.980469 109.3125 82.589844 C 113.910156 79.742188 118.929688 78.164062 124.339844 77.8125 C 130.226562 77.433594 135.914062 78.453125 141.488281 80.230469 C 142.976562 80.707031 144.429688 81.28125 145.902344 81.808594 C 146.253906 81.9375 146.609375 82.054688 146.96875 82.144531 C 147.257812 82.21875 147.480469 82.03125 147.539062 81.789062 C 147.621094 81.429688 147.636719 81.042969 147.628906 80.671875 C 147.601562 75.609375 147.539062 70.546875 147.535156 65.488281 C 147.535156 64.414062 147.25 63.878906 145.957031 63.535156 C 142.152344 62.539062 138.339844 61.542969 134.539062 60.535156 C 120.707031 56.882812 106.863281 53.265625 93.054688 49.535156 C 90.644531 48.878906 88.328125 48.449219 85.917969 49.34375 C 75.75 51.402344 65.589844 53.464844 55.421875 55.511719 C 46.421875 57.328125 37.417969 59.136719 28.417969 60.953125 C 22.046875 62.242188 15.683594 63.542969 9.316406 64.839844 C 9.011719 64.898438 8.707031 64.980469 8.402344 65.023438 C 7.582031 65.144531 7.21875 64.855469 7.261719 64.003906 C 7.351562 62.257812 7.65625 60.527344 8.015625 58.824219 C 9.847656 50.160156 13.976562 42.710938 19.984375 36.257812 C 23.75 32.207031 28.058594 28.804688 32.601562 25.671875 C 33.589844 24.988281 34.714844 24.601562 35.839844 24.226562 C 39.984375 22.84375 44.136719 21.464844 48.285156 20.082031 C 62.917969 15.191406 77.550781 10.300781 92.183594 5.410156 C 97.402344 3.667969 102.628906 1.949219 107.824219 0.164062 C 108.707031 -0.140625 109.339844 -0.03125 110.042969 0.542969 C 113.136719 3.074219 116.265625 5.574219 119.375 8.082031 C 124.726562 12.394531 130.085938 16.710938 135.4375 21.019531 C 137.917969 23.023438 140.425781 24.996094 142.867188 27.042969 C 143.675781 27.71875 144.429688 27.859375 145.441406 27.570312 C 151.152344 25.933594 156.867188 24.355469 162.582031 22.761719 C 167.035156 21.519531 171.484375 20.269531 175.9375 19.019531 C 176.117188 18.964844 176.292969 18.90625 176.472656 18.863281 C 177.261719 18.652344 177.925781 18.800781 178.519531 19.40625 C 179.480469 20.386719 180.515625 21.296875 181.496094 22.253906 C 186.542969 27.199219 191.574219 32.15625 196.621094 37.089844 C 200.820312 41.199219 205.027344 45.300781 209.230469 49.402344 C 214.730469 54.769531 220.203125 60.171875 225.746094 65.488281 C 231.34375 70.84375 236.816406 76.332031 242.398438 81.714844 C 247.929688 87.050781 253.414062 92.429688 258.894531 97.820312 C 263.121094 101.980469 267.386719 106.113281 271.652344 110.242188 C 274.925781 113.414062 278.222656 116.570312 281.507812 119.734375 C 282.050781 120.253906 282.546875 120.820312 283.105469 121.3125 C 283.714844 121.847656 284.023438 122.480469 283.925781 123.292969 C 283.910156 123.417969 283.925781 123.542969 283.925781 123.664062 C 283.925781 127.230469 283.925781 130.785156 283.925781 134.351562 C 283.925781 136.363281 283.886719 136.375 282.136719 135.566406 C 280.492188 134.804688 278.847656 134.054688 277.203125 133.28125 C 268.316406 129.128906 259.4375 124.957031 250.550781 120.804688 C 238.265625 115.066406 225.972656 109.34375 213.691406 103.609375 C 203.78125 98.988281 193.875 94.351562 183.976562 89.722656 C 183.753906 89.617188 183.523438 89.511719 183.292969 89.417969 C 182.496094 89.082031 182.175781 89.289062 182.101562 90.191406 C 182.078125 90.503906 182.085938 90.816406 182.085938 91.128906 C 182.085938 94.5 182.085938 97.878906 182.085938 101.25 C 182.085938 103.097656 182.085938 103.121094 183.902344 103.773438 C 189.363281 105.746094 194.835938 107.703125 200.3125 109.65625 C 209.082031 112.78125 217.859375 115.894531 226.617188 119.019531 C 237.269531 122.824219 247.914062 126.640625 258.558594 130.4375 C 266.441406 133.25 274.332031 136.058594 282.214844 138.863281 C 282.511719 138.96875 282.800781 139.085938 283.082031 139.207031 C 283.597656 139.421875 283.851562 139.816406 283.867188 140.367188 C 283.871094 140.679688 283.871094 140.992188 283.871094 141.304688 C 283.871094 145.242188 283.871094 149.179688 283.871094 153.117188 C 283.871094 153.371094 283.878906 153.617188 283.871094 153.867188 C 283.828125 154.695312 283.621094 154.933594 282.867188 154.851562 C 281.4375 154.6875 280.015625 154.5 278.59375 154.261719 C 277.5625 154.09375 277.398438 153.882812 277.234375 152.789062 C 276.792969 149.886719 276.363281 146.984375 275.960938 144.082031 C 275.632812 141.722656 275.597656 141.675781 273.332031 141.125 C 266.410156 139.4375 259.496094 137.730469 252.582031 136.035156 C 251.546875 135.78125 250.519531 135.519531 249.484375 135.289062 C 248.859375 135.148438 248.554688 135.351562 248.398438 135.976562 C 248.339844 136.214844 248.316406 136.464844 248.269531 136.710938 C 247.550781 140.960938 246.828125 145.210938 246.113281 149.460938 C 246.089844 149.589844 246.074219 149.707031 246.054688 149.835938 C 245.769531 151.261719 245.636719 151.390625 244.214844 151.285156 C 241.660156 151.09375 239.109375 150.867188 236.554688 150.652344 C 232.007812 150.265625 227.46875 149.886719 222.917969 149.492188 C 220.621094 149.289062 218.3125 149.097656 216.011719 148.851562 C 214.835938 148.726562 214.796875 148.679688 214.589844 147.488281 C 214.054688 144.347656 213.546875 141.199219 213.058594 138.050781 C 212.355469 133.609375 211.648438 129.171875 211.003906 124.71875 C 210.859375 123.746094 210.339844 123.328125 209.476562 123.082031 C 206.828125 122.339844 204.191406 121.578125 201.550781 120.820312 C 197.402344 119.628906 193.265625 118.429688 189.121094 117.246094 C 187.472656 116.777344 187.4375 116.800781 187.199219 118.421875 C 186.828125 121.019531 186.492188 123.625 186.148438 126.222656 C 185.339844 132.355469 184.535156 138.484375 183.730469 144.617188 C 183.707031 144.800781 183.691406 144.988281 183.65625 145.175781 C 183.523438 145.828125 183.285156 146.039062 182.636719 146.007812 C 181.578125 145.949219 180.515625 145.859375 179.457031 145.769531 C 177.589844 145.613281 175.722656 145.449219 173.851562 145.277344 C 173.539062 145.25 173.226562 145.21875 172.921875 145.152344 C 172.261719 144.996094 172.007812 144.691406 171.941406 143.96875 C 171.910156 143.65625 171.925781 143.34375 171.925781 143.03125 C 171.925781 142.28125 171.925781 141.527344 171.925781 140.785156 C 171.871094 133.035156 171.820312 125.292969 171.761719 117.546875 C 171.761719 117.234375 171.746094 116.917969 171.738281 116.605469 C 171.722656 116.191406 171.484375 115.898438 171.136719 115.730469 C 170.75 115.535156 170.324219 115.410156 169.929688 115.214844 C 167.546875 114.078125 166.132812 111.457031 166.582031 108.875 C 166.9375 106.796875 168.078125 105.316406 170.167969 104.734375 C 171.949219 104.238281 171.851562 104.289062 171.859375 102.429688 C 171.894531 89.558594 171.949219 76.679688 171.96875 63.8125 C 171.984375 54.246094 171.96875 44.691406 171.96875 35.125 C 171.96875 32.667969 171.949219 32.667969 169.574219 33.117188 C 165.09375 33.964844 160.609375 34.789062 156.128906 35.632812 C 156.070312 35.644531 156.003906 35.644531 155.945312 35.660156 C 155.519531 35.742188 154.917969 35.691406 154.796875 36.128906 C 154.648438 36.6875 155.253906 36.949219 155.632812 37.253906 C 156.84375 38.242188 158.066406 39.21875 159.277344 40.195312 C 159.964844 40.746094 160.632812 41.296875 161.332031 41.832031 C 161.972656 42.324219 162.367188 42.902344 162.269531 43.746094 C 162.242188 44.050781 162.269531 44.371094 162.269531 44.683594 C 162.269531 62.242188 162.269531 79.808594 162.277344 97.367188 C 162.277344 99.917969 162.210938 99.824219 159.933594 98.972656 C 156.75 97.789062 153.488281 96.972656 150.054688 97.097656 C 145.894531 97.246094 142.261719 98.683594 139.21875 101.5625 C 136.046875 104.570312 134.082031 108.300781 132.726562 112.378906 C 131.300781 116.667969 130.585938 121.09375 130.28125 125.597656 C 129.90625 131.054688 130.257812 136.457031 131.136719 141.839844 C 131.574219 144.558594 132.199219 147.230469 133.035156 149.847656 C 133.242188 150.503906 133.429688 151.167969 133.578125 151.835938 C 133.667969 152.230469 133.414062 152.597656 132.996094 152.640625 C 132.378906 152.707031 131.753906 152.722656 131.128906 152.730469 C 113.621094 152.730469 96.113281 152.730469 78.609375 152.730469 C 77.171875 152.730469 75.726562 152.789062 74.296875 152.707031 C 73.234375 152.648438 72.570312 153.035156 71.96875 153.898438 C 70.175781 156.457031 68.261719 158.929688 66.46875 161.492188 C 65.671875 162.628906 64.726562 163.089844 63.328125 163.082031 C 56.261719 163.03125 49.191406 163.023438 42.128906 163.082031 C 40.617188 163.097656 39.515625 162.605469 38.496094 161.535156 C 36.078125 159.003906 33.554688 156.570312 31.140625 154.039062 C 30.195312 153.050781 29.167969 152.691406 27.820312 152.699219 C 20.378906 152.746094 12.941406 152.722656 5.5 152.722656 C 3.074219 152.722656 3.175781 152.847656 3.191406 150.339844 C 3.191406 149.402344 3.191406 148.464844 3.230469 147.527344 C 3.25 147.007812 3.535156 146.730469 4.0625 146.707031 C 4.746094 146.671875 5.441406 146.679688 6.125 146.679688 C 44.078125 146.679688 82.03125 146.679688 119.984375 146.679688 C 120.550781 146.679688 121.109375 146.691406 121.675781 146.671875 C 122.53125 146.632812 122.769531 146.425781 122.769531 145.515625 C 122.792969 142.515625 122.792969 139.519531 122.769531 136.519531 C 122.761719 135.511719 122.441406 135.253906 121.371094 135.207031 C 120.871094 135.1875 120.371094 135.207031 119.867188 135.207031 C 100.796875 135.207031 81.726562 135.207031 62.648438 135.207031 Z M 85.574219 131.71875 C 85.574219 131.664062 85.574219 131.613281 85.574219 131.5625 C 87.890625 131.5625 90.199219 131.574219 92.511719 131.5625 C 93.835938 131.546875 94.046875 131.332031 94.105469 130.058594 C 94.113281 129.804688 94.105469 129.558594 94.105469 129.304688 C 94.105469 126.121094 94.105469 122.933594 94.105469 119.75 C 94.105469 119.375 94.121094 118.996094 94.089844 118.625 C 94.015625 117.738281 93.6875 117.433594 92.78125 117.382812 C 92.339844 117.359375 91.902344 117.367188 91.46875 117.375 C 88.539062 117.402344 85.597656 117.425781 82.664062 117.472656 C 81.226562 117.492188 79.792969 117.523438 78.355469 117.582031 C 77.550781 117.621094 77.34375 117.820312 77.335938 118.601562 C 77.3125 120.097656 77.328125 121.601562 77.328125 123.097656 C 77.328125 125.597656 77.3125 128.09375 77.34375 130.59375 C 77.351562 131.480469 77.566406 131.695312 78.464844 131.703125 C 80.839844 131.726562 83.214844 131.703125 85.589844 131.703125 Z M 14.78125 120.082031 C 14.78125 120.082031 14.78125 120.121094 14.78125 120.144531 C 13.03125 120.144531 11.289062 120.144531 9.542969 120.144531 C 9.101562 120.144531 8.664062 120.128906 8.230469 120.1875 C 7.753906 120.253906 7.441406 120.558594 7.390625 121.050781 C 7.351562 121.421875 7.34375 121.796875 7.34375 122.167969 C 7.34375 125.03125 7.34375 127.898438 7.34375 130.773438 C 7.34375 132.757812 7.359375 132.738281 9.304688 132.78125 C 13.226562 132.871094 17.140625 132.371094 21.070312 132.515625 C 21.980469 132.542969 22.164062 132.335938 22.164062 131.398438 C 22.179688 128.03125 22.1875 124.667969 22.164062 121.296875 C 22.164062 120.292969 21.941406 120.082031 20.953125 120.074219 C 18.898438 120.054688 16.835938 120.074219 14.78125 120.074219 Z M 14.78125 120.082031 " fill-opacity="1" fill-rule="nonzero"/></g><path fill="#1e40af" d="M 185.292969 163.128906 C 181.542969 163.128906 177.796875 163.128906 174.046875 163.128906 C 173.605469 163.128906 173.167969 163.144531 172.738281 163.121094 C 171.761719 163.070312 171.515625 162.875 171.351562 161.953125 C 171.054688 160.292969 170.769531 158.632812 170.488281 156.972656 C 170.4375 156.667969 170.382812 156.355469 170.390625 156.050781 C 170.398438 155.714844 170.601562 155.433594 170.941406 155.394531 C 171.433594 155.335938 171.941406 155.328125 172.4375 155.328125 C 177.1875 155.328125 181.9375 155.328125 186.683594 155.328125 C 187.125 155.328125 187.5625 155.34375 187.996094 155.328125 C 189.066406 155.28125 189.296875 154.984375 189.015625 153.898438 C 188.730469 152.8125 188.398438 151.738281 188.09375 150.660156 C 186.023438 143.269531 186.996094 136.207031 190.382812 129.402344 C 191.300781 127.5625 192.625 126.105469 194.398438 125.0625 C 196.511719 123.828125 198.675781 123.820312 200.851562 124.871094 C 202.347656 125.589844 203.507812 126.707031 204.414062 128.101562 C 205.6875 130.058594 206.648438 132.164062 207.101562 134.449219 C 208.71875 142.546875 207.46875 150.222656 203.5 157.449219 C 202.5625 159.152344 201.320312 160.632812 199.949219 162.027344 C 199.144531 162.84375 198.253906 163.171875 197.105469 163.164062 C 193.167969 163.121094 189.230469 163.152344 185.292969 163.152344 Z M 203.046875 141.75 C 202.90625 145.867188 202.078125 149.484375 200.226562 152.835938 C 200.046875 153.160156 199.867188 153.496094 199.75 153.847656 C 199.636719 154.167969 199.785156 154.464844 200.023438 154.6875 C 200.261719 154.910156 200.78125 154.835938 201.027344 154.507812 C 201.320312 154.105469 201.585938 153.683594 201.800781 153.242188 C 203.296875 150.183594 204.214844 146.96875 204.527344 143.574219 C 204.914062 139.390625 204.058594 135.507812 201.800781 131.957031 C 201.476562 131.433594 201.042969 130.964844 200.625 130.503906 C 200.410156 130.265625 200.097656 130.160156 199.777344 130.339844 C 199.40625 130.546875 199.285156 130.882812 199.355469 131.292969 C 199.457031 131.941406 199.882812 132.410156 200.246094 132.914062 C 202.195312 135.664062 203 138.75 203.039062 141.757812 Z M 203.046875 141.75 " fill-opacity="1" fill-rule="nonzero"/><path fill="#1e40af" d="M 249.550781 163.121094 C 247.550781 163.121094 245.554688 163.136719 243.550781 163.121094 C 242.554688 163.105469 242.300781 162.859375 242.273438 161.929688 C 242.242188 160.933594 242.25 159.933594 242.28125 158.9375 C 242.300781 158.296875 242.554688 158.035156 243.21875 158.023438 C 244.839844 157.992188 246.460938 157.992188 248.085938 158 C 250.148438 158.007812 250.214844 158.035156 249.96875 155.984375 C 249.535156 152.296875 249.722656 148.628906 250.898438 145.054688 C 251.269531 143.917969 251.746094 142.84375 252.515625 141.914062 C 253.707031 140.46875 254.984375 140.21875 256.660156 141.101562 C 257.738281 141.675781 258.527344 142.539062 259.117188 143.605469 C 260.113281 145.398438 260.5 147.355469 260.628906 149.351562 C 260.871094 153.078125 260.253906 156.691406 258.863281 160.160156 C 258.65625 160.679688 258.363281 161.164062 258.105469 161.660156 C 257.566406 162.710938 256.75 163.1875 255.527344 163.144531 C 253.535156 163.074219 251.53125 163.128906 249.53125 163.128906 Z M 257.8125 150.964844 C 257.867188 153.546875 257.316406 155.902344 256.339844 158.164062 C 256.167969 158.566406 255.976562 158.960938 255.832031 159.371094 C 255.765625 159.539062 255.832031 159.785156 256.027344 159.816406 C 256.167969 159.839844 256.363281 159.703125 256.496094 159.601562 C 256.585938 159.53125 256.628906 159.390625 256.683594 159.28125 C 258.148438 156.101562 258.855469 152.773438 258.589844 149.277344 C 258.476562 147.824219 258.007812 146.46875 257.242188 145.226562 C 257.113281 145.027344 256.921875 144.855469 256.726562 144.699219 C 256.652344 144.640625 256.464844 144.644531 256.390625 144.699219 C 256.308594 144.757812 256.234375 144.921875 256.25 145.019531 C 256.296875 145.257812 256.363281 145.511719 256.488281 145.710938 C 257.523438 147.355469 257.878906 149.164062 257.820312 150.972656 Z M 257.8125 150.964844 " fill-opacity="1" fill-rule="nonzero"/><path fill="#1e40af" d="M 267.75 163.121094 C 266.128906 163.121094 264.503906 163.121094 262.875 163.121094 C 262.316406 163.121094 261.863281 162.90625 261.730469 162.355469 C 261.453125 161.207031 261.074219 160.070312 261.03125 158.878906 C 261.015625 158.386719 261.296875 158.074219 261.824219 158.03125 C 262.324219 157.984375 262.824219 158 263.320312 158 C 264.191406 158 265.070312 158.015625 265.941406 157.984375 C 266.632812 157.953125 266.859375 157.703125 266.8125 157.054688 C 266.796875 156.742188 266.722656 156.4375 266.699219 156.125 C 266.46875 153.289062 266.730469 150.519531 267.667969 147.816406 C 267.960938 146.984375 268.332031 146.195312 268.910156 145.53125 C 269.925781 144.378906 271.136719 144.230469 272.417969 145.078125 C 273.230469 145.613281 273.792969 146.367188 274.144531 147.242188 C 274.496094 148.109375 274.835938 148.992188 275.023438 149.910156 C 275.753906 153.511719 275.65625 157.105469 274.695312 160.664062 C 274.597656 161.023438 274.441406 161.371094 274.332031 161.722656 C 274.003906 162.757812 273.332031 163.203125 272.222656 163.15625 C 270.726562 163.097656 269.222656 163.144531 267.726562 163.144531 Z M 272.304688 159.503906 C 272.515625 159.5625 272.605469 159.503906 272.664062 159.363281 C 273.988281 156.414062 274.351562 153.378906 273.453125 150.242188 C 273.28125 149.648438 272.976562 149.097656 272.707031 148.539062 C 272.605469 148.316406 272.402344 148.109375 272.140625 148.242188 C 271.949219 148.339844 272.046875 148.578125 272.140625 148.738281 C 272.691406 149.730469 273.085938 150.765625 273.238281 151.902344 C 273.511719 154.046875 273.28125 156.132812 272.582031 158.171875 C 272.433594 158.609375 272.105469 159.027344 272.3125 159.511719 Z M 272.304688 159.503906 " fill-opacity="1" fill-rule="nonzero"/><path fill="#1e40af" d="M 131.96875 163.128906 C 125.785156 163.128906 119.597656 163.128906 113.414062 163.128906 C 111.664062 163.128906 111.558594 163.015625 111.335938 161.253906 C 111.144531 159.703125 110.933594 158.15625 110.734375 156.609375 C 110.554688 155.230469 110.761719 155.007812 112.222656 154.976562 C 112.59375 154.96875 112.972656 154.976562 113.347656 154.976562 C 121.222656 154.976562 129.089844 154.976562 136.964844 154.976562 C 137.460938 154.976562 137.960938 154.992188 138.460938 154.960938 C 139.128906 154.925781 139.300781 154.664062 139.128906 153.972656 C 139.054688 153.667969 138.964844 153.371094 138.871094 153.070312 C 137.335938 148.375 136.183594 143.589844 135.511719 138.691406 C 134.597656 131.925781 134.863281 125.234375 136.933594 118.683594 C 137.671875 116.355469 138.59375 114.105469 139.777344 111.96875 C 141.027344 109.691406 142.695312 107.757812 144.824219 106.269531 C 148.515625 103.671875 152.339844 103.523438 156.25 105.808594 C 158.347656 107.035156 159.933594 108.769531 161.199219 110.824219 C 163.601562 114.714844 164.863281 118.996094 165.492188 123.492188 C 165.902344 126.417969 165.976562 129.34375 165.828125 132.277344 C 165.441406 139.792969 163.640625 146.960938 160.066406 153.617188 C 158.40625 156.710938 156.355469 159.53125 153.734375 161.921875 C 152.796875 162.777344 151.796875 163.164062 150.527344 163.15625 C 144.339844 163.121094 138.15625 163.144531 131.96875 163.144531 Z M 161.914062 132.46875 C 161.863281 131.726562 161.824219 130.972656 161.75 130.234375 C 161.140625 124.058594 158.558594 118.75 154.53125 114.097656 C 154.246094 113.769531 153.925781 113.457031 153.585938 113.191406 C 152.839844 112.609375 152.265625 112.589844 151.722656 113.058594 C 151.160156 113.546875 151.070312 114.136719 151.523438 114.902344 C 151.871094 115.492188 152.296875 116.035156 152.683594 116.601562 C 154.144531 118.699219 155.558594 120.828125 156.695312 123.136719 C 159.429688 128.703125 159.785156 134.367188 157.484375 140.164062 C 156.515625 142.605469 155.296875 144.921875 153.925781 147.164062 C 153.570312 147.75 153.21875 148.339844 152.914062 148.957031 C 152.65625 149.46875 152.765625 149.910156 153.167969 150.3125 C 153.75 150.890625 154.730469 150.949219 155.378906 150.398438 C 155.660156 150.160156 155.898438 149.863281 156.121094 149.566406 C 159.820312 144.46875 161.789062 138.78125 161.914062 132.460938 Z M 161.914062 132.46875 " fill-opacity="1" fill-rule="nonzero"/></svg>