<?xml version="1.0" encoding="UTF-8"?>
<svg id="Layer_2" data-name="Layer 2" xmlns="http://www.w3.org/2000/svg" xmlns:xlink="http://www.w3.org/1999/xlink" viewBox="0 0 154.4 145.43">
  <defs>
    <style>
      .cls-1 {
        fill: url(#linear-gradient-2);
      }

      .cls-2 {
        fill: url(#linear-gradient-4);
      }

      .cls-3 {
        fill: url(#linear-gradient-3);
      }

      .cls-4 {
        fill: url(#linear-gradient-5);
      }

      .cls-5 {
        fill: url(#linear-gradient-7);
      }

      .cls-6 {
        fill: url(#linear-gradient-6);
      }

      .cls-7 {
        fill: url(#linear-gradient);
      }
    </style>
    <linearGradient id="linear-gradient" x1="0" y1="72.72" x2="154.4" y2="72.72" gradientUnits="userSpaceOnUse">
      <stop offset="0" stop-color="#639dd5"/>
      <stop offset="1" stop-color="#304397"/>
    </linearGradient>
    <linearGradient id="linear-gradient-2" x1="24.9" y1="67.95" x2="88.8" y2="67.95" xlink:href="#linear-gradient"/>
    <linearGradient id="linear-gradient-3" x1="17.63" y1="115.31" x2="70.61" y2="115.31" xlink:href="#linear-gradient"/>
    <linearGradient id="linear-gradient-4" x1="16.03" y1="121.63" x2="68.97" y2="121.63" xlink:href="#linear-gradient"/>
    <linearGradient id="linear-gradient-5" x1="40.16" y1="111.96" x2="72.22" y2="111.96" xlink:href="#linear-gradient"/>
    <linearGradient id="linear-gradient-6" x1="19.23" y1="104" x2="33.99" y2="104" xlink:href="#linear-gradient"/>
    <linearGradient id="linear-gradient-7" x1="44.98" y1="67.97" x2="67.98" y2="67.97" xlink:href="#linear-gradient"/>
  </defs>
  <g id="Layer_1-2" data-name="Layer 1">
    <g>
      <path class="cls-7" d="M151.78,15.26c5.53,5.8,1.43,11.32-4.29,14.55-6.13,3.46-13.98,4.99-20.91,5.87l-.53.74,19.46,72.87c.74,4.5-1.33,7.89-5.52,9.44l-57.4,15.38c-1.59,2.48-1.31,5.67-3.16,8.18-3.42,4.65-7.75,3.1-12.36,1.96-20.46-5.08-40.66-11.33-61.13-16.38-4.02-1.27-6.63-5.11-5.77-9.38L27.59,16.09c1.58-4.48,3.46-4.92,7.65-6.21,12.29-3.78,25.29-6.48,37.72-9.88,2.63.01,3.84,1.49,5.89,2.32,2.28.92,13.01,3.89,15.23,4.01,2.25.12,5.74-.8,8.18-.95,12.54-.77,40.35.27,49.51,9.87ZM104.63,33.42c-.19-.56-.57-.98-.94-1.42-8.01-9.49-19.13-17.97-27.41-27.41-2.63-2.37-5.65-.87-8.65-.13-10.05,2.5-20.93,5.26-30.81,8.26-2.17.66-4.89.92-5.83,3.3L3.31,118.79c-.7,4.62,1.82,5.41,5.46,6.54,20.92,6.5,42.66,10.7,63.65,17.04,2.53.23,4.55-1.31,5.34-3.64l27.18-102.15c-9.96-.58-20.87-1.95-29.83-6.56-.58-.3-2.63-1.83-2.82-1.87-.6-.12-2.16.59-3.1.56-7.78-.19-10.3-11.21-3.22-14.56,7.66-3.63,14.58,5.63,9.04,11.87,8.51,5.53,19.64,6.66,29.61,7.4ZM121.96,33.1c-1.64-4.38-2.28-9.31-3.78-13.71-1.68-4.94-4.5-4.43-9.07-5.73-8.56-2.44-17.25-4.6-25.9-6.7l23.16,23.31,1.77,3.43,13.82-.59ZM102.74,8.84c5.57,2.01,15.41,1.84,17.97,8.03,1.88,4.56,2.49,10.64,4.15,15.38l.45.52c6.94-1.03,20.64-3.32,25-9.28,3.47-4.73-3.79-8.43-7.35-9.98-10.48-4.54-22.8-5.01-34.09-5.32l-6.13.64ZM69.34,16.41c-5.84.82-5.9,8.05-.16,9.14.12-.85-.71-1.55-1.01-2.46-.55-1.68-.52-2.81.08-4.47.31-.85.97-1.37,1.09-2.21ZM72.34,17.98c-2.08.85-1.29,6.33.3,5.98,1.43-.31,1.81-5.65-.3-5.98ZM83.2,130.46l55.7-14.72c2.74-.88,4.16-3.6,3.39-6.41l-19.3-72.08-.61-.96-14.28.6-24.9,93.56Z"/>
      <path class="cls-1" d="M41.87,36.02c1.54-.11,3.4.54,4.92.9,11.33,2.66,24.75,6.05,35.78,9.59,3.86,1.24,6.07,3.15,6.23,7.46-3.22,11.95-6.04,24.04-9.47,35.92-1.53,5.3-2.34,10.7-9.44,9.93-12.41-3.72-25.46-6.28-37.8-10.09-4.65-1.44-7.8-3.18-7.1-8.81l10.79-40.25c.96-2.52,3.36-4.47,6.08-4.66ZM42.17,39.16c-1.69.26-2.97,1.17-3.49,2.84l-10.54,39.24c-.66,4.35,2.32,4.7,5.53,5.66,12.05,3.64,24.48,6.15,36.54,9.78,3.82.47,4.43-1.92,5.34-4.89,3.82-12.45,6.37-25.33,10.11-37.81.11-1.46-.7-2.84-1.85-3.67l-41.63-11.14Z"/>
      <path class="cls-3" d="M18.06,109.91c-1.01-1.01-.1-3.24,1.57-2.7l49.47,13.25c1.67.39,2.05,1.97.66,3.02l-2.01-.09-49.69-13.48Z"/>
      <path class="cls-2" d="M16.95,113.51c.56-.17,1.13-.06,1.68.08l48.44,13c2.96.66,2.26,3.7-.64,3.17-15.7-5.1-32.85-7.86-48.44-13-.58-.19-1.64-.39-1.84-1-.25-.76-.08-1.99.81-2.25Z"/>
      <path class="cls-4" d="M41.21,106.57c.83-.24,3.6.67,4.63.92,8.32,2.01,16.51,4.68,24.83,6.67,2.11.51,2.04,3.01-.11,3.23l-29.92-8.18c-.91-.71-.47-2.35.55-2.65Z"/>
      <path class="cls-6" d="M19.63,103.61c-.98-.98-.04-2.82,1.3-2.75l11.72,3.12c.66.18,1.39,1.02,1.33,1.7-.23.91-1.01,1.5-1.95,1.46-2.01-1.06-11.27-2.4-12.4-3.53Z"/>
      <path class="cls-5" d="M62.43,53.56c3.48.35,7.48,8.44,4.51,10.39-2.74,1.8-2.19-2.35-2.35-3.56-.67-4.84-8.85-6.4-11.13-2.37-3.11,5.49,4.62,7.29,7.93,9.67,8.53,6.14,2.29,16.8-7.13,15.86-.65,6.21-5.66,4.91-2.94-.83-2.63-1.49-5.76-4.04-6.2-7.26-.17-1.21-.39-4.6,1.08-4.87,3.12-.57,1.58,3.47,2.39,5.49,2.41,6,14.54,5.92,13.52-2.5-.52-4.35-10.18-5.51-12.04-10.64-2.15-5.92,3.42-10.99,9.22-10.44.76-.53.25-4.84,2.83-4.14,2.5.68-.16,4.55.32,5.19Z"/>
    </g>
  </g>
</svg>